%TF.GenerationSoftware,KiCad,Pcbnew,7.0.8*%
%TF.CreationDate,2024-06-10T09:02:31-04:00*%
%TF.ProjectId,bottomboard,626f7474-6f6d-4626-9f61-72642e6b6963,rev?*%
%TF.SameCoordinates,Original*%
%TF.FileFunction,Legend,Bot*%
%TF.FilePolarity,Positive*%
%FSLAX46Y46*%
G04 Gerber Fmt 4.6, Leading zero omitted, Abs format (unit mm)*
G04 Created by KiCad (PCBNEW 7.0.8) date 2024-06-10 09:02:31*
%MOMM*%
%LPD*%
G01*
G04 APERTURE LIST*
%ADD10C,0.150000*%
%ADD11C,0.200000*%
%ADD12C,3.200000*%
G04 APERTURE END LIST*
D10*
X175619819Y-90872493D02*
X176334104Y-90872493D01*
X176334104Y-90872493D02*
X176476961Y-90824874D01*
X176476961Y-90824874D02*
X176572200Y-90729636D01*
X176572200Y-90729636D02*
X176619819Y-90586779D01*
X176619819Y-90586779D02*
X176619819Y-90491541D01*
X176619819Y-91824874D02*
X176619819Y-91348684D01*
X176619819Y-91348684D02*
X175619819Y-91348684D01*
X176524580Y-92729636D02*
X176572200Y-92682017D01*
X176572200Y-92682017D02*
X176619819Y-92539160D01*
X176619819Y-92539160D02*
X176619819Y-92443922D01*
X176619819Y-92443922D02*
X176572200Y-92301065D01*
X176572200Y-92301065D02*
X176476961Y-92205827D01*
X176476961Y-92205827D02*
X176381723Y-92158208D01*
X176381723Y-92158208D02*
X176191247Y-92110589D01*
X176191247Y-92110589D02*
X176048390Y-92110589D01*
X176048390Y-92110589D02*
X175857914Y-92158208D01*
X175857914Y-92158208D02*
X175762676Y-92205827D01*
X175762676Y-92205827D02*
X175667438Y-92301065D01*
X175667438Y-92301065D02*
X175619819Y-92443922D01*
X175619819Y-92443922D02*
X175619819Y-92539160D01*
X175619819Y-92539160D02*
X175667438Y-92682017D01*
X175667438Y-92682017D02*
X175715057Y-92729636D01*
X175619819Y-93443922D02*
X176334104Y-93443922D01*
X176334104Y-93443922D02*
X176476961Y-93396303D01*
X176476961Y-93396303D02*
X176572200Y-93301065D01*
X176572200Y-93301065D02*
X176619819Y-93158208D01*
X176619819Y-93158208D02*
X176619819Y-93062970D01*
X176619819Y-94396303D02*
X176619819Y-93920113D01*
X176619819Y-93920113D02*
X175619819Y-93920113D01*
X176524580Y-95301065D02*
X176572200Y-95253446D01*
X176572200Y-95253446D02*
X176619819Y-95110589D01*
X176619819Y-95110589D02*
X176619819Y-95015351D01*
X176619819Y-95015351D02*
X176572200Y-94872494D01*
X176572200Y-94872494D02*
X176476961Y-94777256D01*
X176476961Y-94777256D02*
X176381723Y-94729637D01*
X176381723Y-94729637D02*
X176191247Y-94682018D01*
X176191247Y-94682018D02*
X176048390Y-94682018D01*
X176048390Y-94682018D02*
X175857914Y-94729637D01*
X175857914Y-94729637D02*
X175762676Y-94777256D01*
X175762676Y-94777256D02*
X175667438Y-94872494D01*
X175667438Y-94872494D02*
X175619819Y-95015351D01*
X175619819Y-95015351D02*
X175619819Y-95110589D01*
X175619819Y-95110589D02*
X175667438Y-95253446D01*
X175667438Y-95253446D02*
X175715057Y-95301065D01*
X175619819Y-96015351D02*
X176334104Y-96015351D01*
X176334104Y-96015351D02*
X176476961Y-95967732D01*
X176476961Y-95967732D02*
X176572200Y-95872494D01*
X176572200Y-95872494D02*
X176619819Y-95729637D01*
X176619819Y-95729637D02*
X176619819Y-95634399D01*
X176619819Y-96967732D02*
X176619819Y-96491542D01*
X176619819Y-96491542D02*
X175619819Y-96491542D01*
X176524580Y-97872494D02*
X176572200Y-97824875D01*
X176572200Y-97824875D02*
X176619819Y-97682018D01*
X176619819Y-97682018D02*
X176619819Y-97586780D01*
X176619819Y-97586780D02*
X176572200Y-97443923D01*
X176572200Y-97443923D02*
X176476961Y-97348685D01*
X176476961Y-97348685D02*
X176381723Y-97301066D01*
X176381723Y-97301066D02*
X176191247Y-97253447D01*
X176191247Y-97253447D02*
X176048390Y-97253447D01*
X176048390Y-97253447D02*
X175857914Y-97301066D01*
X175857914Y-97301066D02*
X175762676Y-97348685D01*
X175762676Y-97348685D02*
X175667438Y-97443923D01*
X175667438Y-97443923D02*
X175619819Y-97586780D01*
X175619819Y-97586780D02*
X175619819Y-97682018D01*
X175619819Y-97682018D02*
X175667438Y-97824875D01*
X175667438Y-97824875D02*
X175715057Y-97872494D01*
X175619819Y-98586780D02*
X176334104Y-98586780D01*
X176334104Y-98586780D02*
X176476961Y-98539161D01*
X176476961Y-98539161D02*
X176572200Y-98443923D01*
X176572200Y-98443923D02*
X176619819Y-98301066D01*
X176619819Y-98301066D02*
X176619819Y-98205828D01*
X176619819Y-99539161D02*
X176619819Y-99062971D01*
X176619819Y-99062971D02*
X175619819Y-99062971D01*
X176524580Y-100443923D02*
X176572200Y-100396304D01*
X176572200Y-100396304D02*
X176619819Y-100253447D01*
X176619819Y-100253447D02*
X176619819Y-100158209D01*
X176619819Y-100158209D02*
X176572200Y-100015352D01*
X176572200Y-100015352D02*
X176476961Y-99920114D01*
X176476961Y-99920114D02*
X176381723Y-99872495D01*
X176381723Y-99872495D02*
X176191247Y-99824876D01*
X176191247Y-99824876D02*
X176048390Y-99824876D01*
X176048390Y-99824876D02*
X175857914Y-99872495D01*
X175857914Y-99872495D02*
X175762676Y-99920114D01*
X175762676Y-99920114D02*
X175667438Y-100015352D01*
X175667438Y-100015352D02*
X175619819Y-100158209D01*
X175619819Y-100158209D02*
X175619819Y-100253447D01*
X175619819Y-100253447D02*
X175667438Y-100396304D01*
X175667438Y-100396304D02*
X175715057Y-100443923D01*
D11*
X173642855Y-116556028D02*
X173285712Y-117556028D01*
X173285712Y-117556028D02*
X172928569Y-116556028D01*
X171571426Y-117556028D02*
X172428569Y-117556028D01*
X171999998Y-117556028D02*
X171999998Y-116056028D01*
X171999998Y-116056028D02*
X172142855Y-116270314D01*
X172142855Y-116270314D02*
X172285712Y-116413171D01*
X172285712Y-116413171D02*
X172428569Y-116484600D01*
X170928570Y-117413171D02*
X170857141Y-117484600D01*
X170857141Y-117484600D02*
X170928570Y-117556028D01*
X170928570Y-117556028D02*
X170999998Y-117484600D01*
X170999998Y-117484600D02*
X170928570Y-117413171D01*
X170928570Y-117413171D02*
X170928570Y-117556028D01*
X169928569Y-116056028D02*
X169785712Y-116056028D01*
X169785712Y-116056028D02*
X169642855Y-116127457D01*
X169642855Y-116127457D02*
X169571427Y-116198885D01*
X169571427Y-116198885D02*
X169499998Y-116341742D01*
X169499998Y-116341742D02*
X169428569Y-116627457D01*
X169428569Y-116627457D02*
X169428569Y-116984600D01*
X169428569Y-116984600D02*
X169499998Y-117270314D01*
X169499998Y-117270314D02*
X169571427Y-117413171D01*
X169571427Y-117413171D02*
X169642855Y-117484600D01*
X169642855Y-117484600D02*
X169785712Y-117556028D01*
X169785712Y-117556028D02*
X169928569Y-117556028D01*
X169928569Y-117556028D02*
X170071427Y-117484600D01*
X170071427Y-117484600D02*
X170142855Y-117413171D01*
X170142855Y-117413171D02*
X170214284Y-117270314D01*
X170214284Y-117270314D02*
X170285712Y-116984600D01*
X170285712Y-116984600D02*
X170285712Y-116627457D01*
X170285712Y-116627457D02*
X170214284Y-116341742D01*
X170214284Y-116341742D02*
X170142855Y-116198885D01*
X170142855Y-116198885D02*
X170071427Y-116127457D01*
X170071427Y-116127457D02*
X169928569Y-116056028D01*
X168785713Y-117413171D02*
X168714284Y-117484600D01*
X168714284Y-117484600D02*
X168785713Y-117556028D01*
X168785713Y-117556028D02*
X168857141Y-117484600D01*
X168857141Y-117484600D02*
X168785713Y-117413171D01*
X168785713Y-117413171D02*
X168785713Y-117556028D01*
X167785712Y-116056028D02*
X167642855Y-116056028D01*
X167642855Y-116056028D02*
X167499998Y-116127457D01*
X167499998Y-116127457D02*
X167428570Y-116198885D01*
X167428570Y-116198885D02*
X167357141Y-116341742D01*
X167357141Y-116341742D02*
X167285712Y-116627457D01*
X167285712Y-116627457D02*
X167285712Y-116984600D01*
X167285712Y-116984600D02*
X167357141Y-117270314D01*
X167357141Y-117270314D02*
X167428570Y-117413171D01*
X167428570Y-117413171D02*
X167499998Y-117484600D01*
X167499998Y-117484600D02*
X167642855Y-117556028D01*
X167642855Y-117556028D02*
X167785712Y-117556028D01*
X167785712Y-117556028D02*
X167928570Y-117484600D01*
X167928570Y-117484600D02*
X167999998Y-117413171D01*
X167999998Y-117413171D02*
X168071427Y-117270314D01*
X168071427Y-117270314D02*
X168142855Y-116984600D01*
X168142855Y-116984600D02*
X168142855Y-116627457D01*
X168142855Y-116627457D02*
X168071427Y-116341742D01*
X168071427Y-116341742D02*
X167999998Y-116198885D01*
X167999998Y-116198885D02*
X167928570Y-116127457D01*
X167928570Y-116127457D02*
X167785712Y-116056028D01*
X166571427Y-117484600D02*
X166571427Y-117556028D01*
X166571427Y-117556028D02*
X166642856Y-117698885D01*
X166642856Y-117698885D02*
X166714284Y-117770314D01*
X164357141Y-116056028D02*
X164357141Y-117127457D01*
X164357141Y-117127457D02*
X164428570Y-117341742D01*
X164428570Y-117341742D02*
X164571427Y-117484600D01*
X164571427Y-117484600D02*
X164785713Y-117556028D01*
X164785713Y-117556028D02*
X164928570Y-117556028D01*
X162999999Y-116556028D02*
X162999999Y-117556028D01*
X163642856Y-116556028D02*
X163642856Y-117341742D01*
X163642856Y-117341742D02*
X163571427Y-117484600D01*
X163571427Y-117484600D02*
X163428570Y-117556028D01*
X163428570Y-117556028D02*
X163214284Y-117556028D01*
X163214284Y-117556028D02*
X163071427Y-117484600D01*
X163071427Y-117484600D02*
X162999999Y-117413171D01*
X162285713Y-116556028D02*
X162285713Y-117556028D01*
X162285713Y-116698885D02*
X162214284Y-116627457D01*
X162214284Y-116627457D02*
X162071427Y-116556028D01*
X162071427Y-116556028D02*
X161857141Y-116556028D01*
X161857141Y-116556028D02*
X161714284Y-116627457D01*
X161714284Y-116627457D02*
X161642856Y-116770314D01*
X161642856Y-116770314D02*
X161642856Y-117556028D01*
X160357141Y-117484600D02*
X160499998Y-117556028D01*
X160499998Y-117556028D02*
X160785713Y-117556028D01*
X160785713Y-117556028D02*
X160928570Y-117484600D01*
X160928570Y-117484600D02*
X160999998Y-117341742D01*
X160999998Y-117341742D02*
X160999998Y-116770314D01*
X160999998Y-116770314D02*
X160928570Y-116627457D01*
X160928570Y-116627457D02*
X160785713Y-116556028D01*
X160785713Y-116556028D02*
X160499998Y-116556028D01*
X160499998Y-116556028D02*
X160357141Y-116627457D01*
X160357141Y-116627457D02*
X160285713Y-116770314D01*
X160285713Y-116770314D02*
X160285713Y-116913171D01*
X160285713Y-116913171D02*
X160999998Y-117056028D01*
X158571427Y-116198885D02*
X158499999Y-116127457D01*
X158499999Y-116127457D02*
X158357142Y-116056028D01*
X158357142Y-116056028D02*
X157999999Y-116056028D01*
X157999999Y-116056028D02*
X157857142Y-116127457D01*
X157857142Y-116127457D02*
X157785713Y-116198885D01*
X157785713Y-116198885D02*
X157714284Y-116341742D01*
X157714284Y-116341742D02*
X157714284Y-116484600D01*
X157714284Y-116484600D02*
X157785713Y-116698885D01*
X157785713Y-116698885D02*
X158642856Y-117556028D01*
X158642856Y-117556028D02*
X157714284Y-117556028D01*
X156785713Y-116056028D02*
X156642856Y-116056028D01*
X156642856Y-116056028D02*
X156499999Y-116127457D01*
X156499999Y-116127457D02*
X156428571Y-116198885D01*
X156428571Y-116198885D02*
X156357142Y-116341742D01*
X156357142Y-116341742D02*
X156285713Y-116627457D01*
X156285713Y-116627457D02*
X156285713Y-116984600D01*
X156285713Y-116984600D02*
X156357142Y-117270314D01*
X156357142Y-117270314D02*
X156428571Y-117413171D01*
X156428571Y-117413171D02*
X156499999Y-117484600D01*
X156499999Y-117484600D02*
X156642856Y-117556028D01*
X156642856Y-117556028D02*
X156785713Y-117556028D01*
X156785713Y-117556028D02*
X156928571Y-117484600D01*
X156928571Y-117484600D02*
X156999999Y-117413171D01*
X156999999Y-117413171D02*
X157071428Y-117270314D01*
X157071428Y-117270314D02*
X157142856Y-116984600D01*
X157142856Y-116984600D02*
X157142856Y-116627457D01*
X157142856Y-116627457D02*
X157071428Y-116341742D01*
X157071428Y-116341742D02*
X156999999Y-116198885D01*
X156999999Y-116198885D02*
X156928571Y-116127457D01*
X156928571Y-116127457D02*
X156785713Y-116056028D01*
X155714285Y-116198885D02*
X155642857Y-116127457D01*
X155642857Y-116127457D02*
X155500000Y-116056028D01*
X155500000Y-116056028D02*
X155142857Y-116056028D01*
X155142857Y-116056028D02*
X155000000Y-116127457D01*
X155000000Y-116127457D02*
X154928571Y-116198885D01*
X154928571Y-116198885D02*
X154857142Y-116341742D01*
X154857142Y-116341742D02*
X154857142Y-116484600D01*
X154857142Y-116484600D02*
X154928571Y-116698885D01*
X154928571Y-116698885D02*
X155785714Y-117556028D01*
X155785714Y-117556028D02*
X154857142Y-117556028D01*
X153571429Y-116556028D02*
X153571429Y-117556028D01*
X153928571Y-115984600D02*
X154285714Y-117056028D01*
X154285714Y-117056028D02*
X153357143Y-117056028D01*
%LPC*%
D12*
%TO.C,REF\u002A\u002A*%
X100500000Y-116500000D03*
%TD*%
%TO.C,REF\u002A\u002A*%
X179500000Y-61500000D03*
%TD*%
%LPD*%
M02*
