%TF.GenerationSoftware,KiCad,Pcbnew,7.0.8*%
%TF.CreationDate,2024-05-31T18:16:30-04:00*%
%TF.ProjectId, bottom_board,20626f74-746f-46d5-9f62-6f6172642e6b,rev?*%
%TF.SameCoordinates,Original*%
%TF.FileFunction,Legend,Top*%
%TF.FilePolarity,Positive*%
%FSLAX46Y46*%
G04 Gerber Fmt 4.6, Leading zero omitted, Abs format (unit mm)*
G04 Created by KiCad (PCBNEW 7.0.8) date 2024-05-31 18:16:30*
%MOMM*%
%LPD*%
G01*
G04 APERTURE LIST*
%ADD10C,0.200000*%
%ADD11C,0.400000*%
%ADD12C,3.200000*%
G04 APERTURE END LIST*
D10*
X129749999Y-76806028D02*
X129749999Y-75306028D01*
X129749999Y-75877457D02*
X129892857Y-75806028D01*
X129892857Y-75806028D02*
X130178571Y-75806028D01*
X130178571Y-75806028D02*
X130321428Y-75877457D01*
X130321428Y-75877457D02*
X130392857Y-75948885D01*
X130392857Y-75948885D02*
X130464285Y-76091742D01*
X130464285Y-76091742D02*
X130464285Y-76520314D01*
X130464285Y-76520314D02*
X130392857Y-76663171D01*
X130392857Y-76663171D02*
X130321428Y-76734600D01*
X130321428Y-76734600D02*
X130178571Y-76806028D01*
X130178571Y-76806028D02*
X129892857Y-76806028D01*
X129892857Y-76806028D02*
X129749999Y-76734600D01*
X130964285Y-75806028D02*
X131321428Y-76806028D01*
X131678571Y-75806028D02*
X131321428Y-76806028D01*
X131321428Y-76806028D02*
X131178571Y-77163171D01*
X131178571Y-77163171D02*
X131107142Y-77234600D01*
X131107142Y-77234600D02*
X130964285Y-77306028D01*
X133392856Y-76806028D02*
X133392856Y-75306028D01*
X134035714Y-76734600D02*
X134178571Y-76806028D01*
X134178571Y-76806028D02*
X134464285Y-76806028D01*
X134464285Y-76806028D02*
X134607142Y-76734600D01*
X134607142Y-76734600D02*
X134678571Y-76591742D01*
X134678571Y-76591742D02*
X134678571Y-76520314D01*
X134678571Y-76520314D02*
X134607142Y-76377457D01*
X134607142Y-76377457D02*
X134464285Y-76306028D01*
X134464285Y-76306028D02*
X134250000Y-76306028D01*
X134250000Y-76306028D02*
X134107142Y-76234600D01*
X134107142Y-76234600D02*
X134035714Y-76091742D01*
X134035714Y-76091742D02*
X134035714Y-76020314D01*
X134035714Y-76020314D02*
X134107142Y-75877457D01*
X134107142Y-75877457D02*
X134250000Y-75806028D01*
X134250000Y-75806028D02*
X134464285Y-75806028D01*
X134464285Y-75806028D02*
X134607142Y-75877457D01*
X135535714Y-76806028D02*
X135392857Y-76734600D01*
X135392857Y-76734600D02*
X135321428Y-76591742D01*
X135321428Y-76591742D02*
X135321428Y-75306028D01*
X136750000Y-76806028D02*
X136750000Y-76020314D01*
X136750000Y-76020314D02*
X136678571Y-75877457D01*
X136678571Y-75877457D02*
X136535714Y-75806028D01*
X136535714Y-75806028D02*
X136250000Y-75806028D01*
X136250000Y-75806028D02*
X136107142Y-75877457D01*
X136750000Y-76734600D02*
X136607142Y-76806028D01*
X136607142Y-76806028D02*
X136250000Y-76806028D01*
X136250000Y-76806028D02*
X136107142Y-76734600D01*
X136107142Y-76734600D02*
X136035714Y-76591742D01*
X136035714Y-76591742D02*
X136035714Y-76448885D01*
X136035714Y-76448885D02*
X136107142Y-76306028D01*
X136107142Y-76306028D02*
X136250000Y-76234600D01*
X136250000Y-76234600D02*
X136607142Y-76234600D01*
X136607142Y-76234600D02*
X136750000Y-76163171D01*
X137464285Y-75806028D02*
X137464285Y-76806028D01*
X137464285Y-75948885D02*
X137535714Y-75877457D01*
X137535714Y-75877457D02*
X137678571Y-75806028D01*
X137678571Y-75806028D02*
X137892857Y-75806028D01*
X137892857Y-75806028D02*
X138035714Y-75877457D01*
X138035714Y-75877457D02*
X138107143Y-76020314D01*
X138107143Y-76020314D02*
X138107143Y-76806028D01*
X139464286Y-76806028D02*
X139464286Y-75306028D01*
X139464286Y-76734600D02*
X139321428Y-76806028D01*
X139321428Y-76806028D02*
X139035714Y-76806028D01*
X139035714Y-76806028D02*
X138892857Y-76734600D01*
X138892857Y-76734600D02*
X138821428Y-76663171D01*
X138821428Y-76663171D02*
X138750000Y-76520314D01*
X138750000Y-76520314D02*
X138750000Y-76091742D01*
X138750000Y-76091742D02*
X138821428Y-75948885D01*
X138821428Y-75948885D02*
X138892857Y-75877457D01*
X138892857Y-75877457D02*
X139035714Y-75806028D01*
X139035714Y-75806028D02*
X139321428Y-75806028D01*
X139321428Y-75806028D02*
X139464286Y-75877457D01*
X142178571Y-76806028D02*
X141678571Y-76091742D01*
X141321428Y-76806028D02*
X141321428Y-75306028D01*
X141321428Y-75306028D02*
X141892857Y-75306028D01*
X141892857Y-75306028D02*
X142035714Y-75377457D01*
X142035714Y-75377457D02*
X142107143Y-75448885D01*
X142107143Y-75448885D02*
X142178571Y-75591742D01*
X142178571Y-75591742D02*
X142178571Y-75806028D01*
X142178571Y-75806028D02*
X142107143Y-75948885D01*
X142107143Y-75948885D02*
X142035714Y-76020314D01*
X142035714Y-76020314D02*
X141892857Y-76091742D01*
X141892857Y-76091742D02*
X141321428Y-76091742D01*
X143035714Y-76806028D02*
X142892857Y-76734600D01*
X142892857Y-76734600D02*
X142821428Y-76663171D01*
X142821428Y-76663171D02*
X142750000Y-76520314D01*
X142750000Y-76520314D02*
X142750000Y-76091742D01*
X142750000Y-76091742D02*
X142821428Y-75948885D01*
X142821428Y-75948885D02*
X142892857Y-75877457D01*
X142892857Y-75877457D02*
X143035714Y-75806028D01*
X143035714Y-75806028D02*
X143250000Y-75806028D01*
X143250000Y-75806028D02*
X143392857Y-75877457D01*
X143392857Y-75877457D02*
X143464286Y-75948885D01*
X143464286Y-75948885D02*
X143535714Y-76091742D01*
X143535714Y-76091742D02*
X143535714Y-76520314D01*
X143535714Y-76520314D02*
X143464286Y-76663171D01*
X143464286Y-76663171D02*
X143392857Y-76734600D01*
X143392857Y-76734600D02*
X143250000Y-76806028D01*
X143250000Y-76806028D02*
X143035714Y-76806028D01*
X144178571Y-76806028D02*
X144178571Y-75306028D01*
X144178571Y-75877457D02*
X144321429Y-75806028D01*
X144321429Y-75806028D02*
X144607143Y-75806028D01*
X144607143Y-75806028D02*
X144750000Y-75877457D01*
X144750000Y-75877457D02*
X144821429Y-75948885D01*
X144821429Y-75948885D02*
X144892857Y-76091742D01*
X144892857Y-76091742D02*
X144892857Y-76520314D01*
X144892857Y-76520314D02*
X144821429Y-76663171D01*
X144821429Y-76663171D02*
X144750000Y-76734600D01*
X144750000Y-76734600D02*
X144607143Y-76806028D01*
X144607143Y-76806028D02*
X144321429Y-76806028D01*
X144321429Y-76806028D02*
X144178571Y-76734600D01*
X145750000Y-76806028D02*
X145607143Y-76734600D01*
X145607143Y-76734600D02*
X145535714Y-76663171D01*
X145535714Y-76663171D02*
X145464286Y-76520314D01*
X145464286Y-76520314D02*
X145464286Y-76091742D01*
X145464286Y-76091742D02*
X145535714Y-75948885D01*
X145535714Y-75948885D02*
X145607143Y-75877457D01*
X145607143Y-75877457D02*
X145750000Y-75806028D01*
X145750000Y-75806028D02*
X145964286Y-75806028D01*
X145964286Y-75806028D02*
X146107143Y-75877457D01*
X146107143Y-75877457D02*
X146178572Y-75948885D01*
X146178572Y-75948885D02*
X146250000Y-76091742D01*
X146250000Y-76091742D02*
X146250000Y-76520314D01*
X146250000Y-76520314D02*
X146178572Y-76663171D01*
X146178572Y-76663171D02*
X146107143Y-76734600D01*
X146107143Y-76734600D02*
X145964286Y-76806028D01*
X145964286Y-76806028D02*
X145750000Y-76806028D01*
X146678572Y-75806028D02*
X147250000Y-75806028D01*
X146892857Y-75306028D02*
X146892857Y-76591742D01*
X146892857Y-76591742D02*
X146964286Y-76734600D01*
X146964286Y-76734600D02*
X147107143Y-76806028D01*
X147107143Y-76806028D02*
X147250000Y-76806028D01*
X147750000Y-76806028D02*
X147750000Y-75806028D01*
X147750000Y-75306028D02*
X147678572Y-75377457D01*
X147678572Y-75377457D02*
X147750000Y-75448885D01*
X147750000Y-75448885D02*
X147821429Y-75377457D01*
X147821429Y-75377457D02*
X147750000Y-75306028D01*
X147750000Y-75306028D02*
X147750000Y-75448885D01*
X149107144Y-76734600D02*
X148964286Y-76806028D01*
X148964286Y-76806028D02*
X148678572Y-76806028D01*
X148678572Y-76806028D02*
X148535715Y-76734600D01*
X148535715Y-76734600D02*
X148464286Y-76663171D01*
X148464286Y-76663171D02*
X148392858Y-76520314D01*
X148392858Y-76520314D02*
X148392858Y-76091742D01*
X148392858Y-76091742D02*
X148464286Y-75948885D01*
X148464286Y-75948885D02*
X148535715Y-75877457D01*
X148535715Y-75877457D02*
X148678572Y-75806028D01*
X148678572Y-75806028D02*
X148964286Y-75806028D01*
X148964286Y-75806028D02*
X149107144Y-75877457D01*
X149678572Y-76734600D02*
X149821429Y-76806028D01*
X149821429Y-76806028D02*
X150107143Y-76806028D01*
X150107143Y-76806028D02*
X150250000Y-76734600D01*
X150250000Y-76734600D02*
X150321429Y-76591742D01*
X150321429Y-76591742D02*
X150321429Y-76520314D01*
X150321429Y-76520314D02*
X150250000Y-76377457D01*
X150250000Y-76377457D02*
X150107143Y-76306028D01*
X150107143Y-76306028D02*
X149892858Y-76306028D01*
X149892858Y-76306028D02*
X149750000Y-76234600D01*
X149750000Y-76234600D02*
X149678572Y-76091742D01*
X149678572Y-76091742D02*
X149678572Y-76020314D01*
X149678572Y-76020314D02*
X149750000Y-75877457D01*
X149750000Y-75877457D02*
X149892858Y-75806028D01*
X149892858Y-75806028D02*
X150107143Y-75806028D01*
X150107143Y-75806028D02*
X150250000Y-75877457D01*
X150357144Y-116556028D02*
X150714287Y-117556028D01*
X150714287Y-117556028D02*
X151071430Y-116556028D01*
X152428573Y-117556028D02*
X151571430Y-117556028D01*
X152000001Y-117556028D02*
X152000001Y-116056028D01*
X152000001Y-116056028D02*
X151857144Y-116270314D01*
X151857144Y-116270314D02*
X151714287Y-116413171D01*
X151714287Y-116413171D02*
X151571430Y-116484600D01*
X153071429Y-117413171D02*
X153142858Y-117484600D01*
X153142858Y-117484600D02*
X153071429Y-117556028D01*
X153071429Y-117556028D02*
X153000001Y-117484600D01*
X153000001Y-117484600D02*
X153071429Y-117413171D01*
X153071429Y-117413171D02*
X153071429Y-117556028D01*
X154071430Y-116056028D02*
X154214287Y-116056028D01*
X154214287Y-116056028D02*
X154357144Y-116127457D01*
X154357144Y-116127457D02*
X154428573Y-116198885D01*
X154428573Y-116198885D02*
X154500001Y-116341742D01*
X154500001Y-116341742D02*
X154571430Y-116627457D01*
X154571430Y-116627457D02*
X154571430Y-116984600D01*
X154571430Y-116984600D02*
X154500001Y-117270314D01*
X154500001Y-117270314D02*
X154428573Y-117413171D01*
X154428573Y-117413171D02*
X154357144Y-117484600D01*
X154357144Y-117484600D02*
X154214287Y-117556028D01*
X154214287Y-117556028D02*
X154071430Y-117556028D01*
X154071430Y-117556028D02*
X153928573Y-117484600D01*
X153928573Y-117484600D02*
X153857144Y-117413171D01*
X153857144Y-117413171D02*
X153785715Y-117270314D01*
X153785715Y-117270314D02*
X153714287Y-116984600D01*
X153714287Y-116984600D02*
X153714287Y-116627457D01*
X153714287Y-116627457D02*
X153785715Y-116341742D01*
X153785715Y-116341742D02*
X153857144Y-116198885D01*
X153857144Y-116198885D02*
X153928573Y-116127457D01*
X153928573Y-116127457D02*
X154071430Y-116056028D01*
X155214286Y-116984600D02*
X156357144Y-116984600D01*
X157071429Y-117556028D02*
X157071429Y-116056028D01*
X157071429Y-116627457D02*
X157214287Y-116556028D01*
X157214287Y-116556028D02*
X157500001Y-116556028D01*
X157500001Y-116556028D02*
X157642858Y-116627457D01*
X157642858Y-116627457D02*
X157714287Y-116698885D01*
X157714287Y-116698885D02*
X157785715Y-116841742D01*
X157785715Y-116841742D02*
X157785715Y-117270314D01*
X157785715Y-117270314D02*
X157714287Y-117413171D01*
X157714287Y-117413171D02*
X157642858Y-117484600D01*
X157642858Y-117484600D02*
X157500001Y-117556028D01*
X157500001Y-117556028D02*
X157214287Y-117556028D01*
X157214287Y-117556028D02*
X157071429Y-117484600D01*
X159000001Y-117484600D02*
X158857144Y-117556028D01*
X158857144Y-117556028D02*
X158571430Y-117556028D01*
X158571430Y-117556028D02*
X158428572Y-117484600D01*
X158428572Y-117484600D02*
X158357144Y-117341742D01*
X158357144Y-117341742D02*
X158357144Y-116770314D01*
X158357144Y-116770314D02*
X158428572Y-116627457D01*
X158428572Y-116627457D02*
X158571430Y-116556028D01*
X158571430Y-116556028D02*
X158857144Y-116556028D01*
X158857144Y-116556028D02*
X159000001Y-116627457D01*
X159000001Y-116627457D02*
X159071430Y-116770314D01*
X159071430Y-116770314D02*
X159071430Y-116913171D01*
X159071430Y-116913171D02*
X158357144Y-117056028D01*
X159500001Y-116556028D02*
X160071429Y-116556028D01*
X159714286Y-116056028D02*
X159714286Y-117341742D01*
X159714286Y-117341742D02*
X159785715Y-117484600D01*
X159785715Y-117484600D02*
X159928572Y-117556028D01*
X159928572Y-117556028D02*
X160071429Y-117556028D01*
X161214287Y-117556028D02*
X161214287Y-116770314D01*
X161214287Y-116770314D02*
X161142858Y-116627457D01*
X161142858Y-116627457D02*
X161000001Y-116556028D01*
X161000001Y-116556028D02*
X160714287Y-116556028D01*
X160714287Y-116556028D02*
X160571429Y-116627457D01*
X161214287Y-117484600D02*
X161071429Y-117556028D01*
X161071429Y-117556028D02*
X160714287Y-117556028D01*
X160714287Y-117556028D02*
X160571429Y-117484600D01*
X160571429Y-117484600D02*
X160500001Y-117341742D01*
X160500001Y-117341742D02*
X160500001Y-117198885D01*
X160500001Y-117198885D02*
X160571429Y-117056028D01*
X160571429Y-117056028D02*
X160714287Y-116984600D01*
X160714287Y-116984600D02*
X161071429Y-116984600D01*
X161071429Y-116984600D02*
X161214287Y-116913171D01*
X161857144Y-116198885D02*
X161928572Y-116127457D01*
X161928572Y-116127457D02*
X162071430Y-116056028D01*
X162071430Y-116056028D02*
X162428572Y-116056028D01*
X162428572Y-116056028D02*
X162571430Y-116127457D01*
X162571430Y-116127457D02*
X162642858Y-116198885D01*
X162642858Y-116198885D02*
X162714287Y-116341742D01*
X162714287Y-116341742D02*
X162714287Y-116484600D01*
X162714287Y-116484600D02*
X162642858Y-116698885D01*
X162642858Y-116698885D02*
X161785715Y-117556028D01*
X161785715Y-117556028D02*
X162714287Y-117556028D01*
X163428572Y-117484600D02*
X163428572Y-117556028D01*
X163428572Y-117556028D02*
X163357143Y-117698885D01*
X163357143Y-117698885D02*
X163285715Y-117770314D01*
X165642858Y-116056028D02*
X165642858Y-117127457D01*
X165642858Y-117127457D02*
X165571429Y-117341742D01*
X165571429Y-117341742D02*
X165428572Y-117484600D01*
X165428572Y-117484600D02*
X165214286Y-117556028D01*
X165214286Y-117556028D02*
X165071429Y-117556028D01*
X167000001Y-116556028D02*
X167000001Y-117556028D01*
X166357143Y-116556028D02*
X166357143Y-117341742D01*
X166357143Y-117341742D02*
X166428572Y-117484600D01*
X166428572Y-117484600D02*
X166571429Y-117556028D01*
X166571429Y-117556028D02*
X166785715Y-117556028D01*
X166785715Y-117556028D02*
X166928572Y-117484600D01*
X166928572Y-117484600D02*
X167000001Y-117413171D01*
X167714286Y-116556028D02*
X167714286Y-117556028D01*
X167714286Y-116698885D02*
X167785715Y-116627457D01*
X167785715Y-116627457D02*
X167928572Y-116556028D01*
X167928572Y-116556028D02*
X168142858Y-116556028D01*
X168142858Y-116556028D02*
X168285715Y-116627457D01*
X168285715Y-116627457D02*
X168357144Y-116770314D01*
X168357144Y-116770314D02*
X168357144Y-117556028D01*
X169642858Y-117484600D02*
X169500001Y-117556028D01*
X169500001Y-117556028D02*
X169214287Y-117556028D01*
X169214287Y-117556028D02*
X169071429Y-117484600D01*
X169071429Y-117484600D02*
X169000001Y-117341742D01*
X169000001Y-117341742D02*
X169000001Y-116770314D01*
X169000001Y-116770314D02*
X169071429Y-116627457D01*
X169071429Y-116627457D02*
X169214287Y-116556028D01*
X169214287Y-116556028D02*
X169500001Y-116556028D01*
X169500001Y-116556028D02*
X169642858Y-116627457D01*
X169642858Y-116627457D02*
X169714287Y-116770314D01*
X169714287Y-116770314D02*
X169714287Y-116913171D01*
X169714287Y-116913171D02*
X169000001Y-117056028D01*
X171428572Y-116198885D02*
X171500000Y-116127457D01*
X171500000Y-116127457D02*
X171642858Y-116056028D01*
X171642858Y-116056028D02*
X172000000Y-116056028D01*
X172000000Y-116056028D02*
X172142858Y-116127457D01*
X172142858Y-116127457D02*
X172214286Y-116198885D01*
X172214286Y-116198885D02*
X172285715Y-116341742D01*
X172285715Y-116341742D02*
X172285715Y-116484600D01*
X172285715Y-116484600D02*
X172214286Y-116698885D01*
X172214286Y-116698885D02*
X171357143Y-117556028D01*
X171357143Y-117556028D02*
X172285715Y-117556028D01*
X173214286Y-116056028D02*
X173357143Y-116056028D01*
X173357143Y-116056028D02*
X173500000Y-116127457D01*
X173500000Y-116127457D02*
X173571429Y-116198885D01*
X173571429Y-116198885D02*
X173642857Y-116341742D01*
X173642857Y-116341742D02*
X173714286Y-116627457D01*
X173714286Y-116627457D02*
X173714286Y-116984600D01*
X173714286Y-116984600D02*
X173642857Y-117270314D01*
X173642857Y-117270314D02*
X173571429Y-117413171D01*
X173571429Y-117413171D02*
X173500000Y-117484600D01*
X173500000Y-117484600D02*
X173357143Y-117556028D01*
X173357143Y-117556028D02*
X173214286Y-117556028D01*
X173214286Y-117556028D02*
X173071429Y-117484600D01*
X173071429Y-117484600D02*
X173000000Y-117413171D01*
X173000000Y-117413171D02*
X172928571Y-117270314D01*
X172928571Y-117270314D02*
X172857143Y-116984600D01*
X172857143Y-116984600D02*
X172857143Y-116627457D01*
X172857143Y-116627457D02*
X172928571Y-116341742D01*
X172928571Y-116341742D02*
X173000000Y-116198885D01*
X173000000Y-116198885D02*
X173071429Y-116127457D01*
X173071429Y-116127457D02*
X173214286Y-116056028D01*
X174285714Y-116198885D02*
X174357142Y-116127457D01*
X174357142Y-116127457D02*
X174500000Y-116056028D01*
X174500000Y-116056028D02*
X174857142Y-116056028D01*
X174857142Y-116056028D02*
X175000000Y-116127457D01*
X175000000Y-116127457D02*
X175071428Y-116198885D01*
X175071428Y-116198885D02*
X175142857Y-116341742D01*
X175142857Y-116341742D02*
X175142857Y-116484600D01*
X175142857Y-116484600D02*
X175071428Y-116698885D01*
X175071428Y-116698885D02*
X174214285Y-117556028D01*
X174214285Y-117556028D02*
X175142857Y-117556028D01*
X176428571Y-116556028D02*
X176428571Y-117556028D01*
X176071428Y-115984600D02*
X175714285Y-117056028D01*
X175714285Y-117056028D02*
X176642856Y-117056028D01*
X117664911Y-82532266D02*
X118464911Y-82532266D01*
X118064911Y-83932266D02*
X118064911Y-82532266D01*
X119131578Y-83932266D02*
X118998245Y-83865600D01*
X118998245Y-83865600D02*
X118931578Y-83798933D01*
X118931578Y-83798933D02*
X118864911Y-83665600D01*
X118864911Y-83665600D02*
X118864911Y-83265600D01*
X118864911Y-83265600D02*
X118931578Y-83132266D01*
X118931578Y-83132266D02*
X118998245Y-83065600D01*
X118998245Y-83065600D02*
X119131578Y-82998933D01*
X119131578Y-82998933D02*
X119331578Y-82998933D01*
X119331578Y-82998933D02*
X119464911Y-83065600D01*
X119464911Y-83065600D02*
X119531578Y-83132266D01*
X119531578Y-83132266D02*
X119598245Y-83265600D01*
X119598245Y-83265600D02*
X119598245Y-83665600D01*
X119598245Y-83665600D02*
X119531578Y-83798933D01*
X119531578Y-83798933D02*
X119464911Y-83865600D01*
X119464911Y-83865600D02*
X119331578Y-83932266D01*
X119331578Y-83932266D02*
X119131578Y-83932266D01*
X121198245Y-83865600D02*
X121331579Y-83932266D01*
X121331579Y-83932266D02*
X121598245Y-83932266D01*
X121598245Y-83932266D02*
X121731579Y-83865600D01*
X121731579Y-83865600D02*
X121798245Y-83732266D01*
X121798245Y-83732266D02*
X121798245Y-83665600D01*
X121798245Y-83665600D02*
X121731579Y-83532266D01*
X121731579Y-83532266D02*
X121598245Y-83465600D01*
X121598245Y-83465600D02*
X121398245Y-83465600D01*
X121398245Y-83465600D02*
X121264912Y-83398933D01*
X121264912Y-83398933D02*
X121198245Y-83265600D01*
X121198245Y-83265600D02*
X121198245Y-83198933D01*
X121198245Y-83198933D02*
X121264912Y-83065600D01*
X121264912Y-83065600D02*
X121398245Y-82998933D01*
X121398245Y-82998933D02*
X121598245Y-82998933D01*
X121598245Y-82998933D02*
X121731579Y-83065600D01*
X122998245Y-83932266D02*
X122998245Y-83198933D01*
X122998245Y-83198933D02*
X122931578Y-83065600D01*
X122931578Y-83065600D02*
X122798245Y-82998933D01*
X122798245Y-82998933D02*
X122531578Y-82998933D01*
X122531578Y-82998933D02*
X122398245Y-83065600D01*
X122998245Y-83865600D02*
X122864912Y-83932266D01*
X122864912Y-83932266D02*
X122531578Y-83932266D01*
X122531578Y-83932266D02*
X122398245Y-83865600D01*
X122398245Y-83865600D02*
X122331578Y-83732266D01*
X122331578Y-83732266D02*
X122331578Y-83598933D01*
X122331578Y-83598933D02*
X122398245Y-83465600D01*
X122398245Y-83465600D02*
X122531578Y-83398933D01*
X122531578Y-83398933D02*
X122864912Y-83398933D01*
X122864912Y-83398933D02*
X122998245Y-83332266D01*
X123531579Y-82998933D02*
X123864912Y-83932266D01*
X123864912Y-83932266D02*
X124198245Y-82998933D01*
X125264912Y-83865600D02*
X125131579Y-83932266D01*
X125131579Y-83932266D02*
X124864912Y-83932266D01*
X124864912Y-83932266D02*
X124731579Y-83865600D01*
X124731579Y-83865600D02*
X124664912Y-83732266D01*
X124664912Y-83732266D02*
X124664912Y-83198933D01*
X124664912Y-83198933D02*
X124731579Y-83065600D01*
X124731579Y-83065600D02*
X124864912Y-82998933D01*
X124864912Y-82998933D02*
X125131579Y-82998933D01*
X125131579Y-82998933D02*
X125264912Y-83065600D01*
X125264912Y-83065600D02*
X125331579Y-83198933D01*
X125331579Y-83198933D02*
X125331579Y-83332266D01*
X125331579Y-83332266D02*
X124664912Y-83465600D01*
X126998246Y-82998933D02*
X126998246Y-84398933D01*
X126998246Y-83065600D02*
X127131579Y-82998933D01*
X127131579Y-82998933D02*
X127398246Y-82998933D01*
X127398246Y-82998933D02*
X127531579Y-83065600D01*
X127531579Y-83065600D02*
X127598246Y-83132266D01*
X127598246Y-83132266D02*
X127664913Y-83265600D01*
X127664913Y-83265600D02*
X127664913Y-83665600D01*
X127664913Y-83665600D02*
X127598246Y-83798933D01*
X127598246Y-83798933D02*
X127531579Y-83865600D01*
X127531579Y-83865600D02*
X127398246Y-83932266D01*
X127398246Y-83932266D02*
X127131579Y-83932266D01*
X127131579Y-83932266D02*
X126998246Y-83865600D01*
X128464913Y-83932266D02*
X128331580Y-83865600D01*
X128331580Y-83865600D02*
X128264913Y-83798933D01*
X128264913Y-83798933D02*
X128198246Y-83665600D01*
X128198246Y-83665600D02*
X128198246Y-83265600D01*
X128198246Y-83265600D02*
X128264913Y-83132266D01*
X128264913Y-83132266D02*
X128331580Y-83065600D01*
X128331580Y-83065600D02*
X128464913Y-82998933D01*
X128464913Y-82998933D02*
X128664913Y-82998933D01*
X128664913Y-82998933D02*
X128798246Y-83065600D01*
X128798246Y-83065600D02*
X128864913Y-83132266D01*
X128864913Y-83132266D02*
X128931580Y-83265600D01*
X128931580Y-83265600D02*
X128931580Y-83665600D01*
X128931580Y-83665600D02*
X128864913Y-83798933D01*
X128864913Y-83798933D02*
X128798246Y-83865600D01*
X128798246Y-83865600D02*
X128664913Y-83932266D01*
X128664913Y-83932266D02*
X128464913Y-83932266D01*
X129464913Y-83865600D02*
X129598247Y-83932266D01*
X129598247Y-83932266D02*
X129864913Y-83932266D01*
X129864913Y-83932266D02*
X129998247Y-83865600D01*
X129998247Y-83865600D02*
X130064913Y-83732266D01*
X130064913Y-83732266D02*
X130064913Y-83665600D01*
X130064913Y-83665600D02*
X129998247Y-83532266D01*
X129998247Y-83532266D02*
X129864913Y-83465600D01*
X129864913Y-83465600D02*
X129664913Y-83465600D01*
X129664913Y-83465600D02*
X129531580Y-83398933D01*
X129531580Y-83398933D02*
X129464913Y-83265600D01*
X129464913Y-83265600D02*
X129464913Y-83198933D01*
X129464913Y-83198933D02*
X129531580Y-83065600D01*
X129531580Y-83065600D02*
X129664913Y-82998933D01*
X129664913Y-82998933D02*
X129864913Y-82998933D01*
X129864913Y-82998933D02*
X129998247Y-83065600D01*
X130664913Y-83932266D02*
X130664913Y-82998933D01*
X130664913Y-82532266D02*
X130598246Y-82598933D01*
X130598246Y-82598933D02*
X130664913Y-82665600D01*
X130664913Y-82665600D02*
X130731580Y-82598933D01*
X130731580Y-82598933D02*
X130664913Y-82532266D01*
X130664913Y-82532266D02*
X130664913Y-82665600D01*
X131131580Y-82998933D02*
X131664913Y-82998933D01*
X131331580Y-82532266D02*
X131331580Y-83732266D01*
X131331580Y-83732266D02*
X131398247Y-83865600D01*
X131398247Y-83865600D02*
X131531580Y-83932266D01*
X131531580Y-83932266D02*
X131664913Y-83932266D01*
X132131580Y-83932266D02*
X132131580Y-82998933D01*
X132131580Y-82532266D02*
X132064913Y-82598933D01*
X132064913Y-82598933D02*
X132131580Y-82665600D01*
X132131580Y-82665600D02*
X132198247Y-82598933D01*
X132198247Y-82598933D02*
X132131580Y-82532266D01*
X132131580Y-82532266D02*
X132131580Y-82665600D01*
X132998247Y-83932266D02*
X132864914Y-83865600D01*
X132864914Y-83865600D02*
X132798247Y-83798933D01*
X132798247Y-83798933D02*
X132731580Y-83665600D01*
X132731580Y-83665600D02*
X132731580Y-83265600D01*
X132731580Y-83265600D02*
X132798247Y-83132266D01*
X132798247Y-83132266D02*
X132864914Y-83065600D01*
X132864914Y-83065600D02*
X132998247Y-82998933D01*
X132998247Y-82998933D02*
X133198247Y-82998933D01*
X133198247Y-82998933D02*
X133331580Y-83065600D01*
X133331580Y-83065600D02*
X133398247Y-83132266D01*
X133398247Y-83132266D02*
X133464914Y-83265600D01*
X133464914Y-83265600D02*
X133464914Y-83665600D01*
X133464914Y-83665600D02*
X133398247Y-83798933D01*
X133398247Y-83798933D02*
X133331580Y-83865600D01*
X133331580Y-83865600D02*
X133198247Y-83932266D01*
X133198247Y-83932266D02*
X132998247Y-83932266D01*
X134064914Y-82998933D02*
X134064914Y-83932266D01*
X134064914Y-83132266D02*
X134131581Y-83065600D01*
X134131581Y-83065600D02*
X134264914Y-82998933D01*
X134264914Y-82998933D02*
X134464914Y-82998933D01*
X134464914Y-82998933D02*
X134598247Y-83065600D01*
X134598247Y-83065600D02*
X134664914Y-83198933D01*
X134664914Y-83198933D02*
X134664914Y-83932266D01*
X135398248Y-83865600D02*
X135398248Y-83932266D01*
X135398248Y-83932266D02*
X135331581Y-84065600D01*
X135331581Y-84065600D02*
X135264914Y-84132266D01*
X137264915Y-83932266D02*
X137131582Y-83865600D01*
X137131582Y-83865600D02*
X137064915Y-83732266D01*
X137064915Y-83732266D02*
X137064915Y-82532266D01*
X137998248Y-83932266D02*
X137864915Y-83865600D01*
X137864915Y-83865600D02*
X137798248Y-83798933D01*
X137798248Y-83798933D02*
X137731581Y-83665600D01*
X137731581Y-83665600D02*
X137731581Y-83265600D01*
X137731581Y-83265600D02*
X137798248Y-83132266D01*
X137798248Y-83132266D02*
X137864915Y-83065600D01*
X137864915Y-83065600D02*
X137998248Y-82998933D01*
X137998248Y-82998933D02*
X138198248Y-82998933D01*
X138198248Y-82998933D02*
X138331581Y-83065600D01*
X138331581Y-83065600D02*
X138398248Y-83132266D01*
X138398248Y-83132266D02*
X138464915Y-83265600D01*
X138464915Y-83265600D02*
X138464915Y-83665600D01*
X138464915Y-83665600D02*
X138398248Y-83798933D01*
X138398248Y-83798933D02*
X138331581Y-83865600D01*
X138331581Y-83865600D02*
X138198248Y-83932266D01*
X138198248Y-83932266D02*
X137998248Y-83932266D01*
X139064915Y-82998933D02*
X139064915Y-83932266D01*
X139064915Y-83132266D02*
X139131582Y-83065600D01*
X139131582Y-83065600D02*
X139264915Y-82998933D01*
X139264915Y-82998933D02*
X139464915Y-82998933D01*
X139464915Y-82998933D02*
X139598248Y-83065600D01*
X139598248Y-83065600D02*
X139664915Y-83198933D01*
X139664915Y-83198933D02*
X139664915Y-83932266D01*
X140931582Y-82998933D02*
X140931582Y-84132266D01*
X140931582Y-84132266D02*
X140864915Y-84265600D01*
X140864915Y-84265600D02*
X140798249Y-84332266D01*
X140798249Y-84332266D02*
X140664915Y-84398933D01*
X140664915Y-84398933D02*
X140464915Y-84398933D01*
X140464915Y-84398933D02*
X140331582Y-84332266D01*
X140931582Y-83865600D02*
X140798249Y-83932266D01*
X140798249Y-83932266D02*
X140531582Y-83932266D01*
X140531582Y-83932266D02*
X140398249Y-83865600D01*
X140398249Y-83865600D02*
X140331582Y-83798933D01*
X140331582Y-83798933D02*
X140264915Y-83665600D01*
X140264915Y-83665600D02*
X140264915Y-83265600D01*
X140264915Y-83265600D02*
X140331582Y-83132266D01*
X140331582Y-83132266D02*
X140398249Y-83065600D01*
X140398249Y-83065600D02*
X140531582Y-82998933D01*
X140531582Y-82998933D02*
X140798249Y-82998933D01*
X140798249Y-82998933D02*
X140931582Y-83065600D01*
X142664916Y-82998933D02*
X142664916Y-84398933D01*
X142664916Y-83065600D02*
X142798249Y-82998933D01*
X142798249Y-82998933D02*
X143064916Y-82998933D01*
X143064916Y-82998933D02*
X143198249Y-83065600D01*
X143198249Y-83065600D02*
X143264916Y-83132266D01*
X143264916Y-83132266D02*
X143331583Y-83265600D01*
X143331583Y-83265600D02*
X143331583Y-83665600D01*
X143331583Y-83665600D02*
X143264916Y-83798933D01*
X143264916Y-83798933D02*
X143198249Y-83865600D01*
X143198249Y-83865600D02*
X143064916Y-83932266D01*
X143064916Y-83932266D02*
X142798249Y-83932266D01*
X142798249Y-83932266D02*
X142664916Y-83865600D01*
X143931583Y-83932266D02*
X143931583Y-82998933D01*
X143931583Y-83265600D02*
X143998250Y-83132266D01*
X143998250Y-83132266D02*
X144064916Y-83065600D01*
X144064916Y-83065600D02*
X144198250Y-82998933D01*
X144198250Y-82998933D02*
X144331583Y-82998933D01*
X145331583Y-83865600D02*
X145198250Y-83932266D01*
X145198250Y-83932266D02*
X144931583Y-83932266D01*
X144931583Y-83932266D02*
X144798250Y-83865600D01*
X144798250Y-83865600D02*
X144731583Y-83732266D01*
X144731583Y-83732266D02*
X144731583Y-83198933D01*
X144731583Y-83198933D02*
X144798250Y-83065600D01*
X144798250Y-83065600D02*
X144931583Y-82998933D01*
X144931583Y-82998933D02*
X145198250Y-82998933D01*
X145198250Y-82998933D02*
X145331583Y-83065600D01*
X145331583Y-83065600D02*
X145398250Y-83198933D01*
X145398250Y-83198933D02*
X145398250Y-83332266D01*
X145398250Y-83332266D02*
X144731583Y-83465600D01*
X145931583Y-83865600D02*
X146064917Y-83932266D01*
X146064917Y-83932266D02*
X146331583Y-83932266D01*
X146331583Y-83932266D02*
X146464917Y-83865600D01*
X146464917Y-83865600D02*
X146531583Y-83732266D01*
X146531583Y-83732266D02*
X146531583Y-83665600D01*
X146531583Y-83665600D02*
X146464917Y-83532266D01*
X146464917Y-83532266D02*
X146331583Y-83465600D01*
X146331583Y-83465600D02*
X146131583Y-83465600D01*
X146131583Y-83465600D02*
X145998250Y-83398933D01*
X145998250Y-83398933D02*
X145931583Y-83265600D01*
X145931583Y-83265600D02*
X145931583Y-83198933D01*
X145931583Y-83198933D02*
X145998250Y-83065600D01*
X145998250Y-83065600D02*
X146131583Y-82998933D01*
X146131583Y-82998933D02*
X146331583Y-82998933D01*
X146331583Y-82998933D02*
X146464917Y-83065600D01*
X147064916Y-83865600D02*
X147198250Y-83932266D01*
X147198250Y-83932266D02*
X147464916Y-83932266D01*
X147464916Y-83932266D02*
X147598250Y-83865600D01*
X147598250Y-83865600D02*
X147664916Y-83732266D01*
X147664916Y-83732266D02*
X147664916Y-83665600D01*
X147664916Y-83665600D02*
X147598250Y-83532266D01*
X147598250Y-83532266D02*
X147464916Y-83465600D01*
X147464916Y-83465600D02*
X147264916Y-83465600D01*
X147264916Y-83465600D02*
X147131583Y-83398933D01*
X147131583Y-83398933D02*
X147064916Y-83265600D01*
X147064916Y-83265600D02*
X147064916Y-83198933D01*
X147064916Y-83198933D02*
X147131583Y-83065600D01*
X147131583Y-83065600D02*
X147264916Y-82998933D01*
X147264916Y-82998933D02*
X147464916Y-82998933D01*
X147464916Y-82998933D02*
X147598250Y-83065600D01*
X149931583Y-83932266D02*
X149931583Y-83198933D01*
X149931583Y-83198933D02*
X149864916Y-83065600D01*
X149864916Y-83065600D02*
X149731583Y-82998933D01*
X149731583Y-82998933D02*
X149464916Y-82998933D01*
X149464916Y-82998933D02*
X149331583Y-83065600D01*
X149931583Y-83865600D02*
X149798250Y-83932266D01*
X149798250Y-83932266D02*
X149464916Y-83932266D01*
X149464916Y-83932266D02*
X149331583Y-83865600D01*
X149331583Y-83865600D02*
X149264916Y-83732266D01*
X149264916Y-83732266D02*
X149264916Y-83598933D01*
X149264916Y-83598933D02*
X149331583Y-83465600D01*
X149331583Y-83465600D02*
X149464916Y-83398933D01*
X149464916Y-83398933D02*
X149798250Y-83398933D01*
X149798250Y-83398933D02*
X149931583Y-83332266D01*
X151664917Y-83932266D02*
X151664917Y-82532266D01*
X151664917Y-83065600D02*
X151798250Y-82998933D01*
X151798250Y-82998933D02*
X152064917Y-82998933D01*
X152064917Y-82998933D02*
X152198250Y-83065600D01*
X152198250Y-83065600D02*
X152264917Y-83132266D01*
X152264917Y-83132266D02*
X152331584Y-83265600D01*
X152331584Y-83265600D02*
X152331584Y-83665600D01*
X152331584Y-83665600D02*
X152264917Y-83798933D01*
X152264917Y-83798933D02*
X152198250Y-83865600D01*
X152198250Y-83865600D02*
X152064917Y-83932266D01*
X152064917Y-83932266D02*
X151798250Y-83932266D01*
X151798250Y-83932266D02*
X151664917Y-83865600D01*
X153531584Y-82998933D02*
X153531584Y-83932266D01*
X152931584Y-82998933D02*
X152931584Y-83732266D01*
X152931584Y-83732266D02*
X152998251Y-83865600D01*
X152998251Y-83865600D02*
X153131584Y-83932266D01*
X153131584Y-83932266D02*
X153331584Y-83932266D01*
X153331584Y-83932266D02*
X153464917Y-83865600D01*
X153464917Y-83865600D02*
X153531584Y-83798933D01*
X153998251Y-82998933D02*
X154531584Y-82998933D01*
X154198251Y-82532266D02*
X154198251Y-83732266D01*
X154198251Y-83732266D02*
X154264918Y-83865600D01*
X154264918Y-83865600D02*
X154398251Y-83932266D01*
X154398251Y-83932266D02*
X154531584Y-83932266D01*
X154798251Y-82998933D02*
X155331584Y-82998933D01*
X154998251Y-82532266D02*
X154998251Y-83732266D01*
X154998251Y-83732266D02*
X155064918Y-83865600D01*
X155064918Y-83865600D02*
X155198251Y-83932266D01*
X155198251Y-83932266D02*
X155331584Y-83932266D01*
X155998251Y-83932266D02*
X155864918Y-83865600D01*
X155864918Y-83865600D02*
X155798251Y-83798933D01*
X155798251Y-83798933D02*
X155731584Y-83665600D01*
X155731584Y-83665600D02*
X155731584Y-83265600D01*
X155731584Y-83265600D02*
X155798251Y-83132266D01*
X155798251Y-83132266D02*
X155864918Y-83065600D01*
X155864918Y-83065600D02*
X155998251Y-82998933D01*
X155998251Y-82998933D02*
X156198251Y-82998933D01*
X156198251Y-82998933D02*
X156331584Y-83065600D01*
X156331584Y-83065600D02*
X156398251Y-83132266D01*
X156398251Y-83132266D02*
X156464918Y-83265600D01*
X156464918Y-83265600D02*
X156464918Y-83665600D01*
X156464918Y-83665600D02*
X156398251Y-83798933D01*
X156398251Y-83798933D02*
X156331584Y-83865600D01*
X156331584Y-83865600D02*
X156198251Y-83932266D01*
X156198251Y-83932266D02*
X155998251Y-83932266D01*
X157064918Y-82998933D02*
X157064918Y-83932266D01*
X157064918Y-83132266D02*
X157131585Y-83065600D01*
X157131585Y-83065600D02*
X157264918Y-82998933D01*
X157264918Y-82998933D02*
X157464918Y-82998933D01*
X157464918Y-82998933D02*
X157598251Y-83065600D01*
X157598251Y-83065600D02*
X157664918Y-83198933D01*
X157664918Y-83198933D02*
X157664918Y-83932266D01*
X159198252Y-82998933D02*
X159731585Y-82998933D01*
X159398252Y-83932266D02*
X159398252Y-82732266D01*
X159398252Y-82732266D02*
X159464919Y-82598933D01*
X159464919Y-82598933D02*
X159598252Y-82532266D01*
X159598252Y-82532266D02*
X159731585Y-82532266D01*
X160398252Y-83932266D02*
X160264919Y-83865600D01*
X160264919Y-83865600D02*
X160198252Y-83798933D01*
X160198252Y-83798933D02*
X160131585Y-83665600D01*
X160131585Y-83665600D02*
X160131585Y-83265600D01*
X160131585Y-83265600D02*
X160198252Y-83132266D01*
X160198252Y-83132266D02*
X160264919Y-83065600D01*
X160264919Y-83065600D02*
X160398252Y-82998933D01*
X160398252Y-82998933D02*
X160598252Y-82998933D01*
X160598252Y-82998933D02*
X160731585Y-83065600D01*
X160731585Y-83065600D02*
X160798252Y-83132266D01*
X160798252Y-83132266D02*
X160864919Y-83265600D01*
X160864919Y-83265600D02*
X160864919Y-83665600D01*
X160864919Y-83665600D02*
X160798252Y-83798933D01*
X160798252Y-83798933D02*
X160731585Y-83865600D01*
X160731585Y-83865600D02*
X160598252Y-83932266D01*
X160598252Y-83932266D02*
X160398252Y-83932266D01*
X161464919Y-83932266D02*
X161464919Y-82998933D01*
X161464919Y-83265600D02*
X161531586Y-83132266D01*
X161531586Y-83132266D02*
X161598252Y-83065600D01*
X161598252Y-83065600D02*
X161731586Y-82998933D01*
X161731586Y-82998933D02*
X161864919Y-82998933D01*
X163264920Y-82532266D02*
X164131586Y-82532266D01*
X164131586Y-82532266D02*
X163664920Y-83065600D01*
X163664920Y-83065600D02*
X163864920Y-83065600D01*
X163864920Y-83065600D02*
X163998253Y-83132266D01*
X163998253Y-83132266D02*
X164064920Y-83198933D01*
X164064920Y-83198933D02*
X164131586Y-83332266D01*
X164131586Y-83332266D02*
X164131586Y-83665600D01*
X164131586Y-83665600D02*
X164064920Y-83798933D01*
X164064920Y-83798933D02*
X163998253Y-83865600D01*
X163998253Y-83865600D02*
X163864920Y-83932266D01*
X163864920Y-83932266D02*
X163464920Y-83932266D01*
X163464920Y-83932266D02*
X163331586Y-83865600D01*
X163331586Y-83865600D02*
X163264920Y-83798933D01*
X164664919Y-83865600D02*
X164798253Y-83932266D01*
X164798253Y-83932266D02*
X165064919Y-83932266D01*
X165064919Y-83932266D02*
X165198253Y-83865600D01*
X165198253Y-83865600D02*
X165264919Y-83732266D01*
X165264919Y-83732266D02*
X165264919Y-83665600D01*
X165264919Y-83665600D02*
X165198253Y-83532266D01*
X165198253Y-83532266D02*
X165064919Y-83465600D01*
X165064919Y-83465600D02*
X164864919Y-83465600D01*
X164864919Y-83465600D02*
X164731586Y-83398933D01*
X164731586Y-83398933D02*
X164664919Y-83265600D01*
X164664919Y-83265600D02*
X164664919Y-83198933D01*
X164664919Y-83198933D02*
X164731586Y-83065600D01*
X164731586Y-83065600D02*
X164864919Y-82998933D01*
X164864919Y-82998933D02*
X165064919Y-82998933D01*
X165064919Y-82998933D02*
X165198253Y-83065600D01*
X165864919Y-83798933D02*
X165931586Y-83865600D01*
X165931586Y-83865600D02*
X165864919Y-83932266D01*
X165864919Y-83932266D02*
X165798252Y-83865600D01*
X165798252Y-83865600D02*
X165864919Y-83798933D01*
X165864919Y-83798933D02*
X165864919Y-83932266D01*
X165864919Y-83065600D02*
X165931586Y-83132266D01*
X165931586Y-83132266D02*
X165864919Y-83198933D01*
X165864919Y-83198933D02*
X165798252Y-83132266D01*
X165798252Y-83132266D02*
X165864919Y-83065600D01*
X165864919Y-83065600D02*
X165864919Y-83198933D01*
X119931578Y-85786266D02*
X120598245Y-85786266D01*
X119798245Y-86186266D02*
X120264912Y-84786266D01*
X120264912Y-84786266D02*
X120731578Y-86186266D01*
X121198245Y-86052933D02*
X121264912Y-86119600D01*
X121264912Y-86119600D02*
X121198245Y-86186266D01*
X121198245Y-86186266D02*
X121131578Y-86119600D01*
X121131578Y-86119600D02*
X121198245Y-86052933D01*
X121198245Y-86052933D02*
X121198245Y-86186266D01*
X121198245Y-85319600D02*
X121264912Y-85386266D01*
X121264912Y-85386266D02*
X121198245Y-85452933D01*
X121198245Y-85452933D02*
X121131578Y-85386266D01*
X121131578Y-85386266D02*
X121198245Y-85319600D01*
X121198245Y-85319600D02*
X121198245Y-85452933D01*
X122864912Y-86119600D02*
X122998246Y-86186266D01*
X122998246Y-86186266D02*
X123264912Y-86186266D01*
X123264912Y-86186266D02*
X123398246Y-86119600D01*
X123398246Y-86119600D02*
X123464912Y-85986266D01*
X123464912Y-85986266D02*
X123464912Y-85919600D01*
X123464912Y-85919600D02*
X123398246Y-85786266D01*
X123398246Y-85786266D02*
X123264912Y-85719600D01*
X123264912Y-85719600D02*
X123064912Y-85719600D01*
X123064912Y-85719600D02*
X122931579Y-85652933D01*
X122931579Y-85652933D02*
X122864912Y-85519600D01*
X122864912Y-85519600D02*
X122864912Y-85452933D01*
X122864912Y-85452933D02*
X122931579Y-85319600D01*
X122931579Y-85319600D02*
X123064912Y-85252933D01*
X123064912Y-85252933D02*
X123264912Y-85252933D01*
X123264912Y-85252933D02*
X123398246Y-85319600D01*
X124598245Y-86119600D02*
X124464912Y-86186266D01*
X124464912Y-86186266D02*
X124198245Y-86186266D01*
X124198245Y-86186266D02*
X124064912Y-86119600D01*
X124064912Y-86119600D02*
X123998245Y-85986266D01*
X123998245Y-85986266D02*
X123998245Y-85452933D01*
X123998245Y-85452933D02*
X124064912Y-85319600D01*
X124064912Y-85319600D02*
X124198245Y-85252933D01*
X124198245Y-85252933D02*
X124464912Y-85252933D01*
X124464912Y-85252933D02*
X124598245Y-85319600D01*
X124598245Y-85319600D02*
X124664912Y-85452933D01*
X124664912Y-85452933D02*
X124664912Y-85586266D01*
X124664912Y-85586266D02*
X123998245Y-85719600D01*
X125264912Y-86186266D02*
X125264912Y-85252933D01*
X125264912Y-85519600D02*
X125331579Y-85386266D01*
X125331579Y-85386266D02*
X125398245Y-85319600D01*
X125398245Y-85319600D02*
X125531579Y-85252933D01*
X125531579Y-85252933D02*
X125664912Y-85252933D01*
X125998246Y-85252933D02*
X126331579Y-86186266D01*
X126331579Y-86186266D02*
X126664912Y-85252933D01*
X127398246Y-86186266D02*
X127264913Y-86119600D01*
X127264913Y-86119600D02*
X127198246Y-86052933D01*
X127198246Y-86052933D02*
X127131579Y-85919600D01*
X127131579Y-85919600D02*
X127131579Y-85519600D01*
X127131579Y-85519600D02*
X127198246Y-85386266D01*
X127198246Y-85386266D02*
X127264913Y-85319600D01*
X127264913Y-85319600D02*
X127398246Y-85252933D01*
X127398246Y-85252933D02*
X127598246Y-85252933D01*
X127598246Y-85252933D02*
X127731579Y-85319600D01*
X127731579Y-85319600D02*
X127798246Y-85386266D01*
X127798246Y-85386266D02*
X127864913Y-85519600D01*
X127864913Y-85519600D02*
X127864913Y-85919600D01*
X127864913Y-85919600D02*
X127798246Y-86052933D01*
X127798246Y-86052933D02*
X127731579Y-86119600D01*
X127731579Y-86119600D02*
X127598246Y-86186266D01*
X127598246Y-86186266D02*
X127398246Y-86186266D01*
X129198246Y-86186266D02*
X128398246Y-86186266D01*
X128798246Y-86186266D02*
X128798246Y-84786266D01*
X128798246Y-84786266D02*
X128664913Y-84986266D01*
X128664913Y-84986266D02*
X128531580Y-85119600D01*
X128531580Y-85119600D02*
X128398246Y-85186266D01*
X131064913Y-86186266D02*
X130931580Y-86119600D01*
X130931580Y-86119600D02*
X130864913Y-86052933D01*
X130864913Y-86052933D02*
X130798246Y-85919600D01*
X130798246Y-85919600D02*
X130798246Y-85519600D01*
X130798246Y-85519600D02*
X130864913Y-85386266D01*
X130864913Y-85386266D02*
X130931580Y-85319600D01*
X130931580Y-85319600D02*
X131064913Y-85252933D01*
X131064913Y-85252933D02*
X131264913Y-85252933D01*
X131264913Y-85252933D02*
X131398246Y-85319600D01*
X131398246Y-85319600D02*
X131464913Y-85386266D01*
X131464913Y-85386266D02*
X131531580Y-85519600D01*
X131531580Y-85519600D02*
X131531580Y-85919600D01*
X131531580Y-85919600D02*
X131464913Y-86052933D01*
X131464913Y-86052933D02*
X131398246Y-86119600D01*
X131398246Y-86119600D02*
X131264913Y-86186266D01*
X131264913Y-86186266D02*
X131064913Y-86186266D01*
X132131580Y-85252933D02*
X132131580Y-86186266D01*
X132131580Y-85386266D02*
X132198247Y-85319600D01*
X132198247Y-85319600D02*
X132331580Y-85252933D01*
X132331580Y-85252933D02*
X132531580Y-85252933D01*
X132531580Y-85252933D02*
X132664913Y-85319600D01*
X132664913Y-85319600D02*
X132731580Y-85452933D01*
X132731580Y-85452933D02*
X132731580Y-86186266D01*
X133598247Y-86186266D02*
X133464914Y-86119600D01*
X133464914Y-86119600D02*
X133398247Y-85986266D01*
X133398247Y-85986266D02*
X133398247Y-84786266D01*
X133998247Y-85252933D02*
X134331580Y-86186266D01*
X134664913Y-85252933D02*
X134331580Y-86186266D01*
X134331580Y-86186266D02*
X134198247Y-86519600D01*
X134198247Y-86519600D02*
X134131580Y-86586266D01*
X134131580Y-86586266D02*
X133998247Y-86652933D01*
X120464912Y-87706933D02*
X120664912Y-87773600D01*
X120664912Y-87773600D02*
X120731578Y-87840266D01*
X120731578Y-87840266D02*
X120798245Y-87973600D01*
X120798245Y-87973600D02*
X120798245Y-88173600D01*
X120798245Y-88173600D02*
X120731578Y-88306933D01*
X120731578Y-88306933D02*
X120664912Y-88373600D01*
X120664912Y-88373600D02*
X120531578Y-88440266D01*
X120531578Y-88440266D02*
X119998245Y-88440266D01*
X119998245Y-88440266D02*
X119998245Y-87040266D01*
X119998245Y-87040266D02*
X120464912Y-87040266D01*
X120464912Y-87040266D02*
X120598245Y-87106933D01*
X120598245Y-87106933D02*
X120664912Y-87173600D01*
X120664912Y-87173600D02*
X120731578Y-87306933D01*
X120731578Y-87306933D02*
X120731578Y-87440266D01*
X120731578Y-87440266D02*
X120664912Y-87573600D01*
X120664912Y-87573600D02*
X120598245Y-87640266D01*
X120598245Y-87640266D02*
X120464912Y-87706933D01*
X120464912Y-87706933D02*
X119998245Y-87706933D01*
X121464912Y-88373600D02*
X121464912Y-88440266D01*
X121464912Y-88440266D02*
X121398245Y-88573600D01*
X121398245Y-88573600D02*
X121331578Y-88640266D01*
X123931579Y-88306933D02*
X123864912Y-88373600D01*
X123864912Y-88373600D02*
X123664912Y-88440266D01*
X123664912Y-88440266D02*
X123531579Y-88440266D01*
X123531579Y-88440266D02*
X123331579Y-88373600D01*
X123331579Y-88373600D02*
X123198246Y-88240266D01*
X123198246Y-88240266D02*
X123131579Y-88106933D01*
X123131579Y-88106933D02*
X123064912Y-87840266D01*
X123064912Y-87840266D02*
X123064912Y-87640266D01*
X123064912Y-87640266D02*
X123131579Y-87373600D01*
X123131579Y-87373600D02*
X123198246Y-87240266D01*
X123198246Y-87240266D02*
X123331579Y-87106933D01*
X123331579Y-87106933D02*
X123531579Y-87040266D01*
X123531579Y-87040266D02*
X123664912Y-87040266D01*
X123664912Y-87040266D02*
X123864912Y-87106933D01*
X123864912Y-87106933D02*
X123931579Y-87173600D01*
X124531579Y-88306933D02*
X124598246Y-88373600D01*
X124598246Y-88373600D02*
X124531579Y-88440266D01*
X124531579Y-88440266D02*
X124464912Y-88373600D01*
X124464912Y-88373600D02*
X124531579Y-88306933D01*
X124531579Y-88306933D02*
X124531579Y-88440266D01*
X124531579Y-87573600D02*
X124598246Y-87640266D01*
X124598246Y-87640266D02*
X124531579Y-87706933D01*
X124531579Y-87706933D02*
X124464912Y-87640266D01*
X124464912Y-87640266D02*
X124531579Y-87573600D01*
X124531579Y-87573600D02*
X124531579Y-87706933D01*
X126264913Y-88440266D02*
X126264913Y-87040266D01*
X126264913Y-87573600D02*
X126398246Y-87506933D01*
X126398246Y-87506933D02*
X126664913Y-87506933D01*
X126664913Y-87506933D02*
X126798246Y-87573600D01*
X126798246Y-87573600D02*
X126864913Y-87640266D01*
X126864913Y-87640266D02*
X126931580Y-87773600D01*
X126931580Y-87773600D02*
X126931580Y-88173600D01*
X126931580Y-88173600D02*
X126864913Y-88306933D01*
X126864913Y-88306933D02*
X126798246Y-88373600D01*
X126798246Y-88373600D02*
X126664913Y-88440266D01*
X126664913Y-88440266D02*
X126398246Y-88440266D01*
X126398246Y-88440266D02*
X126264913Y-88373600D01*
X127731580Y-88440266D02*
X127598247Y-88373600D01*
X127598247Y-88373600D02*
X127531580Y-88306933D01*
X127531580Y-88306933D02*
X127464913Y-88173600D01*
X127464913Y-88173600D02*
X127464913Y-87773600D01*
X127464913Y-87773600D02*
X127531580Y-87640266D01*
X127531580Y-87640266D02*
X127598247Y-87573600D01*
X127598247Y-87573600D02*
X127731580Y-87506933D01*
X127731580Y-87506933D02*
X127931580Y-87506933D01*
X127931580Y-87506933D02*
X128064913Y-87573600D01*
X128064913Y-87573600D02*
X128131580Y-87640266D01*
X128131580Y-87640266D02*
X128198247Y-87773600D01*
X128198247Y-87773600D02*
X128198247Y-88173600D01*
X128198247Y-88173600D02*
X128131580Y-88306933D01*
X128131580Y-88306933D02*
X128064913Y-88373600D01*
X128064913Y-88373600D02*
X127931580Y-88440266D01*
X127931580Y-88440266D02*
X127731580Y-88440266D01*
X128598247Y-87506933D02*
X129131580Y-87506933D01*
X128798247Y-87040266D02*
X128798247Y-88240266D01*
X128798247Y-88240266D02*
X128864914Y-88373600D01*
X128864914Y-88373600D02*
X128998247Y-88440266D01*
X128998247Y-88440266D02*
X129131580Y-88440266D01*
X129598247Y-88440266D02*
X129598247Y-87040266D01*
X130198247Y-88440266D02*
X130198247Y-87706933D01*
X130198247Y-87706933D02*
X130131580Y-87573600D01*
X130131580Y-87573600D02*
X129998247Y-87506933D01*
X129998247Y-87506933D02*
X129798247Y-87506933D01*
X129798247Y-87506933D02*
X129664914Y-87573600D01*
X129664914Y-87573600D02*
X129598247Y-87640266D01*
X131864914Y-88373600D02*
X131998248Y-88440266D01*
X131998248Y-88440266D02*
X132264914Y-88440266D01*
X132264914Y-88440266D02*
X132398248Y-88373600D01*
X132398248Y-88373600D02*
X132464914Y-88240266D01*
X132464914Y-88240266D02*
X132464914Y-88173600D01*
X132464914Y-88173600D02*
X132398248Y-88040266D01*
X132398248Y-88040266D02*
X132264914Y-87973600D01*
X132264914Y-87973600D02*
X132064914Y-87973600D01*
X132064914Y-87973600D02*
X131931581Y-87906933D01*
X131931581Y-87906933D02*
X131864914Y-87773600D01*
X131864914Y-87773600D02*
X131864914Y-87706933D01*
X131864914Y-87706933D02*
X131931581Y-87573600D01*
X131931581Y-87573600D02*
X132064914Y-87506933D01*
X132064914Y-87506933D02*
X132264914Y-87506933D01*
X132264914Y-87506933D02*
X132398248Y-87573600D01*
X133598247Y-88373600D02*
X133464914Y-88440266D01*
X133464914Y-88440266D02*
X133198247Y-88440266D01*
X133198247Y-88440266D02*
X133064914Y-88373600D01*
X133064914Y-88373600D02*
X132998247Y-88240266D01*
X132998247Y-88240266D02*
X132998247Y-87706933D01*
X132998247Y-87706933D02*
X133064914Y-87573600D01*
X133064914Y-87573600D02*
X133198247Y-87506933D01*
X133198247Y-87506933D02*
X133464914Y-87506933D01*
X133464914Y-87506933D02*
X133598247Y-87573600D01*
X133598247Y-87573600D02*
X133664914Y-87706933D01*
X133664914Y-87706933D02*
X133664914Y-87840266D01*
X133664914Y-87840266D02*
X132998247Y-87973600D01*
X134264914Y-88440266D02*
X134264914Y-87506933D01*
X134264914Y-87773600D02*
X134331581Y-87640266D01*
X134331581Y-87640266D02*
X134398247Y-87573600D01*
X134398247Y-87573600D02*
X134531581Y-87506933D01*
X134531581Y-87506933D02*
X134664914Y-87506933D01*
X134998248Y-87506933D02*
X135331581Y-88440266D01*
X135331581Y-88440266D02*
X135664914Y-87506933D01*
X136398248Y-88440266D02*
X136264915Y-88373600D01*
X136264915Y-88373600D02*
X136198248Y-88306933D01*
X136198248Y-88306933D02*
X136131581Y-88173600D01*
X136131581Y-88173600D02*
X136131581Y-87773600D01*
X136131581Y-87773600D02*
X136198248Y-87640266D01*
X136198248Y-87640266D02*
X136264915Y-87573600D01*
X136264915Y-87573600D02*
X136398248Y-87506933D01*
X136398248Y-87506933D02*
X136598248Y-87506933D01*
X136598248Y-87506933D02*
X136731581Y-87573600D01*
X136731581Y-87573600D02*
X136798248Y-87640266D01*
X136798248Y-87640266D02*
X136864915Y-87773600D01*
X136864915Y-87773600D02*
X136864915Y-88173600D01*
X136864915Y-88173600D02*
X136798248Y-88306933D01*
X136798248Y-88306933D02*
X136731581Y-88373600D01*
X136731581Y-88373600D02*
X136598248Y-88440266D01*
X136598248Y-88440266D02*
X136398248Y-88440266D01*
X137398248Y-88373600D02*
X137531582Y-88440266D01*
X137531582Y-88440266D02*
X137798248Y-88440266D01*
X137798248Y-88440266D02*
X137931582Y-88373600D01*
X137931582Y-88373600D02*
X137998248Y-88240266D01*
X137998248Y-88240266D02*
X137998248Y-88173600D01*
X137998248Y-88173600D02*
X137931582Y-88040266D01*
X137931582Y-88040266D02*
X137798248Y-87973600D01*
X137798248Y-87973600D02*
X137598248Y-87973600D01*
X137598248Y-87973600D02*
X137464915Y-87906933D01*
X137464915Y-87906933D02*
X137398248Y-87773600D01*
X137398248Y-87773600D02*
X137398248Y-87706933D01*
X137398248Y-87706933D02*
X137464915Y-87573600D01*
X137464915Y-87573600D02*
X137598248Y-87506933D01*
X137598248Y-87506933D02*
X137798248Y-87506933D01*
X137798248Y-87506933D02*
X137931582Y-87573600D01*
X119998245Y-90694266D02*
X119998245Y-89294266D01*
X119998245Y-89294266D02*
X120331578Y-89294266D01*
X120331578Y-89294266D02*
X120531578Y-89360933D01*
X120531578Y-89360933D02*
X120664912Y-89494266D01*
X120664912Y-89494266D02*
X120731578Y-89627600D01*
X120731578Y-89627600D02*
X120798245Y-89894266D01*
X120798245Y-89894266D02*
X120798245Y-90094266D01*
X120798245Y-90094266D02*
X120731578Y-90360933D01*
X120731578Y-90360933D02*
X120664912Y-90494266D01*
X120664912Y-90494266D02*
X120531578Y-90627600D01*
X120531578Y-90627600D02*
X120331578Y-90694266D01*
X120331578Y-90694266D02*
X119998245Y-90694266D01*
X121398245Y-90560933D02*
X121464912Y-90627600D01*
X121464912Y-90627600D02*
X121398245Y-90694266D01*
X121398245Y-90694266D02*
X121331578Y-90627600D01*
X121331578Y-90627600D02*
X121398245Y-90560933D01*
X121398245Y-90560933D02*
X121398245Y-90694266D01*
X121398245Y-89827600D02*
X121464912Y-89894266D01*
X121464912Y-89894266D02*
X121398245Y-89960933D01*
X121398245Y-89960933D02*
X121331578Y-89894266D01*
X121331578Y-89894266D02*
X121398245Y-89827600D01*
X121398245Y-89827600D02*
X121398245Y-89960933D01*
X123064912Y-90627600D02*
X123198246Y-90694266D01*
X123198246Y-90694266D02*
X123464912Y-90694266D01*
X123464912Y-90694266D02*
X123598246Y-90627600D01*
X123598246Y-90627600D02*
X123664912Y-90494266D01*
X123664912Y-90494266D02*
X123664912Y-90427600D01*
X123664912Y-90427600D02*
X123598246Y-90294266D01*
X123598246Y-90294266D02*
X123464912Y-90227600D01*
X123464912Y-90227600D02*
X123264912Y-90227600D01*
X123264912Y-90227600D02*
X123131579Y-90160933D01*
X123131579Y-90160933D02*
X123064912Y-90027600D01*
X123064912Y-90027600D02*
X123064912Y-89960933D01*
X123064912Y-89960933D02*
X123131579Y-89827600D01*
X123131579Y-89827600D02*
X123264912Y-89760933D01*
X123264912Y-89760933D02*
X123464912Y-89760933D01*
X123464912Y-89760933D02*
X123598246Y-89827600D01*
X124798245Y-90627600D02*
X124664912Y-90694266D01*
X124664912Y-90694266D02*
X124398245Y-90694266D01*
X124398245Y-90694266D02*
X124264912Y-90627600D01*
X124264912Y-90627600D02*
X124198245Y-90494266D01*
X124198245Y-90494266D02*
X124198245Y-89960933D01*
X124198245Y-89960933D02*
X124264912Y-89827600D01*
X124264912Y-89827600D02*
X124398245Y-89760933D01*
X124398245Y-89760933D02*
X124664912Y-89760933D01*
X124664912Y-89760933D02*
X124798245Y-89827600D01*
X124798245Y-89827600D02*
X124864912Y-89960933D01*
X124864912Y-89960933D02*
X124864912Y-90094266D01*
X124864912Y-90094266D02*
X124198245Y-90227600D01*
X125464912Y-90694266D02*
X125464912Y-89760933D01*
X125464912Y-90027600D02*
X125531579Y-89894266D01*
X125531579Y-89894266D02*
X125598245Y-89827600D01*
X125598245Y-89827600D02*
X125731579Y-89760933D01*
X125731579Y-89760933D02*
X125864912Y-89760933D01*
X126198246Y-89760933D02*
X126531579Y-90694266D01*
X126531579Y-90694266D02*
X126864912Y-89760933D01*
X127598246Y-90694266D02*
X127464913Y-90627600D01*
X127464913Y-90627600D02*
X127398246Y-90560933D01*
X127398246Y-90560933D02*
X127331579Y-90427600D01*
X127331579Y-90427600D02*
X127331579Y-90027600D01*
X127331579Y-90027600D02*
X127398246Y-89894266D01*
X127398246Y-89894266D02*
X127464913Y-89827600D01*
X127464913Y-89827600D02*
X127598246Y-89760933D01*
X127598246Y-89760933D02*
X127798246Y-89760933D01*
X127798246Y-89760933D02*
X127931579Y-89827600D01*
X127931579Y-89827600D02*
X127998246Y-89894266D01*
X127998246Y-89894266D02*
X128064913Y-90027600D01*
X128064913Y-90027600D02*
X128064913Y-90427600D01*
X128064913Y-90427600D02*
X127998246Y-90560933D01*
X127998246Y-90560933D02*
X127931579Y-90627600D01*
X127931579Y-90627600D02*
X127798246Y-90694266D01*
X127798246Y-90694266D02*
X127598246Y-90694266D01*
X128598246Y-89427600D02*
X128664913Y-89360933D01*
X128664913Y-89360933D02*
X128798246Y-89294266D01*
X128798246Y-89294266D02*
X129131580Y-89294266D01*
X129131580Y-89294266D02*
X129264913Y-89360933D01*
X129264913Y-89360933D02*
X129331580Y-89427600D01*
X129331580Y-89427600D02*
X129398246Y-89560933D01*
X129398246Y-89560933D02*
X129398246Y-89694266D01*
X129398246Y-89694266D02*
X129331580Y-89894266D01*
X129331580Y-89894266D02*
X128531580Y-90694266D01*
X128531580Y-90694266D02*
X129398246Y-90694266D01*
X131264913Y-90694266D02*
X131131580Y-90627600D01*
X131131580Y-90627600D02*
X131064913Y-90560933D01*
X131064913Y-90560933D02*
X130998246Y-90427600D01*
X130998246Y-90427600D02*
X130998246Y-90027600D01*
X130998246Y-90027600D02*
X131064913Y-89894266D01*
X131064913Y-89894266D02*
X131131580Y-89827600D01*
X131131580Y-89827600D02*
X131264913Y-89760933D01*
X131264913Y-89760933D02*
X131464913Y-89760933D01*
X131464913Y-89760933D02*
X131598246Y-89827600D01*
X131598246Y-89827600D02*
X131664913Y-89894266D01*
X131664913Y-89894266D02*
X131731580Y-90027600D01*
X131731580Y-90027600D02*
X131731580Y-90427600D01*
X131731580Y-90427600D02*
X131664913Y-90560933D01*
X131664913Y-90560933D02*
X131598246Y-90627600D01*
X131598246Y-90627600D02*
X131464913Y-90694266D01*
X131464913Y-90694266D02*
X131264913Y-90694266D01*
X132331580Y-89760933D02*
X132331580Y-90694266D01*
X132331580Y-89894266D02*
X132398247Y-89827600D01*
X132398247Y-89827600D02*
X132531580Y-89760933D01*
X132531580Y-89760933D02*
X132731580Y-89760933D01*
X132731580Y-89760933D02*
X132864913Y-89827600D01*
X132864913Y-89827600D02*
X132931580Y-89960933D01*
X132931580Y-89960933D02*
X132931580Y-90694266D01*
X133798247Y-90694266D02*
X133664914Y-90627600D01*
X133664914Y-90627600D02*
X133598247Y-90494266D01*
X133598247Y-90494266D02*
X133598247Y-89294266D01*
X134198247Y-89760933D02*
X134531580Y-90694266D01*
X134864913Y-89760933D02*
X134531580Y-90694266D01*
X134531580Y-90694266D02*
X134398247Y-91027600D01*
X134398247Y-91027600D02*
X134331580Y-91094266D01*
X134331580Y-91094266D02*
X134198247Y-91160933D01*
X117664911Y-91548266D02*
X118464911Y-91548266D01*
X118064911Y-92948266D02*
X118064911Y-91548266D01*
X119131578Y-92948266D02*
X118998245Y-92881600D01*
X118998245Y-92881600D02*
X118931578Y-92814933D01*
X118931578Y-92814933D02*
X118864911Y-92681600D01*
X118864911Y-92681600D02*
X118864911Y-92281600D01*
X118864911Y-92281600D02*
X118931578Y-92148266D01*
X118931578Y-92148266D02*
X118998245Y-92081600D01*
X118998245Y-92081600D02*
X119131578Y-92014933D01*
X119131578Y-92014933D02*
X119331578Y-92014933D01*
X119331578Y-92014933D02*
X119464911Y-92081600D01*
X119464911Y-92081600D02*
X119531578Y-92148266D01*
X119531578Y-92148266D02*
X119598245Y-92281600D01*
X119598245Y-92281600D02*
X119598245Y-92681600D01*
X119598245Y-92681600D02*
X119531578Y-92814933D01*
X119531578Y-92814933D02*
X119464911Y-92881600D01*
X119464911Y-92881600D02*
X119331578Y-92948266D01*
X119331578Y-92948266D02*
X119131578Y-92948266D01*
X121264912Y-92948266D02*
X121264912Y-92014933D01*
X121264912Y-92281600D02*
X121331579Y-92148266D01*
X121331579Y-92148266D02*
X121398245Y-92081600D01*
X121398245Y-92081600D02*
X121531579Y-92014933D01*
X121531579Y-92014933D02*
X121664912Y-92014933D01*
X122664912Y-92881600D02*
X122531579Y-92948266D01*
X122531579Y-92948266D02*
X122264912Y-92948266D01*
X122264912Y-92948266D02*
X122131579Y-92881600D01*
X122131579Y-92881600D02*
X122064912Y-92748266D01*
X122064912Y-92748266D02*
X122064912Y-92214933D01*
X122064912Y-92214933D02*
X122131579Y-92081600D01*
X122131579Y-92081600D02*
X122264912Y-92014933D01*
X122264912Y-92014933D02*
X122531579Y-92014933D01*
X122531579Y-92014933D02*
X122664912Y-92081600D01*
X122664912Y-92081600D02*
X122731579Y-92214933D01*
X122731579Y-92214933D02*
X122731579Y-92348266D01*
X122731579Y-92348266D02*
X122064912Y-92481600D01*
X123931579Y-92881600D02*
X123798246Y-92948266D01*
X123798246Y-92948266D02*
X123531579Y-92948266D01*
X123531579Y-92948266D02*
X123398246Y-92881600D01*
X123398246Y-92881600D02*
X123331579Y-92814933D01*
X123331579Y-92814933D02*
X123264912Y-92681600D01*
X123264912Y-92681600D02*
X123264912Y-92281600D01*
X123264912Y-92281600D02*
X123331579Y-92148266D01*
X123331579Y-92148266D02*
X123398246Y-92081600D01*
X123398246Y-92081600D02*
X123531579Y-92014933D01*
X123531579Y-92014933D02*
X123798246Y-92014933D01*
X123798246Y-92014933D02*
X123931579Y-92081600D01*
X125131579Y-92948266D02*
X125131579Y-92214933D01*
X125131579Y-92214933D02*
X125064912Y-92081600D01*
X125064912Y-92081600D02*
X124931579Y-92014933D01*
X124931579Y-92014933D02*
X124664912Y-92014933D01*
X124664912Y-92014933D02*
X124531579Y-92081600D01*
X125131579Y-92881600D02*
X124998246Y-92948266D01*
X124998246Y-92948266D02*
X124664912Y-92948266D01*
X124664912Y-92948266D02*
X124531579Y-92881600D01*
X124531579Y-92881600D02*
X124464912Y-92748266D01*
X124464912Y-92748266D02*
X124464912Y-92614933D01*
X124464912Y-92614933D02*
X124531579Y-92481600D01*
X124531579Y-92481600D02*
X124664912Y-92414933D01*
X124664912Y-92414933D02*
X124998246Y-92414933D01*
X124998246Y-92414933D02*
X125131579Y-92348266D01*
X125998246Y-92948266D02*
X125864913Y-92881600D01*
X125864913Y-92881600D02*
X125798246Y-92748266D01*
X125798246Y-92748266D02*
X125798246Y-91548266D01*
X126731579Y-92948266D02*
X126598246Y-92881600D01*
X126598246Y-92881600D02*
X126531579Y-92748266D01*
X126531579Y-92748266D02*
X126531579Y-91548266D01*
X128264912Y-92881600D02*
X128398246Y-92948266D01*
X128398246Y-92948266D02*
X128664912Y-92948266D01*
X128664912Y-92948266D02*
X128798246Y-92881600D01*
X128798246Y-92881600D02*
X128864912Y-92748266D01*
X128864912Y-92748266D02*
X128864912Y-92681600D01*
X128864912Y-92681600D02*
X128798246Y-92548266D01*
X128798246Y-92548266D02*
X128664912Y-92481600D01*
X128664912Y-92481600D02*
X128464912Y-92481600D01*
X128464912Y-92481600D02*
X128331579Y-92414933D01*
X128331579Y-92414933D02*
X128264912Y-92281600D01*
X128264912Y-92281600D02*
X128264912Y-92214933D01*
X128264912Y-92214933D02*
X128331579Y-92081600D01*
X128331579Y-92081600D02*
X128464912Y-92014933D01*
X128464912Y-92014933D02*
X128664912Y-92014933D01*
X128664912Y-92014933D02*
X128798246Y-92081600D01*
X130064912Y-92948266D02*
X130064912Y-92214933D01*
X130064912Y-92214933D02*
X129998245Y-92081600D01*
X129998245Y-92081600D02*
X129864912Y-92014933D01*
X129864912Y-92014933D02*
X129598245Y-92014933D01*
X129598245Y-92014933D02*
X129464912Y-92081600D01*
X130064912Y-92881600D02*
X129931579Y-92948266D01*
X129931579Y-92948266D02*
X129598245Y-92948266D01*
X129598245Y-92948266D02*
X129464912Y-92881600D01*
X129464912Y-92881600D02*
X129398245Y-92748266D01*
X129398245Y-92748266D02*
X129398245Y-92614933D01*
X129398245Y-92614933D02*
X129464912Y-92481600D01*
X129464912Y-92481600D02*
X129598245Y-92414933D01*
X129598245Y-92414933D02*
X129931579Y-92414933D01*
X129931579Y-92414933D02*
X130064912Y-92348266D01*
X130598246Y-92014933D02*
X130931579Y-92948266D01*
X130931579Y-92948266D02*
X131264912Y-92014933D01*
X132331579Y-92881600D02*
X132198246Y-92948266D01*
X132198246Y-92948266D02*
X131931579Y-92948266D01*
X131931579Y-92948266D02*
X131798246Y-92881600D01*
X131798246Y-92881600D02*
X131731579Y-92748266D01*
X131731579Y-92748266D02*
X131731579Y-92214933D01*
X131731579Y-92214933D02*
X131798246Y-92081600D01*
X131798246Y-92081600D02*
X131931579Y-92014933D01*
X131931579Y-92014933D02*
X132198246Y-92014933D01*
X132198246Y-92014933D02*
X132331579Y-92081600D01*
X132331579Y-92081600D02*
X132398246Y-92214933D01*
X132398246Y-92214933D02*
X132398246Y-92348266D01*
X132398246Y-92348266D02*
X131731579Y-92481600D01*
X133598246Y-92948266D02*
X133598246Y-91548266D01*
X133598246Y-92881600D02*
X133464913Y-92948266D01*
X133464913Y-92948266D02*
X133198246Y-92948266D01*
X133198246Y-92948266D02*
X133064913Y-92881600D01*
X133064913Y-92881600D02*
X132998246Y-92814933D01*
X132998246Y-92814933D02*
X132931579Y-92681600D01*
X132931579Y-92681600D02*
X132931579Y-92281600D01*
X132931579Y-92281600D02*
X132998246Y-92148266D01*
X132998246Y-92148266D02*
X133064913Y-92081600D01*
X133064913Y-92081600D02*
X133198246Y-92014933D01*
X133198246Y-92014933D02*
X133464913Y-92014933D01*
X133464913Y-92014933D02*
X133598246Y-92081600D01*
X135331580Y-92014933D02*
X135331580Y-93414933D01*
X135331580Y-92081600D02*
X135464913Y-92014933D01*
X135464913Y-92014933D02*
X135731580Y-92014933D01*
X135731580Y-92014933D02*
X135864913Y-92081600D01*
X135864913Y-92081600D02*
X135931580Y-92148266D01*
X135931580Y-92148266D02*
X135998247Y-92281600D01*
X135998247Y-92281600D02*
X135998247Y-92681600D01*
X135998247Y-92681600D02*
X135931580Y-92814933D01*
X135931580Y-92814933D02*
X135864913Y-92881600D01*
X135864913Y-92881600D02*
X135731580Y-92948266D01*
X135731580Y-92948266D02*
X135464913Y-92948266D01*
X135464913Y-92948266D02*
X135331580Y-92881600D01*
X136798247Y-92948266D02*
X136664914Y-92881600D01*
X136664914Y-92881600D02*
X136598247Y-92814933D01*
X136598247Y-92814933D02*
X136531580Y-92681600D01*
X136531580Y-92681600D02*
X136531580Y-92281600D01*
X136531580Y-92281600D02*
X136598247Y-92148266D01*
X136598247Y-92148266D02*
X136664914Y-92081600D01*
X136664914Y-92081600D02*
X136798247Y-92014933D01*
X136798247Y-92014933D02*
X136998247Y-92014933D01*
X136998247Y-92014933D02*
X137131580Y-92081600D01*
X137131580Y-92081600D02*
X137198247Y-92148266D01*
X137198247Y-92148266D02*
X137264914Y-92281600D01*
X137264914Y-92281600D02*
X137264914Y-92681600D01*
X137264914Y-92681600D02*
X137198247Y-92814933D01*
X137198247Y-92814933D02*
X137131580Y-92881600D01*
X137131580Y-92881600D02*
X136998247Y-92948266D01*
X136998247Y-92948266D02*
X136798247Y-92948266D01*
X137798247Y-92881600D02*
X137931581Y-92948266D01*
X137931581Y-92948266D02*
X138198247Y-92948266D01*
X138198247Y-92948266D02*
X138331581Y-92881600D01*
X138331581Y-92881600D02*
X138398247Y-92748266D01*
X138398247Y-92748266D02*
X138398247Y-92681600D01*
X138398247Y-92681600D02*
X138331581Y-92548266D01*
X138331581Y-92548266D02*
X138198247Y-92481600D01*
X138198247Y-92481600D02*
X137998247Y-92481600D01*
X137998247Y-92481600D02*
X137864914Y-92414933D01*
X137864914Y-92414933D02*
X137798247Y-92281600D01*
X137798247Y-92281600D02*
X137798247Y-92214933D01*
X137798247Y-92214933D02*
X137864914Y-92081600D01*
X137864914Y-92081600D02*
X137998247Y-92014933D01*
X137998247Y-92014933D02*
X138198247Y-92014933D01*
X138198247Y-92014933D02*
X138331581Y-92081600D01*
X138998247Y-92948266D02*
X138998247Y-92014933D01*
X138998247Y-91548266D02*
X138931580Y-91614933D01*
X138931580Y-91614933D02*
X138998247Y-91681600D01*
X138998247Y-91681600D02*
X139064914Y-91614933D01*
X139064914Y-91614933D02*
X138998247Y-91548266D01*
X138998247Y-91548266D02*
X138998247Y-91681600D01*
X139464914Y-92014933D02*
X139998247Y-92014933D01*
X139664914Y-91548266D02*
X139664914Y-92748266D01*
X139664914Y-92748266D02*
X139731581Y-92881600D01*
X139731581Y-92881600D02*
X139864914Y-92948266D01*
X139864914Y-92948266D02*
X139998247Y-92948266D01*
X140464914Y-92948266D02*
X140464914Y-92014933D01*
X140464914Y-91548266D02*
X140398247Y-91614933D01*
X140398247Y-91614933D02*
X140464914Y-91681600D01*
X140464914Y-91681600D02*
X140531581Y-91614933D01*
X140531581Y-91614933D02*
X140464914Y-91548266D01*
X140464914Y-91548266D02*
X140464914Y-91681600D01*
X141331581Y-92948266D02*
X141198248Y-92881600D01*
X141198248Y-92881600D02*
X141131581Y-92814933D01*
X141131581Y-92814933D02*
X141064914Y-92681600D01*
X141064914Y-92681600D02*
X141064914Y-92281600D01*
X141064914Y-92281600D02*
X141131581Y-92148266D01*
X141131581Y-92148266D02*
X141198248Y-92081600D01*
X141198248Y-92081600D02*
X141331581Y-92014933D01*
X141331581Y-92014933D02*
X141531581Y-92014933D01*
X141531581Y-92014933D02*
X141664914Y-92081600D01*
X141664914Y-92081600D02*
X141731581Y-92148266D01*
X141731581Y-92148266D02*
X141798248Y-92281600D01*
X141798248Y-92281600D02*
X141798248Y-92681600D01*
X141798248Y-92681600D02*
X141731581Y-92814933D01*
X141731581Y-92814933D02*
X141664914Y-92881600D01*
X141664914Y-92881600D02*
X141531581Y-92948266D01*
X141531581Y-92948266D02*
X141331581Y-92948266D01*
X142398248Y-92014933D02*
X142398248Y-92948266D01*
X142398248Y-92148266D02*
X142464915Y-92081600D01*
X142464915Y-92081600D02*
X142598248Y-92014933D01*
X142598248Y-92014933D02*
X142798248Y-92014933D01*
X142798248Y-92014933D02*
X142931581Y-92081600D01*
X142931581Y-92081600D02*
X142998248Y-92214933D01*
X142998248Y-92214933D02*
X142998248Y-92948266D01*
X143731582Y-92881600D02*
X143731582Y-92948266D01*
X143731582Y-92948266D02*
X143664915Y-93081600D01*
X143664915Y-93081600D02*
X143598248Y-93148266D01*
X145398249Y-92014933D02*
X145398249Y-93414933D01*
X145398249Y-92081600D02*
X145531582Y-92014933D01*
X145531582Y-92014933D02*
X145798249Y-92014933D01*
X145798249Y-92014933D02*
X145931582Y-92081600D01*
X145931582Y-92081600D02*
X145998249Y-92148266D01*
X145998249Y-92148266D02*
X146064916Y-92281600D01*
X146064916Y-92281600D02*
X146064916Y-92681600D01*
X146064916Y-92681600D02*
X145998249Y-92814933D01*
X145998249Y-92814933D02*
X145931582Y-92881600D01*
X145931582Y-92881600D02*
X145798249Y-92948266D01*
X145798249Y-92948266D02*
X145531582Y-92948266D01*
X145531582Y-92948266D02*
X145398249Y-92881600D01*
X146664916Y-92948266D02*
X146664916Y-92014933D01*
X146664916Y-92281600D02*
X146731583Y-92148266D01*
X146731583Y-92148266D02*
X146798249Y-92081600D01*
X146798249Y-92081600D02*
X146931583Y-92014933D01*
X146931583Y-92014933D02*
X147064916Y-92014933D01*
X148064916Y-92881600D02*
X147931583Y-92948266D01*
X147931583Y-92948266D02*
X147664916Y-92948266D01*
X147664916Y-92948266D02*
X147531583Y-92881600D01*
X147531583Y-92881600D02*
X147464916Y-92748266D01*
X147464916Y-92748266D02*
X147464916Y-92214933D01*
X147464916Y-92214933D02*
X147531583Y-92081600D01*
X147531583Y-92081600D02*
X147664916Y-92014933D01*
X147664916Y-92014933D02*
X147931583Y-92014933D01*
X147931583Y-92014933D02*
X148064916Y-92081600D01*
X148064916Y-92081600D02*
X148131583Y-92214933D01*
X148131583Y-92214933D02*
X148131583Y-92348266D01*
X148131583Y-92348266D02*
X147464916Y-92481600D01*
X148664916Y-92881600D02*
X148798250Y-92948266D01*
X148798250Y-92948266D02*
X149064916Y-92948266D01*
X149064916Y-92948266D02*
X149198250Y-92881600D01*
X149198250Y-92881600D02*
X149264916Y-92748266D01*
X149264916Y-92748266D02*
X149264916Y-92681600D01*
X149264916Y-92681600D02*
X149198250Y-92548266D01*
X149198250Y-92548266D02*
X149064916Y-92481600D01*
X149064916Y-92481600D02*
X148864916Y-92481600D01*
X148864916Y-92481600D02*
X148731583Y-92414933D01*
X148731583Y-92414933D02*
X148664916Y-92281600D01*
X148664916Y-92281600D02*
X148664916Y-92214933D01*
X148664916Y-92214933D02*
X148731583Y-92081600D01*
X148731583Y-92081600D02*
X148864916Y-92014933D01*
X148864916Y-92014933D02*
X149064916Y-92014933D01*
X149064916Y-92014933D02*
X149198250Y-92081600D01*
X149798249Y-92881600D02*
X149931583Y-92948266D01*
X149931583Y-92948266D02*
X150198249Y-92948266D01*
X150198249Y-92948266D02*
X150331583Y-92881600D01*
X150331583Y-92881600D02*
X150398249Y-92748266D01*
X150398249Y-92748266D02*
X150398249Y-92681600D01*
X150398249Y-92681600D02*
X150331583Y-92548266D01*
X150331583Y-92548266D02*
X150198249Y-92481600D01*
X150198249Y-92481600D02*
X149998249Y-92481600D01*
X149998249Y-92481600D02*
X149864916Y-92414933D01*
X149864916Y-92414933D02*
X149798249Y-92281600D01*
X149798249Y-92281600D02*
X149798249Y-92214933D01*
X149798249Y-92214933D02*
X149864916Y-92081600D01*
X149864916Y-92081600D02*
X149998249Y-92014933D01*
X149998249Y-92014933D02*
X150198249Y-92014933D01*
X150198249Y-92014933D02*
X150331583Y-92081600D01*
X152664916Y-92948266D02*
X152664916Y-92214933D01*
X152664916Y-92214933D02*
X152598249Y-92081600D01*
X152598249Y-92081600D02*
X152464916Y-92014933D01*
X152464916Y-92014933D02*
X152198249Y-92014933D01*
X152198249Y-92014933D02*
X152064916Y-92081600D01*
X152664916Y-92881600D02*
X152531583Y-92948266D01*
X152531583Y-92948266D02*
X152198249Y-92948266D01*
X152198249Y-92948266D02*
X152064916Y-92881600D01*
X152064916Y-92881600D02*
X151998249Y-92748266D01*
X151998249Y-92748266D02*
X151998249Y-92614933D01*
X151998249Y-92614933D02*
X152064916Y-92481600D01*
X152064916Y-92481600D02*
X152198249Y-92414933D01*
X152198249Y-92414933D02*
X152531583Y-92414933D01*
X152531583Y-92414933D02*
X152664916Y-92348266D01*
X153331583Y-92014933D02*
X153331583Y-92948266D01*
X153331583Y-92148266D02*
X153398250Y-92081600D01*
X153398250Y-92081600D02*
X153531583Y-92014933D01*
X153531583Y-92014933D02*
X153731583Y-92014933D01*
X153731583Y-92014933D02*
X153864916Y-92081600D01*
X153864916Y-92081600D02*
X153931583Y-92214933D01*
X153931583Y-92214933D02*
X153931583Y-92948266D01*
X155198250Y-92948266D02*
X155198250Y-91548266D01*
X155198250Y-92881600D02*
X155064917Y-92948266D01*
X155064917Y-92948266D02*
X154798250Y-92948266D01*
X154798250Y-92948266D02*
X154664917Y-92881600D01*
X154664917Y-92881600D02*
X154598250Y-92814933D01*
X154598250Y-92814933D02*
X154531583Y-92681600D01*
X154531583Y-92681600D02*
X154531583Y-92281600D01*
X154531583Y-92281600D02*
X154598250Y-92148266D01*
X154598250Y-92148266D02*
X154664917Y-92081600D01*
X154664917Y-92081600D02*
X154798250Y-92014933D01*
X154798250Y-92014933D02*
X155064917Y-92014933D01*
X155064917Y-92014933D02*
X155198250Y-92081600D01*
X156931584Y-92948266D02*
X156931584Y-92014933D01*
X156931584Y-92281600D02*
X156998251Y-92148266D01*
X156998251Y-92148266D02*
X157064917Y-92081600D01*
X157064917Y-92081600D02*
X157198251Y-92014933D01*
X157198251Y-92014933D02*
X157331584Y-92014933D01*
X158331584Y-92881600D02*
X158198251Y-92948266D01*
X158198251Y-92948266D02*
X157931584Y-92948266D01*
X157931584Y-92948266D02*
X157798251Y-92881600D01*
X157798251Y-92881600D02*
X157731584Y-92748266D01*
X157731584Y-92748266D02*
X157731584Y-92214933D01*
X157731584Y-92214933D02*
X157798251Y-92081600D01*
X157798251Y-92081600D02*
X157931584Y-92014933D01*
X157931584Y-92014933D02*
X158198251Y-92014933D01*
X158198251Y-92014933D02*
X158331584Y-92081600D01*
X158331584Y-92081600D02*
X158398251Y-92214933D01*
X158398251Y-92214933D02*
X158398251Y-92348266D01*
X158398251Y-92348266D02*
X157731584Y-92481600D01*
X159198251Y-92948266D02*
X159064918Y-92881600D01*
X159064918Y-92881600D02*
X158998251Y-92748266D01*
X158998251Y-92748266D02*
X158998251Y-91548266D01*
X160264917Y-92881600D02*
X160131584Y-92948266D01*
X160131584Y-92948266D02*
X159864917Y-92948266D01*
X159864917Y-92948266D02*
X159731584Y-92881600D01*
X159731584Y-92881600D02*
X159664917Y-92748266D01*
X159664917Y-92748266D02*
X159664917Y-92214933D01*
X159664917Y-92214933D02*
X159731584Y-92081600D01*
X159731584Y-92081600D02*
X159864917Y-92014933D01*
X159864917Y-92014933D02*
X160131584Y-92014933D01*
X160131584Y-92014933D02*
X160264917Y-92081600D01*
X160264917Y-92081600D02*
X160331584Y-92214933D01*
X160331584Y-92214933D02*
X160331584Y-92348266D01*
X160331584Y-92348266D02*
X159664917Y-92481600D01*
X161531584Y-92948266D02*
X161531584Y-92214933D01*
X161531584Y-92214933D02*
X161464917Y-92081600D01*
X161464917Y-92081600D02*
X161331584Y-92014933D01*
X161331584Y-92014933D02*
X161064917Y-92014933D01*
X161064917Y-92014933D02*
X160931584Y-92081600D01*
X161531584Y-92881600D02*
X161398251Y-92948266D01*
X161398251Y-92948266D02*
X161064917Y-92948266D01*
X161064917Y-92948266D02*
X160931584Y-92881600D01*
X160931584Y-92881600D02*
X160864917Y-92748266D01*
X160864917Y-92748266D02*
X160864917Y-92614933D01*
X160864917Y-92614933D02*
X160931584Y-92481600D01*
X160931584Y-92481600D02*
X161064917Y-92414933D01*
X161064917Y-92414933D02*
X161398251Y-92414933D01*
X161398251Y-92414933D02*
X161531584Y-92348266D01*
X162131584Y-92881600D02*
X162264918Y-92948266D01*
X162264918Y-92948266D02*
X162531584Y-92948266D01*
X162531584Y-92948266D02*
X162664918Y-92881600D01*
X162664918Y-92881600D02*
X162731584Y-92748266D01*
X162731584Y-92748266D02*
X162731584Y-92681600D01*
X162731584Y-92681600D02*
X162664918Y-92548266D01*
X162664918Y-92548266D02*
X162531584Y-92481600D01*
X162531584Y-92481600D02*
X162331584Y-92481600D01*
X162331584Y-92481600D02*
X162198251Y-92414933D01*
X162198251Y-92414933D02*
X162131584Y-92281600D01*
X162131584Y-92281600D02*
X162131584Y-92214933D01*
X162131584Y-92214933D02*
X162198251Y-92081600D01*
X162198251Y-92081600D02*
X162331584Y-92014933D01*
X162331584Y-92014933D02*
X162531584Y-92014933D01*
X162531584Y-92014933D02*
X162664918Y-92081600D01*
X163864917Y-92881600D02*
X163731584Y-92948266D01*
X163731584Y-92948266D02*
X163464917Y-92948266D01*
X163464917Y-92948266D02*
X163331584Y-92881600D01*
X163331584Y-92881600D02*
X163264917Y-92748266D01*
X163264917Y-92748266D02*
X163264917Y-92214933D01*
X163264917Y-92214933D02*
X163331584Y-92081600D01*
X163331584Y-92081600D02*
X163464917Y-92014933D01*
X163464917Y-92014933D02*
X163731584Y-92014933D01*
X163731584Y-92014933D02*
X163864917Y-92081600D01*
X163864917Y-92081600D02*
X163931584Y-92214933D01*
X163931584Y-92214933D02*
X163931584Y-92348266D01*
X163931584Y-92348266D02*
X163264917Y-92481600D01*
X165598251Y-92948266D02*
X165598251Y-91548266D01*
X165598251Y-92081600D02*
X165731584Y-92014933D01*
X165731584Y-92014933D02*
X165998251Y-92014933D01*
X165998251Y-92014933D02*
X166131584Y-92081600D01*
X166131584Y-92081600D02*
X166198251Y-92148266D01*
X166198251Y-92148266D02*
X166264918Y-92281600D01*
X166264918Y-92281600D02*
X166264918Y-92681600D01*
X166264918Y-92681600D02*
X166198251Y-92814933D01*
X166198251Y-92814933D02*
X166131584Y-92881600D01*
X166131584Y-92881600D02*
X165998251Y-92948266D01*
X165998251Y-92948266D02*
X165731584Y-92948266D01*
X165731584Y-92948266D02*
X165598251Y-92881600D01*
X167464918Y-92014933D02*
X167464918Y-92948266D01*
X166864918Y-92014933D02*
X166864918Y-92748266D01*
X166864918Y-92748266D02*
X166931585Y-92881600D01*
X166931585Y-92881600D02*
X167064918Y-92948266D01*
X167064918Y-92948266D02*
X167264918Y-92948266D01*
X167264918Y-92948266D02*
X167398251Y-92881600D01*
X167398251Y-92881600D02*
X167464918Y-92814933D01*
X167931585Y-92014933D02*
X168464918Y-92014933D01*
X168131585Y-91548266D02*
X168131585Y-92748266D01*
X168131585Y-92748266D02*
X168198252Y-92881600D01*
X168198252Y-92881600D02*
X168331585Y-92948266D01*
X168331585Y-92948266D02*
X168464918Y-92948266D01*
X168731585Y-92014933D02*
X169264918Y-92014933D01*
X168931585Y-91548266D02*
X168931585Y-92748266D01*
X168931585Y-92748266D02*
X168998252Y-92881600D01*
X168998252Y-92881600D02*
X169131585Y-92948266D01*
X169131585Y-92948266D02*
X169264918Y-92948266D01*
X169931585Y-92948266D02*
X169798252Y-92881600D01*
X169798252Y-92881600D02*
X169731585Y-92814933D01*
X169731585Y-92814933D02*
X169664918Y-92681600D01*
X169664918Y-92681600D02*
X169664918Y-92281600D01*
X169664918Y-92281600D02*
X169731585Y-92148266D01*
X169731585Y-92148266D02*
X169798252Y-92081600D01*
X169798252Y-92081600D02*
X169931585Y-92014933D01*
X169931585Y-92014933D02*
X170131585Y-92014933D01*
X170131585Y-92014933D02*
X170264918Y-92081600D01*
X170264918Y-92081600D02*
X170331585Y-92148266D01*
X170331585Y-92148266D02*
X170398252Y-92281600D01*
X170398252Y-92281600D02*
X170398252Y-92681600D01*
X170398252Y-92681600D02*
X170331585Y-92814933D01*
X170331585Y-92814933D02*
X170264918Y-92881600D01*
X170264918Y-92881600D02*
X170131585Y-92948266D01*
X170131585Y-92948266D02*
X169931585Y-92948266D01*
X170998252Y-92014933D02*
X170998252Y-92948266D01*
X170998252Y-92148266D02*
X171064919Y-92081600D01*
X171064919Y-92081600D02*
X171198252Y-92014933D01*
X171198252Y-92014933D02*
X171398252Y-92014933D01*
X171398252Y-92014933D02*
X171531585Y-92081600D01*
X171531585Y-92081600D02*
X171598252Y-92214933D01*
X171598252Y-92214933D02*
X171598252Y-92948266D01*
X117664911Y-93802266D02*
X118464911Y-93802266D01*
X118064911Y-95202266D02*
X118064911Y-93802266D01*
X119131578Y-95202266D02*
X118998245Y-95135600D01*
X118998245Y-95135600D02*
X118931578Y-95068933D01*
X118931578Y-95068933D02*
X118864911Y-94935600D01*
X118864911Y-94935600D02*
X118864911Y-94535600D01*
X118864911Y-94535600D02*
X118931578Y-94402266D01*
X118931578Y-94402266D02*
X118998245Y-94335600D01*
X118998245Y-94335600D02*
X119131578Y-94268933D01*
X119131578Y-94268933D02*
X119331578Y-94268933D01*
X119331578Y-94268933D02*
X119464911Y-94335600D01*
X119464911Y-94335600D02*
X119531578Y-94402266D01*
X119531578Y-94402266D02*
X119598245Y-94535600D01*
X119598245Y-94535600D02*
X119598245Y-94935600D01*
X119598245Y-94935600D02*
X119531578Y-95068933D01*
X119531578Y-95068933D02*
X119464911Y-95135600D01*
X119464911Y-95135600D02*
X119331578Y-95202266D01*
X119331578Y-95202266D02*
X119131578Y-95202266D01*
X121264912Y-95202266D02*
X121264912Y-94268933D01*
X121264912Y-94535600D02*
X121331579Y-94402266D01*
X121331579Y-94402266D02*
X121398245Y-94335600D01*
X121398245Y-94335600D02*
X121531579Y-94268933D01*
X121531579Y-94268933D02*
X121664912Y-94268933D01*
X122664912Y-95135600D02*
X122531579Y-95202266D01*
X122531579Y-95202266D02*
X122264912Y-95202266D01*
X122264912Y-95202266D02*
X122131579Y-95135600D01*
X122131579Y-95135600D02*
X122064912Y-95002266D01*
X122064912Y-95002266D02*
X122064912Y-94468933D01*
X122064912Y-94468933D02*
X122131579Y-94335600D01*
X122131579Y-94335600D02*
X122264912Y-94268933D01*
X122264912Y-94268933D02*
X122531579Y-94268933D01*
X122531579Y-94268933D02*
X122664912Y-94335600D01*
X122664912Y-94335600D02*
X122731579Y-94468933D01*
X122731579Y-94468933D02*
X122731579Y-94602266D01*
X122731579Y-94602266D02*
X122064912Y-94735600D01*
X123131579Y-94268933D02*
X123664912Y-94268933D01*
X123331579Y-93802266D02*
X123331579Y-95002266D01*
X123331579Y-95002266D02*
X123398246Y-95135600D01*
X123398246Y-95135600D02*
X123531579Y-95202266D01*
X123531579Y-95202266D02*
X123664912Y-95202266D01*
X124731579Y-94268933D02*
X124731579Y-95202266D01*
X124131579Y-94268933D02*
X124131579Y-95002266D01*
X124131579Y-95002266D02*
X124198246Y-95135600D01*
X124198246Y-95135600D02*
X124331579Y-95202266D01*
X124331579Y-95202266D02*
X124531579Y-95202266D01*
X124531579Y-95202266D02*
X124664912Y-95135600D01*
X124664912Y-95135600D02*
X124731579Y-95068933D01*
X125398246Y-95202266D02*
X125398246Y-94268933D01*
X125398246Y-94535600D02*
X125464913Y-94402266D01*
X125464913Y-94402266D02*
X125531579Y-94335600D01*
X125531579Y-94335600D02*
X125664913Y-94268933D01*
X125664913Y-94268933D02*
X125798246Y-94268933D01*
X126264913Y-94268933D02*
X126264913Y-95202266D01*
X126264913Y-94402266D02*
X126331580Y-94335600D01*
X126331580Y-94335600D02*
X126464913Y-94268933D01*
X126464913Y-94268933D02*
X126664913Y-94268933D01*
X126664913Y-94268933D02*
X126798246Y-94335600D01*
X126798246Y-94335600D02*
X126864913Y-94468933D01*
X126864913Y-94468933D02*
X126864913Y-95202266D01*
X128398247Y-94268933D02*
X128931580Y-94268933D01*
X128598247Y-93802266D02*
X128598247Y-95002266D01*
X128598247Y-95002266D02*
X128664914Y-95135600D01*
X128664914Y-95135600D02*
X128798247Y-95202266D01*
X128798247Y-95202266D02*
X128931580Y-95202266D01*
X129598247Y-95202266D02*
X129464914Y-95135600D01*
X129464914Y-95135600D02*
X129398247Y-95068933D01*
X129398247Y-95068933D02*
X129331580Y-94935600D01*
X129331580Y-94935600D02*
X129331580Y-94535600D01*
X129331580Y-94535600D02*
X129398247Y-94402266D01*
X129398247Y-94402266D02*
X129464914Y-94335600D01*
X129464914Y-94335600D02*
X129598247Y-94268933D01*
X129598247Y-94268933D02*
X129798247Y-94268933D01*
X129798247Y-94268933D02*
X129931580Y-94335600D01*
X129931580Y-94335600D02*
X129998247Y-94402266D01*
X129998247Y-94402266D02*
X130064914Y-94535600D01*
X130064914Y-94535600D02*
X130064914Y-94935600D01*
X130064914Y-94935600D02*
X129998247Y-95068933D01*
X129998247Y-95068933D02*
X129931580Y-95135600D01*
X129931580Y-95135600D02*
X129798247Y-95202266D01*
X129798247Y-95202266D02*
X129598247Y-95202266D01*
X131731581Y-94268933D02*
X131731581Y-95202266D01*
X131731581Y-94402266D02*
X131798248Y-94335600D01*
X131798248Y-94335600D02*
X131931581Y-94268933D01*
X131931581Y-94268933D02*
X132131581Y-94268933D01*
X132131581Y-94268933D02*
X132264914Y-94335600D01*
X132264914Y-94335600D02*
X132331581Y-94468933D01*
X132331581Y-94468933D02*
X132331581Y-95202266D01*
X133198248Y-95202266D02*
X133064915Y-95135600D01*
X133064915Y-95135600D02*
X132998248Y-95068933D01*
X132998248Y-95068933D02*
X132931581Y-94935600D01*
X132931581Y-94935600D02*
X132931581Y-94535600D01*
X132931581Y-94535600D02*
X132998248Y-94402266D01*
X132998248Y-94402266D02*
X133064915Y-94335600D01*
X133064915Y-94335600D02*
X133198248Y-94268933D01*
X133198248Y-94268933D02*
X133398248Y-94268933D01*
X133398248Y-94268933D02*
X133531581Y-94335600D01*
X133531581Y-94335600D02*
X133598248Y-94402266D01*
X133598248Y-94402266D02*
X133664915Y-94535600D01*
X133664915Y-94535600D02*
X133664915Y-94935600D01*
X133664915Y-94935600D02*
X133598248Y-95068933D01*
X133598248Y-95068933D02*
X133531581Y-95135600D01*
X133531581Y-95135600D02*
X133398248Y-95202266D01*
X133398248Y-95202266D02*
X133198248Y-95202266D01*
X134264915Y-95202266D02*
X134264915Y-94268933D01*
X134264915Y-94535600D02*
X134331582Y-94402266D01*
X134331582Y-94402266D02*
X134398248Y-94335600D01*
X134398248Y-94335600D02*
X134531582Y-94268933D01*
X134531582Y-94268933D02*
X134664915Y-94268933D01*
X135131582Y-95202266D02*
X135131582Y-94268933D01*
X135131582Y-94402266D02*
X135198249Y-94335600D01*
X135198249Y-94335600D02*
X135331582Y-94268933D01*
X135331582Y-94268933D02*
X135531582Y-94268933D01*
X135531582Y-94268933D02*
X135664915Y-94335600D01*
X135664915Y-94335600D02*
X135731582Y-94468933D01*
X135731582Y-94468933D02*
X135731582Y-95202266D01*
X135731582Y-94468933D02*
X135798249Y-94335600D01*
X135798249Y-94335600D02*
X135931582Y-94268933D01*
X135931582Y-94268933D02*
X136131582Y-94268933D01*
X136131582Y-94268933D02*
X136264915Y-94335600D01*
X136264915Y-94335600D02*
X136331582Y-94468933D01*
X136331582Y-94468933D02*
X136331582Y-95202266D01*
X137598249Y-95202266D02*
X137598249Y-94468933D01*
X137598249Y-94468933D02*
X137531582Y-94335600D01*
X137531582Y-94335600D02*
X137398249Y-94268933D01*
X137398249Y-94268933D02*
X137131582Y-94268933D01*
X137131582Y-94268933D02*
X136998249Y-94335600D01*
X137598249Y-95135600D02*
X137464916Y-95202266D01*
X137464916Y-95202266D02*
X137131582Y-95202266D01*
X137131582Y-95202266D02*
X136998249Y-95135600D01*
X136998249Y-95135600D02*
X136931582Y-95002266D01*
X136931582Y-95002266D02*
X136931582Y-94868933D01*
X136931582Y-94868933D02*
X136998249Y-94735600D01*
X136998249Y-94735600D02*
X137131582Y-94668933D01*
X137131582Y-94668933D02*
X137464916Y-94668933D01*
X137464916Y-94668933D02*
X137598249Y-94602266D01*
X138464916Y-95202266D02*
X138331583Y-95135600D01*
X138331583Y-95135600D02*
X138264916Y-95002266D01*
X138264916Y-95002266D02*
X138264916Y-93802266D01*
X140264916Y-95202266D02*
X140131583Y-95135600D01*
X140131583Y-95135600D02*
X140064916Y-95068933D01*
X140064916Y-95068933D02*
X139998249Y-94935600D01*
X139998249Y-94935600D02*
X139998249Y-94535600D01*
X139998249Y-94535600D02*
X140064916Y-94402266D01*
X140064916Y-94402266D02*
X140131583Y-94335600D01*
X140131583Y-94335600D02*
X140264916Y-94268933D01*
X140264916Y-94268933D02*
X140464916Y-94268933D01*
X140464916Y-94268933D02*
X140598249Y-94335600D01*
X140598249Y-94335600D02*
X140664916Y-94402266D01*
X140664916Y-94402266D02*
X140731583Y-94535600D01*
X140731583Y-94535600D02*
X140731583Y-94935600D01*
X140731583Y-94935600D02*
X140664916Y-95068933D01*
X140664916Y-95068933D02*
X140598249Y-95135600D01*
X140598249Y-95135600D02*
X140464916Y-95202266D01*
X140464916Y-95202266D02*
X140264916Y-95202266D01*
X141331583Y-94268933D02*
X141331583Y-95668933D01*
X141331583Y-94335600D02*
X141464916Y-94268933D01*
X141464916Y-94268933D02*
X141731583Y-94268933D01*
X141731583Y-94268933D02*
X141864916Y-94335600D01*
X141864916Y-94335600D02*
X141931583Y-94402266D01*
X141931583Y-94402266D02*
X141998250Y-94535600D01*
X141998250Y-94535600D02*
X141998250Y-94935600D01*
X141998250Y-94935600D02*
X141931583Y-95068933D01*
X141931583Y-95068933D02*
X141864916Y-95135600D01*
X141864916Y-95135600D02*
X141731583Y-95202266D01*
X141731583Y-95202266D02*
X141464916Y-95202266D01*
X141464916Y-95202266D02*
X141331583Y-95135600D01*
X143131583Y-95135600D02*
X142998250Y-95202266D01*
X142998250Y-95202266D02*
X142731583Y-95202266D01*
X142731583Y-95202266D02*
X142598250Y-95135600D01*
X142598250Y-95135600D02*
X142531583Y-95002266D01*
X142531583Y-95002266D02*
X142531583Y-94468933D01*
X142531583Y-94468933D02*
X142598250Y-94335600D01*
X142598250Y-94335600D02*
X142731583Y-94268933D01*
X142731583Y-94268933D02*
X142998250Y-94268933D01*
X142998250Y-94268933D02*
X143131583Y-94335600D01*
X143131583Y-94335600D02*
X143198250Y-94468933D01*
X143198250Y-94468933D02*
X143198250Y-94602266D01*
X143198250Y-94602266D02*
X142531583Y-94735600D01*
X143798250Y-95202266D02*
X143798250Y-94268933D01*
X143798250Y-94535600D02*
X143864917Y-94402266D01*
X143864917Y-94402266D02*
X143931583Y-94335600D01*
X143931583Y-94335600D02*
X144064917Y-94268933D01*
X144064917Y-94268933D02*
X144198250Y-94268933D01*
X145264917Y-95202266D02*
X145264917Y-94468933D01*
X145264917Y-94468933D02*
X145198250Y-94335600D01*
X145198250Y-94335600D02*
X145064917Y-94268933D01*
X145064917Y-94268933D02*
X144798250Y-94268933D01*
X144798250Y-94268933D02*
X144664917Y-94335600D01*
X145264917Y-95135600D02*
X145131584Y-95202266D01*
X145131584Y-95202266D02*
X144798250Y-95202266D01*
X144798250Y-95202266D02*
X144664917Y-95135600D01*
X144664917Y-95135600D02*
X144598250Y-95002266D01*
X144598250Y-95002266D02*
X144598250Y-94868933D01*
X144598250Y-94868933D02*
X144664917Y-94735600D01*
X144664917Y-94735600D02*
X144798250Y-94668933D01*
X144798250Y-94668933D02*
X145131584Y-94668933D01*
X145131584Y-94668933D02*
X145264917Y-94602266D01*
X145731584Y-94268933D02*
X146264917Y-94268933D01*
X145931584Y-93802266D02*
X145931584Y-95002266D01*
X145931584Y-95002266D02*
X145998251Y-95135600D01*
X145998251Y-95135600D02*
X146131584Y-95202266D01*
X146131584Y-95202266D02*
X146264917Y-95202266D01*
X146731584Y-95202266D02*
X146731584Y-94268933D01*
X146731584Y-93802266D02*
X146664917Y-93868933D01*
X146664917Y-93868933D02*
X146731584Y-93935600D01*
X146731584Y-93935600D02*
X146798251Y-93868933D01*
X146798251Y-93868933D02*
X146731584Y-93802266D01*
X146731584Y-93802266D02*
X146731584Y-93935600D01*
X147598251Y-95202266D02*
X147464918Y-95135600D01*
X147464918Y-95135600D02*
X147398251Y-95068933D01*
X147398251Y-95068933D02*
X147331584Y-94935600D01*
X147331584Y-94935600D02*
X147331584Y-94535600D01*
X147331584Y-94535600D02*
X147398251Y-94402266D01*
X147398251Y-94402266D02*
X147464918Y-94335600D01*
X147464918Y-94335600D02*
X147598251Y-94268933D01*
X147598251Y-94268933D02*
X147798251Y-94268933D01*
X147798251Y-94268933D02*
X147931584Y-94335600D01*
X147931584Y-94335600D02*
X147998251Y-94402266D01*
X147998251Y-94402266D02*
X148064918Y-94535600D01*
X148064918Y-94535600D02*
X148064918Y-94935600D01*
X148064918Y-94935600D02*
X147998251Y-95068933D01*
X147998251Y-95068933D02*
X147931584Y-95135600D01*
X147931584Y-95135600D02*
X147798251Y-95202266D01*
X147798251Y-95202266D02*
X147598251Y-95202266D01*
X148664918Y-94268933D02*
X148664918Y-95202266D01*
X148664918Y-94402266D02*
X148731585Y-94335600D01*
X148731585Y-94335600D02*
X148864918Y-94268933D01*
X148864918Y-94268933D02*
X149064918Y-94268933D01*
X149064918Y-94268933D02*
X149198251Y-94335600D01*
X149198251Y-94335600D02*
X149264918Y-94468933D01*
X149264918Y-94468933D02*
X149264918Y-95202266D01*
X149998252Y-95135600D02*
X149998252Y-95202266D01*
X149998252Y-95202266D02*
X149931585Y-95335600D01*
X149931585Y-95335600D02*
X149864918Y-95402266D01*
X151664919Y-94268933D02*
X151664919Y-95668933D01*
X151664919Y-94335600D02*
X151798252Y-94268933D01*
X151798252Y-94268933D02*
X152064919Y-94268933D01*
X152064919Y-94268933D02*
X152198252Y-94335600D01*
X152198252Y-94335600D02*
X152264919Y-94402266D01*
X152264919Y-94402266D02*
X152331586Y-94535600D01*
X152331586Y-94535600D02*
X152331586Y-94935600D01*
X152331586Y-94935600D02*
X152264919Y-95068933D01*
X152264919Y-95068933D02*
X152198252Y-95135600D01*
X152198252Y-95135600D02*
X152064919Y-95202266D01*
X152064919Y-95202266D02*
X151798252Y-95202266D01*
X151798252Y-95202266D02*
X151664919Y-95135600D01*
X152931586Y-95202266D02*
X152931586Y-94268933D01*
X152931586Y-94535600D02*
X152998253Y-94402266D01*
X152998253Y-94402266D02*
X153064919Y-94335600D01*
X153064919Y-94335600D02*
X153198253Y-94268933D01*
X153198253Y-94268933D02*
X153331586Y-94268933D01*
X154331586Y-95135600D02*
X154198253Y-95202266D01*
X154198253Y-95202266D02*
X153931586Y-95202266D01*
X153931586Y-95202266D02*
X153798253Y-95135600D01*
X153798253Y-95135600D02*
X153731586Y-95002266D01*
X153731586Y-95002266D02*
X153731586Y-94468933D01*
X153731586Y-94468933D02*
X153798253Y-94335600D01*
X153798253Y-94335600D02*
X153931586Y-94268933D01*
X153931586Y-94268933D02*
X154198253Y-94268933D01*
X154198253Y-94268933D02*
X154331586Y-94335600D01*
X154331586Y-94335600D02*
X154398253Y-94468933D01*
X154398253Y-94468933D02*
X154398253Y-94602266D01*
X154398253Y-94602266D02*
X153731586Y-94735600D01*
X154931586Y-95135600D02*
X155064920Y-95202266D01*
X155064920Y-95202266D02*
X155331586Y-95202266D01*
X155331586Y-95202266D02*
X155464920Y-95135600D01*
X155464920Y-95135600D02*
X155531586Y-95002266D01*
X155531586Y-95002266D02*
X155531586Y-94935600D01*
X155531586Y-94935600D02*
X155464920Y-94802266D01*
X155464920Y-94802266D02*
X155331586Y-94735600D01*
X155331586Y-94735600D02*
X155131586Y-94735600D01*
X155131586Y-94735600D02*
X154998253Y-94668933D01*
X154998253Y-94668933D02*
X154931586Y-94535600D01*
X154931586Y-94535600D02*
X154931586Y-94468933D01*
X154931586Y-94468933D02*
X154998253Y-94335600D01*
X154998253Y-94335600D02*
X155131586Y-94268933D01*
X155131586Y-94268933D02*
X155331586Y-94268933D01*
X155331586Y-94268933D02*
X155464920Y-94335600D01*
X156064919Y-95135600D02*
X156198253Y-95202266D01*
X156198253Y-95202266D02*
X156464919Y-95202266D01*
X156464919Y-95202266D02*
X156598253Y-95135600D01*
X156598253Y-95135600D02*
X156664919Y-95002266D01*
X156664919Y-95002266D02*
X156664919Y-94935600D01*
X156664919Y-94935600D02*
X156598253Y-94802266D01*
X156598253Y-94802266D02*
X156464919Y-94735600D01*
X156464919Y-94735600D02*
X156264919Y-94735600D01*
X156264919Y-94735600D02*
X156131586Y-94668933D01*
X156131586Y-94668933D02*
X156064919Y-94535600D01*
X156064919Y-94535600D02*
X156064919Y-94468933D01*
X156064919Y-94468933D02*
X156131586Y-94335600D01*
X156131586Y-94335600D02*
X156264919Y-94268933D01*
X156264919Y-94268933D02*
X156464919Y-94268933D01*
X156464919Y-94268933D02*
X156598253Y-94335600D01*
X158931586Y-95202266D02*
X158931586Y-94468933D01*
X158931586Y-94468933D02*
X158864919Y-94335600D01*
X158864919Y-94335600D02*
X158731586Y-94268933D01*
X158731586Y-94268933D02*
X158464919Y-94268933D01*
X158464919Y-94268933D02*
X158331586Y-94335600D01*
X158931586Y-95135600D02*
X158798253Y-95202266D01*
X158798253Y-95202266D02*
X158464919Y-95202266D01*
X158464919Y-95202266D02*
X158331586Y-95135600D01*
X158331586Y-95135600D02*
X158264919Y-95002266D01*
X158264919Y-95002266D02*
X158264919Y-94868933D01*
X158264919Y-94868933D02*
X158331586Y-94735600D01*
X158331586Y-94735600D02*
X158464919Y-94668933D01*
X158464919Y-94668933D02*
X158798253Y-94668933D01*
X158798253Y-94668933D02*
X158931586Y-94602266D01*
X159598253Y-94268933D02*
X159598253Y-95202266D01*
X159598253Y-94402266D02*
X159664920Y-94335600D01*
X159664920Y-94335600D02*
X159798253Y-94268933D01*
X159798253Y-94268933D02*
X159998253Y-94268933D01*
X159998253Y-94268933D02*
X160131586Y-94335600D01*
X160131586Y-94335600D02*
X160198253Y-94468933D01*
X160198253Y-94468933D02*
X160198253Y-95202266D01*
X161464920Y-95202266D02*
X161464920Y-93802266D01*
X161464920Y-95135600D02*
X161331587Y-95202266D01*
X161331587Y-95202266D02*
X161064920Y-95202266D01*
X161064920Y-95202266D02*
X160931587Y-95135600D01*
X160931587Y-95135600D02*
X160864920Y-95068933D01*
X160864920Y-95068933D02*
X160798253Y-94935600D01*
X160798253Y-94935600D02*
X160798253Y-94535600D01*
X160798253Y-94535600D02*
X160864920Y-94402266D01*
X160864920Y-94402266D02*
X160931587Y-94335600D01*
X160931587Y-94335600D02*
X161064920Y-94268933D01*
X161064920Y-94268933D02*
X161331587Y-94268933D01*
X161331587Y-94268933D02*
X161464920Y-94335600D01*
X163198254Y-95202266D02*
X163198254Y-94268933D01*
X163198254Y-94535600D02*
X163264921Y-94402266D01*
X163264921Y-94402266D02*
X163331587Y-94335600D01*
X163331587Y-94335600D02*
X163464921Y-94268933D01*
X163464921Y-94268933D02*
X163598254Y-94268933D01*
X164598254Y-95135600D02*
X164464921Y-95202266D01*
X164464921Y-95202266D02*
X164198254Y-95202266D01*
X164198254Y-95202266D02*
X164064921Y-95135600D01*
X164064921Y-95135600D02*
X163998254Y-95002266D01*
X163998254Y-95002266D02*
X163998254Y-94468933D01*
X163998254Y-94468933D02*
X164064921Y-94335600D01*
X164064921Y-94335600D02*
X164198254Y-94268933D01*
X164198254Y-94268933D02*
X164464921Y-94268933D01*
X164464921Y-94268933D02*
X164598254Y-94335600D01*
X164598254Y-94335600D02*
X164664921Y-94468933D01*
X164664921Y-94468933D02*
X164664921Y-94602266D01*
X164664921Y-94602266D02*
X163998254Y-94735600D01*
X165464921Y-95202266D02*
X165331588Y-95135600D01*
X165331588Y-95135600D02*
X165264921Y-95002266D01*
X165264921Y-95002266D02*
X165264921Y-93802266D01*
X166531587Y-95135600D02*
X166398254Y-95202266D01*
X166398254Y-95202266D02*
X166131587Y-95202266D01*
X166131587Y-95202266D02*
X165998254Y-95135600D01*
X165998254Y-95135600D02*
X165931587Y-95002266D01*
X165931587Y-95002266D02*
X165931587Y-94468933D01*
X165931587Y-94468933D02*
X165998254Y-94335600D01*
X165998254Y-94335600D02*
X166131587Y-94268933D01*
X166131587Y-94268933D02*
X166398254Y-94268933D01*
X166398254Y-94268933D02*
X166531587Y-94335600D01*
X166531587Y-94335600D02*
X166598254Y-94468933D01*
X166598254Y-94468933D02*
X166598254Y-94602266D01*
X166598254Y-94602266D02*
X165931587Y-94735600D01*
X167798254Y-95202266D02*
X167798254Y-94468933D01*
X167798254Y-94468933D02*
X167731587Y-94335600D01*
X167731587Y-94335600D02*
X167598254Y-94268933D01*
X167598254Y-94268933D02*
X167331587Y-94268933D01*
X167331587Y-94268933D02*
X167198254Y-94335600D01*
X167798254Y-95135600D02*
X167664921Y-95202266D01*
X167664921Y-95202266D02*
X167331587Y-95202266D01*
X167331587Y-95202266D02*
X167198254Y-95135600D01*
X167198254Y-95135600D02*
X167131587Y-95002266D01*
X167131587Y-95002266D02*
X167131587Y-94868933D01*
X167131587Y-94868933D02*
X167198254Y-94735600D01*
X167198254Y-94735600D02*
X167331587Y-94668933D01*
X167331587Y-94668933D02*
X167664921Y-94668933D01*
X167664921Y-94668933D02*
X167798254Y-94602266D01*
X168398254Y-95135600D02*
X168531588Y-95202266D01*
X168531588Y-95202266D02*
X168798254Y-95202266D01*
X168798254Y-95202266D02*
X168931588Y-95135600D01*
X168931588Y-95135600D02*
X168998254Y-95002266D01*
X168998254Y-95002266D02*
X168998254Y-94935600D01*
X168998254Y-94935600D02*
X168931588Y-94802266D01*
X168931588Y-94802266D02*
X168798254Y-94735600D01*
X168798254Y-94735600D02*
X168598254Y-94735600D01*
X168598254Y-94735600D02*
X168464921Y-94668933D01*
X168464921Y-94668933D02*
X168398254Y-94535600D01*
X168398254Y-94535600D02*
X168398254Y-94468933D01*
X168398254Y-94468933D02*
X168464921Y-94335600D01*
X168464921Y-94335600D02*
X168598254Y-94268933D01*
X168598254Y-94268933D02*
X168798254Y-94268933D01*
X168798254Y-94268933D02*
X168931588Y-94335600D01*
X170131587Y-95135600D02*
X169998254Y-95202266D01*
X169998254Y-95202266D02*
X169731587Y-95202266D01*
X169731587Y-95202266D02*
X169598254Y-95135600D01*
X169598254Y-95135600D02*
X169531587Y-95002266D01*
X169531587Y-95002266D02*
X169531587Y-94468933D01*
X169531587Y-94468933D02*
X169598254Y-94335600D01*
X169598254Y-94335600D02*
X169731587Y-94268933D01*
X169731587Y-94268933D02*
X169998254Y-94268933D01*
X169998254Y-94268933D02*
X170131587Y-94335600D01*
X170131587Y-94335600D02*
X170198254Y-94468933D01*
X170198254Y-94468933D02*
X170198254Y-94602266D01*
X170198254Y-94602266D02*
X169531587Y-94735600D01*
X117798244Y-97389600D02*
X117931578Y-97456266D01*
X117931578Y-97456266D02*
X118198244Y-97456266D01*
X118198244Y-97456266D02*
X118331578Y-97389600D01*
X118331578Y-97389600D02*
X118398244Y-97256266D01*
X118398244Y-97256266D02*
X118398244Y-97189600D01*
X118398244Y-97189600D02*
X118331578Y-97056266D01*
X118331578Y-97056266D02*
X118198244Y-96989600D01*
X118198244Y-96989600D02*
X117998244Y-96989600D01*
X117998244Y-96989600D02*
X117864911Y-96922933D01*
X117864911Y-96922933D02*
X117798244Y-96789600D01*
X117798244Y-96789600D02*
X117798244Y-96722933D01*
X117798244Y-96722933D02*
X117864911Y-96589600D01*
X117864911Y-96589600D02*
X117998244Y-96522933D01*
X117998244Y-96522933D02*
X118198244Y-96522933D01*
X118198244Y-96522933D02*
X118331578Y-96589600D01*
X119598244Y-97456266D02*
X119598244Y-96722933D01*
X119598244Y-96722933D02*
X119531577Y-96589600D01*
X119531577Y-96589600D02*
X119398244Y-96522933D01*
X119398244Y-96522933D02*
X119131577Y-96522933D01*
X119131577Y-96522933D02*
X118998244Y-96589600D01*
X119598244Y-97389600D02*
X119464911Y-97456266D01*
X119464911Y-97456266D02*
X119131577Y-97456266D01*
X119131577Y-97456266D02*
X118998244Y-97389600D01*
X118998244Y-97389600D02*
X118931577Y-97256266D01*
X118931577Y-97256266D02*
X118931577Y-97122933D01*
X118931577Y-97122933D02*
X118998244Y-96989600D01*
X118998244Y-96989600D02*
X119131577Y-96922933D01*
X119131577Y-96922933D02*
X119464911Y-96922933D01*
X119464911Y-96922933D02*
X119598244Y-96856266D01*
X120264911Y-97456266D02*
X120264911Y-96522933D01*
X120264911Y-96656266D02*
X120331578Y-96589600D01*
X120331578Y-96589600D02*
X120464911Y-96522933D01*
X120464911Y-96522933D02*
X120664911Y-96522933D01*
X120664911Y-96522933D02*
X120798244Y-96589600D01*
X120798244Y-96589600D02*
X120864911Y-96722933D01*
X120864911Y-96722933D02*
X120864911Y-97456266D01*
X120864911Y-96722933D02*
X120931578Y-96589600D01*
X120931578Y-96589600D02*
X121064911Y-96522933D01*
X121064911Y-96522933D02*
X121264911Y-96522933D01*
X121264911Y-96522933D02*
X121398244Y-96589600D01*
X121398244Y-96589600D02*
X121464911Y-96722933D01*
X121464911Y-96722933D02*
X121464911Y-97456266D01*
X122664911Y-97389600D02*
X122531578Y-97456266D01*
X122531578Y-97456266D02*
X122264911Y-97456266D01*
X122264911Y-97456266D02*
X122131578Y-97389600D01*
X122131578Y-97389600D02*
X122064911Y-97256266D01*
X122064911Y-97256266D02*
X122064911Y-96722933D01*
X122064911Y-96722933D02*
X122131578Y-96589600D01*
X122131578Y-96589600D02*
X122264911Y-96522933D01*
X122264911Y-96522933D02*
X122531578Y-96522933D01*
X122531578Y-96522933D02*
X122664911Y-96589600D01*
X122664911Y-96589600D02*
X122731578Y-96722933D01*
X122731578Y-96722933D02*
X122731578Y-96856266D01*
X122731578Y-96856266D02*
X122064911Y-96989600D01*
X124398245Y-97456266D02*
X124398245Y-96056266D01*
X124398245Y-96589600D02*
X124531578Y-96522933D01*
X124531578Y-96522933D02*
X124798245Y-96522933D01*
X124798245Y-96522933D02*
X124931578Y-96589600D01*
X124931578Y-96589600D02*
X124998245Y-96656266D01*
X124998245Y-96656266D02*
X125064912Y-96789600D01*
X125064912Y-96789600D02*
X125064912Y-97189600D01*
X125064912Y-97189600D02*
X124998245Y-97322933D01*
X124998245Y-97322933D02*
X124931578Y-97389600D01*
X124931578Y-97389600D02*
X124798245Y-97456266D01*
X124798245Y-97456266D02*
X124531578Y-97456266D01*
X124531578Y-97456266D02*
X124398245Y-97389600D01*
X126264912Y-96522933D02*
X126264912Y-97456266D01*
X125664912Y-96522933D02*
X125664912Y-97256266D01*
X125664912Y-97256266D02*
X125731579Y-97389600D01*
X125731579Y-97389600D02*
X125864912Y-97456266D01*
X125864912Y-97456266D02*
X126064912Y-97456266D01*
X126064912Y-97456266D02*
X126198245Y-97389600D01*
X126198245Y-97389600D02*
X126264912Y-97322933D01*
X126731579Y-96522933D02*
X127264912Y-96522933D01*
X126931579Y-96056266D02*
X126931579Y-97256266D01*
X126931579Y-97256266D02*
X126998246Y-97389600D01*
X126998246Y-97389600D02*
X127131579Y-97456266D01*
X127131579Y-97456266D02*
X127264912Y-97456266D01*
X127531579Y-96522933D02*
X128064912Y-96522933D01*
X127731579Y-96056266D02*
X127731579Y-97256266D01*
X127731579Y-97256266D02*
X127798246Y-97389600D01*
X127798246Y-97389600D02*
X127931579Y-97456266D01*
X127931579Y-97456266D02*
X128064912Y-97456266D01*
X128731579Y-97456266D02*
X128598246Y-97389600D01*
X128598246Y-97389600D02*
X128531579Y-97322933D01*
X128531579Y-97322933D02*
X128464912Y-97189600D01*
X128464912Y-97189600D02*
X128464912Y-96789600D01*
X128464912Y-96789600D02*
X128531579Y-96656266D01*
X128531579Y-96656266D02*
X128598246Y-96589600D01*
X128598246Y-96589600D02*
X128731579Y-96522933D01*
X128731579Y-96522933D02*
X128931579Y-96522933D01*
X128931579Y-96522933D02*
X129064912Y-96589600D01*
X129064912Y-96589600D02*
X129131579Y-96656266D01*
X129131579Y-96656266D02*
X129198246Y-96789600D01*
X129198246Y-96789600D02*
X129198246Y-97189600D01*
X129198246Y-97189600D02*
X129131579Y-97322933D01*
X129131579Y-97322933D02*
X129064912Y-97389600D01*
X129064912Y-97389600D02*
X128931579Y-97456266D01*
X128931579Y-97456266D02*
X128731579Y-97456266D01*
X129798246Y-96522933D02*
X129798246Y-97456266D01*
X129798246Y-96656266D02*
X129864913Y-96589600D01*
X129864913Y-96589600D02*
X129998246Y-96522933D01*
X129998246Y-96522933D02*
X130198246Y-96522933D01*
X130198246Y-96522933D02*
X130331579Y-96589600D01*
X130331579Y-96589600D02*
X130398246Y-96722933D01*
X130398246Y-96722933D02*
X130398246Y-97456266D01*
X132731580Y-97456266D02*
X132731580Y-96722933D01*
X132731580Y-96722933D02*
X132664913Y-96589600D01*
X132664913Y-96589600D02*
X132531580Y-96522933D01*
X132531580Y-96522933D02*
X132264913Y-96522933D01*
X132264913Y-96522933D02*
X132131580Y-96589600D01*
X132731580Y-97389600D02*
X132598247Y-97456266D01*
X132598247Y-97456266D02*
X132264913Y-97456266D01*
X132264913Y-97456266D02*
X132131580Y-97389600D01*
X132131580Y-97389600D02*
X132064913Y-97256266D01*
X132064913Y-97256266D02*
X132064913Y-97122933D01*
X132064913Y-97122933D02*
X132131580Y-96989600D01*
X132131580Y-96989600D02*
X132264913Y-96922933D01*
X132264913Y-96922933D02*
X132598247Y-96922933D01*
X132598247Y-96922933D02*
X132731580Y-96856266D01*
X133998247Y-96522933D02*
X133998247Y-97656266D01*
X133998247Y-97656266D02*
X133931580Y-97789600D01*
X133931580Y-97789600D02*
X133864914Y-97856266D01*
X133864914Y-97856266D02*
X133731580Y-97922933D01*
X133731580Y-97922933D02*
X133531580Y-97922933D01*
X133531580Y-97922933D02*
X133398247Y-97856266D01*
X133998247Y-97389600D02*
X133864914Y-97456266D01*
X133864914Y-97456266D02*
X133598247Y-97456266D01*
X133598247Y-97456266D02*
X133464914Y-97389600D01*
X133464914Y-97389600D02*
X133398247Y-97322933D01*
X133398247Y-97322933D02*
X133331580Y-97189600D01*
X133331580Y-97189600D02*
X133331580Y-96789600D01*
X133331580Y-96789600D02*
X133398247Y-96656266D01*
X133398247Y-96656266D02*
X133464914Y-96589600D01*
X133464914Y-96589600D02*
X133598247Y-96522933D01*
X133598247Y-96522933D02*
X133864914Y-96522933D01*
X133864914Y-96522933D02*
X133998247Y-96589600D01*
X135264914Y-97456266D02*
X135264914Y-96722933D01*
X135264914Y-96722933D02*
X135198247Y-96589600D01*
X135198247Y-96589600D02*
X135064914Y-96522933D01*
X135064914Y-96522933D02*
X134798247Y-96522933D01*
X134798247Y-96522933D02*
X134664914Y-96589600D01*
X135264914Y-97389600D02*
X135131581Y-97456266D01*
X135131581Y-97456266D02*
X134798247Y-97456266D01*
X134798247Y-97456266D02*
X134664914Y-97389600D01*
X134664914Y-97389600D02*
X134598247Y-97256266D01*
X134598247Y-97256266D02*
X134598247Y-97122933D01*
X134598247Y-97122933D02*
X134664914Y-96989600D01*
X134664914Y-96989600D02*
X134798247Y-96922933D01*
X134798247Y-96922933D02*
X135131581Y-96922933D01*
X135131581Y-96922933D02*
X135264914Y-96856266D01*
X135931581Y-97456266D02*
X135931581Y-96522933D01*
X135931581Y-96056266D02*
X135864914Y-96122933D01*
X135864914Y-96122933D02*
X135931581Y-96189600D01*
X135931581Y-96189600D02*
X135998248Y-96122933D01*
X135998248Y-96122933D02*
X135931581Y-96056266D01*
X135931581Y-96056266D02*
X135931581Y-96189600D01*
X136598248Y-96522933D02*
X136598248Y-97456266D01*
X136598248Y-96656266D02*
X136664915Y-96589600D01*
X136664915Y-96589600D02*
X136798248Y-96522933D01*
X136798248Y-96522933D02*
X136998248Y-96522933D01*
X136998248Y-96522933D02*
X137131581Y-96589600D01*
X137131581Y-96589600D02*
X137198248Y-96722933D01*
X137198248Y-96722933D02*
X137198248Y-97456266D01*
X117864911Y-100564266D02*
X117864911Y-101697600D01*
X117864911Y-101697600D02*
X117931578Y-101830933D01*
X117931578Y-101830933D02*
X117998244Y-101897600D01*
X117998244Y-101897600D02*
X118131578Y-101964266D01*
X118131578Y-101964266D02*
X118398244Y-101964266D01*
X118398244Y-101964266D02*
X118531578Y-101897600D01*
X118531578Y-101897600D02*
X118598244Y-101830933D01*
X118598244Y-101830933D02*
X118664911Y-101697600D01*
X118664911Y-101697600D02*
X118664911Y-100564266D01*
X119264911Y-101897600D02*
X119398245Y-101964266D01*
X119398245Y-101964266D02*
X119664911Y-101964266D01*
X119664911Y-101964266D02*
X119798245Y-101897600D01*
X119798245Y-101897600D02*
X119864911Y-101764266D01*
X119864911Y-101764266D02*
X119864911Y-101697600D01*
X119864911Y-101697600D02*
X119798245Y-101564266D01*
X119798245Y-101564266D02*
X119664911Y-101497600D01*
X119664911Y-101497600D02*
X119464911Y-101497600D01*
X119464911Y-101497600D02*
X119331578Y-101430933D01*
X119331578Y-101430933D02*
X119264911Y-101297600D01*
X119264911Y-101297600D02*
X119264911Y-101230933D01*
X119264911Y-101230933D02*
X119331578Y-101097600D01*
X119331578Y-101097600D02*
X119464911Y-101030933D01*
X119464911Y-101030933D02*
X119664911Y-101030933D01*
X119664911Y-101030933D02*
X119798245Y-101097600D01*
X120998244Y-101897600D02*
X120864911Y-101964266D01*
X120864911Y-101964266D02*
X120598244Y-101964266D01*
X120598244Y-101964266D02*
X120464911Y-101897600D01*
X120464911Y-101897600D02*
X120398244Y-101764266D01*
X120398244Y-101764266D02*
X120398244Y-101230933D01*
X120398244Y-101230933D02*
X120464911Y-101097600D01*
X120464911Y-101097600D02*
X120598244Y-101030933D01*
X120598244Y-101030933D02*
X120864911Y-101030933D01*
X120864911Y-101030933D02*
X120998244Y-101097600D01*
X120998244Y-101097600D02*
X121064911Y-101230933D01*
X121064911Y-101230933D02*
X121064911Y-101364266D01*
X121064911Y-101364266D02*
X120398244Y-101497600D01*
X121598244Y-101897600D02*
X121731578Y-101964266D01*
X121731578Y-101964266D02*
X121998244Y-101964266D01*
X121998244Y-101964266D02*
X122131578Y-101897600D01*
X122131578Y-101897600D02*
X122198244Y-101764266D01*
X122198244Y-101764266D02*
X122198244Y-101697600D01*
X122198244Y-101697600D02*
X122131578Y-101564266D01*
X122131578Y-101564266D02*
X121998244Y-101497600D01*
X121998244Y-101497600D02*
X121798244Y-101497600D01*
X121798244Y-101497600D02*
X121664911Y-101430933D01*
X121664911Y-101430933D02*
X121598244Y-101297600D01*
X121598244Y-101297600D02*
X121598244Y-101230933D01*
X121598244Y-101230933D02*
X121664911Y-101097600D01*
X121664911Y-101097600D02*
X121798244Y-101030933D01*
X121798244Y-101030933D02*
X121998244Y-101030933D01*
X121998244Y-101030933D02*
X122131578Y-101097600D01*
X124464911Y-101030933D02*
X124464911Y-101964266D01*
X124131578Y-100497600D02*
X123798244Y-101497600D01*
X123798244Y-101497600D02*
X124664911Y-101497600D01*
X126198244Y-101564266D02*
X126864911Y-101564266D01*
X126064911Y-101964266D02*
X126531578Y-100564266D01*
X126531578Y-100564266D02*
X126998244Y-101964266D01*
X127398244Y-101564266D02*
X128064911Y-101564266D01*
X127264911Y-101964266D02*
X127731578Y-100564266D01*
X127731578Y-100564266D02*
X128198244Y-101964266D01*
X129731578Y-101964266D02*
X129731578Y-100564266D01*
X129731578Y-101097600D02*
X129864911Y-101030933D01*
X129864911Y-101030933D02*
X130131578Y-101030933D01*
X130131578Y-101030933D02*
X130264911Y-101097600D01*
X130264911Y-101097600D02*
X130331578Y-101164266D01*
X130331578Y-101164266D02*
X130398245Y-101297600D01*
X130398245Y-101297600D02*
X130398245Y-101697600D01*
X130398245Y-101697600D02*
X130331578Y-101830933D01*
X130331578Y-101830933D02*
X130264911Y-101897600D01*
X130264911Y-101897600D02*
X130131578Y-101964266D01*
X130131578Y-101964266D02*
X129864911Y-101964266D01*
X129864911Y-101964266D02*
X129731578Y-101897600D01*
X131598245Y-101964266D02*
X131598245Y-101230933D01*
X131598245Y-101230933D02*
X131531578Y-101097600D01*
X131531578Y-101097600D02*
X131398245Y-101030933D01*
X131398245Y-101030933D02*
X131131578Y-101030933D01*
X131131578Y-101030933D02*
X130998245Y-101097600D01*
X131598245Y-101897600D02*
X131464912Y-101964266D01*
X131464912Y-101964266D02*
X131131578Y-101964266D01*
X131131578Y-101964266D02*
X130998245Y-101897600D01*
X130998245Y-101897600D02*
X130931578Y-101764266D01*
X130931578Y-101764266D02*
X130931578Y-101630933D01*
X130931578Y-101630933D02*
X130998245Y-101497600D01*
X130998245Y-101497600D02*
X131131578Y-101430933D01*
X131131578Y-101430933D02*
X131464912Y-101430933D01*
X131464912Y-101430933D02*
X131598245Y-101364266D01*
X132064912Y-101030933D02*
X132598245Y-101030933D01*
X132264912Y-100564266D02*
X132264912Y-101764266D01*
X132264912Y-101764266D02*
X132331579Y-101897600D01*
X132331579Y-101897600D02*
X132464912Y-101964266D01*
X132464912Y-101964266D02*
X132598245Y-101964266D01*
X132864912Y-101030933D02*
X133398245Y-101030933D01*
X133064912Y-100564266D02*
X133064912Y-101764266D01*
X133064912Y-101764266D02*
X133131579Y-101897600D01*
X133131579Y-101897600D02*
X133264912Y-101964266D01*
X133264912Y-101964266D02*
X133398245Y-101964266D01*
X134398245Y-101897600D02*
X134264912Y-101964266D01*
X134264912Y-101964266D02*
X133998245Y-101964266D01*
X133998245Y-101964266D02*
X133864912Y-101897600D01*
X133864912Y-101897600D02*
X133798245Y-101764266D01*
X133798245Y-101764266D02*
X133798245Y-101230933D01*
X133798245Y-101230933D02*
X133864912Y-101097600D01*
X133864912Y-101097600D02*
X133998245Y-101030933D01*
X133998245Y-101030933D02*
X134264912Y-101030933D01*
X134264912Y-101030933D02*
X134398245Y-101097600D01*
X134398245Y-101097600D02*
X134464912Y-101230933D01*
X134464912Y-101230933D02*
X134464912Y-101364266D01*
X134464912Y-101364266D02*
X133798245Y-101497600D01*
X135064912Y-101964266D02*
X135064912Y-101030933D01*
X135064912Y-101297600D02*
X135131579Y-101164266D01*
X135131579Y-101164266D02*
X135198245Y-101097600D01*
X135198245Y-101097600D02*
X135331579Y-101030933D01*
X135331579Y-101030933D02*
X135464912Y-101030933D01*
X135931579Y-101964266D02*
X135931579Y-101030933D01*
X135931579Y-100564266D02*
X135864912Y-100630933D01*
X135864912Y-100630933D02*
X135931579Y-100697600D01*
X135931579Y-100697600D02*
X135998246Y-100630933D01*
X135998246Y-100630933D02*
X135931579Y-100564266D01*
X135931579Y-100564266D02*
X135931579Y-100697600D01*
X137131579Y-101897600D02*
X136998246Y-101964266D01*
X136998246Y-101964266D02*
X136731579Y-101964266D01*
X136731579Y-101964266D02*
X136598246Y-101897600D01*
X136598246Y-101897600D02*
X136531579Y-101764266D01*
X136531579Y-101764266D02*
X136531579Y-101230933D01*
X136531579Y-101230933D02*
X136598246Y-101097600D01*
X136598246Y-101097600D02*
X136731579Y-101030933D01*
X136731579Y-101030933D02*
X136998246Y-101030933D01*
X136998246Y-101030933D02*
X137131579Y-101097600D01*
X137131579Y-101097600D02*
X137198246Y-101230933D01*
X137198246Y-101230933D02*
X137198246Y-101364266D01*
X137198246Y-101364266D02*
X136531579Y-101497600D01*
X137731579Y-101897600D02*
X137864913Y-101964266D01*
X137864913Y-101964266D02*
X138131579Y-101964266D01*
X138131579Y-101964266D02*
X138264913Y-101897600D01*
X138264913Y-101897600D02*
X138331579Y-101764266D01*
X138331579Y-101764266D02*
X138331579Y-101697600D01*
X138331579Y-101697600D02*
X138264913Y-101564266D01*
X138264913Y-101564266D02*
X138131579Y-101497600D01*
X138131579Y-101497600D02*
X137931579Y-101497600D01*
X137931579Y-101497600D02*
X137798246Y-101430933D01*
X137798246Y-101430933D02*
X137731579Y-101297600D01*
X137731579Y-101297600D02*
X137731579Y-101230933D01*
X137731579Y-101230933D02*
X137798246Y-101097600D01*
X137798246Y-101097600D02*
X137931579Y-101030933D01*
X137931579Y-101030933D02*
X138131579Y-101030933D01*
X138131579Y-101030933D02*
X138264913Y-101097600D01*
X138931579Y-101830933D02*
X138998246Y-101897600D01*
X138998246Y-101897600D02*
X138931579Y-101964266D01*
X138931579Y-101964266D02*
X138864912Y-101897600D01*
X138864912Y-101897600D02*
X138931579Y-101830933D01*
X138931579Y-101830933D02*
X138931579Y-101964266D01*
X117664911Y-102818266D02*
X118464911Y-102818266D01*
X118064911Y-104218266D02*
X118064911Y-102818266D01*
X119131578Y-104218266D02*
X118998245Y-104151600D01*
X118998245Y-104151600D02*
X118931578Y-104084933D01*
X118931578Y-104084933D02*
X118864911Y-103951600D01*
X118864911Y-103951600D02*
X118864911Y-103551600D01*
X118864911Y-103551600D02*
X118931578Y-103418266D01*
X118931578Y-103418266D02*
X118998245Y-103351600D01*
X118998245Y-103351600D02*
X119131578Y-103284933D01*
X119131578Y-103284933D02*
X119331578Y-103284933D01*
X119331578Y-103284933D02*
X119464911Y-103351600D01*
X119464911Y-103351600D02*
X119531578Y-103418266D01*
X119531578Y-103418266D02*
X119598245Y-103551600D01*
X119598245Y-103551600D02*
X119598245Y-103951600D01*
X119598245Y-103951600D02*
X119531578Y-104084933D01*
X119531578Y-104084933D02*
X119464911Y-104151600D01*
X119464911Y-104151600D02*
X119331578Y-104218266D01*
X119331578Y-104218266D02*
X119131578Y-104218266D01*
X121264912Y-104218266D02*
X121264912Y-103284933D01*
X121264912Y-103551600D02*
X121331579Y-103418266D01*
X121331579Y-103418266D02*
X121398245Y-103351600D01*
X121398245Y-103351600D02*
X121531579Y-103284933D01*
X121531579Y-103284933D02*
X121664912Y-103284933D01*
X122664912Y-104151600D02*
X122531579Y-104218266D01*
X122531579Y-104218266D02*
X122264912Y-104218266D01*
X122264912Y-104218266D02*
X122131579Y-104151600D01*
X122131579Y-104151600D02*
X122064912Y-104018266D01*
X122064912Y-104018266D02*
X122064912Y-103484933D01*
X122064912Y-103484933D02*
X122131579Y-103351600D01*
X122131579Y-103351600D02*
X122264912Y-103284933D01*
X122264912Y-103284933D02*
X122531579Y-103284933D01*
X122531579Y-103284933D02*
X122664912Y-103351600D01*
X122664912Y-103351600D02*
X122731579Y-103484933D01*
X122731579Y-103484933D02*
X122731579Y-103618266D01*
X122731579Y-103618266D02*
X122064912Y-103751600D01*
X123331579Y-103284933D02*
X123331579Y-104684933D01*
X123331579Y-103351600D02*
X123464912Y-103284933D01*
X123464912Y-103284933D02*
X123731579Y-103284933D01*
X123731579Y-103284933D02*
X123864912Y-103351600D01*
X123864912Y-103351600D02*
X123931579Y-103418266D01*
X123931579Y-103418266D02*
X123998246Y-103551600D01*
X123998246Y-103551600D02*
X123998246Y-103951600D01*
X123998246Y-103951600D02*
X123931579Y-104084933D01*
X123931579Y-104084933D02*
X123864912Y-104151600D01*
X123864912Y-104151600D02*
X123731579Y-104218266D01*
X123731579Y-104218266D02*
X123464912Y-104218266D01*
X123464912Y-104218266D02*
X123331579Y-104151600D01*
X124798246Y-104218266D02*
X124664913Y-104151600D01*
X124664913Y-104151600D02*
X124598246Y-104018266D01*
X124598246Y-104018266D02*
X124598246Y-102818266D01*
X125931579Y-104218266D02*
X125931579Y-103484933D01*
X125931579Y-103484933D02*
X125864912Y-103351600D01*
X125864912Y-103351600D02*
X125731579Y-103284933D01*
X125731579Y-103284933D02*
X125464912Y-103284933D01*
X125464912Y-103284933D02*
X125331579Y-103351600D01*
X125931579Y-104151600D02*
X125798246Y-104218266D01*
X125798246Y-104218266D02*
X125464912Y-104218266D01*
X125464912Y-104218266D02*
X125331579Y-104151600D01*
X125331579Y-104151600D02*
X125264912Y-104018266D01*
X125264912Y-104018266D02*
X125264912Y-103884933D01*
X125264912Y-103884933D02*
X125331579Y-103751600D01*
X125331579Y-103751600D02*
X125464912Y-103684933D01*
X125464912Y-103684933D02*
X125798246Y-103684933D01*
X125798246Y-103684933D02*
X125931579Y-103618266D01*
X127198246Y-104151600D02*
X127064913Y-104218266D01*
X127064913Y-104218266D02*
X126798246Y-104218266D01*
X126798246Y-104218266D02*
X126664913Y-104151600D01*
X126664913Y-104151600D02*
X126598246Y-104084933D01*
X126598246Y-104084933D02*
X126531579Y-103951600D01*
X126531579Y-103951600D02*
X126531579Y-103551600D01*
X126531579Y-103551600D02*
X126598246Y-103418266D01*
X126598246Y-103418266D02*
X126664913Y-103351600D01*
X126664913Y-103351600D02*
X126798246Y-103284933D01*
X126798246Y-103284933D02*
X127064913Y-103284933D01*
X127064913Y-103284933D02*
X127198246Y-103351600D01*
X128331579Y-104151600D02*
X128198246Y-104218266D01*
X128198246Y-104218266D02*
X127931579Y-104218266D01*
X127931579Y-104218266D02*
X127798246Y-104151600D01*
X127798246Y-104151600D02*
X127731579Y-104018266D01*
X127731579Y-104018266D02*
X127731579Y-103484933D01*
X127731579Y-103484933D02*
X127798246Y-103351600D01*
X127798246Y-103351600D02*
X127931579Y-103284933D01*
X127931579Y-103284933D02*
X128198246Y-103284933D01*
X128198246Y-103284933D02*
X128331579Y-103351600D01*
X128331579Y-103351600D02*
X128398246Y-103484933D01*
X128398246Y-103484933D02*
X128398246Y-103618266D01*
X128398246Y-103618266D02*
X127731579Y-103751600D01*
X130064913Y-104218266D02*
X130064913Y-102818266D01*
X130064913Y-103351600D02*
X130198246Y-103284933D01*
X130198246Y-103284933D02*
X130464913Y-103284933D01*
X130464913Y-103284933D02*
X130598246Y-103351600D01*
X130598246Y-103351600D02*
X130664913Y-103418266D01*
X130664913Y-103418266D02*
X130731580Y-103551600D01*
X130731580Y-103551600D02*
X130731580Y-103951600D01*
X130731580Y-103951600D02*
X130664913Y-104084933D01*
X130664913Y-104084933D02*
X130598246Y-104151600D01*
X130598246Y-104151600D02*
X130464913Y-104218266D01*
X130464913Y-104218266D02*
X130198246Y-104218266D01*
X130198246Y-104218266D02*
X130064913Y-104151600D01*
X131931580Y-104218266D02*
X131931580Y-103484933D01*
X131931580Y-103484933D02*
X131864913Y-103351600D01*
X131864913Y-103351600D02*
X131731580Y-103284933D01*
X131731580Y-103284933D02*
X131464913Y-103284933D01*
X131464913Y-103284933D02*
X131331580Y-103351600D01*
X131931580Y-104151600D02*
X131798247Y-104218266D01*
X131798247Y-104218266D02*
X131464913Y-104218266D01*
X131464913Y-104218266D02*
X131331580Y-104151600D01*
X131331580Y-104151600D02*
X131264913Y-104018266D01*
X131264913Y-104018266D02*
X131264913Y-103884933D01*
X131264913Y-103884933D02*
X131331580Y-103751600D01*
X131331580Y-103751600D02*
X131464913Y-103684933D01*
X131464913Y-103684933D02*
X131798247Y-103684933D01*
X131798247Y-103684933D02*
X131931580Y-103618266D01*
X132398247Y-103284933D02*
X132931580Y-103284933D01*
X132598247Y-102818266D02*
X132598247Y-104018266D01*
X132598247Y-104018266D02*
X132664914Y-104151600D01*
X132664914Y-104151600D02*
X132798247Y-104218266D01*
X132798247Y-104218266D02*
X132931580Y-104218266D01*
X133198247Y-103284933D02*
X133731580Y-103284933D01*
X133398247Y-102818266D02*
X133398247Y-104018266D01*
X133398247Y-104018266D02*
X133464914Y-104151600D01*
X133464914Y-104151600D02*
X133598247Y-104218266D01*
X133598247Y-104218266D02*
X133731580Y-104218266D01*
X134731580Y-104151600D02*
X134598247Y-104218266D01*
X134598247Y-104218266D02*
X134331580Y-104218266D01*
X134331580Y-104218266D02*
X134198247Y-104151600D01*
X134198247Y-104151600D02*
X134131580Y-104018266D01*
X134131580Y-104018266D02*
X134131580Y-103484933D01*
X134131580Y-103484933D02*
X134198247Y-103351600D01*
X134198247Y-103351600D02*
X134331580Y-103284933D01*
X134331580Y-103284933D02*
X134598247Y-103284933D01*
X134598247Y-103284933D02*
X134731580Y-103351600D01*
X134731580Y-103351600D02*
X134798247Y-103484933D01*
X134798247Y-103484933D02*
X134798247Y-103618266D01*
X134798247Y-103618266D02*
X134131580Y-103751600D01*
X135398247Y-104218266D02*
X135398247Y-103284933D01*
X135398247Y-103551600D02*
X135464914Y-103418266D01*
X135464914Y-103418266D02*
X135531580Y-103351600D01*
X135531580Y-103351600D02*
X135664914Y-103284933D01*
X135664914Y-103284933D02*
X135798247Y-103284933D01*
X136264914Y-104218266D02*
X136264914Y-103284933D01*
X136264914Y-102818266D02*
X136198247Y-102884933D01*
X136198247Y-102884933D02*
X136264914Y-102951600D01*
X136264914Y-102951600D02*
X136331581Y-102884933D01*
X136331581Y-102884933D02*
X136264914Y-102818266D01*
X136264914Y-102818266D02*
X136264914Y-102951600D01*
X137464914Y-104151600D02*
X137331581Y-104218266D01*
X137331581Y-104218266D02*
X137064914Y-104218266D01*
X137064914Y-104218266D02*
X136931581Y-104151600D01*
X136931581Y-104151600D02*
X136864914Y-104018266D01*
X136864914Y-104018266D02*
X136864914Y-103484933D01*
X136864914Y-103484933D02*
X136931581Y-103351600D01*
X136931581Y-103351600D02*
X137064914Y-103284933D01*
X137064914Y-103284933D02*
X137331581Y-103284933D01*
X137331581Y-103284933D02*
X137464914Y-103351600D01*
X137464914Y-103351600D02*
X137531581Y-103484933D01*
X137531581Y-103484933D02*
X137531581Y-103618266D01*
X137531581Y-103618266D02*
X136864914Y-103751600D01*
X138064914Y-104151600D02*
X138198248Y-104218266D01*
X138198248Y-104218266D02*
X138464914Y-104218266D01*
X138464914Y-104218266D02*
X138598248Y-104151600D01*
X138598248Y-104151600D02*
X138664914Y-104018266D01*
X138664914Y-104018266D02*
X138664914Y-103951600D01*
X138664914Y-103951600D02*
X138598248Y-103818266D01*
X138598248Y-103818266D02*
X138464914Y-103751600D01*
X138464914Y-103751600D02*
X138264914Y-103751600D01*
X138264914Y-103751600D02*
X138131581Y-103684933D01*
X138131581Y-103684933D02*
X138064914Y-103551600D01*
X138064914Y-103551600D02*
X138064914Y-103484933D01*
X138064914Y-103484933D02*
X138131581Y-103351600D01*
X138131581Y-103351600D02*
X138264914Y-103284933D01*
X138264914Y-103284933D02*
X138464914Y-103284933D01*
X138464914Y-103284933D02*
X138598248Y-103351600D01*
X139331581Y-104151600D02*
X139331581Y-104218266D01*
X139331581Y-104218266D02*
X139264914Y-104351600D01*
X139264914Y-104351600D02*
X139198247Y-104418266D01*
X142064915Y-104218266D02*
X142064915Y-103284933D01*
X142064915Y-103551600D02*
X142131582Y-103418266D01*
X142131582Y-103418266D02*
X142198248Y-103351600D01*
X142198248Y-103351600D02*
X142331582Y-103284933D01*
X142331582Y-103284933D02*
X142464915Y-103284933D01*
X143464915Y-104151600D02*
X143331582Y-104218266D01*
X143331582Y-104218266D02*
X143064915Y-104218266D01*
X143064915Y-104218266D02*
X142931582Y-104151600D01*
X142931582Y-104151600D02*
X142864915Y-104018266D01*
X142864915Y-104018266D02*
X142864915Y-103484933D01*
X142864915Y-103484933D02*
X142931582Y-103351600D01*
X142931582Y-103351600D02*
X143064915Y-103284933D01*
X143064915Y-103284933D02*
X143331582Y-103284933D01*
X143331582Y-103284933D02*
X143464915Y-103351600D01*
X143464915Y-103351600D02*
X143531582Y-103484933D01*
X143531582Y-103484933D02*
X143531582Y-103618266D01*
X143531582Y-103618266D02*
X142864915Y-103751600D01*
X144131582Y-104218266D02*
X144131582Y-103284933D01*
X144131582Y-103418266D02*
X144198249Y-103351600D01*
X144198249Y-103351600D02*
X144331582Y-103284933D01*
X144331582Y-103284933D02*
X144531582Y-103284933D01*
X144531582Y-103284933D02*
X144664915Y-103351600D01*
X144664915Y-103351600D02*
X144731582Y-103484933D01*
X144731582Y-103484933D02*
X144731582Y-104218266D01*
X144731582Y-103484933D02*
X144798249Y-103351600D01*
X144798249Y-103351600D02*
X144931582Y-103284933D01*
X144931582Y-103284933D02*
X145131582Y-103284933D01*
X145131582Y-103284933D02*
X145264915Y-103351600D01*
X145264915Y-103351600D02*
X145331582Y-103484933D01*
X145331582Y-103484933D02*
X145331582Y-104218266D01*
X146198249Y-104218266D02*
X146064916Y-104151600D01*
X146064916Y-104151600D02*
X145998249Y-104084933D01*
X145998249Y-104084933D02*
X145931582Y-103951600D01*
X145931582Y-103951600D02*
X145931582Y-103551600D01*
X145931582Y-103551600D02*
X145998249Y-103418266D01*
X145998249Y-103418266D02*
X146064916Y-103351600D01*
X146064916Y-103351600D02*
X146198249Y-103284933D01*
X146198249Y-103284933D02*
X146398249Y-103284933D01*
X146398249Y-103284933D02*
X146531582Y-103351600D01*
X146531582Y-103351600D02*
X146598249Y-103418266D01*
X146598249Y-103418266D02*
X146664916Y-103551600D01*
X146664916Y-103551600D02*
X146664916Y-103951600D01*
X146664916Y-103951600D02*
X146598249Y-104084933D01*
X146598249Y-104084933D02*
X146531582Y-104151600D01*
X146531582Y-104151600D02*
X146398249Y-104218266D01*
X146398249Y-104218266D02*
X146198249Y-104218266D01*
X147131583Y-103284933D02*
X147464916Y-104218266D01*
X147464916Y-104218266D02*
X147798249Y-103284933D01*
X148864916Y-104151600D02*
X148731583Y-104218266D01*
X148731583Y-104218266D02*
X148464916Y-104218266D01*
X148464916Y-104218266D02*
X148331583Y-104151600D01*
X148331583Y-104151600D02*
X148264916Y-104018266D01*
X148264916Y-104018266D02*
X148264916Y-103484933D01*
X148264916Y-103484933D02*
X148331583Y-103351600D01*
X148331583Y-103351600D02*
X148464916Y-103284933D01*
X148464916Y-103284933D02*
X148731583Y-103284933D01*
X148731583Y-103284933D02*
X148864916Y-103351600D01*
X148864916Y-103351600D02*
X148931583Y-103484933D01*
X148931583Y-103484933D02*
X148931583Y-103618266D01*
X148931583Y-103618266D02*
X148264916Y-103751600D01*
X150398250Y-103284933D02*
X150931583Y-103284933D01*
X150598250Y-102818266D02*
X150598250Y-104018266D01*
X150598250Y-104018266D02*
X150664917Y-104151600D01*
X150664917Y-104151600D02*
X150798250Y-104218266D01*
X150798250Y-104218266D02*
X150931583Y-104218266D01*
X151398250Y-104218266D02*
X151398250Y-102818266D01*
X151998250Y-104218266D02*
X151998250Y-103484933D01*
X151998250Y-103484933D02*
X151931583Y-103351600D01*
X151931583Y-103351600D02*
X151798250Y-103284933D01*
X151798250Y-103284933D02*
X151598250Y-103284933D01*
X151598250Y-103284933D02*
X151464917Y-103351600D01*
X151464917Y-103351600D02*
X151398250Y-103418266D01*
X152664917Y-104218266D02*
X152664917Y-103284933D01*
X152664917Y-102818266D02*
X152598250Y-102884933D01*
X152598250Y-102884933D02*
X152664917Y-102951600D01*
X152664917Y-102951600D02*
X152731584Y-102884933D01*
X152731584Y-102884933D02*
X152664917Y-102818266D01*
X152664917Y-102818266D02*
X152664917Y-102951600D01*
X153264917Y-104151600D02*
X153398251Y-104218266D01*
X153398251Y-104218266D02*
X153664917Y-104218266D01*
X153664917Y-104218266D02*
X153798251Y-104151600D01*
X153798251Y-104151600D02*
X153864917Y-104018266D01*
X153864917Y-104018266D02*
X153864917Y-103951600D01*
X153864917Y-103951600D02*
X153798251Y-103818266D01*
X153798251Y-103818266D02*
X153664917Y-103751600D01*
X153664917Y-103751600D02*
X153464917Y-103751600D01*
X153464917Y-103751600D02*
X153331584Y-103684933D01*
X153331584Y-103684933D02*
X153264917Y-103551600D01*
X153264917Y-103551600D02*
X153264917Y-103484933D01*
X153264917Y-103484933D02*
X153331584Y-103351600D01*
X153331584Y-103351600D02*
X153464917Y-103284933D01*
X153464917Y-103284933D02*
X153664917Y-103284933D01*
X153664917Y-103284933D02*
X153798251Y-103351600D01*
X155531584Y-103284933D02*
X155531584Y-104684933D01*
X155531584Y-103351600D02*
X155664917Y-103284933D01*
X155664917Y-103284933D02*
X155931584Y-103284933D01*
X155931584Y-103284933D02*
X156064917Y-103351600D01*
X156064917Y-103351600D02*
X156131584Y-103418266D01*
X156131584Y-103418266D02*
X156198251Y-103551600D01*
X156198251Y-103551600D02*
X156198251Y-103951600D01*
X156198251Y-103951600D02*
X156131584Y-104084933D01*
X156131584Y-104084933D02*
X156064917Y-104151600D01*
X156064917Y-104151600D02*
X155931584Y-104218266D01*
X155931584Y-104218266D02*
X155664917Y-104218266D01*
X155664917Y-104218266D02*
X155531584Y-104151600D01*
X157398251Y-104218266D02*
X157398251Y-103484933D01*
X157398251Y-103484933D02*
X157331584Y-103351600D01*
X157331584Y-103351600D02*
X157198251Y-103284933D01*
X157198251Y-103284933D02*
X156931584Y-103284933D01*
X156931584Y-103284933D02*
X156798251Y-103351600D01*
X157398251Y-104151600D02*
X157264918Y-104218266D01*
X157264918Y-104218266D02*
X156931584Y-104218266D01*
X156931584Y-104218266D02*
X156798251Y-104151600D01*
X156798251Y-104151600D02*
X156731584Y-104018266D01*
X156731584Y-104018266D02*
X156731584Y-103884933D01*
X156731584Y-103884933D02*
X156798251Y-103751600D01*
X156798251Y-103751600D02*
X156931584Y-103684933D01*
X156931584Y-103684933D02*
X157264918Y-103684933D01*
X157264918Y-103684933D02*
X157398251Y-103618266D01*
X158064918Y-103284933D02*
X158064918Y-104218266D01*
X158064918Y-103418266D02*
X158131585Y-103351600D01*
X158131585Y-103351600D02*
X158264918Y-103284933D01*
X158264918Y-103284933D02*
X158464918Y-103284933D01*
X158464918Y-103284933D02*
X158598251Y-103351600D01*
X158598251Y-103351600D02*
X158664918Y-103484933D01*
X158664918Y-103484933D02*
X158664918Y-104218266D01*
X159864918Y-104151600D02*
X159731585Y-104218266D01*
X159731585Y-104218266D02*
X159464918Y-104218266D01*
X159464918Y-104218266D02*
X159331585Y-104151600D01*
X159331585Y-104151600D02*
X159264918Y-104018266D01*
X159264918Y-104018266D02*
X159264918Y-103484933D01*
X159264918Y-103484933D02*
X159331585Y-103351600D01*
X159331585Y-103351600D02*
X159464918Y-103284933D01*
X159464918Y-103284933D02*
X159731585Y-103284933D01*
X159731585Y-103284933D02*
X159864918Y-103351600D01*
X159864918Y-103351600D02*
X159931585Y-103484933D01*
X159931585Y-103484933D02*
X159931585Y-103618266D01*
X159931585Y-103618266D02*
X159264918Y-103751600D01*
X160731585Y-104218266D02*
X160598252Y-104151600D01*
X160598252Y-104151600D02*
X160531585Y-104018266D01*
X160531585Y-104018266D02*
X160531585Y-102818266D01*
D11*
X125547619Y-73804200D02*
X125904762Y-73923247D01*
X125904762Y-73923247D02*
X126500000Y-73923247D01*
X126500000Y-73923247D02*
X126738095Y-73804200D01*
X126738095Y-73804200D02*
X126857143Y-73685152D01*
X126857143Y-73685152D02*
X126976190Y-73447057D01*
X126976190Y-73447057D02*
X126976190Y-73208961D01*
X126976190Y-73208961D02*
X126857143Y-72970866D01*
X126857143Y-72970866D02*
X126738095Y-72851819D01*
X126738095Y-72851819D02*
X126500000Y-72732771D01*
X126500000Y-72732771D02*
X126023809Y-72613723D01*
X126023809Y-72613723D02*
X125785714Y-72494676D01*
X125785714Y-72494676D02*
X125666667Y-72375628D01*
X125666667Y-72375628D02*
X125547619Y-72137533D01*
X125547619Y-72137533D02*
X125547619Y-71899438D01*
X125547619Y-71899438D02*
X125666667Y-71661342D01*
X125666667Y-71661342D02*
X125785714Y-71542295D01*
X125785714Y-71542295D02*
X126023809Y-71423247D01*
X126023809Y-71423247D02*
X126619048Y-71423247D01*
X126619048Y-71423247D02*
X126976190Y-71542295D01*
X129000000Y-73804200D02*
X128761904Y-73923247D01*
X128761904Y-73923247D02*
X128285714Y-73923247D01*
X128285714Y-73923247D02*
X128047619Y-73804200D01*
X128047619Y-73804200D02*
X127928571Y-73566104D01*
X127928571Y-73566104D02*
X127928571Y-72613723D01*
X127928571Y-72613723D02*
X128047619Y-72375628D01*
X128047619Y-72375628D02*
X128285714Y-72256580D01*
X128285714Y-72256580D02*
X128761904Y-72256580D01*
X128761904Y-72256580D02*
X129000000Y-72375628D01*
X129000000Y-72375628D02*
X129119047Y-72613723D01*
X129119047Y-72613723D02*
X129119047Y-72851819D01*
X129119047Y-72851819D02*
X127928571Y-73089914D01*
X130190476Y-73923247D02*
X130190476Y-72256580D01*
X130190476Y-72732771D02*
X130309523Y-72494676D01*
X130309523Y-72494676D02*
X130428571Y-72375628D01*
X130428571Y-72375628D02*
X130666666Y-72256580D01*
X130666666Y-72256580D02*
X130904761Y-72256580D01*
X131499999Y-72256580D02*
X132095237Y-73923247D01*
X132095237Y-73923247D02*
X132690476Y-72256580D01*
X133999999Y-73923247D02*
X133761904Y-73804200D01*
X133761904Y-73804200D02*
X133642857Y-73685152D01*
X133642857Y-73685152D02*
X133523809Y-73447057D01*
X133523809Y-73447057D02*
X133523809Y-72732771D01*
X133523809Y-72732771D02*
X133642857Y-72494676D01*
X133642857Y-72494676D02*
X133761904Y-72375628D01*
X133761904Y-72375628D02*
X133999999Y-72256580D01*
X133999999Y-72256580D02*
X134357142Y-72256580D01*
X134357142Y-72256580D02*
X134595238Y-72375628D01*
X134595238Y-72375628D02*
X134714285Y-72494676D01*
X134714285Y-72494676D02*
X134833333Y-72732771D01*
X134833333Y-72732771D02*
X134833333Y-73447057D01*
X134833333Y-73447057D02*
X134714285Y-73685152D01*
X134714285Y-73685152D02*
X134595238Y-73804200D01*
X134595238Y-73804200D02*
X134357142Y-73923247D01*
X134357142Y-73923247D02*
X133999999Y-73923247D01*
X138880952Y-73804200D02*
X138642857Y-73923247D01*
X138642857Y-73923247D02*
X138166666Y-73923247D01*
X138166666Y-73923247D02*
X137928571Y-73804200D01*
X137928571Y-73804200D02*
X137809524Y-73685152D01*
X137809524Y-73685152D02*
X137690476Y-73447057D01*
X137690476Y-73447057D02*
X137690476Y-72732771D01*
X137690476Y-72732771D02*
X137809524Y-72494676D01*
X137809524Y-72494676D02*
X137928571Y-72375628D01*
X137928571Y-72375628D02*
X138166666Y-72256580D01*
X138166666Y-72256580D02*
X138642857Y-72256580D01*
X138642857Y-72256580D02*
X138880952Y-72375628D01*
X140309523Y-73923247D02*
X140071428Y-73804200D01*
X140071428Y-73804200D02*
X139952381Y-73685152D01*
X139952381Y-73685152D02*
X139833333Y-73447057D01*
X139833333Y-73447057D02*
X139833333Y-72732771D01*
X139833333Y-72732771D02*
X139952381Y-72494676D01*
X139952381Y-72494676D02*
X140071428Y-72375628D01*
X140071428Y-72375628D02*
X140309523Y-72256580D01*
X140309523Y-72256580D02*
X140666666Y-72256580D01*
X140666666Y-72256580D02*
X140904762Y-72375628D01*
X140904762Y-72375628D02*
X141023809Y-72494676D01*
X141023809Y-72494676D02*
X141142857Y-72732771D01*
X141142857Y-72732771D02*
X141142857Y-73447057D01*
X141142857Y-73447057D02*
X141023809Y-73685152D01*
X141023809Y-73685152D02*
X140904762Y-73804200D01*
X140904762Y-73804200D02*
X140666666Y-73923247D01*
X140666666Y-73923247D02*
X140309523Y-73923247D01*
X142214286Y-72256580D02*
X142214286Y-73923247D01*
X142214286Y-72494676D02*
X142333333Y-72375628D01*
X142333333Y-72375628D02*
X142571428Y-72256580D01*
X142571428Y-72256580D02*
X142928571Y-72256580D01*
X142928571Y-72256580D02*
X143166667Y-72375628D01*
X143166667Y-72375628D02*
X143285714Y-72613723D01*
X143285714Y-72613723D02*
X143285714Y-73923247D01*
X144119048Y-72256580D02*
X145071429Y-72256580D01*
X144476191Y-71423247D02*
X144476191Y-73566104D01*
X144476191Y-73566104D02*
X144595238Y-73804200D01*
X144595238Y-73804200D02*
X144833333Y-73923247D01*
X144833333Y-73923247D02*
X145071429Y-73923247D01*
X145904762Y-73923247D02*
X145904762Y-72256580D01*
X145904762Y-72732771D02*
X146023809Y-72494676D01*
X146023809Y-72494676D02*
X146142857Y-72375628D01*
X146142857Y-72375628D02*
X146380952Y-72256580D01*
X146380952Y-72256580D02*
X146619047Y-72256580D01*
X147809523Y-73923247D02*
X147571428Y-73804200D01*
X147571428Y-73804200D02*
X147452381Y-73685152D01*
X147452381Y-73685152D02*
X147333333Y-73447057D01*
X147333333Y-73447057D02*
X147333333Y-72732771D01*
X147333333Y-72732771D02*
X147452381Y-72494676D01*
X147452381Y-72494676D02*
X147571428Y-72375628D01*
X147571428Y-72375628D02*
X147809523Y-72256580D01*
X147809523Y-72256580D02*
X148166666Y-72256580D01*
X148166666Y-72256580D02*
X148404762Y-72375628D01*
X148404762Y-72375628D02*
X148523809Y-72494676D01*
X148523809Y-72494676D02*
X148642857Y-72732771D01*
X148642857Y-72732771D02*
X148642857Y-73447057D01*
X148642857Y-73447057D02*
X148523809Y-73685152D01*
X148523809Y-73685152D02*
X148404762Y-73804200D01*
X148404762Y-73804200D02*
X148166666Y-73923247D01*
X148166666Y-73923247D02*
X147809523Y-73923247D01*
X150071428Y-73923247D02*
X149833333Y-73804200D01*
X149833333Y-73804200D02*
X149714286Y-73566104D01*
X149714286Y-73566104D02*
X149714286Y-71423247D01*
X151380952Y-73923247D02*
X151142857Y-73804200D01*
X151142857Y-73804200D02*
X151023810Y-73566104D01*
X151023810Y-73566104D02*
X151023810Y-71423247D01*
X153285715Y-73804200D02*
X153047619Y-73923247D01*
X153047619Y-73923247D02*
X152571429Y-73923247D01*
X152571429Y-73923247D02*
X152333334Y-73804200D01*
X152333334Y-73804200D02*
X152214286Y-73566104D01*
X152214286Y-73566104D02*
X152214286Y-72613723D01*
X152214286Y-72613723D02*
X152333334Y-72375628D01*
X152333334Y-72375628D02*
X152571429Y-72256580D01*
X152571429Y-72256580D02*
X153047619Y-72256580D01*
X153047619Y-72256580D02*
X153285715Y-72375628D01*
X153285715Y-72375628D02*
X153404762Y-72613723D01*
X153404762Y-72613723D02*
X153404762Y-72851819D01*
X153404762Y-72851819D02*
X152214286Y-73089914D01*
X154476191Y-73923247D02*
X154476191Y-72256580D01*
X154476191Y-72732771D02*
X154595238Y-72494676D01*
X154595238Y-72494676D02*
X154714286Y-72375628D01*
X154714286Y-72375628D02*
X154952381Y-72256580D01*
X154952381Y-72256580D02*
X155190476Y-72256580D01*
D10*
X127535715Y-79234600D02*
X127678572Y-79306028D01*
X127678572Y-79306028D02*
X127964286Y-79306028D01*
X127964286Y-79306028D02*
X128107143Y-79234600D01*
X128107143Y-79234600D02*
X128178572Y-79091742D01*
X128178572Y-79091742D02*
X128178572Y-79020314D01*
X128178572Y-79020314D02*
X128107143Y-78877457D01*
X128107143Y-78877457D02*
X127964286Y-78806028D01*
X127964286Y-78806028D02*
X127750001Y-78806028D01*
X127750001Y-78806028D02*
X127607143Y-78734600D01*
X127607143Y-78734600D02*
X127535715Y-78591742D01*
X127535715Y-78591742D02*
X127535715Y-78520314D01*
X127535715Y-78520314D02*
X127607143Y-78377457D01*
X127607143Y-78377457D02*
X127750001Y-78306028D01*
X127750001Y-78306028D02*
X127964286Y-78306028D01*
X127964286Y-78306028D02*
X128107143Y-78377457D01*
X129392858Y-79234600D02*
X129250001Y-79306028D01*
X129250001Y-79306028D02*
X128964287Y-79306028D01*
X128964287Y-79306028D02*
X128821429Y-79234600D01*
X128821429Y-79234600D02*
X128750001Y-79091742D01*
X128750001Y-79091742D02*
X128750001Y-78520314D01*
X128750001Y-78520314D02*
X128821429Y-78377457D01*
X128821429Y-78377457D02*
X128964287Y-78306028D01*
X128964287Y-78306028D02*
X129250001Y-78306028D01*
X129250001Y-78306028D02*
X129392858Y-78377457D01*
X129392858Y-78377457D02*
X129464287Y-78520314D01*
X129464287Y-78520314D02*
X129464287Y-78663171D01*
X129464287Y-78663171D02*
X128750001Y-78806028D01*
X130107143Y-79306028D02*
X130107143Y-78306028D01*
X130107143Y-78591742D02*
X130178572Y-78448885D01*
X130178572Y-78448885D02*
X130250001Y-78377457D01*
X130250001Y-78377457D02*
X130392858Y-78306028D01*
X130392858Y-78306028D02*
X130535715Y-78306028D01*
X130892857Y-78306028D02*
X131250000Y-79306028D01*
X131250000Y-79306028D02*
X131607143Y-78306028D01*
X132392857Y-79306028D02*
X132250000Y-79234600D01*
X132250000Y-79234600D02*
X132178571Y-79163171D01*
X132178571Y-79163171D02*
X132107143Y-79020314D01*
X132107143Y-79020314D02*
X132107143Y-78591742D01*
X132107143Y-78591742D02*
X132178571Y-78448885D01*
X132178571Y-78448885D02*
X132250000Y-78377457D01*
X132250000Y-78377457D02*
X132392857Y-78306028D01*
X132392857Y-78306028D02*
X132607143Y-78306028D01*
X132607143Y-78306028D02*
X132750000Y-78377457D01*
X132750000Y-78377457D02*
X132821429Y-78448885D01*
X132821429Y-78448885D02*
X132892857Y-78591742D01*
X132892857Y-78591742D02*
X132892857Y-79020314D01*
X132892857Y-79020314D02*
X132821429Y-79163171D01*
X132821429Y-79163171D02*
X132750000Y-79234600D01*
X132750000Y-79234600D02*
X132607143Y-79306028D01*
X132607143Y-79306028D02*
X132392857Y-79306028D01*
X133178572Y-79448885D02*
X134321429Y-79448885D01*
X135321429Y-79234600D02*
X135178571Y-79306028D01*
X135178571Y-79306028D02*
X134892857Y-79306028D01*
X134892857Y-79306028D02*
X134750000Y-79234600D01*
X134750000Y-79234600D02*
X134678571Y-79163171D01*
X134678571Y-79163171D02*
X134607143Y-79020314D01*
X134607143Y-79020314D02*
X134607143Y-78591742D01*
X134607143Y-78591742D02*
X134678571Y-78448885D01*
X134678571Y-78448885D02*
X134750000Y-78377457D01*
X134750000Y-78377457D02*
X134892857Y-78306028D01*
X134892857Y-78306028D02*
X135178571Y-78306028D01*
X135178571Y-78306028D02*
X135321429Y-78377457D01*
X136178571Y-79306028D02*
X136035714Y-79234600D01*
X136035714Y-79234600D02*
X135964285Y-79163171D01*
X135964285Y-79163171D02*
X135892857Y-79020314D01*
X135892857Y-79020314D02*
X135892857Y-78591742D01*
X135892857Y-78591742D02*
X135964285Y-78448885D01*
X135964285Y-78448885D02*
X136035714Y-78377457D01*
X136035714Y-78377457D02*
X136178571Y-78306028D01*
X136178571Y-78306028D02*
X136392857Y-78306028D01*
X136392857Y-78306028D02*
X136535714Y-78377457D01*
X136535714Y-78377457D02*
X136607143Y-78448885D01*
X136607143Y-78448885D02*
X136678571Y-78591742D01*
X136678571Y-78591742D02*
X136678571Y-79020314D01*
X136678571Y-79020314D02*
X136607143Y-79163171D01*
X136607143Y-79163171D02*
X136535714Y-79234600D01*
X136535714Y-79234600D02*
X136392857Y-79306028D01*
X136392857Y-79306028D02*
X136178571Y-79306028D01*
X137321428Y-78306028D02*
X137321428Y-79306028D01*
X137321428Y-78448885D02*
X137392857Y-78377457D01*
X137392857Y-78377457D02*
X137535714Y-78306028D01*
X137535714Y-78306028D02*
X137750000Y-78306028D01*
X137750000Y-78306028D02*
X137892857Y-78377457D01*
X137892857Y-78377457D02*
X137964286Y-78520314D01*
X137964286Y-78520314D02*
X137964286Y-79306028D01*
X138464286Y-78306028D02*
X139035714Y-78306028D01*
X138678571Y-77806028D02*
X138678571Y-79091742D01*
X138678571Y-79091742D02*
X138750000Y-79234600D01*
X138750000Y-79234600D02*
X138892857Y-79306028D01*
X138892857Y-79306028D02*
X139035714Y-79306028D01*
X139535714Y-79306028D02*
X139535714Y-78306028D01*
X139535714Y-78591742D02*
X139607143Y-78448885D01*
X139607143Y-78448885D02*
X139678572Y-78377457D01*
X139678572Y-78377457D02*
X139821429Y-78306028D01*
X139821429Y-78306028D02*
X139964286Y-78306028D01*
X140678571Y-79306028D02*
X140535714Y-79234600D01*
X140535714Y-79234600D02*
X140464285Y-79163171D01*
X140464285Y-79163171D02*
X140392857Y-79020314D01*
X140392857Y-79020314D02*
X140392857Y-78591742D01*
X140392857Y-78591742D02*
X140464285Y-78448885D01*
X140464285Y-78448885D02*
X140535714Y-78377457D01*
X140535714Y-78377457D02*
X140678571Y-78306028D01*
X140678571Y-78306028D02*
X140892857Y-78306028D01*
X140892857Y-78306028D02*
X141035714Y-78377457D01*
X141035714Y-78377457D02*
X141107143Y-78448885D01*
X141107143Y-78448885D02*
X141178571Y-78591742D01*
X141178571Y-78591742D02*
X141178571Y-79020314D01*
X141178571Y-79020314D02*
X141107143Y-79163171D01*
X141107143Y-79163171D02*
X141035714Y-79234600D01*
X141035714Y-79234600D02*
X140892857Y-79306028D01*
X140892857Y-79306028D02*
X140678571Y-79306028D01*
X142035714Y-79306028D02*
X141892857Y-79234600D01*
X141892857Y-79234600D02*
X141821428Y-79091742D01*
X141821428Y-79091742D02*
X141821428Y-77806028D01*
X142821428Y-79306028D02*
X142678571Y-79234600D01*
X142678571Y-79234600D02*
X142607142Y-79091742D01*
X142607142Y-79091742D02*
X142607142Y-77806028D01*
X143964285Y-79234600D02*
X143821428Y-79306028D01*
X143821428Y-79306028D02*
X143535714Y-79306028D01*
X143535714Y-79306028D02*
X143392856Y-79234600D01*
X143392856Y-79234600D02*
X143321428Y-79091742D01*
X143321428Y-79091742D02*
X143321428Y-78520314D01*
X143321428Y-78520314D02*
X143392856Y-78377457D01*
X143392856Y-78377457D02*
X143535714Y-78306028D01*
X143535714Y-78306028D02*
X143821428Y-78306028D01*
X143821428Y-78306028D02*
X143964285Y-78377457D01*
X143964285Y-78377457D02*
X144035714Y-78520314D01*
X144035714Y-78520314D02*
X144035714Y-78663171D01*
X144035714Y-78663171D02*
X143321428Y-78806028D01*
X144678570Y-79306028D02*
X144678570Y-78306028D01*
X144678570Y-78591742D02*
X144749999Y-78448885D01*
X144749999Y-78448885D02*
X144821428Y-78377457D01*
X144821428Y-78377457D02*
X144964285Y-78306028D01*
X144964285Y-78306028D02*
X145107142Y-78306028D01*
X145607141Y-79163171D02*
X145678570Y-79234600D01*
X145678570Y-79234600D02*
X145607141Y-79306028D01*
X145607141Y-79306028D02*
X145535713Y-79234600D01*
X145535713Y-79234600D02*
X145607141Y-79163171D01*
X145607141Y-79163171D02*
X145607141Y-79306028D01*
X146321427Y-79306028D02*
X146321427Y-78306028D01*
X146321427Y-78591742D02*
X146392856Y-78448885D01*
X146392856Y-78448885D02*
X146464285Y-78377457D01*
X146464285Y-78377457D02*
X146607142Y-78306028D01*
X146607142Y-78306028D02*
X146749999Y-78306028D01*
X147035713Y-78306028D02*
X147607141Y-78306028D01*
X147249998Y-77806028D02*
X147249998Y-79091742D01*
X147249998Y-79091742D02*
X147321427Y-79234600D01*
X147321427Y-79234600D02*
X147464284Y-79306028D01*
X147464284Y-79306028D02*
X147607141Y-79306028D01*
X147892856Y-78306028D02*
X148464284Y-78306028D01*
X148107141Y-79306028D02*
X148107141Y-78020314D01*
X148107141Y-78020314D02*
X148178570Y-77877457D01*
X148178570Y-77877457D02*
X148321427Y-77806028D01*
X148321427Y-77806028D02*
X148464284Y-77806028D01*
X149607142Y-79306028D02*
X149607142Y-77806028D01*
X149607142Y-79234600D02*
X149464284Y-79306028D01*
X149464284Y-79306028D02*
X149178570Y-79306028D01*
X149178570Y-79306028D02*
X149035713Y-79234600D01*
X149035713Y-79234600D02*
X148964284Y-79163171D01*
X148964284Y-79163171D02*
X148892856Y-79020314D01*
X148892856Y-79020314D02*
X148892856Y-78591742D01*
X148892856Y-78591742D02*
X148964284Y-78448885D01*
X148964284Y-78448885D02*
X149035713Y-78377457D01*
X149035713Y-78377457D02*
X149178570Y-78306028D01*
X149178570Y-78306028D02*
X149464284Y-78306028D01*
X149464284Y-78306028D02*
X149607142Y-78377457D01*
X150321427Y-79163171D02*
X150392856Y-79234600D01*
X150392856Y-79234600D02*
X150321427Y-79306028D01*
X150321427Y-79306028D02*
X150249999Y-79234600D01*
X150249999Y-79234600D02*
X150321427Y-79163171D01*
X150321427Y-79163171D02*
X150321427Y-79306028D01*
X151035713Y-79306028D02*
X151035713Y-78306028D01*
X151035713Y-77806028D02*
X150964285Y-77877457D01*
X150964285Y-77877457D02*
X151035713Y-77948885D01*
X151035713Y-77948885D02*
X151107142Y-77877457D01*
X151107142Y-77877457D02*
X151035713Y-77806028D01*
X151035713Y-77806028D02*
X151035713Y-77948885D01*
X151964285Y-79306028D02*
X151821428Y-79234600D01*
X151821428Y-79234600D02*
X151749999Y-79163171D01*
X151749999Y-79163171D02*
X151678571Y-79020314D01*
X151678571Y-79020314D02*
X151678571Y-78591742D01*
X151678571Y-78591742D02*
X151749999Y-78448885D01*
X151749999Y-78448885D02*
X151821428Y-78377457D01*
X151821428Y-78377457D02*
X151964285Y-78306028D01*
X151964285Y-78306028D02*
X152178571Y-78306028D01*
X152178571Y-78306028D02*
X152321428Y-78377457D01*
X152321428Y-78377457D02*
X152392857Y-78448885D01*
X152392857Y-78448885D02*
X152464285Y-78591742D01*
X152464285Y-78591742D02*
X152464285Y-79020314D01*
X152464285Y-79020314D02*
X152392857Y-79163171D01*
X152392857Y-79163171D02*
X152321428Y-79234600D01*
X152321428Y-79234600D02*
X152178571Y-79306028D01*
X152178571Y-79306028D02*
X151964285Y-79306028D01*
%TO.C,G\u002A\u002A\u002A*%
G36*
X133092033Y-68869515D02*
G01*
X132901386Y-68869515D01*
X132901386Y-68209584D01*
X132549423Y-68209584D01*
X132549423Y-68048267D01*
X133092033Y-68048267D01*
X133092033Y-68869515D01*
G37*
G36*
X144780596Y-67663770D02*
G01*
X144826170Y-67694186D01*
X144853784Y-67737607D01*
X144860510Y-67788083D01*
X144843417Y-67839662D01*
X144824511Y-67864552D01*
X144777966Y-67894542D01*
X144721264Y-67903630D01*
X144664879Y-67891762D01*
X144625489Y-67865620D01*
X144594449Y-67817389D01*
X144588131Y-67765762D01*
X144603650Y-67717248D01*
X144638122Y-67678358D01*
X144688663Y-67655604D01*
X144719994Y-67652309D01*
X144780596Y-67663770D01*
G37*
G36*
X144835365Y-68455225D02*
G01*
X144831467Y-68862182D01*
X144742874Y-68866468D01*
X144694198Y-68867146D01*
X144657916Y-68864548D01*
X144643885Y-68860358D01*
X144640843Y-68843253D01*
X144638152Y-68801204D01*
X144635951Y-68738597D01*
X144634376Y-68659816D01*
X144633567Y-68569249D01*
X144633488Y-68529772D01*
X144633488Y-68209584D01*
X144296190Y-68209584D01*
X144296190Y-68048267D01*
X144839263Y-68048267D01*
X144835365Y-68455225D01*
G37*
G36*
X133051567Y-67664436D02*
G01*
X133095593Y-67698186D01*
X133118806Y-67749614D01*
X133121363Y-67776963D01*
X133108962Y-67835196D01*
X133073782Y-67876726D01*
X133018860Y-67898770D01*
X132985267Y-67901616D01*
X132935377Y-67896452D01*
X132899958Y-67877572D01*
X132886344Y-67864552D01*
X132855931Y-67814710D01*
X132850835Y-67762926D01*
X132868129Y-67715153D01*
X132904880Y-67677339D01*
X132958158Y-67655436D01*
X132990861Y-67652309D01*
X133051567Y-67664436D01*
G37*
G36*
X134939839Y-68650871D02*
G01*
X134975835Y-68686867D01*
X135020022Y-68712765D01*
X135079849Y-68723840D01*
X135145026Y-68718978D01*
X135179748Y-68708983D01*
X135202329Y-68702890D01*
X135216992Y-68710191D01*
X135230042Y-68736592D01*
X135239363Y-68762924D01*
X135252750Y-68802987D01*
X135261092Y-68829437D01*
X135262472Y-68834896D01*
X135249723Y-68840977D01*
X135216902Y-68852232D01*
X135186484Y-68861614D01*
X135105569Y-68877774D01*
X135019446Y-68882175D01*
X134941641Y-68874443D01*
X134919371Y-68868951D01*
X134880278Y-68850212D01*
X134839240Y-68820627D01*
X134833240Y-68815217D01*
X134808194Y-68790473D01*
X134788215Y-68766068D01*
X134772680Y-68738421D01*
X134760965Y-68703947D01*
X134752445Y-68659064D01*
X134746496Y-68600187D01*
X134742494Y-68523734D01*
X134739815Y-68426121D01*
X134737834Y-68303764D01*
X134737319Y-68264578D01*
X134732110Y-67857621D01*
X134470555Y-67857621D01*
X134470555Y-67696304D01*
X134939839Y-67696304D01*
X134939839Y-68650871D01*
G37*
G36*
X140091188Y-68043008D02*
G01*
X140114366Y-68049676D01*
X140137666Y-68058330D01*
X140150326Y-68068527D01*
X140153208Y-68086847D01*
X140147176Y-68119874D01*
X140133092Y-68174190D01*
X140131484Y-68180254D01*
X140125077Y-68198809D01*
X140113649Y-68209349D01*
X140090491Y-68213636D01*
X140048889Y-68213434D01*
X140011206Y-68211842D01*
X139928243Y-68212878D01*
X139863204Y-68226888D01*
X139806343Y-68257118D01*
X139759737Y-68295582D01*
X139732737Y-68322370D01*
X139712904Y-68348529D01*
X139698945Y-68379233D01*
X139689565Y-68419656D01*
X139683470Y-68474971D01*
X139679364Y-68550352D01*
X139676675Y-68627540D01*
X139669342Y-68862182D01*
X139570353Y-68866518D01*
X139471363Y-68870855D01*
X139471363Y-68048267D01*
X139550311Y-68048267D01*
X139597264Y-68050710D01*
X139625965Y-68061844D01*
X139640870Y-68087382D01*
X139646435Y-68133036D01*
X139647144Y-68172370D01*
X139647345Y-68230479D01*
X139717004Y-68162133D01*
X139765366Y-68120304D01*
X139818081Y-68083116D01*
X139852656Y-68064017D01*
X139927764Y-68041624D01*
X140011987Y-68034363D01*
X140091188Y-68043008D01*
G37*
G36*
X137022088Y-68045882D02*
G01*
X137092169Y-68081361D01*
X137148135Y-68138259D01*
X137168151Y-68171999D01*
X137180120Y-68197370D01*
X137189098Y-68221604D01*
X137195525Y-68249309D01*
X137199846Y-68285094D01*
X137202504Y-68333569D01*
X137203942Y-68399343D01*
X137204602Y-68487024D01*
X137204813Y-68553293D01*
X137205601Y-68862182D01*
X137106611Y-68866518D01*
X137007622Y-68870855D01*
X137007405Y-68587881D01*
X137006515Y-68472672D01*
X137003961Y-68384671D01*
X136999620Y-68321797D01*
X136993371Y-68281966D01*
X136988645Y-68268244D01*
X136952042Y-68224655D01*
X136900730Y-68202590D01*
X136840034Y-68202149D01*
X136775278Y-68223433D01*
X136715732Y-68263105D01*
X136655659Y-68314525D01*
X136655659Y-68869515D01*
X136465012Y-68869515D01*
X136465012Y-68046735D01*
X136542004Y-68051167D01*
X136618996Y-68055600D01*
X136623547Y-68110594D01*
X136628359Y-68145956D01*
X136634581Y-68164689D01*
X136636095Y-68165588D01*
X136651281Y-68156989D01*
X136679528Y-68135495D01*
X136690204Y-68126658D01*
X136771951Y-68072211D01*
X136857500Y-68040882D01*
X136942372Y-68032248D01*
X137022088Y-68045882D01*
G37*
G36*
X142769832Y-68041763D02*
G01*
X142869018Y-68071820D01*
X142954084Y-68125138D01*
X143021977Y-68199327D01*
X143069644Y-68291999D01*
X143090661Y-68374566D01*
X143096536Y-68489475D01*
X143078491Y-68595986D01*
X143038463Y-68690564D01*
X142978387Y-68769678D01*
X142900198Y-68829792D01*
X142823349Y-68862603D01*
X142732085Y-68879799D01*
X142638510Y-68880266D01*
X142571053Y-68868209D01*
X142493689Y-68833272D01*
X142419772Y-68777755D01*
X142359174Y-68709693D01*
X142340992Y-68680963D01*
X142308345Y-68599188D01*
X142290340Y-68503500D01*
X142289454Y-68458891D01*
X142488066Y-68458891D01*
X142497538Y-68555580D01*
X142525629Y-68631388D01*
X142571851Y-68685142D01*
X142586529Y-68695210D01*
X142649741Y-68718171D01*
X142720453Y-68719598D01*
X142786324Y-68699552D01*
X142795969Y-68694127D01*
X142844232Y-68654187D01*
X142875377Y-68601163D01*
X142891529Y-68530009D01*
X142895088Y-68458891D01*
X142885756Y-68361240D01*
X142858091Y-68285460D01*
X142812586Y-68232187D01*
X142749734Y-68202057D01*
X142690358Y-68195028D01*
X142616865Y-68207571D01*
X142558851Y-68244246D01*
X142517411Y-68303625D01*
X142493640Y-68384279D01*
X142488066Y-68458891D01*
X142289454Y-68458891D01*
X142288407Y-68406175D01*
X142300307Y-68331930D01*
X142341012Y-68234848D01*
X142404310Y-68153459D01*
X142486229Y-68091018D01*
X142582799Y-68050781D01*
X142659581Y-68037354D01*
X142769832Y-68041763D01*
G37*
G36*
X143680254Y-68048267D02*
G01*
X144046883Y-68048267D01*
X144046883Y-68209584D01*
X143680254Y-68209584D01*
X143680254Y-68400701D01*
X143682260Y-68504460D01*
X143688856Y-68582857D01*
X143700907Y-68639623D01*
X143719281Y-68678491D01*
X143744843Y-68703191D01*
X143751374Y-68707018D01*
X143786592Y-68716732D01*
X143840194Y-68721721D01*
X143901601Y-68721871D01*
X143960231Y-68717071D01*
X143997934Y-68709619D01*
X144026249Y-68703027D01*
X144042121Y-68708477D01*
X144052700Y-68732041D01*
X144060923Y-68763121D01*
X144068578Y-68804785D01*
X144068779Y-68834138D01*
X144065973Y-68840793D01*
X144032673Y-68857481D01*
X143978055Y-68870003D01*
X143909891Y-68877938D01*
X143835954Y-68880863D01*
X143764015Y-68878356D01*
X143701848Y-68869994D01*
X143672922Y-68862150D01*
X143607758Y-68825776D01*
X143551280Y-68770028D01*
X143512401Y-68704393D01*
X143505426Y-68683919D01*
X143499678Y-68648590D01*
X143494866Y-68591179D01*
X143491421Y-68518932D01*
X143489771Y-68439092D01*
X143489690Y-68418562D01*
X143489608Y-68209584D01*
X143269631Y-68209584D01*
X143269631Y-68066722D01*
X143375854Y-68056255D01*
X143429315Y-68048918D01*
X143470888Y-68039370D01*
X143492273Y-68029565D01*
X143492950Y-68028697D01*
X143500468Y-68003181D01*
X143504153Y-67964041D01*
X143504210Y-67960277D01*
X143507091Y-67908562D01*
X143513507Y-67855045D01*
X143513686Y-67853954D01*
X143522776Y-67798960D01*
X143680254Y-67798960D01*
X143680254Y-68048267D01*
G37*
G36*
X145711375Y-68041070D02*
G01*
X145779473Y-68042299D01*
X145828243Y-68047099D01*
X145867640Y-68057388D01*
X145907620Y-68075082D01*
X145919315Y-68081120D01*
X145962055Y-68105236D01*
X145993554Y-68126066D01*
X146004666Y-68136239D01*
X146001781Y-68155555D01*
X145983959Y-68187829D01*
X145969289Y-68207975D01*
X145924515Y-68264506D01*
X145855788Y-68229712D01*
X145769373Y-68199788D01*
X145685871Y-68195993D01*
X145609381Y-68215914D01*
X145544005Y-68257137D01*
X145493842Y-68317249D01*
X145462993Y-68393835D01*
X145454976Y-68465665D01*
X145467776Y-68550809D01*
X145502999Y-68620938D01*
X145556781Y-68674044D01*
X145625260Y-68708122D01*
X145704570Y-68721165D01*
X145790849Y-68711168D01*
X145870289Y-68681305D01*
X145952678Y-68639747D01*
X145990589Y-68697035D01*
X146011489Y-68733023D01*
X146016425Y-68760011D01*
X146002530Y-68783135D01*
X145966937Y-68807530D01*
X145913538Y-68835035D01*
X145818593Y-68867710D01*
X145712528Y-68881563D01*
X145606787Y-68875927D01*
X145531066Y-68857280D01*
X145432508Y-68808908D01*
X145354474Y-68740467D01*
X145301193Y-68663053D01*
X145278225Y-68617090D01*
X145264978Y-68576228D01*
X145258869Y-68528876D01*
X145257320Y-68466224D01*
X145267763Y-68352414D01*
X145300648Y-68256839D01*
X145357295Y-68177380D01*
X145439028Y-68111919D01*
X145498730Y-68079396D01*
X145544409Y-68059837D01*
X145587170Y-68048191D01*
X145637504Y-68042565D01*
X145705900Y-68041069D01*
X145711375Y-68041070D01*
G37*
G36*
X140839485Y-68047967D02*
G01*
X140929722Y-68083166D01*
X141009450Y-68139107D01*
X141074117Y-68214695D01*
X141113512Y-68292687D01*
X141139933Y-68400667D01*
X141140528Y-68508321D01*
X141116948Y-68611022D01*
X141070846Y-68704145D01*
X141003872Y-68783064D01*
X140917678Y-68843153D01*
X140916803Y-68843603D01*
X140850809Y-68866273D01*
X140769539Y-68878202D01*
X140685259Y-68878734D01*
X140610234Y-68867213D01*
X140590667Y-68861052D01*
X140498762Y-68812306D01*
X140424818Y-68742122D01*
X140370914Y-68653717D01*
X140339129Y-68550312D01*
X140331021Y-68458891D01*
X140332764Y-68440727D01*
X140529047Y-68440727D01*
X140533907Y-68520904D01*
X140554707Y-68595200D01*
X140591154Y-68656797D01*
X140632722Y-68693175D01*
X140697293Y-68717553D01*
X140767573Y-68720053D01*
X140831781Y-68700425D01*
X140836935Y-68697520D01*
X140883197Y-68654672D01*
X140915496Y-68593446D01*
X140933872Y-68520437D01*
X140938366Y-68442242D01*
X140929019Y-68365457D01*
X140905872Y-68296677D01*
X140868966Y-68242498D01*
X140833944Y-68216256D01*
X140780183Y-68200192D01*
X140717479Y-68198235D01*
X140657810Y-68209474D01*
X140613155Y-68232993D01*
X140613023Y-68233109D01*
X140568313Y-68290011D01*
X140540419Y-68361490D01*
X140529047Y-68440727D01*
X140332764Y-68440727D01*
X140341908Y-68345467D01*
X140375335Y-68249336D01*
X140432449Y-68167722D01*
X140464468Y-68136497D01*
X140551230Y-68077775D01*
X140645688Y-68044176D01*
X140743290Y-68034605D01*
X140839485Y-68047967D01*
G37*
G36*
X141549759Y-67917600D02*
G01*
X141546703Y-68002072D01*
X141545314Y-68061084D01*
X141545910Y-68098474D01*
X141548806Y-68118082D01*
X141554318Y-68123747D01*
X141562762Y-68119307D01*
X141566128Y-68116386D01*
X141619695Y-68081132D01*
X141689371Y-68052959D01*
X141762029Y-68036562D01*
X141795786Y-68034246D01*
X141890887Y-68046912D01*
X141970896Y-68083978D01*
X142034677Y-68144047D01*
X142081092Y-68225722D01*
X142109006Y-68327605D01*
X142117341Y-68429561D01*
X142107974Y-68557376D01*
X142077476Y-68664862D01*
X142025834Y-68752050D01*
X141953031Y-68818969D01*
X141899481Y-68849265D01*
X141809189Y-68878027D01*
X141722332Y-68879683D01*
X141659136Y-68861897D01*
X141611004Y-68837327D01*
X141567333Y-68810040D01*
X141524189Y-68779318D01*
X141515029Y-68825114D01*
X141508099Y-68851911D01*
X141495743Y-68864900D01*
X141469563Y-68868212D01*
X141430851Y-68866546D01*
X141355832Y-68862182D01*
X141354539Y-68665637D01*
X141553811Y-68665637D01*
X141616138Y-68694736D01*
X141681997Y-68714679D01*
X141749050Y-68716906D01*
X141807567Y-68701882D01*
X141835115Y-68684268D01*
X141878481Y-68627769D01*
X141907535Y-68551194D01*
X141919862Y-68461275D01*
X141920117Y-68447421D01*
X141911677Y-68352294D01*
X141886162Y-68278932D01*
X141844390Y-68228384D01*
X141787178Y-68201703D01*
X141726572Y-68198613D01*
X141665893Y-68212132D01*
X141610744Y-68237092D01*
X141605685Y-68240385D01*
X141554011Y-68275577D01*
X141553811Y-68665637D01*
X141354539Y-68665637D01*
X141351997Y-68279243D01*
X141348163Y-67696304D01*
X141558264Y-67696304D01*
X141549759Y-67917600D01*
G37*
G36*
X138162669Y-68279243D02*
G01*
X138158834Y-68862182D01*
X138086927Y-68866744D01*
X138034584Y-68865944D01*
X138004803Y-68852611D01*
X137992104Y-68822801D01*
X137990410Y-68797299D01*
X137990185Y-68761746D01*
X137957189Y-68792722D01*
X137885119Y-68842468D01*
X137800560Y-68872371D01*
X137711916Y-68880928D01*
X137627589Y-68866633D01*
X137601559Y-68856377D01*
X137526085Y-68807465D01*
X137465555Y-68736334D01*
X137430467Y-68671535D01*
X137406216Y-68592157D01*
X137395457Y-68497705D01*
X137395785Y-68485724D01*
X137594538Y-68485724D01*
X137604494Y-68562141D01*
X137629279Y-68629481D01*
X137669059Y-68681022D01*
X137688102Y-68695043D01*
X137754526Y-68719277D01*
X137825529Y-68716745D01*
X137887529Y-68691633D01*
X137922777Y-68667957D01*
X137946585Y-68647795D01*
X137949632Y-68644026D01*
X137953748Y-68623742D01*
X137957175Y-68580328D01*
X137959577Y-68519980D01*
X137960615Y-68448895D01*
X137960630Y-68442246D01*
X137960855Y-68256952D01*
X137920947Y-68230804D01*
X137859698Y-68205211D01*
X137790517Y-68198526D01*
X137725371Y-68211131D01*
X137699696Y-68223736D01*
X137651990Y-68269236D01*
X137618451Y-68332550D01*
X137599245Y-68406953D01*
X137594538Y-68485724D01*
X137395785Y-68485724D01*
X137398155Y-68399129D01*
X137414271Y-68307376D01*
X137431876Y-68256693D01*
X137473100Y-68187851D01*
X137530134Y-68124118D01*
X137594578Y-68073617D01*
X137648434Y-68047317D01*
X137724094Y-68034873D01*
X137806741Y-68041183D01*
X137883323Y-68064567D01*
X137914419Y-68081575D01*
X137972405Y-68119948D01*
X137956547Y-67696304D01*
X138166503Y-67696304D01*
X138162669Y-68279243D01*
G37*
G36*
X134021436Y-68047939D02*
G01*
X134071570Y-68061007D01*
X134127578Y-68080343D01*
X134176312Y-68101239D01*
X134207242Y-68119178D01*
X134207289Y-68119216D01*
X134240857Y-68146398D01*
X134199450Y-68200686D01*
X134167239Y-68236085D01*
X134142481Y-68246596D01*
X134134651Y-68244705D01*
X134036822Y-68208121D01*
X133947363Y-68186901D01*
X133869677Y-68180988D01*
X133807171Y-68190325D01*
X133763249Y-68214856D01*
X133742068Y-68251235D01*
X133741459Y-68281232D01*
X133758205Y-68306605D01*
X133795358Y-68329293D01*
X133855967Y-68351236D01*
X133931033Y-68371448D01*
X133998687Y-68389206D01*
X134062764Y-68408001D01*
X134112865Y-68424714D01*
X134126865Y-68430204D01*
X134198160Y-68473442D01*
X134245815Y-68529449D01*
X134269734Y-68593503D01*
X134269822Y-68660881D01*
X134245982Y-68726861D01*
X134198118Y-68786719D01*
X134135019Y-68831135D01*
X134087773Y-68853694D01*
X134042271Y-68867550D01*
X133987410Y-68875281D01*
X133929707Y-68878770D01*
X133825779Y-68877933D01*
X133741404Y-68866323D01*
X133727352Y-68862725D01*
X133669643Y-68844051D01*
X133611184Y-68821194D01*
X133559581Y-68797573D01*
X133522442Y-68776609D01*
X133508413Y-68764309D01*
X133510760Y-68744939D01*
X133526462Y-68711636D01*
X133537700Y-68693349D01*
X133575521Y-68636198D01*
X133674741Y-68682694D01*
X133732314Y-68707558D01*
X133780998Y-68721771D01*
X133834134Y-68728201D01*
X133893324Y-68729693D01*
X133973965Y-68725628D01*
X134029213Y-68711758D01*
X134061751Y-68686758D01*
X134074261Y-68649305D01*
X134074596Y-68640270D01*
X134067583Y-68612681D01*
X134044320Y-68588546D01*
X134001473Y-68566045D01*
X133935705Y-68543358D01*
X133858595Y-68522393D01*
X133748279Y-68490121D01*
X133664745Y-68454852D01*
X133605463Y-68414548D01*
X133567899Y-68367168D01*
X133549522Y-68310673D01*
X133546652Y-68271141D01*
X133560026Y-68201033D01*
X133597692Y-68141207D01*
X133655965Y-68093138D01*
X133731161Y-68058302D01*
X133819595Y-68038174D01*
X133917581Y-68034227D01*
X134021436Y-68047939D01*
G37*
G36*
X136003012Y-68050037D02*
G01*
X136062165Y-68078374D01*
X136120405Y-68125981D01*
X136168792Y-68183920D01*
X136198387Y-68243250D01*
X136199270Y-68246295D01*
X136204751Y-68281064D01*
X136209377Y-68339893D01*
X136212893Y-68417517D01*
X136215049Y-68508671D01*
X136215623Y-68587211D01*
X136215705Y-68869515D01*
X136135047Y-68869515D01*
X136088286Y-68868168D01*
X136063930Y-68862531D01*
X136055115Y-68850210D01*
X136054388Y-68841384D01*
X136050557Y-68798534D01*
X136036462Y-68781705D01*
X136008207Y-68788971D01*
X135981171Y-68805190D01*
X135888628Y-68852824D01*
X135792339Y-68877913D01*
X135698387Y-68879724D01*
X135612850Y-68857526D01*
X135599329Y-68851183D01*
X135529995Y-68802779D01*
X135486428Y-68740449D01*
X135468362Y-68663777D01*
X135467783Y-68645434D01*
X135470243Y-68626331D01*
X135658430Y-68626331D01*
X135670071Y-68677918D01*
X135703657Y-68711893D01*
X135757182Y-68727574D01*
X135828641Y-68724281D01*
X135897387Y-68707522D01*
X135938656Y-68689543D01*
X135981078Y-68664190D01*
X135981711Y-68663741D01*
X136006943Y-68642681D01*
X136019905Y-68619166D01*
X136024578Y-68582852D01*
X136025058Y-68551095D01*
X136025058Y-68469315D01*
X135933401Y-68478389D01*
X135825601Y-68494470D01*
X135745208Y-68518904D01*
X135691385Y-68552140D01*
X135663294Y-68594631D01*
X135658430Y-68626331D01*
X135470243Y-68626331D01*
X135476809Y-68575343D01*
X135505013Y-68515977D01*
X135554087Y-68466306D01*
X135625722Y-68425303D01*
X135721609Y-68391939D01*
X135843438Y-68365184D01*
X135956070Y-68348431D01*
X135997954Y-68341783D01*
X136017010Y-68332944D01*
X136019664Y-68317623D01*
X136017250Y-68307574D01*
X136000707Y-68276764D01*
X135971601Y-68241675D01*
X135965019Y-68235248D01*
X135911625Y-68204390D01*
X135841430Y-68192680D01*
X135759874Y-68200145D01*
X135672397Y-68226813D01*
X135656293Y-68233721D01*
X135611429Y-68252747D01*
X135578598Y-68264585D01*
X135565349Y-68266718D01*
X135548374Y-68241320D01*
X135528393Y-68207092D01*
X135510533Y-68173482D01*
X135499922Y-68149940D01*
X135499107Y-68144622D01*
X135514314Y-68135720D01*
X135546436Y-68118820D01*
X135563107Y-68110348D01*
X135677713Y-68064670D01*
X135796070Y-68039245D01*
X135910669Y-68035103D01*
X136003012Y-68050037D01*
G37*
G36*
X146737236Y-68046583D02*
G01*
X146740693Y-68047432D01*
X146803130Y-68065775D01*
X146861684Y-68087528D01*
X146909962Y-68109802D01*
X146941575Y-68129711D01*
X146950578Y-68142284D01*
X146941789Y-68163365D01*
X146919789Y-68195552D01*
X146910249Y-68207401D01*
X146869920Y-68255439D01*
X146796830Y-68222975D01*
X146739472Y-68203604D01*
X146670696Y-68188842D01*
X146627385Y-68183617D01*
X146573200Y-68180987D01*
X146538095Y-68184128D01*
X146512043Y-68195189D01*
X146488357Y-68213428D01*
X146461257Y-68239893D01*
X146454121Y-68260941D01*
X146462912Y-68287941D01*
X146470767Y-68302779D01*
X146481902Y-68314955D01*
X146500514Y-68326093D01*
X146530799Y-68337818D01*
X146576953Y-68351754D01*
X146643172Y-68369525D01*
X146733653Y-68392756D01*
X146733738Y-68392778D01*
X146835686Y-68426685D01*
X146912432Y-68469686D01*
X146962734Y-68520941D01*
X146980959Y-68559273D01*
X146990433Y-68637871D01*
X146973039Y-68712150D01*
X146931237Y-68777429D01*
X146867486Y-68829026D01*
X146829404Y-68847724D01*
X146765742Y-68865215D01*
X146684284Y-68875856D01*
X146595851Y-68879235D01*
X146511263Y-68874939D01*
X146441339Y-68862556D01*
X146441178Y-68862510D01*
X146395062Y-68847252D01*
X146343001Y-68826638D01*
X146292177Y-68803990D01*
X146249774Y-68782629D01*
X146222973Y-68765880D01*
X146217321Y-68758965D01*
X146224722Y-68743421D01*
X146243499Y-68712388D01*
X146255589Y-68693739D01*
X146293856Y-68635913D01*
X146354578Y-68666960D01*
X146452044Y-68707114D01*
X146550623Y-68730272D01*
X146643288Y-68735531D01*
X146723015Y-68721989D01*
X146738404Y-68716279D01*
X146776363Y-68693152D01*
X146791266Y-68660548D01*
X146789661Y-68620846D01*
X146781297Y-68600391D01*
X146759858Y-68582256D01*
X146721197Y-68564438D01*
X146661168Y-68544937D01*
X146594598Y-68526679D01*
X146503520Y-68501387D01*
X146435456Y-68478539D01*
X146384535Y-68455483D01*
X146344886Y-68429566D01*
X146311074Y-68398591D01*
X146284997Y-68366410D01*
X146272352Y-68332836D01*
X146268697Y-68285006D01*
X146268649Y-68275689D01*
X146276939Y-68205155D01*
X146304406Y-68150130D01*
X146354946Y-68104721D01*
X146398432Y-68079400D01*
X146471735Y-68053036D01*
X146560589Y-68038036D01*
X146653066Y-68035513D01*
X146737236Y-68046583D01*
G37*
G36*
X140508487Y-59634822D02*
G01*
X140532402Y-59637056D01*
X140624313Y-59646467D01*
X140725250Y-59657801D01*
X140831043Y-59670487D01*
X140937523Y-59683954D01*
X141040520Y-59697635D01*
X141135864Y-59710957D01*
X141219384Y-59723352D01*
X141286911Y-59734250D01*
X141334274Y-59743080D01*
X141357304Y-59749272D01*
X141358421Y-59749954D01*
X141363535Y-59759604D01*
X141367720Y-59780870D01*
X141371055Y-59816180D01*
X141373621Y-59867965D01*
X141375500Y-59938655D01*
X141376771Y-60030679D01*
X141377516Y-60146468D01*
X141377815Y-60288451D01*
X141377830Y-60334828D01*
X141377830Y-60903593D01*
X141440156Y-60925780D01*
X141538329Y-60960537D01*
X141639267Y-60995936D01*
X141739162Y-61030675D01*
X141834205Y-61063454D01*
X141920587Y-61092969D01*
X141994499Y-61117921D01*
X142052132Y-61137006D01*
X142089677Y-61148924D01*
X142103318Y-61152387D01*
X142112768Y-61140039D01*
X142137201Y-61108365D01*
X142173636Y-61061225D01*
X142219089Y-61002476D01*
X142259451Y-60950346D01*
X142319813Y-60872252D01*
X142391578Y-60779160D01*
X142468349Y-60679380D01*
X142543730Y-60581226D01*
X142599791Y-60508081D01*
X142656756Y-60434602D01*
X142708853Y-60369158D01*
X142753107Y-60315346D01*
X142786540Y-60276766D01*
X142806175Y-60257018D01*
X142808816Y-60255346D01*
X142828761Y-60259088D01*
X142870537Y-60274927D01*
X142930242Y-60300886D01*
X143003977Y-60334985D01*
X143087838Y-60375248D01*
X143177926Y-60419697D01*
X143270338Y-60466352D01*
X143361173Y-60513236D01*
X143446531Y-60558372D01*
X143522510Y-60599781D01*
X143585208Y-60635484D01*
X143630725Y-60663505D01*
X143655159Y-60681865D01*
X143658127Y-60685964D01*
X143656823Y-60709049D01*
X143647372Y-60756885D01*
X143630657Y-60826318D01*
X143607563Y-60914195D01*
X143578976Y-61017361D01*
X143545779Y-61132664D01*
X143508858Y-61256948D01*
X143469097Y-61387061D01*
X143427380Y-61519848D01*
X143402430Y-61597487D01*
X143378097Y-61673178D01*
X143357594Y-61738170D01*
X143342371Y-61787769D01*
X143333875Y-61817281D01*
X143332656Y-61823474D01*
X143348884Y-61834882D01*
X143383783Y-61860997D01*
X143432940Y-61898425D01*
X143491947Y-61943775D01*
X143556391Y-61993655D01*
X143621863Y-62044672D01*
X143683953Y-62093434D01*
X143694920Y-62102098D01*
X143755997Y-62150172D01*
X143809733Y-62192039D01*
X143851539Y-62224156D01*
X143876824Y-62242980D01*
X143881297Y-62246001D01*
X143900041Y-62241699D01*
X143941724Y-62220895D01*
X144005434Y-62184159D01*
X144090260Y-62132060D01*
X144195291Y-62065169D01*
X144319617Y-61984056D01*
X144462325Y-61889291D01*
X144607999Y-61791264D01*
X144683697Y-61740695D01*
X144751964Y-61696318D01*
X144808814Y-61660623D01*
X144850260Y-61636104D01*
X144872316Y-61625253D01*
X144874013Y-61624942D01*
X144881807Y-61625425D01*
X144890454Y-61628263D01*
X144902154Y-61635544D01*
X144919106Y-61649351D01*
X144943511Y-61671771D01*
X144977567Y-61704890D01*
X145023475Y-61750792D01*
X145083434Y-61811563D01*
X145159644Y-61889290D01*
X145247043Y-61978632D01*
X145340892Y-62075653D01*
X145418125Y-62157713D01*
X145477712Y-62223658D01*
X145518623Y-62272330D01*
X145539828Y-62302574D01*
X145542726Y-62310677D01*
X145534229Y-62328630D01*
X145509985Y-62367356D01*
X145471860Y-62424178D01*
X145421721Y-62496417D01*
X145361435Y-62581395D01*
X145292869Y-62676433D01*
X145217889Y-62778853D01*
X145191374Y-62814737D01*
X145103937Y-62932843D01*
X145032481Y-63029692D01*
X144975527Y-63107595D01*
X144931596Y-63168864D01*
X144899211Y-63215809D01*
X144876893Y-63250743D01*
X144863165Y-63275976D01*
X144856548Y-63293820D01*
X144855564Y-63306586D01*
X144858734Y-63316586D01*
X144864453Y-63325937D01*
X144879745Y-63349372D01*
X144908013Y-63393056D01*
X144946395Y-63452554D01*
X144992030Y-63523428D01*
X145042056Y-63601241D01*
X145049010Y-63612066D01*
X145098180Y-63688408D01*
X145142242Y-63756417D01*
X145178647Y-63812188D01*
X145204842Y-63851818D01*
X145218277Y-63871401D01*
X145219187Y-63872546D01*
X145235207Y-63871686D01*
X145276519Y-63864417D01*
X145339960Y-63851432D01*
X145422365Y-63833426D01*
X145520571Y-63811091D01*
X145631414Y-63785123D01*
X145751729Y-63756215D01*
X145770942Y-63751535D01*
X145893294Y-63721688D01*
X146007322Y-63693887D01*
X146109734Y-63668934D01*
X146197238Y-63647631D01*
X146266542Y-63630779D01*
X146314353Y-63619178D01*
X146337380Y-63613632D01*
X146338362Y-63613402D01*
X146368568Y-63617792D01*
X146391779Y-63631757D01*
X146404902Y-63650861D01*
X146428519Y-63693043D01*
X146460820Y-63754755D01*
X146499994Y-63832451D01*
X146544234Y-63922584D01*
X146591729Y-64021605D01*
X146605527Y-64050783D01*
X146663138Y-64174069D01*
X146708280Y-64273177D01*
X146741767Y-64350078D01*
X146764413Y-64406745D01*
X146777031Y-64445150D01*
X146780437Y-64467264D01*
X146779420Y-64471950D01*
X146764963Y-64485820D01*
X146728873Y-64514181D01*
X146673821Y-64555109D01*
X146602478Y-64606679D01*
X146517517Y-64666965D01*
X146421610Y-64734042D01*
X146317427Y-64805986D01*
X146285482Y-64827872D01*
X146179822Y-64900178D01*
X146081854Y-64967316D01*
X145994194Y-65027485D01*
X145919459Y-65078884D01*
X145860264Y-65119714D01*
X145819227Y-65148175D01*
X145798963Y-65162467D01*
X145797297Y-65163750D01*
X145798871Y-65179169D01*
X145806731Y-65219028D01*
X145819978Y-65279330D01*
X145837719Y-65356077D01*
X145859056Y-65445272D01*
X145874706Y-65509146D01*
X145958519Y-65848139D01*
X146003596Y-65854664D01*
X146029816Y-65857744D01*
X146080944Y-65863128D01*
X146152686Y-65870387D01*
X146240748Y-65879091D01*
X146340835Y-65888814D01*
X146448653Y-65899124D01*
X146451963Y-65899438D01*
X146614365Y-65914952D01*
X146749982Y-65928198D01*
X146861248Y-65939482D01*
X146950596Y-65949113D01*
X147020458Y-65957396D01*
X147073269Y-65964639D01*
X147111460Y-65971148D01*
X147137464Y-65977230D01*
X147153715Y-65983193D01*
X147162345Y-65989035D01*
X147176837Y-66015338D01*
X147188281Y-66055865D01*
X147189642Y-66063825D01*
X147195312Y-66108184D01*
X147202101Y-66172328D01*
X147209648Y-66251621D01*
X147217593Y-66341423D01*
X147225574Y-66437097D01*
X147233231Y-66534006D01*
X147240204Y-66627512D01*
X147246130Y-66712977D01*
X147250651Y-66785763D01*
X147253404Y-66841233D01*
X147254029Y-66874750D01*
X147253307Y-66882221D01*
X147238788Y-66893188D01*
X147200676Y-66915667D01*
X147141693Y-66948218D01*
X147064560Y-66989397D01*
X146971999Y-67037765D01*
X146866731Y-67091878D01*
X146751477Y-67150296D01*
X146671787Y-67190248D01*
X146098688Y-67476327D01*
X145399045Y-67476327D01*
X145405250Y-67349339D01*
X145406821Y-67274042D01*
X145405720Y-67176026D01*
X145402278Y-67061747D01*
X145396829Y-66937662D01*
X145389706Y-66810228D01*
X145381241Y-66685902D01*
X145371768Y-66571140D01*
X145361619Y-66472398D01*
X145358863Y-66449769D01*
X145292951Y-66044877D01*
X145199420Y-65648520D01*
X145079004Y-65261917D01*
X144932439Y-64886289D01*
X144760461Y-64522853D01*
X144563805Y-64172831D01*
X144343207Y-63837441D01*
X144099401Y-63517902D01*
X143833124Y-63215435D01*
X143545111Y-62931259D01*
X143236097Y-62666593D01*
X142946998Y-62450529D01*
X142610954Y-62233070D01*
X142261463Y-62041302D01*
X141900001Y-61875665D01*
X141528045Y-61736602D01*
X141147072Y-61624553D01*
X140758557Y-61539960D01*
X140363977Y-61483263D01*
X139964808Y-61454904D01*
X139610682Y-61453746D01*
X139207166Y-61478352D01*
X138815881Y-61529139D01*
X138434945Y-61606576D01*
X138062477Y-61711131D01*
X137696595Y-61843274D01*
X137335418Y-62003473D01*
X137264749Y-62038335D01*
X136949874Y-62207338D01*
X136656557Y-62388542D01*
X136379175Y-62586007D01*
X136112107Y-62803790D01*
X135849733Y-63045952D01*
X135796715Y-63098276D01*
X135515828Y-63398833D01*
X135259081Y-63715921D01*
X135026841Y-64048945D01*
X134819474Y-64397311D01*
X134637349Y-64760423D01*
X134480830Y-65137686D01*
X134403921Y-65356679D01*
X134300894Y-65702612D01*
X134221432Y-66044629D01*
X134164514Y-66389050D01*
X134129116Y-66742195D01*
X134114217Y-67110385D01*
X134113802Y-67149959D01*
X134111259Y-67476188D01*
X133773961Y-67474557D01*
X133675891Y-67473783D01*
X133586449Y-67472512D01*
X133510216Y-67470855D01*
X133451775Y-67468921D01*
X133415708Y-67466821D01*
X133407333Y-67465705D01*
X133335533Y-67445642D01*
X133242130Y-67415942D01*
X133132445Y-67378604D01*
X133011801Y-67335626D01*
X132885519Y-67289005D01*
X132758919Y-67240741D01*
X132637324Y-67192830D01*
X132526055Y-67147272D01*
X132430433Y-67106063D01*
X132355779Y-67071203D01*
X132353101Y-67069867D01*
X132252104Y-67019317D01*
X132261449Y-66906858D01*
X132265743Y-66854570D01*
X132271757Y-66780473D01*
X132278892Y-66691995D01*
X132286548Y-66596566D01*
X132292416Y-66523094D01*
X132302855Y-66393805D01*
X132311539Y-66290721D01*
X132318803Y-66210793D01*
X132324984Y-66150969D01*
X132330415Y-66108201D01*
X132335434Y-66079437D01*
X132340374Y-66061629D01*
X132343987Y-66054011D01*
X132350116Y-66047119D01*
X132361212Y-66040840D01*
X132379914Y-66034802D01*
X132408862Y-66028634D01*
X132450694Y-66021964D01*
X132508051Y-66014419D01*
X132583571Y-66005627D01*
X132679895Y-65995217D01*
X132799661Y-65982817D01*
X132945509Y-65968054D01*
X132974712Y-65965119D01*
X133090025Y-65953262D01*
X133196025Y-65941829D01*
X133289174Y-65931245D01*
X133365934Y-65921931D01*
X133422768Y-65914311D01*
X133456137Y-65908809D01*
X133463491Y-65906646D01*
X133469935Y-65890131D01*
X133481497Y-65850028D01*
X133496963Y-65791389D01*
X133515123Y-65719265D01*
X133534763Y-65638709D01*
X133554670Y-65554772D01*
X133573634Y-65472506D01*
X133590440Y-65396962D01*
X133603878Y-65333191D01*
X133612734Y-65286246D01*
X133613475Y-65281708D01*
X133622458Y-65225230D01*
X133529561Y-65170482D01*
X133483255Y-65142395D01*
X133420565Y-65103218D01*
X133345281Y-65055426D01*
X133261196Y-65001495D01*
X133172101Y-64943898D01*
X133081788Y-64885112D01*
X132994048Y-64827611D01*
X132912673Y-64773871D01*
X132841455Y-64726366D01*
X132784185Y-64687571D01*
X132744655Y-64659961D01*
X132727872Y-64647170D01*
X132702625Y-64614453D01*
X132701677Y-64581637D01*
X132709837Y-64557524D01*
X132727322Y-64511328D01*
X132752443Y-64447173D01*
X132783512Y-64369186D01*
X132818839Y-64281491D01*
X132856737Y-64188215D01*
X132895516Y-64093482D01*
X132933489Y-64001418D01*
X132968967Y-63916149D01*
X133000260Y-63841800D01*
X133025682Y-63782497D01*
X133043543Y-63742366D01*
X133051996Y-63725721D01*
X133076297Y-63712018D01*
X133106620Y-63707390D01*
X133130168Y-63710596D01*
X133178644Y-63719702D01*
X133248413Y-63733938D01*
X133335842Y-63752534D01*
X133437296Y-63774721D01*
X133549141Y-63799729D01*
X133636436Y-63819593D01*
X133752843Y-63846152D01*
X133860827Y-63870552D01*
X133956891Y-63892022D01*
X134037537Y-63909787D01*
X134099265Y-63923077D01*
X134138579Y-63931120D01*
X134151323Y-63933248D01*
X134167952Y-63922838D01*
X134197317Y-63889948D01*
X134239952Y-63833876D01*
X134296392Y-63753918D01*
X134366480Y-63650407D01*
X134556239Y-63366116D01*
X134378684Y-63129795D01*
X134310032Y-63039048D01*
X134233596Y-62939048D01*
X134156225Y-62838691D01*
X134084765Y-62746869D01*
X134042540Y-62693207D01*
X133990586Y-62625926D01*
X133945776Y-62564702D01*
X133911121Y-62513910D01*
X133889634Y-62477929D01*
X133883950Y-62462755D01*
X133893615Y-62442138D01*
X133921311Y-62402526D01*
X133965088Y-62346397D01*
X134022996Y-62276228D01*
X134093085Y-62194498D01*
X134112991Y-62171741D01*
X134212541Y-62058656D01*
X134294809Y-61965957D01*
X134361622Y-61891780D01*
X134414806Y-61834259D01*
X134456187Y-61791529D01*
X134487592Y-61761726D01*
X134510847Y-61742985D01*
X134527780Y-61733439D01*
X134540215Y-61731225D01*
X134543804Y-61731827D01*
X134561948Y-61741067D01*
X134601865Y-61764302D01*
X134660615Y-61799727D01*
X134735260Y-61845538D01*
X134822861Y-61899932D01*
X134920478Y-61961105D01*
X135025173Y-62027252D01*
X135026606Y-62028162D01*
X135482724Y-62317518D01*
X135566911Y-62254381D01*
X135599750Y-62229266D01*
X135648460Y-62191404D01*
X135708213Y-62144611D01*
X135774179Y-62092701D01*
X135841531Y-62039490D01*
X135905440Y-61988792D01*
X135961079Y-61944424D01*
X136003618Y-61910199D01*
X136028230Y-61889934D01*
X136029207Y-61889093D01*
X136027233Y-61873444D01*
X136016621Y-61833191D01*
X135998340Y-61771442D01*
X135973363Y-61691303D01*
X135942658Y-61595884D01*
X135907196Y-61488291D01*
X135867949Y-61371633D01*
X135863909Y-61359754D01*
X135823990Y-61241419D01*
X135787436Y-61131031D01*
X135755272Y-61031848D01*
X135728527Y-60947126D01*
X135708227Y-60880122D01*
X135695399Y-60834093D01*
X135691070Y-60812296D01*
X135691112Y-60811764D01*
X135704670Y-60796629D01*
X135740467Y-60769932D01*
X135794799Y-60733791D01*
X135863961Y-60690325D01*
X135944249Y-60641653D01*
X136031958Y-60589896D01*
X136123385Y-60537172D01*
X136214825Y-60485601D01*
X136302573Y-60437301D01*
X136382925Y-60394393D01*
X136452177Y-60358995D01*
X136506624Y-60333226D01*
X136542563Y-60319206D01*
X136554914Y-60317583D01*
X136568115Y-60330279D01*
X136596931Y-60362925D01*
X136638853Y-60412410D01*
X136691372Y-60475623D01*
X136751977Y-60549456D01*
X136818159Y-60630797D01*
X136887408Y-60716536D01*
X136957214Y-60803564D01*
X137025067Y-60888769D01*
X137088459Y-60969043D01*
X137144878Y-61041274D01*
X137191815Y-61102354D01*
X137226761Y-61149171D01*
X137233387Y-61158361D01*
X137240866Y-61165318D01*
X137253210Y-61168340D01*
X137273740Y-61166533D01*
X137305776Y-61159001D01*
X137352639Y-61144852D01*
X137417652Y-61123191D01*
X137504133Y-61093124D01*
X137594933Y-61061024D01*
X137938857Y-60938987D01*
X137946190Y-60380567D01*
X137948255Y-60234583D01*
X137950334Y-60115245D01*
X137952563Y-60019869D01*
X137955078Y-59945774D01*
X137958014Y-59890275D01*
X137961508Y-59850688D01*
X137965695Y-59824331D01*
X137970712Y-59808520D01*
X137975520Y-59801560D01*
X137997723Y-59792181D01*
X138047929Y-59778884D01*
X138125101Y-59761873D01*
X138228202Y-59741351D01*
X138356195Y-59717521D01*
X138508044Y-59690587D01*
X138682713Y-59660751D01*
X138756643Y-59648398D01*
X138823722Y-59637837D01*
X138868049Y-59632828D01*
X138895651Y-59633280D01*
X138912557Y-59639099D01*
X138920826Y-59645878D01*
X138932014Y-59665893D01*
X138950736Y-59709037D01*
X138975150Y-59770650D01*
X139003414Y-59846069D01*
X139033688Y-59930633D01*
X139036420Y-59938452D01*
X139073734Y-60044988D01*
X139115414Y-60163198D01*
X139157598Y-60282178D01*
X139196422Y-60391019D01*
X139216866Y-60447946D01*
X139302714Y-60686136D01*
X139671562Y-60686255D01*
X140040411Y-60686374D01*
X140109542Y-60477396D01*
X140145815Y-60369150D01*
X140184355Y-60256615D01*
X140223778Y-60143604D01*
X140262701Y-60033930D01*
X140299741Y-59931406D01*
X140333516Y-59839846D01*
X140362641Y-59763063D01*
X140385734Y-59704871D01*
X140401411Y-59669083D01*
X140405399Y-59661732D01*
X140418805Y-59643849D01*
X140435324Y-59634400D01*
X140462652Y-59631890D01*
X140508487Y-59634822D01*
G37*
G36*
X141306022Y-61910912D02*
G01*
X141206273Y-61998607D01*
X141162056Y-62039137D01*
X141112999Y-62086745D01*
X141063270Y-62137033D01*
X141017033Y-62185603D01*
X140978456Y-62228060D01*
X140951704Y-62260005D01*
X140940943Y-62277041D01*
X140941184Y-62278404D01*
X140955210Y-62274126D01*
X140989669Y-62259233D01*
X141038798Y-62236299D01*
X141077284Y-62217604D01*
X141139718Y-62188490D01*
X141198214Y-62164105D01*
X141244087Y-62147945D01*
X141260508Y-62143875D01*
X141284285Y-62140740D01*
X141290157Y-62143878D01*
X141275927Y-62155788D01*
X141239401Y-62178968D01*
X141218511Y-62191680D01*
X141111959Y-62270186D01*
X141013408Y-62369294D01*
X140928339Y-62481965D01*
X140862232Y-62601162D01*
X140827388Y-62694029D01*
X140817182Y-62729225D01*
X140859197Y-62700100D01*
X140898972Y-62673512D01*
X140918654Y-62664464D01*
X140919195Y-62674764D01*
X140901543Y-62706223D01*
X140880096Y-62739907D01*
X140832150Y-62823734D01*
X140790617Y-62914352D01*
X140760572Y-63000048D01*
X140751652Y-63036345D01*
X140749795Y-63066247D01*
X140758589Y-63073724D01*
X140774289Y-63061904D01*
X140793147Y-63033914D01*
X140811418Y-62992883D01*
X140814520Y-62983852D01*
X140884215Y-62813582D01*
X140976124Y-62657565D01*
X141087716Y-62519182D01*
X141216461Y-62401817D01*
X141287913Y-62351142D01*
X141344972Y-62316285D01*
X141402705Y-62284399D01*
X141454094Y-62259035D01*
X141492123Y-62243743D01*
X141505861Y-62240877D01*
X141499396Y-62251011D01*
X141476605Y-62278685D01*
X141440970Y-62319812D01*
X141395973Y-62370299D01*
X141390415Y-62376455D01*
X141343916Y-62429080D01*
X141315623Y-62463821D01*
X141306256Y-62479692D01*
X141316533Y-62475706D01*
X141319988Y-62473204D01*
X141439124Y-62390334D01*
X141549016Y-62327260D01*
X141657543Y-62279969D01*
X141765003Y-62246408D01*
X141823893Y-62235275D01*
X141896626Y-62227761D01*
X141974650Y-62224055D01*
X142049410Y-62224349D01*
X142112352Y-62228831D01*
X142154922Y-62237691D01*
X142155081Y-62237751D01*
X142174937Y-62246543D01*
X142173882Y-62252581D01*
X142148670Y-62258607D01*
X142125751Y-62262511D01*
X142078743Y-62272723D01*
X142015996Y-62289647D01*
X141945767Y-62310672D01*
X141876310Y-62333189D01*
X141815882Y-62354590D01*
X141772737Y-62372265D01*
X141763268Y-62377076D01*
X141751639Y-62385675D01*
X141756003Y-62391267D01*
X141780106Y-62394573D01*
X141827695Y-62396316D01*
X141865924Y-62396879D01*
X142040875Y-62411800D01*
X142203027Y-62452847D01*
X142353802Y-62520492D01*
X142473838Y-62599076D01*
X142516298Y-62634413D01*
X142562794Y-62678188D01*
X142609326Y-62725904D01*
X142651893Y-62773067D01*
X142686497Y-62815179D01*
X142709136Y-62847746D01*
X142715811Y-62866272D01*
X142713652Y-62868601D01*
X142693361Y-62866928D01*
X142653968Y-62857999D01*
X142606842Y-62844596D01*
X142490615Y-62812504D01*
X142364821Y-62784223D01*
X142240921Y-62762015D01*
X142130375Y-62748144D01*
X142110410Y-62746536D01*
X141986432Y-62737730D01*
X142118418Y-62808270D01*
X142230884Y-62871359D01*
X142319320Y-62927943D01*
X142387574Y-62980636D01*
X142426386Y-63017641D01*
X142470381Y-63064078D01*
X142353060Y-63005385D01*
X142221754Y-62946797D01*
X142097837Y-62908087D01*
X141969977Y-62886552D01*
X141826845Y-62879492D01*
X141825116Y-62879484D01*
X141741553Y-62881732D01*
X141657578Y-62888472D01*
X141578902Y-62898763D01*
X141511237Y-62911664D01*
X141460296Y-62926235D01*
X141431790Y-62941535D01*
X141429221Y-62944700D01*
X141438081Y-62955155D01*
X141468089Y-62971410D01*
X141510010Y-62988871D01*
X141555154Y-63006573D01*
X141586839Y-63020562D01*
X141597806Y-63027423D01*
X141584991Y-63028962D01*
X141552998Y-63025834D01*
X141540328Y-63023949D01*
X141502160Y-63022039D01*
X141444003Y-63023877D01*
X141374418Y-63028669D01*
X141301965Y-63035619D01*
X141235206Y-63043934D01*
X141182703Y-63052819D01*
X141157613Y-63059461D01*
X141159527Y-63063835D01*
X141185952Y-63067675D01*
X141232068Y-63070476D01*
X141272701Y-63071536D01*
X141430035Y-63087078D01*
X141578651Y-63128110D01*
X141713871Y-63193286D01*
X141729793Y-63203188D01*
X141772163Y-63230634D01*
X141791752Y-63245389D01*
X141790562Y-63250452D01*
X141770593Y-63248823D01*
X141759123Y-63247166D01*
X141712424Y-63240489D01*
X141655635Y-63232654D01*
X141634469Y-63229805D01*
X141561144Y-63220024D01*
X141698262Y-63289284D01*
X141810139Y-63355783D01*
X141910950Y-63435121D01*
X141996288Y-63522755D01*
X142061750Y-63614146D01*
X142102931Y-63704750D01*
X142103740Y-63707390D01*
X142104642Y-63720486D01*
X142093290Y-63717620D01*
X142067174Y-63697134D01*
X142023788Y-63657368D01*
X142013955Y-63648038D01*
X141952007Y-63590997D01*
X141896392Y-63543433D01*
X141851214Y-63508612D01*
X141820571Y-63489799D01*
X141812173Y-63487413D01*
X141815318Y-63498599D01*
X141831403Y-63528115D01*
X141857085Y-63569892D01*
X141860887Y-63575803D01*
X141929619Y-63708434D01*
X141973761Y-63852747D01*
X141992843Y-64003732D01*
X141986390Y-64156377D01*
X141953930Y-64305671D01*
X141934870Y-64359988D01*
X141927748Y-64376029D01*
X141920874Y-64381764D01*
X141912428Y-64373935D01*
X141900592Y-64349286D01*
X141883547Y-64304561D01*
X141859472Y-64236502D01*
X141848853Y-64206004D01*
X141822341Y-64133661D01*
X141792872Y-64059617D01*
X141762613Y-63988595D01*
X141733732Y-63925313D01*
X141708398Y-63874491D01*
X141688778Y-63840852D01*
X141677040Y-63829113D01*
X141675991Y-63829629D01*
X141675726Y-63844842D01*
X141678129Y-63882466D01*
X141682723Y-63935749D01*
X141685543Y-63964674D01*
X141690167Y-64034965D01*
X141690868Y-64108075D01*
X141688050Y-64177115D01*
X141682119Y-64235197D01*
X141673477Y-64275432D01*
X141666524Y-64288826D01*
X141660612Y-64282026D01*
X141656996Y-64253365D01*
X141656467Y-64232792D01*
X141649035Y-64154182D01*
X141628621Y-64060778D01*
X141598046Y-63962490D01*
X141560132Y-63869233D01*
X141543234Y-63834969D01*
X141516644Y-63791047D01*
X141479427Y-63738343D01*
X141435833Y-63681897D01*
X141390114Y-63626752D01*
X141346520Y-63577945D01*
X141309303Y-63540519D01*
X141282712Y-63519514D01*
X141274854Y-63516743D01*
X141270631Y-63529275D01*
X141273992Y-63560479D01*
X141276368Y-63571737D01*
X141286741Y-63622623D01*
X141287246Y-63646240D01*
X141277060Y-63643221D01*
X141255357Y-63614201D01*
X141243994Y-63596606D01*
X141202597Y-63534235D01*
X141163169Y-63480393D01*
X141129490Y-63439802D01*
X141105337Y-63417182D01*
X141097960Y-63414087D01*
X141086714Y-63426263D01*
X141084527Y-63440861D01*
X141072229Y-63473137D01*
X141041239Y-63507055D01*
X141000413Y-63534191D01*
X140977007Y-63543163D01*
X140938979Y-63553406D01*
X141005494Y-63663394D01*
X141150837Y-63927807D01*
X141282327Y-64216988D01*
X141399636Y-64529678D01*
X141502433Y-64864619D01*
X141590389Y-65220553D01*
X141663174Y-65596219D01*
X141720459Y-65990360D01*
X141761913Y-66401716D01*
X141776154Y-66605949D01*
X141793863Y-66901448D01*
X141919478Y-66925749D01*
X142151042Y-66978822D01*
X142370737Y-67047205D01*
X142514377Y-67101987D01*
X142589670Y-67133338D01*
X142679615Y-67171873D01*
X142778967Y-67215238D01*
X142882482Y-67261082D01*
X142984917Y-67307052D01*
X143081029Y-67350796D01*
X143165573Y-67389962D01*
X143233306Y-67422197D01*
X143276963Y-67444078D01*
X143335624Y-67475031D01*
X139717004Y-67475679D01*
X139393333Y-67475708D01*
X139077429Y-67475680D01*
X138770544Y-67475595D01*
X138473926Y-67475458D01*
X138188825Y-67475270D01*
X137916491Y-67475033D01*
X137658175Y-67474750D01*
X137415126Y-67474423D01*
X137188594Y-67474054D01*
X136979829Y-67473646D01*
X136790081Y-67473200D01*
X136620600Y-67472720D01*
X136472635Y-67472207D01*
X136347437Y-67471663D01*
X136246255Y-67471092D01*
X136170339Y-67470495D01*
X136120940Y-67469874D01*
X136099307Y-67469233D01*
X136098384Y-67469068D01*
X136111048Y-67459618D01*
X136146522Y-67439630D01*
X136201033Y-67410954D01*
X136270805Y-67375442D01*
X136352063Y-67334942D01*
X136441033Y-67291304D01*
X136533940Y-67246380D01*
X136627008Y-67202019D01*
X136716462Y-67160072D01*
X136798529Y-67122388D01*
X136869433Y-67090817D01*
X136875636Y-67088123D01*
X136997597Y-67037379D01*
X137126225Y-66987556D01*
X137255529Y-66940708D01*
X137379519Y-66898890D01*
X137492205Y-66864157D01*
X137587596Y-66838564D01*
X137630890Y-66829056D01*
X137697960Y-66820085D01*
X137788321Y-66813960D01*
X137896078Y-66810630D01*
X138015335Y-66810045D01*
X138140196Y-66812152D01*
X138264765Y-66816902D01*
X138383148Y-66824243D01*
X138489448Y-66834125D01*
X138510797Y-66836656D01*
X138584067Y-66846180D01*
X138679415Y-66859223D01*
X138789935Y-66874803D01*
X138908722Y-66891938D01*
X139028870Y-66909649D01*
X139104735Y-66921052D01*
X139242575Y-66941372D01*
X139358882Y-66957015D01*
X139460956Y-66968700D01*
X139556092Y-66977144D01*
X139651589Y-66983064D01*
X139754745Y-66987180D01*
X139786663Y-66988125D01*
X139990329Y-66989877D01*
X140210594Y-66984852D01*
X140435659Y-66973607D01*
X140653724Y-66956699D01*
X140813222Y-66939712D01*
X140905771Y-66928782D01*
X141010371Y-66916974D01*
X141111049Y-66906069D01*
X141161035Y-66900893D01*
X141234166Y-66893218D01*
X141283238Y-66886717D01*
X141313393Y-66879827D01*
X141329774Y-66870985D01*
X141337523Y-66858628D01*
X141340727Y-66846293D01*
X141352432Y-66772057D01*
X141361961Y-66673761D01*
X141369248Y-66556601D01*
X141374225Y-66425771D01*
X141376824Y-66286465D01*
X141376979Y-66143880D01*
X141374621Y-66003208D01*
X141369684Y-65869647D01*
X141362101Y-65748389D01*
X141355849Y-65679849D01*
X141303832Y-65308281D01*
X141226289Y-64931683D01*
X141124796Y-64556238D01*
X141000930Y-64188129D01*
X140927802Y-64000692D01*
X140886381Y-63900432D01*
X140853836Y-63824293D01*
X140828417Y-63769056D01*
X140808372Y-63731505D01*
X140791950Y-63708424D01*
X140777398Y-63696595D01*
X140762966Y-63692802D01*
X140760130Y-63692725D01*
X140732121Y-63682797D01*
X140696031Y-63657642D01*
X140678978Y-63642072D01*
X140646417Y-63612056D01*
X140623591Y-63600624D01*
X140601169Y-63604074D01*
X140592454Y-63607763D01*
X140575083Y-63617486D01*
X140564490Y-63631619D01*
X140559037Y-63656730D01*
X140557085Y-63699386D01*
X140556941Y-63750073D01*
X140558899Y-63817625D01*
X140563759Y-63882587D01*
X140570555Y-63932847D01*
X140572115Y-63940301D01*
X140579722Y-63980208D01*
X140581738Y-64006395D01*
X140580523Y-64010971D01*
X140570115Y-64003443D01*
X140550727Y-63977123D01*
X140538022Y-63956854D01*
X140501930Y-63896329D01*
X140492593Y-63943011D01*
X140481101Y-64068496D01*
X140493142Y-64203995D01*
X140527276Y-64344136D01*
X140582067Y-64483546D01*
X140656077Y-64616854D01*
X140683912Y-64657806D01*
X140716599Y-64704287D01*
X140732989Y-64730173D01*
X140734248Y-64738435D01*
X140721542Y-64732043D01*
X140709855Y-64723953D01*
X140675149Y-64694917D01*
X140627956Y-64649735D01*
X140574505Y-64594848D01*
X140521023Y-64536694D01*
X140473738Y-64481712D01*
X140464222Y-64469976D01*
X140423189Y-64418648D01*
X140432507Y-64477309D01*
X140445230Y-64529991D01*
X140468594Y-64601589D01*
X140499844Y-64684925D01*
X140536224Y-64772822D01*
X140574981Y-64858102D01*
X140591828Y-64892451D01*
X140645402Y-64998835D01*
X140567996Y-64959799D01*
X140435606Y-64877061D01*
X140321535Y-64772996D01*
X140228011Y-64650801D01*
X140157262Y-64513672D01*
X140111517Y-64364806D01*
X140098682Y-64286662D01*
X140094999Y-64260335D01*
X140090632Y-64257068D01*
X140082466Y-64278830D01*
X140075489Y-64301327D01*
X140066251Y-64343035D01*
X140057267Y-64403262D01*
X140050055Y-64471229D01*
X140048209Y-64495158D01*
X140043049Y-64552997D01*
X140036833Y-64596863D01*
X140030538Y-64620749D01*
X140027394Y-64623192D01*
X140013952Y-64601526D01*
X140000869Y-64557673D01*
X139989244Y-64498765D01*
X139980172Y-64431935D01*
X139974750Y-64364316D01*
X139974074Y-64303042D01*
X139975217Y-64283749D01*
X139987876Y-64198707D01*
X140010719Y-64103712D01*
X140040399Y-64010049D01*
X140073566Y-63929003D01*
X140089661Y-63898036D01*
X140103174Y-63873363D01*
X140105413Y-63865346D01*
X140094932Y-63875521D01*
X140070286Y-63905426D01*
X140030030Y-63956594D01*
X140008759Y-63983970D01*
X139974906Y-64026095D01*
X139948187Y-64056474D01*
X139933208Y-64069957D01*
X139931762Y-64070021D01*
X139932141Y-64052545D01*
X139942065Y-64014964D01*
X139959123Y-63963953D01*
X139980901Y-63906189D01*
X140004987Y-63848349D01*
X140028969Y-63797109D01*
X140033642Y-63788048D01*
X140065751Y-63737079D01*
X140112310Y-63675707D01*
X140166040Y-63613231D01*
X140191433Y-63586403D01*
X140235539Y-63540640D01*
X140269671Y-63503686D01*
X140290052Y-63479740D01*
X140293758Y-63472748D01*
X140273582Y-63481159D01*
X140237338Y-63503222D01*
X140191792Y-63534176D01*
X140143708Y-63569263D01*
X140099852Y-63603724D01*
X140068967Y-63630870D01*
X140034523Y-63662321D01*
X140018039Y-63671610D01*
X140018666Y-63657845D01*
X140035557Y-63620132D01*
X140043601Y-63604150D01*
X140059640Y-63567760D01*
X140058919Y-63550427D01*
X140038995Y-63551107D01*
X139997420Y-63568758D01*
X139980392Y-63577190D01*
X139835672Y-63666240D01*
X139709051Y-63777488D01*
X139602910Y-63908370D01*
X139519631Y-64056318D01*
X139505532Y-64088683D01*
X139487224Y-64130783D01*
X139476911Y-64147796D01*
X139472464Y-64142163D01*
X139471711Y-64127463D01*
X139477454Y-64072975D01*
X139493707Y-64001231D01*
X139517943Y-63921245D01*
X139547630Y-63842034D01*
X139559395Y-63814937D01*
X139601168Y-63722808D01*
X139564442Y-63746872D01*
X139529004Y-63776861D01*
X139481891Y-63826513D01*
X139427268Y-63890805D01*
X139369301Y-63964715D01*
X139312156Y-64043222D01*
X139282250Y-64087044D01*
X139200058Y-64210695D01*
X139195445Y-64102027D01*
X139195559Y-64032013D01*
X139200474Y-63958540D01*
X139207806Y-63905369D01*
X139239809Y-63793244D01*
X139290623Y-63680257D01*
X139355665Y-63573841D01*
X139430353Y-63481428D01*
X139510105Y-63410452D01*
X139515107Y-63406929D01*
X139547088Y-63382095D01*
X139562968Y-63364222D01*
X139561981Y-63358747D01*
X139541037Y-63361586D01*
X139500713Y-63374125D01*
X139448140Y-63393526D01*
X139390451Y-63416946D01*
X139334779Y-63441546D01*
X139288255Y-63464484D01*
X139269155Y-63475361D01*
X139231723Y-63495733D01*
X139216145Y-63497525D01*
X139222250Y-63481522D01*
X139249863Y-63448508D01*
X139282449Y-63415153D01*
X139387755Y-63331064D01*
X139514674Y-63263585D01*
X139659548Y-63214433D01*
X139663150Y-63213664D01*
X141529369Y-63213664D01*
X141531382Y-63222382D01*
X141539146Y-63223441D01*
X141551217Y-63218075D01*
X141548923Y-63213664D01*
X141531519Y-63211909D01*
X141529369Y-63213664D01*
X139663150Y-63213664D01*
X139751473Y-63194810D01*
X139903984Y-63168800D01*
X139792385Y-63157927D01*
X139720546Y-63149443D01*
X139677401Y-63140543D01*
X139662316Y-63130800D01*
X139674655Y-63119789D01*
X139713783Y-63107083D01*
X139715785Y-63106562D01*
X139861880Y-63082514D01*
X140015425Y-63081973D01*
X140167889Y-63104155D01*
X140310739Y-63148279D01*
X140347871Y-63164468D01*
X140405298Y-63188903D01*
X140451949Y-63204163D01*
X140483236Y-63209216D01*
X140494567Y-63203030D01*
X140492352Y-63196962D01*
X140471135Y-63179516D01*
X140428646Y-63156165D01*
X140371575Y-63129856D01*
X140306614Y-63103536D01*
X140240452Y-63080151D01*
X140198307Y-63067461D01*
X140142601Y-63051124D01*
X140114656Y-63040190D01*
X140113495Y-63034205D01*
X140123961Y-63032855D01*
X140176527Y-63027641D01*
X140200283Y-63017856D01*
X140195523Y-63002580D01*
X140162541Y-62980893D01*
X140143595Y-62971232D01*
X140009546Y-62919685D01*
X139866249Y-62889575D01*
X139721522Y-62881752D01*
X139583184Y-62897066D01*
X139544708Y-62906135D01*
X139500238Y-62917062D01*
X139468947Y-62922898D01*
X139459236Y-62922900D01*
X139467105Y-62913575D01*
X139496550Y-62897259D01*
X139541424Y-62876539D01*
X139595580Y-62854002D01*
X139652872Y-62832232D01*
X139707153Y-62813818D01*
X139742668Y-62803644D01*
X139795060Y-62790145D01*
X139822053Y-62781532D01*
X139826694Y-62775537D01*
X139812027Y-62769895D01*
X139793996Y-62765442D01*
X139761344Y-62761053D01*
X139706017Y-62757231D01*
X139634668Y-62754292D01*
X139553951Y-62752555D01*
X139517600Y-62752254D01*
X139292532Y-62751339D01*
X139341618Y-62709495D01*
X139408197Y-62661481D01*
X139490598Y-62614610D01*
X139575856Y-62575656D01*
X139638082Y-62554566D01*
X139720683Y-62540283D01*
X139817985Y-62535165D01*
X139916834Y-62539199D01*
X140004071Y-62552374D01*
X140014443Y-62554904D01*
X140094631Y-62575628D01*
X140050636Y-62540202D01*
X140016559Y-62516417D01*
X139966019Y-62485404D01*
X139908769Y-62453087D01*
X139896652Y-62446609D01*
X139844046Y-62416641D01*
X139818868Y-62396939D01*
X139821051Y-62387556D01*
X139850529Y-62388540D01*
X139907236Y-62399944D01*
X139945145Y-62409404D01*
X140047760Y-62443741D01*
X140140583Y-62492575D01*
X140232173Y-62560874D01*
X140280388Y-62604072D01*
X140385543Y-62702829D01*
X140343884Y-62629503D01*
X140318494Y-62585879D01*
X140297229Y-62551191D01*
X140287995Y-62537492D01*
X140276756Y-62516555D01*
X140284785Y-62511909D01*
X140307581Y-62522662D01*
X140340643Y-62547919D01*
X140340668Y-62547941D01*
X140372861Y-62574637D01*
X140395703Y-62590718D01*
X140400868Y-62592840D01*
X140406111Y-62579604D01*
X140409855Y-62545608D01*
X140410962Y-62515848D01*
X140413848Y-62450233D01*
X140420208Y-62413488D01*
X140429808Y-62405698D01*
X140442415Y-62426945D01*
X140457795Y-62477310D01*
X140462775Y-62497517D01*
X140490589Y-62614838D01*
X140499849Y-62460854D01*
X140512173Y-62339798D01*
X140532975Y-62246272D01*
X140540514Y-62224464D01*
X140559819Y-62181668D01*
X140586645Y-62132080D01*
X140617174Y-62081549D01*
X140647591Y-62035922D01*
X140674077Y-62001047D01*
X140692818Y-61982772D01*
X140698676Y-61982124D01*
X140697673Y-61998374D01*
X140688591Y-62035005D01*
X140673281Y-62084798D01*
X140669285Y-62096733D01*
X140645049Y-62171781D01*
X140627750Y-62233075D01*
X140618384Y-62276509D01*
X140617950Y-62297974D01*
X140620017Y-62299538D01*
X140630815Y-62288025D01*
X140650639Y-62258587D01*
X140664652Y-62235497D01*
X140707741Y-62176591D01*
X140768173Y-62112693D01*
X140837078Y-62051973D01*
X140905587Y-62002600D01*
X140936882Y-61984741D01*
X141026739Y-61946215D01*
X141118145Y-61919313D01*
X141201331Y-61906571D01*
X141238555Y-61906413D01*
X141306022Y-61910912D01*
G37*
%TD*%
%LPC*%
D12*
%TO.C,REF\u002A\u002A*%
X100500000Y-116500000D03*
%TD*%
%TO.C,REF\u002A\u002A*%
X179500000Y-61500000D03*
%TD*%
%LPD*%
M02*
