%TF.GenerationSoftware,KiCad,Pcbnew,7.0.8*%
%TF.CreationDate,2024-06-06T18:23:22-04:00*%
%TF.ProjectId, bottom_board,20626f74-746f-46d5-9f62-6f6172642e6b,rev?*%
%TF.SameCoordinates,Original*%
%TF.FileFunction,Copper,L2,Bot*%
%TF.FilePolarity,Positive*%
%FSLAX46Y46*%
G04 Gerber Fmt 4.6, Leading zero omitted, Abs format (unit mm)*
G04 Created by KiCad (PCBNEW 7.0.8) date 2024-06-06 18:23:22*
%MOMM*%
%LPD*%
G01*
G04 APERTURE LIST*
G04 APERTURE END LIST*
%TA.AperFunction,Conductor*%
%TO.N,GND*%
G36*
X179501513Y-58000575D02*
G01*
X179567131Y-58003797D01*
X179652481Y-58007990D01*
X179846607Y-58018164D01*
X179852409Y-58018745D01*
X180021733Y-58043862D01*
X180197594Y-58071716D01*
X180202929Y-58072804D01*
X180372209Y-58115206D01*
X180541341Y-58160525D01*
X180546122Y-58162018D01*
X180711894Y-58221332D01*
X180874263Y-58283660D01*
X180878543Y-58285492D01*
X180964073Y-58325944D01*
X181038476Y-58361134D01*
X181192992Y-58439864D01*
X181196720Y-58441928D01*
X181348967Y-58533180D01*
X181494262Y-58627537D01*
X181497428Y-58629736D01*
X181640323Y-58735714D01*
X181774975Y-58844752D01*
X181777594Y-58846997D01*
X181908517Y-58965658D01*
X181910721Y-58967757D01*
X182032241Y-59089277D01*
X182034340Y-59091481D01*
X182153001Y-59222404D01*
X182155246Y-59225023D01*
X182264285Y-59359676D01*
X182370262Y-59502570D01*
X182372461Y-59505736D01*
X182466822Y-59651038D01*
X182558070Y-59803278D01*
X182560133Y-59807006D01*
X182638868Y-59961529D01*
X182714506Y-60121455D01*
X182716342Y-60125746D01*
X182778672Y-60288120D01*
X182787616Y-60313116D01*
X182837970Y-60453847D01*
X182839479Y-60458678D01*
X182884793Y-60627790D01*
X182927191Y-60797056D01*
X182928286Y-60802424D01*
X182956145Y-60978317D01*
X182981250Y-61147560D01*
X182981836Y-61153416D01*
X182992011Y-61347561D01*
X182999425Y-61498488D01*
X182999500Y-61501530D01*
X182999500Y-116498469D01*
X182999425Y-116501511D01*
X182992011Y-116652438D01*
X182981836Y-116846582D01*
X182981250Y-116852438D01*
X182956145Y-117021682D01*
X182928286Y-117197574D01*
X182927191Y-117202942D01*
X182884793Y-117372209D01*
X182839479Y-117541320D01*
X182837967Y-117546163D01*
X182778672Y-117711879D01*
X182716342Y-117874252D01*
X182714507Y-117878543D01*
X182638868Y-118038470D01*
X182560133Y-118192992D01*
X182558070Y-118196720D01*
X182466822Y-118348961D01*
X182372461Y-118494262D01*
X182370262Y-118497428D01*
X182264285Y-118640323D01*
X182155245Y-118774975D01*
X182153001Y-118777594D01*
X182034340Y-118908517D01*
X182032241Y-118910721D01*
X181910721Y-119032241D01*
X181908517Y-119034340D01*
X181777594Y-119153001D01*
X181774975Y-119155245D01*
X181640323Y-119264285D01*
X181497428Y-119370262D01*
X181494262Y-119372461D01*
X181348961Y-119466822D01*
X181196720Y-119558070D01*
X181192992Y-119560133D01*
X181038470Y-119638868D01*
X180878543Y-119714507D01*
X180874252Y-119716342D01*
X180711879Y-119778672D01*
X180546163Y-119837967D01*
X180541320Y-119839479D01*
X180372209Y-119884793D01*
X180202942Y-119927191D01*
X180197574Y-119928286D01*
X180021682Y-119956145D01*
X179852438Y-119981250D01*
X179846582Y-119981836D01*
X179652438Y-119992011D01*
X179501513Y-119999425D01*
X179498470Y-119999500D01*
X100501530Y-119999500D01*
X100498488Y-119999425D01*
X100347561Y-119992011D01*
X100153416Y-119981836D01*
X100147560Y-119981250D01*
X99978317Y-119956145D01*
X99802424Y-119928286D01*
X99797056Y-119927191D01*
X99627790Y-119884793D01*
X99458678Y-119839479D01*
X99453847Y-119837970D01*
X99347307Y-119799850D01*
X99288120Y-119778672D01*
X99125746Y-119716342D01*
X99121455Y-119714506D01*
X98961529Y-119638868D01*
X98807006Y-119560133D01*
X98803278Y-119558070D01*
X98651038Y-119466822D01*
X98505736Y-119372461D01*
X98502570Y-119370262D01*
X98359676Y-119264285D01*
X98225023Y-119155246D01*
X98222404Y-119153001D01*
X98091481Y-119034340D01*
X98089277Y-119032241D01*
X97967757Y-118910721D01*
X97965658Y-118908517D01*
X97846997Y-118777594D01*
X97844752Y-118774975D01*
X97735714Y-118640323D01*
X97629736Y-118497428D01*
X97627537Y-118494262D01*
X97533177Y-118348961D01*
X97441928Y-118196720D01*
X97439864Y-118192992D01*
X97401675Y-118118042D01*
X97361131Y-118038470D01*
X97325944Y-117964073D01*
X97285492Y-117878543D01*
X97283656Y-117874252D01*
X97250479Y-117787824D01*
X97221327Y-117711879D01*
X97162018Y-117546122D01*
X97160525Y-117541341D01*
X97115206Y-117372209D01*
X97072804Y-117202929D01*
X97071716Y-117197594D01*
X97043854Y-117021682D01*
X97018745Y-116852409D01*
X97018164Y-116846607D01*
X97007989Y-116652438D01*
X97003828Y-116567763D01*
X98645787Y-116567763D01*
X98675413Y-116837013D01*
X98675415Y-116837024D01*
X98723691Y-117021682D01*
X98743928Y-117099088D01*
X98849870Y-117348390D01*
X98967614Y-117541320D01*
X98990979Y-117579605D01*
X98990986Y-117579615D01*
X99164253Y-117787819D01*
X99164259Y-117787824D01*
X99260719Y-117874252D01*
X99365998Y-117968582D01*
X99591910Y-118118044D01*
X99837176Y-118233020D01*
X99837183Y-118233022D01*
X99837185Y-118233023D01*
X100096557Y-118311057D01*
X100096564Y-118311058D01*
X100096569Y-118311060D01*
X100364561Y-118350500D01*
X100364566Y-118350500D01*
X100567636Y-118350500D01*
X100619133Y-118346730D01*
X100770156Y-118335677D01*
X100882758Y-118310593D01*
X101034546Y-118276782D01*
X101034548Y-118276781D01*
X101034553Y-118276780D01*
X101287558Y-118180014D01*
X101523777Y-118047441D01*
X101738177Y-117881888D01*
X101926186Y-117686881D01*
X102083799Y-117466579D01*
X102157787Y-117322669D01*
X102207649Y-117225690D01*
X102207651Y-117225684D01*
X102207656Y-117225675D01*
X102295118Y-116969305D01*
X102344319Y-116702933D01*
X102354212Y-116432235D01*
X102324586Y-116162982D01*
X102256072Y-115900912D01*
X102150130Y-115651610D01*
X102009018Y-115420390D01*
X101919747Y-115313119D01*
X101835746Y-115212180D01*
X101835740Y-115212175D01*
X101634002Y-115031418D01*
X101408092Y-114881957D01*
X101408090Y-114881956D01*
X101162824Y-114766980D01*
X101162819Y-114766978D01*
X101162814Y-114766976D01*
X100903442Y-114688942D01*
X100903428Y-114688939D01*
X100787791Y-114671921D01*
X100635439Y-114649500D01*
X100432369Y-114649500D01*
X100432364Y-114649500D01*
X100229844Y-114664323D01*
X100229831Y-114664325D01*
X99965453Y-114723217D01*
X99965446Y-114723220D01*
X99712439Y-114819987D01*
X99476226Y-114952557D01*
X99261822Y-115118112D01*
X99073822Y-115313109D01*
X99073816Y-115313116D01*
X98916202Y-115533419D01*
X98916199Y-115533424D01*
X98792350Y-115774309D01*
X98792343Y-115774327D01*
X98704884Y-116030685D01*
X98704881Y-116030699D01*
X98655681Y-116297068D01*
X98655680Y-116297075D01*
X98645787Y-116567763D01*
X97003828Y-116567763D01*
X97003797Y-116567131D01*
X97000575Y-116501513D01*
X97000500Y-116498471D01*
X97000500Y-61567763D01*
X177645787Y-61567763D01*
X177675413Y-61837013D01*
X177675415Y-61837024D01*
X177743926Y-62099082D01*
X177743928Y-62099088D01*
X177849870Y-62348390D01*
X177921998Y-62466575D01*
X177990979Y-62579605D01*
X177990986Y-62579615D01*
X178164253Y-62787819D01*
X178164259Y-62787824D01*
X178365998Y-62968582D01*
X178591910Y-63118044D01*
X178837176Y-63233020D01*
X178837183Y-63233022D01*
X178837185Y-63233023D01*
X179096557Y-63311057D01*
X179096564Y-63311058D01*
X179096569Y-63311060D01*
X179364561Y-63350500D01*
X179364566Y-63350500D01*
X179567636Y-63350500D01*
X179619133Y-63346730D01*
X179770156Y-63335677D01*
X179882758Y-63310593D01*
X180034546Y-63276782D01*
X180034548Y-63276781D01*
X180034553Y-63276780D01*
X180287558Y-63180014D01*
X180523777Y-63047441D01*
X180738177Y-62881888D01*
X180926186Y-62686881D01*
X181083799Y-62466579D01*
X181157787Y-62322669D01*
X181207649Y-62225690D01*
X181207651Y-62225684D01*
X181207656Y-62225675D01*
X181295118Y-61969305D01*
X181344319Y-61702933D01*
X181354212Y-61432235D01*
X181324586Y-61162982D01*
X181256072Y-60900912D01*
X181150130Y-60651610D01*
X181009018Y-60420390D01*
X181007845Y-60418981D01*
X180835746Y-60212180D01*
X180835740Y-60212175D01*
X180634002Y-60031418D01*
X180408092Y-59881957D01*
X180408090Y-59881956D01*
X180162824Y-59766980D01*
X180162819Y-59766978D01*
X180162814Y-59766976D01*
X179903442Y-59688942D01*
X179903428Y-59688939D01*
X179787791Y-59671921D01*
X179635439Y-59649500D01*
X179432369Y-59649500D01*
X179432364Y-59649500D01*
X179229844Y-59664323D01*
X179229831Y-59664325D01*
X178965453Y-59723217D01*
X178965446Y-59723220D01*
X178712439Y-59819987D01*
X178476226Y-59952557D01*
X178476224Y-59952558D01*
X178476223Y-59952559D01*
X178413893Y-60000688D01*
X178261822Y-60118112D01*
X178073822Y-60313109D01*
X178073816Y-60313116D01*
X177916202Y-60533419D01*
X177916199Y-60533424D01*
X177792350Y-60774309D01*
X177792343Y-60774327D01*
X177704884Y-61030685D01*
X177704881Y-61030699D01*
X177655681Y-61297068D01*
X177655680Y-61297075D01*
X177645787Y-61567763D01*
X97000500Y-61567763D01*
X97000500Y-61501528D01*
X97000575Y-61498486D01*
X97003829Y-61432235D01*
X97007995Y-61347421D01*
X97018164Y-61153388D01*
X97018744Y-61147594D01*
X97043858Y-60978287D01*
X97071717Y-60802396D01*
X97072801Y-60797083D01*
X97115210Y-60627776D01*
X97160529Y-60458644D01*
X97162013Y-60453891D01*
X97221338Y-60288089D01*
X97283668Y-60125717D01*
X97285492Y-60121455D01*
X97287073Y-60118112D01*
X97361145Y-59961499D01*
X97439877Y-59806982D01*
X97441915Y-59803299D01*
X97533192Y-59651013D01*
X97627560Y-59505701D01*
X97629724Y-59502586D01*
X97735718Y-59359670D01*
X97844785Y-59224983D01*
X97846970Y-59222434D01*
X97965703Y-59091433D01*
X97967717Y-59089318D01*
X98089318Y-58967717D01*
X98091433Y-58965703D01*
X98222434Y-58846970D01*
X98224983Y-58844785D01*
X98359656Y-58735728D01*
X98502586Y-58629724D01*
X98505701Y-58627560D01*
X98651013Y-58533192D01*
X98803299Y-58441915D01*
X98806982Y-58439877D01*
X98961499Y-58361145D01*
X99121462Y-58285488D01*
X99125717Y-58283668D01*
X99288089Y-58221338D01*
X99453891Y-58162013D01*
X99458644Y-58160529D01*
X99627776Y-58115210D01*
X99797083Y-58072801D01*
X99802396Y-58071717D01*
X99978287Y-58043858D01*
X100147594Y-58018744D01*
X100153388Y-58018164D01*
X100347421Y-58007995D01*
X100445332Y-58003185D01*
X100498487Y-58000575D01*
X100501529Y-58000500D01*
X179498471Y-58000500D01*
X179501513Y-58000575D01*
G37*
%TD.AperFunction*%
%TD*%
M02*
