%TF.GenerationSoftware,KiCad,Pcbnew,7.0.8*%
%TF.CreationDate,2024-06-03T09:11:21-04:00*%
%TF.ProjectId,mainboard,6d61696e-626f-4617-9264-2e6b69636164,rev?*%
%TF.SameCoordinates,Original*%
%TF.FileFunction,Soldermask,Top*%
%TF.FilePolarity,Negative*%
%FSLAX46Y46*%
G04 Gerber Fmt 4.6, Leading zero omitted, Abs format (unit mm)*
G04 Created by KiCad (PCBNEW 7.0.8) date 2024-06-03 09:11:21*
%MOMM*%
%LPD*%
G01*
G04 APERTURE LIST*
G04 Aperture macros list*
%AMRoundRect*
0 Rectangle with rounded corners*
0 $1 Rounding radius*
0 $2 $3 $4 $5 $6 $7 $8 $9 X,Y pos of 4 corners*
0 Add a 4 corners polygon primitive as box body*
4,1,4,$2,$3,$4,$5,$6,$7,$8,$9,$2,$3,0*
0 Add four circle primitives for the rounded corners*
1,1,$1+$1,$2,$3*
1,1,$1+$1,$4,$5*
1,1,$1+$1,$6,$7*
1,1,$1+$1,$8,$9*
0 Add four rect primitives between the rounded corners*
20,1,$1+$1,$2,$3,$4,$5,0*
20,1,$1+$1,$4,$5,$6,$7,0*
20,1,$1+$1,$6,$7,$8,$9,0*
20,1,$1+$1,$8,$9,$2,$3,0*%
G04 Aperture macros list end*
%ADD10RoundRect,0.100000X0.100000X-0.637500X0.100000X0.637500X-0.100000X0.637500X-0.100000X-0.637500X0*%
%ADD11RoundRect,0.200000X-0.275000X0.200000X-0.275000X-0.200000X0.275000X-0.200000X0.275000X0.200000X0*%
%ADD12C,4.000000*%
%ADD13C,1.800000*%
%ADD14C,3.200000*%
%ADD15C,2.000000*%
%ADD16RoundRect,0.250000X-0.550000X1.500000X-0.550000X-1.500000X0.550000X-1.500000X0.550000X1.500000X0*%
%ADD17R,1.700000X1.700000*%
%ADD18C,1.700000*%
%ADD19RoundRect,0.250000X-0.475000X0.250000X-0.475000X-0.250000X0.475000X-0.250000X0.475000X0.250000X0*%
%ADD20RoundRect,0.225000X0.225000X0.250000X-0.225000X0.250000X-0.225000X-0.250000X0.225000X-0.250000X0*%
%ADD21O,1.700000X1.700000*%
%ADD22RoundRect,0.200000X0.275000X-0.200000X0.275000X0.200000X-0.275000X0.200000X-0.275000X-0.200000X0*%
%ADD23RoundRect,0.112500X0.112500X-0.187500X0.112500X0.187500X-0.112500X0.187500X-0.112500X-0.187500X0*%
%ADD24O,3.400000X1.800000*%
%ADD25R,0.800000X0.300000*%
G04 APERTURE END LIST*
D10*
%TO.C,U1*%
X145550000Y-76145434D03*
X146200000Y-76145434D03*
X146850000Y-76145434D03*
X147500000Y-76145434D03*
X148150000Y-76145434D03*
X148800000Y-76145434D03*
X149450000Y-76145434D03*
X149450000Y-70420434D03*
X148800000Y-70420434D03*
X148150000Y-70420434D03*
X147500000Y-70420434D03*
X146850000Y-70420434D03*
X146200000Y-70420434D03*
X145550000Y-70420434D03*
%TD*%
D11*
%TO.C,R1*%
X124800000Y-73175000D03*
X124800000Y-74825000D03*
%TD*%
D12*
%TO.C,RV2*%
X164100000Y-71000000D03*
X172900000Y-71000000D03*
D13*
X171000000Y-78000000D03*
X168500000Y-78000000D03*
X166000000Y-78000000D03*
%TD*%
D14*
%TO.C,REF\u002A\u002A*%
X100500000Y-61500000D03*
%TD*%
D15*
%TO.C,U3*%
X121810000Y-83570000D03*
X124350000Y-83570000D03*
X126890000Y-83570000D03*
X129430000Y-83570000D03*
X131970000Y-83570000D03*
X134510000Y-83570000D03*
X137050000Y-83570000D03*
X139590000Y-83570000D03*
X142130000Y-83570000D03*
X144670000Y-83570000D03*
X147210000Y-83570000D03*
X149750000Y-83570000D03*
X121810000Y-106430000D03*
X124350000Y-106430000D03*
X126890000Y-106430000D03*
X129430000Y-106430000D03*
X131970000Y-106430000D03*
X134510000Y-106430000D03*
X137050000Y-106430000D03*
X139590000Y-106430000D03*
X142130000Y-106430000D03*
X144670000Y-106430000D03*
X147210000Y-106430000D03*
X149750000Y-106430000D03*
%TD*%
D16*
%TO.C,C5*%
X122600000Y-63300000D03*
X122600000Y-68700000D03*
%TD*%
D17*
%TO.C,SW5*%
X160250000Y-116500000D03*
D18*
X160250000Y-110000000D03*
X164750000Y-116500000D03*
X164750000Y-110000000D03*
%TD*%
D19*
%TO.C,C4*%
X135000000Y-73050000D03*
X135000000Y-74950000D03*
%TD*%
D20*
%TO.C,C2*%
X143025000Y-75000000D03*
X141475000Y-75000000D03*
%TD*%
D17*
%TO.C,J5*%
X156950000Y-62225000D03*
D21*
X159490000Y-62225000D03*
X162030000Y-62225000D03*
X164570000Y-62225000D03*
X167110000Y-62225000D03*
%TD*%
D14*
%TO.C,REF\u002A\u002A*%
X140000000Y-67000000D03*
%TD*%
D18*
%TO.C,J2*%
X110000000Y-99000000D03*
%TD*%
D17*
%TO.C,SW3*%
X130250000Y-116500000D03*
D18*
X130250000Y-110000000D03*
X134750000Y-116500000D03*
X134750000Y-110000000D03*
%TD*%
D17*
%TO.C,J3*%
X134000000Y-64000000D03*
D21*
X131460000Y-64000000D03*
X128920000Y-64000000D03*
%TD*%
D17*
%TO.C,SW4*%
X145250000Y-116500000D03*
D18*
X145250000Y-110000000D03*
X149750000Y-116500000D03*
X149750000Y-110000000D03*
%TD*%
D22*
%TO.C,R3*%
X152000000Y-78317554D03*
X152000000Y-76667554D03*
%TD*%
D17*
%TO.C,SW2*%
X119750000Y-110000000D03*
D18*
X119750000Y-116500000D03*
X115250000Y-110000000D03*
X115250000Y-116500000D03*
%TD*%
%TO.C,J1*%
X110000000Y-114000000D03*
%TD*%
D14*
%TO.C,REF\u002A\u002A*%
X100500000Y-116500000D03*
%TD*%
D23*
%TO.C,D1*%
X131400000Y-75050000D03*
X131400000Y-72950000D03*
%TD*%
D19*
%TO.C,C3*%
X128000000Y-73050000D03*
X128000000Y-74950000D03*
%TD*%
D14*
%TO.C,REF\u002A\u002A*%
X179500000Y-116500000D03*
%TD*%
D24*
%TO.C,SW1*%
X104000000Y-99700000D03*
X104000000Y-95000000D03*
X104000000Y-90300000D03*
%TD*%
D14*
%TO.C,REF\u002A\u002A*%
X179500000Y-61500000D03*
%TD*%
D22*
%TO.C,R2*%
X122800000Y-74825000D03*
X122800000Y-73175000D03*
%TD*%
D12*
%TO.C,RV1*%
X107100000Y-71000000D03*
X115900000Y-71000000D03*
D13*
X114000000Y-78000000D03*
X111500000Y-78000000D03*
X109000000Y-78000000D03*
%TD*%
D17*
%TO.C,J4*%
X151080000Y-64000000D03*
D21*
X148540000Y-64000000D03*
X146000000Y-64000000D03*
%TD*%
D25*
%TO.C,U2*%
X154200000Y-73750000D03*
X154200000Y-74250000D03*
X154200000Y-74750000D03*
X154200000Y-75250000D03*
X157300000Y-75250000D03*
X157300000Y-74750000D03*
X157300000Y-74250000D03*
X157300000Y-73750000D03*
%TD*%
D14*
%TO.C,REF\u002A\u002A*%
X140000000Y-112000000D03*
%TD*%
D20*
%TO.C,C1*%
X143025000Y-73000000D03*
X141475000Y-73000000D03*
%TD*%
M02*
