%TF.GenerationSoftware,KiCad,Pcbnew,7.0.8*%
%TF.CreationDate,2024-05-14T18:15:29-04:00*%
%TF.ProjectId,mainboard,6d61696e-626f-4617-9264-2e6b69636164,rev?*%
%TF.SameCoordinates,Original*%
%TF.FileFunction,Soldermask,Top*%
%TF.FilePolarity,Negative*%
%FSLAX46Y46*%
G04 Gerber Fmt 4.6, Leading zero omitted, Abs format (unit mm)*
G04 Created by KiCad (PCBNEW 7.0.8) date 2024-05-14 18:15:29*
%MOMM*%
%LPD*%
G01*
G04 APERTURE LIST*
G04 Aperture macros list*
%AMRoundRect*
0 Rectangle with rounded corners*
0 $1 Rounding radius*
0 $2 $3 $4 $5 $6 $7 $8 $9 X,Y pos of 4 corners*
0 Add a 4 corners polygon primitive as box body*
4,1,4,$2,$3,$4,$5,$6,$7,$8,$9,$2,$3,0*
0 Add four circle primitives for the rounded corners*
1,1,$1+$1,$2,$3*
1,1,$1+$1,$4,$5*
1,1,$1+$1,$6,$7*
1,1,$1+$1,$8,$9*
0 Add four rect primitives between the rounded corners*
20,1,$1+$1,$2,$3,$4,$5,0*
20,1,$1+$1,$4,$5,$6,$7,0*
20,1,$1+$1,$6,$7,$8,$9,0*
20,1,$1+$1,$8,$9,$2,$3,0*%
G04 Aperture macros list end*
%ADD10RoundRect,0.100000X0.100000X-0.637500X0.100000X0.637500X-0.100000X0.637500X-0.100000X-0.637500X0*%
%ADD11RoundRect,0.200000X-0.200000X-0.275000X0.200000X-0.275000X0.200000X0.275000X-0.200000X0.275000X0*%
%ADD12C,4.000000*%
%ADD13C,1.800000*%
%ADD14C,3.200000*%
%ADD15C,2.000000*%
%ADD16R,1.700000X1.700000*%
%ADD17C,1.700000*%
%ADD18RoundRect,0.225000X0.225000X0.250000X-0.225000X0.250000X-0.225000X-0.250000X0.225000X-0.250000X0*%
%ADD19RoundRect,0.225000X-0.250000X0.225000X-0.250000X-0.225000X0.250000X-0.225000X0.250000X0.225000X0*%
%ADD20O,1.700000X1.700000*%
%ADD21RoundRect,0.200000X0.275000X-0.200000X0.275000X0.200000X-0.275000X0.200000X-0.275000X-0.200000X0*%
%ADD22O,3.400000X1.800000*%
%ADD23R,1.500000X2.000000*%
%ADD24R,3.800000X2.000000*%
%ADD25R,0.300000X0.800000*%
G04 APERTURE END LIST*
D10*
%TO.C,U1*%
X145550000Y-76145434D03*
X146200000Y-76145434D03*
X146850000Y-76145434D03*
X147500000Y-76145434D03*
X148150000Y-76145434D03*
X148800000Y-76145434D03*
X149450000Y-76145434D03*
X149450000Y-70420434D03*
X148800000Y-70420434D03*
X148150000Y-70420434D03*
X147500000Y-70420434D03*
X146850000Y-70420434D03*
X146200000Y-70420434D03*
X145550000Y-70420434D03*
%TD*%
D11*
%TO.C,R2*%
X104335000Y-81532934D03*
X105985000Y-81532934D03*
%TD*%
D12*
%TO.C,RV2*%
X164100000Y-71000000D03*
X172900000Y-71000000D03*
D13*
X171000000Y-78000000D03*
X168500000Y-78000000D03*
X166000000Y-78000000D03*
%TD*%
D14*
%TO.C,REF\u002A\u002A*%
X100500000Y-61500000D03*
%TD*%
D15*
%TO.C,U3*%
X120890000Y-83548135D03*
X123430000Y-83548135D03*
X125970000Y-83548135D03*
X128510000Y-83548135D03*
X131050000Y-83548135D03*
X133590000Y-83548135D03*
X136130000Y-83548135D03*
X138670000Y-83548135D03*
X141210000Y-83548135D03*
X143750000Y-83548135D03*
X146290000Y-83548135D03*
X148830000Y-83548135D03*
X120890000Y-106409999D03*
X123430000Y-106409999D03*
X125970000Y-106409999D03*
X128510000Y-106409999D03*
X131050000Y-106409999D03*
X133590000Y-106409999D03*
X136130000Y-106409999D03*
X138670000Y-106409999D03*
X141210000Y-106409999D03*
X143750000Y-106409999D03*
X146290000Y-106409999D03*
X148830000Y-106409999D03*
%TD*%
D16*
%TO.C,SW5*%
X160750000Y-111000000D03*
D17*
X167250000Y-111000000D03*
X160750000Y-115500000D03*
X167250000Y-115500000D03*
%TD*%
D18*
%TO.C,C3*%
X143025000Y-75000000D03*
X141475000Y-75000000D03*
%TD*%
D19*
%TO.C,C4*%
X134250000Y-72725000D03*
X134250000Y-74275000D03*
%TD*%
D14*
%TO.C,REF\u002A\u002A*%
X140000000Y-67000000D03*
%TD*%
D16*
%TO.C,SW2*%
X128750000Y-111000000D03*
D17*
X135250000Y-111000000D03*
X128750000Y-115500000D03*
X135250000Y-115500000D03*
%TD*%
D16*
%TO.C,J2*%
X134000000Y-64000000D03*
D20*
X131460000Y-64000000D03*
X128920000Y-64000000D03*
%TD*%
D16*
%TO.C,SW3*%
X144750000Y-111000000D03*
D17*
X151250000Y-111000000D03*
X144750000Y-115500000D03*
X151250000Y-115500000D03*
%TD*%
D21*
%TO.C,R1*%
X152000000Y-78317554D03*
X152000000Y-76667554D03*
%TD*%
D16*
%TO.C,SW1*%
X112750000Y-111000000D03*
D17*
X119250000Y-111000000D03*
X112750000Y-115500000D03*
X119250000Y-115500000D03*
%TD*%
D14*
%TO.C,REF\u002A\u002A*%
X100500000Y-116500000D03*
%TD*%
D19*
%TO.C,C1*%
X120410000Y-75507934D03*
X120410000Y-77057934D03*
%TD*%
D14*
%TO.C,REF\u002A\u002A*%
X179500000Y-116500000D03*
%TD*%
D22*
%TO.C,SW4*%
X104000000Y-99700000D03*
X104000000Y-95000000D03*
X104000000Y-90300000D03*
%TD*%
D14*
%TO.C,REF\u002A\u002A*%
X179500000Y-61500000D03*
%TD*%
D11*
%TO.C,R3*%
X108090000Y-81532934D03*
X109740000Y-81532934D03*
%TD*%
D12*
%TO.C,RV1*%
X107100000Y-71000000D03*
X115900000Y-71000000D03*
D13*
X114000000Y-78000000D03*
X111500000Y-78000000D03*
X109000000Y-78000000D03*
%TD*%
D16*
%TO.C,J3*%
X151080000Y-64000000D03*
D20*
X148540000Y-64000000D03*
X146000000Y-64000000D03*
%TD*%
D23*
%TO.C,U5*%
X129210000Y-73882934D03*
X126910000Y-73882934D03*
D24*
X126910000Y-80182934D03*
D23*
X124610000Y-73882934D03*
%TD*%
D25*
%TO.C,U2*%
X155000000Y-77792554D03*
X155500000Y-77792554D03*
X156000000Y-77792554D03*
X156500000Y-77792554D03*
X156500000Y-74692554D03*
X156000000Y-74692554D03*
X155500000Y-74692554D03*
X155000000Y-74692554D03*
%TD*%
D14*
%TO.C,REF\u002A\u002A*%
X140000000Y-112000000D03*
%TD*%
D16*
%TO.C,J1*%
X102000000Y-108000000D03*
D20*
X102000000Y-105460000D03*
%TD*%
D18*
%TO.C,C2*%
X143025000Y-73000000D03*
X141475000Y-73000000D03*
%TD*%
M02*
