%TF.GenerationSoftware,KiCad,Pcbnew,7.0.8*%
%TF.CreationDate,2024-05-14T18:15:29-04:00*%
%TF.ProjectId,mainboard,6d61696e-626f-4617-9264-2e6b69636164,rev?*%
%TF.SameCoordinates,Original*%
%TF.FileFunction,Legend,Top*%
%TF.FilePolarity,Positive*%
%FSLAX46Y46*%
G04 Gerber Fmt 4.6, Leading zero omitted, Abs format (unit mm)*
G04 Created by KiCad (PCBNEW 7.0.8) date 2024-05-14 18:15:29*
%MOMM*%
%LPD*%
G01*
G04 APERTURE LIST*
G04 Aperture macros list*
%AMRoundRect*
0 Rectangle with rounded corners*
0 $1 Rounding radius*
0 $2 $3 $4 $5 $6 $7 $8 $9 X,Y pos of 4 corners*
0 Add a 4 corners polygon primitive as box body*
4,1,4,$2,$3,$4,$5,$6,$7,$8,$9,$2,$3,0*
0 Add four circle primitives for the rounded corners*
1,1,$1+$1,$2,$3*
1,1,$1+$1,$4,$5*
1,1,$1+$1,$6,$7*
1,1,$1+$1,$8,$9*
0 Add four rect primitives between the rounded corners*
20,1,$1+$1,$2,$3,$4,$5,0*
20,1,$1+$1,$4,$5,$6,$7,0*
20,1,$1+$1,$6,$7,$8,$9,0*
20,1,$1+$1,$8,$9,$2,$3,0*%
G04 Aperture macros list end*
%ADD10C,0.300000*%
%ADD11C,0.150000*%
%ADD12C,0.100000*%
%ADD13C,0.120000*%
%ADD14RoundRect,0.100000X0.100000X-0.637500X0.100000X0.637500X-0.100000X0.637500X-0.100000X-0.637500X0*%
%ADD15RoundRect,0.200000X-0.200000X-0.275000X0.200000X-0.275000X0.200000X0.275000X-0.200000X0.275000X0*%
%ADD16C,4.000000*%
%ADD17C,1.800000*%
%ADD18C,3.200000*%
%ADD19C,2.000000*%
%ADD20R,1.700000X1.700000*%
%ADD21C,1.700000*%
%ADD22RoundRect,0.225000X0.225000X0.250000X-0.225000X0.250000X-0.225000X-0.250000X0.225000X-0.250000X0*%
%ADD23RoundRect,0.225000X-0.250000X0.225000X-0.250000X-0.225000X0.250000X-0.225000X0.250000X0.225000X0*%
%ADD24O,1.700000X1.700000*%
%ADD25RoundRect,0.200000X0.275000X-0.200000X0.275000X0.200000X-0.275000X0.200000X-0.275000X-0.200000X0*%
%ADD26O,3.400000X1.800000*%
%ADD27R,1.500000X2.000000*%
%ADD28R,3.800000X2.000000*%
%ADD29R,0.300000X0.800000*%
G04 APERTURE END LIST*
D10*
X99054510Y-107979400D02*
X100197368Y-107979400D01*
X99625939Y-108550828D02*
X99625939Y-107407971D01*
X99479400Y-105695489D02*
X99479400Y-104552632D01*
D11*
X154634819Y-98280039D02*
X155444342Y-98280039D01*
X155444342Y-98280039D02*
X155539580Y-98232420D01*
X155539580Y-98232420D02*
X155587200Y-98184801D01*
X155587200Y-98184801D02*
X155634819Y-98089563D01*
X155634819Y-98089563D02*
X155634819Y-97899087D01*
X155634819Y-97899087D02*
X155587200Y-97803849D01*
X155587200Y-97803849D02*
X155539580Y-97756230D01*
X155539580Y-97756230D02*
X155444342Y-97708611D01*
X155444342Y-97708611D02*
X154634819Y-97708611D01*
X154634819Y-97327658D02*
X154634819Y-96708611D01*
X154634819Y-96708611D02*
X155015771Y-97041944D01*
X155015771Y-97041944D02*
X155015771Y-96899087D01*
X155015771Y-96899087D02*
X155063390Y-96803849D01*
X155063390Y-96803849D02*
X155111009Y-96756230D01*
X155111009Y-96756230D02*
X155206247Y-96708611D01*
X155206247Y-96708611D02*
X155444342Y-96708611D01*
X155444342Y-96708611D02*
X155539580Y-96756230D01*
X155539580Y-96756230D02*
X155587200Y-96803849D01*
X155587200Y-96803849D02*
X155634819Y-96899087D01*
X155634819Y-96899087D02*
X155634819Y-97184801D01*
X155634819Y-97184801D02*
X155587200Y-97280039D01*
X155587200Y-97280039D02*
X155539580Y-97327658D01*
D12*
X133908633Y-86221468D02*
X133908633Y-86621468D01*
X133908633Y-86421468D02*
X133208633Y-86421468D01*
X133208633Y-86421468D02*
X133308633Y-86488135D01*
X133308633Y-86488135D02*
X133375300Y-86554802D01*
X133375300Y-86554802D02*
X133408633Y-86621468D01*
X133908633Y-85554801D02*
X133908633Y-85954801D01*
X133908633Y-85754801D02*
X133208633Y-85754801D01*
X133208633Y-85754801D02*
X133308633Y-85821468D01*
X133308633Y-85821468D02*
X133375300Y-85888135D01*
X133375300Y-85888135D02*
X133408633Y-85954801D01*
X136381966Y-89044801D02*
X136415300Y-89078134D01*
X136415300Y-89078134D02*
X136448633Y-89178134D01*
X136448633Y-89178134D02*
X136448633Y-89244801D01*
X136448633Y-89244801D02*
X136415300Y-89344801D01*
X136415300Y-89344801D02*
X136348633Y-89411468D01*
X136348633Y-89411468D02*
X136281966Y-89444801D01*
X136281966Y-89444801D02*
X136148633Y-89478134D01*
X136148633Y-89478134D02*
X136048633Y-89478134D01*
X136048633Y-89478134D02*
X135915300Y-89444801D01*
X135915300Y-89444801D02*
X135848633Y-89411468D01*
X135848633Y-89411468D02*
X135781966Y-89344801D01*
X135781966Y-89344801D02*
X135748633Y-89244801D01*
X135748633Y-89244801D02*
X135748633Y-89178134D01*
X135748633Y-89178134D02*
X135781966Y-89078134D01*
X135781966Y-89078134D02*
X135815300Y-89044801D01*
X136448633Y-88411468D02*
X136448633Y-88744801D01*
X136448633Y-88744801D02*
X135748633Y-88744801D01*
X136448633Y-88178134D02*
X135748633Y-88178134D01*
X136448633Y-87778134D02*
X136048633Y-88078134D01*
X135748633Y-87778134D02*
X136148633Y-88178134D01*
X133908633Y-88811468D02*
X133208633Y-88811468D01*
X133208633Y-88811468D02*
X133208633Y-88644801D01*
X133208633Y-88644801D02*
X133241966Y-88544801D01*
X133241966Y-88544801D02*
X133308633Y-88478135D01*
X133308633Y-88478135D02*
X133375300Y-88444801D01*
X133375300Y-88444801D02*
X133508633Y-88411468D01*
X133508633Y-88411468D02*
X133608633Y-88411468D01*
X133608633Y-88411468D02*
X133741966Y-88444801D01*
X133741966Y-88444801D02*
X133808633Y-88478135D01*
X133808633Y-88478135D02*
X133875300Y-88544801D01*
X133875300Y-88544801D02*
X133908633Y-88644801D01*
X133908633Y-88644801D02*
X133908633Y-88811468D01*
X125821966Y-104082517D02*
X126288633Y-104082517D01*
X125555300Y-104249184D02*
X126055300Y-104415850D01*
X126055300Y-104415850D02*
X126055300Y-103982517D01*
X125588633Y-103782517D02*
X125588633Y-103349183D01*
X125588633Y-103349183D02*
X125855300Y-103582517D01*
X125855300Y-103582517D02*
X125855300Y-103482517D01*
X125855300Y-103482517D02*
X125888633Y-103415850D01*
X125888633Y-103415850D02*
X125921966Y-103382517D01*
X125921966Y-103382517D02*
X125988633Y-103349183D01*
X125988633Y-103349183D02*
X126155300Y-103349183D01*
X126155300Y-103349183D02*
X126221966Y-103382517D01*
X126221966Y-103382517D02*
X126255300Y-103415850D01*
X126255300Y-103415850D02*
X126288633Y-103482517D01*
X126288633Y-103482517D02*
X126288633Y-103682517D01*
X126288633Y-103682517D02*
X126255300Y-103749183D01*
X126255300Y-103749183D02*
X126221966Y-103782517D01*
X130668633Y-101624801D02*
X131235300Y-101624801D01*
X131235300Y-101624801D02*
X131301966Y-101591468D01*
X131301966Y-101591468D02*
X131335300Y-101558134D01*
X131335300Y-101558134D02*
X131368633Y-101491468D01*
X131368633Y-101491468D02*
X131368633Y-101358134D01*
X131368633Y-101358134D02*
X131335300Y-101291468D01*
X131335300Y-101291468D02*
X131301966Y-101258134D01*
X131301966Y-101258134D02*
X131235300Y-101224801D01*
X131235300Y-101224801D02*
X130668633Y-101224801D01*
X131368633Y-100524801D02*
X131368633Y-100924801D01*
X131368633Y-100724801D02*
X130668633Y-100724801D01*
X130668633Y-100724801D02*
X130768633Y-100791468D01*
X130768633Y-100791468D02*
X130835300Y-100858135D01*
X130835300Y-100858135D02*
X130868633Y-100924801D01*
X131368633Y-99824801D02*
X131035300Y-100058134D01*
X131368633Y-100224801D02*
X130668633Y-100224801D01*
X130668633Y-100224801D02*
X130668633Y-99958134D01*
X130668633Y-99958134D02*
X130701966Y-99891468D01*
X130701966Y-99891468D02*
X130735300Y-99858134D01*
X130735300Y-99858134D02*
X130801966Y-99824801D01*
X130801966Y-99824801D02*
X130901966Y-99824801D01*
X130901966Y-99824801D02*
X130968633Y-99858134D01*
X130968633Y-99858134D02*
X131001966Y-99891468D01*
X131001966Y-99891468D02*
X131035300Y-99958134D01*
X131035300Y-99958134D02*
X131035300Y-100224801D01*
X130668633Y-99591468D02*
X131368633Y-99124801D01*
X130668633Y-99124801D02*
X131368633Y-99591468D01*
X131368633Y-98858134D02*
X130668633Y-98858134D01*
X130668633Y-98858134D02*
X130668633Y-98691467D01*
X130668633Y-98691467D02*
X130701966Y-98591467D01*
X130701966Y-98591467D02*
X130768633Y-98524801D01*
X130768633Y-98524801D02*
X130835300Y-98491467D01*
X130835300Y-98491467D02*
X130968633Y-98458134D01*
X130968633Y-98458134D02*
X131068633Y-98458134D01*
X131068633Y-98458134D02*
X131201966Y-98491467D01*
X131201966Y-98491467D02*
X131268633Y-98524801D01*
X131268633Y-98524801D02*
X131335300Y-98591467D01*
X131335300Y-98591467D02*
X131368633Y-98691467D01*
X131368633Y-98691467D02*
X131368633Y-98858134D01*
X141528633Y-86638134D02*
X140828633Y-86638134D01*
X140828633Y-86638134D02*
X141528633Y-86238134D01*
X141528633Y-86238134D02*
X140828633Y-86238134D01*
X141461966Y-85504801D02*
X141495300Y-85538134D01*
X141495300Y-85538134D02*
X141528633Y-85638134D01*
X141528633Y-85638134D02*
X141528633Y-85704801D01*
X141528633Y-85704801D02*
X141495300Y-85804801D01*
X141495300Y-85804801D02*
X141428633Y-85871468D01*
X141428633Y-85871468D02*
X141361966Y-85904801D01*
X141361966Y-85904801D02*
X141228633Y-85938134D01*
X141228633Y-85938134D02*
X141128633Y-85938134D01*
X141128633Y-85938134D02*
X140995300Y-85904801D01*
X140995300Y-85904801D02*
X140928633Y-85871468D01*
X140928633Y-85871468D02*
X140861966Y-85804801D01*
X140861966Y-85804801D02*
X140828633Y-85704801D01*
X140828633Y-85704801D02*
X140828633Y-85638134D01*
X140828633Y-85638134D02*
X140861966Y-85538134D01*
X140861966Y-85538134D02*
X140895300Y-85504801D01*
X139055300Y-88361467D02*
X139021966Y-88428134D01*
X139021966Y-88428134D02*
X138955300Y-88494801D01*
X138955300Y-88494801D02*
X138855300Y-88594801D01*
X138855300Y-88594801D02*
X138821966Y-88661467D01*
X138821966Y-88661467D02*
X138821966Y-88728134D01*
X138988633Y-88694801D02*
X138955300Y-88761467D01*
X138955300Y-88761467D02*
X138888633Y-88828134D01*
X138888633Y-88828134D02*
X138755300Y-88861467D01*
X138755300Y-88861467D02*
X138521966Y-88861467D01*
X138521966Y-88861467D02*
X138388633Y-88828134D01*
X138388633Y-88828134D02*
X138321966Y-88761467D01*
X138321966Y-88761467D02*
X138288633Y-88694801D01*
X138288633Y-88694801D02*
X138288633Y-88561467D01*
X138288633Y-88561467D02*
X138321966Y-88494801D01*
X138321966Y-88494801D02*
X138388633Y-88428134D01*
X138388633Y-88428134D02*
X138521966Y-88394801D01*
X138521966Y-88394801D02*
X138755300Y-88394801D01*
X138755300Y-88394801D02*
X138888633Y-88428134D01*
X138888633Y-88428134D02*
X138955300Y-88494801D01*
X138955300Y-88494801D02*
X138988633Y-88561467D01*
X138988633Y-88561467D02*
X138988633Y-88694801D01*
X148448633Y-104368135D02*
X148448633Y-103934801D01*
X148448633Y-103934801D02*
X148715300Y-104168135D01*
X148715300Y-104168135D02*
X148715300Y-104068135D01*
X148715300Y-104068135D02*
X148748633Y-104001468D01*
X148748633Y-104001468D02*
X148781966Y-103968135D01*
X148781966Y-103968135D02*
X148848633Y-103934801D01*
X148848633Y-103934801D02*
X149015300Y-103934801D01*
X149015300Y-103934801D02*
X149081966Y-103968135D01*
X149081966Y-103968135D02*
X149115300Y-104001468D01*
X149115300Y-104001468D02*
X149148633Y-104068135D01*
X149148633Y-104068135D02*
X149148633Y-104268135D01*
X149148633Y-104268135D02*
X149115300Y-104334801D01*
X149115300Y-104334801D02*
X149081966Y-104368135D01*
X148681966Y-103701468D02*
X149148633Y-103534801D01*
X149148633Y-103534801D02*
X148681966Y-103368134D01*
X135815300Y-104415850D02*
X135781966Y-104382517D01*
X135781966Y-104382517D02*
X135748633Y-104315850D01*
X135748633Y-104315850D02*
X135748633Y-104149184D01*
X135748633Y-104149184D02*
X135781966Y-104082517D01*
X135781966Y-104082517D02*
X135815300Y-104049184D01*
X135815300Y-104049184D02*
X135881966Y-104015850D01*
X135881966Y-104015850D02*
X135948633Y-104015850D01*
X135948633Y-104015850D02*
X136048633Y-104049184D01*
X136048633Y-104049184D02*
X136448633Y-104449184D01*
X136448633Y-104449184D02*
X136448633Y-104015850D01*
X136448633Y-103349183D02*
X136448633Y-103749183D01*
X136448633Y-103549183D02*
X135748633Y-103549183D01*
X135748633Y-103549183D02*
X135848633Y-103615850D01*
X135848633Y-103615850D02*
X135915300Y-103682517D01*
X135915300Y-103682517D02*
X135948633Y-103749183D01*
X120508633Y-86588135D02*
X120508633Y-86154801D01*
X120508633Y-86154801D02*
X120775300Y-86388135D01*
X120775300Y-86388135D02*
X120775300Y-86288135D01*
X120775300Y-86288135D02*
X120808633Y-86221468D01*
X120808633Y-86221468D02*
X120841966Y-86188135D01*
X120841966Y-86188135D02*
X120908633Y-86154801D01*
X120908633Y-86154801D02*
X121075300Y-86154801D01*
X121075300Y-86154801D02*
X121141966Y-86188135D01*
X121141966Y-86188135D02*
X121175300Y-86221468D01*
X121175300Y-86221468D02*
X121208633Y-86288135D01*
X121208633Y-86288135D02*
X121208633Y-86488135D01*
X121208633Y-86488135D02*
X121175300Y-86554801D01*
X121175300Y-86554801D02*
X121141966Y-86588135D01*
X120741966Y-85921468D02*
X121208633Y-85754801D01*
X121208633Y-85754801D02*
X120741966Y-85588134D01*
X145941966Y-86621467D02*
X145908633Y-86688134D01*
X145908633Y-86688134D02*
X145908633Y-86788134D01*
X145908633Y-86788134D02*
X145941966Y-86888134D01*
X145941966Y-86888134D02*
X146008633Y-86954801D01*
X146008633Y-86954801D02*
X146075300Y-86988134D01*
X146075300Y-86988134D02*
X146208633Y-87021467D01*
X146208633Y-87021467D02*
X146308633Y-87021467D01*
X146308633Y-87021467D02*
X146441966Y-86988134D01*
X146441966Y-86988134D02*
X146508633Y-86954801D01*
X146508633Y-86954801D02*
X146575300Y-86888134D01*
X146575300Y-86888134D02*
X146608633Y-86788134D01*
X146608633Y-86788134D02*
X146608633Y-86721467D01*
X146608633Y-86721467D02*
X146575300Y-86621467D01*
X146575300Y-86621467D02*
X146541966Y-86588134D01*
X146541966Y-86588134D02*
X146308633Y-86588134D01*
X146308633Y-86588134D02*
X146308633Y-86721467D01*
X146608633Y-86288134D02*
X145908633Y-86288134D01*
X145908633Y-86288134D02*
X146608633Y-85888134D01*
X146608633Y-85888134D02*
X145908633Y-85888134D01*
X146608633Y-85554801D02*
X145908633Y-85554801D01*
X145908633Y-85554801D02*
X145908633Y-85388134D01*
X145908633Y-85388134D02*
X145941966Y-85288134D01*
X145941966Y-85288134D02*
X146008633Y-85221468D01*
X146008633Y-85221468D02*
X146075300Y-85188134D01*
X146075300Y-85188134D02*
X146208633Y-85154801D01*
X146208633Y-85154801D02*
X146308633Y-85154801D01*
X146308633Y-85154801D02*
X146441966Y-85188134D01*
X146441966Y-85188134D02*
X146508633Y-85221468D01*
X146508633Y-85221468D02*
X146575300Y-85288134D01*
X146575300Y-85288134D02*
X146608633Y-85388134D01*
X146608633Y-85388134D02*
X146608633Y-85554801D01*
X125655300Y-86288134D02*
X125621966Y-86254801D01*
X125621966Y-86254801D02*
X125588633Y-86188134D01*
X125588633Y-86188134D02*
X125588633Y-86021468D01*
X125588633Y-86021468D02*
X125621966Y-85954801D01*
X125621966Y-85954801D02*
X125655300Y-85921468D01*
X125655300Y-85921468D02*
X125721966Y-85888134D01*
X125721966Y-85888134D02*
X125788633Y-85888134D01*
X125788633Y-85888134D02*
X125888633Y-85921468D01*
X125888633Y-85921468D02*
X126288633Y-86321468D01*
X126288633Y-86321468D02*
X126288633Y-85888134D01*
X123081966Y-104401467D02*
X123048633Y-104468134D01*
X123048633Y-104468134D02*
X123048633Y-104568134D01*
X123048633Y-104568134D02*
X123081966Y-104668134D01*
X123081966Y-104668134D02*
X123148633Y-104734801D01*
X123148633Y-104734801D02*
X123215300Y-104768134D01*
X123215300Y-104768134D02*
X123348633Y-104801467D01*
X123348633Y-104801467D02*
X123448633Y-104801467D01*
X123448633Y-104801467D02*
X123581966Y-104768134D01*
X123581966Y-104768134D02*
X123648633Y-104734801D01*
X123648633Y-104734801D02*
X123715300Y-104668134D01*
X123715300Y-104668134D02*
X123748633Y-104568134D01*
X123748633Y-104568134D02*
X123748633Y-104501467D01*
X123748633Y-104501467D02*
X123715300Y-104401467D01*
X123715300Y-104401467D02*
X123681966Y-104368134D01*
X123681966Y-104368134D02*
X123448633Y-104368134D01*
X123448633Y-104368134D02*
X123448633Y-104501467D01*
X123748633Y-104068134D02*
X123048633Y-104068134D01*
X123048633Y-104068134D02*
X123748633Y-103668134D01*
X123748633Y-103668134D02*
X123048633Y-103668134D01*
X123748633Y-103334801D02*
X123048633Y-103334801D01*
X123048633Y-103334801D02*
X123048633Y-103168134D01*
X123048633Y-103168134D02*
X123081966Y-103068134D01*
X123081966Y-103068134D02*
X123148633Y-103001468D01*
X123148633Y-103001468D02*
X123215300Y-102968134D01*
X123215300Y-102968134D02*
X123348633Y-102934801D01*
X123348633Y-102934801D02*
X123448633Y-102934801D01*
X123448633Y-102934801D02*
X123581966Y-102968134D01*
X123581966Y-102968134D02*
X123648633Y-103001468D01*
X123648633Y-103001468D02*
X123715300Y-103068134D01*
X123715300Y-103068134D02*
X123748633Y-103168134D01*
X123748633Y-103168134D02*
X123748633Y-103334801D01*
X123748633Y-85888134D02*
X123748633Y-86288134D01*
X123748633Y-86088134D02*
X123048633Y-86088134D01*
X123048633Y-86088134D02*
X123148633Y-86154801D01*
X123148633Y-86154801D02*
X123215300Y-86221468D01*
X123215300Y-86221468D02*
X123248633Y-86288134D01*
X141528633Y-104432516D02*
X140828633Y-104432516D01*
X140828633Y-104432516D02*
X141528633Y-104032516D01*
X141528633Y-104032516D02*
X140828633Y-104032516D01*
X141461966Y-103299183D02*
X141495300Y-103332516D01*
X141495300Y-103332516D02*
X141528633Y-103432516D01*
X141528633Y-103432516D02*
X141528633Y-103499183D01*
X141528633Y-103499183D02*
X141495300Y-103599183D01*
X141495300Y-103599183D02*
X141428633Y-103665850D01*
X141428633Y-103665850D02*
X141361966Y-103699183D01*
X141361966Y-103699183D02*
X141228633Y-103732516D01*
X141228633Y-103732516D02*
X141128633Y-103732516D01*
X141128633Y-103732516D02*
X140995300Y-103699183D01*
X140995300Y-103699183D02*
X140928633Y-103665850D01*
X140928633Y-103665850D02*
X140861966Y-103599183D01*
X140861966Y-103599183D02*
X140828633Y-103499183D01*
X140828633Y-103499183D02*
X140828633Y-103432516D01*
X140828633Y-103432516D02*
X140861966Y-103332516D01*
X140861966Y-103332516D02*
X140895300Y-103299183D01*
X138988633Y-104015850D02*
X138988633Y-104415850D01*
X138988633Y-104215850D02*
X138288633Y-104215850D01*
X138288633Y-104215850D02*
X138388633Y-104282517D01*
X138388633Y-104282517D02*
X138455300Y-104349184D01*
X138455300Y-104349184D02*
X138488633Y-104415850D01*
X138288633Y-103415850D02*
X138288633Y-103549183D01*
X138288633Y-103549183D02*
X138321966Y-103615850D01*
X138321966Y-103615850D02*
X138355300Y-103649183D01*
X138355300Y-103649183D02*
X138455300Y-103715850D01*
X138455300Y-103715850D02*
X138588633Y-103749183D01*
X138588633Y-103749183D02*
X138855300Y-103749183D01*
X138855300Y-103749183D02*
X138921966Y-103715850D01*
X138921966Y-103715850D02*
X138955300Y-103682517D01*
X138955300Y-103682517D02*
X138988633Y-103615850D01*
X138988633Y-103615850D02*
X138988633Y-103482517D01*
X138988633Y-103482517D02*
X138955300Y-103415850D01*
X138955300Y-103415850D02*
X138921966Y-103382517D01*
X138921966Y-103382517D02*
X138855300Y-103349183D01*
X138855300Y-103349183D02*
X138688633Y-103349183D01*
X138688633Y-103349183D02*
X138621966Y-103382517D01*
X138621966Y-103382517D02*
X138588633Y-103415850D01*
X138588633Y-103415850D02*
X138555300Y-103482517D01*
X138555300Y-103482517D02*
X138555300Y-103615850D01*
X138555300Y-103615850D02*
X138588633Y-103682517D01*
X138588633Y-103682517D02*
X138621966Y-103715850D01*
X138621966Y-103715850D02*
X138688633Y-103749183D01*
X136448633Y-86221468D02*
X136448633Y-86621468D01*
X136448633Y-86421468D02*
X135748633Y-86421468D01*
X135748633Y-86421468D02*
X135848633Y-86488135D01*
X135848633Y-86488135D02*
X135915300Y-86554802D01*
X135915300Y-86554802D02*
X135948633Y-86621468D01*
X135815300Y-85954801D02*
X135781966Y-85921468D01*
X135781966Y-85921468D02*
X135748633Y-85854801D01*
X135748633Y-85854801D02*
X135748633Y-85688135D01*
X135748633Y-85688135D02*
X135781966Y-85621468D01*
X135781966Y-85621468D02*
X135815300Y-85588135D01*
X135815300Y-85588135D02*
X135881966Y-85554801D01*
X135881966Y-85554801D02*
X135948633Y-85554801D01*
X135948633Y-85554801D02*
X136048633Y-85588135D01*
X136048633Y-85588135D02*
X136448633Y-85988135D01*
X136448633Y-85988135D02*
X136448633Y-85554801D01*
X131368633Y-86221468D02*
X131368633Y-86621468D01*
X131368633Y-86421468D02*
X130668633Y-86421468D01*
X130668633Y-86421468D02*
X130768633Y-86488135D01*
X130768633Y-86488135D02*
X130835300Y-86554802D01*
X130835300Y-86554802D02*
X130868633Y-86621468D01*
X130668633Y-85788135D02*
X130668633Y-85721468D01*
X130668633Y-85721468D02*
X130701966Y-85654801D01*
X130701966Y-85654801D02*
X130735300Y-85621468D01*
X130735300Y-85621468D02*
X130801966Y-85588135D01*
X130801966Y-85588135D02*
X130935300Y-85554801D01*
X130935300Y-85554801D02*
X131101966Y-85554801D01*
X131101966Y-85554801D02*
X131235300Y-85588135D01*
X131235300Y-85588135D02*
X131301966Y-85621468D01*
X131301966Y-85621468D02*
X131335300Y-85654801D01*
X131335300Y-85654801D02*
X131368633Y-85721468D01*
X131368633Y-85721468D02*
X131368633Y-85788135D01*
X131368633Y-85788135D02*
X131335300Y-85854801D01*
X131335300Y-85854801D02*
X131301966Y-85888135D01*
X131301966Y-85888135D02*
X131235300Y-85921468D01*
X131235300Y-85921468D02*
X131101966Y-85954801D01*
X131101966Y-85954801D02*
X130935300Y-85954801D01*
X130935300Y-85954801D02*
X130801966Y-85921468D01*
X130801966Y-85921468D02*
X130735300Y-85888135D01*
X130735300Y-85888135D02*
X130701966Y-85854801D01*
X130701966Y-85854801D02*
X130668633Y-85788135D01*
X138988633Y-86221468D02*
X138988633Y-86621468D01*
X138988633Y-86421468D02*
X138288633Y-86421468D01*
X138288633Y-86421468D02*
X138388633Y-86488135D01*
X138388633Y-86488135D02*
X138455300Y-86554802D01*
X138455300Y-86554802D02*
X138488633Y-86621468D01*
X138288633Y-85988135D02*
X138288633Y-85554801D01*
X138288633Y-85554801D02*
X138555300Y-85788135D01*
X138555300Y-85788135D02*
X138555300Y-85688135D01*
X138555300Y-85688135D02*
X138588633Y-85621468D01*
X138588633Y-85621468D02*
X138621966Y-85588135D01*
X138621966Y-85588135D02*
X138688633Y-85554801D01*
X138688633Y-85554801D02*
X138855300Y-85554801D01*
X138855300Y-85554801D02*
X138921966Y-85588135D01*
X138921966Y-85588135D02*
X138955300Y-85621468D01*
X138955300Y-85621468D02*
X138988633Y-85688135D01*
X138988633Y-85688135D02*
X138988633Y-85888135D01*
X138988633Y-85888135D02*
X138955300Y-85954801D01*
X138955300Y-85954801D02*
X138921966Y-85988135D01*
X148448633Y-86188135D02*
X148448633Y-86521468D01*
X148448633Y-86521468D02*
X148781966Y-86554801D01*
X148781966Y-86554801D02*
X148748633Y-86521468D01*
X148748633Y-86521468D02*
X148715300Y-86454801D01*
X148715300Y-86454801D02*
X148715300Y-86288135D01*
X148715300Y-86288135D02*
X148748633Y-86221468D01*
X148748633Y-86221468D02*
X148781966Y-86188135D01*
X148781966Y-86188135D02*
X148848633Y-86154801D01*
X148848633Y-86154801D02*
X149015300Y-86154801D01*
X149015300Y-86154801D02*
X149081966Y-86188135D01*
X149081966Y-86188135D02*
X149115300Y-86221468D01*
X149115300Y-86221468D02*
X149148633Y-86288135D01*
X149148633Y-86288135D02*
X149148633Y-86454801D01*
X149148633Y-86454801D02*
X149115300Y-86521468D01*
X149115300Y-86521468D02*
X149081966Y-86554801D01*
X148681966Y-85921468D02*
X149148633Y-85754801D01*
X149148633Y-85754801D02*
X148681966Y-85588134D01*
X128128633Y-86321468D02*
X128128633Y-85888134D01*
X128128633Y-85888134D02*
X128395300Y-86121468D01*
X128395300Y-86121468D02*
X128395300Y-86021468D01*
X128395300Y-86021468D02*
X128428633Y-85954801D01*
X128428633Y-85954801D02*
X128461966Y-85921468D01*
X128461966Y-85921468D02*
X128528633Y-85888134D01*
X128528633Y-85888134D02*
X128695300Y-85888134D01*
X128695300Y-85888134D02*
X128761966Y-85921468D01*
X128761966Y-85921468D02*
X128795300Y-85954801D01*
X128795300Y-85954801D02*
X128828633Y-86021468D01*
X128828633Y-86021468D02*
X128828633Y-86221468D01*
X128828633Y-86221468D02*
X128795300Y-86288134D01*
X128795300Y-86288134D02*
X128761966Y-86321468D01*
X120541966Y-104401467D02*
X120508633Y-104468134D01*
X120508633Y-104468134D02*
X120508633Y-104568134D01*
X120508633Y-104568134D02*
X120541966Y-104668134D01*
X120541966Y-104668134D02*
X120608633Y-104734801D01*
X120608633Y-104734801D02*
X120675300Y-104768134D01*
X120675300Y-104768134D02*
X120808633Y-104801467D01*
X120808633Y-104801467D02*
X120908633Y-104801467D01*
X120908633Y-104801467D02*
X121041966Y-104768134D01*
X121041966Y-104768134D02*
X121108633Y-104734801D01*
X121108633Y-104734801D02*
X121175300Y-104668134D01*
X121175300Y-104668134D02*
X121208633Y-104568134D01*
X121208633Y-104568134D02*
X121208633Y-104501467D01*
X121208633Y-104501467D02*
X121175300Y-104401467D01*
X121175300Y-104401467D02*
X121141966Y-104368134D01*
X121141966Y-104368134D02*
X120908633Y-104368134D01*
X120908633Y-104368134D02*
X120908633Y-104501467D01*
X121208633Y-104068134D02*
X120508633Y-104068134D01*
X120508633Y-104068134D02*
X121208633Y-103668134D01*
X121208633Y-103668134D02*
X120508633Y-103668134D01*
X121208633Y-103334801D02*
X120508633Y-103334801D01*
X120508633Y-103334801D02*
X120508633Y-103168134D01*
X120508633Y-103168134D02*
X120541966Y-103068134D01*
X120541966Y-103068134D02*
X120608633Y-103001468D01*
X120608633Y-103001468D02*
X120675300Y-102968134D01*
X120675300Y-102968134D02*
X120808633Y-102934801D01*
X120808633Y-102934801D02*
X120908633Y-102934801D01*
X120908633Y-102934801D02*
X121041966Y-102968134D01*
X121041966Y-102968134D02*
X121108633Y-103001468D01*
X121108633Y-103001468D02*
X121175300Y-103068134D01*
X121175300Y-103068134D02*
X121208633Y-103168134D01*
X121208633Y-103168134D02*
X121208633Y-103334801D01*
X133208633Y-101541468D02*
X133775300Y-101541468D01*
X133775300Y-101541468D02*
X133841966Y-101508135D01*
X133841966Y-101508135D02*
X133875300Y-101474801D01*
X133875300Y-101474801D02*
X133908633Y-101408135D01*
X133908633Y-101408135D02*
X133908633Y-101274801D01*
X133908633Y-101274801D02*
X133875300Y-101208135D01*
X133875300Y-101208135D02*
X133841966Y-101174801D01*
X133841966Y-101174801D02*
X133775300Y-101141468D01*
X133775300Y-101141468D02*
X133208633Y-101141468D01*
X133908633Y-100441468D02*
X133908633Y-100841468D01*
X133908633Y-100641468D02*
X133208633Y-100641468D01*
X133208633Y-100641468D02*
X133308633Y-100708135D01*
X133308633Y-100708135D02*
X133375300Y-100774802D01*
X133375300Y-100774802D02*
X133408633Y-100841468D01*
X133208633Y-100241468D02*
X133208633Y-99841468D01*
X133908633Y-100041468D02*
X133208633Y-100041468D01*
X133208633Y-99674802D02*
X133908633Y-99208135D01*
X133208633Y-99208135D02*
X133908633Y-99674802D01*
X133908633Y-98941468D02*
X133208633Y-98941468D01*
X133208633Y-98941468D02*
X133208633Y-98774801D01*
X133208633Y-98774801D02*
X133241966Y-98674801D01*
X133241966Y-98674801D02*
X133308633Y-98608135D01*
X133308633Y-98608135D02*
X133375300Y-98574801D01*
X133375300Y-98574801D02*
X133508633Y-98541468D01*
X133508633Y-98541468D02*
X133608633Y-98541468D01*
X133608633Y-98541468D02*
X133741966Y-98574801D01*
X133741966Y-98574801D02*
X133808633Y-98608135D01*
X133808633Y-98608135D02*
X133875300Y-98674801D01*
X133875300Y-98674801D02*
X133908633Y-98774801D01*
X133908633Y-98774801D02*
X133908633Y-98941468D01*
X128361966Y-104082517D02*
X128828633Y-104082517D01*
X128095300Y-104249184D02*
X128595300Y-104415850D01*
X128595300Y-104415850D02*
X128595300Y-103982517D01*
X128361966Y-103415850D02*
X128828633Y-103415850D01*
X128095300Y-103582517D02*
X128595300Y-103749183D01*
X128595300Y-103749183D02*
X128595300Y-103315850D01*
X144068633Y-86638134D02*
X143368633Y-86638134D01*
X143368633Y-86638134D02*
X144068633Y-86238134D01*
X144068633Y-86238134D02*
X143368633Y-86238134D01*
X144001966Y-85504801D02*
X144035300Y-85538134D01*
X144035300Y-85538134D02*
X144068633Y-85638134D01*
X144068633Y-85638134D02*
X144068633Y-85704801D01*
X144068633Y-85704801D02*
X144035300Y-85804801D01*
X144035300Y-85804801D02*
X143968633Y-85871468D01*
X143968633Y-85871468D02*
X143901966Y-85904801D01*
X143901966Y-85904801D02*
X143768633Y-85938134D01*
X143768633Y-85938134D02*
X143668633Y-85938134D01*
X143668633Y-85938134D02*
X143535300Y-85904801D01*
X143535300Y-85904801D02*
X143468633Y-85871468D01*
X143468633Y-85871468D02*
X143401966Y-85804801D01*
X143401966Y-85804801D02*
X143368633Y-85704801D01*
X143368633Y-85704801D02*
X143368633Y-85638134D01*
X143368633Y-85638134D02*
X143401966Y-85538134D01*
X143401966Y-85538134D02*
X143435300Y-85504801D01*
X143401966Y-104401467D02*
X143368633Y-104468134D01*
X143368633Y-104468134D02*
X143368633Y-104568134D01*
X143368633Y-104568134D02*
X143401966Y-104668134D01*
X143401966Y-104668134D02*
X143468633Y-104734801D01*
X143468633Y-104734801D02*
X143535300Y-104768134D01*
X143535300Y-104768134D02*
X143668633Y-104801467D01*
X143668633Y-104801467D02*
X143768633Y-104801467D01*
X143768633Y-104801467D02*
X143901966Y-104768134D01*
X143901966Y-104768134D02*
X143968633Y-104734801D01*
X143968633Y-104734801D02*
X144035300Y-104668134D01*
X144035300Y-104668134D02*
X144068633Y-104568134D01*
X144068633Y-104568134D02*
X144068633Y-104501467D01*
X144068633Y-104501467D02*
X144035300Y-104401467D01*
X144035300Y-104401467D02*
X144001966Y-104368134D01*
X144001966Y-104368134D02*
X143768633Y-104368134D01*
X143768633Y-104368134D02*
X143768633Y-104501467D01*
X144068633Y-104068134D02*
X143368633Y-104068134D01*
X143368633Y-104068134D02*
X144068633Y-103668134D01*
X144068633Y-103668134D02*
X143368633Y-103668134D01*
X144068633Y-103334801D02*
X143368633Y-103334801D01*
X143368633Y-103334801D02*
X143368633Y-103168134D01*
X143368633Y-103168134D02*
X143401966Y-103068134D01*
X143401966Y-103068134D02*
X143468633Y-103001468D01*
X143468633Y-103001468D02*
X143535300Y-102968134D01*
X143535300Y-102968134D02*
X143668633Y-102934801D01*
X143668633Y-102934801D02*
X143768633Y-102934801D01*
X143768633Y-102934801D02*
X143901966Y-102968134D01*
X143901966Y-102968134D02*
X143968633Y-103001468D01*
X143968633Y-103001468D02*
X144035300Y-103068134D01*
X144035300Y-103068134D02*
X144068633Y-103168134D01*
X144068633Y-103168134D02*
X144068633Y-103334801D01*
X131301966Y-88744801D02*
X131335300Y-88778134D01*
X131335300Y-88778134D02*
X131368633Y-88878134D01*
X131368633Y-88878134D02*
X131368633Y-88944801D01*
X131368633Y-88944801D02*
X131335300Y-89044801D01*
X131335300Y-89044801D02*
X131268633Y-89111468D01*
X131268633Y-89111468D02*
X131201966Y-89144801D01*
X131201966Y-89144801D02*
X131068633Y-89178134D01*
X131068633Y-89178134D02*
X130968633Y-89178134D01*
X130968633Y-89178134D02*
X130835300Y-89144801D01*
X130835300Y-89144801D02*
X130768633Y-89111468D01*
X130768633Y-89111468D02*
X130701966Y-89044801D01*
X130701966Y-89044801D02*
X130668633Y-88944801D01*
X130668633Y-88944801D02*
X130668633Y-88878134D01*
X130668633Y-88878134D02*
X130701966Y-88778134D01*
X130701966Y-88778134D02*
X130735300Y-88744801D01*
X131335300Y-88478134D02*
X131368633Y-88378134D01*
X131368633Y-88378134D02*
X131368633Y-88211468D01*
X131368633Y-88211468D02*
X131335300Y-88144801D01*
X131335300Y-88144801D02*
X131301966Y-88111468D01*
X131301966Y-88111468D02*
X131235300Y-88078134D01*
X131235300Y-88078134D02*
X131168633Y-88078134D01*
X131168633Y-88078134D02*
X131101966Y-88111468D01*
X131101966Y-88111468D02*
X131068633Y-88144801D01*
X131068633Y-88144801D02*
X131035300Y-88211468D01*
X131035300Y-88211468D02*
X131001966Y-88344801D01*
X131001966Y-88344801D02*
X130968633Y-88411468D01*
X130968633Y-88411468D02*
X130935300Y-88444801D01*
X130935300Y-88444801D02*
X130868633Y-88478134D01*
X130868633Y-88478134D02*
X130801966Y-88478134D01*
X130801966Y-88478134D02*
X130735300Y-88444801D01*
X130735300Y-88444801D02*
X130701966Y-88411468D01*
X130701966Y-88411468D02*
X130668633Y-88344801D01*
X130668633Y-88344801D02*
X130668633Y-88178134D01*
X130668633Y-88178134D02*
X130701966Y-88078134D01*
X133908633Y-104015850D02*
X133908633Y-104415850D01*
X133908633Y-104215850D02*
X133208633Y-104215850D01*
X133208633Y-104215850D02*
X133308633Y-104282517D01*
X133308633Y-104282517D02*
X133375300Y-104349184D01*
X133375300Y-104349184D02*
X133408633Y-104415850D01*
X133208633Y-103782517D02*
X133208633Y-103315850D01*
X133208633Y-103315850D02*
X133908633Y-103615850D01*
X145941966Y-104401467D02*
X145908633Y-104468134D01*
X145908633Y-104468134D02*
X145908633Y-104568134D01*
X145908633Y-104568134D02*
X145941966Y-104668134D01*
X145941966Y-104668134D02*
X146008633Y-104734801D01*
X146008633Y-104734801D02*
X146075300Y-104768134D01*
X146075300Y-104768134D02*
X146208633Y-104801467D01*
X146208633Y-104801467D02*
X146308633Y-104801467D01*
X146308633Y-104801467D02*
X146441966Y-104768134D01*
X146441966Y-104768134D02*
X146508633Y-104734801D01*
X146508633Y-104734801D02*
X146575300Y-104668134D01*
X146575300Y-104668134D02*
X146608633Y-104568134D01*
X146608633Y-104568134D02*
X146608633Y-104501467D01*
X146608633Y-104501467D02*
X146575300Y-104401467D01*
X146575300Y-104401467D02*
X146541966Y-104368134D01*
X146541966Y-104368134D02*
X146308633Y-104368134D01*
X146308633Y-104368134D02*
X146308633Y-104501467D01*
X146608633Y-104068134D02*
X145908633Y-104068134D01*
X145908633Y-104068134D02*
X146608633Y-103668134D01*
X146608633Y-103668134D02*
X145908633Y-103668134D01*
X146608633Y-103334801D02*
X145908633Y-103334801D01*
X145908633Y-103334801D02*
X145908633Y-103168134D01*
X145908633Y-103168134D02*
X145941966Y-103068134D01*
X145941966Y-103068134D02*
X146008633Y-103001468D01*
X146008633Y-103001468D02*
X146075300Y-102968134D01*
X146075300Y-102968134D02*
X146208633Y-102934801D01*
X146208633Y-102934801D02*
X146308633Y-102934801D01*
X146308633Y-102934801D02*
X146441966Y-102968134D01*
X146441966Y-102968134D02*
X146508633Y-103001468D01*
X146508633Y-103001468D02*
X146575300Y-103068134D01*
X146575300Y-103068134D02*
X146608633Y-103168134D01*
X146608633Y-103168134D02*
X146608633Y-103334801D01*
X131368633Y-104015850D02*
X131368633Y-104415850D01*
X131368633Y-104215850D02*
X130668633Y-104215850D01*
X130668633Y-104215850D02*
X130768633Y-104282517D01*
X130768633Y-104282517D02*
X130835300Y-104349184D01*
X130835300Y-104349184D02*
X130868633Y-104415850D01*
X130968633Y-103615850D02*
X130935300Y-103682517D01*
X130935300Y-103682517D02*
X130901966Y-103715850D01*
X130901966Y-103715850D02*
X130835300Y-103749183D01*
X130835300Y-103749183D02*
X130801966Y-103749183D01*
X130801966Y-103749183D02*
X130735300Y-103715850D01*
X130735300Y-103715850D02*
X130701966Y-103682517D01*
X130701966Y-103682517D02*
X130668633Y-103615850D01*
X130668633Y-103615850D02*
X130668633Y-103482517D01*
X130668633Y-103482517D02*
X130701966Y-103415850D01*
X130701966Y-103415850D02*
X130735300Y-103382517D01*
X130735300Y-103382517D02*
X130801966Y-103349183D01*
X130801966Y-103349183D02*
X130835300Y-103349183D01*
X130835300Y-103349183D02*
X130901966Y-103382517D01*
X130901966Y-103382517D02*
X130935300Y-103415850D01*
X130935300Y-103415850D02*
X130968633Y-103482517D01*
X130968633Y-103482517D02*
X130968633Y-103615850D01*
X130968633Y-103615850D02*
X131001966Y-103682517D01*
X131001966Y-103682517D02*
X131035300Y-103715850D01*
X131035300Y-103715850D02*
X131101966Y-103749183D01*
X131101966Y-103749183D02*
X131235300Y-103749183D01*
X131235300Y-103749183D02*
X131301966Y-103715850D01*
X131301966Y-103715850D02*
X131335300Y-103682517D01*
X131335300Y-103682517D02*
X131368633Y-103615850D01*
X131368633Y-103615850D02*
X131368633Y-103482517D01*
X131368633Y-103482517D02*
X131335300Y-103415850D01*
X131335300Y-103415850D02*
X131301966Y-103382517D01*
X131301966Y-103382517D02*
X131235300Y-103349183D01*
X131235300Y-103349183D02*
X131101966Y-103349183D01*
X131101966Y-103349183D02*
X131035300Y-103382517D01*
X131035300Y-103382517D02*
X131001966Y-103415850D01*
X131001966Y-103415850D02*
X130968633Y-103482517D01*
D11*
X151024819Y-77659220D02*
X150548628Y-77992553D01*
X151024819Y-78230648D02*
X150024819Y-78230648D01*
X150024819Y-78230648D02*
X150024819Y-77849696D01*
X150024819Y-77849696D02*
X150072438Y-77754458D01*
X150072438Y-77754458D02*
X150120057Y-77706839D01*
X150120057Y-77706839D02*
X150215295Y-77659220D01*
X150215295Y-77659220D02*
X150358152Y-77659220D01*
X150358152Y-77659220D02*
X150453390Y-77706839D01*
X150453390Y-77706839D02*
X150501009Y-77754458D01*
X150501009Y-77754458D02*
X150548628Y-77849696D01*
X150548628Y-77849696D02*
X150548628Y-78230648D01*
X151024819Y-76706839D02*
X151024819Y-77278267D01*
X151024819Y-76992553D02*
X150024819Y-76992553D01*
X150024819Y-76992553D02*
X150167676Y-77087791D01*
X150167676Y-77087791D02*
X150262914Y-77183029D01*
X150262914Y-77183029D02*
X150310533Y-77278267D01*
X153204819Y-77004458D02*
X154014342Y-77004458D01*
X154014342Y-77004458D02*
X154109580Y-76956839D01*
X154109580Y-76956839D02*
X154157200Y-76909220D01*
X154157200Y-76909220D02*
X154204819Y-76813982D01*
X154204819Y-76813982D02*
X154204819Y-76623506D01*
X154204819Y-76623506D02*
X154157200Y-76528268D01*
X154157200Y-76528268D02*
X154109580Y-76480649D01*
X154109580Y-76480649D02*
X154014342Y-76433030D01*
X154014342Y-76433030D02*
X153204819Y-76433030D01*
X153300057Y-76004458D02*
X153252438Y-75956839D01*
X153252438Y-75956839D02*
X153204819Y-75861601D01*
X153204819Y-75861601D02*
X153204819Y-75623506D01*
X153204819Y-75623506D02*
X153252438Y-75528268D01*
X153252438Y-75528268D02*
X153300057Y-75480649D01*
X153300057Y-75480649D02*
X153395295Y-75433030D01*
X153395295Y-75433030D02*
X153490533Y-75433030D01*
X153490533Y-75433030D02*
X153633390Y-75480649D01*
X153633390Y-75480649D02*
X154204819Y-76052077D01*
X154204819Y-76052077D02*
X154204819Y-75433030D01*
D13*
%TO.C,U1*%
X144890000Y-73282934D02*
X144890000Y-76882934D01*
X144890000Y-73282934D02*
X144890000Y-71082934D01*
X150110000Y-73282934D02*
X150110000Y-75482934D01*
X150110000Y-73282934D02*
X150110000Y-71082934D01*
%TO.C,R2*%
X104922742Y-81010434D02*
X105397258Y-81010434D01*
X104922742Y-82055434D02*
X105397258Y-82055434D01*
%TO.C,RV2*%
X163530000Y-77120000D02*
X165129000Y-77120000D01*
X163530000Y-77120000D02*
X163530000Y-73255000D01*
X166871000Y-77120000D02*
X167630000Y-77120000D01*
X169371000Y-77120000D02*
X170130000Y-77120000D01*
X171870000Y-77120000D02*
X173470000Y-77120000D01*
X173470000Y-77120000D02*
X173470000Y-73255000D01*
X163530000Y-68745000D02*
X163530000Y-64880000D01*
X173470000Y-68745000D02*
X173470000Y-64880000D01*
X163530000Y-64880000D02*
X173470000Y-64880000D01*
%TO.C,SW5*%
X160880000Y-114400000D02*
X160880000Y-112200000D01*
X161350000Y-116370000D02*
X166550000Y-116370000D01*
X161950000Y-110130000D02*
X166350000Y-110130000D01*
X167120000Y-112200000D02*
X167120000Y-114400000D01*
X165414214Y-113250000D02*
G75*
G03*
X165414214Y-113250000I-1414214J0D01*
G01*
%TO.C,C3*%
X142390580Y-75510000D02*
X142109420Y-75510000D01*
X142390580Y-74490000D02*
X142109420Y-74490000D01*
%TO.C,C4*%
X134760000Y-73359420D02*
X134760000Y-73640580D01*
X133740000Y-73359420D02*
X133740000Y-73640580D01*
%TO.C,SW2*%
X128880000Y-114400000D02*
X128880000Y-112200000D01*
X129350000Y-116370000D02*
X134550000Y-116370000D01*
X129950000Y-110130000D02*
X134350000Y-110130000D01*
X135120000Y-112200000D02*
X135120000Y-114400000D01*
X133414214Y-113250000D02*
G75*
G03*
X133414214Y-113250000I-1414214J0D01*
G01*
%TO.C,J2*%
X135330000Y-62670000D02*
X135330000Y-64000000D01*
X134000000Y-62670000D02*
X135330000Y-62670000D01*
X132730000Y-62670000D02*
X127590000Y-62670000D01*
X132730000Y-62670000D02*
X132730000Y-65330000D01*
X127590000Y-62670000D02*
X127590000Y-65330000D01*
X132730000Y-65330000D02*
X127590000Y-65330000D01*
%TO.C,SW3*%
X144880000Y-114400000D02*
X144880000Y-112200000D01*
X145350000Y-116370000D02*
X150550000Y-116370000D01*
X145950000Y-110130000D02*
X150350000Y-110130000D01*
X151120000Y-112200000D02*
X151120000Y-114400000D01*
X149414214Y-113250000D02*
G75*
G03*
X149414214Y-113250000I-1414214J0D01*
G01*
%TO.C,R1*%
X151477500Y-77729812D02*
X151477500Y-77255296D01*
X152522500Y-77729812D02*
X152522500Y-77255296D01*
%TO.C,SW1*%
X112880000Y-114400000D02*
X112880000Y-112200000D01*
X113350000Y-116370000D02*
X118550000Y-116370000D01*
X113950000Y-110130000D02*
X118350000Y-110130000D01*
X119120000Y-112200000D02*
X119120000Y-114400000D01*
X117414214Y-113250000D02*
G75*
G03*
X117414214Y-113250000I-1414214J0D01*
G01*
%TO.C,C1*%
X120920000Y-76142354D02*
X120920000Y-76423514D01*
X119900000Y-76142354D02*
X119900000Y-76423514D01*
%TO.C,SW4*%
X100500000Y-101500000D02*
X100500000Y-88500000D01*
X107500000Y-101500000D02*
X100500000Y-101500000D01*
X100500000Y-88500000D02*
X107500000Y-88500000D01*
X107500000Y-88500000D02*
X107500000Y-101500000D01*
%TO.C,R3*%
X108677742Y-81010434D02*
X109152258Y-81010434D01*
X108677742Y-82055434D02*
X109152258Y-82055434D01*
%TO.C,RV1*%
X106530000Y-77120000D02*
X108129000Y-77120000D01*
X106530000Y-77120000D02*
X106530000Y-73255000D01*
X109871000Y-77120000D02*
X110630000Y-77120000D01*
X112371000Y-77120000D02*
X113130000Y-77120000D01*
X114870000Y-77120000D02*
X116470000Y-77120000D01*
X116470000Y-77120000D02*
X116470000Y-73255000D01*
X106530000Y-68745000D02*
X106530000Y-64880000D01*
X116470000Y-68745000D02*
X116470000Y-64880000D01*
X106530000Y-64880000D02*
X116470000Y-64880000D01*
%TO.C,J3*%
X152410000Y-62670000D02*
X152410000Y-64000000D01*
X151080000Y-62670000D02*
X152410000Y-62670000D01*
X149810000Y-62670000D02*
X144670000Y-62670000D01*
X149810000Y-62670000D02*
X149810000Y-65330000D01*
X144670000Y-62670000D02*
X144670000Y-65330000D01*
X149810000Y-65330000D02*
X144670000Y-65330000D01*
%TO.C,U5*%
X130320000Y-72932934D02*
X130320000Y-78942934D01*
X123500000Y-75182934D02*
X123500000Y-78942934D01*
X130320000Y-78942934D02*
X129060000Y-78942934D01*
X123500000Y-78942934D02*
X124760000Y-78942934D01*
%TO.C,U2*%
X154650000Y-75142554D02*
X154650000Y-78142554D01*
X156850000Y-75142554D02*
X156850000Y-77342554D01*
%TO.C,J1*%
X103330000Y-109330000D02*
X102000000Y-109330000D01*
X103330000Y-108000000D02*
X103330000Y-109330000D01*
X103330000Y-106730000D02*
X103330000Y-104130000D01*
X103330000Y-106730000D02*
X100670000Y-106730000D01*
X103330000Y-104130000D02*
X100670000Y-104130000D01*
X100670000Y-106730000D02*
X100670000Y-104130000D01*
%TO.C,C2*%
X142390580Y-73510000D02*
X142109420Y-73510000D01*
X142390580Y-72490000D02*
X142109420Y-72490000D01*
%TD*%
%LPC*%
D14*
%TO.C,U1*%
X145550000Y-76145434D03*
X146200000Y-76145434D03*
X146850000Y-76145434D03*
X147500000Y-76145434D03*
X148150000Y-76145434D03*
X148800000Y-76145434D03*
X149450000Y-76145434D03*
X149450000Y-70420434D03*
X148800000Y-70420434D03*
X148150000Y-70420434D03*
X147500000Y-70420434D03*
X146850000Y-70420434D03*
X146200000Y-70420434D03*
X145550000Y-70420434D03*
%TD*%
D15*
%TO.C,R2*%
X104335000Y-81532934D03*
X105985000Y-81532934D03*
%TD*%
D16*
%TO.C,RV2*%
X164100000Y-71000000D03*
X172900000Y-71000000D03*
D17*
X171000000Y-78000000D03*
X168500000Y-78000000D03*
X166000000Y-78000000D03*
%TD*%
D18*
%TO.C,REF\u002A\u002A*%
X100500000Y-61500000D03*
%TD*%
D19*
%TO.C,U3*%
X120890000Y-83548135D03*
X123430000Y-83548135D03*
X125970000Y-83548135D03*
X128510000Y-83548135D03*
X131050000Y-83548135D03*
X133590000Y-83548135D03*
X136130000Y-83548135D03*
X138670000Y-83548135D03*
X141210000Y-83548135D03*
X143750000Y-83548135D03*
X146290000Y-83548135D03*
X148830000Y-83548135D03*
X120890000Y-106409999D03*
X123430000Y-106409999D03*
X125970000Y-106409999D03*
X128510000Y-106409999D03*
X131050000Y-106409999D03*
X133590000Y-106409999D03*
X136130000Y-106409999D03*
X138670000Y-106409999D03*
X141210000Y-106409999D03*
X143750000Y-106409999D03*
X146290000Y-106409999D03*
X148830000Y-106409999D03*
%TD*%
D20*
%TO.C,SW5*%
X160750000Y-111000000D03*
D21*
X167250000Y-111000000D03*
X160750000Y-115500000D03*
X167250000Y-115500000D03*
%TD*%
D22*
%TO.C,C3*%
X143025000Y-75000000D03*
X141475000Y-75000000D03*
%TD*%
D23*
%TO.C,C4*%
X134250000Y-72725000D03*
X134250000Y-74275000D03*
%TD*%
D18*
%TO.C,REF\u002A\u002A*%
X140000000Y-67000000D03*
%TD*%
D20*
%TO.C,SW2*%
X128750000Y-111000000D03*
D21*
X135250000Y-111000000D03*
X128750000Y-115500000D03*
X135250000Y-115500000D03*
%TD*%
D20*
%TO.C,J2*%
X134000000Y-64000000D03*
D24*
X131460000Y-64000000D03*
X128920000Y-64000000D03*
%TD*%
D20*
%TO.C,SW3*%
X144750000Y-111000000D03*
D21*
X151250000Y-111000000D03*
X144750000Y-115500000D03*
X151250000Y-115500000D03*
%TD*%
D25*
%TO.C,R1*%
X152000000Y-78317554D03*
X152000000Y-76667554D03*
%TD*%
D20*
%TO.C,SW1*%
X112750000Y-111000000D03*
D21*
X119250000Y-111000000D03*
X112750000Y-115500000D03*
X119250000Y-115500000D03*
%TD*%
D18*
%TO.C,REF\u002A\u002A*%
X100500000Y-116500000D03*
%TD*%
D23*
%TO.C,C1*%
X120410000Y-75507934D03*
X120410000Y-77057934D03*
%TD*%
D18*
%TO.C,REF\u002A\u002A*%
X179500000Y-116500000D03*
%TD*%
D26*
%TO.C,SW4*%
X104000000Y-99700000D03*
X104000000Y-95000000D03*
X104000000Y-90300000D03*
%TD*%
D18*
%TO.C,REF\u002A\u002A*%
X179500000Y-61500000D03*
%TD*%
D15*
%TO.C,R3*%
X108090000Y-81532934D03*
X109740000Y-81532934D03*
%TD*%
D16*
%TO.C,RV1*%
X107100000Y-71000000D03*
X115900000Y-71000000D03*
D17*
X114000000Y-78000000D03*
X111500000Y-78000000D03*
X109000000Y-78000000D03*
%TD*%
D20*
%TO.C,J3*%
X151080000Y-64000000D03*
D24*
X148540000Y-64000000D03*
X146000000Y-64000000D03*
%TD*%
D27*
%TO.C,U5*%
X129210000Y-73882934D03*
X126910000Y-73882934D03*
D28*
X126910000Y-80182934D03*
D27*
X124610000Y-73882934D03*
%TD*%
D29*
%TO.C,U2*%
X155000000Y-77792554D03*
X155500000Y-77792554D03*
X156000000Y-77792554D03*
X156500000Y-77792554D03*
X156500000Y-74692554D03*
X156000000Y-74692554D03*
X155500000Y-74692554D03*
X155000000Y-74692554D03*
%TD*%
D18*
%TO.C,REF\u002A\u002A*%
X140000000Y-112000000D03*
%TD*%
D20*
%TO.C,J1*%
X102000000Y-108000000D03*
D24*
X102000000Y-105460000D03*
%TD*%
D22*
%TO.C,C2*%
X143025000Y-73000000D03*
X141475000Y-73000000D03*
%TD*%
%LPD*%
M02*
