%TF.GenerationSoftware,KiCad,Pcbnew,7.0.8*%
%TF.CreationDate,2024-06-03T09:11:21-04:00*%
%TF.ProjectId,mainboard,6d61696e-626f-4617-9264-2e6b69636164,rev?*%
%TF.SameCoordinates,Original*%
%TF.FileFunction,Legend,Top*%
%TF.FilePolarity,Positive*%
%FSLAX46Y46*%
G04 Gerber Fmt 4.6, Leading zero omitted, Abs format (unit mm)*
G04 Created by KiCad (PCBNEW 7.0.8) date 2024-06-03 09:11:21*
%MOMM*%
%LPD*%
G01*
G04 APERTURE LIST*
G04 Aperture macros list*
%AMRoundRect*
0 Rectangle with rounded corners*
0 $1 Rounding radius*
0 $2 $3 $4 $5 $6 $7 $8 $9 X,Y pos of 4 corners*
0 Add a 4 corners polygon primitive as box body*
4,1,4,$2,$3,$4,$5,$6,$7,$8,$9,$2,$3,0*
0 Add four circle primitives for the rounded corners*
1,1,$1+$1,$2,$3*
1,1,$1+$1,$4,$5*
1,1,$1+$1,$6,$7*
1,1,$1+$1,$8,$9*
0 Add four rect primitives between the rounded corners*
20,1,$1+$1,$2,$3,$4,$5,0*
20,1,$1+$1,$4,$5,$6,$7,0*
20,1,$1+$1,$6,$7,$8,$9,0*
20,1,$1+$1,$8,$9,$2,$3,0*%
G04 Aperture macros list end*
%ADD10C,0.150000*%
%ADD11C,0.200000*%
%ADD12C,0.100000*%
%ADD13C,0.120000*%
%ADD14RoundRect,0.100000X0.100000X-0.637500X0.100000X0.637500X-0.100000X0.637500X-0.100000X-0.637500X0*%
%ADD15RoundRect,0.200000X-0.275000X0.200000X-0.275000X-0.200000X0.275000X-0.200000X0.275000X0.200000X0*%
%ADD16C,4.000000*%
%ADD17C,1.800000*%
%ADD18C,3.200000*%
%ADD19C,2.000000*%
%ADD20RoundRect,0.250000X-0.550000X1.500000X-0.550000X-1.500000X0.550000X-1.500000X0.550000X1.500000X0*%
%ADD21R,1.700000X1.700000*%
%ADD22C,1.700000*%
%ADD23RoundRect,0.250000X-0.475000X0.250000X-0.475000X-0.250000X0.475000X-0.250000X0.475000X0.250000X0*%
%ADD24RoundRect,0.225000X0.225000X0.250000X-0.225000X0.250000X-0.225000X-0.250000X0.225000X-0.250000X0*%
%ADD25O,1.700000X1.700000*%
%ADD26RoundRect,0.200000X0.275000X-0.200000X0.275000X0.200000X-0.275000X0.200000X-0.275000X-0.200000X0*%
%ADD27RoundRect,0.112500X0.112500X-0.187500X0.112500X0.187500X-0.112500X0.187500X-0.112500X-0.187500X0*%
%ADD28O,3.400000X1.800000*%
%ADD29R,0.800000X0.300000*%
G04 APERTURE END LIST*
D10*
X159589533Y-60710839D02*
X159589533Y-60101316D01*
X159894295Y-60406077D02*
X159284771Y-60406077D01*
X159094295Y-59339411D02*
X159094295Y-59720363D01*
X159094295Y-59720363D02*
X159475247Y-59758459D01*
X159475247Y-59758459D02*
X159437152Y-59720363D01*
X159437152Y-59720363D02*
X159399057Y-59644173D01*
X159399057Y-59644173D02*
X159399057Y-59453697D01*
X159399057Y-59453697D02*
X159437152Y-59377506D01*
X159437152Y-59377506D02*
X159475247Y-59339411D01*
X159475247Y-59339411D02*
X159551438Y-59301316D01*
X159551438Y-59301316D02*
X159741914Y-59301316D01*
X159741914Y-59301316D02*
X159818104Y-59339411D01*
X159818104Y-59339411D02*
X159856200Y-59377506D01*
X159856200Y-59377506D02*
X159894295Y-59453697D01*
X159894295Y-59453697D02*
X159894295Y-59644173D01*
X159894295Y-59644173D02*
X159856200Y-59720363D01*
X159856200Y-59720363D02*
X159818104Y-59758459D01*
X159094295Y-59072744D02*
X159894295Y-58806077D01*
X159894295Y-58806077D02*
X159094295Y-58539411D01*
X166882390Y-60041792D02*
X166844295Y-60117982D01*
X166844295Y-60117982D02*
X166844295Y-60232268D01*
X166844295Y-60232268D02*
X166882390Y-60346554D01*
X166882390Y-60346554D02*
X166958580Y-60422744D01*
X166958580Y-60422744D02*
X167034771Y-60460839D01*
X167034771Y-60460839D02*
X167187152Y-60498935D01*
X167187152Y-60498935D02*
X167301438Y-60498935D01*
X167301438Y-60498935D02*
X167453819Y-60460839D01*
X167453819Y-60460839D02*
X167530009Y-60422744D01*
X167530009Y-60422744D02*
X167606200Y-60346554D01*
X167606200Y-60346554D02*
X167644295Y-60232268D01*
X167644295Y-60232268D02*
X167644295Y-60156077D01*
X167644295Y-60156077D02*
X167606200Y-60041792D01*
X167606200Y-60041792D02*
X167568104Y-60003696D01*
X167568104Y-60003696D02*
X167301438Y-60003696D01*
X167301438Y-60003696D02*
X167301438Y-60156077D01*
X167644295Y-59660839D02*
X166844295Y-59660839D01*
X166844295Y-59660839D02*
X167644295Y-59203696D01*
X167644295Y-59203696D02*
X166844295Y-59203696D01*
X167644295Y-58822744D02*
X166844295Y-58822744D01*
X166844295Y-58822744D02*
X166844295Y-58632268D01*
X166844295Y-58632268D02*
X166882390Y-58517982D01*
X166882390Y-58517982D02*
X166958580Y-58441792D01*
X166958580Y-58441792D02*
X167034771Y-58403697D01*
X167034771Y-58403697D02*
X167187152Y-58365601D01*
X167187152Y-58365601D02*
X167301438Y-58365601D01*
X167301438Y-58365601D02*
X167453819Y-58403697D01*
X167453819Y-58403697D02*
X167530009Y-58441792D01*
X167530009Y-58441792D02*
X167606200Y-58517982D01*
X167606200Y-58517982D02*
X167644295Y-58632268D01*
X167644295Y-58632268D02*
X167644295Y-58822744D01*
X165106200Y-60498935D02*
X165144295Y-60384649D01*
X165144295Y-60384649D02*
X165144295Y-60194173D01*
X165144295Y-60194173D02*
X165106200Y-60117982D01*
X165106200Y-60117982D02*
X165068104Y-60079887D01*
X165068104Y-60079887D02*
X164991914Y-60041792D01*
X164991914Y-60041792D02*
X164915723Y-60041792D01*
X164915723Y-60041792D02*
X164839533Y-60079887D01*
X164839533Y-60079887D02*
X164801438Y-60117982D01*
X164801438Y-60117982D02*
X164763342Y-60194173D01*
X164763342Y-60194173D02*
X164725247Y-60346554D01*
X164725247Y-60346554D02*
X164687152Y-60422744D01*
X164687152Y-60422744D02*
X164649057Y-60460839D01*
X164649057Y-60460839D02*
X164572866Y-60498935D01*
X164572866Y-60498935D02*
X164496676Y-60498935D01*
X164496676Y-60498935D02*
X164420485Y-60460839D01*
X164420485Y-60460839D02*
X164382390Y-60422744D01*
X164382390Y-60422744D02*
X164344295Y-60346554D01*
X164344295Y-60346554D02*
X164344295Y-60156077D01*
X164344295Y-60156077D02*
X164382390Y-60041792D01*
X165144295Y-59279887D02*
X165144295Y-59737030D01*
X165144295Y-59508458D02*
X164344295Y-59508458D01*
X164344295Y-59508458D02*
X164458580Y-59584649D01*
X164458580Y-59584649D02*
X164534771Y-59660839D01*
X164534771Y-59660839D02*
X164572866Y-59737030D01*
X165144295Y-58556077D02*
X165144295Y-58937029D01*
X165144295Y-58937029D02*
X164344295Y-58937029D01*
X162356200Y-60498935D02*
X162394295Y-60384649D01*
X162394295Y-60384649D02*
X162394295Y-60194173D01*
X162394295Y-60194173D02*
X162356200Y-60117982D01*
X162356200Y-60117982D02*
X162318104Y-60079887D01*
X162318104Y-60079887D02*
X162241914Y-60041792D01*
X162241914Y-60041792D02*
X162165723Y-60041792D01*
X162165723Y-60041792D02*
X162089533Y-60079887D01*
X162089533Y-60079887D02*
X162051438Y-60117982D01*
X162051438Y-60117982D02*
X162013342Y-60194173D01*
X162013342Y-60194173D02*
X161975247Y-60346554D01*
X161975247Y-60346554D02*
X161937152Y-60422744D01*
X161937152Y-60422744D02*
X161899057Y-60460839D01*
X161899057Y-60460839D02*
X161822866Y-60498935D01*
X161822866Y-60498935D02*
X161746676Y-60498935D01*
X161746676Y-60498935D02*
X161670485Y-60460839D01*
X161670485Y-60460839D02*
X161632390Y-60422744D01*
X161632390Y-60422744D02*
X161594295Y-60346554D01*
X161594295Y-60346554D02*
X161594295Y-60156077D01*
X161594295Y-60156077D02*
X161632390Y-60041792D01*
X162394295Y-59279887D02*
X162394295Y-59737030D01*
X162394295Y-59508458D02*
X161594295Y-59508458D01*
X161594295Y-59508458D02*
X161708580Y-59584649D01*
X161708580Y-59584649D02*
X161784771Y-59660839D01*
X161784771Y-59660839D02*
X161822866Y-59737030D01*
X156594295Y-60575125D02*
X157394295Y-60308458D01*
X157394295Y-60308458D02*
X156594295Y-60041792D01*
X157318104Y-59317982D02*
X157356200Y-59356078D01*
X157356200Y-59356078D02*
X157394295Y-59470363D01*
X157394295Y-59470363D02*
X157394295Y-59546554D01*
X157394295Y-59546554D02*
X157356200Y-59660840D01*
X157356200Y-59660840D02*
X157280009Y-59737030D01*
X157280009Y-59737030D02*
X157203819Y-59775125D01*
X157203819Y-59775125D02*
X157051438Y-59813221D01*
X157051438Y-59813221D02*
X156937152Y-59813221D01*
X156937152Y-59813221D02*
X156784771Y-59775125D01*
X156784771Y-59775125D02*
X156708580Y-59737030D01*
X156708580Y-59737030D02*
X156632390Y-59660840D01*
X156632390Y-59660840D02*
X156594295Y-59546554D01*
X156594295Y-59546554D02*
X156594295Y-59470363D01*
X156594295Y-59470363D02*
X156632390Y-59356078D01*
X156632390Y-59356078D02*
X156670485Y-59317982D01*
X157318104Y-58517982D02*
X157356200Y-58556078D01*
X157356200Y-58556078D02*
X157394295Y-58670363D01*
X157394295Y-58670363D02*
X157394295Y-58746554D01*
X157394295Y-58746554D02*
X157356200Y-58860840D01*
X157356200Y-58860840D02*
X157280009Y-58937030D01*
X157280009Y-58937030D02*
X157203819Y-58975125D01*
X157203819Y-58975125D02*
X157051438Y-59013221D01*
X157051438Y-59013221D02*
X156937152Y-59013221D01*
X156937152Y-59013221D02*
X156784771Y-58975125D01*
X156784771Y-58975125D02*
X156708580Y-58937030D01*
X156708580Y-58937030D02*
X156632390Y-58860840D01*
X156632390Y-58860840D02*
X156594295Y-58746554D01*
X156594295Y-58746554D02*
X156594295Y-58670363D01*
X156594295Y-58670363D02*
X156632390Y-58556078D01*
X156632390Y-58556078D02*
X156670485Y-58517982D01*
D11*
X177806028Y-105142855D02*
X178806028Y-104785712D01*
X178806028Y-104785712D02*
X177806028Y-104428569D01*
X178806028Y-103071426D02*
X178806028Y-103928569D01*
X178806028Y-103499998D02*
X177306028Y-103499998D01*
X177306028Y-103499998D02*
X177520314Y-103642855D01*
X177520314Y-103642855D02*
X177663171Y-103785712D01*
X177663171Y-103785712D02*
X177734600Y-103928569D01*
X178663171Y-102428570D02*
X178734600Y-102357141D01*
X178734600Y-102357141D02*
X178806028Y-102428570D01*
X178806028Y-102428570D02*
X178734600Y-102499998D01*
X178734600Y-102499998D02*
X178663171Y-102428570D01*
X178663171Y-102428570D02*
X178806028Y-102428570D01*
X177306028Y-101428569D02*
X177306028Y-101285712D01*
X177306028Y-101285712D02*
X177377457Y-101142855D01*
X177377457Y-101142855D02*
X177448885Y-101071427D01*
X177448885Y-101071427D02*
X177591742Y-100999998D01*
X177591742Y-100999998D02*
X177877457Y-100928569D01*
X177877457Y-100928569D02*
X178234600Y-100928569D01*
X178234600Y-100928569D02*
X178520314Y-100999998D01*
X178520314Y-100999998D02*
X178663171Y-101071427D01*
X178663171Y-101071427D02*
X178734600Y-101142855D01*
X178734600Y-101142855D02*
X178806028Y-101285712D01*
X178806028Y-101285712D02*
X178806028Y-101428569D01*
X178806028Y-101428569D02*
X178734600Y-101571427D01*
X178734600Y-101571427D02*
X178663171Y-101642855D01*
X178663171Y-101642855D02*
X178520314Y-101714284D01*
X178520314Y-101714284D02*
X178234600Y-101785712D01*
X178234600Y-101785712D02*
X177877457Y-101785712D01*
X177877457Y-101785712D02*
X177591742Y-101714284D01*
X177591742Y-101714284D02*
X177448885Y-101642855D01*
X177448885Y-101642855D02*
X177377457Y-101571427D01*
X177377457Y-101571427D02*
X177306028Y-101428569D01*
X178663171Y-100285713D02*
X178734600Y-100214284D01*
X178734600Y-100214284D02*
X178806028Y-100285713D01*
X178806028Y-100285713D02*
X178734600Y-100357141D01*
X178734600Y-100357141D02*
X178663171Y-100285713D01*
X178663171Y-100285713D02*
X178806028Y-100285713D01*
X177306028Y-99285712D02*
X177306028Y-99142855D01*
X177306028Y-99142855D02*
X177377457Y-98999998D01*
X177377457Y-98999998D02*
X177448885Y-98928570D01*
X177448885Y-98928570D02*
X177591742Y-98857141D01*
X177591742Y-98857141D02*
X177877457Y-98785712D01*
X177877457Y-98785712D02*
X178234600Y-98785712D01*
X178234600Y-98785712D02*
X178520314Y-98857141D01*
X178520314Y-98857141D02*
X178663171Y-98928570D01*
X178663171Y-98928570D02*
X178734600Y-98999998D01*
X178734600Y-98999998D02*
X178806028Y-99142855D01*
X178806028Y-99142855D02*
X178806028Y-99285712D01*
X178806028Y-99285712D02*
X178734600Y-99428570D01*
X178734600Y-99428570D02*
X178663171Y-99499998D01*
X178663171Y-99499998D02*
X178520314Y-99571427D01*
X178520314Y-99571427D02*
X178234600Y-99642855D01*
X178234600Y-99642855D02*
X177877457Y-99642855D01*
X177877457Y-99642855D02*
X177591742Y-99571427D01*
X177591742Y-99571427D02*
X177448885Y-99499998D01*
X177448885Y-99499998D02*
X177377457Y-99428570D01*
X177377457Y-99428570D02*
X177306028Y-99285712D01*
X178734600Y-98071427D02*
X178806028Y-98071427D01*
X178806028Y-98071427D02*
X178948885Y-98142856D01*
X178948885Y-98142856D02*
X179020314Y-98214284D01*
X177306028Y-95857141D02*
X178377457Y-95857141D01*
X178377457Y-95857141D02*
X178591742Y-95928570D01*
X178591742Y-95928570D02*
X178734600Y-96071427D01*
X178734600Y-96071427D02*
X178806028Y-96285713D01*
X178806028Y-96285713D02*
X178806028Y-96428570D01*
X177806028Y-94499999D02*
X178806028Y-94499999D01*
X177806028Y-95142856D02*
X178591742Y-95142856D01*
X178591742Y-95142856D02*
X178734600Y-95071427D01*
X178734600Y-95071427D02*
X178806028Y-94928570D01*
X178806028Y-94928570D02*
X178806028Y-94714284D01*
X178806028Y-94714284D02*
X178734600Y-94571427D01*
X178734600Y-94571427D02*
X178663171Y-94499999D01*
X177806028Y-93785713D02*
X178806028Y-93785713D01*
X177948885Y-93785713D02*
X177877457Y-93714284D01*
X177877457Y-93714284D02*
X177806028Y-93571427D01*
X177806028Y-93571427D02*
X177806028Y-93357141D01*
X177806028Y-93357141D02*
X177877457Y-93214284D01*
X177877457Y-93214284D02*
X178020314Y-93142856D01*
X178020314Y-93142856D02*
X178806028Y-93142856D01*
X178734600Y-91857141D02*
X178806028Y-91999998D01*
X178806028Y-91999998D02*
X178806028Y-92285713D01*
X178806028Y-92285713D02*
X178734600Y-92428570D01*
X178734600Y-92428570D02*
X178591742Y-92499998D01*
X178591742Y-92499998D02*
X178020314Y-92499998D01*
X178020314Y-92499998D02*
X177877457Y-92428570D01*
X177877457Y-92428570D02*
X177806028Y-92285713D01*
X177806028Y-92285713D02*
X177806028Y-91999998D01*
X177806028Y-91999998D02*
X177877457Y-91857141D01*
X177877457Y-91857141D02*
X178020314Y-91785713D01*
X178020314Y-91785713D02*
X178163171Y-91785713D01*
X178163171Y-91785713D02*
X178306028Y-92499998D01*
X177448885Y-90071427D02*
X177377457Y-89999999D01*
X177377457Y-89999999D02*
X177306028Y-89857142D01*
X177306028Y-89857142D02*
X177306028Y-89499999D01*
X177306028Y-89499999D02*
X177377457Y-89357142D01*
X177377457Y-89357142D02*
X177448885Y-89285713D01*
X177448885Y-89285713D02*
X177591742Y-89214284D01*
X177591742Y-89214284D02*
X177734600Y-89214284D01*
X177734600Y-89214284D02*
X177948885Y-89285713D01*
X177948885Y-89285713D02*
X178806028Y-90142856D01*
X178806028Y-90142856D02*
X178806028Y-89214284D01*
X177306028Y-88285713D02*
X177306028Y-88142856D01*
X177306028Y-88142856D02*
X177377457Y-87999999D01*
X177377457Y-87999999D02*
X177448885Y-87928571D01*
X177448885Y-87928571D02*
X177591742Y-87857142D01*
X177591742Y-87857142D02*
X177877457Y-87785713D01*
X177877457Y-87785713D02*
X178234600Y-87785713D01*
X178234600Y-87785713D02*
X178520314Y-87857142D01*
X178520314Y-87857142D02*
X178663171Y-87928571D01*
X178663171Y-87928571D02*
X178734600Y-87999999D01*
X178734600Y-87999999D02*
X178806028Y-88142856D01*
X178806028Y-88142856D02*
X178806028Y-88285713D01*
X178806028Y-88285713D02*
X178734600Y-88428571D01*
X178734600Y-88428571D02*
X178663171Y-88499999D01*
X178663171Y-88499999D02*
X178520314Y-88571428D01*
X178520314Y-88571428D02*
X178234600Y-88642856D01*
X178234600Y-88642856D02*
X177877457Y-88642856D01*
X177877457Y-88642856D02*
X177591742Y-88571428D01*
X177591742Y-88571428D02*
X177448885Y-88499999D01*
X177448885Y-88499999D02*
X177377457Y-88428571D01*
X177377457Y-88428571D02*
X177306028Y-88285713D01*
X177448885Y-87214285D02*
X177377457Y-87142857D01*
X177377457Y-87142857D02*
X177306028Y-87000000D01*
X177306028Y-87000000D02*
X177306028Y-86642857D01*
X177306028Y-86642857D02*
X177377457Y-86500000D01*
X177377457Y-86500000D02*
X177448885Y-86428571D01*
X177448885Y-86428571D02*
X177591742Y-86357142D01*
X177591742Y-86357142D02*
X177734600Y-86357142D01*
X177734600Y-86357142D02*
X177948885Y-86428571D01*
X177948885Y-86428571D02*
X178806028Y-87285714D01*
X178806028Y-87285714D02*
X178806028Y-86357142D01*
X177806028Y-85071429D02*
X178806028Y-85071429D01*
X177234600Y-85428571D02*
X178306028Y-85785714D01*
X178306028Y-85785714D02*
X178306028Y-84857143D01*
D12*
X134828633Y-104037715D02*
X134828633Y-104437715D01*
X134828633Y-104237715D02*
X134128633Y-104237715D01*
X134128633Y-104237715D02*
X134228633Y-104304382D01*
X134228633Y-104304382D02*
X134295300Y-104371049D01*
X134295300Y-104371049D02*
X134328633Y-104437715D01*
X134128633Y-103804382D02*
X134128633Y-103337715D01*
X134128633Y-103337715D02*
X134828633Y-103637715D01*
X126575300Y-86309999D02*
X126541966Y-86276666D01*
X126541966Y-86276666D02*
X126508633Y-86209999D01*
X126508633Y-86209999D02*
X126508633Y-86043333D01*
X126508633Y-86043333D02*
X126541966Y-85976666D01*
X126541966Y-85976666D02*
X126575300Y-85943333D01*
X126575300Y-85943333D02*
X126641966Y-85909999D01*
X126641966Y-85909999D02*
X126708633Y-85909999D01*
X126708633Y-85909999D02*
X126808633Y-85943333D01*
X126808633Y-85943333D02*
X127208633Y-86343333D01*
X127208633Y-86343333D02*
X127208633Y-85909999D01*
X124001966Y-104423332D02*
X123968633Y-104489999D01*
X123968633Y-104489999D02*
X123968633Y-104589999D01*
X123968633Y-104589999D02*
X124001966Y-104689999D01*
X124001966Y-104689999D02*
X124068633Y-104756666D01*
X124068633Y-104756666D02*
X124135300Y-104789999D01*
X124135300Y-104789999D02*
X124268633Y-104823332D01*
X124268633Y-104823332D02*
X124368633Y-104823332D01*
X124368633Y-104823332D02*
X124501966Y-104789999D01*
X124501966Y-104789999D02*
X124568633Y-104756666D01*
X124568633Y-104756666D02*
X124635300Y-104689999D01*
X124635300Y-104689999D02*
X124668633Y-104589999D01*
X124668633Y-104589999D02*
X124668633Y-104523332D01*
X124668633Y-104523332D02*
X124635300Y-104423332D01*
X124635300Y-104423332D02*
X124601966Y-104389999D01*
X124601966Y-104389999D02*
X124368633Y-104389999D01*
X124368633Y-104389999D02*
X124368633Y-104523332D01*
X124668633Y-104089999D02*
X123968633Y-104089999D01*
X123968633Y-104089999D02*
X124668633Y-103689999D01*
X124668633Y-103689999D02*
X123968633Y-103689999D01*
X124668633Y-103356666D02*
X123968633Y-103356666D01*
X123968633Y-103356666D02*
X123968633Y-103189999D01*
X123968633Y-103189999D02*
X124001966Y-103089999D01*
X124001966Y-103089999D02*
X124068633Y-103023333D01*
X124068633Y-103023333D02*
X124135300Y-102989999D01*
X124135300Y-102989999D02*
X124268633Y-102956666D01*
X124268633Y-102956666D02*
X124368633Y-102956666D01*
X124368633Y-102956666D02*
X124501966Y-102989999D01*
X124501966Y-102989999D02*
X124568633Y-103023333D01*
X124568633Y-103023333D02*
X124635300Y-103089999D01*
X124635300Y-103089999D02*
X124668633Y-103189999D01*
X124668633Y-103189999D02*
X124668633Y-103356666D01*
X136735300Y-104437715D02*
X136701966Y-104404382D01*
X136701966Y-104404382D02*
X136668633Y-104337715D01*
X136668633Y-104337715D02*
X136668633Y-104171049D01*
X136668633Y-104171049D02*
X136701966Y-104104382D01*
X136701966Y-104104382D02*
X136735300Y-104071049D01*
X136735300Y-104071049D02*
X136801966Y-104037715D01*
X136801966Y-104037715D02*
X136868633Y-104037715D01*
X136868633Y-104037715D02*
X136968633Y-104071049D01*
X136968633Y-104071049D02*
X137368633Y-104471049D01*
X137368633Y-104471049D02*
X137368633Y-104037715D01*
X137368633Y-103371048D02*
X137368633Y-103771048D01*
X137368633Y-103571048D02*
X136668633Y-103571048D01*
X136668633Y-103571048D02*
X136768633Y-103637715D01*
X136768633Y-103637715D02*
X136835300Y-103704382D01*
X136835300Y-103704382D02*
X136868633Y-103771048D01*
X134128633Y-101563333D02*
X134695300Y-101563333D01*
X134695300Y-101563333D02*
X134761966Y-101530000D01*
X134761966Y-101530000D02*
X134795300Y-101496666D01*
X134795300Y-101496666D02*
X134828633Y-101430000D01*
X134828633Y-101430000D02*
X134828633Y-101296666D01*
X134828633Y-101296666D02*
X134795300Y-101230000D01*
X134795300Y-101230000D02*
X134761966Y-101196666D01*
X134761966Y-101196666D02*
X134695300Y-101163333D01*
X134695300Y-101163333D02*
X134128633Y-101163333D01*
X134828633Y-100463333D02*
X134828633Y-100863333D01*
X134828633Y-100663333D02*
X134128633Y-100663333D01*
X134128633Y-100663333D02*
X134228633Y-100730000D01*
X134228633Y-100730000D02*
X134295300Y-100796667D01*
X134295300Y-100796667D02*
X134328633Y-100863333D01*
X134128633Y-100263333D02*
X134128633Y-99863333D01*
X134828633Y-100063333D02*
X134128633Y-100063333D01*
X134128633Y-99696667D02*
X134828633Y-99230000D01*
X134128633Y-99230000D02*
X134828633Y-99696667D01*
X134828633Y-98963333D02*
X134128633Y-98963333D01*
X134128633Y-98963333D02*
X134128633Y-98796666D01*
X134128633Y-98796666D02*
X134161966Y-98696666D01*
X134161966Y-98696666D02*
X134228633Y-98630000D01*
X134228633Y-98630000D02*
X134295300Y-98596666D01*
X134295300Y-98596666D02*
X134428633Y-98563333D01*
X134428633Y-98563333D02*
X134528633Y-98563333D01*
X134528633Y-98563333D02*
X134661966Y-98596666D01*
X134661966Y-98596666D02*
X134728633Y-98630000D01*
X134728633Y-98630000D02*
X134795300Y-98696666D01*
X134795300Y-98696666D02*
X134828633Y-98796666D01*
X134828633Y-98796666D02*
X134828633Y-98963333D01*
X129048633Y-86343333D02*
X129048633Y-85909999D01*
X129048633Y-85909999D02*
X129315300Y-86143333D01*
X129315300Y-86143333D02*
X129315300Y-86043333D01*
X129315300Y-86043333D02*
X129348633Y-85976666D01*
X129348633Y-85976666D02*
X129381966Y-85943333D01*
X129381966Y-85943333D02*
X129448633Y-85909999D01*
X129448633Y-85909999D02*
X129615300Y-85909999D01*
X129615300Y-85909999D02*
X129681966Y-85943333D01*
X129681966Y-85943333D02*
X129715300Y-85976666D01*
X129715300Y-85976666D02*
X129748633Y-86043333D01*
X129748633Y-86043333D02*
X129748633Y-86243333D01*
X129748633Y-86243333D02*
X129715300Y-86309999D01*
X129715300Y-86309999D02*
X129681966Y-86343333D01*
X124668633Y-85909999D02*
X124668633Y-86309999D01*
X124668633Y-86109999D02*
X123968633Y-86109999D01*
X123968633Y-86109999D02*
X124068633Y-86176666D01*
X124068633Y-86176666D02*
X124135300Y-86243333D01*
X124135300Y-86243333D02*
X124168633Y-86309999D01*
X142448633Y-86659999D02*
X141748633Y-86659999D01*
X141748633Y-86659999D02*
X142448633Y-86259999D01*
X142448633Y-86259999D02*
X141748633Y-86259999D01*
X142381966Y-85526666D02*
X142415300Y-85559999D01*
X142415300Y-85559999D02*
X142448633Y-85659999D01*
X142448633Y-85659999D02*
X142448633Y-85726666D01*
X142448633Y-85726666D02*
X142415300Y-85826666D01*
X142415300Y-85826666D02*
X142348633Y-85893333D01*
X142348633Y-85893333D02*
X142281966Y-85926666D01*
X142281966Y-85926666D02*
X142148633Y-85959999D01*
X142148633Y-85959999D02*
X142048633Y-85959999D01*
X142048633Y-85959999D02*
X141915300Y-85926666D01*
X141915300Y-85926666D02*
X141848633Y-85893333D01*
X141848633Y-85893333D02*
X141781966Y-85826666D01*
X141781966Y-85826666D02*
X141748633Y-85726666D01*
X141748633Y-85726666D02*
X141748633Y-85659999D01*
X141748633Y-85659999D02*
X141781966Y-85559999D01*
X141781966Y-85559999D02*
X141815300Y-85526666D01*
X139908633Y-86243333D02*
X139908633Y-86643333D01*
X139908633Y-86443333D02*
X139208633Y-86443333D01*
X139208633Y-86443333D02*
X139308633Y-86510000D01*
X139308633Y-86510000D02*
X139375300Y-86576667D01*
X139375300Y-86576667D02*
X139408633Y-86643333D01*
X139208633Y-86010000D02*
X139208633Y-85576666D01*
X139208633Y-85576666D02*
X139475300Y-85810000D01*
X139475300Y-85810000D02*
X139475300Y-85710000D01*
X139475300Y-85710000D02*
X139508633Y-85643333D01*
X139508633Y-85643333D02*
X139541966Y-85610000D01*
X139541966Y-85610000D02*
X139608633Y-85576666D01*
X139608633Y-85576666D02*
X139775300Y-85576666D01*
X139775300Y-85576666D02*
X139841966Y-85610000D01*
X139841966Y-85610000D02*
X139875300Y-85643333D01*
X139875300Y-85643333D02*
X139908633Y-85710000D01*
X139908633Y-85710000D02*
X139908633Y-85910000D01*
X139908633Y-85910000D02*
X139875300Y-85976666D01*
X139875300Y-85976666D02*
X139841966Y-86010000D01*
X142448633Y-104454381D02*
X141748633Y-104454381D01*
X141748633Y-104454381D02*
X142448633Y-104054381D01*
X142448633Y-104054381D02*
X141748633Y-104054381D01*
X142381966Y-103321048D02*
X142415300Y-103354381D01*
X142415300Y-103354381D02*
X142448633Y-103454381D01*
X142448633Y-103454381D02*
X142448633Y-103521048D01*
X142448633Y-103521048D02*
X142415300Y-103621048D01*
X142415300Y-103621048D02*
X142348633Y-103687715D01*
X142348633Y-103687715D02*
X142281966Y-103721048D01*
X142281966Y-103721048D02*
X142148633Y-103754381D01*
X142148633Y-103754381D02*
X142048633Y-103754381D01*
X142048633Y-103754381D02*
X141915300Y-103721048D01*
X141915300Y-103721048D02*
X141848633Y-103687715D01*
X141848633Y-103687715D02*
X141781966Y-103621048D01*
X141781966Y-103621048D02*
X141748633Y-103521048D01*
X141748633Y-103521048D02*
X141748633Y-103454381D01*
X141748633Y-103454381D02*
X141781966Y-103354381D01*
X141781966Y-103354381D02*
X141815300Y-103321048D01*
X134828633Y-88833333D02*
X134128633Y-88833333D01*
X134128633Y-88833333D02*
X134128633Y-88666666D01*
X134128633Y-88666666D02*
X134161966Y-88566666D01*
X134161966Y-88566666D02*
X134228633Y-88500000D01*
X134228633Y-88500000D02*
X134295300Y-88466666D01*
X134295300Y-88466666D02*
X134428633Y-88433333D01*
X134428633Y-88433333D02*
X134528633Y-88433333D01*
X134528633Y-88433333D02*
X134661966Y-88466666D01*
X134661966Y-88466666D02*
X134728633Y-88500000D01*
X134728633Y-88500000D02*
X134795300Y-88566666D01*
X134795300Y-88566666D02*
X134828633Y-88666666D01*
X134828633Y-88666666D02*
X134828633Y-88833333D01*
X146861966Y-104423332D02*
X146828633Y-104489999D01*
X146828633Y-104489999D02*
X146828633Y-104589999D01*
X146828633Y-104589999D02*
X146861966Y-104689999D01*
X146861966Y-104689999D02*
X146928633Y-104756666D01*
X146928633Y-104756666D02*
X146995300Y-104789999D01*
X146995300Y-104789999D02*
X147128633Y-104823332D01*
X147128633Y-104823332D02*
X147228633Y-104823332D01*
X147228633Y-104823332D02*
X147361966Y-104789999D01*
X147361966Y-104789999D02*
X147428633Y-104756666D01*
X147428633Y-104756666D02*
X147495300Y-104689999D01*
X147495300Y-104689999D02*
X147528633Y-104589999D01*
X147528633Y-104589999D02*
X147528633Y-104523332D01*
X147528633Y-104523332D02*
X147495300Y-104423332D01*
X147495300Y-104423332D02*
X147461966Y-104389999D01*
X147461966Y-104389999D02*
X147228633Y-104389999D01*
X147228633Y-104389999D02*
X147228633Y-104523332D01*
X147528633Y-104089999D02*
X146828633Y-104089999D01*
X146828633Y-104089999D02*
X147528633Y-103689999D01*
X147528633Y-103689999D02*
X146828633Y-103689999D01*
X147528633Y-103356666D02*
X146828633Y-103356666D01*
X146828633Y-103356666D02*
X146828633Y-103189999D01*
X146828633Y-103189999D02*
X146861966Y-103089999D01*
X146861966Y-103089999D02*
X146928633Y-103023333D01*
X146928633Y-103023333D02*
X146995300Y-102989999D01*
X146995300Y-102989999D02*
X147128633Y-102956666D01*
X147128633Y-102956666D02*
X147228633Y-102956666D01*
X147228633Y-102956666D02*
X147361966Y-102989999D01*
X147361966Y-102989999D02*
X147428633Y-103023333D01*
X147428633Y-103023333D02*
X147495300Y-103089999D01*
X147495300Y-103089999D02*
X147528633Y-103189999D01*
X147528633Y-103189999D02*
X147528633Y-103356666D01*
X146861966Y-86643332D02*
X146828633Y-86709999D01*
X146828633Y-86709999D02*
X146828633Y-86809999D01*
X146828633Y-86809999D02*
X146861966Y-86909999D01*
X146861966Y-86909999D02*
X146928633Y-86976666D01*
X146928633Y-86976666D02*
X146995300Y-87009999D01*
X146995300Y-87009999D02*
X147128633Y-87043332D01*
X147128633Y-87043332D02*
X147228633Y-87043332D01*
X147228633Y-87043332D02*
X147361966Y-87009999D01*
X147361966Y-87009999D02*
X147428633Y-86976666D01*
X147428633Y-86976666D02*
X147495300Y-86909999D01*
X147495300Y-86909999D02*
X147528633Y-86809999D01*
X147528633Y-86809999D02*
X147528633Y-86743332D01*
X147528633Y-86743332D02*
X147495300Y-86643332D01*
X147495300Y-86643332D02*
X147461966Y-86609999D01*
X147461966Y-86609999D02*
X147228633Y-86609999D01*
X147228633Y-86609999D02*
X147228633Y-86743332D01*
X147528633Y-86309999D02*
X146828633Y-86309999D01*
X146828633Y-86309999D02*
X147528633Y-85909999D01*
X147528633Y-85909999D02*
X146828633Y-85909999D01*
X147528633Y-85576666D02*
X146828633Y-85576666D01*
X146828633Y-85576666D02*
X146828633Y-85409999D01*
X146828633Y-85409999D02*
X146861966Y-85309999D01*
X146861966Y-85309999D02*
X146928633Y-85243333D01*
X146928633Y-85243333D02*
X146995300Y-85209999D01*
X146995300Y-85209999D02*
X147128633Y-85176666D01*
X147128633Y-85176666D02*
X147228633Y-85176666D01*
X147228633Y-85176666D02*
X147361966Y-85209999D01*
X147361966Y-85209999D02*
X147428633Y-85243333D01*
X147428633Y-85243333D02*
X147495300Y-85309999D01*
X147495300Y-85309999D02*
X147528633Y-85409999D01*
X147528633Y-85409999D02*
X147528633Y-85576666D01*
X121428633Y-86610000D02*
X121428633Y-86176666D01*
X121428633Y-86176666D02*
X121695300Y-86410000D01*
X121695300Y-86410000D02*
X121695300Y-86310000D01*
X121695300Y-86310000D02*
X121728633Y-86243333D01*
X121728633Y-86243333D02*
X121761966Y-86210000D01*
X121761966Y-86210000D02*
X121828633Y-86176666D01*
X121828633Y-86176666D02*
X121995300Y-86176666D01*
X121995300Y-86176666D02*
X122061966Y-86210000D01*
X122061966Y-86210000D02*
X122095300Y-86243333D01*
X122095300Y-86243333D02*
X122128633Y-86310000D01*
X122128633Y-86310000D02*
X122128633Y-86510000D01*
X122128633Y-86510000D02*
X122095300Y-86576666D01*
X122095300Y-86576666D02*
X122061966Y-86610000D01*
X121661966Y-85943333D02*
X122128633Y-85776666D01*
X122128633Y-85776666D02*
X121661966Y-85609999D01*
X126741966Y-104104382D02*
X127208633Y-104104382D01*
X126475300Y-104271049D02*
X126975300Y-104437715D01*
X126975300Y-104437715D02*
X126975300Y-104004382D01*
X126508633Y-103804382D02*
X126508633Y-103371048D01*
X126508633Y-103371048D02*
X126775300Y-103604382D01*
X126775300Y-103604382D02*
X126775300Y-103504382D01*
X126775300Y-103504382D02*
X126808633Y-103437715D01*
X126808633Y-103437715D02*
X126841966Y-103404382D01*
X126841966Y-103404382D02*
X126908633Y-103371048D01*
X126908633Y-103371048D02*
X127075300Y-103371048D01*
X127075300Y-103371048D02*
X127141966Y-103404382D01*
X127141966Y-103404382D02*
X127175300Y-103437715D01*
X127175300Y-103437715D02*
X127208633Y-103504382D01*
X127208633Y-103504382D02*
X127208633Y-103704382D01*
X127208633Y-103704382D02*
X127175300Y-103771048D01*
X127175300Y-103771048D02*
X127141966Y-103804382D01*
X134828633Y-86243333D02*
X134828633Y-86643333D01*
X134828633Y-86443333D02*
X134128633Y-86443333D01*
X134128633Y-86443333D02*
X134228633Y-86510000D01*
X134228633Y-86510000D02*
X134295300Y-86576667D01*
X134295300Y-86576667D02*
X134328633Y-86643333D01*
X134828633Y-85576666D02*
X134828633Y-85976666D01*
X134828633Y-85776666D02*
X134128633Y-85776666D01*
X134128633Y-85776666D02*
X134228633Y-85843333D01*
X134228633Y-85843333D02*
X134295300Y-85910000D01*
X134295300Y-85910000D02*
X134328633Y-85976666D01*
X139975300Y-88383332D02*
X139941966Y-88449999D01*
X139941966Y-88449999D02*
X139875300Y-88516666D01*
X139875300Y-88516666D02*
X139775300Y-88616666D01*
X139775300Y-88616666D02*
X139741966Y-88683332D01*
X139741966Y-88683332D02*
X139741966Y-88749999D01*
X139908633Y-88716666D02*
X139875300Y-88783332D01*
X139875300Y-88783332D02*
X139808633Y-88849999D01*
X139808633Y-88849999D02*
X139675300Y-88883332D01*
X139675300Y-88883332D02*
X139441966Y-88883332D01*
X139441966Y-88883332D02*
X139308633Y-88849999D01*
X139308633Y-88849999D02*
X139241966Y-88783332D01*
X139241966Y-88783332D02*
X139208633Y-88716666D01*
X139208633Y-88716666D02*
X139208633Y-88583332D01*
X139208633Y-88583332D02*
X139241966Y-88516666D01*
X139241966Y-88516666D02*
X139308633Y-88449999D01*
X139308633Y-88449999D02*
X139441966Y-88416666D01*
X139441966Y-88416666D02*
X139675300Y-88416666D01*
X139675300Y-88416666D02*
X139808633Y-88449999D01*
X139808633Y-88449999D02*
X139875300Y-88516666D01*
X139875300Y-88516666D02*
X139908633Y-88583332D01*
X139908633Y-88583332D02*
X139908633Y-88716666D01*
X131588633Y-101646666D02*
X132155300Y-101646666D01*
X132155300Y-101646666D02*
X132221966Y-101613333D01*
X132221966Y-101613333D02*
X132255300Y-101579999D01*
X132255300Y-101579999D02*
X132288633Y-101513333D01*
X132288633Y-101513333D02*
X132288633Y-101379999D01*
X132288633Y-101379999D02*
X132255300Y-101313333D01*
X132255300Y-101313333D02*
X132221966Y-101279999D01*
X132221966Y-101279999D02*
X132155300Y-101246666D01*
X132155300Y-101246666D02*
X131588633Y-101246666D01*
X132288633Y-100546666D02*
X132288633Y-100946666D01*
X132288633Y-100746666D02*
X131588633Y-100746666D01*
X131588633Y-100746666D02*
X131688633Y-100813333D01*
X131688633Y-100813333D02*
X131755300Y-100880000D01*
X131755300Y-100880000D02*
X131788633Y-100946666D01*
X132288633Y-99846666D02*
X131955300Y-100079999D01*
X132288633Y-100246666D02*
X131588633Y-100246666D01*
X131588633Y-100246666D02*
X131588633Y-99979999D01*
X131588633Y-99979999D02*
X131621966Y-99913333D01*
X131621966Y-99913333D02*
X131655300Y-99879999D01*
X131655300Y-99879999D02*
X131721966Y-99846666D01*
X131721966Y-99846666D02*
X131821966Y-99846666D01*
X131821966Y-99846666D02*
X131888633Y-99879999D01*
X131888633Y-99879999D02*
X131921966Y-99913333D01*
X131921966Y-99913333D02*
X131955300Y-99979999D01*
X131955300Y-99979999D02*
X131955300Y-100246666D01*
X131588633Y-99613333D02*
X132288633Y-99146666D01*
X131588633Y-99146666D02*
X132288633Y-99613333D01*
X132288633Y-98879999D02*
X131588633Y-98879999D01*
X131588633Y-98879999D02*
X131588633Y-98713332D01*
X131588633Y-98713332D02*
X131621966Y-98613332D01*
X131621966Y-98613332D02*
X131688633Y-98546666D01*
X131688633Y-98546666D02*
X131755300Y-98513332D01*
X131755300Y-98513332D02*
X131888633Y-98479999D01*
X131888633Y-98479999D02*
X131988633Y-98479999D01*
X131988633Y-98479999D02*
X132121966Y-98513332D01*
X132121966Y-98513332D02*
X132188633Y-98546666D01*
X132188633Y-98546666D02*
X132255300Y-98613332D01*
X132255300Y-98613332D02*
X132288633Y-98713332D01*
X132288633Y-98713332D02*
X132288633Y-98879999D01*
X139908633Y-104037715D02*
X139908633Y-104437715D01*
X139908633Y-104237715D02*
X139208633Y-104237715D01*
X139208633Y-104237715D02*
X139308633Y-104304382D01*
X139308633Y-104304382D02*
X139375300Y-104371049D01*
X139375300Y-104371049D02*
X139408633Y-104437715D01*
X139208633Y-103437715D02*
X139208633Y-103571048D01*
X139208633Y-103571048D02*
X139241966Y-103637715D01*
X139241966Y-103637715D02*
X139275300Y-103671048D01*
X139275300Y-103671048D02*
X139375300Y-103737715D01*
X139375300Y-103737715D02*
X139508633Y-103771048D01*
X139508633Y-103771048D02*
X139775300Y-103771048D01*
X139775300Y-103771048D02*
X139841966Y-103737715D01*
X139841966Y-103737715D02*
X139875300Y-103704382D01*
X139875300Y-103704382D02*
X139908633Y-103637715D01*
X139908633Y-103637715D02*
X139908633Y-103504382D01*
X139908633Y-103504382D02*
X139875300Y-103437715D01*
X139875300Y-103437715D02*
X139841966Y-103404382D01*
X139841966Y-103404382D02*
X139775300Y-103371048D01*
X139775300Y-103371048D02*
X139608633Y-103371048D01*
X139608633Y-103371048D02*
X139541966Y-103404382D01*
X139541966Y-103404382D02*
X139508633Y-103437715D01*
X139508633Y-103437715D02*
X139475300Y-103504382D01*
X139475300Y-103504382D02*
X139475300Y-103637715D01*
X139475300Y-103637715D02*
X139508633Y-103704382D01*
X139508633Y-103704382D02*
X139541966Y-103737715D01*
X139541966Y-103737715D02*
X139608633Y-103771048D01*
X144321966Y-104423332D02*
X144288633Y-104489999D01*
X144288633Y-104489999D02*
X144288633Y-104589999D01*
X144288633Y-104589999D02*
X144321966Y-104689999D01*
X144321966Y-104689999D02*
X144388633Y-104756666D01*
X144388633Y-104756666D02*
X144455300Y-104789999D01*
X144455300Y-104789999D02*
X144588633Y-104823332D01*
X144588633Y-104823332D02*
X144688633Y-104823332D01*
X144688633Y-104823332D02*
X144821966Y-104789999D01*
X144821966Y-104789999D02*
X144888633Y-104756666D01*
X144888633Y-104756666D02*
X144955300Y-104689999D01*
X144955300Y-104689999D02*
X144988633Y-104589999D01*
X144988633Y-104589999D02*
X144988633Y-104523332D01*
X144988633Y-104523332D02*
X144955300Y-104423332D01*
X144955300Y-104423332D02*
X144921966Y-104389999D01*
X144921966Y-104389999D02*
X144688633Y-104389999D01*
X144688633Y-104389999D02*
X144688633Y-104523332D01*
X144988633Y-104089999D02*
X144288633Y-104089999D01*
X144288633Y-104089999D02*
X144988633Y-103689999D01*
X144988633Y-103689999D02*
X144288633Y-103689999D01*
X144988633Y-103356666D02*
X144288633Y-103356666D01*
X144288633Y-103356666D02*
X144288633Y-103189999D01*
X144288633Y-103189999D02*
X144321966Y-103089999D01*
X144321966Y-103089999D02*
X144388633Y-103023333D01*
X144388633Y-103023333D02*
X144455300Y-102989999D01*
X144455300Y-102989999D02*
X144588633Y-102956666D01*
X144588633Y-102956666D02*
X144688633Y-102956666D01*
X144688633Y-102956666D02*
X144821966Y-102989999D01*
X144821966Y-102989999D02*
X144888633Y-103023333D01*
X144888633Y-103023333D02*
X144955300Y-103089999D01*
X144955300Y-103089999D02*
X144988633Y-103189999D01*
X144988633Y-103189999D02*
X144988633Y-103356666D01*
X132221966Y-88766666D02*
X132255300Y-88799999D01*
X132255300Y-88799999D02*
X132288633Y-88899999D01*
X132288633Y-88899999D02*
X132288633Y-88966666D01*
X132288633Y-88966666D02*
X132255300Y-89066666D01*
X132255300Y-89066666D02*
X132188633Y-89133333D01*
X132188633Y-89133333D02*
X132121966Y-89166666D01*
X132121966Y-89166666D02*
X131988633Y-89199999D01*
X131988633Y-89199999D02*
X131888633Y-89199999D01*
X131888633Y-89199999D02*
X131755300Y-89166666D01*
X131755300Y-89166666D02*
X131688633Y-89133333D01*
X131688633Y-89133333D02*
X131621966Y-89066666D01*
X131621966Y-89066666D02*
X131588633Y-88966666D01*
X131588633Y-88966666D02*
X131588633Y-88899999D01*
X131588633Y-88899999D02*
X131621966Y-88799999D01*
X131621966Y-88799999D02*
X131655300Y-88766666D01*
X132255300Y-88499999D02*
X132288633Y-88399999D01*
X132288633Y-88399999D02*
X132288633Y-88233333D01*
X132288633Y-88233333D02*
X132255300Y-88166666D01*
X132255300Y-88166666D02*
X132221966Y-88133333D01*
X132221966Y-88133333D02*
X132155300Y-88099999D01*
X132155300Y-88099999D02*
X132088633Y-88099999D01*
X132088633Y-88099999D02*
X132021966Y-88133333D01*
X132021966Y-88133333D02*
X131988633Y-88166666D01*
X131988633Y-88166666D02*
X131955300Y-88233333D01*
X131955300Y-88233333D02*
X131921966Y-88366666D01*
X131921966Y-88366666D02*
X131888633Y-88433333D01*
X131888633Y-88433333D02*
X131855300Y-88466666D01*
X131855300Y-88466666D02*
X131788633Y-88499999D01*
X131788633Y-88499999D02*
X131721966Y-88499999D01*
X131721966Y-88499999D02*
X131655300Y-88466666D01*
X131655300Y-88466666D02*
X131621966Y-88433333D01*
X131621966Y-88433333D02*
X131588633Y-88366666D01*
X131588633Y-88366666D02*
X131588633Y-88199999D01*
X131588633Y-88199999D02*
X131621966Y-88099999D01*
X121461966Y-104423332D02*
X121428633Y-104489999D01*
X121428633Y-104489999D02*
X121428633Y-104589999D01*
X121428633Y-104589999D02*
X121461966Y-104689999D01*
X121461966Y-104689999D02*
X121528633Y-104756666D01*
X121528633Y-104756666D02*
X121595300Y-104789999D01*
X121595300Y-104789999D02*
X121728633Y-104823332D01*
X121728633Y-104823332D02*
X121828633Y-104823332D01*
X121828633Y-104823332D02*
X121961966Y-104789999D01*
X121961966Y-104789999D02*
X122028633Y-104756666D01*
X122028633Y-104756666D02*
X122095300Y-104689999D01*
X122095300Y-104689999D02*
X122128633Y-104589999D01*
X122128633Y-104589999D02*
X122128633Y-104523332D01*
X122128633Y-104523332D02*
X122095300Y-104423332D01*
X122095300Y-104423332D02*
X122061966Y-104389999D01*
X122061966Y-104389999D02*
X121828633Y-104389999D01*
X121828633Y-104389999D02*
X121828633Y-104523332D01*
X122128633Y-104089999D02*
X121428633Y-104089999D01*
X121428633Y-104089999D02*
X122128633Y-103689999D01*
X122128633Y-103689999D02*
X121428633Y-103689999D01*
X122128633Y-103356666D02*
X121428633Y-103356666D01*
X121428633Y-103356666D02*
X121428633Y-103189999D01*
X121428633Y-103189999D02*
X121461966Y-103089999D01*
X121461966Y-103089999D02*
X121528633Y-103023333D01*
X121528633Y-103023333D02*
X121595300Y-102989999D01*
X121595300Y-102989999D02*
X121728633Y-102956666D01*
X121728633Y-102956666D02*
X121828633Y-102956666D01*
X121828633Y-102956666D02*
X121961966Y-102989999D01*
X121961966Y-102989999D02*
X122028633Y-103023333D01*
X122028633Y-103023333D02*
X122095300Y-103089999D01*
X122095300Y-103089999D02*
X122128633Y-103189999D01*
X122128633Y-103189999D02*
X122128633Y-103356666D01*
X132288633Y-86243333D02*
X132288633Y-86643333D01*
X132288633Y-86443333D02*
X131588633Y-86443333D01*
X131588633Y-86443333D02*
X131688633Y-86510000D01*
X131688633Y-86510000D02*
X131755300Y-86576667D01*
X131755300Y-86576667D02*
X131788633Y-86643333D01*
X131588633Y-85810000D02*
X131588633Y-85743333D01*
X131588633Y-85743333D02*
X131621966Y-85676666D01*
X131621966Y-85676666D02*
X131655300Y-85643333D01*
X131655300Y-85643333D02*
X131721966Y-85610000D01*
X131721966Y-85610000D02*
X131855300Y-85576666D01*
X131855300Y-85576666D02*
X132021966Y-85576666D01*
X132021966Y-85576666D02*
X132155300Y-85610000D01*
X132155300Y-85610000D02*
X132221966Y-85643333D01*
X132221966Y-85643333D02*
X132255300Y-85676666D01*
X132255300Y-85676666D02*
X132288633Y-85743333D01*
X132288633Y-85743333D02*
X132288633Y-85810000D01*
X132288633Y-85810000D02*
X132255300Y-85876666D01*
X132255300Y-85876666D02*
X132221966Y-85910000D01*
X132221966Y-85910000D02*
X132155300Y-85943333D01*
X132155300Y-85943333D02*
X132021966Y-85976666D01*
X132021966Y-85976666D02*
X131855300Y-85976666D01*
X131855300Y-85976666D02*
X131721966Y-85943333D01*
X131721966Y-85943333D02*
X131655300Y-85910000D01*
X131655300Y-85910000D02*
X131621966Y-85876666D01*
X131621966Y-85876666D02*
X131588633Y-85810000D01*
X149368633Y-86210000D02*
X149368633Y-86543333D01*
X149368633Y-86543333D02*
X149701966Y-86576666D01*
X149701966Y-86576666D02*
X149668633Y-86543333D01*
X149668633Y-86543333D02*
X149635300Y-86476666D01*
X149635300Y-86476666D02*
X149635300Y-86310000D01*
X149635300Y-86310000D02*
X149668633Y-86243333D01*
X149668633Y-86243333D02*
X149701966Y-86210000D01*
X149701966Y-86210000D02*
X149768633Y-86176666D01*
X149768633Y-86176666D02*
X149935300Y-86176666D01*
X149935300Y-86176666D02*
X150001966Y-86210000D01*
X150001966Y-86210000D02*
X150035300Y-86243333D01*
X150035300Y-86243333D02*
X150068633Y-86310000D01*
X150068633Y-86310000D02*
X150068633Y-86476666D01*
X150068633Y-86476666D02*
X150035300Y-86543333D01*
X150035300Y-86543333D02*
X150001966Y-86576666D01*
X149601966Y-85943333D02*
X150068633Y-85776666D01*
X150068633Y-85776666D02*
X149601966Y-85609999D01*
X144988633Y-86659999D02*
X144288633Y-86659999D01*
X144288633Y-86659999D02*
X144988633Y-86259999D01*
X144988633Y-86259999D02*
X144288633Y-86259999D01*
X144921966Y-85526666D02*
X144955300Y-85559999D01*
X144955300Y-85559999D02*
X144988633Y-85659999D01*
X144988633Y-85659999D02*
X144988633Y-85726666D01*
X144988633Y-85726666D02*
X144955300Y-85826666D01*
X144955300Y-85826666D02*
X144888633Y-85893333D01*
X144888633Y-85893333D02*
X144821966Y-85926666D01*
X144821966Y-85926666D02*
X144688633Y-85959999D01*
X144688633Y-85959999D02*
X144588633Y-85959999D01*
X144588633Y-85959999D02*
X144455300Y-85926666D01*
X144455300Y-85926666D02*
X144388633Y-85893333D01*
X144388633Y-85893333D02*
X144321966Y-85826666D01*
X144321966Y-85826666D02*
X144288633Y-85726666D01*
X144288633Y-85726666D02*
X144288633Y-85659999D01*
X144288633Y-85659999D02*
X144321966Y-85559999D01*
X144321966Y-85559999D02*
X144355300Y-85526666D01*
X137368633Y-86243333D02*
X137368633Y-86643333D01*
X137368633Y-86443333D02*
X136668633Y-86443333D01*
X136668633Y-86443333D02*
X136768633Y-86510000D01*
X136768633Y-86510000D02*
X136835300Y-86576667D01*
X136835300Y-86576667D02*
X136868633Y-86643333D01*
X136735300Y-85976666D02*
X136701966Y-85943333D01*
X136701966Y-85943333D02*
X136668633Y-85876666D01*
X136668633Y-85876666D02*
X136668633Y-85710000D01*
X136668633Y-85710000D02*
X136701966Y-85643333D01*
X136701966Y-85643333D02*
X136735300Y-85610000D01*
X136735300Y-85610000D02*
X136801966Y-85576666D01*
X136801966Y-85576666D02*
X136868633Y-85576666D01*
X136868633Y-85576666D02*
X136968633Y-85610000D01*
X136968633Y-85610000D02*
X137368633Y-86010000D01*
X137368633Y-86010000D02*
X137368633Y-85576666D01*
X149368633Y-104390000D02*
X149368633Y-103956666D01*
X149368633Y-103956666D02*
X149635300Y-104190000D01*
X149635300Y-104190000D02*
X149635300Y-104090000D01*
X149635300Y-104090000D02*
X149668633Y-104023333D01*
X149668633Y-104023333D02*
X149701966Y-103990000D01*
X149701966Y-103990000D02*
X149768633Y-103956666D01*
X149768633Y-103956666D02*
X149935300Y-103956666D01*
X149935300Y-103956666D02*
X150001966Y-103990000D01*
X150001966Y-103990000D02*
X150035300Y-104023333D01*
X150035300Y-104023333D02*
X150068633Y-104090000D01*
X150068633Y-104090000D02*
X150068633Y-104290000D01*
X150068633Y-104290000D02*
X150035300Y-104356666D01*
X150035300Y-104356666D02*
X150001966Y-104390000D01*
X149601966Y-103723333D02*
X150068633Y-103556666D01*
X150068633Y-103556666D02*
X149601966Y-103389999D01*
X137301966Y-89066666D02*
X137335300Y-89099999D01*
X137335300Y-89099999D02*
X137368633Y-89199999D01*
X137368633Y-89199999D02*
X137368633Y-89266666D01*
X137368633Y-89266666D02*
X137335300Y-89366666D01*
X137335300Y-89366666D02*
X137268633Y-89433333D01*
X137268633Y-89433333D02*
X137201966Y-89466666D01*
X137201966Y-89466666D02*
X137068633Y-89499999D01*
X137068633Y-89499999D02*
X136968633Y-89499999D01*
X136968633Y-89499999D02*
X136835300Y-89466666D01*
X136835300Y-89466666D02*
X136768633Y-89433333D01*
X136768633Y-89433333D02*
X136701966Y-89366666D01*
X136701966Y-89366666D02*
X136668633Y-89266666D01*
X136668633Y-89266666D02*
X136668633Y-89199999D01*
X136668633Y-89199999D02*
X136701966Y-89099999D01*
X136701966Y-89099999D02*
X136735300Y-89066666D01*
X137368633Y-88433333D02*
X137368633Y-88766666D01*
X137368633Y-88766666D02*
X136668633Y-88766666D01*
X137368633Y-88199999D02*
X136668633Y-88199999D01*
X137368633Y-87799999D02*
X136968633Y-88099999D01*
X136668633Y-87799999D02*
X137068633Y-88199999D01*
X129281966Y-104104382D02*
X129748633Y-104104382D01*
X129015300Y-104271049D02*
X129515300Y-104437715D01*
X129515300Y-104437715D02*
X129515300Y-104004382D01*
X129281966Y-103437715D02*
X129748633Y-103437715D01*
X129015300Y-103604382D02*
X129515300Y-103771048D01*
X129515300Y-103771048D02*
X129515300Y-103337715D01*
X132288633Y-104037715D02*
X132288633Y-104437715D01*
X132288633Y-104237715D02*
X131588633Y-104237715D01*
X131588633Y-104237715D02*
X131688633Y-104304382D01*
X131688633Y-104304382D02*
X131755300Y-104371049D01*
X131755300Y-104371049D02*
X131788633Y-104437715D01*
X131888633Y-103637715D02*
X131855300Y-103704382D01*
X131855300Y-103704382D02*
X131821966Y-103737715D01*
X131821966Y-103737715D02*
X131755300Y-103771048D01*
X131755300Y-103771048D02*
X131721966Y-103771048D01*
X131721966Y-103771048D02*
X131655300Y-103737715D01*
X131655300Y-103737715D02*
X131621966Y-103704382D01*
X131621966Y-103704382D02*
X131588633Y-103637715D01*
X131588633Y-103637715D02*
X131588633Y-103504382D01*
X131588633Y-103504382D02*
X131621966Y-103437715D01*
X131621966Y-103437715D02*
X131655300Y-103404382D01*
X131655300Y-103404382D02*
X131721966Y-103371048D01*
X131721966Y-103371048D02*
X131755300Y-103371048D01*
X131755300Y-103371048D02*
X131821966Y-103404382D01*
X131821966Y-103404382D02*
X131855300Y-103437715D01*
X131855300Y-103437715D02*
X131888633Y-103504382D01*
X131888633Y-103504382D02*
X131888633Y-103637715D01*
X131888633Y-103637715D02*
X131921966Y-103704382D01*
X131921966Y-103704382D02*
X131955300Y-103737715D01*
X131955300Y-103737715D02*
X132021966Y-103771048D01*
X132021966Y-103771048D02*
X132155300Y-103771048D01*
X132155300Y-103771048D02*
X132221966Y-103737715D01*
X132221966Y-103737715D02*
X132255300Y-103704382D01*
X132255300Y-103704382D02*
X132288633Y-103637715D01*
X132288633Y-103637715D02*
X132288633Y-103504382D01*
X132288633Y-103504382D02*
X132255300Y-103437715D01*
X132255300Y-103437715D02*
X132221966Y-103404382D01*
X132221966Y-103404382D02*
X132155300Y-103371048D01*
X132155300Y-103371048D02*
X132021966Y-103371048D01*
X132021966Y-103371048D02*
X131955300Y-103404382D01*
X131955300Y-103404382D02*
X131921966Y-103437715D01*
X131921966Y-103437715D02*
X131888633Y-103504382D01*
D13*
%TO.C,U1*%
X144890000Y-73282934D02*
X144890000Y-76882934D01*
X144890000Y-73282934D02*
X144890000Y-71082934D01*
X150110000Y-73282934D02*
X150110000Y-75482934D01*
X150110000Y-73282934D02*
X150110000Y-71082934D01*
%TO.C,R1*%
X125322500Y-73762742D02*
X125322500Y-74237258D01*
X124277500Y-73762742D02*
X124277500Y-74237258D01*
%TO.C,RV2*%
X163530000Y-77120000D02*
X165129000Y-77120000D01*
X163530000Y-77120000D02*
X163530000Y-73255000D01*
X166871000Y-77120000D02*
X167630000Y-77120000D01*
X169371000Y-77120000D02*
X170130000Y-77120000D01*
X171870000Y-77120000D02*
X173470000Y-77120000D01*
X173470000Y-77120000D02*
X173470000Y-73255000D01*
X163530000Y-68745000D02*
X163530000Y-64880000D01*
X173470000Y-68745000D02*
X173470000Y-64880000D01*
X163530000Y-64880000D02*
X173470000Y-64880000D01*
%TO.C,C5*%
X124447500Y-61562500D02*
X124447500Y-62350000D01*
X124841250Y-61956250D02*
X124053750Y-61956250D01*
X124945563Y-62590000D02*
X123660000Y-62590000D01*
X124945563Y-62590000D02*
X126010000Y-63654437D01*
X120254437Y-62590000D02*
X121540000Y-62590000D01*
X120254437Y-62590000D02*
X119190000Y-63654437D01*
X126010000Y-63654437D02*
X126010000Y-69410000D01*
X119190000Y-63654437D02*
X119190000Y-69410000D01*
X126010000Y-69410000D02*
X123660000Y-69410000D01*
X119190000Y-69410000D02*
X121540000Y-69410000D01*
%TO.C,SW5*%
X163650000Y-116370000D02*
X161450000Y-116370000D01*
X165620000Y-115900000D02*
X165620000Y-110700000D01*
X159380000Y-115300000D02*
X159380000Y-110900000D01*
X161450000Y-110130000D02*
X163650000Y-110130000D01*
X163914214Y-113250000D02*
G75*
G03*
X163914214Y-113250000I-1414214J0D01*
G01*
%TO.C,C4*%
X135735000Y-73738748D02*
X135735000Y-74261252D01*
X134265000Y-73738748D02*
X134265000Y-74261252D01*
%TO.C,C2*%
X142390580Y-75510000D02*
X142109420Y-75510000D01*
X142390580Y-74490000D02*
X142109420Y-74490000D01*
%TO.C,J5*%
X158220000Y-63555000D02*
X168440000Y-63555000D01*
X158220000Y-63555000D02*
X158220000Y-60895000D01*
X168440000Y-63555000D02*
X168440000Y-60895000D01*
X155620000Y-62225000D02*
X155620000Y-60895000D01*
X155620000Y-60895000D02*
X156950000Y-60895000D01*
X158220000Y-60895000D02*
X168440000Y-60895000D01*
%TO.C,SW3*%
X133650000Y-116370000D02*
X131450000Y-116370000D01*
X135620000Y-115900000D02*
X135620000Y-110700000D01*
X129380000Y-115300000D02*
X129380000Y-110900000D01*
X131450000Y-110130000D02*
X133650000Y-110130000D01*
X133914214Y-113250000D02*
G75*
G03*
X133914214Y-113250000I-1414214J0D01*
G01*
%TO.C,J3*%
X135330000Y-62670000D02*
X135330000Y-64000000D01*
X134000000Y-62670000D02*
X135330000Y-62670000D01*
X132730000Y-62670000D02*
X127590000Y-62670000D01*
X132730000Y-62670000D02*
X132730000Y-65330000D01*
X127590000Y-62670000D02*
X127590000Y-65330000D01*
X132730000Y-65330000D02*
X127590000Y-65330000D01*
%TO.C,SW4*%
X148650000Y-116370000D02*
X146450000Y-116370000D01*
X150620000Y-115900000D02*
X150620000Y-110700000D01*
X144380000Y-115300000D02*
X144380000Y-110900000D01*
X146450000Y-110130000D02*
X148650000Y-110130000D01*
X148914214Y-113250000D02*
G75*
G03*
X148914214Y-113250000I-1414214J0D01*
G01*
%TO.C,R3*%
X151477500Y-77729812D02*
X151477500Y-77255296D01*
X152522500Y-77729812D02*
X152522500Y-77255296D01*
%TO.C,SW2*%
X116350000Y-110130000D02*
X118550000Y-110130000D01*
X114380000Y-110600000D02*
X114380000Y-115800000D01*
X120620000Y-111200000D02*
X120620000Y-115600000D01*
X118550000Y-116370000D02*
X116350000Y-116370000D01*
X118914214Y-113250000D02*
G75*
G03*
X118914214Y-113250000I-1414214J0D01*
G01*
%TO.C,D1*%
X130550000Y-75610000D02*
X132250000Y-75610000D01*
X130550000Y-75610000D02*
X130550000Y-72950000D01*
X132250000Y-75610000D02*
X132250000Y-72950000D01*
%TO.C,C3*%
X128735000Y-73738748D02*
X128735000Y-74261252D01*
X127265000Y-73738748D02*
X127265000Y-74261252D01*
%TO.C,SW1*%
X100500000Y-101500000D02*
X100500000Y-88500000D01*
X107500000Y-101500000D02*
X100500000Y-101500000D01*
X100500000Y-88500000D02*
X107500000Y-88500000D01*
X107500000Y-88500000D02*
X107500000Y-101500000D01*
%TO.C,R2*%
X122277500Y-74237258D02*
X122277500Y-73762742D01*
X123322500Y-74237258D02*
X123322500Y-73762742D01*
%TO.C,RV1*%
X106530000Y-77120000D02*
X108129000Y-77120000D01*
X106530000Y-77120000D02*
X106530000Y-73255000D01*
X109871000Y-77120000D02*
X110630000Y-77120000D01*
X112371000Y-77120000D02*
X113130000Y-77120000D01*
X114870000Y-77120000D02*
X116470000Y-77120000D01*
X116470000Y-77120000D02*
X116470000Y-73255000D01*
X106530000Y-68745000D02*
X106530000Y-64880000D01*
X116470000Y-68745000D02*
X116470000Y-64880000D01*
X106530000Y-64880000D02*
X116470000Y-64880000D01*
%TO.C,J4*%
X152410000Y-62670000D02*
X152410000Y-64000000D01*
X151080000Y-62670000D02*
X152410000Y-62670000D01*
X149810000Y-62670000D02*
X144670000Y-62670000D01*
X149810000Y-62670000D02*
X149810000Y-65330000D01*
X144670000Y-62670000D02*
X144670000Y-65330000D01*
X149810000Y-65330000D02*
X144670000Y-65330000D01*
%TO.C,U2*%
X156850000Y-73400000D02*
X153850000Y-73400000D01*
X156850000Y-75600000D02*
X154650000Y-75600000D01*
%TO.C,C1*%
X142390580Y-73510000D02*
X142109420Y-73510000D01*
X142390580Y-72490000D02*
X142109420Y-72490000D01*
%TD*%
%LPC*%
D14*
%TO.C,U1*%
X145550000Y-76145434D03*
X146200000Y-76145434D03*
X146850000Y-76145434D03*
X147500000Y-76145434D03*
X148150000Y-76145434D03*
X148800000Y-76145434D03*
X149450000Y-76145434D03*
X149450000Y-70420434D03*
X148800000Y-70420434D03*
X148150000Y-70420434D03*
X147500000Y-70420434D03*
X146850000Y-70420434D03*
X146200000Y-70420434D03*
X145550000Y-70420434D03*
%TD*%
D15*
%TO.C,R1*%
X124800000Y-73175000D03*
X124800000Y-74825000D03*
%TD*%
D16*
%TO.C,RV2*%
X164100000Y-71000000D03*
X172900000Y-71000000D03*
D17*
X171000000Y-78000000D03*
X168500000Y-78000000D03*
X166000000Y-78000000D03*
%TD*%
D18*
%TO.C,REF\u002A\u002A*%
X100500000Y-61500000D03*
%TD*%
D19*
%TO.C,U3*%
X121810000Y-83570000D03*
X124350000Y-83570000D03*
X126890000Y-83570000D03*
X129430000Y-83570000D03*
X131970000Y-83570000D03*
X134510000Y-83570000D03*
X137050000Y-83570000D03*
X139590000Y-83570000D03*
X142130000Y-83570000D03*
X144670000Y-83570000D03*
X147210000Y-83570000D03*
X149750000Y-83570000D03*
X121810000Y-106430000D03*
X124350000Y-106430000D03*
X126890000Y-106430000D03*
X129430000Y-106430000D03*
X131970000Y-106430000D03*
X134510000Y-106430000D03*
X137050000Y-106430000D03*
X139590000Y-106430000D03*
X142130000Y-106430000D03*
X144670000Y-106430000D03*
X147210000Y-106430000D03*
X149750000Y-106430000D03*
%TD*%
D20*
%TO.C,C5*%
X122600000Y-63300000D03*
X122600000Y-68700000D03*
%TD*%
D21*
%TO.C,SW5*%
X160250000Y-116500000D03*
D22*
X160250000Y-110000000D03*
X164750000Y-116500000D03*
X164750000Y-110000000D03*
%TD*%
D23*
%TO.C,C4*%
X135000000Y-73050000D03*
X135000000Y-74950000D03*
%TD*%
D24*
%TO.C,C2*%
X143025000Y-75000000D03*
X141475000Y-75000000D03*
%TD*%
D21*
%TO.C,J5*%
X156950000Y-62225000D03*
D25*
X159490000Y-62225000D03*
X162030000Y-62225000D03*
X164570000Y-62225000D03*
X167110000Y-62225000D03*
%TD*%
D18*
%TO.C,REF\u002A\u002A*%
X140000000Y-67000000D03*
%TD*%
D22*
%TO.C,J2*%
X110000000Y-99000000D03*
%TD*%
D21*
%TO.C,SW3*%
X130250000Y-116500000D03*
D22*
X130250000Y-110000000D03*
X134750000Y-116500000D03*
X134750000Y-110000000D03*
%TD*%
D21*
%TO.C,J3*%
X134000000Y-64000000D03*
D25*
X131460000Y-64000000D03*
X128920000Y-64000000D03*
%TD*%
D21*
%TO.C,SW4*%
X145250000Y-116500000D03*
D22*
X145250000Y-110000000D03*
X149750000Y-116500000D03*
X149750000Y-110000000D03*
%TD*%
D26*
%TO.C,R3*%
X152000000Y-78317554D03*
X152000000Y-76667554D03*
%TD*%
D21*
%TO.C,SW2*%
X119750000Y-110000000D03*
D22*
X119750000Y-116500000D03*
X115250000Y-110000000D03*
X115250000Y-116500000D03*
%TD*%
%TO.C,J1*%
X110000000Y-114000000D03*
%TD*%
D18*
%TO.C,REF\u002A\u002A*%
X100500000Y-116500000D03*
%TD*%
D27*
%TO.C,D1*%
X131400000Y-75050000D03*
X131400000Y-72950000D03*
%TD*%
D23*
%TO.C,C3*%
X128000000Y-73050000D03*
X128000000Y-74950000D03*
%TD*%
D18*
%TO.C,REF\u002A\u002A*%
X179500000Y-116500000D03*
%TD*%
D28*
%TO.C,SW1*%
X104000000Y-99700000D03*
X104000000Y-95000000D03*
X104000000Y-90300000D03*
%TD*%
D18*
%TO.C,REF\u002A\u002A*%
X179500000Y-61500000D03*
%TD*%
D26*
%TO.C,R2*%
X122800000Y-74825000D03*
X122800000Y-73175000D03*
%TD*%
D16*
%TO.C,RV1*%
X107100000Y-71000000D03*
X115900000Y-71000000D03*
D17*
X114000000Y-78000000D03*
X111500000Y-78000000D03*
X109000000Y-78000000D03*
%TD*%
D21*
%TO.C,J4*%
X151080000Y-64000000D03*
D25*
X148540000Y-64000000D03*
X146000000Y-64000000D03*
%TD*%
D29*
%TO.C,U2*%
X154200000Y-73750000D03*
X154200000Y-74250000D03*
X154200000Y-74750000D03*
X154200000Y-75250000D03*
X157300000Y-75250000D03*
X157300000Y-74750000D03*
X157300000Y-74250000D03*
X157300000Y-73750000D03*
%TD*%
D18*
%TO.C,REF\u002A\u002A*%
X140000000Y-112000000D03*
%TD*%
D24*
%TO.C,C1*%
X143025000Y-73000000D03*
X141475000Y-73000000D03*
%TD*%
%LPD*%
M02*
