%TF.GenerationSoftware,KiCad,Pcbnew,7.0.8*%
%TF.CreationDate,2024-06-03T09:11:21-04:00*%
%TF.ProjectId,mainboard,6d61696e-626f-4617-9264-2e6b69636164,rev?*%
%TF.SameCoordinates,Original*%
%TF.FileFunction,Copper,L2,Bot*%
%TF.FilePolarity,Positive*%
%FSLAX46Y46*%
G04 Gerber Fmt 4.6, Leading zero omitted, Abs format (unit mm)*
G04 Created by KiCad (PCBNEW 7.0.8) date 2024-06-03 09:11:21*
%MOMM*%
%LPD*%
G01*
G04 APERTURE LIST*
%TA.AperFunction,WasherPad*%
%ADD10C,4.000000*%
%TD*%
%TA.AperFunction,ComponentPad*%
%ADD11C,1.800000*%
%TD*%
%TA.AperFunction,ComponentPad*%
%ADD12C,2.000000*%
%TD*%
%TA.AperFunction,ComponentPad*%
%ADD13R,1.700000X1.700000*%
%TD*%
%TA.AperFunction,ComponentPad*%
%ADD14C,1.700000*%
%TD*%
%TA.AperFunction,ComponentPad*%
%ADD15O,1.700000X1.700000*%
%TD*%
%TA.AperFunction,ComponentPad*%
%ADD16O,3.400000X1.800000*%
%TD*%
%TA.AperFunction,ViaPad*%
%ADD17C,0.800000*%
%TD*%
%TA.AperFunction,Conductor*%
%ADD18C,0.250000*%
%TD*%
%TA.AperFunction,Conductor*%
%ADD19C,1.000000*%
%TD*%
G04 APERTURE END LIST*
D10*
%TO.P,RV2,*%
%TO.N,*%
X164100000Y-71000000D03*
X172900000Y-71000000D03*
D11*
%TO.P,RV2,1,1*%
%TO.N,+3.3V*%
X171000000Y-78000000D03*
%TO.P,RV2,2,2*%
%TO.N,/POT2*%
X168500000Y-78000000D03*
%TO.P,RV2,3,3*%
%TO.N,GND*%
X166000000Y-78000000D03*
%TD*%
D12*
%TO.P,U3,1,3v*%
%TO.N,+3.3V*%
X121810000Y-83570000D03*
%TO.P,U3,2,1*%
%TO.N,/POT1*%
X124350000Y-83570000D03*
%TO.P,U3,3,2*%
%TO.N,/POT2*%
X126890000Y-83570000D03*
%TO.P,U3,4,3*%
%TO.N,/VSENSE*%
X129430000Y-83570000D03*
%TO.P,U3,5,10*%
%TO.N,unconnected-(U3-10-Pad5)*%
X131970000Y-83570000D03*
%TO.P,U3,6,11*%
%TO.N,unconnected-(U3-11-Pad6)*%
X134510000Y-83570000D03*
%TO.P,U3,7,12*%
%TO.N,/SERVO2L*%
X137050000Y-83570000D03*
%TO.P,U3,8,13*%
%TO.N,/CTRL*%
X139590000Y-83570000D03*
%TO.P,U3,9,NC*%
%TO.N,unconnected-(U3-NC-Pad9)*%
X142130000Y-83570000D03*
%TO.P,U3,10,NC*%
%TO.N,unconnected-(U3-NC-Pad10)*%
X144670000Y-83570000D03*
%TO.P,U3,11,GND*%
%TO.N,unconnected-(U3-GND-Pad11)*%
X147210000Y-83570000D03*
%TO.P,U3,12,5V*%
%TO.N,+5V*%
X149750000Y-83570000D03*
%TO.P,U3,13,GND*%
%TO.N,GND*%
X121810000Y-106430000D03*
%TO.P,U3,14,GND*%
X124350000Y-106430000D03*
%TO.P,U3,15,43*%
%TO.N,/BUTTON1*%
X126890000Y-106430000D03*
%TO.P,U3,16,44*%
%TO.N,/BUTTON2*%
X129430000Y-106430000D03*
%TO.P,U3,17,18*%
%TO.N,/RXD*%
X131970000Y-106430000D03*
%TO.P,U3,18,17*%
%TO.N,/TXD*%
X134510000Y-106430000D03*
%TO.P,U3,19,21*%
%TO.N,/BUTTON3*%
X137050000Y-106430000D03*
%TO.P,U3,20,16*%
%TO.N,/BUTTON4*%
X139590000Y-106430000D03*
%TO.P,U3,21,NC*%
%TO.N,unconnected-(U3-NC-Pad21)*%
X142130000Y-106430000D03*
%TO.P,U3,22,GND*%
%TO.N,GND*%
X144670000Y-106430000D03*
%TO.P,U3,23,GND*%
X147210000Y-106430000D03*
%TO.P,U3,24,3v*%
%TO.N,unconnected-(U3-3v-Pad24)*%
X149750000Y-106430000D03*
%TD*%
D13*
%TO.P,SW5,1,A*%
%TO.N,/BUTTON4*%
X160250000Y-116500000D03*
D14*
X160250000Y-110000000D03*
%TO.P,SW5,2,B*%
%TO.N,GND*%
X164750000Y-116500000D03*
X164750000Y-110000000D03*
%TD*%
D13*
%TO.P,J5,1,Pin_1*%
%TO.N,VCC*%
X156950000Y-62225000D03*
D15*
%TO.P,J5,2,Pin_2*%
%TO.N,+5V*%
X159490000Y-62225000D03*
%TO.P,J5,3,Pin_3*%
%TO.N,/SERVO1*%
X162030000Y-62225000D03*
%TO.P,J5,4,Pin_4*%
%TO.N,/SERVO1L*%
X164570000Y-62225000D03*
%TO.P,J5,5,Pin_5*%
%TO.N,GND*%
X167110000Y-62225000D03*
%TD*%
D14*
%TO.P,J2,1,Pin_1*%
%TO.N,GND*%
X110000000Y-99000000D03*
%TD*%
D13*
%TO.P,SW3,1,A*%
%TO.N,/BUTTON2*%
X130250000Y-116500000D03*
D14*
X130250000Y-110000000D03*
%TO.P,SW3,2,B*%
%TO.N,GND*%
X134750000Y-116500000D03*
X134750000Y-110000000D03*
%TD*%
D13*
%TO.P,J3,1,Pin_1*%
%TO.N,/SERVO1*%
X134000000Y-64000000D03*
D15*
%TO.P,J3,2,Pin_2*%
%TO.N,VCC*%
X131460000Y-64000000D03*
%TO.P,J3,3,Pin_3*%
%TO.N,GND*%
X128920000Y-64000000D03*
%TD*%
D13*
%TO.P,SW4,1,A*%
%TO.N,/BUTTON3*%
X145250000Y-116500000D03*
D14*
X145250000Y-110000000D03*
%TO.P,SW4,2,B*%
%TO.N,GND*%
X149750000Y-116500000D03*
X149750000Y-110000000D03*
%TD*%
D13*
%TO.P,SW2,1,A*%
%TO.N,/BUTTON1*%
X119750000Y-110000000D03*
D14*
X119750000Y-116500000D03*
%TO.P,SW2,2,B*%
%TO.N,GND*%
X115250000Y-110000000D03*
X115250000Y-116500000D03*
%TD*%
%TO.P,J1,1,Pin_1*%
%TO.N,Net-(J1-Pin_1)*%
X110000000Y-114000000D03*
%TD*%
D16*
%TO.P,SW1,1,A*%
%TO.N,unconnected-(SW1-A-Pad1)*%
X104000000Y-99700000D03*
%TO.P,SW1,2,B*%
%TO.N,Net-(J1-Pin_1)*%
X104000000Y-95000000D03*
%TO.P,SW1,3,C*%
%TO.N,VCC*%
X104000000Y-90300000D03*
%TD*%
D10*
%TO.P,RV1,*%
%TO.N,*%
X107100000Y-71000000D03*
X115900000Y-71000000D03*
D11*
%TO.P,RV1,1,1*%
%TO.N,+3.3V*%
X114000000Y-78000000D03*
%TO.P,RV1,2,2*%
%TO.N,/POT1*%
X111500000Y-78000000D03*
%TO.P,RV1,3,3*%
%TO.N,GND*%
X109000000Y-78000000D03*
%TD*%
D13*
%TO.P,J4,1,Pin_1*%
%TO.N,/SERVO2*%
X151080000Y-64000000D03*
D15*
%TO.P,J4,2,Pin_2*%
%TO.N,VCC*%
X148540000Y-64000000D03*
%TO.P,J4,3,Pin_3*%
%TO.N,GND*%
X146000000Y-64000000D03*
%TD*%
D17*
%TO.N,+3.3V*%
X162000000Y-78782934D03*
X153000000Y-78782934D03*
X144000000Y-78000000D03*
%TO.N,GND*%
X154250000Y-76500000D03*
X122600000Y-71400000D03*
X128000000Y-76200000D03*
X141475000Y-74000000D03*
X149500000Y-77782934D03*
%TO.N,+5V*%
X131400000Y-80000000D03*
X143750000Y-70750000D03*
%TO.N,/SERVO1*%
X144250000Y-69250000D03*
%TD*%
D18*
%TO.N,+3.3V*%
X121000000Y-78000000D02*
X114000000Y-78000000D01*
X153000000Y-78782934D02*
X162000000Y-78782934D01*
X121750000Y-78000000D02*
X121000000Y-78000000D01*
X144000000Y-78000000D02*
X144717066Y-78000000D01*
X144717066Y-78000000D02*
X145500000Y-78782934D01*
X153000000Y-78782934D02*
X145500000Y-78782934D01*
X121000000Y-78000000D02*
X144000000Y-78000000D01*
X121750000Y-83548135D02*
X121750000Y-78000000D01*
%TO.N,/POT2*%
X168410000Y-80590000D02*
X168410000Y-78090000D01*
X163500000Y-85500000D02*
X168410000Y-80590000D01*
X127500000Y-85500000D02*
X163500000Y-85500000D01*
X126890000Y-84890000D02*
X127500000Y-85500000D01*
X126890000Y-83570000D02*
X126890000Y-84890000D01*
%TO.N,+5V*%
X143000000Y-68500000D02*
X144500000Y-67000000D01*
X159490000Y-64260000D02*
X159490000Y-62225000D01*
D19*
X148750000Y-81500000D02*
X149750000Y-82500000D01*
X131400000Y-80000000D02*
X132900000Y-81500000D01*
D18*
X143000000Y-70000000D02*
X143000000Y-68500000D01*
X143750000Y-70750000D02*
X143000000Y-70000000D01*
X156750000Y-67000000D02*
X159490000Y-64260000D01*
D19*
X149750000Y-82500000D02*
X149750000Y-83570000D01*
D18*
X144500000Y-67000000D02*
X156750000Y-67000000D01*
D19*
X132900000Y-81500000D02*
X148750000Y-81500000D01*
D18*
%TO.N,/SERVO1*%
X157100344Y-68000000D02*
X162030000Y-63070344D01*
X144250000Y-69250000D02*
X144250000Y-68750000D01*
X144250000Y-68750000D02*
X145000000Y-68000000D01*
X162030000Y-63070344D02*
X162030000Y-62225000D01*
X145000000Y-68000000D02*
X157100344Y-68000000D01*
%TD*%
%TA.AperFunction,Conductor*%
%TO.N,GND*%
G36*
X179501513Y-58000575D02*
G01*
X179567131Y-58003797D01*
X179652481Y-58007990D01*
X179846607Y-58018164D01*
X179852409Y-58018745D01*
X180021733Y-58043862D01*
X180197594Y-58071716D01*
X180202929Y-58072804D01*
X180372209Y-58115206D01*
X180541341Y-58160525D01*
X180546122Y-58162018D01*
X180711894Y-58221332D01*
X180874263Y-58283660D01*
X180878543Y-58285492D01*
X180964073Y-58325944D01*
X181038476Y-58361134D01*
X181192992Y-58439864D01*
X181196720Y-58441928D01*
X181348967Y-58533180D01*
X181494262Y-58627537D01*
X181497428Y-58629736D01*
X181640323Y-58735714D01*
X181774975Y-58844752D01*
X181777594Y-58846997D01*
X181908517Y-58965658D01*
X181910721Y-58967757D01*
X182032241Y-59089277D01*
X182034340Y-59091481D01*
X182153001Y-59222404D01*
X182155246Y-59225023D01*
X182264285Y-59359676D01*
X182370262Y-59502570D01*
X182372461Y-59505736D01*
X182466822Y-59651038D01*
X182558070Y-59803278D01*
X182560133Y-59807006D01*
X182638868Y-59961529D01*
X182714506Y-60121455D01*
X182716342Y-60125746D01*
X182778672Y-60288120D01*
X182787616Y-60313116D01*
X182837970Y-60453847D01*
X182839479Y-60458678D01*
X182884793Y-60627790D01*
X182927191Y-60797056D01*
X182928286Y-60802424D01*
X182956145Y-60978317D01*
X182981250Y-61147560D01*
X182981836Y-61153416D01*
X182992011Y-61347561D01*
X182999425Y-61498488D01*
X182999500Y-61501530D01*
X182999500Y-116498469D01*
X182999425Y-116501511D01*
X182992011Y-116652438D01*
X182981836Y-116846582D01*
X182981250Y-116852438D01*
X182956145Y-117021682D01*
X182928286Y-117197574D01*
X182927191Y-117202942D01*
X182884793Y-117372209D01*
X182839479Y-117541320D01*
X182837967Y-117546163D01*
X182778672Y-117711879D01*
X182716342Y-117874252D01*
X182714507Y-117878543D01*
X182638868Y-118038470D01*
X182560133Y-118192992D01*
X182558070Y-118196720D01*
X182466822Y-118348961D01*
X182372461Y-118494262D01*
X182370262Y-118497428D01*
X182264285Y-118640323D01*
X182155245Y-118774975D01*
X182153001Y-118777594D01*
X182034340Y-118908517D01*
X182032241Y-118910721D01*
X181910721Y-119032241D01*
X181908517Y-119034340D01*
X181777594Y-119153001D01*
X181774975Y-119155245D01*
X181640323Y-119264285D01*
X181497428Y-119370262D01*
X181494262Y-119372461D01*
X181348961Y-119466822D01*
X181196720Y-119558070D01*
X181192992Y-119560133D01*
X181038470Y-119638868D01*
X180878543Y-119714507D01*
X180874252Y-119716342D01*
X180711879Y-119778672D01*
X180546163Y-119837967D01*
X180541320Y-119839479D01*
X180372209Y-119884793D01*
X180202942Y-119927191D01*
X180197574Y-119928286D01*
X180021682Y-119956145D01*
X179852438Y-119981250D01*
X179846582Y-119981836D01*
X179652438Y-119992011D01*
X179501513Y-119999425D01*
X179498470Y-119999500D01*
X100501530Y-119999500D01*
X100498488Y-119999425D01*
X100347561Y-119992011D01*
X100153416Y-119981836D01*
X100147560Y-119981250D01*
X99978317Y-119956145D01*
X99802424Y-119928286D01*
X99797056Y-119927191D01*
X99627790Y-119884793D01*
X99458678Y-119839479D01*
X99453847Y-119837970D01*
X99347307Y-119799850D01*
X99288120Y-119778672D01*
X99125746Y-119716342D01*
X99121455Y-119714506D01*
X98961529Y-119638868D01*
X98807006Y-119560133D01*
X98803278Y-119558070D01*
X98651038Y-119466822D01*
X98505736Y-119372461D01*
X98502570Y-119370262D01*
X98359676Y-119264285D01*
X98225023Y-119155246D01*
X98222404Y-119153001D01*
X98091481Y-119034340D01*
X98089277Y-119032241D01*
X97967757Y-118910721D01*
X97965658Y-118908517D01*
X97846997Y-118777594D01*
X97844752Y-118774975D01*
X97735714Y-118640323D01*
X97629736Y-118497428D01*
X97627537Y-118494262D01*
X97533177Y-118348961D01*
X97441928Y-118196720D01*
X97439864Y-118192992D01*
X97401675Y-118118042D01*
X97361131Y-118038470D01*
X97325944Y-117964073D01*
X97285492Y-117878543D01*
X97283656Y-117874252D01*
X97276326Y-117855157D01*
X97221327Y-117711879D01*
X97162018Y-117546122D01*
X97160525Y-117541341D01*
X97115206Y-117372209D01*
X97072804Y-117202929D01*
X97071716Y-117197594D01*
X97043854Y-117021682D01*
X97018745Y-116852409D01*
X97018164Y-116846607D01*
X97007989Y-116652438D01*
X97003828Y-116567763D01*
X98645787Y-116567763D01*
X98675413Y-116837013D01*
X98675415Y-116837024D01*
X98723691Y-117021682D01*
X98743928Y-117099088D01*
X98849870Y-117348390D01*
X98965889Y-117538493D01*
X98990979Y-117579605D01*
X98990986Y-117579615D01*
X99164253Y-117787819D01*
X99164259Y-117787824D01*
X99227057Y-117844091D01*
X99365998Y-117968582D01*
X99591910Y-118118044D01*
X99837176Y-118233020D01*
X99837183Y-118233022D01*
X99837185Y-118233023D01*
X100096557Y-118311057D01*
X100096564Y-118311058D01*
X100096569Y-118311060D01*
X100364561Y-118350500D01*
X100364566Y-118350500D01*
X100567636Y-118350500D01*
X100619133Y-118346730D01*
X100770156Y-118335677D01*
X100882758Y-118310593D01*
X101034546Y-118276782D01*
X101034548Y-118276781D01*
X101034553Y-118276780D01*
X101287558Y-118180014D01*
X101523777Y-118047441D01*
X101738177Y-117881888D01*
X101926186Y-117686881D01*
X102083799Y-117466579D01*
X102157787Y-117322669D01*
X102207649Y-117225690D01*
X102207651Y-117225684D01*
X102207656Y-117225675D01*
X102295118Y-116969305D01*
X102344319Y-116702933D01*
X102351735Y-116500001D01*
X113894843Y-116500001D01*
X113915430Y-116735315D01*
X113915432Y-116735326D01*
X113976566Y-116963483D01*
X113976570Y-116963492D01*
X114076400Y-117177579D01*
X114076402Y-117177583D01*
X114135072Y-117261373D01*
X114135073Y-117261373D01*
X114766923Y-116629523D01*
X114790507Y-116709844D01*
X114868239Y-116830798D01*
X114976900Y-116924952D01*
X115107685Y-116984680D01*
X115117466Y-116986086D01*
X114488625Y-117614925D01*
X114572421Y-117673599D01*
X114786507Y-117773429D01*
X114786516Y-117773433D01*
X115014673Y-117834567D01*
X115014684Y-117834569D01*
X115249998Y-117855157D01*
X115250002Y-117855157D01*
X115485315Y-117834569D01*
X115485326Y-117834567D01*
X115713483Y-117773433D01*
X115713492Y-117773429D01*
X115927578Y-117673600D01*
X115927582Y-117673598D01*
X116011373Y-117614926D01*
X116011373Y-117614925D01*
X115382533Y-116986086D01*
X115392315Y-116984680D01*
X115523100Y-116924952D01*
X115631761Y-116830798D01*
X115709493Y-116709844D01*
X115733076Y-116629524D01*
X116364925Y-117261373D01*
X116364926Y-117261373D01*
X116423598Y-117177582D01*
X116423600Y-117177578D01*
X116523429Y-116963492D01*
X116523433Y-116963483D01*
X116584567Y-116735326D01*
X116584569Y-116735315D01*
X116605157Y-116500001D01*
X116605157Y-116500000D01*
X118394341Y-116500000D01*
X118414936Y-116735403D01*
X118414938Y-116735413D01*
X118476094Y-116963655D01*
X118476096Y-116963659D01*
X118476097Y-116963663D01*
X118503135Y-117021645D01*
X118575965Y-117177830D01*
X118575967Y-117177834D01*
X118634462Y-117261373D01*
X118711505Y-117371401D01*
X118878599Y-117538495D01*
X118975384Y-117606265D01*
X119072165Y-117674032D01*
X119072167Y-117674033D01*
X119072170Y-117674035D01*
X119286337Y-117773903D01*
X119286343Y-117773904D01*
X119286344Y-117773905D01*
X119341285Y-117788626D01*
X119514592Y-117835063D01*
X119691034Y-117850500D01*
X119749999Y-117855659D01*
X119750000Y-117855659D01*
X119750001Y-117855659D01*
X119808966Y-117850500D01*
X119985408Y-117835063D01*
X120213663Y-117773903D01*
X120427830Y-117674035D01*
X120621401Y-117538495D01*
X120762026Y-117397870D01*
X128899500Y-117397870D01*
X128899501Y-117397876D01*
X128905908Y-117457483D01*
X128956202Y-117592328D01*
X128956206Y-117592335D01*
X129042452Y-117707544D01*
X129042455Y-117707547D01*
X129157664Y-117793793D01*
X129157671Y-117793797D01*
X129292517Y-117844091D01*
X129292516Y-117844091D01*
X129299444Y-117844835D01*
X129352127Y-117850500D01*
X131147872Y-117850499D01*
X131207483Y-117844091D01*
X131342331Y-117793796D01*
X131457546Y-117707546D01*
X131543796Y-117592331D01*
X131594091Y-117457483D01*
X131600500Y-117397873D01*
X131600500Y-116500001D01*
X133394843Y-116500001D01*
X133415430Y-116735315D01*
X133415432Y-116735326D01*
X133476566Y-116963483D01*
X133476570Y-116963492D01*
X133576400Y-117177579D01*
X133576402Y-117177583D01*
X133635072Y-117261373D01*
X133635073Y-117261373D01*
X134266923Y-116629523D01*
X134290507Y-116709844D01*
X134368239Y-116830798D01*
X134476900Y-116924952D01*
X134607685Y-116984680D01*
X134617466Y-116986086D01*
X133988625Y-117614925D01*
X134072421Y-117673599D01*
X134286507Y-117773429D01*
X134286516Y-117773433D01*
X134514673Y-117834567D01*
X134514684Y-117834569D01*
X134749998Y-117855157D01*
X134750002Y-117855157D01*
X134985315Y-117834569D01*
X134985326Y-117834567D01*
X135213483Y-117773433D01*
X135213492Y-117773429D01*
X135427578Y-117673600D01*
X135427582Y-117673598D01*
X135511373Y-117614926D01*
X135511373Y-117614925D01*
X135294318Y-117397870D01*
X143899500Y-117397870D01*
X143899501Y-117397876D01*
X143905908Y-117457483D01*
X143956202Y-117592328D01*
X143956206Y-117592335D01*
X144042452Y-117707544D01*
X144042455Y-117707547D01*
X144157664Y-117793793D01*
X144157671Y-117793797D01*
X144292517Y-117844091D01*
X144292516Y-117844091D01*
X144299444Y-117844835D01*
X144352127Y-117850500D01*
X146147872Y-117850499D01*
X146207483Y-117844091D01*
X146342331Y-117793796D01*
X146457546Y-117707546D01*
X146543796Y-117592331D01*
X146594091Y-117457483D01*
X146600500Y-117397873D01*
X146600500Y-116500001D01*
X148394843Y-116500001D01*
X148415430Y-116735315D01*
X148415432Y-116735326D01*
X148476566Y-116963483D01*
X148476570Y-116963492D01*
X148576400Y-117177579D01*
X148576402Y-117177583D01*
X148635072Y-117261373D01*
X148635073Y-117261373D01*
X149266923Y-116629523D01*
X149290507Y-116709844D01*
X149368239Y-116830798D01*
X149476900Y-116924952D01*
X149607685Y-116984680D01*
X149617466Y-116986086D01*
X148988625Y-117614925D01*
X149072421Y-117673599D01*
X149286507Y-117773429D01*
X149286516Y-117773433D01*
X149514673Y-117834567D01*
X149514684Y-117834569D01*
X149749998Y-117855157D01*
X149750002Y-117855157D01*
X149985315Y-117834569D01*
X149985326Y-117834567D01*
X150213483Y-117773433D01*
X150213492Y-117773429D01*
X150427578Y-117673600D01*
X150427582Y-117673598D01*
X150511373Y-117614926D01*
X150511373Y-117614925D01*
X150294318Y-117397870D01*
X158899500Y-117397870D01*
X158899501Y-117397876D01*
X158905908Y-117457483D01*
X158956202Y-117592328D01*
X158956206Y-117592335D01*
X159042452Y-117707544D01*
X159042455Y-117707547D01*
X159157664Y-117793793D01*
X159157671Y-117793797D01*
X159292517Y-117844091D01*
X159292516Y-117844091D01*
X159299444Y-117844835D01*
X159352127Y-117850500D01*
X161147872Y-117850499D01*
X161207483Y-117844091D01*
X161342331Y-117793796D01*
X161457546Y-117707546D01*
X161543796Y-117592331D01*
X161594091Y-117457483D01*
X161600500Y-117397873D01*
X161600500Y-116500001D01*
X163394843Y-116500001D01*
X163415430Y-116735315D01*
X163415432Y-116735326D01*
X163476566Y-116963483D01*
X163476570Y-116963492D01*
X163576400Y-117177579D01*
X163576402Y-117177583D01*
X163635072Y-117261373D01*
X163635073Y-117261373D01*
X164266923Y-116629523D01*
X164290507Y-116709844D01*
X164368239Y-116830798D01*
X164476900Y-116924952D01*
X164607685Y-116984680D01*
X164617466Y-116986086D01*
X163988625Y-117614925D01*
X164072421Y-117673599D01*
X164286507Y-117773429D01*
X164286516Y-117773433D01*
X164514673Y-117834567D01*
X164514684Y-117834569D01*
X164749998Y-117855157D01*
X164750002Y-117855157D01*
X164985315Y-117834569D01*
X164985326Y-117834567D01*
X165213483Y-117773433D01*
X165213492Y-117773429D01*
X165427578Y-117673600D01*
X165427582Y-117673598D01*
X165511373Y-117614926D01*
X165511373Y-117614925D01*
X164882533Y-116986086D01*
X164892315Y-116984680D01*
X165023100Y-116924952D01*
X165131761Y-116830798D01*
X165209493Y-116709844D01*
X165233076Y-116629524D01*
X165864925Y-117261373D01*
X165864926Y-117261373D01*
X165923598Y-117177582D01*
X165923600Y-117177578D01*
X166023429Y-116963492D01*
X166023433Y-116963483D01*
X166084567Y-116735326D01*
X166084569Y-116735315D01*
X166099228Y-116567763D01*
X177645787Y-116567763D01*
X177675413Y-116837013D01*
X177675415Y-116837024D01*
X177723691Y-117021682D01*
X177743928Y-117099088D01*
X177849870Y-117348390D01*
X177965889Y-117538493D01*
X177990979Y-117579605D01*
X177990986Y-117579615D01*
X178164253Y-117787819D01*
X178164259Y-117787824D01*
X178227057Y-117844091D01*
X178365998Y-117968582D01*
X178591910Y-118118044D01*
X178837176Y-118233020D01*
X178837183Y-118233022D01*
X178837185Y-118233023D01*
X179096557Y-118311057D01*
X179096564Y-118311058D01*
X179096569Y-118311060D01*
X179364561Y-118350500D01*
X179364566Y-118350500D01*
X179567636Y-118350500D01*
X179619133Y-118346730D01*
X179770156Y-118335677D01*
X179882758Y-118310593D01*
X180034546Y-118276782D01*
X180034548Y-118276781D01*
X180034553Y-118276780D01*
X180287558Y-118180014D01*
X180523777Y-118047441D01*
X180738177Y-117881888D01*
X180926186Y-117686881D01*
X181083799Y-117466579D01*
X181157787Y-117322669D01*
X181207649Y-117225690D01*
X181207651Y-117225684D01*
X181207656Y-117225675D01*
X181295118Y-116969305D01*
X181344319Y-116702933D01*
X181354212Y-116432235D01*
X181324586Y-116162982D01*
X181256072Y-115900912D01*
X181150130Y-115651610D01*
X181009018Y-115420390D01*
X180930801Y-115326402D01*
X180835746Y-115212180D01*
X180835740Y-115212175D01*
X180634002Y-115031418D01*
X180408092Y-114881957D01*
X180385561Y-114871395D01*
X180162824Y-114766980D01*
X180162819Y-114766978D01*
X180162814Y-114766976D01*
X179903442Y-114688942D01*
X179903428Y-114688939D01*
X179787791Y-114671921D01*
X179635439Y-114649500D01*
X179432369Y-114649500D01*
X179432364Y-114649500D01*
X179229844Y-114664323D01*
X179229831Y-114664325D01*
X178965453Y-114723217D01*
X178965446Y-114723220D01*
X178712439Y-114819987D01*
X178476226Y-114952557D01*
X178261822Y-115118112D01*
X178073822Y-115313109D01*
X178073816Y-115313116D01*
X177916202Y-115533419D01*
X177916199Y-115533424D01*
X177792350Y-115774309D01*
X177792343Y-115774327D01*
X177704884Y-116030685D01*
X177704881Y-116030699D01*
X177683502Y-116146447D01*
X177661663Y-116264684D01*
X177655681Y-116297068D01*
X177655680Y-116297075D01*
X177645787Y-116567763D01*
X166099228Y-116567763D01*
X166105157Y-116500001D01*
X166105157Y-116499998D01*
X166084569Y-116264684D01*
X166084567Y-116264673D01*
X166023433Y-116036516D01*
X166023429Y-116036507D01*
X165923600Y-115822423D01*
X165923599Y-115822421D01*
X165864925Y-115738626D01*
X165864925Y-115738625D01*
X165233076Y-116370475D01*
X165209493Y-116290156D01*
X165131761Y-116169202D01*
X165023100Y-116075048D01*
X164892315Y-116015320D01*
X164882533Y-116013913D01*
X165511373Y-115385073D01*
X165511373Y-115385072D01*
X165427583Y-115326402D01*
X165427579Y-115326400D01*
X165213492Y-115226570D01*
X165213483Y-115226566D01*
X164985326Y-115165432D01*
X164985315Y-115165430D01*
X164750002Y-115144843D01*
X164749998Y-115144843D01*
X164514684Y-115165430D01*
X164514673Y-115165432D01*
X164286516Y-115226566D01*
X164286507Y-115226570D01*
X164072419Y-115326401D01*
X163988625Y-115385072D01*
X164617466Y-116013913D01*
X164607685Y-116015320D01*
X164476900Y-116075048D01*
X164368239Y-116169202D01*
X164290507Y-116290156D01*
X164266923Y-116370476D01*
X163635072Y-115738625D01*
X163576401Y-115822419D01*
X163476570Y-116036507D01*
X163476566Y-116036516D01*
X163415432Y-116264673D01*
X163415430Y-116264684D01*
X163394843Y-116499998D01*
X163394843Y-116500001D01*
X161600500Y-116500001D01*
X161600499Y-115602128D01*
X161594091Y-115542517D01*
X161590698Y-115533421D01*
X161543797Y-115407671D01*
X161543793Y-115407664D01*
X161457547Y-115292455D01*
X161457544Y-115292452D01*
X161342335Y-115206206D01*
X161342328Y-115206202D01*
X161207482Y-115155908D01*
X161207483Y-115155908D01*
X161147883Y-115149501D01*
X161147881Y-115149500D01*
X161147873Y-115149500D01*
X161147864Y-115149500D01*
X159352129Y-115149500D01*
X159352123Y-115149501D01*
X159292516Y-115155908D01*
X159157671Y-115206202D01*
X159157664Y-115206206D01*
X159042455Y-115292452D01*
X159042452Y-115292455D01*
X158956206Y-115407664D01*
X158956202Y-115407671D01*
X158905908Y-115542517D01*
X158899501Y-115602116D01*
X158899501Y-115602123D01*
X158899500Y-115602135D01*
X158899500Y-117397870D01*
X150294318Y-117397870D01*
X149882533Y-116986086D01*
X149892315Y-116984680D01*
X150023100Y-116924952D01*
X150131761Y-116830798D01*
X150209493Y-116709844D01*
X150233076Y-116629524D01*
X150864925Y-117261373D01*
X150864926Y-117261373D01*
X150923598Y-117177582D01*
X150923600Y-117177578D01*
X151023429Y-116963492D01*
X151023433Y-116963483D01*
X151084567Y-116735326D01*
X151084569Y-116735315D01*
X151105157Y-116500001D01*
X151105157Y-116499998D01*
X151084569Y-116264684D01*
X151084567Y-116264673D01*
X151023433Y-116036516D01*
X151023429Y-116036507D01*
X150923600Y-115822423D01*
X150923599Y-115822421D01*
X150864925Y-115738626D01*
X150864925Y-115738625D01*
X150233076Y-116370475D01*
X150209493Y-116290156D01*
X150131761Y-116169202D01*
X150023100Y-116075048D01*
X149892315Y-116015320D01*
X149882533Y-116013913D01*
X150511373Y-115385073D01*
X150511373Y-115385072D01*
X150427583Y-115326402D01*
X150427579Y-115326400D01*
X150213492Y-115226570D01*
X150213483Y-115226566D01*
X149985326Y-115165432D01*
X149985315Y-115165430D01*
X149750002Y-115144843D01*
X149749998Y-115144843D01*
X149514684Y-115165430D01*
X149514673Y-115165432D01*
X149286516Y-115226566D01*
X149286507Y-115226570D01*
X149072419Y-115326401D01*
X148988625Y-115385072D01*
X149617466Y-116013913D01*
X149607685Y-116015320D01*
X149476900Y-116075048D01*
X149368239Y-116169202D01*
X149290507Y-116290156D01*
X149266923Y-116370476D01*
X148635072Y-115738625D01*
X148576401Y-115822419D01*
X148476570Y-116036507D01*
X148476566Y-116036516D01*
X148415432Y-116264673D01*
X148415430Y-116264684D01*
X148394843Y-116499998D01*
X148394843Y-116500001D01*
X146600500Y-116500001D01*
X146600499Y-115602128D01*
X146594091Y-115542517D01*
X146590698Y-115533421D01*
X146543797Y-115407671D01*
X146543793Y-115407664D01*
X146457547Y-115292455D01*
X146457544Y-115292452D01*
X146342335Y-115206206D01*
X146342328Y-115206202D01*
X146207482Y-115155908D01*
X146207483Y-115155908D01*
X146147883Y-115149501D01*
X146147881Y-115149500D01*
X146147873Y-115149500D01*
X146147864Y-115149500D01*
X144352129Y-115149500D01*
X144352123Y-115149501D01*
X144292516Y-115155908D01*
X144157671Y-115206202D01*
X144157664Y-115206206D01*
X144042455Y-115292452D01*
X144042452Y-115292455D01*
X143956206Y-115407664D01*
X143956202Y-115407671D01*
X143905908Y-115542517D01*
X143899501Y-115602116D01*
X143899501Y-115602123D01*
X143899500Y-115602135D01*
X143899500Y-117397870D01*
X135294318Y-117397870D01*
X134882533Y-116986086D01*
X134892315Y-116984680D01*
X135023100Y-116924952D01*
X135131761Y-116830798D01*
X135209493Y-116709844D01*
X135233076Y-116629524D01*
X135864925Y-117261373D01*
X135864926Y-117261373D01*
X135923598Y-117177582D01*
X135923600Y-117177578D01*
X136023429Y-116963492D01*
X136023433Y-116963483D01*
X136084567Y-116735326D01*
X136084569Y-116735315D01*
X136105157Y-116500001D01*
X136105157Y-116499998D01*
X136084569Y-116264684D01*
X136084567Y-116264673D01*
X136023433Y-116036516D01*
X136023429Y-116036507D01*
X135923600Y-115822423D01*
X135923599Y-115822421D01*
X135864925Y-115738626D01*
X135864925Y-115738625D01*
X135233076Y-116370475D01*
X135209493Y-116290156D01*
X135131761Y-116169202D01*
X135023100Y-116075048D01*
X134892315Y-116015320D01*
X134882533Y-116013913D01*
X135511373Y-115385073D01*
X135511373Y-115385072D01*
X135427583Y-115326402D01*
X135427579Y-115326400D01*
X135213492Y-115226570D01*
X135213483Y-115226566D01*
X134985326Y-115165432D01*
X134985315Y-115165430D01*
X134750002Y-115144843D01*
X134749998Y-115144843D01*
X134514684Y-115165430D01*
X134514673Y-115165432D01*
X134286516Y-115226566D01*
X134286507Y-115226570D01*
X134072419Y-115326401D01*
X133988625Y-115385072D01*
X134617466Y-116013913D01*
X134607685Y-116015320D01*
X134476900Y-116075048D01*
X134368239Y-116169202D01*
X134290507Y-116290156D01*
X134266923Y-116370475D01*
X133635073Y-115738625D01*
X133635072Y-115738625D01*
X133576401Y-115822419D01*
X133476570Y-116036507D01*
X133476566Y-116036516D01*
X133415432Y-116264673D01*
X133415430Y-116264684D01*
X133394843Y-116499998D01*
X133394843Y-116500001D01*
X131600500Y-116500001D01*
X131600499Y-115602128D01*
X131594091Y-115542517D01*
X131590698Y-115533421D01*
X131543797Y-115407671D01*
X131543793Y-115407664D01*
X131457547Y-115292455D01*
X131457544Y-115292452D01*
X131342335Y-115206206D01*
X131342328Y-115206202D01*
X131207482Y-115155908D01*
X131207483Y-115155908D01*
X131147883Y-115149501D01*
X131147881Y-115149500D01*
X131147873Y-115149500D01*
X131147864Y-115149500D01*
X129352129Y-115149500D01*
X129352123Y-115149501D01*
X129292516Y-115155908D01*
X129157671Y-115206202D01*
X129157664Y-115206206D01*
X129042455Y-115292452D01*
X129042452Y-115292455D01*
X128956206Y-115407664D01*
X128956202Y-115407671D01*
X128905908Y-115542517D01*
X128899501Y-115602116D01*
X128899501Y-115602123D01*
X128899500Y-115602135D01*
X128899500Y-117397870D01*
X120762026Y-117397870D01*
X120788495Y-117371401D01*
X120924035Y-117177830D01*
X121023903Y-116963663D01*
X121085063Y-116735408D01*
X121105659Y-116500000D01*
X121085063Y-116264592D01*
X121023903Y-116036337D01*
X120924035Y-115822171D01*
X120890535Y-115774327D01*
X120788494Y-115628597D01*
X120621402Y-115461506D01*
X120621395Y-115461501D01*
X120427834Y-115325967D01*
X120427830Y-115325965D01*
X120400260Y-115313109D01*
X120213663Y-115226097D01*
X120213659Y-115226096D01*
X120213655Y-115226094D01*
X119985413Y-115164938D01*
X119985403Y-115164936D01*
X119750001Y-115144341D01*
X119749999Y-115144341D01*
X119514596Y-115164936D01*
X119514586Y-115164938D01*
X119286344Y-115226094D01*
X119286335Y-115226098D01*
X119072171Y-115325964D01*
X119072169Y-115325965D01*
X118878597Y-115461505D01*
X118711505Y-115628597D01*
X118575965Y-115822169D01*
X118575964Y-115822171D01*
X118476098Y-116036335D01*
X118476094Y-116036344D01*
X118414938Y-116264586D01*
X118414936Y-116264596D01*
X118394341Y-116499999D01*
X118394341Y-116500000D01*
X116605157Y-116500000D01*
X116605157Y-116499998D01*
X116584569Y-116264684D01*
X116584567Y-116264673D01*
X116523433Y-116036516D01*
X116523429Y-116036507D01*
X116423600Y-115822423D01*
X116423599Y-115822421D01*
X116364925Y-115738626D01*
X116364925Y-115738625D01*
X115733076Y-116370475D01*
X115709493Y-116290156D01*
X115631761Y-116169202D01*
X115523100Y-116075048D01*
X115392315Y-116015320D01*
X115382533Y-116013913D01*
X116011373Y-115385073D01*
X116011373Y-115385072D01*
X115927583Y-115326402D01*
X115927579Y-115326400D01*
X115713492Y-115226570D01*
X115713483Y-115226566D01*
X115485326Y-115165432D01*
X115485315Y-115165430D01*
X115250002Y-115144843D01*
X115249998Y-115144843D01*
X115014684Y-115165430D01*
X115014673Y-115165432D01*
X114786516Y-115226566D01*
X114786507Y-115226570D01*
X114572419Y-115326401D01*
X114488625Y-115385072D01*
X115117466Y-116013913D01*
X115107685Y-116015320D01*
X114976900Y-116075048D01*
X114868239Y-116169202D01*
X114790507Y-116290156D01*
X114766923Y-116370476D01*
X114135072Y-115738625D01*
X114076401Y-115822419D01*
X113976570Y-116036507D01*
X113976566Y-116036516D01*
X113915432Y-116264673D01*
X113915430Y-116264684D01*
X113894843Y-116499998D01*
X113894843Y-116500001D01*
X102351735Y-116500001D01*
X102354212Y-116432235D01*
X102324586Y-116162982D01*
X102256072Y-115900912D01*
X102150130Y-115651610D01*
X102009018Y-115420390D01*
X101930801Y-115326402D01*
X101835746Y-115212180D01*
X101835740Y-115212175D01*
X101634002Y-115031418D01*
X101408092Y-114881957D01*
X101385561Y-114871395D01*
X101162824Y-114766980D01*
X101162819Y-114766978D01*
X101162814Y-114766976D01*
X100903442Y-114688942D01*
X100903428Y-114688939D01*
X100787791Y-114671921D01*
X100635439Y-114649500D01*
X100432369Y-114649500D01*
X100432364Y-114649500D01*
X100229844Y-114664323D01*
X100229831Y-114664325D01*
X99965453Y-114723217D01*
X99965446Y-114723220D01*
X99712439Y-114819987D01*
X99476226Y-114952557D01*
X99261822Y-115118112D01*
X99073822Y-115313109D01*
X99073816Y-115313116D01*
X98916202Y-115533419D01*
X98916199Y-115533424D01*
X98792350Y-115774309D01*
X98792343Y-115774327D01*
X98704884Y-116030685D01*
X98704881Y-116030699D01*
X98683502Y-116146447D01*
X98661663Y-116264684D01*
X98655681Y-116297068D01*
X98655680Y-116297075D01*
X98645787Y-116567763D01*
X97003828Y-116567763D01*
X97003797Y-116567131D01*
X97000575Y-116501513D01*
X97000500Y-116498471D01*
X97000500Y-114000000D01*
X108644341Y-114000000D01*
X108664936Y-114235403D01*
X108664938Y-114235413D01*
X108726094Y-114463655D01*
X108726096Y-114463659D01*
X108726097Y-114463663D01*
X108825965Y-114677830D01*
X108825967Y-114677834D01*
X108925504Y-114819986D01*
X108961505Y-114871401D01*
X109128599Y-115038495D01*
X109225384Y-115106265D01*
X109322165Y-115174032D01*
X109322167Y-115174033D01*
X109322170Y-115174035D01*
X109536337Y-115273903D01*
X109764592Y-115335063D01*
X109952918Y-115351539D01*
X109999999Y-115355659D01*
X110000000Y-115355659D01*
X110000001Y-115355659D01*
X110039234Y-115352226D01*
X110235408Y-115335063D01*
X110463663Y-115273903D01*
X110677830Y-115174035D01*
X110871401Y-115038495D01*
X111038495Y-114871401D01*
X111174035Y-114677830D01*
X111273903Y-114463663D01*
X111335063Y-114235408D01*
X111355659Y-114000000D01*
X111335063Y-113764592D01*
X111273903Y-113536337D01*
X111174035Y-113322171D01*
X111149983Y-113287820D01*
X111038494Y-113128597D01*
X110871402Y-112961506D01*
X110871395Y-112961501D01*
X110677834Y-112825967D01*
X110677830Y-112825965D01*
X110677828Y-112825964D01*
X110463663Y-112726097D01*
X110463659Y-112726096D01*
X110463655Y-112726094D01*
X110235413Y-112664938D01*
X110235403Y-112664936D01*
X110000001Y-112644341D01*
X109999999Y-112644341D01*
X109764596Y-112664936D01*
X109764586Y-112664938D01*
X109536344Y-112726094D01*
X109536335Y-112726098D01*
X109322171Y-112825964D01*
X109322169Y-112825965D01*
X109128597Y-112961505D01*
X108961505Y-113128597D01*
X108825965Y-113322169D01*
X108825964Y-113322171D01*
X108726098Y-113536335D01*
X108726094Y-113536344D01*
X108664938Y-113764586D01*
X108664936Y-113764596D01*
X108644341Y-113999999D01*
X108644341Y-114000000D01*
X97000500Y-114000000D01*
X97000500Y-112067763D01*
X138145787Y-112067763D01*
X138175413Y-112337013D01*
X138175415Y-112337024D01*
X138243926Y-112599082D01*
X138243928Y-112599088D01*
X138349870Y-112848390D01*
X138418904Y-112961506D01*
X138490979Y-113079605D01*
X138490986Y-113079615D01*
X138664253Y-113287819D01*
X138664259Y-113287824D01*
X138865998Y-113468582D01*
X139091910Y-113618044D01*
X139337176Y-113733020D01*
X139337183Y-113733022D01*
X139337185Y-113733023D01*
X139596557Y-113811057D01*
X139596564Y-113811058D01*
X139596569Y-113811060D01*
X139864561Y-113850500D01*
X139864566Y-113850500D01*
X140067636Y-113850500D01*
X140119133Y-113846730D01*
X140270156Y-113835677D01*
X140382758Y-113810593D01*
X140534546Y-113776782D01*
X140534548Y-113776781D01*
X140534553Y-113776780D01*
X140787558Y-113680014D01*
X141023777Y-113547441D01*
X141238177Y-113381888D01*
X141426186Y-113186881D01*
X141583799Y-112966579D01*
X141707439Y-112726098D01*
X141707649Y-112725690D01*
X141707651Y-112725684D01*
X141707656Y-112725675D01*
X141795118Y-112469305D01*
X141844319Y-112202933D01*
X141854212Y-111932235D01*
X141824586Y-111662982D01*
X141756072Y-111400912D01*
X141650130Y-111151610D01*
X141509018Y-110920390D01*
X141490279Y-110897873D01*
X141335746Y-110712180D01*
X141335740Y-110712175D01*
X141134002Y-110531418D01*
X140908092Y-110381957D01*
X140908090Y-110381956D01*
X140662824Y-110266980D01*
X140662819Y-110266978D01*
X140662814Y-110266976D01*
X140403442Y-110188942D01*
X140403428Y-110188939D01*
X140287791Y-110171921D01*
X140135439Y-110149500D01*
X139932369Y-110149500D01*
X139932364Y-110149500D01*
X139729844Y-110164323D01*
X139729831Y-110164325D01*
X139465453Y-110223217D01*
X139465446Y-110223220D01*
X139212439Y-110319987D01*
X138976226Y-110452557D01*
X138976224Y-110452558D01*
X138976223Y-110452559D01*
X138934625Y-110484680D01*
X138761822Y-110618112D01*
X138573822Y-110813109D01*
X138573816Y-110813116D01*
X138416202Y-111033419D01*
X138416199Y-111033424D01*
X138292350Y-111274309D01*
X138292343Y-111274327D01*
X138204884Y-111530685D01*
X138204881Y-111530699D01*
X138155681Y-111797068D01*
X138155680Y-111797075D01*
X138145787Y-112067763D01*
X97000500Y-112067763D01*
X97000500Y-110000001D01*
X113894843Y-110000001D01*
X113915430Y-110235315D01*
X113915432Y-110235326D01*
X113976566Y-110463483D01*
X113976570Y-110463492D01*
X114076400Y-110677579D01*
X114076402Y-110677583D01*
X114135072Y-110761373D01*
X114135073Y-110761373D01*
X114766923Y-110129523D01*
X114790507Y-110209844D01*
X114868239Y-110330798D01*
X114976900Y-110424952D01*
X115107685Y-110484680D01*
X115117466Y-110486086D01*
X114488625Y-111114925D01*
X114572421Y-111173599D01*
X114786507Y-111273429D01*
X114786516Y-111273433D01*
X115014673Y-111334567D01*
X115014684Y-111334569D01*
X115249998Y-111355157D01*
X115250002Y-111355157D01*
X115485315Y-111334569D01*
X115485326Y-111334567D01*
X115713483Y-111273433D01*
X115713492Y-111273429D01*
X115927578Y-111173600D01*
X115927582Y-111173598D01*
X116011373Y-111114926D01*
X116011373Y-111114925D01*
X115794318Y-110897870D01*
X118399500Y-110897870D01*
X118399501Y-110897876D01*
X118405908Y-110957483D01*
X118456202Y-111092328D01*
X118456206Y-111092335D01*
X118542452Y-111207544D01*
X118542455Y-111207547D01*
X118657664Y-111293793D01*
X118657671Y-111293797D01*
X118792517Y-111344091D01*
X118792516Y-111344091D01*
X118799444Y-111344835D01*
X118852127Y-111350500D01*
X120647872Y-111350499D01*
X120707483Y-111344091D01*
X120842331Y-111293796D01*
X120957546Y-111207546D01*
X121043796Y-111092331D01*
X121094091Y-110957483D01*
X121100500Y-110897873D01*
X121100499Y-110000000D01*
X128894341Y-110000000D01*
X128914936Y-110235403D01*
X128914938Y-110235413D01*
X128976094Y-110463655D01*
X128976096Y-110463659D01*
X128976097Y-110463663D01*
X129007692Y-110531418D01*
X129075965Y-110677830D01*
X129075967Y-110677834D01*
X129100017Y-110712180D01*
X129211505Y-110871401D01*
X129378599Y-111038495D01*
X129475384Y-111106265D01*
X129572165Y-111174032D01*
X129572167Y-111174033D01*
X129572170Y-111174035D01*
X129786337Y-111273903D01*
X129786343Y-111273904D01*
X129786344Y-111273905D01*
X129787919Y-111274327D01*
X130014592Y-111335063D01*
X130191034Y-111350500D01*
X130249999Y-111355659D01*
X130250000Y-111355659D01*
X130250001Y-111355659D01*
X130308966Y-111350500D01*
X130485408Y-111335063D01*
X130713663Y-111273903D01*
X130927830Y-111174035D01*
X131121401Y-111038495D01*
X131288495Y-110871401D01*
X131424035Y-110677830D01*
X131523903Y-110463663D01*
X131585063Y-110235408D01*
X131605659Y-110000001D01*
X133394843Y-110000001D01*
X133415430Y-110235315D01*
X133415432Y-110235326D01*
X133476566Y-110463483D01*
X133476570Y-110463492D01*
X133576400Y-110677579D01*
X133576402Y-110677583D01*
X133635072Y-110761373D01*
X133635073Y-110761373D01*
X134266923Y-110129523D01*
X134290507Y-110209844D01*
X134368239Y-110330798D01*
X134476900Y-110424952D01*
X134607685Y-110484680D01*
X134617466Y-110486086D01*
X133988625Y-111114925D01*
X134072421Y-111173599D01*
X134286507Y-111273429D01*
X134286516Y-111273433D01*
X134514673Y-111334567D01*
X134514684Y-111334569D01*
X134749998Y-111355157D01*
X134750002Y-111355157D01*
X134985315Y-111334569D01*
X134985326Y-111334567D01*
X135213483Y-111273433D01*
X135213492Y-111273429D01*
X135427578Y-111173600D01*
X135427582Y-111173598D01*
X135511373Y-111114926D01*
X135511373Y-111114925D01*
X134882533Y-110486086D01*
X134892315Y-110484680D01*
X135023100Y-110424952D01*
X135131761Y-110330798D01*
X135209493Y-110209844D01*
X135233076Y-110129524D01*
X135864925Y-110761373D01*
X135864926Y-110761373D01*
X135923598Y-110677582D01*
X135923600Y-110677578D01*
X136023429Y-110463492D01*
X136023433Y-110463483D01*
X136084567Y-110235326D01*
X136084569Y-110235315D01*
X136105157Y-110000001D01*
X136105157Y-110000000D01*
X143894341Y-110000000D01*
X143914936Y-110235403D01*
X143914938Y-110235413D01*
X143976094Y-110463655D01*
X143976096Y-110463659D01*
X143976097Y-110463663D01*
X144007692Y-110531418D01*
X144075965Y-110677830D01*
X144075967Y-110677834D01*
X144100017Y-110712180D01*
X144211505Y-110871401D01*
X144378599Y-111038495D01*
X144475384Y-111106265D01*
X144572165Y-111174032D01*
X144572167Y-111174033D01*
X144572170Y-111174035D01*
X144786337Y-111273903D01*
X144786343Y-111273904D01*
X144786344Y-111273905D01*
X144787919Y-111274327D01*
X145014592Y-111335063D01*
X145191034Y-111350500D01*
X145249999Y-111355659D01*
X145250000Y-111355659D01*
X145250001Y-111355659D01*
X145308966Y-111350500D01*
X145485408Y-111335063D01*
X145713663Y-111273903D01*
X145927830Y-111174035D01*
X146121401Y-111038495D01*
X146288495Y-110871401D01*
X146424035Y-110677830D01*
X146523903Y-110463663D01*
X146585063Y-110235408D01*
X146605659Y-110000001D01*
X148394843Y-110000001D01*
X148415430Y-110235315D01*
X148415432Y-110235326D01*
X148476566Y-110463483D01*
X148476570Y-110463492D01*
X148576400Y-110677579D01*
X148576402Y-110677583D01*
X148635072Y-110761373D01*
X148635073Y-110761373D01*
X149266923Y-110129523D01*
X149290507Y-110209844D01*
X149368239Y-110330798D01*
X149476900Y-110424952D01*
X149607685Y-110484680D01*
X149617466Y-110486086D01*
X148988625Y-111114925D01*
X149072421Y-111173599D01*
X149286507Y-111273429D01*
X149286516Y-111273433D01*
X149514673Y-111334567D01*
X149514684Y-111334569D01*
X149749998Y-111355157D01*
X149750002Y-111355157D01*
X149985315Y-111334569D01*
X149985326Y-111334567D01*
X150213483Y-111273433D01*
X150213492Y-111273429D01*
X150427578Y-111173600D01*
X150427582Y-111173598D01*
X150511373Y-111114926D01*
X150511373Y-111114925D01*
X149882533Y-110486086D01*
X149892315Y-110484680D01*
X150023100Y-110424952D01*
X150131761Y-110330798D01*
X150209493Y-110209844D01*
X150233076Y-110129524D01*
X150864925Y-110761373D01*
X150864926Y-110761373D01*
X150923598Y-110677582D01*
X150923600Y-110677578D01*
X151023429Y-110463492D01*
X151023433Y-110463483D01*
X151084567Y-110235326D01*
X151084569Y-110235315D01*
X151105157Y-110000001D01*
X151105157Y-110000000D01*
X158894341Y-110000000D01*
X158914936Y-110235403D01*
X158914938Y-110235413D01*
X158976094Y-110463655D01*
X158976096Y-110463659D01*
X158976097Y-110463663D01*
X159007692Y-110531418D01*
X159075965Y-110677830D01*
X159075967Y-110677834D01*
X159100017Y-110712180D01*
X159211505Y-110871401D01*
X159378599Y-111038495D01*
X159475384Y-111106265D01*
X159572165Y-111174032D01*
X159572167Y-111174033D01*
X159572170Y-111174035D01*
X159786337Y-111273903D01*
X159786343Y-111273904D01*
X159786344Y-111273905D01*
X159787919Y-111274327D01*
X160014592Y-111335063D01*
X160191034Y-111350500D01*
X160249999Y-111355659D01*
X160250000Y-111355659D01*
X160250001Y-111355659D01*
X160308966Y-111350500D01*
X160485408Y-111335063D01*
X160713663Y-111273903D01*
X160927830Y-111174035D01*
X161121401Y-111038495D01*
X161288495Y-110871401D01*
X161424035Y-110677830D01*
X161523903Y-110463663D01*
X161585063Y-110235408D01*
X161605659Y-110000001D01*
X163394843Y-110000001D01*
X163415430Y-110235315D01*
X163415432Y-110235326D01*
X163476566Y-110463483D01*
X163476570Y-110463492D01*
X163576400Y-110677579D01*
X163576402Y-110677583D01*
X163635072Y-110761373D01*
X163635073Y-110761373D01*
X164266923Y-110129523D01*
X164290507Y-110209844D01*
X164368239Y-110330798D01*
X164476900Y-110424952D01*
X164607685Y-110484680D01*
X164617466Y-110486086D01*
X163988625Y-111114925D01*
X164072421Y-111173599D01*
X164286507Y-111273429D01*
X164286516Y-111273433D01*
X164514673Y-111334567D01*
X164514684Y-111334569D01*
X164749998Y-111355157D01*
X164750002Y-111355157D01*
X164985315Y-111334569D01*
X164985326Y-111334567D01*
X165213483Y-111273433D01*
X165213492Y-111273429D01*
X165427578Y-111173600D01*
X165427582Y-111173598D01*
X165511373Y-111114926D01*
X165511373Y-111114925D01*
X164882533Y-110486086D01*
X164892315Y-110484680D01*
X165023100Y-110424952D01*
X165131761Y-110330798D01*
X165209493Y-110209844D01*
X165233076Y-110129524D01*
X165864925Y-110761373D01*
X165864926Y-110761373D01*
X165923598Y-110677582D01*
X165923600Y-110677578D01*
X166023429Y-110463492D01*
X166023433Y-110463483D01*
X166084567Y-110235326D01*
X166084569Y-110235315D01*
X166105157Y-110000001D01*
X166105157Y-109999998D01*
X166084569Y-109764684D01*
X166084567Y-109764673D01*
X166023433Y-109536516D01*
X166023429Y-109536507D01*
X165923600Y-109322423D01*
X165923599Y-109322421D01*
X165864925Y-109238626D01*
X165864925Y-109238625D01*
X165233076Y-109870475D01*
X165209493Y-109790156D01*
X165131761Y-109669202D01*
X165023100Y-109575048D01*
X164892315Y-109515320D01*
X164882533Y-109513913D01*
X165511373Y-108885073D01*
X165511373Y-108885072D01*
X165427583Y-108826402D01*
X165427579Y-108826400D01*
X165213492Y-108726570D01*
X165213483Y-108726566D01*
X164985326Y-108665432D01*
X164985315Y-108665430D01*
X164750002Y-108644843D01*
X164749998Y-108644843D01*
X164514684Y-108665430D01*
X164514673Y-108665432D01*
X164286516Y-108726566D01*
X164286507Y-108726570D01*
X164072419Y-108826401D01*
X163988625Y-108885072D01*
X164617466Y-109513913D01*
X164607685Y-109515320D01*
X164476900Y-109575048D01*
X164368239Y-109669202D01*
X164290507Y-109790156D01*
X164266923Y-109870476D01*
X163635072Y-109238625D01*
X163576401Y-109322419D01*
X163476570Y-109536507D01*
X163476566Y-109536516D01*
X163415432Y-109764673D01*
X163415430Y-109764684D01*
X163394843Y-109999998D01*
X163394843Y-110000001D01*
X161605659Y-110000001D01*
X161605659Y-110000000D01*
X161585063Y-109764592D01*
X161523903Y-109536337D01*
X161424035Y-109322171D01*
X161365537Y-109238626D01*
X161288494Y-109128597D01*
X161121402Y-108961506D01*
X161121395Y-108961501D01*
X160927834Y-108825967D01*
X160927830Y-108825965D01*
X160927828Y-108825964D01*
X160713663Y-108726097D01*
X160713659Y-108726096D01*
X160713655Y-108726094D01*
X160485413Y-108664938D01*
X160485403Y-108664936D01*
X160250001Y-108644341D01*
X160249999Y-108644341D01*
X160014596Y-108664936D01*
X160014586Y-108664938D01*
X159786344Y-108726094D01*
X159786335Y-108726098D01*
X159572171Y-108825964D01*
X159572169Y-108825965D01*
X159378597Y-108961505D01*
X159211505Y-109128597D01*
X159075965Y-109322169D01*
X159075964Y-109322171D01*
X158976098Y-109536335D01*
X158976094Y-109536344D01*
X158914938Y-109764586D01*
X158914936Y-109764596D01*
X158894341Y-109999999D01*
X158894341Y-110000000D01*
X151105157Y-110000000D01*
X151105157Y-109999998D01*
X151084569Y-109764684D01*
X151084567Y-109764673D01*
X151023433Y-109536516D01*
X151023429Y-109536507D01*
X150923600Y-109322423D01*
X150923599Y-109322421D01*
X150864925Y-109238626D01*
X150864925Y-109238625D01*
X150233076Y-109870475D01*
X150209493Y-109790156D01*
X150131761Y-109669202D01*
X150023100Y-109575048D01*
X149892315Y-109515320D01*
X149882533Y-109513913D01*
X150511373Y-108885073D01*
X150511373Y-108885072D01*
X150427583Y-108826402D01*
X150427579Y-108826400D01*
X150213492Y-108726570D01*
X150213483Y-108726566D01*
X149985326Y-108665432D01*
X149985315Y-108665430D01*
X149750002Y-108644843D01*
X149749998Y-108644843D01*
X149514684Y-108665430D01*
X149514673Y-108665432D01*
X149286516Y-108726566D01*
X149286507Y-108726570D01*
X149072419Y-108826401D01*
X148988625Y-108885072D01*
X149617466Y-109513913D01*
X149607685Y-109515320D01*
X149476900Y-109575048D01*
X149368239Y-109669202D01*
X149290507Y-109790156D01*
X149266923Y-109870476D01*
X148635072Y-109238625D01*
X148576401Y-109322419D01*
X148476570Y-109536507D01*
X148476566Y-109536516D01*
X148415432Y-109764673D01*
X148415430Y-109764684D01*
X148394843Y-109999998D01*
X148394843Y-110000001D01*
X146605659Y-110000001D01*
X146605659Y-110000000D01*
X146585063Y-109764592D01*
X146523903Y-109536337D01*
X146424035Y-109322171D01*
X146365537Y-109238626D01*
X146288494Y-109128597D01*
X146121402Y-108961506D01*
X146121395Y-108961501D01*
X145927834Y-108825967D01*
X145927830Y-108825965D01*
X145927828Y-108825964D01*
X145713663Y-108726097D01*
X145713659Y-108726096D01*
X145713655Y-108726094D01*
X145485413Y-108664938D01*
X145485403Y-108664936D01*
X145250001Y-108644341D01*
X145249999Y-108644341D01*
X145014596Y-108664936D01*
X145014586Y-108664938D01*
X144786344Y-108726094D01*
X144786335Y-108726098D01*
X144572171Y-108825964D01*
X144572169Y-108825965D01*
X144378597Y-108961505D01*
X144211505Y-109128597D01*
X144075965Y-109322169D01*
X144075964Y-109322171D01*
X143976098Y-109536335D01*
X143976094Y-109536344D01*
X143914938Y-109764586D01*
X143914936Y-109764596D01*
X143894341Y-109999999D01*
X143894341Y-110000000D01*
X136105157Y-110000000D01*
X136105157Y-109999998D01*
X136084569Y-109764684D01*
X136084567Y-109764673D01*
X136023433Y-109536516D01*
X136023429Y-109536507D01*
X135923600Y-109322423D01*
X135923599Y-109322421D01*
X135864925Y-109238626D01*
X135864925Y-109238625D01*
X135233076Y-109870475D01*
X135209493Y-109790156D01*
X135131761Y-109669202D01*
X135023100Y-109575048D01*
X134892315Y-109515320D01*
X134882533Y-109513913D01*
X135511373Y-108885073D01*
X135511373Y-108885072D01*
X135427583Y-108826402D01*
X135427579Y-108826400D01*
X135213492Y-108726570D01*
X135213483Y-108726566D01*
X134985326Y-108665432D01*
X134985315Y-108665430D01*
X134750002Y-108644843D01*
X134749998Y-108644843D01*
X134514684Y-108665430D01*
X134514673Y-108665432D01*
X134286516Y-108726566D01*
X134286507Y-108726570D01*
X134072419Y-108826401D01*
X133988625Y-108885072D01*
X134617466Y-109513913D01*
X134607685Y-109515320D01*
X134476900Y-109575048D01*
X134368239Y-109669202D01*
X134290507Y-109790156D01*
X134266923Y-109870475D01*
X133635073Y-109238625D01*
X133635072Y-109238625D01*
X133576401Y-109322419D01*
X133476570Y-109536507D01*
X133476566Y-109536516D01*
X133415432Y-109764673D01*
X133415430Y-109764684D01*
X133394843Y-109999998D01*
X133394843Y-110000001D01*
X131605659Y-110000001D01*
X131605659Y-110000000D01*
X131585063Y-109764592D01*
X131523903Y-109536337D01*
X131424035Y-109322171D01*
X131365537Y-109238626D01*
X131288494Y-109128597D01*
X131121402Y-108961506D01*
X131121395Y-108961501D01*
X130927834Y-108825967D01*
X130927830Y-108825965D01*
X130927828Y-108825964D01*
X130713663Y-108726097D01*
X130713659Y-108726096D01*
X130713655Y-108726094D01*
X130485413Y-108664938D01*
X130485403Y-108664936D01*
X130250001Y-108644341D01*
X130249999Y-108644341D01*
X130014596Y-108664936D01*
X130014586Y-108664938D01*
X129786344Y-108726094D01*
X129786335Y-108726098D01*
X129572171Y-108825964D01*
X129572169Y-108825965D01*
X129378597Y-108961505D01*
X129211505Y-109128597D01*
X129075965Y-109322169D01*
X129075964Y-109322171D01*
X128976098Y-109536335D01*
X128976094Y-109536344D01*
X128914938Y-109764586D01*
X128914936Y-109764596D01*
X128894341Y-109999999D01*
X128894341Y-110000000D01*
X121100499Y-110000000D01*
X121100499Y-109102128D01*
X121094091Y-109042517D01*
X121043796Y-108907669D01*
X121043795Y-108907668D01*
X121043793Y-108907664D01*
X120957547Y-108792455D01*
X120957544Y-108792452D01*
X120842335Y-108706206D01*
X120842328Y-108706202D01*
X120707482Y-108655908D01*
X120707483Y-108655908D01*
X120647883Y-108649501D01*
X120647881Y-108649500D01*
X120647873Y-108649500D01*
X120647864Y-108649500D01*
X118852129Y-108649500D01*
X118852123Y-108649501D01*
X118792516Y-108655908D01*
X118657671Y-108706202D01*
X118657664Y-108706206D01*
X118542455Y-108792452D01*
X118542452Y-108792455D01*
X118456206Y-108907664D01*
X118456202Y-108907671D01*
X118405908Y-109042517D01*
X118399501Y-109102116D01*
X118399501Y-109102123D01*
X118399500Y-109102135D01*
X118399500Y-110897870D01*
X115794318Y-110897870D01*
X115382533Y-110486086D01*
X115392315Y-110484680D01*
X115523100Y-110424952D01*
X115631761Y-110330798D01*
X115709493Y-110209844D01*
X115733076Y-110129524D01*
X116364925Y-110761373D01*
X116364926Y-110761373D01*
X116423598Y-110677582D01*
X116423600Y-110677578D01*
X116523429Y-110463492D01*
X116523433Y-110463483D01*
X116584567Y-110235326D01*
X116584569Y-110235315D01*
X116605157Y-110000001D01*
X116605157Y-109999998D01*
X116584569Y-109764684D01*
X116584567Y-109764673D01*
X116523433Y-109536516D01*
X116523429Y-109536507D01*
X116423600Y-109322423D01*
X116423599Y-109322421D01*
X116364925Y-109238626D01*
X116364925Y-109238625D01*
X115733076Y-109870475D01*
X115709493Y-109790156D01*
X115631761Y-109669202D01*
X115523100Y-109575048D01*
X115392315Y-109515320D01*
X115382533Y-109513913D01*
X116011373Y-108885073D01*
X116011373Y-108885072D01*
X115927583Y-108826402D01*
X115927579Y-108826400D01*
X115713492Y-108726570D01*
X115713483Y-108726566D01*
X115485326Y-108665432D01*
X115485315Y-108665430D01*
X115250002Y-108644843D01*
X115249998Y-108644843D01*
X115014684Y-108665430D01*
X115014673Y-108665432D01*
X114786516Y-108726566D01*
X114786507Y-108726570D01*
X114572419Y-108826401D01*
X114488625Y-108885072D01*
X115117466Y-109513913D01*
X115107685Y-109515320D01*
X114976900Y-109575048D01*
X114868239Y-109669202D01*
X114790507Y-109790156D01*
X114766923Y-109870476D01*
X114135072Y-109238625D01*
X114076401Y-109322419D01*
X113976570Y-109536507D01*
X113976566Y-109536516D01*
X113915432Y-109764673D01*
X113915430Y-109764684D01*
X113894843Y-109999998D01*
X113894843Y-110000001D01*
X97000500Y-110000001D01*
X97000500Y-106430005D01*
X120304859Y-106430005D01*
X120325385Y-106677729D01*
X120325387Y-106677738D01*
X120386412Y-106918717D01*
X120486266Y-107146364D01*
X120586564Y-107299882D01*
X121326923Y-106559523D01*
X121350507Y-106639844D01*
X121428239Y-106760798D01*
X121536900Y-106854952D01*
X121667685Y-106914680D01*
X121677466Y-106916086D01*
X120939942Y-107653609D01*
X120986768Y-107690055D01*
X120986770Y-107690056D01*
X121205385Y-107808364D01*
X121205396Y-107808369D01*
X121440506Y-107889083D01*
X121685707Y-107930000D01*
X121934293Y-107930000D01*
X122179493Y-107889083D01*
X122414603Y-107808369D01*
X122414614Y-107808364D01*
X122633228Y-107690057D01*
X122633231Y-107690055D01*
X122680056Y-107653609D01*
X121942533Y-106916086D01*
X121952315Y-106914680D01*
X122083100Y-106854952D01*
X122191761Y-106760798D01*
X122269493Y-106639844D01*
X122293076Y-106559524D01*
X123033433Y-107299881D01*
X123067211Y-107296379D01*
X123092794Y-107296380D01*
X123126564Y-107299882D01*
X123866923Y-106559523D01*
X123890507Y-106639844D01*
X123968239Y-106760798D01*
X124076900Y-106854952D01*
X124207685Y-106914680D01*
X124217466Y-106916086D01*
X123479942Y-107653609D01*
X123526768Y-107690055D01*
X123526770Y-107690056D01*
X123745385Y-107808364D01*
X123745396Y-107808369D01*
X123980506Y-107889083D01*
X124225707Y-107930000D01*
X124474293Y-107930000D01*
X124719493Y-107889083D01*
X124954603Y-107808369D01*
X124954614Y-107808364D01*
X125173228Y-107690057D01*
X125173231Y-107690055D01*
X125220056Y-107653609D01*
X124482533Y-106916086D01*
X124492315Y-106914680D01*
X124623100Y-106854952D01*
X124731761Y-106760798D01*
X124809493Y-106639844D01*
X124833076Y-106559524D01*
X125573434Y-107299882D01*
X125584861Y-107298697D01*
X125653573Y-107311360D01*
X125698092Y-107351194D01*
X125698683Y-107350735D01*
X125701218Y-107353992D01*
X125701456Y-107354205D01*
X125701831Y-107354780D01*
X125701836Y-107354785D01*
X125870256Y-107537738D01*
X126066491Y-107690474D01*
X126066493Y-107690475D01*
X126284332Y-107808364D01*
X126285190Y-107808828D01*
X126504141Y-107883994D01*
X126518964Y-107889083D01*
X126520386Y-107889571D01*
X126765665Y-107930500D01*
X127014335Y-107930500D01*
X127259614Y-107889571D01*
X127494810Y-107808828D01*
X127713509Y-107690474D01*
X127909744Y-107537738D01*
X128068771Y-107364988D01*
X128128657Y-107328999D01*
X128198495Y-107331099D01*
X128251228Y-107364988D01*
X128410256Y-107537738D01*
X128606491Y-107690474D01*
X128606493Y-107690475D01*
X128824332Y-107808364D01*
X128825190Y-107808828D01*
X129044141Y-107883994D01*
X129058964Y-107889083D01*
X129060386Y-107889571D01*
X129305665Y-107930500D01*
X129554335Y-107930500D01*
X129799614Y-107889571D01*
X130034810Y-107808828D01*
X130253509Y-107690474D01*
X130449744Y-107537738D01*
X130608771Y-107364988D01*
X130668657Y-107328999D01*
X130738495Y-107331099D01*
X130791228Y-107364988D01*
X130950256Y-107537738D01*
X131146491Y-107690474D01*
X131146493Y-107690475D01*
X131364332Y-107808364D01*
X131365190Y-107808828D01*
X131584141Y-107883994D01*
X131598964Y-107889083D01*
X131600386Y-107889571D01*
X131845665Y-107930500D01*
X132094335Y-107930500D01*
X132339614Y-107889571D01*
X132574810Y-107808828D01*
X132793509Y-107690474D01*
X132989744Y-107537738D01*
X133148771Y-107364988D01*
X133208657Y-107328999D01*
X133278495Y-107331099D01*
X133331228Y-107364988D01*
X133490256Y-107537738D01*
X133686491Y-107690474D01*
X133686493Y-107690475D01*
X133904332Y-107808364D01*
X133905190Y-107808828D01*
X134124141Y-107883994D01*
X134138964Y-107889083D01*
X134140386Y-107889571D01*
X134385665Y-107930500D01*
X134634335Y-107930500D01*
X134879614Y-107889571D01*
X135114810Y-107808828D01*
X135333509Y-107690474D01*
X135529744Y-107537738D01*
X135688771Y-107364988D01*
X135748657Y-107328999D01*
X135818495Y-107331099D01*
X135871228Y-107364988D01*
X136030256Y-107537738D01*
X136226491Y-107690474D01*
X136226493Y-107690475D01*
X136444332Y-107808364D01*
X136445190Y-107808828D01*
X136664141Y-107883994D01*
X136678964Y-107889083D01*
X136680386Y-107889571D01*
X136925665Y-107930500D01*
X137174335Y-107930500D01*
X137419614Y-107889571D01*
X137654810Y-107808828D01*
X137873509Y-107690474D01*
X138069744Y-107537738D01*
X138228771Y-107364988D01*
X138288657Y-107328999D01*
X138358495Y-107331099D01*
X138411228Y-107364988D01*
X138570256Y-107537738D01*
X138766491Y-107690474D01*
X138766493Y-107690475D01*
X138984332Y-107808364D01*
X138985190Y-107808828D01*
X139204141Y-107883994D01*
X139218964Y-107889083D01*
X139220386Y-107889571D01*
X139465665Y-107930500D01*
X139714335Y-107930500D01*
X139959614Y-107889571D01*
X140194810Y-107808828D01*
X140413509Y-107690474D01*
X140609744Y-107537738D01*
X140768771Y-107364988D01*
X140828657Y-107328999D01*
X140898495Y-107331099D01*
X140951228Y-107364988D01*
X141110256Y-107537738D01*
X141306491Y-107690474D01*
X141306493Y-107690475D01*
X141524332Y-107808364D01*
X141525190Y-107808828D01*
X141744141Y-107883994D01*
X141758964Y-107889083D01*
X141760386Y-107889571D01*
X142005665Y-107930500D01*
X142254335Y-107930500D01*
X142499614Y-107889571D01*
X142734810Y-107808828D01*
X142953509Y-107690474D01*
X143149744Y-107537738D01*
X143318164Y-107354785D01*
X143318533Y-107354219D01*
X143318745Y-107354038D01*
X143321322Y-107350729D01*
X143322002Y-107351258D01*
X143371676Y-107308860D01*
X143435138Y-107298697D01*
X143446564Y-107299882D01*
X144186923Y-106559523D01*
X144210507Y-106639844D01*
X144288239Y-106760798D01*
X144396900Y-106854952D01*
X144527685Y-106914680D01*
X144537466Y-106916086D01*
X143799942Y-107653609D01*
X143846768Y-107690055D01*
X143846770Y-107690056D01*
X144065385Y-107808364D01*
X144065396Y-107808369D01*
X144300506Y-107889083D01*
X144545707Y-107930000D01*
X144794293Y-107930000D01*
X145039493Y-107889083D01*
X145274603Y-107808369D01*
X145274614Y-107808364D01*
X145493228Y-107690057D01*
X145493231Y-107690055D01*
X145540056Y-107653609D01*
X144802533Y-106916086D01*
X144812315Y-106914680D01*
X144943100Y-106854952D01*
X145051761Y-106760798D01*
X145129493Y-106639844D01*
X145153076Y-106559524D01*
X145893433Y-107299881D01*
X145927211Y-107296379D01*
X145952794Y-107296380D01*
X145986564Y-107299882D01*
X146726923Y-106559523D01*
X146750507Y-106639844D01*
X146828239Y-106760798D01*
X146936900Y-106854952D01*
X147067685Y-106914680D01*
X147077466Y-106916086D01*
X146339942Y-107653609D01*
X146386768Y-107690055D01*
X146386770Y-107690056D01*
X146605385Y-107808364D01*
X146605396Y-107808369D01*
X146840506Y-107889083D01*
X147085707Y-107930000D01*
X147334293Y-107930000D01*
X147579493Y-107889083D01*
X147814603Y-107808369D01*
X147814614Y-107808364D01*
X148033228Y-107690057D01*
X148033231Y-107690055D01*
X148080056Y-107653609D01*
X147342533Y-106916086D01*
X147352315Y-106914680D01*
X147483100Y-106854952D01*
X147591761Y-106760798D01*
X147669493Y-106639844D01*
X147693076Y-106559524D01*
X148433434Y-107299882D01*
X148444861Y-107298697D01*
X148513573Y-107311360D01*
X148558092Y-107351194D01*
X148558683Y-107350735D01*
X148561218Y-107353992D01*
X148561456Y-107354205D01*
X148561831Y-107354780D01*
X148561836Y-107354785D01*
X148730256Y-107537738D01*
X148926491Y-107690474D01*
X148926493Y-107690475D01*
X149144332Y-107808364D01*
X149145190Y-107808828D01*
X149364141Y-107883994D01*
X149378964Y-107889083D01*
X149380386Y-107889571D01*
X149625665Y-107930500D01*
X149874335Y-107930500D01*
X150119614Y-107889571D01*
X150354810Y-107808828D01*
X150573509Y-107690474D01*
X150769744Y-107537738D01*
X150938164Y-107354785D01*
X151074173Y-107146607D01*
X151174063Y-106918881D01*
X151235108Y-106677821D01*
X151255643Y-106430000D01*
X151249686Y-106358111D01*
X151235109Y-106182187D01*
X151235107Y-106182175D01*
X151174063Y-105941118D01*
X151074173Y-105713393D01*
X150938166Y-105505217D01*
X150916557Y-105481744D01*
X150769744Y-105322262D01*
X150573509Y-105169526D01*
X150573507Y-105169525D01*
X150573506Y-105169524D01*
X150354811Y-105051172D01*
X150354802Y-105051169D01*
X150119616Y-104970429D01*
X149874335Y-104929500D01*
X149625665Y-104929500D01*
X149380383Y-104970429D01*
X149145197Y-105051169D01*
X149145188Y-105051172D01*
X148926493Y-105169524D01*
X148730257Y-105322261D01*
X148561837Y-105505213D01*
X148561829Y-105505224D01*
X148561455Y-105505797D01*
X148561242Y-105505978D01*
X148558690Y-105509258D01*
X148558014Y-105508732D01*
X148508304Y-105551147D01*
X148444865Y-105561302D01*
X148433434Y-105560116D01*
X147693076Y-106300475D01*
X147669493Y-106220156D01*
X147591761Y-106099202D01*
X147483100Y-106005048D01*
X147352315Y-105945320D01*
X147342534Y-105943913D01*
X148080057Y-105206390D01*
X148080056Y-105206389D01*
X148033229Y-105169943D01*
X147814614Y-105051635D01*
X147814603Y-105051630D01*
X147579493Y-104970916D01*
X147334293Y-104930000D01*
X147085707Y-104930000D01*
X146840506Y-104970916D01*
X146605396Y-105051630D01*
X146605390Y-105051632D01*
X146386761Y-105169949D01*
X146339942Y-105206388D01*
X146339942Y-105206390D01*
X147077466Y-105943913D01*
X147067685Y-105945320D01*
X146936900Y-106005048D01*
X146828239Y-106099202D01*
X146750507Y-106220156D01*
X146726923Y-106300476D01*
X145986562Y-105560115D01*
X145952794Y-105563618D01*
X145927211Y-105563618D01*
X145893435Y-105560115D01*
X145153076Y-106300475D01*
X145129493Y-106220156D01*
X145051761Y-106099202D01*
X144943100Y-106005048D01*
X144812315Y-105945320D01*
X144802534Y-105943913D01*
X145540057Y-105206390D01*
X145540056Y-105206389D01*
X145493229Y-105169943D01*
X145274614Y-105051635D01*
X145274603Y-105051630D01*
X145039493Y-104970916D01*
X144794293Y-104930000D01*
X144545707Y-104930000D01*
X144300506Y-104970916D01*
X144065396Y-105051630D01*
X144065390Y-105051632D01*
X143846761Y-105169949D01*
X143799942Y-105206388D01*
X143799942Y-105206390D01*
X144537466Y-105943913D01*
X144527685Y-105945320D01*
X144396900Y-106005048D01*
X144288239Y-106099202D01*
X144210507Y-106220156D01*
X144186923Y-106300475D01*
X143446564Y-105560116D01*
X143435135Y-105561302D01*
X143366423Y-105548637D01*
X143321910Y-105508802D01*
X143321317Y-105509265D01*
X143318768Y-105505991D01*
X143318535Y-105505782D01*
X143318166Y-105505218D01*
X143318165Y-105505217D01*
X143318164Y-105505215D01*
X143149744Y-105322262D01*
X142953509Y-105169526D01*
X142953507Y-105169525D01*
X142953506Y-105169524D01*
X142734811Y-105051172D01*
X142734802Y-105051169D01*
X142499616Y-104970429D01*
X142254335Y-104929500D01*
X142005665Y-104929500D01*
X141760383Y-104970429D01*
X141525197Y-105051169D01*
X141525188Y-105051172D01*
X141306493Y-105169524D01*
X141110257Y-105322261D01*
X140951230Y-105495010D01*
X140891342Y-105531001D01*
X140821504Y-105528900D01*
X140768770Y-105495010D01*
X140729108Y-105451926D01*
X140609744Y-105322262D01*
X140413509Y-105169526D01*
X140413507Y-105169525D01*
X140413506Y-105169524D01*
X140194811Y-105051172D01*
X140194802Y-105051169D01*
X139959616Y-104970429D01*
X139714335Y-104929500D01*
X139465665Y-104929500D01*
X139220383Y-104970429D01*
X138985197Y-105051169D01*
X138985188Y-105051172D01*
X138766493Y-105169524D01*
X138570257Y-105322261D01*
X138411230Y-105495010D01*
X138351342Y-105531001D01*
X138281504Y-105528900D01*
X138228770Y-105495010D01*
X138189108Y-105451926D01*
X138069744Y-105322262D01*
X137873509Y-105169526D01*
X137873507Y-105169525D01*
X137873506Y-105169524D01*
X137654811Y-105051172D01*
X137654802Y-105051169D01*
X137419616Y-104970429D01*
X137174335Y-104929500D01*
X136925665Y-104929500D01*
X136680383Y-104970429D01*
X136445197Y-105051169D01*
X136445188Y-105051172D01*
X136226493Y-105169524D01*
X136030257Y-105322261D01*
X135871230Y-105495010D01*
X135811342Y-105531001D01*
X135741504Y-105528900D01*
X135688770Y-105495010D01*
X135649108Y-105451926D01*
X135529744Y-105322262D01*
X135333509Y-105169526D01*
X135333507Y-105169525D01*
X135333506Y-105169524D01*
X135114811Y-105051172D01*
X135114802Y-105051169D01*
X134879616Y-104970429D01*
X134634335Y-104929500D01*
X134385665Y-104929500D01*
X134140383Y-104970429D01*
X133905197Y-105051169D01*
X133905188Y-105051172D01*
X133686493Y-105169524D01*
X133490257Y-105322261D01*
X133331230Y-105495010D01*
X133271342Y-105531001D01*
X133201504Y-105528900D01*
X133148770Y-105495010D01*
X133109108Y-105451926D01*
X132989744Y-105322262D01*
X132793509Y-105169526D01*
X132793507Y-105169525D01*
X132793506Y-105169524D01*
X132574811Y-105051172D01*
X132574802Y-105051169D01*
X132339616Y-104970429D01*
X132094335Y-104929500D01*
X131845665Y-104929500D01*
X131600383Y-104970429D01*
X131365197Y-105051169D01*
X131365188Y-105051172D01*
X131146493Y-105169524D01*
X130950257Y-105322261D01*
X130791230Y-105495010D01*
X130731342Y-105531001D01*
X130661504Y-105528900D01*
X130608770Y-105495010D01*
X130569108Y-105451926D01*
X130449744Y-105322262D01*
X130253509Y-105169526D01*
X130253507Y-105169525D01*
X130253506Y-105169524D01*
X130034811Y-105051172D01*
X130034802Y-105051169D01*
X129799616Y-104970429D01*
X129554335Y-104929500D01*
X129305665Y-104929500D01*
X129060383Y-104970429D01*
X128825197Y-105051169D01*
X128825188Y-105051172D01*
X128606493Y-105169524D01*
X128410257Y-105322261D01*
X128251230Y-105495010D01*
X128191342Y-105531001D01*
X128121504Y-105528900D01*
X128068770Y-105495010D01*
X128029108Y-105451926D01*
X127909744Y-105322262D01*
X127713509Y-105169526D01*
X127713507Y-105169525D01*
X127713506Y-105169524D01*
X127494811Y-105051172D01*
X127494802Y-105051169D01*
X127259616Y-104970429D01*
X127014335Y-104929500D01*
X126765665Y-104929500D01*
X126520383Y-104970429D01*
X126285197Y-105051169D01*
X126285188Y-105051172D01*
X126066493Y-105169524D01*
X125870257Y-105322261D01*
X125701837Y-105505213D01*
X125701829Y-105505224D01*
X125701455Y-105505797D01*
X125701242Y-105505978D01*
X125698690Y-105509258D01*
X125698014Y-105508732D01*
X125648304Y-105551147D01*
X125584865Y-105561302D01*
X125573434Y-105560116D01*
X124833076Y-106300475D01*
X124809493Y-106220156D01*
X124731761Y-106099202D01*
X124623100Y-106005048D01*
X124492315Y-105945320D01*
X124482534Y-105943913D01*
X125220057Y-105206390D01*
X125220056Y-105206389D01*
X125173229Y-105169943D01*
X124954614Y-105051635D01*
X124954603Y-105051630D01*
X124719493Y-104970916D01*
X124474293Y-104930000D01*
X124225707Y-104930000D01*
X123980506Y-104970916D01*
X123745396Y-105051630D01*
X123745390Y-105051632D01*
X123526761Y-105169949D01*
X123479942Y-105206388D01*
X123479942Y-105206390D01*
X124217466Y-105943913D01*
X124207685Y-105945320D01*
X124076900Y-106005048D01*
X123968239Y-106099202D01*
X123890507Y-106220156D01*
X123866923Y-106300476D01*
X123126562Y-105560115D01*
X123092794Y-105563618D01*
X123067211Y-105563618D01*
X123033435Y-105560115D01*
X122293076Y-106300475D01*
X122269493Y-106220156D01*
X122191761Y-106099202D01*
X122083100Y-106005048D01*
X121952315Y-105945320D01*
X121942534Y-105943913D01*
X122680057Y-105206390D01*
X122680056Y-105206389D01*
X122633229Y-105169943D01*
X122414614Y-105051635D01*
X122414603Y-105051630D01*
X122179493Y-104970916D01*
X121934293Y-104930000D01*
X121685707Y-104930000D01*
X121440506Y-104970916D01*
X121205396Y-105051630D01*
X121205390Y-105051632D01*
X120986761Y-105169949D01*
X120939942Y-105206388D01*
X120939942Y-105206390D01*
X121677466Y-105943913D01*
X121667685Y-105945320D01*
X121536900Y-106005048D01*
X121428239Y-106099202D01*
X121350507Y-106220156D01*
X121326923Y-106300475D01*
X120586564Y-105560116D01*
X120486267Y-105713632D01*
X120386412Y-105941282D01*
X120325387Y-106182261D01*
X120325385Y-106182270D01*
X120304859Y-106429994D01*
X120304859Y-106430005D01*
X97000500Y-106430005D01*
X97000500Y-99640346D01*
X101795702Y-99640346D01*
X101805819Y-99878528D01*
X101805819Y-99878532D01*
X101856045Y-100111580D01*
X101921084Y-100273433D01*
X101944936Y-100332790D01*
X102069931Y-100535795D01*
X102227436Y-100714755D01*
X102412920Y-100864523D01*
X102621046Y-100980790D01*
X102746951Y-101025275D01*
X102845829Y-101060211D01*
X103080790Y-101100499D01*
X103080798Y-101100499D01*
X103080800Y-101100500D01*
X103080801Y-101100500D01*
X104859502Y-101100500D01*
X105037536Y-101085347D01*
X105037539Y-101085346D01*
X105037541Y-101085346D01*
X105268249Y-101025275D01*
X105400973Y-100965279D01*
X105485480Y-100927080D01*
X105485481Y-100927078D01*
X105485486Y-100927077D01*
X105683003Y-100793579D01*
X105855118Y-100628621D01*
X105996879Y-100436947D01*
X106104207Y-100224074D01*
X106174016Y-99996123D01*
X106204298Y-99759654D01*
X106200811Y-99677578D01*
X106194180Y-99521471D01*
X106194180Y-99521467D01*
X106143954Y-99288419D01*
X106055064Y-99067211D01*
X106055064Y-99067210D01*
X106013682Y-99000001D01*
X108644843Y-99000001D01*
X108665430Y-99235315D01*
X108665432Y-99235326D01*
X108726566Y-99463483D01*
X108726570Y-99463492D01*
X108826400Y-99677579D01*
X108826402Y-99677583D01*
X108885072Y-99761373D01*
X108885073Y-99761373D01*
X109516923Y-99129523D01*
X109540507Y-99209844D01*
X109618239Y-99330798D01*
X109726900Y-99424952D01*
X109857685Y-99484680D01*
X109867466Y-99486086D01*
X109238625Y-100114925D01*
X109322421Y-100173599D01*
X109536507Y-100273429D01*
X109536516Y-100273433D01*
X109764673Y-100334567D01*
X109764684Y-100334569D01*
X109999998Y-100355157D01*
X110000002Y-100355157D01*
X110235315Y-100334569D01*
X110235326Y-100334567D01*
X110463483Y-100273433D01*
X110463492Y-100273429D01*
X110677578Y-100173600D01*
X110677582Y-100173598D01*
X110761373Y-100114926D01*
X110761373Y-100114925D01*
X110132533Y-99486086D01*
X110142315Y-99484680D01*
X110273100Y-99424952D01*
X110381761Y-99330798D01*
X110459493Y-99209844D01*
X110483076Y-99129524D01*
X111114925Y-99761373D01*
X111114926Y-99761373D01*
X111173598Y-99677582D01*
X111173600Y-99677578D01*
X111273429Y-99463492D01*
X111273433Y-99463483D01*
X111334567Y-99235326D01*
X111334569Y-99235315D01*
X111355157Y-99000001D01*
X111355157Y-98999998D01*
X111334569Y-98764684D01*
X111334567Y-98764673D01*
X111273433Y-98536516D01*
X111273429Y-98536507D01*
X111173600Y-98322423D01*
X111173599Y-98322421D01*
X111114925Y-98238626D01*
X111114925Y-98238625D01*
X110483076Y-98870475D01*
X110459493Y-98790156D01*
X110381761Y-98669202D01*
X110273100Y-98575048D01*
X110142315Y-98515320D01*
X110132533Y-98513913D01*
X110761373Y-97885073D01*
X110761373Y-97885072D01*
X110677583Y-97826402D01*
X110677579Y-97826400D01*
X110463492Y-97726570D01*
X110463483Y-97726566D01*
X110235326Y-97665432D01*
X110235315Y-97665430D01*
X110000002Y-97644843D01*
X109999998Y-97644843D01*
X109764684Y-97665430D01*
X109764673Y-97665432D01*
X109536516Y-97726566D01*
X109536507Y-97726570D01*
X109322419Y-97826401D01*
X109238625Y-97885072D01*
X109867466Y-98513913D01*
X109857685Y-98515320D01*
X109726900Y-98575048D01*
X109618239Y-98669202D01*
X109540507Y-98790156D01*
X109516923Y-98870476D01*
X108885072Y-98238625D01*
X108826401Y-98322419D01*
X108726570Y-98536507D01*
X108726566Y-98536516D01*
X108665432Y-98764673D01*
X108665430Y-98764684D01*
X108644843Y-98999998D01*
X108644843Y-99000001D01*
X106013682Y-99000001D01*
X105930069Y-98864205D01*
X105772564Y-98685245D01*
X105587080Y-98535477D01*
X105473130Y-98471820D01*
X105378955Y-98419210D01*
X105154170Y-98339788D01*
X104919209Y-98299500D01*
X104919200Y-98299500D01*
X103140503Y-98299500D01*
X103140498Y-98299500D01*
X102962463Y-98314652D01*
X102731751Y-98374724D01*
X102514519Y-98472919D01*
X102514511Y-98472924D01*
X102317006Y-98606413D01*
X102316997Y-98606421D01*
X102144881Y-98771379D01*
X102003123Y-98963050D01*
X102003120Y-98963054D01*
X101895796Y-99175920D01*
X101895793Y-99175926D01*
X101825983Y-99403878D01*
X101795702Y-99640346D01*
X97000500Y-99640346D01*
X97000500Y-94940346D01*
X101795702Y-94940346D01*
X101805819Y-95178528D01*
X101805819Y-95178532D01*
X101856045Y-95411580D01*
X101944935Y-95632788D01*
X101944936Y-95632790D01*
X102069931Y-95835795D01*
X102227436Y-96014755D01*
X102412920Y-96164523D01*
X102621046Y-96280790D01*
X102746951Y-96325275D01*
X102845829Y-96360211D01*
X103080790Y-96400499D01*
X103080798Y-96400499D01*
X103080800Y-96400500D01*
X103080801Y-96400500D01*
X104859502Y-96400500D01*
X105037536Y-96385347D01*
X105037539Y-96385346D01*
X105037541Y-96385346D01*
X105268249Y-96325275D01*
X105400973Y-96265279D01*
X105485480Y-96227080D01*
X105485481Y-96227078D01*
X105485486Y-96227077D01*
X105683003Y-96093579D01*
X105855118Y-95928621D01*
X105996879Y-95736947D01*
X106104207Y-95524074D01*
X106174016Y-95296123D01*
X106204298Y-95059654D01*
X106194180Y-94821468D01*
X106143954Y-94588419D01*
X106055064Y-94367210D01*
X105930069Y-94164205D01*
X105772564Y-93985245D01*
X105587080Y-93835477D01*
X105473130Y-93771820D01*
X105378955Y-93719210D01*
X105154170Y-93639788D01*
X104919209Y-93599500D01*
X104919200Y-93599500D01*
X103140503Y-93599500D01*
X103140498Y-93599500D01*
X102962463Y-93614652D01*
X102731751Y-93674724D01*
X102514519Y-93772919D01*
X102514511Y-93772924D01*
X102317006Y-93906413D01*
X102316997Y-93906421D01*
X102144881Y-94071379D01*
X102003123Y-94263050D01*
X102003120Y-94263054D01*
X101895796Y-94475920D01*
X101895793Y-94475926D01*
X101825983Y-94703878D01*
X101795702Y-94940346D01*
X97000500Y-94940346D01*
X97000500Y-90240346D01*
X101795702Y-90240346D01*
X101805819Y-90478528D01*
X101805819Y-90478532D01*
X101856045Y-90711580D01*
X101944935Y-90932788D01*
X101944936Y-90932790D01*
X102069931Y-91135795D01*
X102227436Y-91314755D01*
X102412920Y-91464523D01*
X102621046Y-91580790D01*
X102746951Y-91625275D01*
X102845829Y-91660211D01*
X103080790Y-91700499D01*
X103080798Y-91700499D01*
X103080800Y-91700500D01*
X103080801Y-91700500D01*
X104859502Y-91700500D01*
X105037536Y-91685347D01*
X105037539Y-91685346D01*
X105037541Y-91685346D01*
X105268249Y-91625275D01*
X105400973Y-91565279D01*
X105485480Y-91527080D01*
X105485481Y-91527078D01*
X105485486Y-91527077D01*
X105683003Y-91393579D01*
X105855118Y-91228621D01*
X105996879Y-91036947D01*
X106104207Y-90824074D01*
X106174016Y-90596123D01*
X106204298Y-90359654D01*
X106194180Y-90121468D01*
X106143954Y-89888419D01*
X106055064Y-89667210D01*
X105930069Y-89464205D01*
X105772564Y-89285245D01*
X105587080Y-89135477D01*
X105473130Y-89071820D01*
X105378955Y-89019210D01*
X105154170Y-88939788D01*
X104919209Y-88899500D01*
X104919200Y-88899500D01*
X103140503Y-88899500D01*
X103140498Y-88899500D01*
X102962463Y-88914652D01*
X102731751Y-88974724D01*
X102514519Y-89072919D01*
X102514511Y-89072924D01*
X102317006Y-89206413D01*
X102316997Y-89206421D01*
X102144881Y-89371379D01*
X102003123Y-89563050D01*
X102003120Y-89563054D01*
X101895796Y-89775920D01*
X101895793Y-89775926D01*
X101825983Y-90003878D01*
X101795702Y-90240346D01*
X97000500Y-90240346D01*
X97000500Y-78000005D01*
X107595202Y-78000005D01*
X107614361Y-78231218D01*
X107671317Y-78456135D01*
X107764516Y-78668609D01*
X107848811Y-78797633D01*
X108516922Y-78129523D01*
X108540507Y-78209844D01*
X108618239Y-78330798D01*
X108726900Y-78424952D01*
X108857685Y-78484680D01*
X108867466Y-78486086D01*
X108201199Y-79152351D01*
X108231650Y-79176050D01*
X108435697Y-79286476D01*
X108435706Y-79286479D01*
X108655139Y-79361811D01*
X108883993Y-79400000D01*
X109116007Y-79400000D01*
X109344860Y-79361811D01*
X109564293Y-79286479D01*
X109564302Y-79286476D01*
X109768350Y-79176050D01*
X109798798Y-79152351D01*
X109132533Y-78486086D01*
X109142315Y-78484680D01*
X109273100Y-78424952D01*
X109381761Y-78330798D01*
X109459493Y-78209844D01*
X109483076Y-78129524D01*
X110151186Y-78797634D01*
X110155969Y-78797138D01*
X110199037Y-78760381D01*
X110268269Y-78750957D01*
X110331605Y-78780458D01*
X110353510Y-78805738D01*
X110391016Y-78863147D01*
X110391019Y-78863151D01*
X110391021Y-78863153D01*
X110548216Y-79033913D01*
X110548219Y-79033915D01*
X110548222Y-79033918D01*
X110731365Y-79176464D01*
X110731371Y-79176468D01*
X110731374Y-79176470D01*
X110872889Y-79253054D01*
X110934652Y-79286479D01*
X110935497Y-79286936D01*
X111017676Y-79315148D01*
X111155015Y-79362297D01*
X111155017Y-79362297D01*
X111155019Y-79362298D01*
X111383951Y-79400500D01*
X111383952Y-79400500D01*
X111616048Y-79400500D01*
X111616049Y-79400500D01*
X111844981Y-79362298D01*
X112064503Y-79286936D01*
X112268626Y-79176470D01*
X112281151Y-79166722D01*
X112330129Y-79128600D01*
X112451784Y-79033913D01*
X112608979Y-78863153D01*
X112646191Y-78806196D01*
X112699337Y-78760839D01*
X112768569Y-78751415D01*
X112831904Y-78780917D01*
X112853809Y-78806196D01*
X112891016Y-78863147D01*
X112891019Y-78863151D01*
X112891021Y-78863153D01*
X113048216Y-79033913D01*
X113048219Y-79033915D01*
X113048222Y-79033918D01*
X113231365Y-79176464D01*
X113231371Y-79176468D01*
X113231374Y-79176470D01*
X113372889Y-79253054D01*
X113434652Y-79286479D01*
X113435497Y-79286936D01*
X113517676Y-79315148D01*
X113655015Y-79362297D01*
X113655017Y-79362297D01*
X113655019Y-79362298D01*
X113883951Y-79400500D01*
X113883952Y-79400500D01*
X114116048Y-79400500D01*
X114116049Y-79400500D01*
X114344981Y-79362298D01*
X114564503Y-79286936D01*
X114768626Y-79176470D01*
X114781151Y-79166722D01*
X114830129Y-79128600D01*
X114951784Y-79033913D01*
X115108979Y-78863153D01*
X115160594Y-78784151D01*
X115227542Y-78681679D01*
X115280689Y-78636322D01*
X115331351Y-78625500D01*
X120920981Y-78625500D01*
X121000500Y-78625500D01*
X121067539Y-78645185D01*
X121113294Y-78697989D01*
X121124500Y-78749500D01*
X121124500Y-82160950D01*
X121104815Y-82227989D01*
X121059519Y-82270004D01*
X120986496Y-82309522D01*
X120986494Y-82309523D01*
X120790257Y-82462261D01*
X120621833Y-82645217D01*
X120485826Y-82853393D01*
X120385936Y-83081118D01*
X120324892Y-83322175D01*
X120324890Y-83322187D01*
X120304357Y-83569994D01*
X120304357Y-83570005D01*
X120324890Y-83817812D01*
X120324892Y-83817824D01*
X120385936Y-84058881D01*
X120485826Y-84286606D01*
X120621833Y-84494782D01*
X120621836Y-84494785D01*
X120790256Y-84677738D01*
X120986491Y-84830474D01*
X121205190Y-84948828D01*
X121440386Y-85029571D01*
X121685665Y-85070500D01*
X121934335Y-85070500D01*
X122179614Y-85029571D01*
X122414810Y-84948828D01*
X122633509Y-84830474D01*
X122829744Y-84677738D01*
X122988771Y-84504988D01*
X123048657Y-84468999D01*
X123118495Y-84471099D01*
X123171228Y-84504988D01*
X123330256Y-84677738D01*
X123526491Y-84830474D01*
X123745190Y-84948828D01*
X123980386Y-85029571D01*
X124225665Y-85070500D01*
X124474335Y-85070500D01*
X124719614Y-85029571D01*
X124954810Y-84948828D01*
X125173509Y-84830474D01*
X125369744Y-84677738D01*
X125528771Y-84504988D01*
X125588657Y-84468999D01*
X125658495Y-84471099D01*
X125711228Y-84504988D01*
X125870256Y-84677738D01*
X125941068Y-84732853D01*
X126066488Y-84830472D01*
X126066493Y-84830475D01*
X126204844Y-84905347D01*
X126254435Y-84954566D01*
X126263691Y-84981546D01*
X126265114Y-84981133D01*
X126267290Y-84988625D01*
X126267291Y-84988627D01*
X126272880Y-85007867D01*
X126276824Y-85026911D01*
X126279336Y-85046792D01*
X126296490Y-85090119D01*
X126298382Y-85095647D01*
X126311381Y-85140388D01*
X126321580Y-85157634D01*
X126330138Y-85175103D01*
X126337514Y-85193732D01*
X126364898Y-85231423D01*
X126368106Y-85236307D01*
X126391827Y-85276416D01*
X126391833Y-85276424D01*
X126405990Y-85290580D01*
X126418628Y-85305376D01*
X126430405Y-85321586D01*
X126430406Y-85321587D01*
X126466309Y-85351288D01*
X126470620Y-85355210D01*
X126989928Y-85874519D01*
X126999197Y-85883788D01*
X127009022Y-85896051D01*
X127009243Y-85895869D01*
X127014214Y-85901878D01*
X127035043Y-85921437D01*
X127064635Y-85949226D01*
X127085529Y-85970120D01*
X127091011Y-85974373D01*
X127095443Y-85978157D01*
X127129418Y-86010062D01*
X127146976Y-86019714D01*
X127163235Y-86030395D01*
X127179064Y-86042673D01*
X127221838Y-86061182D01*
X127227056Y-86063738D01*
X127267908Y-86086197D01*
X127287316Y-86091180D01*
X127305717Y-86097480D01*
X127324104Y-86105437D01*
X127367488Y-86112308D01*
X127370119Y-86112725D01*
X127375839Y-86113909D01*
X127420981Y-86125500D01*
X127441016Y-86125500D01*
X127460414Y-86127026D01*
X127480194Y-86130159D01*
X127480195Y-86130160D01*
X127480195Y-86130159D01*
X127480196Y-86130160D01*
X127526584Y-86125775D01*
X127532422Y-86125500D01*
X163417257Y-86125500D01*
X163432877Y-86127224D01*
X163432904Y-86126939D01*
X163440660Y-86127671D01*
X163440667Y-86127673D01*
X163509814Y-86125500D01*
X163539350Y-86125500D01*
X163546228Y-86124630D01*
X163552041Y-86124172D01*
X163598627Y-86122709D01*
X163617869Y-86117117D01*
X163636912Y-86113174D01*
X163656792Y-86110664D01*
X163700122Y-86093507D01*
X163705646Y-86091617D01*
X163709396Y-86090527D01*
X163750390Y-86078618D01*
X163767629Y-86068422D01*
X163785103Y-86059862D01*
X163803727Y-86052488D01*
X163803727Y-86052487D01*
X163803732Y-86052486D01*
X163841449Y-86025082D01*
X163846305Y-86021892D01*
X163886420Y-85998170D01*
X163900589Y-85983999D01*
X163915379Y-85971368D01*
X163931587Y-85959594D01*
X163961299Y-85923676D01*
X163965212Y-85919376D01*
X168793786Y-81090802D01*
X168806048Y-81080980D01*
X168805865Y-81080759D01*
X168811867Y-81075792D01*
X168811877Y-81075786D01*
X168859241Y-81025348D01*
X168880120Y-81004470D01*
X168884373Y-80998986D01*
X168888150Y-80994563D01*
X168920062Y-80960582D01*
X168929714Y-80943023D01*
X168940389Y-80926772D01*
X168952674Y-80910936D01*
X168971186Y-80868152D01*
X168973742Y-80862935D01*
X168996197Y-80822092D01*
X169001180Y-80802680D01*
X169007477Y-80784291D01*
X169015438Y-80765895D01*
X169022729Y-80719853D01*
X169023908Y-80714162D01*
X169035500Y-80669019D01*
X169035500Y-80648983D01*
X169037027Y-80629582D01*
X169038433Y-80620705D01*
X169040160Y-80609804D01*
X169035775Y-80563415D01*
X169035500Y-80557577D01*
X169035500Y-79376519D01*
X169055185Y-79309480D01*
X169100481Y-79267465D01*
X169268626Y-79176470D01*
X169281151Y-79166722D01*
X169330129Y-79128600D01*
X169451784Y-79033913D01*
X169608979Y-78863153D01*
X169646191Y-78806196D01*
X169699337Y-78760839D01*
X169768569Y-78751415D01*
X169831904Y-78780917D01*
X169853809Y-78806196D01*
X169891016Y-78863147D01*
X169891019Y-78863151D01*
X169891021Y-78863153D01*
X170048216Y-79033913D01*
X170048219Y-79033915D01*
X170048222Y-79033918D01*
X170231365Y-79176464D01*
X170231371Y-79176468D01*
X170231374Y-79176470D01*
X170372889Y-79253054D01*
X170434652Y-79286479D01*
X170435497Y-79286936D01*
X170517676Y-79315148D01*
X170655015Y-79362297D01*
X170655017Y-79362297D01*
X170655019Y-79362298D01*
X170883951Y-79400500D01*
X170883952Y-79400500D01*
X171116048Y-79400500D01*
X171116049Y-79400500D01*
X171344981Y-79362298D01*
X171564503Y-79286936D01*
X171768626Y-79176470D01*
X171781151Y-79166722D01*
X171830129Y-79128600D01*
X171951784Y-79033913D01*
X172108979Y-78863153D01*
X172235924Y-78668849D01*
X172329157Y-78456300D01*
X172386134Y-78231305D01*
X172386135Y-78231297D01*
X172405300Y-78000006D01*
X172405300Y-77999993D01*
X172386135Y-77768702D01*
X172386133Y-77768691D01*
X172329157Y-77543699D01*
X172235924Y-77331151D01*
X172108983Y-77136852D01*
X172108980Y-77136849D01*
X172108979Y-77136847D01*
X171951784Y-76966087D01*
X171951779Y-76966083D01*
X171951777Y-76966081D01*
X171768634Y-76823535D01*
X171768628Y-76823531D01*
X171564504Y-76713064D01*
X171564495Y-76713061D01*
X171344984Y-76637702D01*
X171173282Y-76609050D01*
X171116049Y-76599500D01*
X170883951Y-76599500D01*
X170838164Y-76607140D01*
X170655015Y-76637702D01*
X170435504Y-76713061D01*
X170435495Y-76713064D01*
X170231371Y-76823531D01*
X170231365Y-76823535D01*
X170048222Y-76966081D01*
X170048219Y-76966084D01*
X170048216Y-76966086D01*
X170048216Y-76966087D01*
X169925402Y-77099500D01*
X169891015Y-77136854D01*
X169853808Y-77193804D01*
X169800662Y-77239161D01*
X169731430Y-77248584D01*
X169668095Y-77219082D01*
X169646192Y-77193804D01*
X169608984Y-77136854D01*
X169608982Y-77136852D01*
X169608979Y-77136847D01*
X169451784Y-76966087D01*
X169451779Y-76966083D01*
X169451777Y-76966081D01*
X169268634Y-76823535D01*
X169268628Y-76823531D01*
X169064504Y-76713064D01*
X169064495Y-76713061D01*
X168844984Y-76637702D01*
X168673282Y-76609050D01*
X168616049Y-76599500D01*
X168383951Y-76599500D01*
X168338164Y-76607140D01*
X168155015Y-76637702D01*
X167935504Y-76713061D01*
X167935495Y-76713064D01*
X167731371Y-76823531D01*
X167731365Y-76823535D01*
X167548222Y-76966081D01*
X167548219Y-76966084D01*
X167548216Y-76966086D01*
X167548216Y-76966087D01*
X167391021Y-77136847D01*
X167389708Y-77138857D01*
X167353509Y-77194262D01*
X167300362Y-77239618D01*
X167231131Y-77249041D01*
X167167795Y-77219538D01*
X167153084Y-77202561D01*
X167151186Y-77202364D01*
X166483076Y-77870475D01*
X166459493Y-77790156D01*
X166381761Y-77669202D01*
X166273100Y-77575048D01*
X166142315Y-77515320D01*
X166132534Y-77513913D01*
X166798799Y-76847648D01*
X166798799Y-76847647D01*
X166768349Y-76823949D01*
X166564302Y-76713523D01*
X166564293Y-76713520D01*
X166344860Y-76638188D01*
X166116007Y-76600000D01*
X165883993Y-76600000D01*
X165655139Y-76638188D01*
X165435706Y-76713520D01*
X165435698Y-76713523D01*
X165231644Y-76823952D01*
X165201200Y-76847646D01*
X165201200Y-76847647D01*
X165867466Y-77513913D01*
X165857685Y-77515320D01*
X165726900Y-77575048D01*
X165618239Y-77669202D01*
X165540507Y-77790156D01*
X165516923Y-77870476D01*
X164848812Y-77202365D01*
X164764516Y-77331391D01*
X164764514Y-77331395D01*
X164671317Y-77543864D01*
X164614361Y-77768781D01*
X164595202Y-77999994D01*
X164595202Y-78000005D01*
X164614361Y-78231218D01*
X164671317Y-78456135D01*
X164764516Y-78668609D01*
X164848811Y-78797633D01*
X165516922Y-78129523D01*
X165540507Y-78209844D01*
X165618239Y-78330798D01*
X165726900Y-78424952D01*
X165857685Y-78484680D01*
X165867466Y-78486086D01*
X165201199Y-79152351D01*
X165231650Y-79176050D01*
X165435697Y-79286476D01*
X165435706Y-79286479D01*
X165655139Y-79361811D01*
X165883993Y-79400000D01*
X166116007Y-79400000D01*
X166344860Y-79361811D01*
X166564293Y-79286479D01*
X166564302Y-79286476D01*
X166768350Y-79176050D01*
X166798798Y-79152351D01*
X166132533Y-78486086D01*
X166142315Y-78484680D01*
X166273100Y-78424952D01*
X166381761Y-78330798D01*
X166459493Y-78209844D01*
X166483076Y-78129524D01*
X167151186Y-78797634D01*
X167155969Y-78797138D01*
X167199037Y-78760381D01*
X167268269Y-78750957D01*
X167331605Y-78780458D01*
X167353510Y-78805738D01*
X167391016Y-78863147D01*
X167391019Y-78863151D01*
X167391021Y-78863153D01*
X167548216Y-79033913D01*
X167548219Y-79033915D01*
X167548222Y-79033918D01*
X167735421Y-79179621D01*
X167734122Y-79181289D01*
X167773656Y-79227571D01*
X167784500Y-79278284D01*
X167784500Y-80279547D01*
X167764815Y-80346586D01*
X167748181Y-80367228D01*
X163277228Y-84838181D01*
X163215905Y-84871666D01*
X163189547Y-84874500D01*
X150871303Y-84874500D01*
X150804264Y-84854815D01*
X150758509Y-84802011D01*
X150748565Y-84732853D01*
X150777590Y-84669297D01*
X150780051Y-84666540D01*
X150938164Y-84494785D01*
X151074173Y-84286607D01*
X151174063Y-84058881D01*
X151235108Y-83817821D01*
X151255643Y-83570000D01*
X151235108Y-83322179D01*
X151174063Y-83081119D01*
X151074173Y-82853393D01*
X150955011Y-82671001D01*
X150938166Y-82645217D01*
X150870716Y-82571946D01*
X150781700Y-82475250D01*
X150750876Y-82413145D01*
X150741932Y-82363247D01*
X150741280Y-82358599D01*
X150735074Y-82297562D01*
X150724790Y-82264786D01*
X150722920Y-82257168D01*
X150716859Y-82223348D01*
X150716858Y-82223346D01*
X150716858Y-82223344D01*
X150694098Y-82166366D01*
X150692517Y-82161925D01*
X150674160Y-82103415D01*
X150674159Y-82103414D01*
X150674159Y-82103412D01*
X150657482Y-82073366D01*
X150654122Y-82066288D01*
X150641378Y-82034383D01*
X150641375Y-82034378D01*
X150641374Y-82034376D01*
X150618914Y-82000299D01*
X150607605Y-81983139D01*
X150605183Y-81979142D01*
X150575409Y-81925498D01*
X150553034Y-81899434D01*
X150548306Y-81893163D01*
X150529404Y-81864484D01*
X150529399Y-81864478D01*
X150507715Y-81842795D01*
X150486019Y-81821099D01*
X150482828Y-81817655D01*
X150442865Y-81771104D01*
X150415694Y-81750072D01*
X150409807Y-81744887D01*
X149466452Y-80801532D01*
X149405059Y-80736947D01*
X149372303Y-80714148D01*
X149354709Y-80701902D01*
X149350946Y-80699064D01*
X149303413Y-80660305D01*
X149303406Y-80660300D01*
X149272959Y-80644397D01*
X149266251Y-80640334D01*
X149238049Y-80620705D01*
X149238046Y-80620703D01*
X149238045Y-80620703D01*
X149238041Y-80620701D01*
X149181680Y-80596514D01*
X149177424Y-80594493D01*
X149123057Y-80566094D01*
X149123050Y-80566091D01*
X149123049Y-80566091D01*
X149117008Y-80564362D01*
X149090030Y-80556642D01*
X149082630Y-80554008D01*
X149051057Y-80540459D01*
X149051058Y-80540459D01*
X148990966Y-80528109D01*
X148986391Y-80526986D01*
X148927420Y-80510113D01*
X148927425Y-80510113D01*
X148893158Y-80507503D01*
X148885380Y-80506412D01*
X148851742Y-80499500D01*
X148851741Y-80499500D01*
X148790402Y-80499500D01*
X148785695Y-80499321D01*
X148780121Y-80498896D01*
X148724524Y-80494662D01*
X148704589Y-80497201D01*
X148690440Y-80499003D01*
X148682611Y-80499500D01*
X133365783Y-80499500D01*
X133298744Y-80479815D01*
X133278102Y-80463181D01*
X132071582Y-79256662D01*
X132067158Y-79253054D01*
X131953407Y-79160302D01*
X131773049Y-79066091D01*
X131577418Y-79010113D01*
X131577417Y-79010112D01*
X131577416Y-79010112D01*
X131374525Y-78994662D01*
X131374522Y-78994662D01*
X131172678Y-79020368D01*
X131172670Y-79020370D01*
X130980129Y-79086183D01*
X130980117Y-79086189D01*
X130804778Y-79189406D01*
X130804771Y-79189411D01*
X130653787Y-79325820D01*
X130653787Y-79325821D01*
X130533353Y-79489828D01*
X130533349Y-79489835D01*
X130448397Y-79674725D01*
X130448393Y-79674737D01*
X130402396Y-79872945D01*
X130397242Y-80076358D01*
X130433140Y-80276648D01*
X130433142Y-80276654D01*
X130508623Y-80465616D01*
X130508629Y-80465628D01*
X130620596Y-80635517D01*
X130620600Y-80635522D01*
X131854362Y-81869284D01*
X131887847Y-81930607D01*
X131882863Y-82000299D01*
X131840991Y-82056232D01*
X131787090Y-82079274D01*
X131600383Y-82110429D01*
X131365197Y-82191169D01*
X131365188Y-82191172D01*
X131146493Y-82309524D01*
X130950257Y-82462261D01*
X130791230Y-82635010D01*
X130731342Y-82671001D01*
X130661504Y-82668900D01*
X130608770Y-82635010D01*
X130569108Y-82591926D01*
X130449744Y-82462262D01*
X130253509Y-82309526D01*
X130253507Y-82309525D01*
X130253506Y-82309524D01*
X130034811Y-82191172D01*
X130034802Y-82191169D01*
X129799616Y-82110429D01*
X129554335Y-82069500D01*
X129305665Y-82069500D01*
X129060383Y-82110429D01*
X128825197Y-82191169D01*
X128825188Y-82191172D01*
X128606493Y-82309524D01*
X128410257Y-82462261D01*
X128251230Y-82635010D01*
X128191342Y-82671001D01*
X128121504Y-82668900D01*
X128068770Y-82635010D01*
X128029108Y-82591926D01*
X127909744Y-82462262D01*
X127713509Y-82309526D01*
X127713507Y-82309525D01*
X127713506Y-82309524D01*
X127494811Y-82191172D01*
X127494802Y-82191169D01*
X127259616Y-82110429D01*
X127014335Y-82069500D01*
X126765665Y-82069500D01*
X126520383Y-82110429D01*
X126285197Y-82191169D01*
X126285188Y-82191172D01*
X126066493Y-82309524D01*
X125870257Y-82462261D01*
X125711230Y-82635010D01*
X125651342Y-82671001D01*
X125581504Y-82668900D01*
X125528770Y-82635010D01*
X125489108Y-82591926D01*
X125369744Y-82462262D01*
X125173509Y-82309526D01*
X125173507Y-82309525D01*
X125173506Y-82309524D01*
X124954811Y-82191172D01*
X124954802Y-82191169D01*
X124719616Y-82110429D01*
X124474335Y-82069500D01*
X124225665Y-82069500D01*
X123980383Y-82110429D01*
X123745197Y-82191169D01*
X123745188Y-82191172D01*
X123526493Y-82309524D01*
X123330257Y-82462261D01*
X123171230Y-82635010D01*
X123111342Y-82671001D01*
X123041504Y-82668900D01*
X122988770Y-82635010D01*
X122949108Y-82591926D01*
X122829744Y-82462262D01*
X122633509Y-82309526D01*
X122633508Y-82309525D01*
X122633505Y-82309523D01*
X122633503Y-82309522D01*
X122514161Y-82244938D01*
X122440481Y-82205064D01*
X122390892Y-82155847D01*
X122375500Y-82096011D01*
X122375500Y-78749500D01*
X122395185Y-78682461D01*
X122447989Y-78636706D01*
X122499500Y-78625500D01*
X143296252Y-78625500D01*
X143363291Y-78645185D01*
X143388400Y-78666526D01*
X143394126Y-78672885D01*
X143394130Y-78672889D01*
X143547265Y-78784148D01*
X143547270Y-78784151D01*
X143720192Y-78861142D01*
X143720197Y-78861144D01*
X143905354Y-78900500D01*
X143905355Y-78900500D01*
X144094644Y-78900500D01*
X144094646Y-78900500D01*
X144279803Y-78861144D01*
X144452730Y-78784151D01*
X144461975Y-78777433D01*
X144527781Y-78753952D01*
X144595835Y-78769776D01*
X144622544Y-78790069D01*
X144999197Y-79166722D01*
X145009022Y-79178985D01*
X145009243Y-79178803D01*
X145014214Y-79184812D01*
X145019111Y-79189410D01*
X145064635Y-79232160D01*
X145085529Y-79253054D01*
X145091011Y-79257307D01*
X145095443Y-79261091D01*
X145129418Y-79292996D01*
X145146976Y-79302648D01*
X145163233Y-79313327D01*
X145179064Y-79325607D01*
X145198737Y-79334120D01*
X145221833Y-79344116D01*
X145227077Y-79346684D01*
X145267908Y-79369131D01*
X145280523Y-79372369D01*
X145287305Y-79374111D01*
X145305719Y-79380415D01*
X145324104Y-79388372D01*
X145370157Y-79395666D01*
X145375826Y-79396840D01*
X145420981Y-79408434D01*
X145441016Y-79408434D01*
X145460413Y-79409960D01*
X145480196Y-79413094D01*
X145526584Y-79408709D01*
X145532422Y-79408434D01*
X152296252Y-79408434D01*
X152363291Y-79428119D01*
X152388400Y-79449460D01*
X152394126Y-79455819D01*
X152394130Y-79455823D01*
X152547265Y-79567082D01*
X152547270Y-79567085D01*
X152720192Y-79644076D01*
X152720197Y-79644078D01*
X152905354Y-79683434D01*
X152905355Y-79683434D01*
X153094644Y-79683434D01*
X153094646Y-79683434D01*
X153279803Y-79644078D01*
X153452730Y-79567085D01*
X153605871Y-79455822D01*
X153608788Y-79452581D01*
X153611600Y-79449460D01*
X153671087Y-79412813D01*
X153703748Y-79408434D01*
X161296252Y-79408434D01*
X161363291Y-79428119D01*
X161388400Y-79449460D01*
X161394126Y-79455819D01*
X161394130Y-79455823D01*
X161547265Y-79567082D01*
X161547270Y-79567085D01*
X161720192Y-79644076D01*
X161720197Y-79644078D01*
X161905354Y-79683434D01*
X161905355Y-79683434D01*
X162094644Y-79683434D01*
X162094646Y-79683434D01*
X162279803Y-79644078D01*
X162452730Y-79567085D01*
X162605871Y-79455822D01*
X162732533Y-79315150D01*
X162827179Y-79151218D01*
X162885674Y-78971190D01*
X162905460Y-78782934D01*
X162885674Y-78594678D01*
X162827179Y-78414650D01*
X162732533Y-78250718D01*
X162605871Y-78110046D01*
X162605870Y-78110045D01*
X162452734Y-77998785D01*
X162452729Y-77998782D01*
X162279807Y-77921791D01*
X162279802Y-77921789D01*
X162134001Y-77890799D01*
X162094646Y-77882434D01*
X161905354Y-77882434D01*
X161872897Y-77889332D01*
X161720197Y-77921789D01*
X161720192Y-77921791D01*
X161547270Y-77998782D01*
X161547265Y-77998785D01*
X161394130Y-78110044D01*
X161394126Y-78110048D01*
X161388400Y-78116408D01*
X161328913Y-78153055D01*
X161296252Y-78157434D01*
X153703748Y-78157434D01*
X153636709Y-78137749D01*
X153611600Y-78116408D01*
X153605873Y-78110048D01*
X153605869Y-78110044D01*
X153452734Y-77998785D01*
X153452729Y-77998782D01*
X153279807Y-77921791D01*
X153279802Y-77921789D01*
X153134001Y-77890799D01*
X153094646Y-77882434D01*
X152905354Y-77882434D01*
X152872897Y-77889332D01*
X152720197Y-77921789D01*
X152720192Y-77921791D01*
X152547270Y-77998782D01*
X152547265Y-77998785D01*
X152394130Y-78110044D01*
X152394126Y-78110048D01*
X152388400Y-78116408D01*
X152328913Y-78153055D01*
X152296252Y-78157434D01*
X145810452Y-78157434D01*
X145743413Y-78137749D01*
X145722771Y-78121115D01*
X145217869Y-77616212D01*
X145208046Y-77603950D01*
X145207825Y-77604134D01*
X145202852Y-77598123D01*
X145152430Y-77550773D01*
X145141985Y-77540328D01*
X145131541Y-77529883D01*
X145126052Y-77525625D01*
X145121627Y-77521847D01*
X145087648Y-77489938D01*
X145087646Y-77489936D01*
X145087643Y-77489935D01*
X145070095Y-77480288D01*
X145053829Y-77469604D01*
X145037999Y-77457325D01*
X144995234Y-77438818D01*
X144989988Y-77436248D01*
X144949159Y-77413803D01*
X144949158Y-77413802D01*
X144929759Y-77408822D01*
X144911347Y-77402518D01*
X144892964Y-77394562D01*
X144892958Y-77394560D01*
X144846940Y-77387272D01*
X144841218Y-77386087D01*
X144796087Y-77374500D01*
X144796085Y-77374500D01*
X144776050Y-77374500D01*
X144756652Y-77372973D01*
X144742761Y-77370773D01*
X144736871Y-77369840D01*
X144736869Y-77369839D01*
X144713687Y-77372031D01*
X144645092Y-77358742D01*
X144609868Y-77331551D01*
X144605871Y-77327112D01*
X144605870Y-77327111D01*
X144605868Y-77327109D01*
X144452734Y-77215851D01*
X144452729Y-77215848D01*
X144279807Y-77138857D01*
X144279802Y-77138855D01*
X144134001Y-77107865D01*
X144094646Y-77099500D01*
X143905354Y-77099500D01*
X143872897Y-77106398D01*
X143720197Y-77138855D01*
X143720192Y-77138857D01*
X143547270Y-77215848D01*
X143547265Y-77215851D01*
X143394130Y-77327110D01*
X143394126Y-77327114D01*
X143388400Y-77333474D01*
X143328913Y-77370121D01*
X143296252Y-77374500D01*
X121820847Y-77374500D01*
X121797615Y-77372304D01*
X121789588Y-77370773D01*
X121789586Y-77370773D01*
X121780633Y-77371336D01*
X121732275Y-77374378D01*
X121728403Y-77374500D01*
X115331351Y-77374500D01*
X115264312Y-77354815D01*
X115227542Y-77318321D01*
X115108983Y-77136852D01*
X115108980Y-77136849D01*
X115108979Y-77136847D01*
X114951784Y-76966087D01*
X114951779Y-76966083D01*
X114951777Y-76966081D01*
X114768634Y-76823535D01*
X114768628Y-76823531D01*
X114564504Y-76713064D01*
X114564495Y-76713061D01*
X114344984Y-76637702D01*
X114173282Y-76609050D01*
X114116049Y-76599500D01*
X113883951Y-76599500D01*
X113838164Y-76607140D01*
X113655015Y-76637702D01*
X113435504Y-76713061D01*
X113435495Y-76713064D01*
X113231371Y-76823531D01*
X113231365Y-76823535D01*
X113048222Y-76966081D01*
X113048219Y-76966084D01*
X113048216Y-76966086D01*
X113048216Y-76966087D01*
X112925402Y-77099500D01*
X112891015Y-77136854D01*
X112853808Y-77193804D01*
X112800662Y-77239161D01*
X112731430Y-77248584D01*
X112668095Y-77219082D01*
X112646192Y-77193804D01*
X112608984Y-77136854D01*
X112608982Y-77136852D01*
X112608979Y-77136847D01*
X112451784Y-76966087D01*
X112451779Y-76966083D01*
X112451777Y-76966081D01*
X112268634Y-76823535D01*
X112268628Y-76823531D01*
X112064504Y-76713064D01*
X112064495Y-76713061D01*
X111844984Y-76637702D01*
X111673282Y-76609050D01*
X111616049Y-76599500D01*
X111383951Y-76599500D01*
X111338164Y-76607140D01*
X111155015Y-76637702D01*
X110935504Y-76713061D01*
X110935495Y-76713064D01*
X110731371Y-76823531D01*
X110731365Y-76823535D01*
X110548222Y-76966081D01*
X110548219Y-76966084D01*
X110548216Y-76966086D01*
X110548216Y-76966087D01*
X110391021Y-77136847D01*
X110389708Y-77138857D01*
X110353509Y-77194262D01*
X110300362Y-77239618D01*
X110231131Y-77249041D01*
X110167795Y-77219538D01*
X110153084Y-77202561D01*
X110151186Y-77202364D01*
X109483076Y-77870475D01*
X109459493Y-77790156D01*
X109381761Y-77669202D01*
X109273100Y-77575048D01*
X109142315Y-77515320D01*
X109132534Y-77513913D01*
X109798799Y-76847648D01*
X109798799Y-76847647D01*
X109768349Y-76823949D01*
X109564302Y-76713523D01*
X109564293Y-76713520D01*
X109344860Y-76638188D01*
X109116007Y-76600000D01*
X108883993Y-76600000D01*
X108655139Y-76638188D01*
X108435706Y-76713520D01*
X108435698Y-76713523D01*
X108231644Y-76823952D01*
X108201200Y-76847646D01*
X108201200Y-76847647D01*
X108867466Y-77513913D01*
X108857685Y-77515320D01*
X108726900Y-77575048D01*
X108618239Y-77669202D01*
X108540507Y-77790156D01*
X108516923Y-77870476D01*
X107848812Y-77202365D01*
X107764516Y-77331391D01*
X107764514Y-77331395D01*
X107671317Y-77543864D01*
X107614361Y-77768781D01*
X107595202Y-77999994D01*
X107595202Y-78000005D01*
X97000500Y-78000005D01*
X97000500Y-71000005D01*
X104594556Y-71000005D01*
X104614310Y-71314004D01*
X104614311Y-71314011D01*
X104673270Y-71623083D01*
X104770497Y-71922316D01*
X104770499Y-71922321D01*
X104904461Y-72207003D01*
X104904464Y-72207009D01*
X105073051Y-72472661D01*
X105073054Y-72472665D01*
X105273606Y-72715090D01*
X105273608Y-72715092D01*
X105502968Y-72930476D01*
X105502978Y-72930484D01*
X105757504Y-73115408D01*
X105757509Y-73115410D01*
X105757516Y-73115416D01*
X106033234Y-73266994D01*
X106033239Y-73266996D01*
X106033241Y-73266997D01*
X106033242Y-73266998D01*
X106325771Y-73382818D01*
X106325774Y-73382819D01*
X106630523Y-73461065D01*
X106630527Y-73461066D01*
X106696010Y-73469338D01*
X106942670Y-73500499D01*
X106942679Y-73500499D01*
X106942682Y-73500500D01*
X106942684Y-73500500D01*
X107257316Y-73500500D01*
X107257318Y-73500500D01*
X107257321Y-73500499D01*
X107257329Y-73500499D01*
X107443593Y-73476968D01*
X107569473Y-73461066D01*
X107874225Y-73382819D01*
X107874228Y-73382818D01*
X108166757Y-73266998D01*
X108166758Y-73266997D01*
X108166756Y-73266997D01*
X108166766Y-73266994D01*
X108442484Y-73115416D01*
X108697030Y-72930478D01*
X108926390Y-72715094D01*
X109126947Y-72472663D01*
X109295537Y-72207007D01*
X109429503Y-71922315D01*
X109526731Y-71623079D01*
X109585688Y-71314015D01*
X109587689Y-71282214D01*
X109605444Y-71000005D01*
X113394556Y-71000005D01*
X113414310Y-71314004D01*
X113414311Y-71314011D01*
X113473270Y-71623083D01*
X113570497Y-71922316D01*
X113570499Y-71922321D01*
X113704461Y-72207003D01*
X113704464Y-72207009D01*
X113873051Y-72472661D01*
X113873054Y-72472665D01*
X114073606Y-72715090D01*
X114073608Y-72715092D01*
X114302968Y-72930476D01*
X114302978Y-72930484D01*
X114557504Y-73115408D01*
X114557509Y-73115410D01*
X114557516Y-73115416D01*
X114833234Y-73266994D01*
X114833239Y-73266996D01*
X114833241Y-73266997D01*
X114833242Y-73266998D01*
X115125771Y-73382818D01*
X115125774Y-73382819D01*
X115430523Y-73461065D01*
X115430527Y-73461066D01*
X115496010Y-73469338D01*
X115742670Y-73500499D01*
X115742679Y-73500499D01*
X115742682Y-73500500D01*
X115742684Y-73500500D01*
X116057316Y-73500500D01*
X116057318Y-73500500D01*
X116057321Y-73500499D01*
X116057329Y-73500499D01*
X116243593Y-73476968D01*
X116369473Y-73461066D01*
X116674225Y-73382819D01*
X116674228Y-73382818D01*
X116966757Y-73266998D01*
X116966758Y-73266997D01*
X116966756Y-73266997D01*
X116966766Y-73266994D01*
X117242484Y-73115416D01*
X117497030Y-72930478D01*
X117726390Y-72715094D01*
X117926947Y-72472663D01*
X118095537Y-72207007D01*
X118229503Y-71922315D01*
X118326731Y-71623079D01*
X118385688Y-71314015D01*
X118387689Y-71282214D01*
X118405444Y-71000005D01*
X118405444Y-70999994D01*
X118385689Y-70685995D01*
X118385688Y-70685988D01*
X118385688Y-70685985D01*
X118326731Y-70376921D01*
X118229503Y-70077685D01*
X118209017Y-70034151D01*
X118095538Y-69792996D01*
X118095537Y-69792993D01*
X117926947Y-69527337D01*
X117926945Y-69527334D01*
X117726393Y-69284909D01*
X117726391Y-69284907D01*
X117497031Y-69069523D01*
X117497021Y-69069515D01*
X117242495Y-68884591D01*
X117242488Y-68884586D01*
X117242484Y-68884584D01*
X116966766Y-68733006D01*
X116966763Y-68733004D01*
X116966758Y-68733002D01*
X116966757Y-68733001D01*
X116674228Y-68617181D01*
X116674225Y-68617180D01*
X116369476Y-68538934D01*
X116369463Y-68538932D01*
X116057329Y-68499500D01*
X116057318Y-68499500D01*
X115742682Y-68499500D01*
X115742670Y-68499500D01*
X115430536Y-68538932D01*
X115430523Y-68538934D01*
X115125774Y-68617180D01*
X115125771Y-68617181D01*
X114833242Y-68733001D01*
X114833241Y-68733002D01*
X114557516Y-68884584D01*
X114557504Y-68884591D01*
X114302978Y-69069515D01*
X114302968Y-69069523D01*
X114073608Y-69284907D01*
X114073606Y-69284909D01*
X113873054Y-69527334D01*
X113873051Y-69527338D01*
X113704464Y-69792990D01*
X113704461Y-69792996D01*
X113570499Y-70077678D01*
X113570497Y-70077683D01*
X113473270Y-70376916D01*
X113473269Y-70376920D01*
X113473269Y-70376921D01*
X113472354Y-70381716D01*
X113414311Y-70685988D01*
X113414310Y-70685995D01*
X113394556Y-70999994D01*
X113394556Y-71000005D01*
X109605444Y-71000005D01*
X109605444Y-70999994D01*
X109585689Y-70685995D01*
X109585688Y-70685988D01*
X109585688Y-70685985D01*
X109526731Y-70376921D01*
X109429503Y-70077685D01*
X109409017Y-70034151D01*
X109295538Y-69792996D01*
X109295537Y-69792993D01*
X109126947Y-69527337D01*
X109126945Y-69527334D01*
X108926393Y-69284909D01*
X108926391Y-69284907D01*
X108697031Y-69069523D01*
X108697021Y-69069515D01*
X108442495Y-68884591D01*
X108442488Y-68884586D01*
X108442484Y-68884584D01*
X108166766Y-68733006D01*
X108166763Y-68733004D01*
X108166758Y-68733002D01*
X108166757Y-68733001D01*
X107874228Y-68617181D01*
X107874225Y-68617180D01*
X107569476Y-68538934D01*
X107569463Y-68538932D01*
X107257329Y-68499500D01*
X107257318Y-68499500D01*
X106942682Y-68499500D01*
X106942670Y-68499500D01*
X106630536Y-68538932D01*
X106630523Y-68538934D01*
X106325774Y-68617180D01*
X106325771Y-68617181D01*
X106033242Y-68733001D01*
X106033241Y-68733002D01*
X105757516Y-68884584D01*
X105757504Y-68884591D01*
X105502978Y-69069515D01*
X105502968Y-69069523D01*
X105273608Y-69284907D01*
X105273606Y-69284909D01*
X105073054Y-69527334D01*
X105073051Y-69527338D01*
X104904464Y-69792990D01*
X104904461Y-69792996D01*
X104770499Y-70077678D01*
X104770497Y-70077683D01*
X104673270Y-70376916D01*
X104673269Y-70376920D01*
X104673269Y-70376921D01*
X104672354Y-70381716D01*
X104614311Y-70685988D01*
X104614310Y-70685995D01*
X104594556Y-70999994D01*
X104594556Y-71000005D01*
X97000500Y-71000005D01*
X97000500Y-67067763D01*
X138145787Y-67067763D01*
X138175413Y-67337013D01*
X138175415Y-67337024D01*
X138243926Y-67599082D01*
X138243928Y-67599088D01*
X138349870Y-67848390D01*
X138490979Y-68079605D01*
X138490986Y-68079615D01*
X138664253Y-68287819D01*
X138664259Y-68287824D01*
X138756115Y-68370127D01*
X138865998Y-68468582D01*
X139091910Y-68618044D01*
X139337176Y-68733020D01*
X139337183Y-68733022D01*
X139337185Y-68733023D01*
X139596557Y-68811057D01*
X139596564Y-68811058D01*
X139596569Y-68811060D01*
X139864561Y-68850500D01*
X139864566Y-68850500D01*
X140067636Y-68850500D01*
X140119133Y-68846730D01*
X140270156Y-68835677D01*
X140382758Y-68810593D01*
X140534546Y-68776782D01*
X140534548Y-68776781D01*
X140534553Y-68776780D01*
X140787558Y-68680014D01*
X141023777Y-68547441D01*
X141110864Y-68480195D01*
X142369840Y-68480195D01*
X142374225Y-68526583D01*
X142374500Y-68532421D01*
X142374500Y-69917255D01*
X142372775Y-69932872D01*
X142373061Y-69932899D01*
X142372326Y-69940665D01*
X142374500Y-70009814D01*
X142374500Y-70039343D01*
X142374501Y-70039360D01*
X142375368Y-70046231D01*
X142375826Y-70052050D01*
X142377290Y-70098624D01*
X142377291Y-70098627D01*
X142382880Y-70117867D01*
X142386824Y-70136911D01*
X142389336Y-70156791D01*
X142406490Y-70200119D01*
X142408382Y-70205647D01*
X142421381Y-70250388D01*
X142431580Y-70267634D01*
X142440138Y-70285103D01*
X142447514Y-70303732D01*
X142474898Y-70341423D01*
X142478106Y-70346307D01*
X142501827Y-70386416D01*
X142501833Y-70386424D01*
X142515990Y-70400580D01*
X142528628Y-70415376D01*
X142540405Y-70431586D01*
X142540406Y-70431587D01*
X142576309Y-70461288D01*
X142580620Y-70465210D01*
X142677150Y-70561740D01*
X142811038Y-70695629D01*
X142844523Y-70756952D01*
X142846678Y-70770348D01*
X142854968Y-70849227D01*
X142864326Y-70938256D01*
X142864327Y-70938259D01*
X142922818Y-71118277D01*
X142922821Y-71118284D01*
X143017467Y-71282216D01*
X143144129Y-71422888D01*
X143297265Y-71534148D01*
X143297270Y-71534151D01*
X143470192Y-71611142D01*
X143470197Y-71611144D01*
X143655354Y-71650500D01*
X143655355Y-71650500D01*
X143844644Y-71650500D01*
X143844646Y-71650500D01*
X144029803Y-71611144D01*
X144202730Y-71534151D01*
X144355871Y-71422888D01*
X144482533Y-71282216D01*
X144577179Y-71118284D01*
X144615610Y-71000005D01*
X161594556Y-71000005D01*
X161614310Y-71314004D01*
X161614311Y-71314011D01*
X161673270Y-71623083D01*
X161770497Y-71922316D01*
X161770499Y-71922321D01*
X161904461Y-72207003D01*
X161904464Y-72207009D01*
X162073051Y-72472661D01*
X162073054Y-72472665D01*
X162273606Y-72715090D01*
X162273608Y-72715092D01*
X162502968Y-72930476D01*
X162502978Y-72930484D01*
X162757504Y-73115408D01*
X162757509Y-73115410D01*
X162757516Y-73115416D01*
X163033234Y-73266994D01*
X163033239Y-73266996D01*
X163033241Y-73266997D01*
X163033242Y-73266998D01*
X163325771Y-73382818D01*
X163325774Y-73382819D01*
X163630523Y-73461065D01*
X163630527Y-73461066D01*
X163696010Y-73469338D01*
X163942670Y-73500499D01*
X163942679Y-73500499D01*
X163942682Y-73500500D01*
X163942684Y-73500500D01*
X164257316Y-73500500D01*
X164257318Y-73500500D01*
X164257321Y-73500499D01*
X164257329Y-73500499D01*
X164443593Y-73476968D01*
X164569473Y-73461066D01*
X164874225Y-73382819D01*
X164874228Y-73382818D01*
X165166757Y-73266998D01*
X165166758Y-73266997D01*
X165166756Y-73266997D01*
X165166766Y-73266994D01*
X165442484Y-73115416D01*
X165697030Y-72930478D01*
X165926390Y-72715094D01*
X166126947Y-72472663D01*
X166295537Y-72207007D01*
X166429503Y-71922315D01*
X166526731Y-71623079D01*
X166585688Y-71314015D01*
X166587689Y-71282214D01*
X166605444Y-71000005D01*
X170394556Y-71000005D01*
X170414310Y-71314004D01*
X170414311Y-71314011D01*
X170473270Y-71623083D01*
X170570497Y-71922316D01*
X170570499Y-71922321D01*
X170704461Y-72207003D01*
X170704464Y-72207009D01*
X170873051Y-72472661D01*
X170873054Y-72472665D01*
X171073606Y-72715090D01*
X171073608Y-72715092D01*
X171302968Y-72930476D01*
X171302978Y-72930484D01*
X171557504Y-73115408D01*
X171557509Y-73115410D01*
X171557516Y-73115416D01*
X171833234Y-73266994D01*
X171833239Y-73266996D01*
X171833241Y-73266997D01*
X171833242Y-73266998D01*
X172125771Y-73382818D01*
X172125774Y-73382819D01*
X172430523Y-73461065D01*
X172430527Y-73461066D01*
X172496010Y-73469338D01*
X172742670Y-73500499D01*
X172742679Y-73500499D01*
X172742682Y-73500500D01*
X172742684Y-73500500D01*
X173057316Y-73500500D01*
X173057318Y-73500500D01*
X173057321Y-73500499D01*
X173057329Y-73500499D01*
X173243593Y-73476968D01*
X173369473Y-73461066D01*
X173674225Y-73382819D01*
X173674228Y-73382818D01*
X173966757Y-73266998D01*
X173966758Y-73266997D01*
X173966756Y-73266997D01*
X173966766Y-73266994D01*
X174242484Y-73115416D01*
X174497030Y-72930478D01*
X174726390Y-72715094D01*
X174926947Y-72472663D01*
X175095537Y-72207007D01*
X175229503Y-71922315D01*
X175326731Y-71623079D01*
X175385688Y-71314015D01*
X175387689Y-71282214D01*
X175405444Y-71000005D01*
X175405444Y-70999994D01*
X175385689Y-70685995D01*
X175385688Y-70685988D01*
X175385688Y-70685985D01*
X175326731Y-70376921D01*
X175229503Y-70077685D01*
X175209017Y-70034151D01*
X175095538Y-69792996D01*
X175095537Y-69792993D01*
X174926947Y-69527337D01*
X174926945Y-69527334D01*
X174726393Y-69284909D01*
X174726391Y-69284907D01*
X174497031Y-69069523D01*
X174497021Y-69069515D01*
X174242495Y-68884591D01*
X174242488Y-68884586D01*
X174242484Y-68884584D01*
X173966766Y-68733006D01*
X173966763Y-68733004D01*
X173966758Y-68733002D01*
X173966757Y-68733001D01*
X173674228Y-68617181D01*
X173674225Y-68617180D01*
X173369476Y-68538934D01*
X173369463Y-68538932D01*
X173057329Y-68499500D01*
X173057318Y-68499500D01*
X172742682Y-68499500D01*
X172742670Y-68499500D01*
X172430536Y-68538932D01*
X172430523Y-68538934D01*
X172125774Y-68617180D01*
X172125771Y-68617181D01*
X171833242Y-68733001D01*
X171833241Y-68733002D01*
X171557516Y-68884584D01*
X171557504Y-68884591D01*
X171302978Y-69069515D01*
X171302968Y-69069523D01*
X171073608Y-69284907D01*
X171073606Y-69284909D01*
X170873054Y-69527334D01*
X170873051Y-69527338D01*
X170704464Y-69792990D01*
X170704461Y-69792996D01*
X170570499Y-70077678D01*
X170570497Y-70077683D01*
X170473270Y-70376916D01*
X170473269Y-70376920D01*
X170473269Y-70376921D01*
X170472354Y-70381716D01*
X170414311Y-70685988D01*
X170414310Y-70685995D01*
X170394556Y-70999994D01*
X170394556Y-71000005D01*
X166605444Y-71000005D01*
X166605444Y-70999994D01*
X166585689Y-70685995D01*
X166585688Y-70685988D01*
X166585688Y-70685985D01*
X166526731Y-70376921D01*
X166429503Y-70077685D01*
X166409017Y-70034151D01*
X166295538Y-69792996D01*
X166295537Y-69792993D01*
X166126947Y-69527337D01*
X166126945Y-69527334D01*
X165926393Y-69284909D01*
X165926391Y-69284907D01*
X165697031Y-69069523D01*
X165697021Y-69069515D01*
X165442495Y-68884591D01*
X165442488Y-68884586D01*
X165442484Y-68884584D01*
X165166766Y-68733006D01*
X165166763Y-68733004D01*
X165166758Y-68733002D01*
X165166757Y-68733001D01*
X164874228Y-68617181D01*
X164874225Y-68617180D01*
X164569476Y-68538934D01*
X164569463Y-68538932D01*
X164257329Y-68499500D01*
X164257318Y-68499500D01*
X163942682Y-68499500D01*
X163942670Y-68499500D01*
X163630536Y-68538932D01*
X163630523Y-68538934D01*
X163325774Y-68617180D01*
X163325771Y-68617181D01*
X163033242Y-68733001D01*
X163033241Y-68733002D01*
X162757516Y-68884584D01*
X162757504Y-68884591D01*
X162502978Y-69069515D01*
X162502968Y-69069523D01*
X162273608Y-69284907D01*
X162273606Y-69284909D01*
X162073054Y-69527334D01*
X162073051Y-69527338D01*
X161904464Y-69792990D01*
X161904461Y-69792996D01*
X161770499Y-70077678D01*
X161770497Y-70077683D01*
X161673270Y-70376916D01*
X161673269Y-70376920D01*
X161673269Y-70376921D01*
X161672354Y-70381716D01*
X161614311Y-70685988D01*
X161614310Y-70685995D01*
X161594556Y-70999994D01*
X161594556Y-71000005D01*
X144615610Y-71000005D01*
X144635674Y-70938256D01*
X144655460Y-70750000D01*
X144635674Y-70561744D01*
X144577179Y-70381716D01*
X144512077Y-70268957D01*
X144495605Y-70201058D01*
X144518458Y-70135031D01*
X144569028Y-70093679D01*
X144702730Y-70034151D01*
X144855871Y-69922888D01*
X144982533Y-69782216D01*
X145077179Y-69618284D01*
X145135674Y-69438256D01*
X145155460Y-69250000D01*
X145135674Y-69061744D01*
X145082438Y-68897901D01*
X145080443Y-68828060D01*
X145112689Y-68771901D01*
X145222774Y-68661818D01*
X145284097Y-68628334D01*
X145310454Y-68625500D01*
X157017601Y-68625500D01*
X157033221Y-68627224D01*
X157033248Y-68626939D01*
X157041004Y-68627671D01*
X157041011Y-68627673D01*
X157110158Y-68625500D01*
X157139694Y-68625500D01*
X157146572Y-68624630D01*
X157152385Y-68624172D01*
X157198971Y-68622709D01*
X157218213Y-68617117D01*
X157237256Y-68613174D01*
X157257136Y-68610664D01*
X157300466Y-68593507D01*
X157305990Y-68591617D01*
X157309740Y-68590527D01*
X157350734Y-68578618D01*
X157367973Y-68568422D01*
X157385447Y-68559862D01*
X157404071Y-68552488D01*
X157404071Y-68552487D01*
X157404076Y-68552486D01*
X157441793Y-68525082D01*
X157446649Y-68521892D01*
X157486764Y-68498170D01*
X157500933Y-68483999D01*
X157515723Y-68471368D01*
X157531931Y-68459594D01*
X157561643Y-68423676D01*
X157565556Y-68419376D01*
X162413788Y-63571145D01*
X162426042Y-63561330D01*
X162425859Y-63561108D01*
X162431867Y-63556136D01*
X162431877Y-63556130D01*
X162463003Y-63522983D01*
X162500986Y-63495487D01*
X162707830Y-63399035D01*
X162901401Y-63263495D01*
X163068495Y-63096401D01*
X163198426Y-62910841D01*
X163253002Y-62867217D01*
X163322500Y-62860023D01*
X163384855Y-62891546D01*
X163401575Y-62910842D01*
X163531281Y-63096082D01*
X163531505Y-63096401D01*
X163698599Y-63263495D01*
X163782397Y-63322171D01*
X163892165Y-63399032D01*
X163892167Y-63399033D01*
X163892170Y-63399035D01*
X164106337Y-63498903D01*
X164106343Y-63498904D01*
X164106344Y-63498905D01*
X164131734Y-63505708D01*
X164334592Y-63560063D01*
X164511034Y-63575500D01*
X164569999Y-63580659D01*
X164570000Y-63580659D01*
X164570001Y-63580659D01*
X164628966Y-63575500D01*
X164805408Y-63560063D01*
X165033663Y-63498903D01*
X165247830Y-63399035D01*
X165441401Y-63263495D01*
X165608495Y-63096401D01*
X165738730Y-62910405D01*
X165793307Y-62866781D01*
X165862805Y-62859587D01*
X165925160Y-62891110D01*
X165941879Y-62910405D01*
X166071890Y-63096078D01*
X166238917Y-63263105D01*
X166432421Y-63398600D01*
X166646507Y-63498429D01*
X166646516Y-63498433D01*
X166860000Y-63555634D01*
X166860000Y-62660501D01*
X166967685Y-62709680D01*
X167074237Y-62725000D01*
X167145763Y-62725000D01*
X167252315Y-62709680D01*
X167360000Y-62660501D01*
X167360000Y-63555633D01*
X167573483Y-63498433D01*
X167573492Y-63498429D01*
X167787578Y-63398600D01*
X167981082Y-63263105D01*
X168148105Y-63096082D01*
X168283600Y-62902578D01*
X168383429Y-62688492D01*
X168383432Y-62688486D01*
X168440636Y-62475000D01*
X167543686Y-62475000D01*
X167569493Y-62434844D01*
X167610000Y-62296889D01*
X167610000Y-62153111D01*
X167569493Y-62015156D01*
X167543686Y-61975000D01*
X168440636Y-61975000D01*
X168440635Y-61974999D01*
X168383432Y-61761513D01*
X168383429Y-61761507D01*
X168293085Y-61567763D01*
X177645787Y-61567763D01*
X177675413Y-61837013D01*
X177675415Y-61837024D01*
X177711487Y-61975000D01*
X177743928Y-62099088D01*
X177849870Y-62348390D01*
X177976450Y-62555798D01*
X177990979Y-62579605D01*
X177990986Y-62579615D01*
X178164253Y-62787819D01*
X178164259Y-62787824D01*
X178301555Y-62910841D01*
X178365998Y-62968582D01*
X178591910Y-63118044D01*
X178837176Y-63233020D01*
X178837183Y-63233022D01*
X178837185Y-63233023D01*
X179096557Y-63311057D01*
X179096564Y-63311058D01*
X179096569Y-63311060D01*
X179364561Y-63350500D01*
X179364566Y-63350500D01*
X179567636Y-63350500D01*
X179619133Y-63346730D01*
X179770156Y-63335677D01*
X179882758Y-63310593D01*
X180034546Y-63276782D01*
X180034548Y-63276781D01*
X180034553Y-63276780D01*
X180287558Y-63180014D01*
X180523777Y-63047441D01*
X180738177Y-62881888D01*
X180926186Y-62686881D01*
X181083799Y-62466579D01*
X181157787Y-62322669D01*
X181207649Y-62225690D01*
X181207651Y-62225684D01*
X181207656Y-62225675D01*
X181293175Y-61975000D01*
X181295115Y-61969314D01*
X181295115Y-61969313D01*
X181295118Y-61969305D01*
X181344319Y-61702933D01*
X181354212Y-61432235D01*
X181324586Y-61162982D01*
X181256072Y-60900912D01*
X181150130Y-60651610D01*
X181009018Y-60420390D01*
X181007845Y-60418981D01*
X180835746Y-60212180D01*
X180835740Y-60212175D01*
X180634002Y-60031418D01*
X180408092Y-59881957D01*
X180408090Y-59881956D01*
X180162824Y-59766980D01*
X180162819Y-59766978D01*
X180162814Y-59766976D01*
X179903442Y-59688942D01*
X179903428Y-59688939D01*
X179787791Y-59671921D01*
X179635439Y-59649500D01*
X179432369Y-59649500D01*
X179432364Y-59649500D01*
X179229844Y-59664323D01*
X179229831Y-59664325D01*
X178965453Y-59723217D01*
X178965446Y-59723220D01*
X178712439Y-59819987D01*
X178476226Y-59952557D01*
X178476224Y-59952558D01*
X178476223Y-59952559D01*
X178413893Y-60000688D01*
X178261822Y-60118112D01*
X178073822Y-60313109D01*
X178073816Y-60313116D01*
X177916202Y-60533419D01*
X177916199Y-60533424D01*
X177792350Y-60774309D01*
X177792343Y-60774327D01*
X177704884Y-61030685D01*
X177704881Y-61030699D01*
X177655681Y-61297068D01*
X177655680Y-61297075D01*
X177645787Y-61567763D01*
X168293085Y-61567763D01*
X168283600Y-61547422D01*
X168283599Y-61547420D01*
X168148113Y-61353926D01*
X168148108Y-61353920D01*
X167981082Y-61186894D01*
X167787578Y-61051399D01*
X167573492Y-60951570D01*
X167573486Y-60951567D01*
X167360000Y-60894364D01*
X167360000Y-61789498D01*
X167252315Y-61740320D01*
X167145763Y-61725000D01*
X167074237Y-61725000D01*
X166967685Y-61740320D01*
X166860000Y-61789498D01*
X166860000Y-60894364D01*
X166859999Y-60894364D01*
X166646513Y-60951567D01*
X166646507Y-60951570D01*
X166432422Y-61051399D01*
X166432420Y-61051400D01*
X166238926Y-61186886D01*
X166238920Y-61186891D01*
X166071891Y-61353920D01*
X166071890Y-61353922D01*
X165941880Y-61539595D01*
X165887303Y-61583219D01*
X165817804Y-61590412D01*
X165755450Y-61558890D01*
X165738730Y-61539594D01*
X165608494Y-61353597D01*
X165441402Y-61186506D01*
X165441395Y-61186501D01*
X165247834Y-61050967D01*
X165247830Y-61050965D01*
X165247828Y-61050964D01*
X165033663Y-60951097D01*
X165033659Y-60951096D01*
X165033655Y-60951094D01*
X164805413Y-60889938D01*
X164805403Y-60889936D01*
X164570001Y-60869341D01*
X164569999Y-60869341D01*
X164334596Y-60889936D01*
X164334586Y-60889938D01*
X164106344Y-60951094D01*
X164106335Y-60951098D01*
X163892171Y-61050964D01*
X163892169Y-61050965D01*
X163698597Y-61186505D01*
X163531505Y-61353597D01*
X163401575Y-61539158D01*
X163346998Y-61582783D01*
X163277500Y-61589977D01*
X163215145Y-61558454D01*
X163198425Y-61539158D01*
X163068494Y-61353597D01*
X162901402Y-61186506D01*
X162901395Y-61186501D01*
X162707834Y-61050967D01*
X162707830Y-61050965D01*
X162707828Y-61050964D01*
X162493663Y-60951097D01*
X162493659Y-60951096D01*
X162493655Y-60951094D01*
X162265413Y-60889938D01*
X162265403Y-60889936D01*
X162030001Y-60869341D01*
X162029999Y-60869341D01*
X161794596Y-60889936D01*
X161794586Y-60889938D01*
X161566344Y-60951094D01*
X161566335Y-60951098D01*
X161352171Y-61050964D01*
X161352169Y-61050965D01*
X161158597Y-61186505D01*
X160991505Y-61353597D01*
X160861575Y-61539158D01*
X160806998Y-61582783D01*
X160737500Y-61589977D01*
X160675145Y-61558454D01*
X160658425Y-61539158D01*
X160528494Y-61353597D01*
X160361402Y-61186506D01*
X160361395Y-61186501D01*
X160167834Y-61050967D01*
X160167830Y-61050965D01*
X160167828Y-61050964D01*
X159953663Y-60951097D01*
X159953659Y-60951096D01*
X159953655Y-60951094D01*
X159725413Y-60889938D01*
X159725403Y-60889936D01*
X159490001Y-60869341D01*
X159489999Y-60869341D01*
X159254596Y-60889936D01*
X159254586Y-60889938D01*
X159026344Y-60951094D01*
X159026335Y-60951098D01*
X158812171Y-61050964D01*
X158812169Y-61050965D01*
X158618600Y-61186503D01*
X158496673Y-61308430D01*
X158435350Y-61341914D01*
X158365658Y-61336930D01*
X158309725Y-61295058D01*
X158292810Y-61264081D01*
X158243797Y-61132671D01*
X158243793Y-61132664D01*
X158157547Y-61017455D01*
X158157544Y-61017452D01*
X158042335Y-60931206D01*
X158042328Y-60931202D01*
X157907482Y-60880908D01*
X157907483Y-60880908D01*
X157847883Y-60874501D01*
X157847881Y-60874500D01*
X157847873Y-60874500D01*
X157847864Y-60874500D01*
X156052129Y-60874500D01*
X156052123Y-60874501D01*
X155992516Y-60880908D01*
X155857671Y-60931202D01*
X155857664Y-60931206D01*
X155742455Y-61017452D01*
X155742452Y-61017455D01*
X155656206Y-61132664D01*
X155656202Y-61132671D01*
X155605908Y-61267517D01*
X155599501Y-61327116D01*
X155599500Y-61327135D01*
X155599500Y-63122870D01*
X155599501Y-63122876D01*
X155605908Y-63182483D01*
X155656202Y-63317328D01*
X155656206Y-63317335D01*
X155742452Y-63432544D01*
X155742455Y-63432547D01*
X155857664Y-63518793D01*
X155857671Y-63518797D01*
X155992517Y-63569091D01*
X155992516Y-63569091D01*
X155999444Y-63569835D01*
X156052127Y-63575500D01*
X157847872Y-63575499D01*
X157907483Y-63569091D01*
X158042331Y-63518796D01*
X158157546Y-63432546D01*
X158243796Y-63317331D01*
X158292810Y-63185916D01*
X158334681Y-63129984D01*
X158400145Y-63105566D01*
X158468418Y-63120417D01*
X158496673Y-63141569D01*
X158618597Y-63263493D01*
X158618603Y-63263498D01*
X158637572Y-63276780D01*
X158811624Y-63398653D01*
X158855248Y-63453228D01*
X158864500Y-63500226D01*
X158864500Y-63949547D01*
X158844815Y-64016586D01*
X158828181Y-64037228D01*
X156527228Y-66338181D01*
X156465905Y-66371666D01*
X156439547Y-66374500D01*
X144582737Y-66374500D01*
X144567120Y-66372776D01*
X144567093Y-66373062D01*
X144559331Y-66372327D01*
X144490203Y-66374500D01*
X144460650Y-66374500D01*
X144459929Y-66374590D01*
X144453757Y-66375369D01*
X144447945Y-66375826D01*
X144401378Y-66377290D01*
X144401367Y-66377292D01*
X144382134Y-66382879D01*
X144363094Y-66386822D01*
X144343217Y-66389334D01*
X144343210Y-66389335D01*
X144343208Y-66389336D01*
X144343206Y-66389336D01*
X144343205Y-66389337D01*
X144299868Y-66406494D01*
X144294342Y-66408386D01*
X144249611Y-66421382D01*
X144249608Y-66421383D01*
X144232363Y-66431581D01*
X144214901Y-66440135D01*
X144196272Y-66447511D01*
X144196267Y-66447513D01*
X144158564Y-66474906D01*
X144153682Y-66478112D01*
X144113580Y-66501828D01*
X144099408Y-66516000D01*
X144084623Y-66528628D01*
X144068412Y-66540407D01*
X144038709Y-66576310D01*
X144034777Y-66580631D01*
X142616208Y-67999199D01*
X142603951Y-68009020D01*
X142604134Y-68009241D01*
X142598123Y-68014213D01*
X142550772Y-68064636D01*
X142529889Y-68085519D01*
X142529877Y-68085532D01*
X142525621Y-68091017D01*
X142521837Y-68095447D01*
X142489937Y-68129418D01*
X142489936Y-68129420D01*
X142480284Y-68146976D01*
X142469610Y-68163226D01*
X142457329Y-68179061D01*
X142457324Y-68179068D01*
X142438815Y-68221838D01*
X142436245Y-68227084D01*
X142413803Y-68267906D01*
X142408822Y-68287307D01*
X142402521Y-68305710D01*
X142394562Y-68324102D01*
X142394561Y-68324105D01*
X142387271Y-68370127D01*
X142386087Y-68375846D01*
X142374501Y-68420972D01*
X142374500Y-68420982D01*
X142374500Y-68441016D01*
X142372973Y-68460415D01*
X142369840Y-68480194D01*
X142369840Y-68480195D01*
X141110864Y-68480195D01*
X141238177Y-68381888D01*
X141426186Y-68186881D01*
X141583799Y-67966579D01*
X141657787Y-67822669D01*
X141707649Y-67725690D01*
X141707651Y-67725684D01*
X141707656Y-67725675D01*
X141795118Y-67469305D01*
X141844319Y-67202933D01*
X141854212Y-66932235D01*
X141824586Y-66662982D01*
X141756072Y-66400912D01*
X141650130Y-66151610D01*
X141509018Y-65920390D01*
X141419747Y-65813119D01*
X141335746Y-65712180D01*
X141335740Y-65712175D01*
X141134002Y-65531418D01*
X140908092Y-65381957D01*
X140840984Y-65350498D01*
X140662824Y-65266980D01*
X140662819Y-65266978D01*
X140662814Y-65266976D01*
X140403442Y-65188942D01*
X140403428Y-65188939D01*
X140287791Y-65171921D01*
X140135439Y-65149500D01*
X139932369Y-65149500D01*
X139932364Y-65149500D01*
X139729844Y-65164323D01*
X139729831Y-65164325D01*
X139465453Y-65223217D01*
X139465446Y-65223220D01*
X139212439Y-65319987D01*
X138976226Y-65452557D01*
X138761822Y-65618112D01*
X138573822Y-65813109D01*
X138573816Y-65813116D01*
X138416202Y-66033419D01*
X138416199Y-66033424D01*
X138292350Y-66274309D01*
X138292343Y-66274327D01*
X138204884Y-66530685D01*
X138204881Y-66530699D01*
X138155681Y-66797068D01*
X138155680Y-66797075D01*
X138145787Y-67067763D01*
X97000500Y-67067763D01*
X97000500Y-64250000D01*
X127589364Y-64250000D01*
X127646567Y-64463486D01*
X127646570Y-64463492D01*
X127746399Y-64677578D01*
X127881894Y-64871082D01*
X128048917Y-65038105D01*
X128242421Y-65173600D01*
X128456507Y-65273429D01*
X128456516Y-65273433D01*
X128670000Y-65330634D01*
X128670000Y-64435501D01*
X128777685Y-64484680D01*
X128884237Y-64500000D01*
X128955763Y-64500000D01*
X129062315Y-64484680D01*
X129170000Y-64435501D01*
X129170000Y-65330633D01*
X129383483Y-65273433D01*
X129383492Y-65273429D01*
X129597578Y-65173600D01*
X129791082Y-65038105D01*
X129958105Y-64871082D01*
X130088119Y-64685405D01*
X130142696Y-64641781D01*
X130212195Y-64634588D01*
X130274549Y-64666110D01*
X130291269Y-64685405D01*
X130421505Y-64871401D01*
X130588599Y-65038495D01*
X130685384Y-65106265D01*
X130782165Y-65174032D01*
X130782167Y-65174033D01*
X130782170Y-65174035D01*
X130996337Y-65273903D01*
X131224592Y-65335063D01*
X131401034Y-65350500D01*
X131459999Y-65355659D01*
X131460000Y-65355659D01*
X131460001Y-65355659D01*
X131518966Y-65350500D01*
X131695408Y-65335063D01*
X131923663Y-65273903D01*
X132137830Y-65174035D01*
X132331401Y-65038495D01*
X132453329Y-64916566D01*
X132514648Y-64883084D01*
X132584340Y-64888068D01*
X132640274Y-64929939D01*
X132657189Y-64960917D01*
X132706202Y-65092328D01*
X132706206Y-65092335D01*
X132792452Y-65207544D01*
X132792455Y-65207547D01*
X132907664Y-65293793D01*
X132907671Y-65293797D01*
X133042517Y-65344091D01*
X133042516Y-65344091D01*
X133049444Y-65344835D01*
X133102127Y-65350500D01*
X134897872Y-65350499D01*
X134957483Y-65344091D01*
X135092331Y-65293796D01*
X135207546Y-65207546D01*
X135293796Y-65092331D01*
X135344091Y-64957483D01*
X135350500Y-64897873D01*
X135350500Y-64250000D01*
X144669364Y-64250000D01*
X144726567Y-64463486D01*
X144726570Y-64463492D01*
X144826399Y-64677578D01*
X144961894Y-64871082D01*
X145128917Y-65038105D01*
X145322421Y-65173600D01*
X145536507Y-65273429D01*
X145536516Y-65273433D01*
X145750000Y-65330634D01*
X145750000Y-64435501D01*
X145857685Y-64484680D01*
X145964237Y-64500000D01*
X146035763Y-64500000D01*
X146142315Y-64484680D01*
X146250000Y-64435501D01*
X146250000Y-65330633D01*
X146463483Y-65273433D01*
X146463492Y-65273429D01*
X146677578Y-65173600D01*
X146871082Y-65038105D01*
X147038105Y-64871082D01*
X147168119Y-64685405D01*
X147222696Y-64641781D01*
X147292195Y-64634588D01*
X147354549Y-64666110D01*
X147371269Y-64685405D01*
X147501505Y-64871401D01*
X147668599Y-65038495D01*
X147765384Y-65106265D01*
X147862165Y-65174032D01*
X147862167Y-65174033D01*
X147862170Y-65174035D01*
X148076337Y-65273903D01*
X148304592Y-65335063D01*
X148481034Y-65350500D01*
X148539999Y-65355659D01*
X148540000Y-65355659D01*
X148540001Y-65355659D01*
X148598966Y-65350500D01*
X148775408Y-65335063D01*
X149003663Y-65273903D01*
X149217830Y-65174035D01*
X149411401Y-65038495D01*
X149533329Y-64916566D01*
X149594648Y-64883084D01*
X149664340Y-64888068D01*
X149720274Y-64929939D01*
X149737189Y-64960917D01*
X149786202Y-65092328D01*
X149786206Y-65092335D01*
X149872452Y-65207544D01*
X149872455Y-65207547D01*
X149987664Y-65293793D01*
X149987671Y-65293797D01*
X150122517Y-65344091D01*
X150122516Y-65344091D01*
X150129444Y-65344835D01*
X150182127Y-65350500D01*
X151977872Y-65350499D01*
X152037483Y-65344091D01*
X152172331Y-65293796D01*
X152287546Y-65207546D01*
X152373796Y-65092331D01*
X152424091Y-64957483D01*
X152430500Y-64897873D01*
X152430499Y-63102128D01*
X152424091Y-63042517D01*
X152422810Y-63039083D01*
X152373797Y-62907671D01*
X152373793Y-62907664D01*
X152287547Y-62792455D01*
X152287544Y-62792452D01*
X152172335Y-62706206D01*
X152172328Y-62706202D01*
X152037482Y-62655908D01*
X152037483Y-62655908D01*
X151977883Y-62649501D01*
X151977881Y-62649500D01*
X151977873Y-62649500D01*
X151977864Y-62649500D01*
X150182129Y-62649500D01*
X150182123Y-62649501D01*
X150122516Y-62655908D01*
X149987671Y-62706202D01*
X149987664Y-62706206D01*
X149872455Y-62792452D01*
X149872452Y-62792455D01*
X149786206Y-62907664D01*
X149786203Y-62907669D01*
X149737189Y-63039083D01*
X149695317Y-63095016D01*
X149629853Y-63119433D01*
X149561580Y-63104581D01*
X149533326Y-63083430D01*
X149411402Y-62961506D01*
X149411395Y-62961501D01*
X149217834Y-62825967D01*
X149217830Y-62825965D01*
X149217828Y-62825964D01*
X149003663Y-62726097D01*
X149003659Y-62726096D01*
X149003655Y-62726094D01*
X148775413Y-62664938D01*
X148775403Y-62664936D01*
X148540001Y-62644341D01*
X148539999Y-62644341D01*
X148304596Y-62664936D01*
X148304586Y-62664938D01*
X148076344Y-62726094D01*
X148076335Y-62726098D01*
X147862171Y-62825964D01*
X147862169Y-62825965D01*
X147668597Y-62961505D01*
X147501508Y-63128594D01*
X147371269Y-63314595D01*
X147316692Y-63358219D01*
X147247193Y-63365412D01*
X147184839Y-63333890D01*
X147168119Y-63314594D01*
X147038113Y-63128926D01*
X147038108Y-63128920D01*
X146871082Y-62961894D01*
X146677578Y-62826399D01*
X146463492Y-62726570D01*
X146463486Y-62726567D01*
X146250000Y-62669364D01*
X146250000Y-63564498D01*
X146142315Y-63515320D01*
X146035763Y-63500000D01*
X145964237Y-63500000D01*
X145857685Y-63515320D01*
X145750000Y-63564498D01*
X145750000Y-62669364D01*
X145749999Y-62669364D01*
X145536513Y-62726567D01*
X145536507Y-62726570D01*
X145322422Y-62826399D01*
X145322420Y-62826400D01*
X145128926Y-62961886D01*
X145128920Y-62961891D01*
X144961891Y-63128920D01*
X144961886Y-63128926D01*
X144826400Y-63322420D01*
X144826399Y-63322422D01*
X144726570Y-63536507D01*
X144726567Y-63536513D01*
X144669364Y-63749999D01*
X144669364Y-63750000D01*
X145566314Y-63750000D01*
X145540507Y-63790156D01*
X145500000Y-63928111D01*
X145500000Y-64071889D01*
X145540507Y-64209844D01*
X145566314Y-64250000D01*
X144669364Y-64250000D01*
X135350500Y-64250000D01*
X135350499Y-63102128D01*
X135344091Y-63042517D01*
X135342810Y-63039083D01*
X135293797Y-62907671D01*
X135293793Y-62907664D01*
X135207547Y-62792455D01*
X135207544Y-62792452D01*
X135092335Y-62706206D01*
X135092328Y-62706202D01*
X134957482Y-62655908D01*
X134957483Y-62655908D01*
X134897883Y-62649501D01*
X134897881Y-62649500D01*
X134897873Y-62649500D01*
X134897864Y-62649500D01*
X133102129Y-62649500D01*
X133102123Y-62649501D01*
X133042516Y-62655908D01*
X132907671Y-62706202D01*
X132907664Y-62706206D01*
X132792455Y-62792452D01*
X132792452Y-62792455D01*
X132706206Y-62907664D01*
X132706203Y-62907669D01*
X132657189Y-63039083D01*
X132615317Y-63095016D01*
X132549853Y-63119433D01*
X132481580Y-63104581D01*
X132453326Y-63083430D01*
X132331402Y-62961506D01*
X132331395Y-62961501D01*
X132137834Y-62825967D01*
X132137830Y-62825965D01*
X132137828Y-62825964D01*
X131923663Y-62726097D01*
X131923659Y-62726096D01*
X131923655Y-62726094D01*
X131695413Y-62664938D01*
X131695403Y-62664936D01*
X131460001Y-62644341D01*
X131459999Y-62644341D01*
X131224596Y-62664936D01*
X131224586Y-62664938D01*
X130996344Y-62726094D01*
X130996335Y-62726098D01*
X130782171Y-62825964D01*
X130782169Y-62825965D01*
X130588597Y-62961505D01*
X130421508Y-63128594D01*
X130291269Y-63314595D01*
X130236692Y-63358219D01*
X130167193Y-63365412D01*
X130104839Y-63333890D01*
X130088119Y-63314594D01*
X129958113Y-63128926D01*
X129958108Y-63128920D01*
X129791082Y-62961894D01*
X129597578Y-62826399D01*
X129383492Y-62726570D01*
X129383486Y-62726567D01*
X129170000Y-62669364D01*
X129170000Y-63564498D01*
X129062315Y-63515320D01*
X128955763Y-63500000D01*
X128884237Y-63500000D01*
X128777685Y-63515320D01*
X128670000Y-63564498D01*
X128670000Y-62669364D01*
X128669999Y-62669364D01*
X128456513Y-62726567D01*
X128456507Y-62726570D01*
X128242422Y-62826399D01*
X128242420Y-62826400D01*
X128048926Y-62961886D01*
X128048920Y-62961891D01*
X127881891Y-63128920D01*
X127881886Y-63128926D01*
X127746400Y-63322420D01*
X127746399Y-63322422D01*
X127646570Y-63536507D01*
X127646567Y-63536513D01*
X127589364Y-63749999D01*
X127589364Y-63750000D01*
X128486314Y-63750000D01*
X128460507Y-63790156D01*
X128420000Y-63928111D01*
X128420000Y-64071889D01*
X128460507Y-64209844D01*
X128486314Y-64250000D01*
X127589364Y-64250000D01*
X97000500Y-64250000D01*
X97000500Y-61567763D01*
X98645787Y-61567763D01*
X98675413Y-61837013D01*
X98675415Y-61837024D01*
X98711487Y-61975000D01*
X98743928Y-62099088D01*
X98849870Y-62348390D01*
X98976450Y-62555798D01*
X98990979Y-62579605D01*
X98990986Y-62579615D01*
X99164253Y-62787819D01*
X99164259Y-62787824D01*
X99301555Y-62910841D01*
X99365998Y-62968582D01*
X99591910Y-63118044D01*
X99837176Y-63233020D01*
X99837183Y-63233022D01*
X99837185Y-63233023D01*
X100096557Y-63311057D01*
X100096564Y-63311058D01*
X100096569Y-63311060D01*
X100364561Y-63350500D01*
X100364566Y-63350500D01*
X100567636Y-63350500D01*
X100619133Y-63346730D01*
X100770156Y-63335677D01*
X100882758Y-63310593D01*
X101034546Y-63276782D01*
X101034548Y-63276781D01*
X101034553Y-63276780D01*
X101287558Y-63180014D01*
X101523777Y-63047441D01*
X101738177Y-62881888D01*
X101926186Y-62686881D01*
X102083799Y-62466579D01*
X102157787Y-62322669D01*
X102207649Y-62225690D01*
X102207651Y-62225684D01*
X102207656Y-62225675D01*
X102293175Y-61975000D01*
X102295115Y-61969314D01*
X102295115Y-61969313D01*
X102295118Y-61969305D01*
X102344319Y-61702933D01*
X102354212Y-61432235D01*
X102324586Y-61162982D01*
X102256072Y-60900912D01*
X102150130Y-60651610D01*
X102009018Y-60420390D01*
X102007845Y-60418981D01*
X101835746Y-60212180D01*
X101835740Y-60212175D01*
X101634002Y-60031418D01*
X101408092Y-59881957D01*
X101408090Y-59881956D01*
X101162824Y-59766980D01*
X101162819Y-59766978D01*
X101162814Y-59766976D01*
X100903442Y-59688942D01*
X100903428Y-59688939D01*
X100787791Y-59671921D01*
X100635439Y-59649500D01*
X100432369Y-59649500D01*
X100432364Y-59649500D01*
X100229844Y-59664323D01*
X100229831Y-59664325D01*
X99965453Y-59723217D01*
X99965446Y-59723220D01*
X99712439Y-59819987D01*
X99476226Y-59952557D01*
X99476224Y-59952558D01*
X99476223Y-59952559D01*
X99413893Y-60000688D01*
X99261822Y-60118112D01*
X99073822Y-60313109D01*
X99073816Y-60313116D01*
X98916202Y-60533419D01*
X98916199Y-60533424D01*
X98792350Y-60774309D01*
X98792343Y-60774327D01*
X98704884Y-61030685D01*
X98704881Y-61030699D01*
X98655681Y-61297068D01*
X98655680Y-61297075D01*
X98645787Y-61567763D01*
X97000500Y-61567763D01*
X97000500Y-61501528D01*
X97000575Y-61498486D01*
X97003829Y-61432235D01*
X97007995Y-61347421D01*
X97018164Y-61153388D01*
X97018744Y-61147594D01*
X97043858Y-60978287D01*
X97071717Y-60802396D01*
X97072801Y-60797083D01*
X97115210Y-60627776D01*
X97160529Y-60458644D01*
X97162013Y-60453891D01*
X97221338Y-60288089D01*
X97283668Y-60125717D01*
X97285492Y-60121455D01*
X97287073Y-60118112D01*
X97361145Y-59961499D01*
X97439877Y-59806982D01*
X97441915Y-59803299D01*
X97533192Y-59651013D01*
X97627560Y-59505701D01*
X97629724Y-59502586D01*
X97735718Y-59359670D01*
X97844785Y-59224983D01*
X97846970Y-59222434D01*
X97965703Y-59091433D01*
X97967717Y-59089318D01*
X98089318Y-58967717D01*
X98091433Y-58965703D01*
X98222434Y-58846970D01*
X98224983Y-58844785D01*
X98359656Y-58735728D01*
X98502586Y-58629724D01*
X98505701Y-58627560D01*
X98651013Y-58533192D01*
X98803299Y-58441915D01*
X98806982Y-58439877D01*
X98961499Y-58361145D01*
X99121462Y-58285488D01*
X99125717Y-58283668D01*
X99288089Y-58221338D01*
X99453891Y-58162013D01*
X99458644Y-58160529D01*
X99627776Y-58115210D01*
X99797083Y-58072801D01*
X99802396Y-58071717D01*
X99978287Y-58043858D01*
X100147594Y-58018744D01*
X100153388Y-58018164D01*
X100347421Y-58007995D01*
X100445332Y-58003185D01*
X100498487Y-58000575D01*
X100501529Y-58000500D01*
X179498471Y-58000500D01*
X179501513Y-58000575D01*
G37*
%TD.AperFunction*%
%TD*%
M02*
