M48
; DRILL file {KiCad 7.0.8} date 2024 May 14, Tuesday 18:15:29
; FORMAT={-:-/ absolute / inch / decimal}
; #@! TF.CreationDate,2024-05-14T18:15:29-04:00
; #@! TF.GenerationSoftware,Kicad,Pcbnew,7.0.8
; #@! TF.FileFunction,Plated,1,2,PTH
FMAT,2
INCH
; #@! TA.AperFunction,Plated,PTH,ViaDrill
T1C0.0157
; #@! TA.AperFunction,Plated,PTH,ComponentDrill
T2C0.0394
; #@! TA.AperFunction,Plated,PTH,ComponentDrill
T3C0.0472
%
G90
G05
T1
X4.3567Y-3.21
X4.685Y-3.0315
X5.1083Y-3.1594
X5.1835Y-2.9048
X5.6693Y-3.0709
X5.8858Y-3.0623
X6.0236Y-3.1017
X6.2205Y-3.0115
X6.378Y-3.1017
T2
X4.0157Y-4.152
X4.0157Y-4.252
X4.2913Y-3.0709
X4.3898Y-3.0709
X4.439Y-4.3701
X4.439Y-4.5472
X4.4882Y-3.0709
X4.6949Y-4.3701
X4.6949Y-4.5472
X4.7594Y-3.2893
X4.7594Y-4.1894
X4.8594Y-3.2893
X4.8594Y-4.1894
X4.9594Y-3.2893
X4.9594Y-4.1894
X5.0594Y-3.2893
X5.0594Y-4.1894
X5.0689Y-4.3701
X5.0689Y-4.5472
X5.0756Y-2.5197
X5.1594Y-3.2893
X5.1594Y-4.1894
X5.1756Y-2.5197
X5.2594Y-3.2893
X5.2594Y-4.1894
X5.2756Y-2.5197
X5.3248Y-4.3701
X5.3248Y-4.5472
X5.3594Y-3.2893
X5.3594Y-4.1894
X5.4594Y-3.2893
X5.4594Y-4.1894
X5.5594Y-3.2893
X5.5594Y-4.1894
X5.6594Y-3.2893
X5.6594Y-4.1894
X5.6988Y-4.3701
X5.6988Y-4.5472
X5.748Y-2.5197
X5.7594Y-3.2893
X5.7594Y-4.1894
X5.848Y-2.5197
X5.8594Y-3.2893
X5.8594Y-4.1894
X5.948Y-2.5197
X5.9547Y-4.3701
X5.9547Y-4.5472
X6.3287Y-4.3701
X6.3287Y-4.5472
X6.5354Y-3.0709
X6.5846Y-4.3701
X6.5846Y-4.5472
X6.6339Y-3.0709
X6.7323Y-3.0709
T3
G00X4.063Y-3.5551
M15
G01X4.126Y-3.5551
M16
G05
G00X4.063Y-3.7402
M15
G01X4.126Y-3.7402
M16
G05
G00X4.063Y-3.9252
M15
G01X4.126Y-3.9252
M16
G05
T0
M30
