M48
; DRILL file {KiCad 7.0.8} date 2024 June 06, Thursday 18:36:12
; FORMAT={-:-/ absolute / inch / decimal}
; #@! TF.CreationDate,2024-06-06T18:36:12-04:00
; #@! TF.GenerationSoftware,Kicad,Pcbnew,7.0.8
; #@! TF.FileFunction,Plated,1,2,PTH
FMAT,2
INCH
; #@! TA.AperFunction,Plated,PTH,ViaDrill
T1C0.0157
; #@! TA.AperFunction,Plated,PTH,ComponentDrill
T2C0.0394
; #@! TA.AperFunction,Plated,PTH,ComponentDrill
T3C0.0472
%
G90
G05
T1
X4.8268Y-2.811
X5.0394Y-3.0
X5.1732Y-3.1496
X5.5699Y-2.9134
X5.6594Y-2.7854
X5.6693Y-3.0709
X5.6791Y-2.7264
X5.8858Y-3.0623
X6.0236Y-3.1017
X6.0728Y-3.0118
X6.378Y-3.1017
T2
X4.2913Y-3.0709
X4.3307Y-3.8189
X4.3307Y-4.4094
X4.3898Y-3.0709
X4.4882Y-3.0709
X4.5374Y-4.3307
X4.5374Y-4.5866
X4.7146Y-4.3307
X4.7146Y-4.5866
X4.7957Y-3.2902
X4.7957Y-4.1902
X4.8957Y-3.2902
X4.8957Y-4.1902
X4.9957Y-3.2902
X4.9957Y-4.1902
X5.0756Y-2.5197
X5.0957Y-3.2902
X5.0957Y-4.1902
X5.128Y-4.3307
X5.128Y-4.5866
X5.1756Y-2.5197
X5.1957Y-3.2902
X5.1957Y-4.1902
X5.2756Y-2.5197
X5.2957Y-3.2902
X5.2957Y-4.1902
X5.3051Y-4.3307
X5.3051Y-4.5866
X5.3957Y-3.2902
X5.3957Y-4.1902
X5.4957Y-3.2902
X5.4957Y-4.1902
X5.5957Y-3.2902
X5.5957Y-4.1902
X5.6957Y-3.2902
X5.6957Y-4.1902
X5.7185Y-4.3307
X5.7185Y-4.5866
X5.748Y-2.5197
X5.7957Y-3.2902
X5.7957Y-4.1902
X5.848Y-2.5197
X5.8957Y-3.2902
X5.8957Y-4.1902
X5.8957Y-4.3307
X5.8957Y-4.5866
X5.948Y-2.5197
X6.1791Y-2.4498
X6.2791Y-2.4498
X6.3091Y-4.3307
X6.3091Y-4.5866
X6.3791Y-2.4498
X6.4791Y-2.4498
X6.4862Y-4.3307
X6.4862Y-4.5866
X6.5354Y-3.0709
X6.5791Y-2.4498
X6.6339Y-3.0709
X6.7323Y-3.0709
T3
G00X4.063Y-3.5551
M15
G01X4.126Y-3.5551
M16
G05
G00X4.063Y-3.7402
M15
G01X4.126Y-3.7402
M16
G05
G00X4.063Y-3.9252
M15
G01X4.126Y-3.9252
M16
G05
T0
M30
