%TF.GenerationSoftware,KiCad,Pcbnew,7.0.8*%
%TF.CreationDate,2024-05-28T17:20:49-04:00*%
%TF.ProjectId,mainboard,6d61696e-626f-4617-9264-2e6b69636164,rev?*%
%TF.SameCoordinates,Original*%
%TF.FileFunction,Soldermask,Bot*%
%TF.FilePolarity,Negative*%
%FSLAX46Y46*%
G04 Gerber Fmt 4.6, Leading zero omitted, Abs format (unit mm)*
G04 Created by KiCad (PCBNEW 7.0.8) date 2024-05-28 17:20:49*
%MOMM*%
%LPD*%
G01*
G04 APERTURE LIST*
%ADD10C,4.000000*%
%ADD11C,1.800000*%
%ADD12C,3.200000*%
%ADD13C,2.000000*%
%ADD14R,1.700000X1.700000*%
%ADD15C,1.700000*%
%ADD16O,1.700000X1.700000*%
%ADD17O,3.400000X1.800000*%
G04 APERTURE END LIST*
D10*
%TO.C,RV2*%
X164100000Y-71000000D03*
X172900000Y-71000000D03*
D11*
X171000000Y-78000000D03*
X168500000Y-78000000D03*
X166000000Y-78000000D03*
%TD*%
D12*
%TO.C,REF\u002A\u002A*%
X100500000Y-61500000D03*
%TD*%
D13*
%TO.C,U3*%
X120890000Y-83548135D03*
X123430000Y-83548135D03*
X125970000Y-83548135D03*
X128510000Y-83548135D03*
X131050000Y-83548135D03*
X133590000Y-83548135D03*
X136130000Y-83548135D03*
X138670000Y-83548135D03*
X141210000Y-83548135D03*
X143750000Y-83548135D03*
X146290000Y-83548135D03*
X148830000Y-83548135D03*
X120890000Y-106409999D03*
X123430000Y-106409999D03*
X125970000Y-106409999D03*
X128510000Y-106409999D03*
X131050000Y-106409999D03*
X133590000Y-106409999D03*
X136130000Y-106409999D03*
X138670000Y-106409999D03*
X141210000Y-106409999D03*
X143750000Y-106409999D03*
X146290000Y-106409999D03*
X148830000Y-106409999D03*
%TD*%
D14*
%TO.C,SW5*%
X160250000Y-116500000D03*
D15*
X160250000Y-110000000D03*
X164750000Y-116500000D03*
X164750000Y-110000000D03*
%TD*%
D12*
%TO.C,REF\u002A\u002A*%
X140000000Y-67000000D03*
%TD*%
D15*
%TO.C,J2*%
X110000000Y-99000000D03*
%TD*%
D14*
%TO.C,SW3*%
X130250000Y-116500000D03*
D15*
X130250000Y-110000000D03*
X134750000Y-116500000D03*
X134750000Y-110000000D03*
%TD*%
D14*
%TO.C,J3*%
X134000000Y-64000000D03*
D16*
X131460000Y-64000000D03*
X128920000Y-64000000D03*
%TD*%
D14*
%TO.C,SW4*%
X145250000Y-116500000D03*
D15*
X145250000Y-110000000D03*
X149750000Y-116500000D03*
X149750000Y-110000000D03*
%TD*%
D14*
%TO.C,SW2*%
X119750000Y-110000000D03*
D15*
X119750000Y-116500000D03*
X115250000Y-110000000D03*
X115250000Y-116500000D03*
%TD*%
%TO.C,J1*%
X110000000Y-114000000D03*
%TD*%
D12*
%TO.C,REF\u002A\u002A*%
X100500000Y-116500000D03*
%TD*%
%TO.C,REF\u002A\u002A*%
X179500000Y-116500000D03*
%TD*%
D17*
%TO.C,SW1*%
X104000000Y-99700000D03*
X104000000Y-95000000D03*
X104000000Y-90300000D03*
%TD*%
D12*
%TO.C,REF\u002A\u002A*%
X179500000Y-61500000D03*
%TD*%
D10*
%TO.C,RV1*%
X107100000Y-71000000D03*
X115900000Y-71000000D03*
D11*
X114000000Y-78000000D03*
X111500000Y-78000000D03*
X109000000Y-78000000D03*
%TD*%
D14*
%TO.C,J4*%
X151080000Y-64000000D03*
D16*
X148540000Y-64000000D03*
X146000000Y-64000000D03*
%TD*%
D12*
%TO.C,REF\u002A\u002A*%
X140000000Y-112000000D03*
%TD*%
M02*
