%TF.GenerationSoftware,KiCad,Pcbnew,7.0.8*%
%TF.CreationDate,2024-05-14T18:15:29-04:00*%
%TF.ProjectId,mainboard,6d61696e-626f-4617-9264-2e6b69636164,rev?*%
%TF.SameCoordinates,Original*%
%TF.FileFunction,Copper,L2,Bot*%
%TF.FilePolarity,Positive*%
%FSLAX46Y46*%
G04 Gerber Fmt 4.6, Leading zero omitted, Abs format (unit mm)*
G04 Created by KiCad (PCBNEW 7.0.8) date 2024-05-14 18:15:29*
%MOMM*%
%LPD*%
G01*
G04 APERTURE LIST*
%TA.AperFunction,WasherPad*%
%ADD10C,4.000000*%
%TD*%
%TA.AperFunction,ComponentPad*%
%ADD11C,1.800000*%
%TD*%
%TA.AperFunction,ComponentPad*%
%ADD12C,2.000000*%
%TD*%
%TA.AperFunction,ComponentPad*%
%ADD13R,1.700000X1.700000*%
%TD*%
%TA.AperFunction,ComponentPad*%
%ADD14C,1.700000*%
%TD*%
%TA.AperFunction,ComponentPad*%
%ADD15O,1.700000X1.700000*%
%TD*%
%TA.AperFunction,ComponentPad*%
%ADD16O,3.400000X1.800000*%
%TD*%
%TA.AperFunction,ViaPad*%
%ADD17C,0.800000*%
%TD*%
%TA.AperFunction,Conductor*%
%ADD18C,0.250000*%
%TD*%
%TA.AperFunction,Conductor*%
%ADD19C,1.000000*%
%TD*%
G04 APERTURE END LIST*
D10*
%TO.P,RV2,*%
%TO.N,*%
X164100000Y-71000000D03*
X172900000Y-71000000D03*
D11*
%TO.P,RV2,1,1*%
%TO.N,+3.3V*%
X171000000Y-78000000D03*
%TO.P,RV2,2,2*%
%TO.N,/POT2*%
X168500000Y-78000000D03*
%TO.P,RV2,3,3*%
%TO.N,GND*%
X166000000Y-78000000D03*
%TD*%
D12*
%TO.P,U3,1,3v*%
%TO.N,+3.3V*%
X120890000Y-83548135D03*
%TO.P,U3,2,1*%
%TO.N,/POT1*%
X123430000Y-83548135D03*
%TO.P,U3,3,2*%
%TO.N,/POT2*%
X125970000Y-83548135D03*
%TO.P,U3,4,3*%
%TO.N,/VSENSE*%
X128510000Y-83548135D03*
%TO.P,U3,5,10*%
%TO.N,unconnected-(U3-10-Pad5)*%
X131050000Y-83548135D03*
%TO.P,U3,6,11*%
%TO.N,/SERVO1L*%
X133590000Y-83548135D03*
%TO.P,U3,7,12*%
%TO.N,/SERVO2L*%
X136130000Y-83548135D03*
%TO.P,U3,8,13*%
%TO.N,/CTRRL*%
X138670000Y-83548135D03*
%TO.P,U3,9,NC*%
%TO.N,unconnected-(U3-NC-Pad9)*%
X141210000Y-83548135D03*
%TO.P,U3,10,NC*%
%TO.N,unconnected-(U3-NC-Pad10)*%
X143750000Y-83548135D03*
%TO.P,U3,11,GND*%
%TO.N,unconnected-(U3-GND-Pad11)*%
X146290000Y-83548135D03*
%TO.P,U3,12,5V*%
%TO.N,+5V*%
X148830000Y-83548135D03*
%TO.P,U3,13,GND*%
%TO.N,GND*%
X120890000Y-106409999D03*
%TO.P,U3,14,GND*%
X123430000Y-106409999D03*
%TO.P,U3,15,43*%
%TO.N,/BUTTON1*%
X125970000Y-106409999D03*
%TO.P,U3,16,44*%
%TO.N,/BUTTON2*%
X128510000Y-106409999D03*
%TO.P,U3,17,18*%
%TO.N,/RXD*%
X131050000Y-106409999D03*
%TO.P,U3,18,17*%
%TO.N,/TXD*%
X133590000Y-106409999D03*
%TO.P,U3,19,21*%
%TO.N,/BUTTON3*%
X136130000Y-106409999D03*
%TO.P,U3,20,16*%
%TO.N,/BUTTON4*%
X138670000Y-106409999D03*
%TO.P,U3,21,NC*%
%TO.N,unconnected-(U3-NC-Pad21)*%
X141210000Y-106409999D03*
%TO.P,U3,22,GND*%
%TO.N,GND*%
X143750000Y-106409999D03*
%TO.P,U3,23,GND*%
X146290000Y-106409999D03*
%TO.P,U3,24,3v*%
%TO.N,unconnected-(U3-3v-Pad24)*%
X148830000Y-106409999D03*
%TD*%
D13*
%TO.P,SW5,1,A*%
%TO.N,/BUTTON4*%
X160750000Y-111000000D03*
D14*
X167250000Y-111000000D03*
%TO.P,SW5,2,B*%
%TO.N,GND*%
X160750000Y-115500000D03*
X167250000Y-115500000D03*
%TD*%
D13*
%TO.P,SW2,1,A*%
%TO.N,/BUTTON2*%
X128750000Y-111000000D03*
D14*
X135250000Y-111000000D03*
%TO.P,SW2,2,B*%
%TO.N,GND*%
X128750000Y-115500000D03*
X135250000Y-115500000D03*
%TD*%
D13*
%TO.P,J2,1,Pin_1*%
%TO.N,/SERVO1*%
X134000000Y-64000000D03*
D15*
%TO.P,J2,2,Pin_2*%
%TO.N,VCC*%
X131460000Y-64000000D03*
%TO.P,J2,3,Pin_3*%
%TO.N,GND*%
X128920000Y-64000000D03*
%TD*%
D13*
%TO.P,SW3,1,A*%
%TO.N,/BUTTON3*%
X144750000Y-111000000D03*
D14*
X151250000Y-111000000D03*
%TO.P,SW3,2,B*%
%TO.N,GND*%
X144750000Y-115500000D03*
X151250000Y-115500000D03*
%TD*%
D13*
%TO.P,SW1,1,A*%
%TO.N,/BUTTON1*%
X112750000Y-111000000D03*
D14*
X119250000Y-111000000D03*
%TO.P,SW1,2,B*%
%TO.N,GND*%
X112750000Y-115500000D03*
X119250000Y-115500000D03*
%TD*%
D16*
%TO.P,SW4,1,A*%
%TO.N,unconnected-(SW4-A-Pad1)*%
X104000000Y-99700000D03*
%TO.P,SW4,2,B*%
%TO.N,Net-(J1-Pin_1)*%
X104000000Y-95000000D03*
%TO.P,SW4,3,C*%
%TO.N,VCC*%
X104000000Y-90300000D03*
%TD*%
D10*
%TO.P,RV1,*%
%TO.N,*%
X107100000Y-71000000D03*
X115900000Y-71000000D03*
D11*
%TO.P,RV1,1,1*%
%TO.N,+3.3V*%
X114000000Y-78000000D03*
%TO.P,RV1,2,2*%
%TO.N,/POT1*%
X111500000Y-78000000D03*
%TO.P,RV1,3,3*%
%TO.N,GND*%
X109000000Y-78000000D03*
%TD*%
D13*
%TO.P,J3,1,Pin_1*%
%TO.N,/SERVO2*%
X151080000Y-64000000D03*
D15*
%TO.P,J3,2,Pin_2*%
%TO.N,VCC*%
X148540000Y-64000000D03*
%TO.P,J3,3,Pin_3*%
%TO.N,GND*%
X146000000Y-64000000D03*
%TD*%
D13*
%TO.P,J1,1,Pin_1*%
%TO.N,Net-(J1-Pin_1)*%
X102000000Y-108000000D03*
D15*
%TO.P,J1,2,Pin_2*%
%TO.N,GND*%
X102000000Y-105460000D03*
%TD*%
D17*
%TO.N,+3.3V*%
X162000000Y-78782934D03*
X153000000Y-78782934D03*
X144000000Y-78000000D03*
%TO.N,GND*%
X119000000Y-77000000D03*
X131660000Y-73782934D03*
X149500000Y-77782934D03*
X110660000Y-81532934D03*
X158000000Y-76492554D03*
%TO.N,+5V*%
X129750000Y-80250000D03*
%TD*%
D18*
%TO.N,+3.3V*%
X121000000Y-78000000D02*
X114000000Y-78000000D01*
X153000000Y-78782934D02*
X162000000Y-78782934D01*
X120890000Y-78110000D02*
X121000000Y-78000000D01*
X144000000Y-78000000D02*
X144717066Y-78000000D01*
X144717066Y-78000000D02*
X145500000Y-78782934D01*
X153000000Y-78782934D02*
X145500000Y-78782934D01*
X121000000Y-78000000D02*
X144000000Y-78000000D01*
X120890000Y-83548135D02*
X120890000Y-78110000D01*
%TO.N,/POT2*%
X126250000Y-85500000D02*
X161000000Y-85500000D01*
X161000000Y-85500000D02*
X168410000Y-78090000D01*
X125970000Y-85220000D02*
X126250000Y-85500000D01*
X125970000Y-83548135D02*
X125970000Y-85220000D01*
D19*
%TO.N,+5V*%
X148830000Y-83548135D02*
X148830000Y-81830000D01*
X148830000Y-81830000D02*
X148500000Y-81500000D01*
X148500000Y-81500000D02*
X131000000Y-81500000D01*
X131000000Y-81500000D02*
X129750000Y-80250000D01*
%TD*%
%TA.AperFunction,Conductor*%
%TO.N,GND*%
G36*
X179501513Y-58000575D02*
G01*
X179567131Y-58003797D01*
X179652481Y-58007990D01*
X179846607Y-58018164D01*
X179852409Y-58018745D01*
X180021733Y-58043862D01*
X180197594Y-58071716D01*
X180202929Y-58072804D01*
X180372209Y-58115206D01*
X180541341Y-58160525D01*
X180546122Y-58162018D01*
X180711894Y-58221332D01*
X180874263Y-58283660D01*
X180878543Y-58285492D01*
X180964073Y-58325944D01*
X181038476Y-58361134D01*
X181192992Y-58439864D01*
X181196720Y-58441928D01*
X181348967Y-58533180D01*
X181494262Y-58627537D01*
X181497428Y-58629736D01*
X181640323Y-58735714D01*
X181774975Y-58844752D01*
X181777594Y-58846997D01*
X181908517Y-58965658D01*
X181910721Y-58967757D01*
X182032241Y-59089277D01*
X182034340Y-59091481D01*
X182153001Y-59222404D01*
X182155246Y-59225023D01*
X182264285Y-59359676D01*
X182370262Y-59502570D01*
X182372461Y-59505736D01*
X182466822Y-59651038D01*
X182558070Y-59803278D01*
X182560133Y-59807006D01*
X182638868Y-59961529D01*
X182714506Y-60121455D01*
X182716342Y-60125746D01*
X182778672Y-60288120D01*
X182787616Y-60313116D01*
X182837970Y-60453847D01*
X182839479Y-60458678D01*
X182884793Y-60627790D01*
X182927191Y-60797056D01*
X182928286Y-60802424D01*
X182956145Y-60978317D01*
X182981250Y-61147560D01*
X182981836Y-61153416D01*
X182992011Y-61347561D01*
X182999425Y-61498488D01*
X182999500Y-61501530D01*
X182999500Y-116498469D01*
X182999425Y-116501511D01*
X182992011Y-116652438D01*
X182981836Y-116846582D01*
X182981250Y-116852438D01*
X182956145Y-117021682D01*
X182928286Y-117197574D01*
X182927191Y-117202942D01*
X182884793Y-117372209D01*
X182839479Y-117541320D01*
X182837967Y-117546163D01*
X182778672Y-117711879D01*
X182716342Y-117874252D01*
X182714507Y-117878543D01*
X182638868Y-118038470D01*
X182560133Y-118192992D01*
X182558070Y-118196720D01*
X182466822Y-118348961D01*
X182372461Y-118494262D01*
X182370262Y-118497428D01*
X182264285Y-118640323D01*
X182155245Y-118774975D01*
X182153001Y-118777594D01*
X182034340Y-118908517D01*
X182032241Y-118910721D01*
X181910721Y-119032241D01*
X181908517Y-119034340D01*
X181777594Y-119153001D01*
X181774975Y-119155245D01*
X181640323Y-119264285D01*
X181497428Y-119370262D01*
X181494262Y-119372461D01*
X181348961Y-119466822D01*
X181196720Y-119558070D01*
X181192992Y-119560133D01*
X181038470Y-119638868D01*
X180878543Y-119714507D01*
X180874252Y-119716342D01*
X180711879Y-119778672D01*
X180546163Y-119837967D01*
X180541320Y-119839479D01*
X180372209Y-119884793D01*
X180202942Y-119927191D01*
X180197574Y-119928286D01*
X180021682Y-119956145D01*
X179852438Y-119981250D01*
X179846582Y-119981836D01*
X179652438Y-119992011D01*
X179501513Y-119999425D01*
X179498470Y-119999500D01*
X100501530Y-119999500D01*
X100498488Y-119999425D01*
X100347561Y-119992011D01*
X100153416Y-119981836D01*
X100147560Y-119981250D01*
X99978317Y-119956145D01*
X99802424Y-119928286D01*
X99797056Y-119927191D01*
X99627790Y-119884793D01*
X99458678Y-119839479D01*
X99453847Y-119837970D01*
X99347307Y-119799850D01*
X99288120Y-119778672D01*
X99125746Y-119716342D01*
X99121455Y-119714506D01*
X98961529Y-119638868D01*
X98807006Y-119560133D01*
X98803278Y-119558070D01*
X98651038Y-119466822D01*
X98505736Y-119372461D01*
X98502570Y-119370262D01*
X98359676Y-119264285D01*
X98225023Y-119155246D01*
X98222404Y-119153001D01*
X98091481Y-119034340D01*
X98089277Y-119032241D01*
X97967757Y-118910721D01*
X97965658Y-118908517D01*
X97846997Y-118777594D01*
X97844752Y-118774975D01*
X97735714Y-118640323D01*
X97629736Y-118497428D01*
X97627537Y-118494262D01*
X97533177Y-118348961D01*
X97441928Y-118196720D01*
X97439864Y-118192992D01*
X97401675Y-118118042D01*
X97361131Y-118038470D01*
X97325944Y-117964073D01*
X97285492Y-117878543D01*
X97283656Y-117874252D01*
X97250479Y-117787824D01*
X97221327Y-117711879D01*
X97162018Y-117546122D01*
X97160525Y-117541341D01*
X97115206Y-117372209D01*
X97072804Y-117202929D01*
X97071716Y-117197594D01*
X97043854Y-117021682D01*
X97018745Y-116852409D01*
X97018164Y-116846607D01*
X97007989Y-116652438D01*
X97003828Y-116567763D01*
X98645787Y-116567763D01*
X98675413Y-116837013D01*
X98675415Y-116837024D01*
X98723691Y-117021682D01*
X98743928Y-117099088D01*
X98849870Y-117348390D01*
X98967614Y-117541320D01*
X98990979Y-117579605D01*
X98990986Y-117579615D01*
X99164253Y-117787819D01*
X99164259Y-117787824D01*
X99260719Y-117874252D01*
X99365998Y-117968582D01*
X99591910Y-118118044D01*
X99837176Y-118233020D01*
X99837183Y-118233022D01*
X99837185Y-118233023D01*
X100096557Y-118311057D01*
X100096564Y-118311058D01*
X100096569Y-118311060D01*
X100364561Y-118350500D01*
X100364566Y-118350500D01*
X100567636Y-118350500D01*
X100619133Y-118346730D01*
X100770156Y-118335677D01*
X100882758Y-118310593D01*
X101034546Y-118276782D01*
X101034548Y-118276781D01*
X101034553Y-118276780D01*
X101287558Y-118180014D01*
X101523777Y-118047441D01*
X101738177Y-117881888D01*
X101926186Y-117686881D01*
X102083799Y-117466579D01*
X102157787Y-117322669D01*
X102207649Y-117225690D01*
X102207651Y-117225684D01*
X102207656Y-117225675D01*
X102295118Y-116969305D01*
X102344319Y-116702933D01*
X102354212Y-116432235D01*
X102324586Y-116162982D01*
X102256072Y-115900912D01*
X102150130Y-115651610D01*
X102057604Y-115500001D01*
X111394843Y-115500001D01*
X111415430Y-115735315D01*
X111415432Y-115735326D01*
X111476566Y-115963483D01*
X111476570Y-115963492D01*
X111576400Y-116177579D01*
X111576402Y-116177583D01*
X111635072Y-116261373D01*
X111635073Y-116261373D01*
X112266923Y-115629523D01*
X112290507Y-115709844D01*
X112368239Y-115830798D01*
X112476900Y-115924952D01*
X112607685Y-115984680D01*
X112617466Y-115986086D01*
X111988625Y-116614925D01*
X112072421Y-116673599D01*
X112286507Y-116773429D01*
X112286516Y-116773433D01*
X112514673Y-116834567D01*
X112514684Y-116834569D01*
X112749998Y-116855157D01*
X112750002Y-116855157D01*
X112985315Y-116834569D01*
X112985326Y-116834567D01*
X113213483Y-116773433D01*
X113213492Y-116773429D01*
X113427578Y-116673600D01*
X113427582Y-116673598D01*
X113511373Y-116614926D01*
X113511373Y-116614925D01*
X112882533Y-115986086D01*
X112892315Y-115984680D01*
X113023100Y-115924952D01*
X113131761Y-115830798D01*
X113209493Y-115709844D01*
X113233076Y-115629524D01*
X113864925Y-116261373D01*
X113864926Y-116261373D01*
X113923598Y-116177582D01*
X113923600Y-116177578D01*
X114023429Y-115963492D01*
X114023433Y-115963483D01*
X114084567Y-115735326D01*
X114084569Y-115735315D01*
X114105157Y-115500001D01*
X117894843Y-115500001D01*
X117915430Y-115735315D01*
X117915432Y-115735326D01*
X117976566Y-115963483D01*
X117976570Y-115963492D01*
X118076400Y-116177579D01*
X118076402Y-116177583D01*
X118135072Y-116261373D01*
X118135073Y-116261373D01*
X118766923Y-115629523D01*
X118790507Y-115709844D01*
X118868239Y-115830798D01*
X118976900Y-115924952D01*
X119107685Y-115984680D01*
X119117466Y-115986086D01*
X118488625Y-116614925D01*
X118572421Y-116673599D01*
X118786507Y-116773429D01*
X118786516Y-116773433D01*
X119014673Y-116834567D01*
X119014684Y-116834569D01*
X119249998Y-116855157D01*
X119250002Y-116855157D01*
X119485315Y-116834569D01*
X119485326Y-116834567D01*
X119713483Y-116773433D01*
X119713492Y-116773429D01*
X119927578Y-116673600D01*
X119927582Y-116673598D01*
X120011373Y-116614926D01*
X120011373Y-116614925D01*
X119382533Y-115986086D01*
X119392315Y-115984680D01*
X119523100Y-115924952D01*
X119631761Y-115830798D01*
X119709493Y-115709844D01*
X119733076Y-115629524D01*
X120364925Y-116261373D01*
X120364926Y-116261373D01*
X120423598Y-116177582D01*
X120423600Y-116177578D01*
X120523429Y-115963492D01*
X120523433Y-115963483D01*
X120584567Y-115735326D01*
X120584569Y-115735315D01*
X120605157Y-115500001D01*
X127394843Y-115500001D01*
X127415430Y-115735315D01*
X127415432Y-115735326D01*
X127476566Y-115963483D01*
X127476570Y-115963492D01*
X127576400Y-116177579D01*
X127576402Y-116177583D01*
X127635072Y-116261373D01*
X127635073Y-116261373D01*
X128266923Y-115629523D01*
X128290507Y-115709844D01*
X128368239Y-115830798D01*
X128476900Y-115924952D01*
X128607685Y-115984680D01*
X128617466Y-115986086D01*
X127988625Y-116614925D01*
X128072421Y-116673599D01*
X128286507Y-116773429D01*
X128286516Y-116773433D01*
X128514673Y-116834567D01*
X128514684Y-116834569D01*
X128749998Y-116855157D01*
X128750002Y-116855157D01*
X128985315Y-116834569D01*
X128985326Y-116834567D01*
X129213483Y-116773433D01*
X129213492Y-116773429D01*
X129427578Y-116673600D01*
X129427582Y-116673598D01*
X129511373Y-116614926D01*
X129511373Y-116614925D01*
X128882533Y-115986086D01*
X128892315Y-115984680D01*
X129023100Y-115924952D01*
X129131761Y-115830798D01*
X129209493Y-115709844D01*
X129233076Y-115629524D01*
X129864925Y-116261373D01*
X129864926Y-116261373D01*
X129923598Y-116177582D01*
X129923600Y-116177578D01*
X130023429Y-115963492D01*
X130023433Y-115963483D01*
X130084567Y-115735326D01*
X130084569Y-115735315D01*
X130105157Y-115500001D01*
X133894843Y-115500001D01*
X133915430Y-115735315D01*
X133915432Y-115735326D01*
X133976566Y-115963483D01*
X133976570Y-115963492D01*
X134076400Y-116177579D01*
X134076402Y-116177583D01*
X134135072Y-116261373D01*
X134135073Y-116261373D01*
X134766923Y-115629523D01*
X134790507Y-115709844D01*
X134868239Y-115830798D01*
X134976900Y-115924952D01*
X135107685Y-115984680D01*
X135117466Y-115986086D01*
X134488625Y-116614925D01*
X134572421Y-116673599D01*
X134786507Y-116773429D01*
X134786516Y-116773433D01*
X135014673Y-116834567D01*
X135014684Y-116834569D01*
X135249998Y-116855157D01*
X135250002Y-116855157D01*
X135485315Y-116834569D01*
X135485326Y-116834567D01*
X135713483Y-116773433D01*
X135713492Y-116773429D01*
X135927578Y-116673600D01*
X135927582Y-116673598D01*
X136011373Y-116614926D01*
X136011373Y-116614925D01*
X135382533Y-115986086D01*
X135392315Y-115984680D01*
X135523100Y-115924952D01*
X135631761Y-115830798D01*
X135709493Y-115709844D01*
X135733076Y-115629524D01*
X136364925Y-116261373D01*
X136364926Y-116261373D01*
X136423598Y-116177582D01*
X136423600Y-116177578D01*
X136523429Y-115963492D01*
X136523433Y-115963483D01*
X136584567Y-115735326D01*
X136584569Y-115735315D01*
X136605157Y-115500001D01*
X143394843Y-115500001D01*
X143415430Y-115735315D01*
X143415432Y-115735326D01*
X143476566Y-115963483D01*
X143476570Y-115963492D01*
X143576400Y-116177579D01*
X143576402Y-116177583D01*
X143635072Y-116261373D01*
X143635073Y-116261373D01*
X144266923Y-115629523D01*
X144290507Y-115709844D01*
X144368239Y-115830798D01*
X144476900Y-115924952D01*
X144607685Y-115984680D01*
X144617466Y-115986086D01*
X143988625Y-116614925D01*
X144072421Y-116673599D01*
X144286507Y-116773429D01*
X144286516Y-116773433D01*
X144514673Y-116834567D01*
X144514684Y-116834569D01*
X144749998Y-116855157D01*
X144750002Y-116855157D01*
X144985315Y-116834569D01*
X144985326Y-116834567D01*
X145213483Y-116773433D01*
X145213492Y-116773429D01*
X145427578Y-116673600D01*
X145427582Y-116673598D01*
X145511373Y-116614926D01*
X145511373Y-116614925D01*
X144882533Y-115986086D01*
X144892315Y-115984680D01*
X145023100Y-115924952D01*
X145131761Y-115830798D01*
X145209493Y-115709844D01*
X145233076Y-115629524D01*
X145864925Y-116261373D01*
X145864926Y-116261373D01*
X145923598Y-116177582D01*
X145923600Y-116177578D01*
X146023429Y-115963492D01*
X146023433Y-115963483D01*
X146084567Y-115735326D01*
X146084569Y-115735315D01*
X146105157Y-115500001D01*
X149894843Y-115500001D01*
X149915430Y-115735315D01*
X149915432Y-115735326D01*
X149976566Y-115963483D01*
X149976570Y-115963492D01*
X150076400Y-116177579D01*
X150076402Y-116177583D01*
X150135072Y-116261373D01*
X150135073Y-116261373D01*
X150766923Y-115629523D01*
X150790507Y-115709844D01*
X150868239Y-115830798D01*
X150976900Y-115924952D01*
X151107685Y-115984680D01*
X151117466Y-115986086D01*
X150488625Y-116614925D01*
X150572421Y-116673599D01*
X150786507Y-116773429D01*
X150786516Y-116773433D01*
X151014673Y-116834567D01*
X151014684Y-116834569D01*
X151249998Y-116855157D01*
X151250002Y-116855157D01*
X151485315Y-116834569D01*
X151485326Y-116834567D01*
X151713483Y-116773433D01*
X151713492Y-116773429D01*
X151927578Y-116673600D01*
X151927582Y-116673598D01*
X152011373Y-116614926D01*
X152011373Y-116614925D01*
X151382533Y-115986086D01*
X151392315Y-115984680D01*
X151523100Y-115924952D01*
X151631761Y-115830798D01*
X151709493Y-115709844D01*
X151733076Y-115629524D01*
X152364925Y-116261373D01*
X152364926Y-116261373D01*
X152423598Y-116177582D01*
X152423600Y-116177578D01*
X152523429Y-115963492D01*
X152523433Y-115963483D01*
X152584567Y-115735326D01*
X152584569Y-115735315D01*
X152605157Y-115500001D01*
X159394843Y-115500001D01*
X159415430Y-115735315D01*
X159415432Y-115735326D01*
X159476566Y-115963483D01*
X159476570Y-115963492D01*
X159576400Y-116177579D01*
X159576402Y-116177583D01*
X159635072Y-116261373D01*
X159635073Y-116261373D01*
X160266923Y-115629523D01*
X160290507Y-115709844D01*
X160368239Y-115830798D01*
X160476900Y-115924952D01*
X160607685Y-115984680D01*
X160617466Y-115986086D01*
X159988625Y-116614925D01*
X160072421Y-116673599D01*
X160286507Y-116773429D01*
X160286516Y-116773433D01*
X160514673Y-116834567D01*
X160514684Y-116834569D01*
X160749998Y-116855157D01*
X160750002Y-116855157D01*
X160985315Y-116834569D01*
X160985326Y-116834567D01*
X161213483Y-116773433D01*
X161213492Y-116773429D01*
X161427578Y-116673600D01*
X161427582Y-116673598D01*
X161511373Y-116614926D01*
X161511373Y-116614925D01*
X160882533Y-115986086D01*
X160892315Y-115984680D01*
X161023100Y-115924952D01*
X161131761Y-115830798D01*
X161209493Y-115709844D01*
X161233076Y-115629524D01*
X161864925Y-116261373D01*
X161864926Y-116261373D01*
X161923598Y-116177582D01*
X161923600Y-116177578D01*
X162023429Y-115963492D01*
X162023433Y-115963483D01*
X162084567Y-115735326D01*
X162084569Y-115735315D01*
X162105157Y-115500001D01*
X165894843Y-115500001D01*
X165915430Y-115735315D01*
X165915432Y-115735326D01*
X165976566Y-115963483D01*
X165976570Y-115963492D01*
X166076400Y-116177579D01*
X166076402Y-116177583D01*
X166135072Y-116261373D01*
X166135073Y-116261373D01*
X166766923Y-115629523D01*
X166790507Y-115709844D01*
X166868239Y-115830798D01*
X166976900Y-115924952D01*
X167107685Y-115984680D01*
X167117466Y-115986086D01*
X166488625Y-116614925D01*
X166572421Y-116673599D01*
X166786507Y-116773429D01*
X166786516Y-116773433D01*
X167014673Y-116834567D01*
X167014684Y-116834569D01*
X167249998Y-116855157D01*
X167250002Y-116855157D01*
X167485315Y-116834569D01*
X167485326Y-116834567D01*
X167713483Y-116773433D01*
X167713492Y-116773429D01*
X167927578Y-116673600D01*
X167927582Y-116673598D01*
X168011373Y-116614926D01*
X168011373Y-116614925D01*
X167964211Y-116567763D01*
X177645787Y-116567763D01*
X177675413Y-116837013D01*
X177675415Y-116837024D01*
X177723691Y-117021682D01*
X177743928Y-117099088D01*
X177849870Y-117348390D01*
X177967614Y-117541320D01*
X177990979Y-117579605D01*
X177990986Y-117579615D01*
X178164253Y-117787819D01*
X178164259Y-117787824D01*
X178260719Y-117874252D01*
X178365998Y-117968582D01*
X178591910Y-118118044D01*
X178837176Y-118233020D01*
X178837183Y-118233022D01*
X178837185Y-118233023D01*
X179096557Y-118311057D01*
X179096564Y-118311058D01*
X179096569Y-118311060D01*
X179364561Y-118350500D01*
X179364566Y-118350500D01*
X179567636Y-118350500D01*
X179619133Y-118346730D01*
X179770156Y-118335677D01*
X179882758Y-118310593D01*
X180034546Y-118276782D01*
X180034548Y-118276781D01*
X180034553Y-118276780D01*
X180287558Y-118180014D01*
X180523777Y-118047441D01*
X180738177Y-117881888D01*
X180926186Y-117686881D01*
X181083799Y-117466579D01*
X181157787Y-117322669D01*
X181207649Y-117225690D01*
X181207651Y-117225684D01*
X181207656Y-117225675D01*
X181295118Y-116969305D01*
X181344319Y-116702933D01*
X181354212Y-116432235D01*
X181324586Y-116162982D01*
X181256072Y-115900912D01*
X181150130Y-115651610D01*
X181009018Y-115420390D01*
X180919747Y-115313119D01*
X180835746Y-115212180D01*
X180835740Y-115212175D01*
X180634002Y-115031418D01*
X180408092Y-114881957D01*
X180408090Y-114881956D01*
X180162824Y-114766980D01*
X180162819Y-114766978D01*
X180162814Y-114766976D01*
X179903442Y-114688942D01*
X179903428Y-114688939D01*
X179787791Y-114671921D01*
X179635439Y-114649500D01*
X179432369Y-114649500D01*
X179432364Y-114649500D01*
X179229844Y-114664323D01*
X179229831Y-114664325D01*
X178965453Y-114723217D01*
X178965446Y-114723220D01*
X178712439Y-114819987D01*
X178476226Y-114952557D01*
X178261822Y-115118112D01*
X178073822Y-115313109D01*
X178073816Y-115313116D01*
X177916202Y-115533419D01*
X177916199Y-115533424D01*
X177792350Y-115774309D01*
X177792343Y-115774327D01*
X177704884Y-116030685D01*
X177704881Y-116030699D01*
X177655681Y-116297068D01*
X177655680Y-116297075D01*
X177645787Y-116567763D01*
X167964211Y-116567763D01*
X167382533Y-115986086D01*
X167392315Y-115984680D01*
X167523100Y-115924952D01*
X167631761Y-115830798D01*
X167709493Y-115709844D01*
X167733076Y-115629524D01*
X168364925Y-116261373D01*
X168364926Y-116261373D01*
X168423598Y-116177582D01*
X168423600Y-116177578D01*
X168523429Y-115963492D01*
X168523433Y-115963483D01*
X168584567Y-115735326D01*
X168584569Y-115735315D01*
X168605157Y-115500001D01*
X168605157Y-115499998D01*
X168584569Y-115264684D01*
X168584567Y-115264673D01*
X168523433Y-115036516D01*
X168523429Y-115036507D01*
X168423600Y-114822423D01*
X168423599Y-114822421D01*
X168364925Y-114738626D01*
X168364925Y-114738625D01*
X167733076Y-115370475D01*
X167709493Y-115290156D01*
X167631761Y-115169202D01*
X167523100Y-115075048D01*
X167392315Y-115015320D01*
X167382533Y-115013913D01*
X168011373Y-114385073D01*
X168011373Y-114385072D01*
X167927583Y-114326402D01*
X167927579Y-114326400D01*
X167713492Y-114226570D01*
X167713483Y-114226566D01*
X167485326Y-114165432D01*
X167485315Y-114165430D01*
X167250002Y-114144843D01*
X167249998Y-114144843D01*
X167014684Y-114165430D01*
X167014673Y-114165432D01*
X166786516Y-114226566D01*
X166786507Y-114226570D01*
X166572419Y-114326401D01*
X166488625Y-114385072D01*
X167117466Y-115013913D01*
X167107685Y-115015320D01*
X166976900Y-115075048D01*
X166868239Y-115169202D01*
X166790507Y-115290156D01*
X166766923Y-115370475D01*
X166135072Y-114738625D01*
X166076401Y-114822419D01*
X165976570Y-115036507D01*
X165976566Y-115036516D01*
X165915432Y-115264673D01*
X165915430Y-115264684D01*
X165894843Y-115499998D01*
X165894843Y-115500001D01*
X162105157Y-115500001D01*
X162105157Y-115499998D01*
X162084569Y-115264684D01*
X162084567Y-115264673D01*
X162023433Y-115036516D01*
X162023429Y-115036507D01*
X161923600Y-114822423D01*
X161923599Y-114822421D01*
X161864925Y-114738626D01*
X161864925Y-114738625D01*
X161233076Y-115370475D01*
X161209493Y-115290156D01*
X161131761Y-115169202D01*
X161023100Y-115075048D01*
X160892315Y-115015320D01*
X160882533Y-115013913D01*
X161511373Y-114385073D01*
X161511373Y-114385072D01*
X161427583Y-114326402D01*
X161427579Y-114326400D01*
X161213492Y-114226570D01*
X161213483Y-114226566D01*
X160985326Y-114165432D01*
X160985315Y-114165430D01*
X160750002Y-114144843D01*
X160749998Y-114144843D01*
X160514684Y-114165430D01*
X160514673Y-114165432D01*
X160286516Y-114226566D01*
X160286507Y-114226570D01*
X160072419Y-114326401D01*
X159988625Y-114385072D01*
X160617466Y-115013913D01*
X160607685Y-115015320D01*
X160476900Y-115075048D01*
X160368239Y-115169202D01*
X160290507Y-115290156D01*
X160266923Y-115370475D01*
X159635072Y-114738625D01*
X159576401Y-114822419D01*
X159476570Y-115036507D01*
X159476566Y-115036516D01*
X159415432Y-115264673D01*
X159415430Y-115264684D01*
X159394843Y-115499998D01*
X159394843Y-115500001D01*
X152605157Y-115500001D01*
X152605157Y-115499998D01*
X152584569Y-115264684D01*
X152584567Y-115264673D01*
X152523433Y-115036516D01*
X152523429Y-115036507D01*
X152423600Y-114822423D01*
X152423599Y-114822421D01*
X152364925Y-114738626D01*
X152364925Y-114738625D01*
X151733076Y-115370475D01*
X151709493Y-115290156D01*
X151631761Y-115169202D01*
X151523100Y-115075048D01*
X151392315Y-115015320D01*
X151382533Y-115013913D01*
X152011373Y-114385073D01*
X152011373Y-114385072D01*
X151927583Y-114326402D01*
X151927579Y-114326400D01*
X151713492Y-114226570D01*
X151713483Y-114226566D01*
X151485326Y-114165432D01*
X151485315Y-114165430D01*
X151250002Y-114144843D01*
X151249998Y-114144843D01*
X151014684Y-114165430D01*
X151014673Y-114165432D01*
X150786516Y-114226566D01*
X150786507Y-114226570D01*
X150572419Y-114326401D01*
X150488625Y-114385072D01*
X151117466Y-115013913D01*
X151107685Y-115015320D01*
X150976900Y-115075048D01*
X150868239Y-115169202D01*
X150790507Y-115290156D01*
X150766923Y-115370475D01*
X150135073Y-114738625D01*
X150135072Y-114738625D01*
X150076401Y-114822419D01*
X149976570Y-115036507D01*
X149976566Y-115036516D01*
X149915432Y-115264673D01*
X149915430Y-115264684D01*
X149894843Y-115499998D01*
X149894843Y-115500001D01*
X146105157Y-115500001D01*
X146105157Y-115499998D01*
X146084569Y-115264684D01*
X146084567Y-115264673D01*
X146023433Y-115036516D01*
X146023429Y-115036507D01*
X145923600Y-114822423D01*
X145923599Y-114822421D01*
X145864925Y-114738626D01*
X145864925Y-114738625D01*
X145233076Y-115370475D01*
X145209493Y-115290156D01*
X145131761Y-115169202D01*
X145023100Y-115075048D01*
X144892315Y-115015320D01*
X144882533Y-115013913D01*
X145511373Y-114385073D01*
X145511373Y-114385072D01*
X145427583Y-114326402D01*
X145427579Y-114326400D01*
X145213492Y-114226570D01*
X145213483Y-114226566D01*
X144985326Y-114165432D01*
X144985315Y-114165430D01*
X144750002Y-114144843D01*
X144749998Y-114144843D01*
X144514684Y-114165430D01*
X144514673Y-114165432D01*
X144286516Y-114226566D01*
X144286507Y-114226570D01*
X144072419Y-114326401D01*
X143988625Y-114385072D01*
X144617466Y-115013913D01*
X144607685Y-115015320D01*
X144476900Y-115075048D01*
X144368239Y-115169202D01*
X144290507Y-115290156D01*
X144266923Y-115370476D01*
X143635072Y-114738625D01*
X143576401Y-114822419D01*
X143476570Y-115036507D01*
X143476566Y-115036516D01*
X143415432Y-115264673D01*
X143415430Y-115264684D01*
X143394843Y-115499998D01*
X143394843Y-115500001D01*
X136605157Y-115500001D01*
X136605157Y-115499998D01*
X136584569Y-115264684D01*
X136584567Y-115264673D01*
X136523433Y-115036516D01*
X136523429Y-115036507D01*
X136423600Y-114822423D01*
X136423599Y-114822421D01*
X136364925Y-114738626D01*
X136364925Y-114738625D01*
X135733076Y-115370475D01*
X135709493Y-115290156D01*
X135631761Y-115169202D01*
X135523100Y-115075048D01*
X135392315Y-115015320D01*
X135382533Y-115013913D01*
X136011373Y-114385073D01*
X136011373Y-114385072D01*
X135927583Y-114326402D01*
X135927579Y-114326400D01*
X135713492Y-114226570D01*
X135713483Y-114226566D01*
X135485326Y-114165432D01*
X135485315Y-114165430D01*
X135250002Y-114144843D01*
X135249998Y-114144843D01*
X135014684Y-114165430D01*
X135014673Y-114165432D01*
X134786516Y-114226566D01*
X134786507Y-114226570D01*
X134572419Y-114326401D01*
X134488625Y-114385072D01*
X135117466Y-115013913D01*
X135107685Y-115015320D01*
X134976900Y-115075048D01*
X134868239Y-115169202D01*
X134790507Y-115290156D01*
X134766923Y-115370476D01*
X134135072Y-114738625D01*
X134076401Y-114822419D01*
X133976570Y-115036507D01*
X133976566Y-115036516D01*
X133915432Y-115264673D01*
X133915430Y-115264684D01*
X133894843Y-115499998D01*
X133894843Y-115500001D01*
X130105157Y-115500001D01*
X130105157Y-115499998D01*
X130084569Y-115264684D01*
X130084567Y-115264673D01*
X130023433Y-115036516D01*
X130023429Y-115036507D01*
X129923600Y-114822423D01*
X129923599Y-114822421D01*
X129864925Y-114738626D01*
X129864925Y-114738625D01*
X129233076Y-115370475D01*
X129209493Y-115290156D01*
X129131761Y-115169202D01*
X129023100Y-115075048D01*
X128892315Y-115015320D01*
X128882533Y-115013913D01*
X129511373Y-114385073D01*
X129511373Y-114385072D01*
X129427583Y-114326402D01*
X129427579Y-114326400D01*
X129213492Y-114226570D01*
X129213483Y-114226566D01*
X128985326Y-114165432D01*
X128985315Y-114165430D01*
X128750002Y-114144843D01*
X128749998Y-114144843D01*
X128514684Y-114165430D01*
X128514673Y-114165432D01*
X128286516Y-114226566D01*
X128286507Y-114226570D01*
X128072419Y-114326401D01*
X127988625Y-114385072D01*
X128617466Y-115013913D01*
X128607685Y-115015320D01*
X128476900Y-115075048D01*
X128368239Y-115169202D01*
X128290507Y-115290156D01*
X128266923Y-115370475D01*
X127635073Y-114738625D01*
X127635072Y-114738625D01*
X127576401Y-114822419D01*
X127476570Y-115036507D01*
X127476566Y-115036516D01*
X127415432Y-115264673D01*
X127415430Y-115264684D01*
X127394843Y-115499998D01*
X127394843Y-115500001D01*
X120605157Y-115500001D01*
X120605157Y-115499998D01*
X120584569Y-115264684D01*
X120584567Y-115264673D01*
X120523433Y-115036516D01*
X120523429Y-115036507D01*
X120423600Y-114822423D01*
X120423599Y-114822421D01*
X120364925Y-114738626D01*
X120364925Y-114738625D01*
X119733076Y-115370475D01*
X119709493Y-115290156D01*
X119631761Y-115169202D01*
X119523100Y-115075048D01*
X119392315Y-115015320D01*
X119382533Y-115013913D01*
X120011373Y-114385073D01*
X120011373Y-114385072D01*
X119927583Y-114326402D01*
X119927579Y-114326400D01*
X119713492Y-114226570D01*
X119713483Y-114226566D01*
X119485326Y-114165432D01*
X119485315Y-114165430D01*
X119250002Y-114144843D01*
X119249998Y-114144843D01*
X119014684Y-114165430D01*
X119014673Y-114165432D01*
X118786516Y-114226566D01*
X118786507Y-114226570D01*
X118572419Y-114326401D01*
X118488625Y-114385072D01*
X119117466Y-115013913D01*
X119107685Y-115015320D01*
X118976900Y-115075048D01*
X118868239Y-115169202D01*
X118790507Y-115290156D01*
X118766923Y-115370476D01*
X118135072Y-114738625D01*
X118076401Y-114822419D01*
X117976570Y-115036507D01*
X117976566Y-115036516D01*
X117915432Y-115264673D01*
X117915430Y-115264684D01*
X117894843Y-115499998D01*
X117894843Y-115500001D01*
X114105157Y-115500001D01*
X114105157Y-115499998D01*
X114084569Y-115264684D01*
X114084567Y-115264673D01*
X114023433Y-115036516D01*
X114023429Y-115036507D01*
X113923600Y-114822423D01*
X113923599Y-114822421D01*
X113864925Y-114738626D01*
X113864925Y-114738625D01*
X113233076Y-115370475D01*
X113209493Y-115290156D01*
X113131761Y-115169202D01*
X113023100Y-115075048D01*
X112892315Y-115015320D01*
X112882533Y-115013913D01*
X113511373Y-114385073D01*
X113511373Y-114385072D01*
X113427583Y-114326402D01*
X113427579Y-114326400D01*
X113213492Y-114226570D01*
X113213483Y-114226566D01*
X112985326Y-114165432D01*
X112985315Y-114165430D01*
X112750002Y-114144843D01*
X112749998Y-114144843D01*
X112514684Y-114165430D01*
X112514673Y-114165432D01*
X112286516Y-114226566D01*
X112286507Y-114226570D01*
X112072419Y-114326401D01*
X111988625Y-114385072D01*
X112617466Y-115013913D01*
X112607685Y-115015320D01*
X112476900Y-115075048D01*
X112368239Y-115169202D01*
X112290507Y-115290156D01*
X112266923Y-115370476D01*
X111635072Y-114738625D01*
X111576401Y-114822419D01*
X111476570Y-115036507D01*
X111476566Y-115036516D01*
X111415432Y-115264673D01*
X111415430Y-115264684D01*
X111394843Y-115499998D01*
X111394843Y-115500001D01*
X102057604Y-115500001D01*
X102009018Y-115420390D01*
X101919747Y-115313119D01*
X101835746Y-115212180D01*
X101835740Y-115212175D01*
X101634002Y-115031418D01*
X101408092Y-114881957D01*
X101408090Y-114881956D01*
X101162824Y-114766980D01*
X101162819Y-114766978D01*
X101162814Y-114766976D01*
X100903442Y-114688942D01*
X100903428Y-114688939D01*
X100787791Y-114671921D01*
X100635439Y-114649500D01*
X100432369Y-114649500D01*
X100432364Y-114649500D01*
X100229844Y-114664323D01*
X100229831Y-114664325D01*
X99965453Y-114723217D01*
X99965446Y-114723220D01*
X99712439Y-114819987D01*
X99476226Y-114952557D01*
X99261822Y-115118112D01*
X99073822Y-115313109D01*
X99073816Y-115313116D01*
X98916202Y-115533419D01*
X98916199Y-115533424D01*
X98792350Y-115774309D01*
X98792343Y-115774327D01*
X98704884Y-116030685D01*
X98704881Y-116030699D01*
X98655681Y-116297068D01*
X98655680Y-116297075D01*
X98645787Y-116567763D01*
X97003828Y-116567763D01*
X97003797Y-116567131D01*
X97000575Y-116501513D01*
X97000500Y-116498471D01*
X97000500Y-111897870D01*
X111399500Y-111897870D01*
X111399501Y-111897876D01*
X111405908Y-111957483D01*
X111456202Y-112092328D01*
X111456206Y-112092335D01*
X111542452Y-112207544D01*
X111542455Y-112207547D01*
X111657664Y-112293793D01*
X111657671Y-112293797D01*
X111792517Y-112344091D01*
X111792516Y-112344091D01*
X111799444Y-112344835D01*
X111852127Y-112350500D01*
X113647872Y-112350499D01*
X113707483Y-112344091D01*
X113842331Y-112293796D01*
X113957546Y-112207546D01*
X114043796Y-112092331D01*
X114094091Y-111957483D01*
X114100500Y-111897873D01*
X114100499Y-111000000D01*
X117894341Y-111000000D01*
X117914936Y-111235403D01*
X117914938Y-111235413D01*
X117976094Y-111463655D01*
X117976096Y-111463659D01*
X117976097Y-111463663D01*
X118069038Y-111662975D01*
X118075965Y-111677830D01*
X118075967Y-111677834D01*
X118159456Y-111797067D01*
X118211505Y-111871401D01*
X118378599Y-112038495D01*
X118475384Y-112106265D01*
X118572165Y-112174032D01*
X118572167Y-112174033D01*
X118572170Y-112174035D01*
X118786337Y-112273903D01*
X119014592Y-112335063D01*
X119191034Y-112350500D01*
X119249999Y-112355659D01*
X119250000Y-112355659D01*
X119250001Y-112355659D01*
X119308966Y-112350500D01*
X119485408Y-112335063D01*
X119713663Y-112273903D01*
X119927830Y-112174035D01*
X120121401Y-112038495D01*
X120262026Y-111897870D01*
X127399500Y-111897870D01*
X127399501Y-111897876D01*
X127405908Y-111957483D01*
X127456202Y-112092328D01*
X127456206Y-112092335D01*
X127542452Y-112207544D01*
X127542455Y-112207547D01*
X127657664Y-112293793D01*
X127657671Y-112293797D01*
X127792517Y-112344091D01*
X127792516Y-112344091D01*
X127799444Y-112344835D01*
X127852127Y-112350500D01*
X129647872Y-112350499D01*
X129707483Y-112344091D01*
X129842331Y-112293796D01*
X129957546Y-112207546D01*
X130043796Y-112092331D01*
X130094091Y-111957483D01*
X130100500Y-111897873D01*
X130100499Y-111000000D01*
X133894341Y-111000000D01*
X133914936Y-111235403D01*
X133914938Y-111235413D01*
X133976094Y-111463655D01*
X133976096Y-111463659D01*
X133976097Y-111463663D01*
X134069038Y-111662975D01*
X134075965Y-111677830D01*
X134075967Y-111677834D01*
X134159456Y-111797067D01*
X134211505Y-111871401D01*
X134378599Y-112038495D01*
X134475384Y-112106265D01*
X134572165Y-112174032D01*
X134572167Y-112174033D01*
X134572170Y-112174035D01*
X134786337Y-112273903D01*
X135014592Y-112335063D01*
X135191034Y-112350500D01*
X135249999Y-112355659D01*
X135250000Y-112355659D01*
X135250001Y-112355659D01*
X135308966Y-112350500D01*
X135485408Y-112335063D01*
X135713663Y-112273903D01*
X135927830Y-112174035D01*
X136079602Y-112067763D01*
X138145787Y-112067763D01*
X138175413Y-112337013D01*
X138175415Y-112337024D01*
X138243926Y-112599082D01*
X138243928Y-112599088D01*
X138349870Y-112848390D01*
X138421998Y-112966575D01*
X138490979Y-113079605D01*
X138490986Y-113079615D01*
X138664253Y-113287819D01*
X138664259Y-113287824D01*
X138865998Y-113468582D01*
X139091910Y-113618044D01*
X139337176Y-113733020D01*
X139337183Y-113733022D01*
X139337185Y-113733023D01*
X139596557Y-113811057D01*
X139596564Y-113811058D01*
X139596569Y-113811060D01*
X139864561Y-113850500D01*
X139864566Y-113850500D01*
X140067636Y-113850500D01*
X140119133Y-113846730D01*
X140270156Y-113835677D01*
X140382758Y-113810593D01*
X140534546Y-113776782D01*
X140534548Y-113776781D01*
X140534553Y-113776780D01*
X140787558Y-113680014D01*
X141023777Y-113547441D01*
X141238177Y-113381888D01*
X141426186Y-113186881D01*
X141583799Y-112966579D01*
X141657787Y-112822669D01*
X141707649Y-112725690D01*
X141707651Y-112725684D01*
X141707656Y-112725675D01*
X141795118Y-112469305D01*
X141844319Y-112202933D01*
X141854212Y-111932235D01*
X141850431Y-111897870D01*
X143399500Y-111897870D01*
X143399501Y-111897876D01*
X143405908Y-111957483D01*
X143456202Y-112092328D01*
X143456206Y-112092335D01*
X143542452Y-112207544D01*
X143542455Y-112207547D01*
X143657664Y-112293793D01*
X143657671Y-112293797D01*
X143792517Y-112344091D01*
X143792516Y-112344091D01*
X143799444Y-112344835D01*
X143852127Y-112350500D01*
X145647872Y-112350499D01*
X145707483Y-112344091D01*
X145842331Y-112293796D01*
X145957546Y-112207546D01*
X146043796Y-112092331D01*
X146094091Y-111957483D01*
X146100500Y-111897873D01*
X146100499Y-111000000D01*
X149894341Y-111000000D01*
X149914936Y-111235403D01*
X149914938Y-111235413D01*
X149976094Y-111463655D01*
X149976096Y-111463659D01*
X149976097Y-111463663D01*
X150069038Y-111662975D01*
X150075965Y-111677830D01*
X150075967Y-111677834D01*
X150159456Y-111797067D01*
X150211505Y-111871401D01*
X150378599Y-112038495D01*
X150475384Y-112106265D01*
X150572165Y-112174032D01*
X150572167Y-112174033D01*
X150572170Y-112174035D01*
X150786337Y-112273903D01*
X151014592Y-112335063D01*
X151191034Y-112350500D01*
X151249999Y-112355659D01*
X151250000Y-112355659D01*
X151250001Y-112355659D01*
X151308966Y-112350500D01*
X151485408Y-112335063D01*
X151713663Y-112273903D01*
X151927830Y-112174035D01*
X152121401Y-112038495D01*
X152262026Y-111897870D01*
X159399500Y-111897870D01*
X159399501Y-111897876D01*
X159405908Y-111957483D01*
X159456202Y-112092328D01*
X159456206Y-112092335D01*
X159542452Y-112207544D01*
X159542455Y-112207547D01*
X159657664Y-112293793D01*
X159657671Y-112293797D01*
X159792517Y-112344091D01*
X159792516Y-112344091D01*
X159799444Y-112344835D01*
X159852127Y-112350500D01*
X161647872Y-112350499D01*
X161707483Y-112344091D01*
X161842331Y-112293796D01*
X161957546Y-112207546D01*
X162043796Y-112092331D01*
X162094091Y-111957483D01*
X162100500Y-111897873D01*
X162100499Y-111000000D01*
X165894341Y-111000000D01*
X165914936Y-111235403D01*
X165914938Y-111235413D01*
X165976094Y-111463655D01*
X165976096Y-111463659D01*
X165976097Y-111463663D01*
X166069038Y-111662975D01*
X166075965Y-111677830D01*
X166075967Y-111677834D01*
X166159456Y-111797067D01*
X166211505Y-111871401D01*
X166378599Y-112038495D01*
X166475384Y-112106265D01*
X166572165Y-112174032D01*
X166572167Y-112174033D01*
X166572170Y-112174035D01*
X166786337Y-112273903D01*
X167014592Y-112335063D01*
X167191034Y-112350500D01*
X167249999Y-112355659D01*
X167250000Y-112355659D01*
X167250001Y-112355659D01*
X167308966Y-112350500D01*
X167485408Y-112335063D01*
X167713663Y-112273903D01*
X167927830Y-112174035D01*
X168121401Y-112038495D01*
X168288495Y-111871401D01*
X168424035Y-111677830D01*
X168523903Y-111463663D01*
X168585063Y-111235408D01*
X168605659Y-111000000D01*
X168585063Y-110764592D01*
X168523903Y-110536337D01*
X168424035Y-110322171D01*
X168385388Y-110266976D01*
X168288494Y-110128597D01*
X168121402Y-109961506D01*
X168121395Y-109961501D01*
X167927834Y-109825967D01*
X167927830Y-109825965D01*
X167927828Y-109825964D01*
X167713663Y-109726097D01*
X167713659Y-109726096D01*
X167713655Y-109726094D01*
X167485413Y-109664938D01*
X167485403Y-109664936D01*
X167250001Y-109644341D01*
X167249999Y-109644341D01*
X167014596Y-109664936D01*
X167014586Y-109664938D01*
X166786344Y-109726094D01*
X166786335Y-109726098D01*
X166572171Y-109825964D01*
X166572169Y-109825965D01*
X166378597Y-109961505D01*
X166211505Y-110128597D01*
X166075965Y-110322169D01*
X166075964Y-110322171D01*
X165976098Y-110536335D01*
X165976094Y-110536344D01*
X165914938Y-110764586D01*
X165914936Y-110764596D01*
X165894341Y-110999999D01*
X165894341Y-111000000D01*
X162100499Y-111000000D01*
X162100499Y-110102128D01*
X162094091Y-110042517D01*
X162043796Y-109907669D01*
X162043795Y-109907668D01*
X162043793Y-109907664D01*
X161957547Y-109792455D01*
X161957544Y-109792452D01*
X161842335Y-109706206D01*
X161842328Y-109706202D01*
X161707482Y-109655908D01*
X161707483Y-109655908D01*
X161647883Y-109649501D01*
X161647881Y-109649500D01*
X161647873Y-109649500D01*
X161647864Y-109649500D01*
X159852129Y-109649500D01*
X159852123Y-109649501D01*
X159792516Y-109655908D01*
X159657671Y-109706202D01*
X159657664Y-109706206D01*
X159542455Y-109792452D01*
X159542452Y-109792455D01*
X159456206Y-109907664D01*
X159456202Y-109907671D01*
X159405908Y-110042517D01*
X159399501Y-110102116D01*
X159399501Y-110102123D01*
X159399500Y-110102135D01*
X159399500Y-111897870D01*
X152262026Y-111897870D01*
X152288495Y-111871401D01*
X152424035Y-111677830D01*
X152523903Y-111463663D01*
X152585063Y-111235408D01*
X152605659Y-111000000D01*
X152585063Y-110764592D01*
X152523903Y-110536337D01*
X152424035Y-110322171D01*
X152385388Y-110266976D01*
X152288494Y-110128597D01*
X152121402Y-109961506D01*
X152121395Y-109961501D01*
X151927834Y-109825967D01*
X151927830Y-109825965D01*
X151927828Y-109825964D01*
X151713663Y-109726097D01*
X151713659Y-109726096D01*
X151713655Y-109726094D01*
X151485413Y-109664938D01*
X151485403Y-109664936D01*
X151250001Y-109644341D01*
X151249999Y-109644341D01*
X151014596Y-109664936D01*
X151014586Y-109664938D01*
X150786344Y-109726094D01*
X150786335Y-109726098D01*
X150572171Y-109825964D01*
X150572169Y-109825965D01*
X150378597Y-109961505D01*
X150211505Y-110128597D01*
X150075965Y-110322169D01*
X150075964Y-110322171D01*
X149976098Y-110536335D01*
X149976094Y-110536344D01*
X149914938Y-110764586D01*
X149914936Y-110764596D01*
X149894341Y-110999999D01*
X149894341Y-111000000D01*
X146100499Y-111000000D01*
X146100499Y-110102128D01*
X146094091Y-110042517D01*
X146043796Y-109907669D01*
X146043795Y-109907668D01*
X146043793Y-109907664D01*
X145957547Y-109792455D01*
X145957544Y-109792452D01*
X145842335Y-109706206D01*
X145842328Y-109706202D01*
X145707482Y-109655908D01*
X145707483Y-109655908D01*
X145647883Y-109649501D01*
X145647881Y-109649500D01*
X145647873Y-109649500D01*
X145647864Y-109649500D01*
X143852129Y-109649500D01*
X143852123Y-109649501D01*
X143792516Y-109655908D01*
X143657671Y-109706202D01*
X143657664Y-109706206D01*
X143542455Y-109792452D01*
X143542452Y-109792455D01*
X143456206Y-109907664D01*
X143456202Y-109907671D01*
X143405908Y-110042517D01*
X143399501Y-110102116D01*
X143399501Y-110102123D01*
X143399500Y-110102135D01*
X143399500Y-111897870D01*
X141850431Y-111897870D01*
X141824586Y-111662982D01*
X141756072Y-111400912D01*
X141650130Y-111151610D01*
X141509018Y-110920390D01*
X141419747Y-110813119D01*
X141335746Y-110712180D01*
X141335740Y-110712175D01*
X141134002Y-110531418D01*
X140908092Y-110381957D01*
X140908090Y-110381956D01*
X140662824Y-110266980D01*
X140662819Y-110266978D01*
X140662814Y-110266976D01*
X140403442Y-110188942D01*
X140403428Y-110188939D01*
X140287791Y-110171921D01*
X140135439Y-110149500D01*
X139932369Y-110149500D01*
X139932364Y-110149500D01*
X139729844Y-110164323D01*
X139729831Y-110164325D01*
X139465453Y-110223217D01*
X139465446Y-110223220D01*
X139212439Y-110319987D01*
X138976226Y-110452557D01*
X138761822Y-110618112D01*
X138573822Y-110813109D01*
X138573816Y-110813116D01*
X138416202Y-111033419D01*
X138416199Y-111033424D01*
X138292350Y-111274309D01*
X138292343Y-111274327D01*
X138204884Y-111530685D01*
X138204881Y-111530699D01*
X138155681Y-111797068D01*
X138155680Y-111797075D01*
X138145787Y-112067763D01*
X136079602Y-112067763D01*
X136121401Y-112038495D01*
X136288495Y-111871401D01*
X136424035Y-111677830D01*
X136523903Y-111463663D01*
X136585063Y-111235408D01*
X136605659Y-111000000D01*
X136585063Y-110764592D01*
X136523903Y-110536337D01*
X136424035Y-110322171D01*
X136385388Y-110266976D01*
X136288494Y-110128597D01*
X136121402Y-109961506D01*
X136121395Y-109961501D01*
X135927834Y-109825967D01*
X135927830Y-109825965D01*
X135927828Y-109825964D01*
X135713663Y-109726097D01*
X135713659Y-109726096D01*
X135713655Y-109726094D01*
X135485413Y-109664938D01*
X135485403Y-109664936D01*
X135250001Y-109644341D01*
X135249999Y-109644341D01*
X135014596Y-109664936D01*
X135014586Y-109664938D01*
X134786344Y-109726094D01*
X134786335Y-109726098D01*
X134572171Y-109825964D01*
X134572169Y-109825965D01*
X134378597Y-109961505D01*
X134211505Y-110128597D01*
X134075965Y-110322169D01*
X134075964Y-110322171D01*
X133976098Y-110536335D01*
X133976094Y-110536344D01*
X133914938Y-110764586D01*
X133914936Y-110764596D01*
X133894341Y-110999999D01*
X133894341Y-111000000D01*
X130100499Y-111000000D01*
X130100499Y-110102128D01*
X130094091Y-110042517D01*
X130043796Y-109907669D01*
X130043795Y-109907668D01*
X130043793Y-109907664D01*
X129957547Y-109792455D01*
X129957544Y-109792452D01*
X129842335Y-109706206D01*
X129842328Y-109706202D01*
X129707482Y-109655908D01*
X129707483Y-109655908D01*
X129647883Y-109649501D01*
X129647881Y-109649500D01*
X129647873Y-109649500D01*
X129647864Y-109649500D01*
X127852129Y-109649500D01*
X127852123Y-109649501D01*
X127792516Y-109655908D01*
X127657671Y-109706202D01*
X127657664Y-109706206D01*
X127542455Y-109792452D01*
X127542452Y-109792455D01*
X127456206Y-109907664D01*
X127456202Y-109907671D01*
X127405908Y-110042517D01*
X127399501Y-110102116D01*
X127399501Y-110102123D01*
X127399500Y-110102135D01*
X127399500Y-111897870D01*
X120262026Y-111897870D01*
X120288495Y-111871401D01*
X120424035Y-111677830D01*
X120523903Y-111463663D01*
X120585063Y-111235408D01*
X120605659Y-111000000D01*
X120585063Y-110764592D01*
X120523903Y-110536337D01*
X120424035Y-110322171D01*
X120385388Y-110266976D01*
X120288494Y-110128597D01*
X120121402Y-109961506D01*
X120121395Y-109961501D01*
X119927834Y-109825967D01*
X119927830Y-109825965D01*
X119927828Y-109825964D01*
X119713663Y-109726097D01*
X119713659Y-109726096D01*
X119713655Y-109726094D01*
X119485413Y-109664938D01*
X119485403Y-109664936D01*
X119250001Y-109644341D01*
X119249999Y-109644341D01*
X119014596Y-109664936D01*
X119014586Y-109664938D01*
X118786344Y-109726094D01*
X118786335Y-109726098D01*
X118572171Y-109825964D01*
X118572169Y-109825965D01*
X118378597Y-109961505D01*
X118211505Y-110128597D01*
X118075965Y-110322169D01*
X118075964Y-110322171D01*
X117976098Y-110536335D01*
X117976094Y-110536344D01*
X117914938Y-110764586D01*
X117914936Y-110764596D01*
X117894341Y-110999999D01*
X117894341Y-111000000D01*
X114100499Y-111000000D01*
X114100499Y-110102128D01*
X114094091Y-110042517D01*
X114043796Y-109907669D01*
X114043795Y-109907668D01*
X114043793Y-109907664D01*
X113957547Y-109792455D01*
X113957544Y-109792452D01*
X113842335Y-109706206D01*
X113842328Y-109706202D01*
X113707482Y-109655908D01*
X113707483Y-109655908D01*
X113647883Y-109649501D01*
X113647881Y-109649500D01*
X113647873Y-109649500D01*
X113647864Y-109649500D01*
X111852129Y-109649500D01*
X111852123Y-109649501D01*
X111792516Y-109655908D01*
X111657671Y-109706202D01*
X111657664Y-109706206D01*
X111542455Y-109792452D01*
X111542452Y-109792455D01*
X111456206Y-109907664D01*
X111456202Y-109907671D01*
X111405908Y-110042517D01*
X111399501Y-110102116D01*
X111399501Y-110102123D01*
X111399500Y-110102135D01*
X111399500Y-111897870D01*
X97000500Y-111897870D01*
X97000500Y-108897870D01*
X100649500Y-108897870D01*
X100649501Y-108897876D01*
X100655908Y-108957483D01*
X100706202Y-109092328D01*
X100706206Y-109092335D01*
X100792452Y-109207544D01*
X100792455Y-109207547D01*
X100907664Y-109293793D01*
X100907671Y-109293797D01*
X101042517Y-109344091D01*
X101042516Y-109344091D01*
X101049444Y-109344835D01*
X101102127Y-109350500D01*
X102897872Y-109350499D01*
X102957483Y-109344091D01*
X103092331Y-109293796D01*
X103207546Y-109207546D01*
X103293796Y-109092331D01*
X103344091Y-108957483D01*
X103350500Y-108897873D01*
X103350499Y-107102128D01*
X103344091Y-107042517D01*
X103293796Y-106907669D01*
X103293795Y-106907668D01*
X103293793Y-106907664D01*
X103207547Y-106792455D01*
X103207544Y-106792452D01*
X103092335Y-106706206D01*
X103092328Y-106706202D01*
X102960401Y-106656997D01*
X102904467Y-106615126D01*
X102880050Y-106549662D01*
X102894902Y-106481389D01*
X102916053Y-106453133D01*
X102959182Y-106410004D01*
X119384859Y-106410004D01*
X119405385Y-106657728D01*
X119405387Y-106657737D01*
X119466412Y-106898716D01*
X119566266Y-107126363D01*
X119666564Y-107279881D01*
X120406923Y-106539522D01*
X120430507Y-106619843D01*
X120508239Y-106740797D01*
X120616900Y-106834951D01*
X120747685Y-106894679D01*
X120757466Y-106896085D01*
X120019942Y-107633608D01*
X120066768Y-107670054D01*
X120066770Y-107670055D01*
X120285385Y-107788363D01*
X120285396Y-107788368D01*
X120520506Y-107869082D01*
X120765707Y-107909999D01*
X121014293Y-107909999D01*
X121259493Y-107869082D01*
X121494603Y-107788368D01*
X121494614Y-107788363D01*
X121713228Y-107670056D01*
X121713231Y-107670054D01*
X121760056Y-107633608D01*
X121022533Y-106896085D01*
X121032315Y-106894679D01*
X121163100Y-106834951D01*
X121271761Y-106740797D01*
X121349493Y-106619843D01*
X121373076Y-106539523D01*
X122113433Y-107279880D01*
X122147211Y-107276378D01*
X122172794Y-107276379D01*
X122206564Y-107279881D01*
X122946923Y-106539522D01*
X122970507Y-106619843D01*
X123048239Y-106740797D01*
X123156900Y-106834951D01*
X123287685Y-106894679D01*
X123297466Y-106896085D01*
X122559942Y-107633608D01*
X122606768Y-107670054D01*
X122606770Y-107670055D01*
X122825385Y-107788363D01*
X122825396Y-107788368D01*
X123060506Y-107869082D01*
X123305707Y-107909999D01*
X123554293Y-107909999D01*
X123799493Y-107869082D01*
X124034603Y-107788368D01*
X124034614Y-107788363D01*
X124253228Y-107670056D01*
X124253231Y-107670054D01*
X124300056Y-107633608D01*
X123562533Y-106896085D01*
X123572315Y-106894679D01*
X123703100Y-106834951D01*
X123811761Y-106740797D01*
X123889493Y-106619843D01*
X123913076Y-106539523D01*
X124653434Y-107279881D01*
X124664861Y-107278696D01*
X124733573Y-107291359D01*
X124778092Y-107331193D01*
X124778683Y-107330734D01*
X124781218Y-107333991D01*
X124781456Y-107334204D01*
X124781831Y-107334779D01*
X124781836Y-107334784D01*
X124950256Y-107517737D01*
X125146491Y-107670473D01*
X125146493Y-107670474D01*
X125364332Y-107788363D01*
X125365190Y-107788827D01*
X125584141Y-107863993D01*
X125598964Y-107869082D01*
X125600386Y-107869570D01*
X125845665Y-107910499D01*
X126094335Y-107910499D01*
X126339614Y-107869570D01*
X126574810Y-107788827D01*
X126793509Y-107670473D01*
X126989744Y-107517737D01*
X127148771Y-107344987D01*
X127208657Y-107308998D01*
X127278495Y-107311098D01*
X127331228Y-107344987D01*
X127490256Y-107517737D01*
X127686491Y-107670473D01*
X127686493Y-107670474D01*
X127904332Y-107788363D01*
X127905190Y-107788827D01*
X128124141Y-107863993D01*
X128138964Y-107869082D01*
X128140386Y-107869570D01*
X128385665Y-107910499D01*
X128634335Y-107910499D01*
X128879614Y-107869570D01*
X129114810Y-107788827D01*
X129333509Y-107670473D01*
X129529744Y-107517737D01*
X129688771Y-107344987D01*
X129748657Y-107308998D01*
X129818495Y-107311098D01*
X129871228Y-107344987D01*
X130030256Y-107517737D01*
X130226491Y-107670473D01*
X130226493Y-107670474D01*
X130444332Y-107788363D01*
X130445190Y-107788827D01*
X130664141Y-107863993D01*
X130678964Y-107869082D01*
X130680386Y-107869570D01*
X130925665Y-107910499D01*
X131174335Y-107910499D01*
X131419614Y-107869570D01*
X131654810Y-107788827D01*
X131873509Y-107670473D01*
X132069744Y-107517737D01*
X132228771Y-107344987D01*
X132288657Y-107308998D01*
X132358495Y-107311098D01*
X132411228Y-107344987D01*
X132570256Y-107517737D01*
X132766491Y-107670473D01*
X132766493Y-107670474D01*
X132984332Y-107788363D01*
X132985190Y-107788827D01*
X133204141Y-107863993D01*
X133218964Y-107869082D01*
X133220386Y-107869570D01*
X133465665Y-107910499D01*
X133714335Y-107910499D01*
X133959614Y-107869570D01*
X134194810Y-107788827D01*
X134413509Y-107670473D01*
X134609744Y-107517737D01*
X134768771Y-107344987D01*
X134828657Y-107308998D01*
X134898495Y-107311098D01*
X134951228Y-107344987D01*
X135110256Y-107517737D01*
X135306491Y-107670473D01*
X135306493Y-107670474D01*
X135524332Y-107788363D01*
X135525190Y-107788827D01*
X135744141Y-107863993D01*
X135758964Y-107869082D01*
X135760386Y-107869570D01*
X136005665Y-107910499D01*
X136254335Y-107910499D01*
X136499614Y-107869570D01*
X136734810Y-107788827D01*
X136953509Y-107670473D01*
X137149744Y-107517737D01*
X137308771Y-107344987D01*
X137368657Y-107308998D01*
X137438495Y-107311098D01*
X137491228Y-107344987D01*
X137650256Y-107517737D01*
X137846491Y-107670473D01*
X137846493Y-107670474D01*
X138064332Y-107788363D01*
X138065190Y-107788827D01*
X138284141Y-107863993D01*
X138298964Y-107869082D01*
X138300386Y-107869570D01*
X138545665Y-107910499D01*
X138794335Y-107910499D01*
X139039614Y-107869570D01*
X139274810Y-107788827D01*
X139493509Y-107670473D01*
X139689744Y-107517737D01*
X139848771Y-107344987D01*
X139908657Y-107308998D01*
X139978495Y-107311098D01*
X140031228Y-107344987D01*
X140190256Y-107517737D01*
X140386491Y-107670473D01*
X140386493Y-107670474D01*
X140604332Y-107788363D01*
X140605190Y-107788827D01*
X140824141Y-107863993D01*
X140838964Y-107869082D01*
X140840386Y-107869570D01*
X141085665Y-107910499D01*
X141334335Y-107910499D01*
X141579614Y-107869570D01*
X141814810Y-107788827D01*
X142033509Y-107670473D01*
X142229744Y-107517737D01*
X142398164Y-107334784D01*
X142398533Y-107334218D01*
X142398745Y-107334037D01*
X142401322Y-107330728D01*
X142402002Y-107331257D01*
X142451676Y-107288859D01*
X142515138Y-107278696D01*
X142526564Y-107279881D01*
X143266923Y-106539522D01*
X143290507Y-106619843D01*
X143368239Y-106740797D01*
X143476900Y-106834951D01*
X143607685Y-106894679D01*
X143617466Y-106896085D01*
X142879942Y-107633608D01*
X142926768Y-107670054D01*
X142926770Y-107670055D01*
X143145385Y-107788363D01*
X143145396Y-107788368D01*
X143380506Y-107869082D01*
X143625707Y-107909999D01*
X143874293Y-107909999D01*
X144119493Y-107869082D01*
X144354603Y-107788368D01*
X144354614Y-107788363D01*
X144573228Y-107670056D01*
X144573231Y-107670054D01*
X144620056Y-107633608D01*
X143882533Y-106896085D01*
X143892315Y-106894679D01*
X144023100Y-106834951D01*
X144131761Y-106740797D01*
X144209493Y-106619843D01*
X144233076Y-106539523D01*
X144973433Y-107279880D01*
X145007211Y-107276378D01*
X145032794Y-107276379D01*
X145066564Y-107279881D01*
X145806923Y-106539522D01*
X145830507Y-106619843D01*
X145908239Y-106740797D01*
X146016900Y-106834951D01*
X146147685Y-106894679D01*
X146157466Y-106896085D01*
X145419942Y-107633608D01*
X145466768Y-107670054D01*
X145466770Y-107670055D01*
X145685385Y-107788363D01*
X145685396Y-107788368D01*
X145920506Y-107869082D01*
X146165707Y-107909999D01*
X146414293Y-107909999D01*
X146659493Y-107869082D01*
X146894603Y-107788368D01*
X146894614Y-107788363D01*
X147113228Y-107670056D01*
X147113231Y-107670054D01*
X147160056Y-107633608D01*
X146422533Y-106896085D01*
X146432315Y-106894679D01*
X146563100Y-106834951D01*
X146671761Y-106740797D01*
X146749493Y-106619843D01*
X146773076Y-106539523D01*
X147513434Y-107279881D01*
X147524861Y-107278696D01*
X147593573Y-107291359D01*
X147638092Y-107331193D01*
X147638683Y-107330734D01*
X147641218Y-107333991D01*
X147641456Y-107334204D01*
X147641831Y-107334779D01*
X147641836Y-107334784D01*
X147810256Y-107517737D01*
X148006491Y-107670473D01*
X148006493Y-107670474D01*
X148224332Y-107788363D01*
X148225190Y-107788827D01*
X148444141Y-107863993D01*
X148458964Y-107869082D01*
X148460386Y-107869570D01*
X148705665Y-107910499D01*
X148954335Y-107910499D01*
X149199614Y-107869570D01*
X149434810Y-107788827D01*
X149653509Y-107670473D01*
X149849744Y-107517737D01*
X150018164Y-107334784D01*
X150154173Y-107126606D01*
X150254063Y-106898880D01*
X150315108Y-106657820D01*
X150315176Y-106656997D01*
X150335643Y-106410004D01*
X150335643Y-106409993D01*
X150315109Y-106162186D01*
X150315107Y-106162174D01*
X150254063Y-105921117D01*
X150154173Y-105693392D01*
X150018166Y-105485216D01*
X149928774Y-105388111D01*
X149849744Y-105302261D01*
X149653509Y-105149525D01*
X149653507Y-105149524D01*
X149653506Y-105149523D01*
X149434811Y-105031171D01*
X149434802Y-105031168D01*
X149199616Y-104950428D01*
X148954335Y-104909499D01*
X148705665Y-104909499D01*
X148460383Y-104950428D01*
X148225197Y-105031168D01*
X148225188Y-105031171D01*
X148006493Y-105149523D01*
X147810257Y-105302260D01*
X147641837Y-105485212D01*
X147641829Y-105485223D01*
X147641455Y-105485796D01*
X147641242Y-105485977D01*
X147638690Y-105489257D01*
X147638014Y-105488731D01*
X147588304Y-105531146D01*
X147524865Y-105541301D01*
X147513434Y-105540115D01*
X146773076Y-106280474D01*
X146749493Y-106200155D01*
X146671761Y-106079201D01*
X146563100Y-105985047D01*
X146432315Y-105925319D01*
X146422534Y-105923912D01*
X147160057Y-105186389D01*
X147160056Y-105186388D01*
X147113229Y-105149942D01*
X146894614Y-105031634D01*
X146894603Y-105031629D01*
X146659493Y-104950915D01*
X146414293Y-104909999D01*
X146165707Y-104909999D01*
X145920506Y-104950915D01*
X145685396Y-105031629D01*
X145685390Y-105031631D01*
X145466761Y-105149948D01*
X145419942Y-105186387D01*
X145419942Y-105186389D01*
X146157466Y-105923912D01*
X146147685Y-105925319D01*
X146016900Y-105985047D01*
X145908239Y-106079201D01*
X145830507Y-106200155D01*
X145806923Y-106280475D01*
X145066562Y-105540114D01*
X145032794Y-105543617D01*
X145007211Y-105543617D01*
X144973435Y-105540114D01*
X144233076Y-106280474D01*
X144209493Y-106200155D01*
X144131761Y-106079201D01*
X144023100Y-105985047D01*
X143892315Y-105925319D01*
X143882534Y-105923912D01*
X144620057Y-105186389D01*
X144620056Y-105186388D01*
X144573229Y-105149942D01*
X144354614Y-105031634D01*
X144354603Y-105031629D01*
X144119493Y-104950915D01*
X143874293Y-104909999D01*
X143625707Y-104909999D01*
X143380506Y-104950915D01*
X143145396Y-105031629D01*
X143145390Y-105031631D01*
X142926761Y-105149948D01*
X142879942Y-105186387D01*
X142879942Y-105186389D01*
X143617466Y-105923912D01*
X143607685Y-105925319D01*
X143476900Y-105985047D01*
X143368239Y-106079201D01*
X143290507Y-106200155D01*
X143266923Y-106280474D01*
X142526564Y-105540115D01*
X142515135Y-105541301D01*
X142446423Y-105528636D01*
X142401910Y-105488801D01*
X142401317Y-105489264D01*
X142398768Y-105485990D01*
X142398535Y-105485781D01*
X142398166Y-105485217D01*
X142398165Y-105485216D01*
X142398164Y-105485214D01*
X142229744Y-105302261D01*
X142033509Y-105149525D01*
X142033507Y-105149524D01*
X142033506Y-105149523D01*
X141814811Y-105031171D01*
X141814802Y-105031168D01*
X141579616Y-104950428D01*
X141334335Y-104909499D01*
X141085665Y-104909499D01*
X140840383Y-104950428D01*
X140605197Y-105031168D01*
X140605188Y-105031171D01*
X140386493Y-105149523D01*
X140190257Y-105302260D01*
X140031230Y-105475009D01*
X139971342Y-105511000D01*
X139901504Y-105508899D01*
X139848770Y-105475009D01*
X139768774Y-105388111D01*
X139689744Y-105302261D01*
X139493509Y-105149525D01*
X139493507Y-105149524D01*
X139493506Y-105149523D01*
X139274811Y-105031171D01*
X139274802Y-105031168D01*
X139039616Y-104950428D01*
X138794335Y-104909499D01*
X138545665Y-104909499D01*
X138300383Y-104950428D01*
X138065197Y-105031168D01*
X138065188Y-105031171D01*
X137846493Y-105149523D01*
X137650257Y-105302260D01*
X137491230Y-105475009D01*
X137431342Y-105511000D01*
X137361504Y-105508899D01*
X137308770Y-105475009D01*
X137228774Y-105388111D01*
X137149744Y-105302261D01*
X136953509Y-105149525D01*
X136953507Y-105149524D01*
X136953506Y-105149523D01*
X136734811Y-105031171D01*
X136734802Y-105031168D01*
X136499616Y-104950428D01*
X136254335Y-104909499D01*
X136005665Y-104909499D01*
X135760383Y-104950428D01*
X135525197Y-105031168D01*
X135525188Y-105031171D01*
X135306493Y-105149523D01*
X135110257Y-105302260D01*
X134951230Y-105475009D01*
X134891342Y-105511000D01*
X134821504Y-105508899D01*
X134768770Y-105475009D01*
X134688774Y-105388111D01*
X134609744Y-105302261D01*
X134413509Y-105149525D01*
X134413507Y-105149524D01*
X134413506Y-105149523D01*
X134194811Y-105031171D01*
X134194802Y-105031168D01*
X133959616Y-104950428D01*
X133714335Y-104909499D01*
X133465665Y-104909499D01*
X133220383Y-104950428D01*
X132985197Y-105031168D01*
X132985188Y-105031171D01*
X132766493Y-105149523D01*
X132570257Y-105302260D01*
X132411230Y-105475009D01*
X132351342Y-105511000D01*
X132281504Y-105508899D01*
X132228770Y-105475009D01*
X132148774Y-105388111D01*
X132069744Y-105302261D01*
X131873509Y-105149525D01*
X131873507Y-105149524D01*
X131873506Y-105149523D01*
X131654811Y-105031171D01*
X131654802Y-105031168D01*
X131419616Y-104950428D01*
X131174335Y-104909499D01*
X130925665Y-104909499D01*
X130680383Y-104950428D01*
X130445197Y-105031168D01*
X130445188Y-105031171D01*
X130226493Y-105149523D01*
X130030257Y-105302260D01*
X129871230Y-105475009D01*
X129811342Y-105511000D01*
X129741504Y-105508899D01*
X129688770Y-105475009D01*
X129608774Y-105388111D01*
X129529744Y-105302261D01*
X129333509Y-105149525D01*
X129333507Y-105149524D01*
X129333506Y-105149523D01*
X129114811Y-105031171D01*
X129114802Y-105031168D01*
X128879616Y-104950428D01*
X128634335Y-104909499D01*
X128385665Y-104909499D01*
X128140383Y-104950428D01*
X127905197Y-105031168D01*
X127905188Y-105031171D01*
X127686493Y-105149523D01*
X127490257Y-105302260D01*
X127331230Y-105475009D01*
X127271342Y-105511000D01*
X127201504Y-105508899D01*
X127148770Y-105475009D01*
X127068774Y-105388111D01*
X126989744Y-105302261D01*
X126793509Y-105149525D01*
X126793507Y-105149524D01*
X126793506Y-105149523D01*
X126574811Y-105031171D01*
X126574802Y-105031168D01*
X126339616Y-104950428D01*
X126094335Y-104909499D01*
X125845665Y-104909499D01*
X125600383Y-104950428D01*
X125365197Y-105031168D01*
X125365188Y-105031171D01*
X125146493Y-105149523D01*
X124950257Y-105302260D01*
X124781837Y-105485212D01*
X124781829Y-105485223D01*
X124781455Y-105485796D01*
X124781242Y-105485977D01*
X124778690Y-105489257D01*
X124778014Y-105488731D01*
X124728304Y-105531146D01*
X124664865Y-105541301D01*
X124653434Y-105540115D01*
X123913076Y-106280474D01*
X123889493Y-106200155D01*
X123811761Y-106079201D01*
X123703100Y-105985047D01*
X123572315Y-105925319D01*
X123562534Y-105923912D01*
X124300057Y-105186389D01*
X124300056Y-105186388D01*
X124253229Y-105149942D01*
X124034614Y-105031634D01*
X124034603Y-105031629D01*
X123799493Y-104950915D01*
X123554293Y-104909999D01*
X123305707Y-104909999D01*
X123060506Y-104950915D01*
X122825396Y-105031629D01*
X122825390Y-105031631D01*
X122606761Y-105149948D01*
X122559942Y-105186387D01*
X122559942Y-105186389D01*
X123297466Y-105923912D01*
X123287685Y-105925319D01*
X123156900Y-105985047D01*
X123048239Y-106079201D01*
X122970507Y-106200155D01*
X122946923Y-106280475D01*
X122206562Y-105540114D01*
X122172794Y-105543617D01*
X122147211Y-105543617D01*
X122113435Y-105540114D01*
X121373076Y-106280474D01*
X121349493Y-106200155D01*
X121271761Y-106079201D01*
X121163100Y-105985047D01*
X121032315Y-105925319D01*
X121022534Y-105923912D01*
X121760057Y-105186389D01*
X121760056Y-105186388D01*
X121713229Y-105149942D01*
X121494614Y-105031634D01*
X121494603Y-105031629D01*
X121259493Y-104950915D01*
X121014293Y-104909999D01*
X120765707Y-104909999D01*
X120520506Y-104950915D01*
X120285396Y-105031629D01*
X120285390Y-105031631D01*
X120066761Y-105149948D01*
X120019942Y-105186387D01*
X120019942Y-105186389D01*
X120757466Y-105923912D01*
X120747685Y-105925319D01*
X120616900Y-105985047D01*
X120508239Y-106079201D01*
X120430507Y-106200155D01*
X120406923Y-106280474D01*
X119666564Y-105540115D01*
X119566267Y-105693631D01*
X119466412Y-105921281D01*
X119405387Y-106162260D01*
X119405385Y-106162269D01*
X119384859Y-106409993D01*
X119384859Y-106410004D01*
X102959182Y-106410004D01*
X103038108Y-106331078D01*
X103173600Y-106137578D01*
X103273429Y-105923492D01*
X103273432Y-105923486D01*
X103330636Y-105710000D01*
X102433686Y-105710000D01*
X102459493Y-105669844D01*
X102500000Y-105531889D01*
X102500000Y-105388111D01*
X102459493Y-105250156D01*
X102433686Y-105210000D01*
X103330636Y-105210000D01*
X103330635Y-105209999D01*
X103273432Y-104996513D01*
X103273429Y-104996507D01*
X103173600Y-104782422D01*
X103173599Y-104782420D01*
X103038113Y-104588926D01*
X103038108Y-104588920D01*
X102871082Y-104421894D01*
X102677578Y-104286399D01*
X102463492Y-104186570D01*
X102463486Y-104186567D01*
X102250000Y-104129364D01*
X102250000Y-105024498D01*
X102142315Y-104975320D01*
X102035763Y-104960000D01*
X101964237Y-104960000D01*
X101857685Y-104975320D01*
X101750000Y-105024498D01*
X101750000Y-104129364D01*
X101749999Y-104129364D01*
X101536513Y-104186567D01*
X101536507Y-104186570D01*
X101322422Y-104286399D01*
X101322420Y-104286400D01*
X101128926Y-104421886D01*
X101128920Y-104421891D01*
X100961891Y-104588920D01*
X100961886Y-104588926D01*
X100826400Y-104782420D01*
X100826399Y-104782422D01*
X100726570Y-104996507D01*
X100726567Y-104996513D01*
X100669364Y-105209999D01*
X100669364Y-105210000D01*
X101566314Y-105210000D01*
X101540507Y-105250156D01*
X101500000Y-105388111D01*
X101500000Y-105531889D01*
X101540507Y-105669844D01*
X101566314Y-105710000D01*
X100669364Y-105710000D01*
X100726567Y-105923486D01*
X100726570Y-105923492D01*
X100826399Y-106137578D01*
X100961894Y-106331082D01*
X101083946Y-106453134D01*
X101117431Y-106514457D01*
X101112447Y-106584149D01*
X101070575Y-106640082D01*
X101039598Y-106656997D01*
X100907671Y-106706202D01*
X100907664Y-106706206D01*
X100792455Y-106792452D01*
X100792452Y-106792455D01*
X100706206Y-106907664D01*
X100706202Y-106907671D01*
X100655908Y-107042517D01*
X100649501Y-107102116D01*
X100649501Y-107102123D01*
X100649500Y-107102135D01*
X100649500Y-108897870D01*
X97000500Y-108897870D01*
X97000500Y-99640346D01*
X101795702Y-99640346D01*
X101805819Y-99878528D01*
X101805819Y-99878532D01*
X101856045Y-100111580D01*
X101944935Y-100332788D01*
X101944936Y-100332790D01*
X102069931Y-100535795D01*
X102227436Y-100714755D01*
X102412920Y-100864523D01*
X102621046Y-100980790D01*
X102746951Y-101025275D01*
X102845829Y-101060211D01*
X103080790Y-101100499D01*
X103080798Y-101100499D01*
X103080800Y-101100500D01*
X103080801Y-101100500D01*
X104859502Y-101100500D01*
X105037536Y-101085347D01*
X105037539Y-101085346D01*
X105037541Y-101085346D01*
X105268249Y-101025275D01*
X105400973Y-100965279D01*
X105485480Y-100927080D01*
X105485481Y-100927078D01*
X105485486Y-100927077D01*
X105683003Y-100793579D01*
X105855118Y-100628621D01*
X105996879Y-100436947D01*
X106104207Y-100224074D01*
X106174016Y-99996123D01*
X106204298Y-99759654D01*
X106194180Y-99521468D01*
X106143954Y-99288419D01*
X106055064Y-99067210D01*
X105930069Y-98864205D01*
X105772564Y-98685245D01*
X105587080Y-98535477D01*
X105473130Y-98471820D01*
X105378955Y-98419210D01*
X105154170Y-98339788D01*
X104919209Y-98299500D01*
X104919200Y-98299500D01*
X103140503Y-98299500D01*
X103140498Y-98299500D01*
X102962463Y-98314652D01*
X102731751Y-98374724D01*
X102514519Y-98472919D01*
X102514511Y-98472924D01*
X102317006Y-98606413D01*
X102316997Y-98606421D01*
X102144881Y-98771379D01*
X102003123Y-98963050D01*
X102003120Y-98963054D01*
X101895796Y-99175920D01*
X101895793Y-99175926D01*
X101825983Y-99403878D01*
X101795702Y-99640346D01*
X97000500Y-99640346D01*
X97000500Y-94940346D01*
X101795702Y-94940346D01*
X101805819Y-95178528D01*
X101805819Y-95178532D01*
X101856045Y-95411580D01*
X101944935Y-95632788D01*
X101944936Y-95632790D01*
X102069931Y-95835795D01*
X102227436Y-96014755D01*
X102412920Y-96164523D01*
X102621046Y-96280790D01*
X102746951Y-96325275D01*
X102845829Y-96360211D01*
X103080790Y-96400499D01*
X103080798Y-96400499D01*
X103080800Y-96400500D01*
X103080801Y-96400500D01*
X104859502Y-96400500D01*
X105037536Y-96385347D01*
X105037539Y-96385346D01*
X105037541Y-96385346D01*
X105268249Y-96325275D01*
X105400973Y-96265279D01*
X105485480Y-96227080D01*
X105485481Y-96227078D01*
X105485486Y-96227077D01*
X105683003Y-96093579D01*
X105855118Y-95928621D01*
X105996879Y-95736947D01*
X106104207Y-95524074D01*
X106174016Y-95296123D01*
X106204298Y-95059654D01*
X106194180Y-94821468D01*
X106143954Y-94588419D01*
X106055064Y-94367210D01*
X105930069Y-94164205D01*
X105772564Y-93985245D01*
X105587080Y-93835477D01*
X105473130Y-93771820D01*
X105378955Y-93719210D01*
X105154170Y-93639788D01*
X104919209Y-93599500D01*
X104919200Y-93599500D01*
X103140503Y-93599500D01*
X103140498Y-93599500D01*
X102962463Y-93614652D01*
X102731751Y-93674724D01*
X102514519Y-93772919D01*
X102514511Y-93772924D01*
X102317006Y-93906413D01*
X102316997Y-93906421D01*
X102144881Y-94071379D01*
X102003123Y-94263050D01*
X102003120Y-94263054D01*
X101895796Y-94475920D01*
X101895793Y-94475926D01*
X101825983Y-94703878D01*
X101795702Y-94940346D01*
X97000500Y-94940346D01*
X97000500Y-90240346D01*
X101795702Y-90240346D01*
X101805819Y-90478528D01*
X101805819Y-90478532D01*
X101856045Y-90711580D01*
X101944935Y-90932788D01*
X101944936Y-90932790D01*
X102069931Y-91135795D01*
X102227436Y-91314755D01*
X102412920Y-91464523D01*
X102621046Y-91580790D01*
X102746951Y-91625275D01*
X102845829Y-91660211D01*
X103080790Y-91700499D01*
X103080798Y-91700499D01*
X103080800Y-91700500D01*
X103080801Y-91700500D01*
X104859502Y-91700500D01*
X105037536Y-91685347D01*
X105037539Y-91685346D01*
X105037541Y-91685346D01*
X105268249Y-91625275D01*
X105400973Y-91565279D01*
X105485480Y-91527080D01*
X105485481Y-91527078D01*
X105485486Y-91527077D01*
X105683003Y-91393579D01*
X105855118Y-91228621D01*
X105996879Y-91036947D01*
X106104207Y-90824074D01*
X106174016Y-90596123D01*
X106204298Y-90359654D01*
X106194180Y-90121468D01*
X106143954Y-89888419D01*
X106055064Y-89667210D01*
X105930069Y-89464205D01*
X105772564Y-89285245D01*
X105587080Y-89135477D01*
X105473130Y-89071820D01*
X105378955Y-89019210D01*
X105154170Y-88939788D01*
X104919209Y-88899500D01*
X104919200Y-88899500D01*
X103140503Y-88899500D01*
X103140498Y-88899500D01*
X102962463Y-88914652D01*
X102731751Y-88974724D01*
X102514519Y-89072919D01*
X102514511Y-89072924D01*
X102317006Y-89206413D01*
X102316997Y-89206421D01*
X102144881Y-89371379D01*
X102003123Y-89563050D01*
X102003120Y-89563054D01*
X101895796Y-89775920D01*
X101895793Y-89775926D01*
X101825983Y-90003878D01*
X101795702Y-90240346D01*
X97000500Y-90240346D01*
X97000500Y-78000005D01*
X107595202Y-78000005D01*
X107614361Y-78231218D01*
X107671317Y-78456135D01*
X107764516Y-78668609D01*
X107848811Y-78797633D01*
X108516922Y-78129523D01*
X108540507Y-78209844D01*
X108618239Y-78330798D01*
X108726900Y-78424952D01*
X108857685Y-78484680D01*
X108867466Y-78486086D01*
X108201199Y-79152351D01*
X108231650Y-79176050D01*
X108435697Y-79286476D01*
X108435706Y-79286479D01*
X108655139Y-79361811D01*
X108883993Y-79400000D01*
X109116007Y-79400000D01*
X109344860Y-79361811D01*
X109564293Y-79286479D01*
X109564302Y-79286476D01*
X109768350Y-79176050D01*
X109798798Y-79152351D01*
X109132533Y-78486086D01*
X109142315Y-78484680D01*
X109273100Y-78424952D01*
X109381761Y-78330798D01*
X109459493Y-78209844D01*
X109483076Y-78129524D01*
X110151186Y-78797634D01*
X110155969Y-78797138D01*
X110199037Y-78760381D01*
X110268269Y-78750957D01*
X110331605Y-78780458D01*
X110353510Y-78805738D01*
X110391016Y-78863147D01*
X110391019Y-78863151D01*
X110391021Y-78863153D01*
X110548216Y-79033913D01*
X110548219Y-79033915D01*
X110548222Y-79033918D01*
X110731365Y-79176464D01*
X110731371Y-79176468D01*
X110731374Y-79176470D01*
X110872889Y-79253054D01*
X110934652Y-79286479D01*
X110935497Y-79286936D01*
X111017676Y-79315148D01*
X111155015Y-79362297D01*
X111155017Y-79362297D01*
X111155019Y-79362298D01*
X111383951Y-79400500D01*
X111383952Y-79400500D01*
X111616048Y-79400500D01*
X111616049Y-79400500D01*
X111844981Y-79362298D01*
X112064503Y-79286936D01*
X112268626Y-79176470D01*
X112281151Y-79166722D01*
X112330129Y-79128600D01*
X112451784Y-79033913D01*
X112608979Y-78863153D01*
X112646191Y-78806196D01*
X112699337Y-78760839D01*
X112768569Y-78751415D01*
X112831904Y-78780917D01*
X112853809Y-78806196D01*
X112891016Y-78863147D01*
X112891019Y-78863151D01*
X112891021Y-78863153D01*
X113048216Y-79033913D01*
X113048219Y-79033915D01*
X113048222Y-79033918D01*
X113231365Y-79176464D01*
X113231371Y-79176468D01*
X113231374Y-79176470D01*
X113372889Y-79253054D01*
X113434652Y-79286479D01*
X113435497Y-79286936D01*
X113517676Y-79315148D01*
X113655015Y-79362297D01*
X113655017Y-79362297D01*
X113655019Y-79362298D01*
X113883951Y-79400500D01*
X113883952Y-79400500D01*
X114116048Y-79400500D01*
X114116049Y-79400500D01*
X114344981Y-79362298D01*
X114564503Y-79286936D01*
X114768626Y-79176470D01*
X114781151Y-79166722D01*
X114830129Y-79128600D01*
X114951784Y-79033913D01*
X115108979Y-78863153D01*
X115160594Y-78784151D01*
X115227542Y-78681679D01*
X115280689Y-78636322D01*
X115331351Y-78625500D01*
X120140500Y-78625500D01*
X120207539Y-78645185D01*
X120253294Y-78697989D01*
X120264500Y-78749500D01*
X120264500Y-82106614D01*
X120244815Y-82173653D01*
X120199519Y-82215668D01*
X120066496Y-82287657D01*
X120066494Y-82287658D01*
X119870257Y-82440396D01*
X119701833Y-82623352D01*
X119565826Y-82831528D01*
X119465936Y-83059253D01*
X119404892Y-83300310D01*
X119404890Y-83300322D01*
X119384357Y-83548129D01*
X119384357Y-83548140D01*
X119404890Y-83795947D01*
X119404892Y-83795959D01*
X119465936Y-84037016D01*
X119565826Y-84264741D01*
X119701833Y-84472917D01*
X119701836Y-84472920D01*
X119870256Y-84655873D01*
X120066491Y-84808609D01*
X120285190Y-84926963D01*
X120520386Y-85007706D01*
X120765665Y-85048635D01*
X121014335Y-85048635D01*
X121259614Y-85007706D01*
X121494810Y-84926963D01*
X121713509Y-84808609D01*
X121909744Y-84655873D01*
X122068771Y-84483123D01*
X122128657Y-84447134D01*
X122198495Y-84449234D01*
X122251228Y-84483123D01*
X122410256Y-84655873D01*
X122606491Y-84808609D01*
X122825190Y-84926963D01*
X123060386Y-85007706D01*
X123305665Y-85048635D01*
X123554335Y-85048635D01*
X123799614Y-85007706D01*
X124034810Y-84926963D01*
X124253509Y-84808609D01*
X124449744Y-84655873D01*
X124608771Y-84483123D01*
X124668657Y-84447134D01*
X124738495Y-84449234D01*
X124791228Y-84483123D01*
X124950256Y-84655873D01*
X125031572Y-84719164D01*
X125146488Y-84808607D01*
X125146493Y-84808610D01*
X125279517Y-84880599D01*
X125329108Y-84929818D01*
X125344500Y-84989654D01*
X125344500Y-85137255D01*
X125342775Y-85152872D01*
X125343061Y-85152899D01*
X125342326Y-85160665D01*
X125344500Y-85229814D01*
X125344500Y-85259343D01*
X125344501Y-85259360D01*
X125345368Y-85266231D01*
X125345826Y-85272050D01*
X125347290Y-85318624D01*
X125347291Y-85318627D01*
X125352880Y-85337867D01*
X125356824Y-85356911D01*
X125359336Y-85376791D01*
X125376490Y-85420119D01*
X125378382Y-85425647D01*
X125391381Y-85470388D01*
X125401580Y-85487634D01*
X125410138Y-85505103D01*
X125417514Y-85523732D01*
X125444898Y-85561423D01*
X125448106Y-85566307D01*
X125471827Y-85606416D01*
X125471833Y-85606424D01*
X125485990Y-85620580D01*
X125498628Y-85635376D01*
X125510405Y-85651586D01*
X125510406Y-85651587D01*
X125546309Y-85681288D01*
X125550620Y-85685210D01*
X125749194Y-85883784D01*
X125759019Y-85896048D01*
X125759240Y-85895866D01*
X125764210Y-85901873D01*
X125764213Y-85901876D01*
X125764214Y-85901877D01*
X125814651Y-85949241D01*
X125835529Y-85970119D01*
X125841004Y-85974366D01*
X125845446Y-85978160D01*
X125879415Y-86010060D01*
X125879417Y-86010061D01*
X125879418Y-86010062D01*
X125896976Y-86019714D01*
X125913237Y-86030396D01*
X125929064Y-86042673D01*
X125971823Y-86061176D01*
X125977073Y-86063748D01*
X126017904Y-86086195D01*
X126017908Y-86086197D01*
X126017912Y-86086198D01*
X126037311Y-86091179D01*
X126055722Y-86097483D01*
X126074097Y-86105435D01*
X126074100Y-86105435D01*
X126074105Y-86105438D01*
X126120149Y-86112729D01*
X126125832Y-86113906D01*
X126170981Y-86125500D01*
X126191016Y-86125500D01*
X126210413Y-86127026D01*
X126230196Y-86130160D01*
X126276584Y-86125775D01*
X126282422Y-86125500D01*
X160917257Y-86125500D01*
X160932877Y-86127224D01*
X160932904Y-86126939D01*
X160940660Y-86127671D01*
X160940667Y-86127673D01*
X161009814Y-86125500D01*
X161039350Y-86125500D01*
X161046228Y-86124630D01*
X161052041Y-86124172D01*
X161098627Y-86122709D01*
X161117869Y-86117117D01*
X161136912Y-86113174D01*
X161156792Y-86110664D01*
X161200122Y-86093507D01*
X161205646Y-86091617D01*
X161209396Y-86090527D01*
X161250390Y-86078618D01*
X161267629Y-86068422D01*
X161285103Y-86059862D01*
X161303727Y-86052488D01*
X161303727Y-86052487D01*
X161303732Y-86052486D01*
X161341449Y-86025082D01*
X161346305Y-86021892D01*
X161386420Y-85998170D01*
X161400589Y-85983999D01*
X161415379Y-85971368D01*
X161431587Y-85959594D01*
X161461299Y-85923676D01*
X161465212Y-85919376D01*
X168001481Y-79383108D01*
X168062802Y-79349625D01*
X168129423Y-79353510D01*
X168155019Y-79362298D01*
X168383951Y-79400500D01*
X168383952Y-79400500D01*
X168616048Y-79400500D01*
X168616049Y-79400500D01*
X168844981Y-79362298D01*
X169064503Y-79286936D01*
X169268626Y-79176470D01*
X169281151Y-79166722D01*
X169330129Y-79128600D01*
X169451784Y-79033913D01*
X169608979Y-78863153D01*
X169646191Y-78806196D01*
X169699337Y-78760839D01*
X169768569Y-78751415D01*
X169831904Y-78780917D01*
X169853809Y-78806196D01*
X169891016Y-78863147D01*
X169891019Y-78863151D01*
X169891021Y-78863153D01*
X170048216Y-79033913D01*
X170048219Y-79033915D01*
X170048222Y-79033918D01*
X170231365Y-79176464D01*
X170231371Y-79176468D01*
X170231374Y-79176470D01*
X170372889Y-79253054D01*
X170434652Y-79286479D01*
X170435497Y-79286936D01*
X170517676Y-79315148D01*
X170655015Y-79362297D01*
X170655017Y-79362297D01*
X170655019Y-79362298D01*
X170883951Y-79400500D01*
X170883952Y-79400500D01*
X171116048Y-79400500D01*
X171116049Y-79400500D01*
X171344981Y-79362298D01*
X171564503Y-79286936D01*
X171768626Y-79176470D01*
X171781151Y-79166722D01*
X171830129Y-79128600D01*
X171951784Y-79033913D01*
X172108979Y-78863153D01*
X172235924Y-78668849D01*
X172329157Y-78456300D01*
X172386134Y-78231305D01*
X172386135Y-78231297D01*
X172405300Y-78000006D01*
X172405300Y-77999993D01*
X172386135Y-77768702D01*
X172386133Y-77768691D01*
X172329157Y-77543699D01*
X172235924Y-77331151D01*
X172108983Y-77136852D01*
X172108980Y-77136849D01*
X172108979Y-77136847D01*
X171951784Y-76966087D01*
X171951779Y-76966083D01*
X171951777Y-76966081D01*
X171768634Y-76823535D01*
X171768628Y-76823531D01*
X171564504Y-76713064D01*
X171564495Y-76713061D01*
X171344984Y-76637702D01*
X171173282Y-76609050D01*
X171116049Y-76599500D01*
X170883951Y-76599500D01*
X170838164Y-76607140D01*
X170655015Y-76637702D01*
X170435504Y-76713061D01*
X170435495Y-76713064D01*
X170231371Y-76823531D01*
X170231365Y-76823535D01*
X170048222Y-76966081D01*
X170048219Y-76966084D01*
X170048216Y-76966086D01*
X170048216Y-76966087D01*
X169925402Y-77099500D01*
X169891015Y-77136854D01*
X169853808Y-77193804D01*
X169800662Y-77239161D01*
X169731430Y-77248584D01*
X169668095Y-77219082D01*
X169646192Y-77193804D01*
X169608984Y-77136854D01*
X169608982Y-77136852D01*
X169608979Y-77136847D01*
X169451784Y-76966087D01*
X169451779Y-76966083D01*
X169451777Y-76966081D01*
X169268634Y-76823535D01*
X169268628Y-76823531D01*
X169064504Y-76713064D01*
X169064495Y-76713061D01*
X168844984Y-76637702D01*
X168673282Y-76609050D01*
X168616049Y-76599500D01*
X168383951Y-76599500D01*
X168338164Y-76607140D01*
X168155015Y-76637702D01*
X167935504Y-76713061D01*
X167935495Y-76713064D01*
X167731371Y-76823531D01*
X167731365Y-76823535D01*
X167548222Y-76966081D01*
X167548219Y-76966084D01*
X167548216Y-76966086D01*
X167548216Y-76966087D01*
X167391021Y-77136847D01*
X167389708Y-77138857D01*
X167353509Y-77194262D01*
X167300362Y-77239618D01*
X167231131Y-77249041D01*
X167167795Y-77219538D01*
X167153084Y-77202561D01*
X167151186Y-77202364D01*
X166483076Y-77870475D01*
X166459493Y-77790156D01*
X166381761Y-77669202D01*
X166273100Y-77575048D01*
X166142315Y-77515320D01*
X166132534Y-77513913D01*
X166798799Y-76847648D01*
X166798799Y-76847647D01*
X166768349Y-76823949D01*
X166564302Y-76713523D01*
X166564293Y-76713520D01*
X166344860Y-76638188D01*
X166116007Y-76600000D01*
X165883993Y-76600000D01*
X165655139Y-76638188D01*
X165435706Y-76713520D01*
X165435698Y-76713523D01*
X165231644Y-76823952D01*
X165201200Y-76847646D01*
X165201200Y-76847647D01*
X165867466Y-77513913D01*
X165857685Y-77515320D01*
X165726900Y-77575048D01*
X165618239Y-77669202D01*
X165540507Y-77790156D01*
X165516923Y-77870476D01*
X164848812Y-77202365D01*
X164764516Y-77331391D01*
X164764514Y-77331395D01*
X164671317Y-77543864D01*
X164614361Y-77768781D01*
X164595202Y-77999994D01*
X164595202Y-78000005D01*
X164614361Y-78231218D01*
X164671317Y-78456135D01*
X164764516Y-78668609D01*
X164848811Y-78797633D01*
X165516922Y-78129523D01*
X165540507Y-78209844D01*
X165618239Y-78330798D01*
X165726900Y-78424952D01*
X165857685Y-78484680D01*
X165867466Y-78486086D01*
X165201199Y-79152351D01*
X165231650Y-79176050D01*
X165435697Y-79286476D01*
X165435706Y-79286479D01*
X165655139Y-79361811D01*
X165883993Y-79400000D01*
X165916045Y-79400000D01*
X165983084Y-79419685D01*
X166028839Y-79472489D01*
X166038783Y-79541647D01*
X166009758Y-79605203D01*
X166003726Y-79611681D01*
X160777228Y-84838181D01*
X160715905Y-84871666D01*
X160689547Y-84874500D01*
X149930037Y-84874500D01*
X149862998Y-84854815D01*
X149817243Y-84802011D01*
X149807299Y-84732853D01*
X149836324Y-84669297D01*
X149846049Y-84659275D01*
X149849733Y-84655881D01*
X149849744Y-84655873D01*
X150018164Y-84472920D01*
X150154173Y-84264742D01*
X150254063Y-84037016D01*
X150315108Y-83795956D01*
X150335643Y-83548135D01*
X150315108Y-83300314D01*
X150254063Y-83059254D01*
X150154173Y-82831528D01*
X150018164Y-82623350D01*
X150008770Y-82613145D01*
X149863270Y-82455088D01*
X149832348Y-82392434D01*
X149830500Y-82371106D01*
X149830500Y-81842675D01*
X149832756Y-81753642D01*
X149832755Y-81753641D01*
X149832756Y-81753636D01*
X149821929Y-81693233D01*
X149821282Y-81688620D01*
X149815074Y-81627562D01*
X149815073Y-81627560D01*
X149815073Y-81627557D01*
X149804790Y-81594787D01*
X149802917Y-81587154D01*
X149796858Y-81553348D01*
X149774102Y-81496378D01*
X149772521Y-81491937D01*
X149754157Y-81433407D01*
X149737488Y-81403378D01*
X149734117Y-81396278D01*
X149721378Y-81364386D01*
X149721377Y-81364383D01*
X149687620Y-81313163D01*
X149685180Y-81309134D01*
X149674379Y-81289675D01*
X149655409Y-81255498D01*
X149655407Y-81255495D01*
X149633033Y-81229434D01*
X149628302Y-81223159D01*
X149609402Y-81194481D01*
X149566033Y-81151112D01*
X149562830Y-81147656D01*
X149543351Y-81124967D01*
X149522866Y-81101105D01*
X149495700Y-81080077D01*
X149489812Y-81074892D01*
X149216450Y-80801530D01*
X149155059Y-80736947D01*
X149124429Y-80715628D01*
X149104709Y-80701902D01*
X149100944Y-80699064D01*
X149053408Y-80660302D01*
X149053406Y-80660300D01*
X149022959Y-80644397D01*
X149016251Y-80640334D01*
X148988049Y-80620705D01*
X148988046Y-80620703D01*
X148988045Y-80620703D01*
X148988041Y-80620701D01*
X148931680Y-80596514D01*
X148927424Y-80594493D01*
X148873057Y-80566094D01*
X148873050Y-80566091D01*
X148873049Y-80566091D01*
X148867008Y-80564362D01*
X148840030Y-80556642D01*
X148832630Y-80554008D01*
X148801057Y-80540459D01*
X148801058Y-80540459D01*
X148740966Y-80528109D01*
X148736391Y-80526986D01*
X148677420Y-80510113D01*
X148677425Y-80510113D01*
X148643158Y-80507503D01*
X148635380Y-80506412D01*
X148601742Y-80499500D01*
X148601741Y-80499500D01*
X148540402Y-80499500D01*
X148535695Y-80499321D01*
X148530121Y-80498896D01*
X148474524Y-80494662D01*
X148454589Y-80497201D01*
X148440440Y-80499003D01*
X148432611Y-80499500D01*
X131465783Y-80499500D01*
X131398744Y-80479815D01*
X131378102Y-80463181D01*
X130421582Y-79506662D01*
X130379673Y-79472489D01*
X130303407Y-79410302D01*
X130123049Y-79316091D01*
X130119760Y-79315150D01*
X129963257Y-79270368D01*
X129927418Y-79260113D01*
X129927417Y-79260112D01*
X129927416Y-79260112D01*
X129724525Y-79244662D01*
X129724522Y-79244662D01*
X129522678Y-79270368D01*
X129522670Y-79270370D01*
X129330129Y-79336183D01*
X129330117Y-79336189D01*
X129154778Y-79439406D01*
X129154771Y-79439411D01*
X129003787Y-79575820D01*
X129003787Y-79575821D01*
X128883353Y-79739828D01*
X128883349Y-79739835D01*
X128798397Y-79924725D01*
X128798393Y-79924737D01*
X128752396Y-80122945D01*
X128747242Y-80326358D01*
X128783140Y-80526648D01*
X128783142Y-80526654D01*
X128810240Y-80594493D01*
X128830174Y-80644397D01*
X128858623Y-80715616D01*
X128858629Y-80715628D01*
X128970596Y-80885517D01*
X128970599Y-80885521D01*
X130209441Y-82124362D01*
X130242926Y-82185685D01*
X130237942Y-82255377D01*
X130197923Y-82309896D01*
X130030258Y-82440395D01*
X129871230Y-82613145D01*
X129811342Y-82649136D01*
X129741504Y-82647035D01*
X129688770Y-82613145D01*
X129649108Y-82570061D01*
X129529744Y-82440397D01*
X129333509Y-82287661D01*
X129333507Y-82287660D01*
X129333506Y-82287659D01*
X129114811Y-82169307D01*
X129114802Y-82169304D01*
X128879616Y-82088564D01*
X128634335Y-82047635D01*
X128385665Y-82047635D01*
X128140383Y-82088564D01*
X127905197Y-82169304D01*
X127905188Y-82169307D01*
X127686493Y-82287659D01*
X127490257Y-82440396D01*
X127331230Y-82613145D01*
X127271342Y-82649136D01*
X127201504Y-82647035D01*
X127148770Y-82613145D01*
X127109108Y-82570061D01*
X126989744Y-82440397D01*
X126793509Y-82287661D01*
X126793507Y-82287660D01*
X126793506Y-82287659D01*
X126574811Y-82169307D01*
X126574802Y-82169304D01*
X126339616Y-82088564D01*
X126094335Y-82047635D01*
X125845665Y-82047635D01*
X125600383Y-82088564D01*
X125365197Y-82169304D01*
X125365188Y-82169307D01*
X125146493Y-82287659D01*
X124950257Y-82440396D01*
X124791230Y-82613145D01*
X124731342Y-82649136D01*
X124661504Y-82647035D01*
X124608770Y-82613145D01*
X124569108Y-82570061D01*
X124449744Y-82440397D01*
X124253509Y-82287661D01*
X124253507Y-82287660D01*
X124253506Y-82287659D01*
X124034811Y-82169307D01*
X124034802Y-82169304D01*
X123799616Y-82088564D01*
X123554335Y-82047635D01*
X123305665Y-82047635D01*
X123060383Y-82088564D01*
X122825197Y-82169304D01*
X122825188Y-82169307D01*
X122606493Y-82287659D01*
X122410257Y-82440396D01*
X122251230Y-82613145D01*
X122191342Y-82649136D01*
X122121504Y-82647035D01*
X122068770Y-82613145D01*
X122029108Y-82570061D01*
X121909744Y-82440397D01*
X121713509Y-82287661D01*
X121713508Y-82287660D01*
X121713505Y-82287658D01*
X121713503Y-82287657D01*
X121580481Y-82215668D01*
X121530891Y-82166448D01*
X121515500Y-82106614D01*
X121515500Y-78749500D01*
X121535185Y-78682461D01*
X121587989Y-78636706D01*
X121639500Y-78625500D01*
X143296252Y-78625500D01*
X143363291Y-78645185D01*
X143388400Y-78666526D01*
X143394126Y-78672885D01*
X143394130Y-78672889D01*
X143547265Y-78784148D01*
X143547270Y-78784151D01*
X143720192Y-78861142D01*
X143720197Y-78861144D01*
X143905354Y-78900500D01*
X143905355Y-78900500D01*
X144094644Y-78900500D01*
X144094646Y-78900500D01*
X144279803Y-78861144D01*
X144452730Y-78784151D01*
X144461975Y-78777433D01*
X144527781Y-78753952D01*
X144595835Y-78769776D01*
X144622544Y-78790069D01*
X144999197Y-79166722D01*
X145009022Y-79178985D01*
X145009243Y-79178803D01*
X145014214Y-79184812D01*
X145040217Y-79209229D01*
X145064635Y-79232160D01*
X145085529Y-79253054D01*
X145091011Y-79257307D01*
X145095443Y-79261091D01*
X145129418Y-79292996D01*
X145146976Y-79302648D01*
X145163233Y-79313327D01*
X145179064Y-79325607D01*
X145198737Y-79334120D01*
X145221833Y-79344116D01*
X145227077Y-79346684D01*
X145267908Y-79369131D01*
X145280523Y-79372369D01*
X145287305Y-79374111D01*
X145305719Y-79380415D01*
X145324104Y-79388372D01*
X145370157Y-79395666D01*
X145375826Y-79396840D01*
X145420981Y-79408434D01*
X145441016Y-79408434D01*
X145460413Y-79409960D01*
X145480196Y-79413094D01*
X145526584Y-79408709D01*
X145532422Y-79408434D01*
X152296252Y-79408434D01*
X152363291Y-79428119D01*
X152388400Y-79449460D01*
X152394126Y-79455819D01*
X152394130Y-79455823D01*
X152547265Y-79567082D01*
X152547270Y-79567085D01*
X152720192Y-79644076D01*
X152720197Y-79644078D01*
X152905354Y-79683434D01*
X152905355Y-79683434D01*
X153094644Y-79683434D01*
X153094646Y-79683434D01*
X153279803Y-79644078D01*
X153452730Y-79567085D01*
X153605871Y-79455822D01*
X153608788Y-79452581D01*
X153611600Y-79449460D01*
X153671087Y-79412813D01*
X153703748Y-79408434D01*
X161296252Y-79408434D01*
X161363291Y-79428119D01*
X161388400Y-79449460D01*
X161394126Y-79455819D01*
X161394130Y-79455823D01*
X161547265Y-79567082D01*
X161547270Y-79567085D01*
X161720192Y-79644076D01*
X161720197Y-79644078D01*
X161905354Y-79683434D01*
X161905355Y-79683434D01*
X162094644Y-79683434D01*
X162094646Y-79683434D01*
X162279803Y-79644078D01*
X162452730Y-79567085D01*
X162605871Y-79455822D01*
X162732533Y-79315150D01*
X162827179Y-79151218D01*
X162885674Y-78971190D01*
X162905460Y-78782934D01*
X162885674Y-78594678D01*
X162827179Y-78414650D01*
X162732533Y-78250718D01*
X162605871Y-78110046D01*
X162605870Y-78110045D01*
X162452734Y-77998785D01*
X162452729Y-77998782D01*
X162279807Y-77921791D01*
X162279802Y-77921789D01*
X162134001Y-77890799D01*
X162094646Y-77882434D01*
X161905354Y-77882434D01*
X161872897Y-77889332D01*
X161720197Y-77921789D01*
X161720192Y-77921791D01*
X161547270Y-77998782D01*
X161547265Y-77998785D01*
X161394130Y-78110044D01*
X161394126Y-78110048D01*
X161388400Y-78116408D01*
X161328913Y-78153055D01*
X161296252Y-78157434D01*
X153703748Y-78157434D01*
X153636709Y-78137749D01*
X153611600Y-78116408D01*
X153605873Y-78110048D01*
X153605869Y-78110044D01*
X153452734Y-77998785D01*
X153452729Y-77998782D01*
X153279807Y-77921791D01*
X153279802Y-77921789D01*
X153134001Y-77890799D01*
X153094646Y-77882434D01*
X152905354Y-77882434D01*
X152872897Y-77889332D01*
X152720197Y-77921789D01*
X152720192Y-77921791D01*
X152547270Y-77998782D01*
X152547265Y-77998785D01*
X152394130Y-78110044D01*
X152394126Y-78110048D01*
X152388400Y-78116408D01*
X152328913Y-78153055D01*
X152296252Y-78157434D01*
X145810452Y-78157434D01*
X145743413Y-78137749D01*
X145722771Y-78121115D01*
X145217869Y-77616212D01*
X145208046Y-77603950D01*
X145207825Y-77604134D01*
X145202852Y-77598123D01*
X145152430Y-77550773D01*
X145141985Y-77540328D01*
X145131541Y-77529883D01*
X145126052Y-77525625D01*
X145121627Y-77521847D01*
X145087648Y-77489938D01*
X145087646Y-77489936D01*
X145087643Y-77489935D01*
X145070095Y-77480288D01*
X145053829Y-77469604D01*
X145037999Y-77457325D01*
X144995234Y-77438818D01*
X144989988Y-77436248D01*
X144949159Y-77413803D01*
X144949158Y-77413802D01*
X144929759Y-77408822D01*
X144911347Y-77402518D01*
X144892964Y-77394562D01*
X144892958Y-77394560D01*
X144846940Y-77387272D01*
X144841218Y-77386087D01*
X144796087Y-77374500D01*
X144796085Y-77374500D01*
X144776050Y-77374500D01*
X144756652Y-77372973D01*
X144749228Y-77371797D01*
X144736871Y-77369840D01*
X144736869Y-77369839D01*
X144713687Y-77372031D01*
X144645092Y-77358742D01*
X144609868Y-77331551D01*
X144605871Y-77327112D01*
X144605870Y-77327111D01*
X144605868Y-77327109D01*
X144452734Y-77215851D01*
X144452729Y-77215848D01*
X144279807Y-77138857D01*
X144279802Y-77138855D01*
X144134001Y-77107865D01*
X144094646Y-77099500D01*
X143905354Y-77099500D01*
X143872897Y-77106398D01*
X143720197Y-77138855D01*
X143720192Y-77138857D01*
X143547270Y-77215848D01*
X143547265Y-77215851D01*
X143394130Y-77327110D01*
X143394126Y-77327114D01*
X143388400Y-77333474D01*
X143328913Y-77370121D01*
X143296252Y-77374500D01*
X121082737Y-77374500D01*
X121067120Y-77372776D01*
X121067093Y-77373062D01*
X121059331Y-77372327D01*
X120990203Y-77374500D01*
X115331351Y-77374500D01*
X115264312Y-77354815D01*
X115227542Y-77318321D01*
X115108983Y-77136852D01*
X115108980Y-77136849D01*
X115108979Y-77136847D01*
X114951784Y-76966087D01*
X114951779Y-76966083D01*
X114951777Y-76966081D01*
X114768634Y-76823535D01*
X114768628Y-76823531D01*
X114564504Y-76713064D01*
X114564495Y-76713061D01*
X114344984Y-76637702D01*
X114173282Y-76609050D01*
X114116049Y-76599500D01*
X113883951Y-76599500D01*
X113838164Y-76607140D01*
X113655015Y-76637702D01*
X113435504Y-76713061D01*
X113435495Y-76713064D01*
X113231371Y-76823531D01*
X113231365Y-76823535D01*
X113048222Y-76966081D01*
X113048219Y-76966084D01*
X113048216Y-76966086D01*
X113048216Y-76966087D01*
X112925402Y-77099500D01*
X112891015Y-77136854D01*
X112853808Y-77193804D01*
X112800662Y-77239161D01*
X112731430Y-77248584D01*
X112668095Y-77219082D01*
X112646192Y-77193804D01*
X112608984Y-77136854D01*
X112608982Y-77136852D01*
X112608979Y-77136847D01*
X112451784Y-76966087D01*
X112451779Y-76966083D01*
X112451777Y-76966081D01*
X112268634Y-76823535D01*
X112268628Y-76823531D01*
X112064504Y-76713064D01*
X112064495Y-76713061D01*
X111844984Y-76637702D01*
X111673282Y-76609050D01*
X111616049Y-76599500D01*
X111383951Y-76599500D01*
X111338164Y-76607140D01*
X111155015Y-76637702D01*
X110935504Y-76713061D01*
X110935495Y-76713064D01*
X110731371Y-76823531D01*
X110731365Y-76823535D01*
X110548222Y-76966081D01*
X110548219Y-76966084D01*
X110548216Y-76966086D01*
X110548216Y-76966087D01*
X110391021Y-77136847D01*
X110389708Y-77138857D01*
X110353509Y-77194262D01*
X110300362Y-77239618D01*
X110231131Y-77249041D01*
X110167795Y-77219538D01*
X110153084Y-77202561D01*
X110151186Y-77202364D01*
X109483076Y-77870475D01*
X109459493Y-77790156D01*
X109381761Y-77669202D01*
X109273100Y-77575048D01*
X109142315Y-77515320D01*
X109132534Y-77513913D01*
X109798799Y-76847648D01*
X109798799Y-76847647D01*
X109768349Y-76823949D01*
X109564302Y-76713523D01*
X109564293Y-76713520D01*
X109344860Y-76638188D01*
X109116007Y-76600000D01*
X108883993Y-76600000D01*
X108655139Y-76638188D01*
X108435706Y-76713520D01*
X108435698Y-76713523D01*
X108231644Y-76823952D01*
X108201200Y-76847646D01*
X108201200Y-76847647D01*
X108867466Y-77513913D01*
X108857685Y-77515320D01*
X108726900Y-77575048D01*
X108618239Y-77669202D01*
X108540507Y-77790156D01*
X108516923Y-77870476D01*
X107848812Y-77202365D01*
X107764516Y-77331391D01*
X107764514Y-77331395D01*
X107671317Y-77543864D01*
X107614361Y-77768781D01*
X107595202Y-77999994D01*
X107595202Y-78000005D01*
X97000500Y-78000005D01*
X97000500Y-71000005D01*
X104594556Y-71000005D01*
X104614310Y-71314004D01*
X104614311Y-71314011D01*
X104673270Y-71623083D01*
X104770497Y-71922316D01*
X104770499Y-71922321D01*
X104904461Y-72207003D01*
X104904464Y-72207009D01*
X105073051Y-72472661D01*
X105073054Y-72472665D01*
X105273606Y-72715090D01*
X105273608Y-72715092D01*
X105502968Y-72930476D01*
X105502978Y-72930484D01*
X105757504Y-73115408D01*
X105757509Y-73115410D01*
X105757516Y-73115416D01*
X106033234Y-73266994D01*
X106033239Y-73266996D01*
X106033241Y-73266997D01*
X106033242Y-73266998D01*
X106325771Y-73382818D01*
X106325774Y-73382819D01*
X106630523Y-73461065D01*
X106630527Y-73461066D01*
X106696010Y-73469338D01*
X106942670Y-73500499D01*
X106942679Y-73500499D01*
X106942682Y-73500500D01*
X106942684Y-73500500D01*
X107257316Y-73500500D01*
X107257318Y-73500500D01*
X107257321Y-73500499D01*
X107257329Y-73500499D01*
X107443593Y-73476968D01*
X107569473Y-73461066D01*
X107874225Y-73382819D01*
X107874228Y-73382818D01*
X108166757Y-73266998D01*
X108166758Y-73266997D01*
X108166756Y-73266997D01*
X108166766Y-73266994D01*
X108442484Y-73115416D01*
X108697030Y-72930478D01*
X108926390Y-72715094D01*
X109126947Y-72472663D01*
X109295537Y-72207007D01*
X109429503Y-71922315D01*
X109526731Y-71623079D01*
X109585688Y-71314015D01*
X109605444Y-71000005D01*
X113394556Y-71000005D01*
X113414310Y-71314004D01*
X113414311Y-71314011D01*
X113473270Y-71623083D01*
X113570497Y-71922316D01*
X113570499Y-71922321D01*
X113704461Y-72207003D01*
X113704464Y-72207009D01*
X113873051Y-72472661D01*
X113873054Y-72472665D01*
X114073606Y-72715090D01*
X114073608Y-72715092D01*
X114302968Y-72930476D01*
X114302978Y-72930484D01*
X114557504Y-73115408D01*
X114557509Y-73115410D01*
X114557516Y-73115416D01*
X114833234Y-73266994D01*
X114833239Y-73266996D01*
X114833241Y-73266997D01*
X114833242Y-73266998D01*
X115125771Y-73382818D01*
X115125774Y-73382819D01*
X115430523Y-73461065D01*
X115430527Y-73461066D01*
X115496010Y-73469338D01*
X115742670Y-73500499D01*
X115742679Y-73500499D01*
X115742682Y-73500500D01*
X115742684Y-73500500D01*
X116057316Y-73500500D01*
X116057318Y-73500500D01*
X116057321Y-73500499D01*
X116057329Y-73500499D01*
X116243593Y-73476968D01*
X116369473Y-73461066D01*
X116674225Y-73382819D01*
X116674228Y-73382818D01*
X116966757Y-73266998D01*
X116966758Y-73266997D01*
X116966756Y-73266997D01*
X116966766Y-73266994D01*
X117242484Y-73115416D01*
X117497030Y-72930478D01*
X117726390Y-72715094D01*
X117926947Y-72472663D01*
X118095537Y-72207007D01*
X118229503Y-71922315D01*
X118326731Y-71623079D01*
X118385688Y-71314015D01*
X118405444Y-71000005D01*
X161594556Y-71000005D01*
X161614310Y-71314004D01*
X161614311Y-71314011D01*
X161673270Y-71623083D01*
X161770497Y-71922316D01*
X161770499Y-71922321D01*
X161904461Y-72207003D01*
X161904464Y-72207009D01*
X162073051Y-72472661D01*
X162073054Y-72472665D01*
X162273606Y-72715090D01*
X162273608Y-72715092D01*
X162502968Y-72930476D01*
X162502978Y-72930484D01*
X162757504Y-73115408D01*
X162757509Y-73115410D01*
X162757516Y-73115416D01*
X163033234Y-73266994D01*
X163033239Y-73266996D01*
X163033241Y-73266997D01*
X163033242Y-73266998D01*
X163325771Y-73382818D01*
X163325774Y-73382819D01*
X163630523Y-73461065D01*
X163630527Y-73461066D01*
X163696010Y-73469338D01*
X163942670Y-73500499D01*
X163942679Y-73500499D01*
X163942682Y-73500500D01*
X163942684Y-73500500D01*
X164257316Y-73500500D01*
X164257318Y-73500500D01*
X164257321Y-73500499D01*
X164257329Y-73500499D01*
X164443593Y-73476968D01*
X164569473Y-73461066D01*
X164874225Y-73382819D01*
X164874228Y-73382818D01*
X165166757Y-73266998D01*
X165166758Y-73266997D01*
X165166756Y-73266997D01*
X165166766Y-73266994D01*
X165442484Y-73115416D01*
X165697030Y-72930478D01*
X165926390Y-72715094D01*
X166126947Y-72472663D01*
X166295537Y-72207007D01*
X166429503Y-71922315D01*
X166526731Y-71623079D01*
X166585688Y-71314015D01*
X166605444Y-71000005D01*
X170394556Y-71000005D01*
X170414310Y-71314004D01*
X170414311Y-71314011D01*
X170473270Y-71623083D01*
X170570497Y-71922316D01*
X170570499Y-71922321D01*
X170704461Y-72207003D01*
X170704464Y-72207009D01*
X170873051Y-72472661D01*
X170873054Y-72472665D01*
X171073606Y-72715090D01*
X171073608Y-72715092D01*
X171302968Y-72930476D01*
X171302978Y-72930484D01*
X171557504Y-73115408D01*
X171557509Y-73115410D01*
X171557516Y-73115416D01*
X171833234Y-73266994D01*
X171833239Y-73266996D01*
X171833241Y-73266997D01*
X171833242Y-73266998D01*
X172125771Y-73382818D01*
X172125774Y-73382819D01*
X172430523Y-73461065D01*
X172430527Y-73461066D01*
X172496010Y-73469338D01*
X172742670Y-73500499D01*
X172742679Y-73500499D01*
X172742682Y-73500500D01*
X172742684Y-73500500D01*
X173057316Y-73500500D01*
X173057318Y-73500500D01*
X173057321Y-73500499D01*
X173057329Y-73500499D01*
X173243593Y-73476968D01*
X173369473Y-73461066D01*
X173674225Y-73382819D01*
X173674228Y-73382818D01*
X173966757Y-73266998D01*
X173966758Y-73266997D01*
X173966756Y-73266997D01*
X173966766Y-73266994D01*
X174242484Y-73115416D01*
X174497030Y-72930478D01*
X174726390Y-72715094D01*
X174926947Y-72472663D01*
X175095537Y-72207007D01*
X175229503Y-71922315D01*
X175326731Y-71623079D01*
X175385688Y-71314015D01*
X175405444Y-71000000D01*
X175385688Y-70685985D01*
X175326731Y-70376921D01*
X175229503Y-70077685D01*
X175095537Y-69792993D01*
X174926947Y-69527337D01*
X174926945Y-69527334D01*
X174726393Y-69284909D01*
X174726391Y-69284907D01*
X174497031Y-69069523D01*
X174497021Y-69069515D01*
X174242495Y-68884591D01*
X174242488Y-68884586D01*
X174242484Y-68884584D01*
X173966766Y-68733006D01*
X173966763Y-68733004D01*
X173966758Y-68733002D01*
X173966757Y-68733001D01*
X173674228Y-68617181D01*
X173674225Y-68617180D01*
X173369476Y-68538934D01*
X173369463Y-68538932D01*
X173057329Y-68499500D01*
X173057318Y-68499500D01*
X172742682Y-68499500D01*
X172742670Y-68499500D01*
X172430536Y-68538932D01*
X172430523Y-68538934D01*
X172125774Y-68617180D01*
X172125771Y-68617181D01*
X171833242Y-68733001D01*
X171833241Y-68733002D01*
X171557516Y-68884584D01*
X171557504Y-68884591D01*
X171302978Y-69069515D01*
X171302968Y-69069523D01*
X171073608Y-69284907D01*
X171073606Y-69284909D01*
X170873054Y-69527334D01*
X170873051Y-69527338D01*
X170704464Y-69792990D01*
X170704461Y-69792996D01*
X170570499Y-70077678D01*
X170570497Y-70077683D01*
X170473270Y-70376916D01*
X170414311Y-70685988D01*
X170414310Y-70685995D01*
X170394556Y-70999994D01*
X170394556Y-71000005D01*
X166605444Y-71000005D01*
X166605444Y-71000000D01*
X166585688Y-70685985D01*
X166526731Y-70376921D01*
X166429503Y-70077685D01*
X166295537Y-69792993D01*
X166126947Y-69527337D01*
X166126945Y-69527334D01*
X165926393Y-69284909D01*
X165926391Y-69284907D01*
X165697031Y-69069523D01*
X165697021Y-69069515D01*
X165442495Y-68884591D01*
X165442488Y-68884586D01*
X165442484Y-68884584D01*
X165166766Y-68733006D01*
X165166763Y-68733004D01*
X165166758Y-68733002D01*
X165166757Y-68733001D01*
X164874228Y-68617181D01*
X164874225Y-68617180D01*
X164569476Y-68538934D01*
X164569463Y-68538932D01*
X164257329Y-68499500D01*
X164257318Y-68499500D01*
X163942682Y-68499500D01*
X163942670Y-68499500D01*
X163630536Y-68538932D01*
X163630523Y-68538934D01*
X163325774Y-68617180D01*
X163325771Y-68617181D01*
X163033242Y-68733001D01*
X163033241Y-68733002D01*
X162757516Y-68884584D01*
X162757504Y-68884591D01*
X162502978Y-69069515D01*
X162502968Y-69069523D01*
X162273608Y-69284907D01*
X162273606Y-69284909D01*
X162073054Y-69527334D01*
X162073051Y-69527338D01*
X161904464Y-69792990D01*
X161904461Y-69792996D01*
X161770499Y-70077678D01*
X161770497Y-70077683D01*
X161673270Y-70376916D01*
X161614311Y-70685988D01*
X161614310Y-70685995D01*
X161594556Y-70999994D01*
X161594556Y-71000005D01*
X118405444Y-71000005D01*
X118405444Y-71000000D01*
X118385688Y-70685985D01*
X118326731Y-70376921D01*
X118229503Y-70077685D01*
X118095537Y-69792993D01*
X117926947Y-69527337D01*
X117926945Y-69527334D01*
X117726393Y-69284909D01*
X117726391Y-69284907D01*
X117497031Y-69069523D01*
X117497021Y-69069515D01*
X117242495Y-68884591D01*
X117242488Y-68884586D01*
X117242484Y-68884584D01*
X116966766Y-68733006D01*
X116966763Y-68733004D01*
X116966758Y-68733002D01*
X116966757Y-68733001D01*
X116674228Y-68617181D01*
X116674225Y-68617180D01*
X116369476Y-68538934D01*
X116369463Y-68538932D01*
X116057329Y-68499500D01*
X116057318Y-68499500D01*
X115742682Y-68499500D01*
X115742670Y-68499500D01*
X115430536Y-68538932D01*
X115430523Y-68538934D01*
X115125774Y-68617180D01*
X115125771Y-68617181D01*
X114833242Y-68733001D01*
X114833241Y-68733002D01*
X114557516Y-68884584D01*
X114557504Y-68884591D01*
X114302978Y-69069515D01*
X114302968Y-69069523D01*
X114073608Y-69284907D01*
X114073606Y-69284909D01*
X113873054Y-69527334D01*
X113873051Y-69527338D01*
X113704464Y-69792990D01*
X113704461Y-69792996D01*
X113570499Y-70077678D01*
X113570497Y-70077683D01*
X113473270Y-70376916D01*
X113414311Y-70685988D01*
X113414310Y-70685995D01*
X113394556Y-70999994D01*
X113394556Y-71000005D01*
X109605444Y-71000005D01*
X109605444Y-71000000D01*
X109585688Y-70685985D01*
X109526731Y-70376921D01*
X109429503Y-70077685D01*
X109295537Y-69792993D01*
X109126947Y-69527337D01*
X109126945Y-69527334D01*
X108926393Y-69284909D01*
X108926391Y-69284907D01*
X108697031Y-69069523D01*
X108697021Y-69069515D01*
X108442495Y-68884591D01*
X108442488Y-68884586D01*
X108442484Y-68884584D01*
X108166766Y-68733006D01*
X108166763Y-68733004D01*
X108166758Y-68733002D01*
X108166757Y-68733001D01*
X107874228Y-68617181D01*
X107874225Y-68617180D01*
X107569476Y-68538934D01*
X107569463Y-68538932D01*
X107257329Y-68499500D01*
X107257318Y-68499500D01*
X106942682Y-68499500D01*
X106942670Y-68499500D01*
X106630536Y-68538932D01*
X106630523Y-68538934D01*
X106325774Y-68617180D01*
X106325771Y-68617181D01*
X106033242Y-68733001D01*
X106033241Y-68733002D01*
X105757516Y-68884584D01*
X105757504Y-68884591D01*
X105502978Y-69069515D01*
X105502968Y-69069523D01*
X105273608Y-69284907D01*
X105273606Y-69284909D01*
X105073054Y-69527334D01*
X105073051Y-69527338D01*
X104904464Y-69792990D01*
X104904461Y-69792996D01*
X104770499Y-70077678D01*
X104770497Y-70077683D01*
X104673270Y-70376916D01*
X104614311Y-70685988D01*
X104614310Y-70685995D01*
X104594556Y-70999994D01*
X104594556Y-71000005D01*
X97000500Y-71000005D01*
X97000500Y-67067763D01*
X138145787Y-67067763D01*
X138175413Y-67337013D01*
X138175415Y-67337024D01*
X138243926Y-67599082D01*
X138243928Y-67599088D01*
X138349870Y-67848390D01*
X138421998Y-67966575D01*
X138490979Y-68079605D01*
X138490986Y-68079615D01*
X138664253Y-68287819D01*
X138664259Y-68287824D01*
X138865998Y-68468582D01*
X139091910Y-68618044D01*
X139337176Y-68733020D01*
X139337183Y-68733022D01*
X139337185Y-68733023D01*
X139596557Y-68811057D01*
X139596564Y-68811058D01*
X139596569Y-68811060D01*
X139864561Y-68850500D01*
X139864566Y-68850500D01*
X140067636Y-68850500D01*
X140119133Y-68846730D01*
X140270156Y-68835677D01*
X140382758Y-68810593D01*
X140534546Y-68776782D01*
X140534548Y-68776781D01*
X140534553Y-68776780D01*
X140787558Y-68680014D01*
X141023777Y-68547441D01*
X141238177Y-68381888D01*
X141426186Y-68186881D01*
X141583799Y-67966579D01*
X141657787Y-67822669D01*
X141707649Y-67725690D01*
X141707651Y-67725684D01*
X141707656Y-67725675D01*
X141795118Y-67469305D01*
X141844319Y-67202933D01*
X141854212Y-66932235D01*
X141824586Y-66662982D01*
X141756072Y-66400912D01*
X141650130Y-66151610D01*
X141509018Y-65920390D01*
X141419747Y-65813119D01*
X141335746Y-65712180D01*
X141335740Y-65712175D01*
X141134002Y-65531418D01*
X140908092Y-65381957D01*
X140840984Y-65350498D01*
X140662824Y-65266980D01*
X140662819Y-65266978D01*
X140662814Y-65266976D01*
X140403442Y-65188942D01*
X140403428Y-65188939D01*
X140287791Y-65171921D01*
X140135439Y-65149500D01*
X139932369Y-65149500D01*
X139932364Y-65149500D01*
X139729844Y-65164323D01*
X139729831Y-65164325D01*
X139465453Y-65223217D01*
X139465446Y-65223220D01*
X139212439Y-65319987D01*
X138976226Y-65452557D01*
X138761822Y-65618112D01*
X138573822Y-65813109D01*
X138573816Y-65813116D01*
X138416202Y-66033419D01*
X138416199Y-66033424D01*
X138292350Y-66274309D01*
X138292343Y-66274327D01*
X138204884Y-66530685D01*
X138204881Y-66530699D01*
X138155681Y-66797068D01*
X138155680Y-66797075D01*
X138145787Y-67067763D01*
X97000500Y-67067763D01*
X97000500Y-64250000D01*
X127589364Y-64250000D01*
X127646567Y-64463486D01*
X127646570Y-64463492D01*
X127746399Y-64677578D01*
X127881894Y-64871082D01*
X128048917Y-65038105D01*
X128242421Y-65173600D01*
X128456507Y-65273429D01*
X128456516Y-65273433D01*
X128670000Y-65330634D01*
X128670000Y-64435501D01*
X128777685Y-64484680D01*
X128884237Y-64500000D01*
X128955763Y-64500000D01*
X129062315Y-64484680D01*
X129170000Y-64435501D01*
X129170000Y-65330633D01*
X129383483Y-65273433D01*
X129383492Y-65273429D01*
X129597578Y-65173600D01*
X129791082Y-65038105D01*
X129958105Y-64871082D01*
X130088119Y-64685405D01*
X130142696Y-64641781D01*
X130212195Y-64634588D01*
X130274549Y-64666110D01*
X130291269Y-64685405D01*
X130421505Y-64871401D01*
X130588599Y-65038495D01*
X130685384Y-65106265D01*
X130782165Y-65174032D01*
X130782167Y-65174033D01*
X130782170Y-65174035D01*
X130996337Y-65273903D01*
X131224592Y-65335063D01*
X131401034Y-65350500D01*
X131459999Y-65355659D01*
X131460000Y-65355659D01*
X131460001Y-65355659D01*
X131518966Y-65350500D01*
X131695408Y-65335063D01*
X131923663Y-65273903D01*
X132137830Y-65174035D01*
X132331401Y-65038495D01*
X132453329Y-64916566D01*
X132514648Y-64883084D01*
X132584340Y-64888068D01*
X132640274Y-64929939D01*
X132657189Y-64960917D01*
X132706202Y-65092328D01*
X132706206Y-65092335D01*
X132792452Y-65207544D01*
X132792455Y-65207547D01*
X132907664Y-65293793D01*
X132907671Y-65293797D01*
X133042517Y-65344091D01*
X133042516Y-65344091D01*
X133049444Y-65344835D01*
X133102127Y-65350500D01*
X134897872Y-65350499D01*
X134957483Y-65344091D01*
X135092331Y-65293796D01*
X135207546Y-65207546D01*
X135293796Y-65092331D01*
X135344091Y-64957483D01*
X135350500Y-64897873D01*
X135350500Y-64250000D01*
X144669364Y-64250000D01*
X144726567Y-64463486D01*
X144726570Y-64463492D01*
X144826399Y-64677578D01*
X144961894Y-64871082D01*
X145128917Y-65038105D01*
X145322421Y-65173600D01*
X145536507Y-65273429D01*
X145536516Y-65273433D01*
X145750000Y-65330634D01*
X145750000Y-64435501D01*
X145857685Y-64484680D01*
X145964237Y-64500000D01*
X146035763Y-64500000D01*
X146142315Y-64484680D01*
X146250000Y-64435501D01*
X146250000Y-65330633D01*
X146463483Y-65273433D01*
X146463492Y-65273429D01*
X146677578Y-65173600D01*
X146871082Y-65038105D01*
X147038105Y-64871082D01*
X147168119Y-64685405D01*
X147222696Y-64641781D01*
X147292195Y-64634588D01*
X147354549Y-64666110D01*
X147371269Y-64685405D01*
X147501505Y-64871401D01*
X147668599Y-65038495D01*
X147765384Y-65106265D01*
X147862165Y-65174032D01*
X147862167Y-65174033D01*
X147862170Y-65174035D01*
X148076337Y-65273903D01*
X148304592Y-65335063D01*
X148481034Y-65350500D01*
X148539999Y-65355659D01*
X148540000Y-65355659D01*
X148540001Y-65355659D01*
X148598966Y-65350500D01*
X148775408Y-65335063D01*
X149003663Y-65273903D01*
X149217830Y-65174035D01*
X149411401Y-65038495D01*
X149533329Y-64916566D01*
X149594648Y-64883084D01*
X149664340Y-64888068D01*
X149720274Y-64929939D01*
X149737189Y-64960917D01*
X149786202Y-65092328D01*
X149786206Y-65092335D01*
X149872452Y-65207544D01*
X149872455Y-65207547D01*
X149987664Y-65293793D01*
X149987671Y-65293797D01*
X150122517Y-65344091D01*
X150122516Y-65344091D01*
X150129444Y-65344835D01*
X150182127Y-65350500D01*
X151977872Y-65350499D01*
X152037483Y-65344091D01*
X152172331Y-65293796D01*
X152287546Y-65207546D01*
X152373796Y-65092331D01*
X152424091Y-64957483D01*
X152430500Y-64897873D01*
X152430499Y-63102128D01*
X152424091Y-63042517D01*
X152422810Y-63039083D01*
X152373797Y-62907671D01*
X152373793Y-62907664D01*
X152287547Y-62792455D01*
X152287544Y-62792452D01*
X152172335Y-62706206D01*
X152172328Y-62706202D01*
X152037482Y-62655908D01*
X152037483Y-62655908D01*
X151977883Y-62649501D01*
X151977881Y-62649500D01*
X151977873Y-62649500D01*
X151977864Y-62649500D01*
X150182129Y-62649500D01*
X150182123Y-62649501D01*
X150122516Y-62655908D01*
X149987671Y-62706202D01*
X149987664Y-62706206D01*
X149872455Y-62792452D01*
X149872452Y-62792455D01*
X149786206Y-62907664D01*
X149786203Y-62907669D01*
X149737189Y-63039083D01*
X149695317Y-63095016D01*
X149629853Y-63119433D01*
X149561580Y-63104581D01*
X149533326Y-63083430D01*
X149411402Y-62961506D01*
X149411395Y-62961501D01*
X149217834Y-62825967D01*
X149217830Y-62825965D01*
X149217828Y-62825964D01*
X149003663Y-62726097D01*
X149003659Y-62726096D01*
X149003655Y-62726094D01*
X148775413Y-62664938D01*
X148775403Y-62664936D01*
X148540001Y-62644341D01*
X148539999Y-62644341D01*
X148304596Y-62664936D01*
X148304586Y-62664938D01*
X148076344Y-62726094D01*
X148076335Y-62726098D01*
X147862171Y-62825964D01*
X147862169Y-62825965D01*
X147668597Y-62961505D01*
X147501508Y-63128594D01*
X147371269Y-63314595D01*
X147316692Y-63358219D01*
X147247193Y-63365412D01*
X147184839Y-63333890D01*
X147168119Y-63314594D01*
X147038113Y-63128926D01*
X147038108Y-63128920D01*
X146871082Y-62961894D01*
X146677578Y-62826399D01*
X146463492Y-62726570D01*
X146463486Y-62726567D01*
X146250000Y-62669364D01*
X146250000Y-63564498D01*
X146142315Y-63515320D01*
X146035763Y-63500000D01*
X145964237Y-63500000D01*
X145857685Y-63515320D01*
X145750000Y-63564498D01*
X145750000Y-62669364D01*
X145749999Y-62669364D01*
X145536513Y-62726567D01*
X145536507Y-62726570D01*
X145322422Y-62826399D01*
X145322420Y-62826400D01*
X145128926Y-62961886D01*
X145128920Y-62961891D01*
X144961891Y-63128920D01*
X144961886Y-63128926D01*
X144826400Y-63322420D01*
X144826399Y-63322422D01*
X144726570Y-63536507D01*
X144726567Y-63536513D01*
X144669364Y-63749999D01*
X144669364Y-63750000D01*
X145566314Y-63750000D01*
X145540507Y-63790156D01*
X145500000Y-63928111D01*
X145500000Y-64071889D01*
X145540507Y-64209844D01*
X145566314Y-64250000D01*
X144669364Y-64250000D01*
X135350500Y-64250000D01*
X135350499Y-63102128D01*
X135344091Y-63042517D01*
X135342810Y-63039083D01*
X135293797Y-62907671D01*
X135293793Y-62907664D01*
X135207547Y-62792455D01*
X135207544Y-62792452D01*
X135092335Y-62706206D01*
X135092328Y-62706202D01*
X134957482Y-62655908D01*
X134957483Y-62655908D01*
X134897883Y-62649501D01*
X134897881Y-62649500D01*
X134897873Y-62649500D01*
X134897864Y-62649500D01*
X133102129Y-62649500D01*
X133102123Y-62649501D01*
X133042516Y-62655908D01*
X132907671Y-62706202D01*
X132907664Y-62706206D01*
X132792455Y-62792452D01*
X132792452Y-62792455D01*
X132706206Y-62907664D01*
X132706203Y-62907669D01*
X132657189Y-63039083D01*
X132615317Y-63095016D01*
X132549853Y-63119433D01*
X132481580Y-63104581D01*
X132453326Y-63083430D01*
X132331402Y-62961506D01*
X132331395Y-62961501D01*
X132137834Y-62825967D01*
X132137830Y-62825965D01*
X132137828Y-62825964D01*
X131923663Y-62726097D01*
X131923659Y-62726096D01*
X131923655Y-62726094D01*
X131695413Y-62664938D01*
X131695403Y-62664936D01*
X131460001Y-62644341D01*
X131459999Y-62644341D01*
X131224596Y-62664936D01*
X131224586Y-62664938D01*
X130996344Y-62726094D01*
X130996335Y-62726098D01*
X130782171Y-62825964D01*
X130782169Y-62825965D01*
X130588597Y-62961505D01*
X130421508Y-63128594D01*
X130291269Y-63314595D01*
X130236692Y-63358219D01*
X130167193Y-63365412D01*
X130104839Y-63333890D01*
X130088119Y-63314594D01*
X129958113Y-63128926D01*
X129958108Y-63128920D01*
X129791082Y-62961894D01*
X129597578Y-62826399D01*
X129383492Y-62726570D01*
X129383486Y-62726567D01*
X129170000Y-62669364D01*
X129170000Y-63564498D01*
X129062315Y-63515320D01*
X128955763Y-63500000D01*
X128884237Y-63500000D01*
X128777685Y-63515320D01*
X128670000Y-63564498D01*
X128670000Y-62669364D01*
X128669999Y-62669364D01*
X128456513Y-62726567D01*
X128456507Y-62726570D01*
X128242422Y-62826399D01*
X128242420Y-62826400D01*
X128048926Y-62961886D01*
X128048920Y-62961891D01*
X127881891Y-63128920D01*
X127881886Y-63128926D01*
X127746400Y-63322420D01*
X127746399Y-63322422D01*
X127646570Y-63536507D01*
X127646567Y-63536513D01*
X127589364Y-63749999D01*
X127589364Y-63750000D01*
X128486314Y-63750000D01*
X128460507Y-63790156D01*
X128420000Y-63928111D01*
X128420000Y-64071889D01*
X128460507Y-64209844D01*
X128486314Y-64250000D01*
X127589364Y-64250000D01*
X97000500Y-64250000D01*
X97000500Y-61567763D01*
X98645787Y-61567763D01*
X98675413Y-61837013D01*
X98675415Y-61837024D01*
X98743926Y-62099082D01*
X98743928Y-62099088D01*
X98849870Y-62348390D01*
X98921998Y-62466575D01*
X98990979Y-62579605D01*
X98990986Y-62579615D01*
X99164253Y-62787819D01*
X99164259Y-62787824D01*
X99207312Y-62826399D01*
X99365998Y-62968582D01*
X99591910Y-63118044D01*
X99837176Y-63233020D01*
X99837183Y-63233022D01*
X99837185Y-63233023D01*
X100096557Y-63311057D01*
X100096564Y-63311058D01*
X100096569Y-63311060D01*
X100364561Y-63350500D01*
X100364566Y-63350500D01*
X100567636Y-63350500D01*
X100619133Y-63346730D01*
X100770156Y-63335677D01*
X100882758Y-63310593D01*
X101034546Y-63276782D01*
X101034548Y-63276781D01*
X101034553Y-63276780D01*
X101287558Y-63180014D01*
X101523777Y-63047441D01*
X101738177Y-62881888D01*
X101926186Y-62686881D01*
X102083799Y-62466579D01*
X102157787Y-62322669D01*
X102207649Y-62225690D01*
X102207651Y-62225684D01*
X102207656Y-62225675D01*
X102295118Y-61969305D01*
X102344319Y-61702933D01*
X102349259Y-61567763D01*
X177645787Y-61567763D01*
X177675413Y-61837013D01*
X177675415Y-61837024D01*
X177743926Y-62099082D01*
X177743928Y-62099088D01*
X177849870Y-62348390D01*
X177921998Y-62466575D01*
X177990979Y-62579605D01*
X177990986Y-62579615D01*
X178164253Y-62787819D01*
X178164259Y-62787824D01*
X178207312Y-62826399D01*
X178365998Y-62968582D01*
X178591910Y-63118044D01*
X178837176Y-63233020D01*
X178837183Y-63233022D01*
X178837185Y-63233023D01*
X179096557Y-63311057D01*
X179096564Y-63311058D01*
X179096569Y-63311060D01*
X179364561Y-63350500D01*
X179364566Y-63350500D01*
X179567636Y-63350500D01*
X179619133Y-63346730D01*
X179770156Y-63335677D01*
X179882758Y-63310593D01*
X180034546Y-63276782D01*
X180034548Y-63276781D01*
X180034553Y-63276780D01*
X180287558Y-63180014D01*
X180523777Y-63047441D01*
X180738177Y-62881888D01*
X180926186Y-62686881D01*
X181083799Y-62466579D01*
X181157787Y-62322669D01*
X181207649Y-62225690D01*
X181207651Y-62225684D01*
X181207656Y-62225675D01*
X181295118Y-61969305D01*
X181344319Y-61702933D01*
X181354212Y-61432235D01*
X181324586Y-61162982D01*
X181256072Y-60900912D01*
X181150130Y-60651610D01*
X181009018Y-60420390D01*
X181007845Y-60418981D01*
X180835746Y-60212180D01*
X180835740Y-60212175D01*
X180634002Y-60031418D01*
X180408092Y-59881957D01*
X180408090Y-59881956D01*
X180162824Y-59766980D01*
X180162819Y-59766978D01*
X180162814Y-59766976D01*
X179903442Y-59688942D01*
X179903428Y-59688939D01*
X179787791Y-59671921D01*
X179635439Y-59649500D01*
X179432369Y-59649500D01*
X179432364Y-59649500D01*
X179229844Y-59664323D01*
X179229831Y-59664325D01*
X178965453Y-59723217D01*
X178965446Y-59723220D01*
X178712439Y-59819987D01*
X178476226Y-59952557D01*
X178476224Y-59952558D01*
X178476223Y-59952559D01*
X178413893Y-60000688D01*
X178261822Y-60118112D01*
X178073822Y-60313109D01*
X178073816Y-60313116D01*
X177916202Y-60533419D01*
X177916199Y-60533424D01*
X177792350Y-60774309D01*
X177792343Y-60774327D01*
X177704884Y-61030685D01*
X177704881Y-61030699D01*
X177655681Y-61297068D01*
X177655680Y-61297075D01*
X177645787Y-61567763D01*
X102349259Y-61567763D01*
X102354212Y-61432235D01*
X102324586Y-61162982D01*
X102256072Y-60900912D01*
X102150130Y-60651610D01*
X102009018Y-60420390D01*
X102007845Y-60418981D01*
X101835746Y-60212180D01*
X101835740Y-60212175D01*
X101634002Y-60031418D01*
X101408092Y-59881957D01*
X101408090Y-59881956D01*
X101162824Y-59766980D01*
X101162819Y-59766978D01*
X101162814Y-59766976D01*
X100903442Y-59688942D01*
X100903428Y-59688939D01*
X100787791Y-59671921D01*
X100635439Y-59649500D01*
X100432369Y-59649500D01*
X100432364Y-59649500D01*
X100229844Y-59664323D01*
X100229831Y-59664325D01*
X99965453Y-59723217D01*
X99965446Y-59723220D01*
X99712439Y-59819987D01*
X99476226Y-59952557D01*
X99476224Y-59952558D01*
X99476223Y-59952559D01*
X99413893Y-60000688D01*
X99261822Y-60118112D01*
X99073822Y-60313109D01*
X99073816Y-60313116D01*
X98916202Y-60533419D01*
X98916199Y-60533424D01*
X98792350Y-60774309D01*
X98792343Y-60774327D01*
X98704884Y-61030685D01*
X98704881Y-61030699D01*
X98655681Y-61297068D01*
X98655680Y-61297075D01*
X98645787Y-61567763D01*
X97000500Y-61567763D01*
X97000500Y-61501528D01*
X97000575Y-61498486D01*
X97003829Y-61432235D01*
X97007995Y-61347421D01*
X97018164Y-61153388D01*
X97018744Y-61147594D01*
X97043858Y-60978287D01*
X97071717Y-60802396D01*
X97072801Y-60797083D01*
X97115210Y-60627776D01*
X97160529Y-60458644D01*
X97162013Y-60453891D01*
X97221338Y-60288089D01*
X97283668Y-60125717D01*
X97285492Y-60121455D01*
X97287073Y-60118112D01*
X97361145Y-59961499D01*
X97439877Y-59806982D01*
X97441915Y-59803299D01*
X97533192Y-59651013D01*
X97627560Y-59505701D01*
X97629724Y-59502586D01*
X97735718Y-59359670D01*
X97844785Y-59224983D01*
X97846970Y-59222434D01*
X97965703Y-59091433D01*
X97967717Y-59089318D01*
X98089318Y-58967717D01*
X98091433Y-58965703D01*
X98222434Y-58846970D01*
X98224983Y-58844785D01*
X98359656Y-58735728D01*
X98502586Y-58629724D01*
X98505701Y-58627560D01*
X98651013Y-58533192D01*
X98803299Y-58441915D01*
X98806982Y-58439877D01*
X98961499Y-58361145D01*
X99121462Y-58285488D01*
X99125717Y-58283668D01*
X99288089Y-58221338D01*
X99453891Y-58162013D01*
X99458644Y-58160529D01*
X99627776Y-58115210D01*
X99797083Y-58072801D01*
X99802396Y-58071717D01*
X99978287Y-58043858D01*
X100147594Y-58018744D01*
X100153388Y-58018164D01*
X100347421Y-58007995D01*
X100445332Y-58003185D01*
X100498487Y-58000575D01*
X100501529Y-58000500D01*
X179498471Y-58000500D01*
X179501513Y-58000575D01*
G37*
%TD.AperFunction*%
%TD*%
M02*
