%TF.GenerationSoftware,KiCad,Pcbnew,7.0.8*%
%TF.CreationDate,2024-06-03T09:06:04-04:00*%
%TF.ProjectId,topboard,746f7062-6f61-4726-942e-6b696361645f,rev?*%
%TF.SameCoordinates,Original*%
%TF.FileFunction,Legend,Bot*%
%TF.FilePolarity,Positive*%
%FSLAX46Y46*%
G04 Gerber Fmt 4.6, Leading zero omitted, Abs format (unit mm)*
G04 Created by KiCad (PCBNEW 7.0.8) date 2024-06-03 09:06:04*
%MOMM*%
%LPD*%
G01*
G04 APERTURE LIST*
%ADD10C,0.150000*%
%ADD11C,3.200000*%
G04 APERTURE END LIST*
D10*
X175619819Y-90872493D02*
X176334104Y-90872493D01*
X176334104Y-90872493D02*
X176476961Y-90824874D01*
X176476961Y-90824874D02*
X176572200Y-90729636D01*
X176572200Y-90729636D02*
X176619819Y-90586779D01*
X176619819Y-90586779D02*
X176619819Y-90491541D01*
X176619819Y-91824874D02*
X176619819Y-91348684D01*
X176619819Y-91348684D02*
X175619819Y-91348684D01*
X176524580Y-92729636D02*
X176572200Y-92682017D01*
X176572200Y-92682017D02*
X176619819Y-92539160D01*
X176619819Y-92539160D02*
X176619819Y-92443922D01*
X176619819Y-92443922D02*
X176572200Y-92301065D01*
X176572200Y-92301065D02*
X176476961Y-92205827D01*
X176476961Y-92205827D02*
X176381723Y-92158208D01*
X176381723Y-92158208D02*
X176191247Y-92110589D01*
X176191247Y-92110589D02*
X176048390Y-92110589D01*
X176048390Y-92110589D02*
X175857914Y-92158208D01*
X175857914Y-92158208D02*
X175762676Y-92205827D01*
X175762676Y-92205827D02*
X175667438Y-92301065D01*
X175667438Y-92301065D02*
X175619819Y-92443922D01*
X175619819Y-92443922D02*
X175619819Y-92539160D01*
X175619819Y-92539160D02*
X175667438Y-92682017D01*
X175667438Y-92682017D02*
X175715057Y-92729636D01*
X175619819Y-93443922D02*
X176334104Y-93443922D01*
X176334104Y-93443922D02*
X176476961Y-93396303D01*
X176476961Y-93396303D02*
X176572200Y-93301065D01*
X176572200Y-93301065D02*
X176619819Y-93158208D01*
X176619819Y-93158208D02*
X176619819Y-93062970D01*
X176619819Y-94396303D02*
X176619819Y-93920113D01*
X176619819Y-93920113D02*
X175619819Y-93920113D01*
X176524580Y-95301065D02*
X176572200Y-95253446D01*
X176572200Y-95253446D02*
X176619819Y-95110589D01*
X176619819Y-95110589D02*
X176619819Y-95015351D01*
X176619819Y-95015351D02*
X176572200Y-94872494D01*
X176572200Y-94872494D02*
X176476961Y-94777256D01*
X176476961Y-94777256D02*
X176381723Y-94729637D01*
X176381723Y-94729637D02*
X176191247Y-94682018D01*
X176191247Y-94682018D02*
X176048390Y-94682018D01*
X176048390Y-94682018D02*
X175857914Y-94729637D01*
X175857914Y-94729637D02*
X175762676Y-94777256D01*
X175762676Y-94777256D02*
X175667438Y-94872494D01*
X175667438Y-94872494D02*
X175619819Y-95015351D01*
X175619819Y-95015351D02*
X175619819Y-95110589D01*
X175619819Y-95110589D02*
X175667438Y-95253446D01*
X175667438Y-95253446D02*
X175715057Y-95301065D01*
X175619819Y-96015351D02*
X176334104Y-96015351D01*
X176334104Y-96015351D02*
X176476961Y-95967732D01*
X176476961Y-95967732D02*
X176572200Y-95872494D01*
X176572200Y-95872494D02*
X176619819Y-95729637D01*
X176619819Y-95729637D02*
X176619819Y-95634399D01*
X176619819Y-96967732D02*
X176619819Y-96491542D01*
X176619819Y-96491542D02*
X175619819Y-96491542D01*
X176524580Y-97872494D02*
X176572200Y-97824875D01*
X176572200Y-97824875D02*
X176619819Y-97682018D01*
X176619819Y-97682018D02*
X176619819Y-97586780D01*
X176619819Y-97586780D02*
X176572200Y-97443923D01*
X176572200Y-97443923D02*
X176476961Y-97348685D01*
X176476961Y-97348685D02*
X176381723Y-97301066D01*
X176381723Y-97301066D02*
X176191247Y-97253447D01*
X176191247Y-97253447D02*
X176048390Y-97253447D01*
X176048390Y-97253447D02*
X175857914Y-97301066D01*
X175857914Y-97301066D02*
X175762676Y-97348685D01*
X175762676Y-97348685D02*
X175667438Y-97443923D01*
X175667438Y-97443923D02*
X175619819Y-97586780D01*
X175619819Y-97586780D02*
X175619819Y-97682018D01*
X175619819Y-97682018D02*
X175667438Y-97824875D01*
X175667438Y-97824875D02*
X175715057Y-97872494D01*
X175619819Y-98586780D02*
X176334104Y-98586780D01*
X176334104Y-98586780D02*
X176476961Y-98539161D01*
X176476961Y-98539161D02*
X176572200Y-98443923D01*
X176572200Y-98443923D02*
X176619819Y-98301066D01*
X176619819Y-98301066D02*
X176619819Y-98205828D01*
X176619819Y-99539161D02*
X176619819Y-99062971D01*
X176619819Y-99062971D02*
X175619819Y-99062971D01*
X176524580Y-100443923D02*
X176572200Y-100396304D01*
X176572200Y-100396304D02*
X176619819Y-100253447D01*
X176619819Y-100253447D02*
X176619819Y-100158209D01*
X176619819Y-100158209D02*
X176572200Y-100015352D01*
X176572200Y-100015352D02*
X176476961Y-99920114D01*
X176476961Y-99920114D02*
X176381723Y-99872495D01*
X176381723Y-99872495D02*
X176191247Y-99824876D01*
X176191247Y-99824876D02*
X176048390Y-99824876D01*
X176048390Y-99824876D02*
X175857914Y-99872495D01*
X175857914Y-99872495D02*
X175762676Y-99920114D01*
X175762676Y-99920114D02*
X175667438Y-100015352D01*
X175667438Y-100015352D02*
X175619819Y-100158209D01*
X175619819Y-100158209D02*
X175619819Y-100253447D01*
X175619819Y-100253447D02*
X175667438Y-100396304D01*
X175667438Y-100396304D02*
X175715057Y-100443923D01*
%LPC*%
D11*
%TO.C,REF\u002A\u002A*%
X100500000Y-61500000D03*
%TD*%
%TO.C,REF\u002A\u002A*%
X100500000Y-116500000D03*
%TD*%
%TO.C,REF\u002A\u002A*%
X179500000Y-116500000D03*
%TD*%
%TO.C,REF\u002A\u002A*%
X179500000Y-61500000D03*
%TD*%
%LPD*%
M02*
