%TF.GenerationSoftware,KiCad,Pcbnew,7.0.8*%
%TF.CreationDate,2024-05-29T12:02:13-04:00*%
%TF.ProjectId,topboard,746f7062-6f61-4726-942e-6b696361645f,rev?*%
%TF.SameCoordinates,Original*%
%TF.FileFunction,Legend,Top*%
%TF.FilePolarity,Positive*%
%FSLAX46Y46*%
G04 Gerber Fmt 4.6, Leading zero omitted, Abs format (unit mm)*
G04 Created by KiCad (PCBNEW 7.0.8) date 2024-05-29 12:02:13*
%MOMM*%
%LPD*%
G01*
G04 APERTURE LIST*
%ADD10C,0.200000*%
%ADD11C,0.400000*%
%ADD12C,3.200000*%
G04 APERTURE END LIST*
D10*
X129749999Y-76806028D02*
X129749999Y-75306028D01*
X129749999Y-75877457D02*
X129892857Y-75806028D01*
X129892857Y-75806028D02*
X130178571Y-75806028D01*
X130178571Y-75806028D02*
X130321428Y-75877457D01*
X130321428Y-75877457D02*
X130392857Y-75948885D01*
X130392857Y-75948885D02*
X130464285Y-76091742D01*
X130464285Y-76091742D02*
X130464285Y-76520314D01*
X130464285Y-76520314D02*
X130392857Y-76663171D01*
X130392857Y-76663171D02*
X130321428Y-76734600D01*
X130321428Y-76734600D02*
X130178571Y-76806028D01*
X130178571Y-76806028D02*
X129892857Y-76806028D01*
X129892857Y-76806028D02*
X129749999Y-76734600D01*
X130964285Y-75806028D02*
X131321428Y-76806028D01*
X131678571Y-75806028D02*
X131321428Y-76806028D01*
X131321428Y-76806028D02*
X131178571Y-77163171D01*
X131178571Y-77163171D02*
X131107142Y-77234600D01*
X131107142Y-77234600D02*
X130964285Y-77306028D01*
X133392856Y-76806028D02*
X133392856Y-75306028D01*
X134035714Y-76734600D02*
X134178571Y-76806028D01*
X134178571Y-76806028D02*
X134464285Y-76806028D01*
X134464285Y-76806028D02*
X134607142Y-76734600D01*
X134607142Y-76734600D02*
X134678571Y-76591742D01*
X134678571Y-76591742D02*
X134678571Y-76520314D01*
X134678571Y-76520314D02*
X134607142Y-76377457D01*
X134607142Y-76377457D02*
X134464285Y-76306028D01*
X134464285Y-76306028D02*
X134250000Y-76306028D01*
X134250000Y-76306028D02*
X134107142Y-76234600D01*
X134107142Y-76234600D02*
X134035714Y-76091742D01*
X134035714Y-76091742D02*
X134035714Y-76020314D01*
X134035714Y-76020314D02*
X134107142Y-75877457D01*
X134107142Y-75877457D02*
X134250000Y-75806028D01*
X134250000Y-75806028D02*
X134464285Y-75806028D01*
X134464285Y-75806028D02*
X134607142Y-75877457D01*
X135535714Y-76806028D02*
X135392857Y-76734600D01*
X135392857Y-76734600D02*
X135321428Y-76591742D01*
X135321428Y-76591742D02*
X135321428Y-75306028D01*
X136750000Y-76806028D02*
X136750000Y-76020314D01*
X136750000Y-76020314D02*
X136678571Y-75877457D01*
X136678571Y-75877457D02*
X136535714Y-75806028D01*
X136535714Y-75806028D02*
X136250000Y-75806028D01*
X136250000Y-75806028D02*
X136107142Y-75877457D01*
X136750000Y-76734600D02*
X136607142Y-76806028D01*
X136607142Y-76806028D02*
X136250000Y-76806028D01*
X136250000Y-76806028D02*
X136107142Y-76734600D01*
X136107142Y-76734600D02*
X136035714Y-76591742D01*
X136035714Y-76591742D02*
X136035714Y-76448885D01*
X136035714Y-76448885D02*
X136107142Y-76306028D01*
X136107142Y-76306028D02*
X136250000Y-76234600D01*
X136250000Y-76234600D02*
X136607142Y-76234600D01*
X136607142Y-76234600D02*
X136750000Y-76163171D01*
X137464285Y-75806028D02*
X137464285Y-76806028D01*
X137464285Y-75948885D02*
X137535714Y-75877457D01*
X137535714Y-75877457D02*
X137678571Y-75806028D01*
X137678571Y-75806028D02*
X137892857Y-75806028D01*
X137892857Y-75806028D02*
X138035714Y-75877457D01*
X138035714Y-75877457D02*
X138107143Y-76020314D01*
X138107143Y-76020314D02*
X138107143Y-76806028D01*
X139464286Y-76806028D02*
X139464286Y-75306028D01*
X139464286Y-76734600D02*
X139321428Y-76806028D01*
X139321428Y-76806028D02*
X139035714Y-76806028D01*
X139035714Y-76806028D02*
X138892857Y-76734600D01*
X138892857Y-76734600D02*
X138821428Y-76663171D01*
X138821428Y-76663171D02*
X138750000Y-76520314D01*
X138750000Y-76520314D02*
X138750000Y-76091742D01*
X138750000Y-76091742D02*
X138821428Y-75948885D01*
X138821428Y-75948885D02*
X138892857Y-75877457D01*
X138892857Y-75877457D02*
X139035714Y-75806028D01*
X139035714Y-75806028D02*
X139321428Y-75806028D01*
X139321428Y-75806028D02*
X139464286Y-75877457D01*
X142178571Y-76806028D02*
X141678571Y-76091742D01*
X141321428Y-76806028D02*
X141321428Y-75306028D01*
X141321428Y-75306028D02*
X141892857Y-75306028D01*
X141892857Y-75306028D02*
X142035714Y-75377457D01*
X142035714Y-75377457D02*
X142107143Y-75448885D01*
X142107143Y-75448885D02*
X142178571Y-75591742D01*
X142178571Y-75591742D02*
X142178571Y-75806028D01*
X142178571Y-75806028D02*
X142107143Y-75948885D01*
X142107143Y-75948885D02*
X142035714Y-76020314D01*
X142035714Y-76020314D02*
X141892857Y-76091742D01*
X141892857Y-76091742D02*
X141321428Y-76091742D01*
X143035714Y-76806028D02*
X142892857Y-76734600D01*
X142892857Y-76734600D02*
X142821428Y-76663171D01*
X142821428Y-76663171D02*
X142750000Y-76520314D01*
X142750000Y-76520314D02*
X142750000Y-76091742D01*
X142750000Y-76091742D02*
X142821428Y-75948885D01*
X142821428Y-75948885D02*
X142892857Y-75877457D01*
X142892857Y-75877457D02*
X143035714Y-75806028D01*
X143035714Y-75806028D02*
X143250000Y-75806028D01*
X143250000Y-75806028D02*
X143392857Y-75877457D01*
X143392857Y-75877457D02*
X143464286Y-75948885D01*
X143464286Y-75948885D02*
X143535714Y-76091742D01*
X143535714Y-76091742D02*
X143535714Y-76520314D01*
X143535714Y-76520314D02*
X143464286Y-76663171D01*
X143464286Y-76663171D02*
X143392857Y-76734600D01*
X143392857Y-76734600D02*
X143250000Y-76806028D01*
X143250000Y-76806028D02*
X143035714Y-76806028D01*
X144178571Y-76806028D02*
X144178571Y-75306028D01*
X144178571Y-75877457D02*
X144321429Y-75806028D01*
X144321429Y-75806028D02*
X144607143Y-75806028D01*
X144607143Y-75806028D02*
X144750000Y-75877457D01*
X144750000Y-75877457D02*
X144821429Y-75948885D01*
X144821429Y-75948885D02*
X144892857Y-76091742D01*
X144892857Y-76091742D02*
X144892857Y-76520314D01*
X144892857Y-76520314D02*
X144821429Y-76663171D01*
X144821429Y-76663171D02*
X144750000Y-76734600D01*
X144750000Y-76734600D02*
X144607143Y-76806028D01*
X144607143Y-76806028D02*
X144321429Y-76806028D01*
X144321429Y-76806028D02*
X144178571Y-76734600D01*
X145750000Y-76806028D02*
X145607143Y-76734600D01*
X145607143Y-76734600D02*
X145535714Y-76663171D01*
X145535714Y-76663171D02*
X145464286Y-76520314D01*
X145464286Y-76520314D02*
X145464286Y-76091742D01*
X145464286Y-76091742D02*
X145535714Y-75948885D01*
X145535714Y-75948885D02*
X145607143Y-75877457D01*
X145607143Y-75877457D02*
X145750000Y-75806028D01*
X145750000Y-75806028D02*
X145964286Y-75806028D01*
X145964286Y-75806028D02*
X146107143Y-75877457D01*
X146107143Y-75877457D02*
X146178572Y-75948885D01*
X146178572Y-75948885D02*
X146250000Y-76091742D01*
X146250000Y-76091742D02*
X146250000Y-76520314D01*
X146250000Y-76520314D02*
X146178572Y-76663171D01*
X146178572Y-76663171D02*
X146107143Y-76734600D01*
X146107143Y-76734600D02*
X145964286Y-76806028D01*
X145964286Y-76806028D02*
X145750000Y-76806028D01*
X146678572Y-75806028D02*
X147250000Y-75806028D01*
X146892857Y-75306028D02*
X146892857Y-76591742D01*
X146892857Y-76591742D02*
X146964286Y-76734600D01*
X146964286Y-76734600D02*
X147107143Y-76806028D01*
X147107143Y-76806028D02*
X147250000Y-76806028D01*
X147750000Y-76806028D02*
X147750000Y-75806028D01*
X147750000Y-75306028D02*
X147678572Y-75377457D01*
X147678572Y-75377457D02*
X147750000Y-75448885D01*
X147750000Y-75448885D02*
X147821429Y-75377457D01*
X147821429Y-75377457D02*
X147750000Y-75306028D01*
X147750000Y-75306028D02*
X147750000Y-75448885D01*
X149107144Y-76734600D02*
X148964286Y-76806028D01*
X148964286Y-76806028D02*
X148678572Y-76806028D01*
X148678572Y-76806028D02*
X148535715Y-76734600D01*
X148535715Y-76734600D02*
X148464286Y-76663171D01*
X148464286Y-76663171D02*
X148392858Y-76520314D01*
X148392858Y-76520314D02*
X148392858Y-76091742D01*
X148392858Y-76091742D02*
X148464286Y-75948885D01*
X148464286Y-75948885D02*
X148535715Y-75877457D01*
X148535715Y-75877457D02*
X148678572Y-75806028D01*
X148678572Y-75806028D02*
X148964286Y-75806028D01*
X148964286Y-75806028D02*
X149107144Y-75877457D01*
X149678572Y-76734600D02*
X149821429Y-76806028D01*
X149821429Y-76806028D02*
X150107143Y-76806028D01*
X150107143Y-76806028D02*
X150250000Y-76734600D01*
X150250000Y-76734600D02*
X150321429Y-76591742D01*
X150321429Y-76591742D02*
X150321429Y-76520314D01*
X150321429Y-76520314D02*
X150250000Y-76377457D01*
X150250000Y-76377457D02*
X150107143Y-76306028D01*
X150107143Y-76306028D02*
X149892858Y-76306028D01*
X149892858Y-76306028D02*
X149750000Y-76234600D01*
X149750000Y-76234600D02*
X149678572Y-76091742D01*
X149678572Y-76091742D02*
X149678572Y-76020314D01*
X149678572Y-76020314D02*
X149750000Y-75877457D01*
X149750000Y-75877457D02*
X149892858Y-75806028D01*
X149892858Y-75806028D02*
X150107143Y-75806028D01*
X150107143Y-75806028D02*
X150250000Y-75877457D01*
D11*
X125547619Y-73804200D02*
X125904762Y-73923247D01*
X125904762Y-73923247D02*
X126500000Y-73923247D01*
X126500000Y-73923247D02*
X126738095Y-73804200D01*
X126738095Y-73804200D02*
X126857143Y-73685152D01*
X126857143Y-73685152D02*
X126976190Y-73447057D01*
X126976190Y-73447057D02*
X126976190Y-73208961D01*
X126976190Y-73208961D02*
X126857143Y-72970866D01*
X126857143Y-72970866D02*
X126738095Y-72851819D01*
X126738095Y-72851819D02*
X126500000Y-72732771D01*
X126500000Y-72732771D02*
X126023809Y-72613723D01*
X126023809Y-72613723D02*
X125785714Y-72494676D01*
X125785714Y-72494676D02*
X125666667Y-72375628D01*
X125666667Y-72375628D02*
X125547619Y-72137533D01*
X125547619Y-72137533D02*
X125547619Y-71899438D01*
X125547619Y-71899438D02*
X125666667Y-71661342D01*
X125666667Y-71661342D02*
X125785714Y-71542295D01*
X125785714Y-71542295D02*
X126023809Y-71423247D01*
X126023809Y-71423247D02*
X126619048Y-71423247D01*
X126619048Y-71423247D02*
X126976190Y-71542295D01*
X129000000Y-73804200D02*
X128761904Y-73923247D01*
X128761904Y-73923247D02*
X128285714Y-73923247D01*
X128285714Y-73923247D02*
X128047619Y-73804200D01*
X128047619Y-73804200D02*
X127928571Y-73566104D01*
X127928571Y-73566104D02*
X127928571Y-72613723D01*
X127928571Y-72613723D02*
X128047619Y-72375628D01*
X128047619Y-72375628D02*
X128285714Y-72256580D01*
X128285714Y-72256580D02*
X128761904Y-72256580D01*
X128761904Y-72256580D02*
X129000000Y-72375628D01*
X129000000Y-72375628D02*
X129119047Y-72613723D01*
X129119047Y-72613723D02*
X129119047Y-72851819D01*
X129119047Y-72851819D02*
X127928571Y-73089914D01*
X130190476Y-73923247D02*
X130190476Y-72256580D01*
X130190476Y-72732771D02*
X130309523Y-72494676D01*
X130309523Y-72494676D02*
X130428571Y-72375628D01*
X130428571Y-72375628D02*
X130666666Y-72256580D01*
X130666666Y-72256580D02*
X130904761Y-72256580D01*
X131499999Y-72256580D02*
X132095237Y-73923247D01*
X132095237Y-73923247D02*
X132690476Y-72256580D01*
X133999999Y-73923247D02*
X133761904Y-73804200D01*
X133761904Y-73804200D02*
X133642857Y-73685152D01*
X133642857Y-73685152D02*
X133523809Y-73447057D01*
X133523809Y-73447057D02*
X133523809Y-72732771D01*
X133523809Y-72732771D02*
X133642857Y-72494676D01*
X133642857Y-72494676D02*
X133761904Y-72375628D01*
X133761904Y-72375628D02*
X133999999Y-72256580D01*
X133999999Y-72256580D02*
X134357142Y-72256580D01*
X134357142Y-72256580D02*
X134595238Y-72375628D01*
X134595238Y-72375628D02*
X134714285Y-72494676D01*
X134714285Y-72494676D02*
X134833333Y-72732771D01*
X134833333Y-72732771D02*
X134833333Y-73447057D01*
X134833333Y-73447057D02*
X134714285Y-73685152D01*
X134714285Y-73685152D02*
X134595238Y-73804200D01*
X134595238Y-73804200D02*
X134357142Y-73923247D01*
X134357142Y-73923247D02*
X133999999Y-73923247D01*
X138880952Y-73804200D02*
X138642857Y-73923247D01*
X138642857Y-73923247D02*
X138166666Y-73923247D01*
X138166666Y-73923247D02*
X137928571Y-73804200D01*
X137928571Y-73804200D02*
X137809524Y-73685152D01*
X137809524Y-73685152D02*
X137690476Y-73447057D01*
X137690476Y-73447057D02*
X137690476Y-72732771D01*
X137690476Y-72732771D02*
X137809524Y-72494676D01*
X137809524Y-72494676D02*
X137928571Y-72375628D01*
X137928571Y-72375628D02*
X138166666Y-72256580D01*
X138166666Y-72256580D02*
X138642857Y-72256580D01*
X138642857Y-72256580D02*
X138880952Y-72375628D01*
X140309523Y-73923247D02*
X140071428Y-73804200D01*
X140071428Y-73804200D02*
X139952381Y-73685152D01*
X139952381Y-73685152D02*
X139833333Y-73447057D01*
X139833333Y-73447057D02*
X139833333Y-72732771D01*
X139833333Y-72732771D02*
X139952381Y-72494676D01*
X139952381Y-72494676D02*
X140071428Y-72375628D01*
X140071428Y-72375628D02*
X140309523Y-72256580D01*
X140309523Y-72256580D02*
X140666666Y-72256580D01*
X140666666Y-72256580D02*
X140904762Y-72375628D01*
X140904762Y-72375628D02*
X141023809Y-72494676D01*
X141023809Y-72494676D02*
X141142857Y-72732771D01*
X141142857Y-72732771D02*
X141142857Y-73447057D01*
X141142857Y-73447057D02*
X141023809Y-73685152D01*
X141023809Y-73685152D02*
X140904762Y-73804200D01*
X140904762Y-73804200D02*
X140666666Y-73923247D01*
X140666666Y-73923247D02*
X140309523Y-73923247D01*
X142214286Y-72256580D02*
X142214286Y-73923247D01*
X142214286Y-72494676D02*
X142333333Y-72375628D01*
X142333333Y-72375628D02*
X142571428Y-72256580D01*
X142571428Y-72256580D02*
X142928571Y-72256580D01*
X142928571Y-72256580D02*
X143166667Y-72375628D01*
X143166667Y-72375628D02*
X143285714Y-72613723D01*
X143285714Y-72613723D02*
X143285714Y-73923247D01*
X144119048Y-72256580D02*
X145071429Y-72256580D01*
X144476191Y-71423247D02*
X144476191Y-73566104D01*
X144476191Y-73566104D02*
X144595238Y-73804200D01*
X144595238Y-73804200D02*
X144833333Y-73923247D01*
X144833333Y-73923247D02*
X145071429Y-73923247D01*
X145904762Y-73923247D02*
X145904762Y-72256580D01*
X145904762Y-72732771D02*
X146023809Y-72494676D01*
X146023809Y-72494676D02*
X146142857Y-72375628D01*
X146142857Y-72375628D02*
X146380952Y-72256580D01*
X146380952Y-72256580D02*
X146619047Y-72256580D01*
X147809523Y-73923247D02*
X147571428Y-73804200D01*
X147571428Y-73804200D02*
X147452381Y-73685152D01*
X147452381Y-73685152D02*
X147333333Y-73447057D01*
X147333333Y-73447057D02*
X147333333Y-72732771D01*
X147333333Y-72732771D02*
X147452381Y-72494676D01*
X147452381Y-72494676D02*
X147571428Y-72375628D01*
X147571428Y-72375628D02*
X147809523Y-72256580D01*
X147809523Y-72256580D02*
X148166666Y-72256580D01*
X148166666Y-72256580D02*
X148404762Y-72375628D01*
X148404762Y-72375628D02*
X148523809Y-72494676D01*
X148523809Y-72494676D02*
X148642857Y-72732771D01*
X148642857Y-72732771D02*
X148642857Y-73447057D01*
X148642857Y-73447057D02*
X148523809Y-73685152D01*
X148523809Y-73685152D02*
X148404762Y-73804200D01*
X148404762Y-73804200D02*
X148166666Y-73923247D01*
X148166666Y-73923247D02*
X147809523Y-73923247D01*
X150071428Y-73923247D02*
X149833333Y-73804200D01*
X149833333Y-73804200D02*
X149714286Y-73566104D01*
X149714286Y-73566104D02*
X149714286Y-71423247D01*
X151380952Y-73923247D02*
X151142857Y-73804200D01*
X151142857Y-73804200D02*
X151023810Y-73566104D01*
X151023810Y-73566104D02*
X151023810Y-71423247D01*
X153285715Y-73804200D02*
X153047619Y-73923247D01*
X153047619Y-73923247D02*
X152571429Y-73923247D01*
X152571429Y-73923247D02*
X152333334Y-73804200D01*
X152333334Y-73804200D02*
X152214286Y-73566104D01*
X152214286Y-73566104D02*
X152214286Y-72613723D01*
X152214286Y-72613723D02*
X152333334Y-72375628D01*
X152333334Y-72375628D02*
X152571429Y-72256580D01*
X152571429Y-72256580D02*
X153047619Y-72256580D01*
X153047619Y-72256580D02*
X153285715Y-72375628D01*
X153285715Y-72375628D02*
X153404762Y-72613723D01*
X153404762Y-72613723D02*
X153404762Y-72851819D01*
X153404762Y-72851819D02*
X152214286Y-73089914D01*
X154476191Y-73923247D02*
X154476191Y-72256580D01*
X154476191Y-72732771D02*
X154595238Y-72494676D01*
X154595238Y-72494676D02*
X154714286Y-72375628D01*
X154714286Y-72375628D02*
X154952381Y-72256580D01*
X154952381Y-72256580D02*
X155190476Y-72256580D01*
D10*
X127535715Y-79234600D02*
X127678572Y-79306028D01*
X127678572Y-79306028D02*
X127964286Y-79306028D01*
X127964286Y-79306028D02*
X128107143Y-79234600D01*
X128107143Y-79234600D02*
X128178572Y-79091742D01*
X128178572Y-79091742D02*
X128178572Y-79020314D01*
X128178572Y-79020314D02*
X128107143Y-78877457D01*
X128107143Y-78877457D02*
X127964286Y-78806028D01*
X127964286Y-78806028D02*
X127750001Y-78806028D01*
X127750001Y-78806028D02*
X127607143Y-78734600D01*
X127607143Y-78734600D02*
X127535715Y-78591742D01*
X127535715Y-78591742D02*
X127535715Y-78520314D01*
X127535715Y-78520314D02*
X127607143Y-78377457D01*
X127607143Y-78377457D02*
X127750001Y-78306028D01*
X127750001Y-78306028D02*
X127964286Y-78306028D01*
X127964286Y-78306028D02*
X128107143Y-78377457D01*
X129392858Y-79234600D02*
X129250001Y-79306028D01*
X129250001Y-79306028D02*
X128964287Y-79306028D01*
X128964287Y-79306028D02*
X128821429Y-79234600D01*
X128821429Y-79234600D02*
X128750001Y-79091742D01*
X128750001Y-79091742D02*
X128750001Y-78520314D01*
X128750001Y-78520314D02*
X128821429Y-78377457D01*
X128821429Y-78377457D02*
X128964287Y-78306028D01*
X128964287Y-78306028D02*
X129250001Y-78306028D01*
X129250001Y-78306028D02*
X129392858Y-78377457D01*
X129392858Y-78377457D02*
X129464287Y-78520314D01*
X129464287Y-78520314D02*
X129464287Y-78663171D01*
X129464287Y-78663171D02*
X128750001Y-78806028D01*
X130107143Y-79306028D02*
X130107143Y-78306028D01*
X130107143Y-78591742D02*
X130178572Y-78448885D01*
X130178572Y-78448885D02*
X130250001Y-78377457D01*
X130250001Y-78377457D02*
X130392858Y-78306028D01*
X130392858Y-78306028D02*
X130535715Y-78306028D01*
X130892857Y-78306028D02*
X131250000Y-79306028D01*
X131250000Y-79306028D02*
X131607143Y-78306028D01*
X132392857Y-79306028D02*
X132250000Y-79234600D01*
X132250000Y-79234600D02*
X132178571Y-79163171D01*
X132178571Y-79163171D02*
X132107143Y-79020314D01*
X132107143Y-79020314D02*
X132107143Y-78591742D01*
X132107143Y-78591742D02*
X132178571Y-78448885D01*
X132178571Y-78448885D02*
X132250000Y-78377457D01*
X132250000Y-78377457D02*
X132392857Y-78306028D01*
X132392857Y-78306028D02*
X132607143Y-78306028D01*
X132607143Y-78306028D02*
X132750000Y-78377457D01*
X132750000Y-78377457D02*
X132821429Y-78448885D01*
X132821429Y-78448885D02*
X132892857Y-78591742D01*
X132892857Y-78591742D02*
X132892857Y-79020314D01*
X132892857Y-79020314D02*
X132821429Y-79163171D01*
X132821429Y-79163171D02*
X132750000Y-79234600D01*
X132750000Y-79234600D02*
X132607143Y-79306028D01*
X132607143Y-79306028D02*
X132392857Y-79306028D01*
X133178572Y-79448885D02*
X134321429Y-79448885D01*
X135321429Y-79234600D02*
X135178571Y-79306028D01*
X135178571Y-79306028D02*
X134892857Y-79306028D01*
X134892857Y-79306028D02*
X134750000Y-79234600D01*
X134750000Y-79234600D02*
X134678571Y-79163171D01*
X134678571Y-79163171D02*
X134607143Y-79020314D01*
X134607143Y-79020314D02*
X134607143Y-78591742D01*
X134607143Y-78591742D02*
X134678571Y-78448885D01*
X134678571Y-78448885D02*
X134750000Y-78377457D01*
X134750000Y-78377457D02*
X134892857Y-78306028D01*
X134892857Y-78306028D02*
X135178571Y-78306028D01*
X135178571Y-78306028D02*
X135321429Y-78377457D01*
X136178571Y-79306028D02*
X136035714Y-79234600D01*
X136035714Y-79234600D02*
X135964285Y-79163171D01*
X135964285Y-79163171D02*
X135892857Y-79020314D01*
X135892857Y-79020314D02*
X135892857Y-78591742D01*
X135892857Y-78591742D02*
X135964285Y-78448885D01*
X135964285Y-78448885D02*
X136035714Y-78377457D01*
X136035714Y-78377457D02*
X136178571Y-78306028D01*
X136178571Y-78306028D02*
X136392857Y-78306028D01*
X136392857Y-78306028D02*
X136535714Y-78377457D01*
X136535714Y-78377457D02*
X136607143Y-78448885D01*
X136607143Y-78448885D02*
X136678571Y-78591742D01*
X136678571Y-78591742D02*
X136678571Y-79020314D01*
X136678571Y-79020314D02*
X136607143Y-79163171D01*
X136607143Y-79163171D02*
X136535714Y-79234600D01*
X136535714Y-79234600D02*
X136392857Y-79306028D01*
X136392857Y-79306028D02*
X136178571Y-79306028D01*
X137321428Y-78306028D02*
X137321428Y-79306028D01*
X137321428Y-78448885D02*
X137392857Y-78377457D01*
X137392857Y-78377457D02*
X137535714Y-78306028D01*
X137535714Y-78306028D02*
X137750000Y-78306028D01*
X137750000Y-78306028D02*
X137892857Y-78377457D01*
X137892857Y-78377457D02*
X137964286Y-78520314D01*
X137964286Y-78520314D02*
X137964286Y-79306028D01*
X138464286Y-78306028D02*
X139035714Y-78306028D01*
X138678571Y-77806028D02*
X138678571Y-79091742D01*
X138678571Y-79091742D02*
X138750000Y-79234600D01*
X138750000Y-79234600D02*
X138892857Y-79306028D01*
X138892857Y-79306028D02*
X139035714Y-79306028D01*
X139535714Y-79306028D02*
X139535714Y-78306028D01*
X139535714Y-78591742D02*
X139607143Y-78448885D01*
X139607143Y-78448885D02*
X139678572Y-78377457D01*
X139678572Y-78377457D02*
X139821429Y-78306028D01*
X139821429Y-78306028D02*
X139964286Y-78306028D01*
X140678571Y-79306028D02*
X140535714Y-79234600D01*
X140535714Y-79234600D02*
X140464285Y-79163171D01*
X140464285Y-79163171D02*
X140392857Y-79020314D01*
X140392857Y-79020314D02*
X140392857Y-78591742D01*
X140392857Y-78591742D02*
X140464285Y-78448885D01*
X140464285Y-78448885D02*
X140535714Y-78377457D01*
X140535714Y-78377457D02*
X140678571Y-78306028D01*
X140678571Y-78306028D02*
X140892857Y-78306028D01*
X140892857Y-78306028D02*
X141035714Y-78377457D01*
X141035714Y-78377457D02*
X141107143Y-78448885D01*
X141107143Y-78448885D02*
X141178571Y-78591742D01*
X141178571Y-78591742D02*
X141178571Y-79020314D01*
X141178571Y-79020314D02*
X141107143Y-79163171D01*
X141107143Y-79163171D02*
X141035714Y-79234600D01*
X141035714Y-79234600D02*
X140892857Y-79306028D01*
X140892857Y-79306028D02*
X140678571Y-79306028D01*
X142035714Y-79306028D02*
X141892857Y-79234600D01*
X141892857Y-79234600D02*
X141821428Y-79091742D01*
X141821428Y-79091742D02*
X141821428Y-77806028D01*
X142821428Y-79306028D02*
X142678571Y-79234600D01*
X142678571Y-79234600D02*
X142607142Y-79091742D01*
X142607142Y-79091742D02*
X142607142Y-77806028D01*
X143964285Y-79234600D02*
X143821428Y-79306028D01*
X143821428Y-79306028D02*
X143535714Y-79306028D01*
X143535714Y-79306028D02*
X143392856Y-79234600D01*
X143392856Y-79234600D02*
X143321428Y-79091742D01*
X143321428Y-79091742D02*
X143321428Y-78520314D01*
X143321428Y-78520314D02*
X143392856Y-78377457D01*
X143392856Y-78377457D02*
X143535714Y-78306028D01*
X143535714Y-78306028D02*
X143821428Y-78306028D01*
X143821428Y-78306028D02*
X143964285Y-78377457D01*
X143964285Y-78377457D02*
X144035714Y-78520314D01*
X144035714Y-78520314D02*
X144035714Y-78663171D01*
X144035714Y-78663171D02*
X143321428Y-78806028D01*
X144678570Y-79306028D02*
X144678570Y-78306028D01*
X144678570Y-78591742D02*
X144749999Y-78448885D01*
X144749999Y-78448885D02*
X144821428Y-78377457D01*
X144821428Y-78377457D02*
X144964285Y-78306028D01*
X144964285Y-78306028D02*
X145107142Y-78306028D01*
X145607141Y-79163171D02*
X145678570Y-79234600D01*
X145678570Y-79234600D02*
X145607141Y-79306028D01*
X145607141Y-79306028D02*
X145535713Y-79234600D01*
X145535713Y-79234600D02*
X145607141Y-79163171D01*
X145607141Y-79163171D02*
X145607141Y-79306028D01*
X146321427Y-79306028D02*
X146321427Y-78306028D01*
X146321427Y-78591742D02*
X146392856Y-78448885D01*
X146392856Y-78448885D02*
X146464285Y-78377457D01*
X146464285Y-78377457D02*
X146607142Y-78306028D01*
X146607142Y-78306028D02*
X146749999Y-78306028D01*
X147035713Y-78306028D02*
X147607141Y-78306028D01*
X147249998Y-77806028D02*
X147249998Y-79091742D01*
X147249998Y-79091742D02*
X147321427Y-79234600D01*
X147321427Y-79234600D02*
X147464284Y-79306028D01*
X147464284Y-79306028D02*
X147607141Y-79306028D01*
X147892856Y-78306028D02*
X148464284Y-78306028D01*
X148107141Y-79306028D02*
X148107141Y-78020314D01*
X148107141Y-78020314D02*
X148178570Y-77877457D01*
X148178570Y-77877457D02*
X148321427Y-77806028D01*
X148321427Y-77806028D02*
X148464284Y-77806028D01*
X149607142Y-79306028D02*
X149607142Y-77806028D01*
X149607142Y-79234600D02*
X149464284Y-79306028D01*
X149464284Y-79306028D02*
X149178570Y-79306028D01*
X149178570Y-79306028D02*
X149035713Y-79234600D01*
X149035713Y-79234600D02*
X148964284Y-79163171D01*
X148964284Y-79163171D02*
X148892856Y-79020314D01*
X148892856Y-79020314D02*
X148892856Y-78591742D01*
X148892856Y-78591742D02*
X148964284Y-78448885D01*
X148964284Y-78448885D02*
X149035713Y-78377457D01*
X149035713Y-78377457D02*
X149178570Y-78306028D01*
X149178570Y-78306028D02*
X149464284Y-78306028D01*
X149464284Y-78306028D02*
X149607142Y-78377457D01*
X150321427Y-79163171D02*
X150392856Y-79234600D01*
X150392856Y-79234600D02*
X150321427Y-79306028D01*
X150321427Y-79306028D02*
X150249999Y-79234600D01*
X150249999Y-79234600D02*
X150321427Y-79163171D01*
X150321427Y-79163171D02*
X150321427Y-79306028D01*
X151035713Y-79306028D02*
X151035713Y-78306028D01*
X151035713Y-77806028D02*
X150964285Y-77877457D01*
X150964285Y-77877457D02*
X151035713Y-77948885D01*
X151035713Y-77948885D02*
X151107142Y-77877457D01*
X151107142Y-77877457D02*
X151035713Y-77806028D01*
X151035713Y-77806028D02*
X151035713Y-77948885D01*
X151964285Y-79306028D02*
X151821428Y-79234600D01*
X151821428Y-79234600D02*
X151749999Y-79163171D01*
X151749999Y-79163171D02*
X151678571Y-79020314D01*
X151678571Y-79020314D02*
X151678571Y-78591742D01*
X151678571Y-78591742D02*
X151749999Y-78448885D01*
X151749999Y-78448885D02*
X151821428Y-78377457D01*
X151821428Y-78377457D02*
X151964285Y-78306028D01*
X151964285Y-78306028D02*
X152178571Y-78306028D01*
X152178571Y-78306028D02*
X152321428Y-78377457D01*
X152321428Y-78377457D02*
X152392857Y-78448885D01*
X152392857Y-78448885D02*
X152464285Y-78591742D01*
X152464285Y-78591742D02*
X152464285Y-79020314D01*
X152464285Y-79020314D02*
X152392857Y-79163171D01*
X152392857Y-79163171D02*
X152321428Y-79234600D01*
X152321428Y-79234600D02*
X152178571Y-79306028D01*
X152178571Y-79306028D02*
X151964285Y-79306028D01*
%TO.C,kibuzzard-66574FE6*%
G36*
X151294595Y-66234763D02*
G01*
X151418610Y-66240855D01*
X151541431Y-66259074D01*
X151661874Y-66289243D01*
X151778781Y-66331073D01*
X151891024Y-66384160D01*
X151997524Y-66447993D01*
X152097253Y-66521958D01*
X152189253Y-66605342D01*
X152272637Y-66697342D01*
X152346602Y-66797072D01*
X152410435Y-66903571D01*
X152463522Y-67015815D01*
X152505352Y-67132721D01*
X152535522Y-67253164D01*
X152553740Y-67375985D01*
X152559833Y-67500000D01*
X152553740Y-67624015D01*
X152535522Y-67746836D01*
X152505352Y-67867279D01*
X152463522Y-67984185D01*
X152410435Y-68096429D01*
X152346602Y-68202928D01*
X152272637Y-68302658D01*
X152189253Y-68394658D01*
X152097253Y-68478042D01*
X151997524Y-68552007D01*
X151891024Y-68615840D01*
X151778781Y-68668927D01*
X151661874Y-68710757D01*
X151541431Y-68740926D01*
X151418610Y-68759145D01*
X151294595Y-68765237D01*
X151294397Y-68765237D01*
X150751472Y-68765237D01*
X148539291Y-68765237D01*
X146358066Y-68765237D01*
X145705603Y-68765237D01*
X145705405Y-68765237D01*
X145705405Y-68765238D01*
X145581390Y-68759145D01*
X145458569Y-68740926D01*
X145338126Y-68710757D01*
X145221219Y-68668927D01*
X145108976Y-68615840D01*
X145002476Y-68552007D01*
X144902747Y-68478042D01*
X144810747Y-68394658D01*
X144727363Y-68302658D01*
X144653398Y-68202928D01*
X144626005Y-68157225D01*
X150294272Y-68157225D01*
X150458578Y-68229853D01*
X150586570Y-68259321D01*
X150751472Y-68269144D01*
X150918556Y-68256576D01*
X151054684Y-68218873D01*
X151159856Y-68156034D01*
X151260762Y-68019410D01*
X151294397Y-67835756D01*
X151284277Y-67724730D01*
X151253916Y-67634541D01*
X151150331Y-67501191D01*
X151012219Y-67415466D01*
X150868153Y-67357125D01*
X150776475Y-67321406D01*
X150693131Y-67277353D01*
X150632409Y-67220203D01*
X150608597Y-67145194D01*
X150634526Y-67051267D01*
X150712314Y-66994910D01*
X150841959Y-66976125D01*
X151009838Y-66999937D01*
X151141997Y-67057087D01*
X151227722Y-66830869D01*
X151057463Y-66761812D01*
X150947627Y-66738595D01*
X150820528Y-66730856D01*
X150674610Y-66743821D01*
X150551182Y-66782715D01*
X150450244Y-66847537D01*
X150349338Y-66986841D01*
X150315703Y-67171387D01*
X150353803Y-67346409D01*
X150450244Y-67464281D01*
X150580022Y-67542862D01*
X150718134Y-67597631D01*
X150818147Y-67639303D01*
X150908634Y-67689309D01*
X150975309Y-67752412D01*
X151001503Y-67833375D01*
X150990788Y-67903622D01*
X150951497Y-67965534D01*
X150874106Y-68008397D01*
X150751472Y-68023875D01*
X150632707Y-68015541D01*
X150533588Y-67990537D01*
X150379997Y-67919100D01*
X150294272Y-68157225D01*
X144626005Y-68157225D01*
X144589565Y-68096429D01*
X144536478Y-67984185D01*
X144494648Y-67867279D01*
X144464478Y-67746836D01*
X144446260Y-67624015D01*
X144440167Y-67500000D01*
X144440986Y-67483331D01*
X145705603Y-67483331D01*
X145705603Y-67771462D01*
X146358066Y-67771462D01*
X146358066Y-67733362D01*
X147913022Y-67733362D01*
X148286878Y-67733362D01*
X148286878Y-68147700D01*
X148539291Y-68147700D01*
X148539291Y-67733362D01*
X148913147Y-67733362D01*
X148913147Y-67492856D01*
X148539291Y-67492856D01*
X148539291Y-67078519D01*
X148286878Y-67078519D01*
X148286878Y-67492856D01*
X147913022Y-67492856D01*
X147913022Y-67733362D01*
X146358066Y-67733362D01*
X146358066Y-67483331D01*
X145705603Y-67483331D01*
X144440986Y-67483331D01*
X144446260Y-67375985D01*
X144464478Y-67253164D01*
X144494648Y-67132721D01*
X144536478Y-67015815D01*
X144589565Y-66903571D01*
X144653398Y-66797072D01*
X144727363Y-66697342D01*
X144810747Y-66605342D01*
X144902747Y-66521958D01*
X145002476Y-66447993D01*
X145108976Y-66384160D01*
X145221219Y-66331073D01*
X145338126Y-66289243D01*
X145458569Y-66259074D01*
X145581390Y-66240855D01*
X145705405Y-66234762D01*
X145705603Y-66234762D01*
X151294397Y-66234762D01*
X151294595Y-66234762D01*
X151294595Y-66234763D01*
G37*
G36*
X134294595Y-66234763D02*
G01*
X134418610Y-66240855D01*
X134541431Y-66259074D01*
X134661874Y-66289243D01*
X134778781Y-66331073D01*
X134891024Y-66384160D01*
X134997524Y-66447993D01*
X135097253Y-66521958D01*
X135189253Y-66605342D01*
X135272637Y-66697342D01*
X135346602Y-66797072D01*
X135410435Y-66903571D01*
X135463522Y-67015815D01*
X135505352Y-67132721D01*
X135535522Y-67253164D01*
X135553740Y-67375985D01*
X135559833Y-67500000D01*
X135553740Y-67624015D01*
X135535522Y-67746836D01*
X135505352Y-67867279D01*
X135463522Y-67984185D01*
X135410435Y-68096429D01*
X135346602Y-68202928D01*
X135272637Y-68302658D01*
X135189253Y-68394658D01*
X135097253Y-68478042D01*
X134997524Y-68552007D01*
X134891024Y-68615840D01*
X134778781Y-68668927D01*
X134661874Y-68710757D01*
X134541431Y-68740926D01*
X134418610Y-68759145D01*
X134294595Y-68765237D01*
X134294397Y-68765237D01*
X133751472Y-68765237D01*
X131539291Y-68765237D01*
X129358066Y-68765237D01*
X128705603Y-68765237D01*
X128705405Y-68765237D01*
X128705405Y-68765238D01*
X128581390Y-68759145D01*
X128458569Y-68740926D01*
X128338126Y-68710757D01*
X128221219Y-68668927D01*
X128108976Y-68615840D01*
X128002476Y-68552007D01*
X127902747Y-68478042D01*
X127810747Y-68394658D01*
X127727363Y-68302658D01*
X127653398Y-68202928D01*
X127626005Y-68157225D01*
X133294272Y-68157225D01*
X133458578Y-68229853D01*
X133586570Y-68259321D01*
X133751472Y-68269144D01*
X133918556Y-68256576D01*
X134054684Y-68218873D01*
X134159856Y-68156034D01*
X134260762Y-68019410D01*
X134294397Y-67835756D01*
X134284277Y-67724730D01*
X134253916Y-67634541D01*
X134150331Y-67501191D01*
X134012219Y-67415466D01*
X133868153Y-67357125D01*
X133776475Y-67321406D01*
X133693131Y-67277353D01*
X133632409Y-67220203D01*
X133608597Y-67145194D01*
X133634526Y-67051267D01*
X133712314Y-66994910D01*
X133841959Y-66976125D01*
X134009838Y-66999937D01*
X134141997Y-67057087D01*
X134227722Y-66830869D01*
X134057463Y-66761812D01*
X133947627Y-66738595D01*
X133820528Y-66730856D01*
X133674610Y-66743821D01*
X133551182Y-66782715D01*
X133450244Y-66847537D01*
X133349338Y-66986841D01*
X133315703Y-67171387D01*
X133353803Y-67346409D01*
X133450244Y-67464281D01*
X133580022Y-67542862D01*
X133718134Y-67597631D01*
X133818147Y-67639303D01*
X133908634Y-67689309D01*
X133975309Y-67752412D01*
X134001503Y-67833375D01*
X133990788Y-67903622D01*
X133951497Y-67965534D01*
X133874106Y-68008397D01*
X133751472Y-68023875D01*
X133632707Y-68015541D01*
X133533588Y-67990537D01*
X133379997Y-67919100D01*
X133294272Y-68157225D01*
X127626005Y-68157225D01*
X127589565Y-68096429D01*
X127536478Y-67984185D01*
X127494648Y-67867279D01*
X127464478Y-67746836D01*
X127446260Y-67624015D01*
X127440167Y-67500000D01*
X127440986Y-67483331D01*
X128705603Y-67483331D01*
X128705603Y-67771462D01*
X129358066Y-67771462D01*
X129358066Y-67733362D01*
X130913022Y-67733362D01*
X131286878Y-67733362D01*
X131286878Y-68147700D01*
X131539291Y-68147700D01*
X131539291Y-67733362D01*
X131913147Y-67733362D01*
X131913147Y-67492856D01*
X131539291Y-67492856D01*
X131539291Y-67078519D01*
X131286878Y-67078519D01*
X131286878Y-67492856D01*
X130913022Y-67492856D01*
X130913022Y-67733362D01*
X129358066Y-67733362D01*
X129358066Y-67483331D01*
X128705603Y-67483331D01*
X127440986Y-67483331D01*
X127446260Y-67375985D01*
X127464478Y-67253164D01*
X127494648Y-67132721D01*
X127536478Y-67015815D01*
X127589565Y-66903571D01*
X127653398Y-66797072D01*
X127727363Y-66697342D01*
X127810747Y-66605342D01*
X127902747Y-66521958D01*
X128002476Y-66447993D01*
X128108976Y-66384160D01*
X128221219Y-66331073D01*
X128338126Y-66289243D01*
X128458569Y-66259074D01*
X128581390Y-66240855D01*
X128705405Y-66234762D01*
X128705603Y-66234762D01*
X134294397Y-66234762D01*
X134294595Y-66234762D01*
X134294595Y-66234763D01*
G37*
%TO.C,kibuzzard-6642DB3A*%
G36*
X148171952Y-60016011D02*
G01*
X148254700Y-60057087D01*
X148308278Y-60127334D01*
X148326138Y-60228537D01*
X148259463Y-60394034D01*
X148171952Y-60437790D01*
X148042769Y-60452375D01*
X147978475Y-60452375D01*
X147978475Y-60009462D01*
X148026100Y-60003509D01*
X148066581Y-60002319D01*
X148171952Y-60016011D01*
G37*
G36*
X150655000Y-60026131D02*
G01*
X150725247Y-60135669D01*
X150758584Y-60298784D01*
X150764835Y-60396118D01*
X150766919Y-60500000D01*
X150764835Y-60603584D01*
X150758584Y-60700025D01*
X150725247Y-60863141D01*
X150653809Y-60973869D01*
X150533556Y-61014350D01*
X150412113Y-60973869D01*
X150341866Y-60864331D01*
X150308528Y-60701216D01*
X150302277Y-60603882D01*
X150300194Y-60500000D01*
X150302277Y-60396416D01*
X150308528Y-60299975D01*
X150341866Y-60136859D01*
X150412113Y-60026131D01*
X150533556Y-59985650D01*
X150655000Y-60026131D01*
G37*
G36*
X152353220Y-59240855D02*
G01*
X152476040Y-59259074D01*
X152596484Y-59289243D01*
X152713390Y-59331073D01*
X152825634Y-59384160D01*
X152932133Y-59447993D01*
X153031863Y-59521958D01*
X153123863Y-59605342D01*
X153207247Y-59697342D01*
X153281211Y-59797072D01*
X153345045Y-59903571D01*
X153398132Y-60015815D01*
X153439961Y-60132721D01*
X153470131Y-60253164D01*
X153488350Y-60375985D01*
X153494442Y-60500000D01*
X153488350Y-60624015D01*
X153470131Y-60746836D01*
X153439961Y-60867279D01*
X153398132Y-60984185D01*
X153345045Y-61096429D01*
X153281211Y-61202928D01*
X153207247Y-61302658D01*
X153123863Y-61394658D01*
X153031863Y-61478042D01*
X152932133Y-61552007D01*
X152825634Y-61615840D01*
X152713390Y-61668927D01*
X152596484Y-61710757D01*
X152476040Y-61740926D01*
X152353220Y-61759145D01*
X152229205Y-61765237D01*
X152229006Y-61765237D01*
X150535938Y-61765237D01*
X149190531Y-61765237D01*
X148721425Y-61765237D01*
X146516388Y-61765237D01*
X145728194Y-61765237D01*
X145270994Y-61765237D01*
X145270795Y-61765237D01*
X145270795Y-61765238D01*
X145146780Y-61759145D01*
X145023960Y-61740926D01*
X144903516Y-61710757D01*
X144786610Y-61668927D01*
X144674366Y-61615840D01*
X144567867Y-61552007D01*
X144468137Y-61478042D01*
X144376137Y-61394658D01*
X144292753Y-61302658D01*
X144218789Y-61202928D01*
X144191395Y-61157225D01*
X145270994Y-61157225D01*
X145435300Y-61229853D01*
X145563292Y-61259321D01*
X145728194Y-61269144D01*
X145895278Y-61256576D01*
X146031406Y-61218873D01*
X146136578Y-61156034D01*
X146237484Y-61019410D01*
X146271119Y-60835756D01*
X146260998Y-60724730D01*
X146230638Y-60634541D01*
X146127053Y-60501191D01*
X145988941Y-60415466D01*
X145844875Y-60357125D01*
X145753197Y-60321406D01*
X145669853Y-60277353D01*
X145609131Y-60220203D01*
X145585319Y-60145194D01*
X145611248Y-60051267D01*
X145689035Y-59994910D01*
X145818681Y-59976125D01*
X145986559Y-59999937D01*
X146118719Y-60057087D01*
X146204444Y-59830869D01*
X146040057Y-59764194D01*
X146516388Y-59764194D01*
X146516388Y-61238187D01*
X147461744Y-61238187D01*
X147685581Y-61238187D01*
X147978475Y-61238187D01*
X147978475Y-60695262D01*
X148130875Y-60695262D01*
X148211540Y-60830101D01*
X148286847Y-60963153D01*
X148355010Y-61097991D01*
X148414244Y-61238187D01*
X148721425Y-61238187D01*
X148653559Y-61082216D01*
X148571406Y-60917909D01*
X148483300Y-60760747D01*
X148397575Y-60623825D01*
X148501755Y-60556555D01*
X148571406Y-60464281D01*
X148610697Y-60353553D01*
X148623794Y-60230919D01*
X148613971Y-60115130D01*
X148584503Y-60015416D01*
X148471394Y-59864206D01*
X148390431Y-59812414D01*
X148295181Y-59776100D01*
X148234989Y-59764194D01*
X148778575Y-59764194D01*
X148805959Y-59897544D01*
X148845250Y-60064231D01*
X148876735Y-60188982D01*
X148910867Y-60318760D01*
X148947644Y-60453566D01*
X148986538Y-60591017D01*
X149027019Y-60728732D01*
X149069088Y-60866712D01*
X149131595Y-61063166D01*
X149190531Y-61238187D01*
X149492950Y-61238187D01*
X149538458Y-61111320D01*
X149582908Y-60981542D01*
X149626300Y-60848853D01*
X149667972Y-60715503D01*
X149707263Y-60583741D01*
X149731006Y-60500000D01*
X150002538Y-60500000D01*
X150011095Y-60678817D01*
X150036768Y-60834268D01*
X150079556Y-60966353D01*
X150139459Y-61075072D01*
X150244367Y-61182890D01*
X150376526Y-61247580D01*
X150535938Y-61269144D01*
X150691513Y-61247580D01*
X150821688Y-61182890D01*
X150926463Y-61075072D01*
X150986887Y-60966353D01*
X151030047Y-60834268D01*
X151055943Y-60678817D01*
X151064575Y-60500000D01*
X151056092Y-60321183D01*
X151030642Y-60165732D01*
X150988226Y-60033647D01*
X150929495Y-59926119D01*
X151231263Y-59926119D01*
X151376519Y-60130906D01*
X151526538Y-60018987D01*
X151671794Y-59985650D01*
X151809906Y-60034466D01*
X151864675Y-60173769D01*
X151820622Y-60299975D01*
X151708703Y-60428562D01*
X151638456Y-60496726D01*
X151563447Y-60567866D01*
X151488438Y-60643470D01*
X151418191Y-60725028D01*
X151356278Y-60813432D01*
X151306272Y-60909575D01*
X151273232Y-61014350D01*
X151262219Y-61128650D01*
X151261028Y-61178656D01*
X151266981Y-61238187D01*
X152229006Y-61238187D01*
X152229006Y-60995300D01*
X151595594Y-60995300D01*
X151620597Y-60916719D01*
X151681319Y-60832184D01*
X151757519Y-60751222D01*
X151828956Y-60683356D01*
X151950400Y-60564294D01*
X152057556Y-60435706D01*
X152133756Y-60298784D01*
X152162331Y-60152337D01*
X152124231Y-59967791D01*
X152021838Y-59835631D01*
X151874200Y-59757050D01*
X151700369Y-59730856D01*
X151576246Y-59742762D01*
X151451528Y-59778481D01*
X151333954Y-59839203D01*
X151231263Y-59926119D01*
X150929495Y-59926119D01*
X150928844Y-59924928D01*
X150824598Y-59817110D01*
X150692835Y-59752420D01*
X150533556Y-59730856D01*
X150379040Y-59752420D01*
X150248865Y-59817110D01*
X150143031Y-59924928D01*
X150081565Y-60033647D01*
X150037661Y-60165732D01*
X150011318Y-60321183D01*
X150002538Y-60500000D01*
X149731006Y-60500000D01*
X149744172Y-60453566D01*
X149794773Y-60263959D01*
X149839422Y-60083281D01*
X149877820Y-59915403D01*
X149909669Y-59764194D01*
X149602488Y-59764194D01*
X149581056Y-59888019D01*
X149554863Y-60030894D01*
X149525097Y-60185377D01*
X149492950Y-60344028D01*
X149458422Y-60503572D01*
X149421513Y-60660734D01*
X149383413Y-60808074D01*
X149345313Y-60938150D01*
X149306915Y-60806288D01*
X149267922Y-60658353D01*
X149229822Y-60501191D01*
X149194103Y-60341647D01*
X149161063Y-60183294D01*
X149131000Y-60029703D01*
X149105997Y-59887721D01*
X149088138Y-59764194D01*
X148778575Y-59764194D01*
X148234989Y-59764194D01*
X148186834Y-59754669D01*
X148066581Y-59747525D01*
X147983238Y-59749906D01*
X147883225Y-59755859D01*
X147779641Y-59767766D01*
X147685581Y-59785625D01*
X147685581Y-61238187D01*
X147461744Y-61238187D01*
X147461744Y-60995300D01*
X146809281Y-60995300D01*
X146809281Y-60580962D01*
X147330775Y-60580962D01*
X147330775Y-60338075D01*
X146809281Y-60338075D01*
X146809281Y-60007081D01*
X147409356Y-60007081D01*
X147409356Y-59764194D01*
X146516388Y-59764194D01*
X146040057Y-59764194D01*
X146034184Y-59761812D01*
X145924349Y-59738595D01*
X145797250Y-59730856D01*
X145651332Y-59743821D01*
X145527904Y-59782715D01*
X145426966Y-59847537D01*
X145326060Y-59986841D01*
X145292425Y-60171387D01*
X145330525Y-60346409D01*
X145426966Y-60464281D01*
X145556744Y-60542862D01*
X145694856Y-60597631D01*
X145794869Y-60639303D01*
X145885356Y-60689309D01*
X145952031Y-60752412D01*
X145978225Y-60833375D01*
X145967509Y-60903622D01*
X145928219Y-60965534D01*
X145850828Y-61008397D01*
X145728194Y-61023875D01*
X145609429Y-61015541D01*
X145510309Y-60990537D01*
X145356719Y-60919100D01*
X145270994Y-61157225D01*
X144191395Y-61157225D01*
X144154955Y-61096429D01*
X144101868Y-60984185D01*
X144060039Y-60867279D01*
X144029869Y-60746836D01*
X144011650Y-60624015D01*
X144005558Y-60500000D01*
X144011650Y-60375985D01*
X144029869Y-60253164D01*
X144060039Y-60132721D01*
X144101868Y-60015815D01*
X144154955Y-59903571D01*
X144218789Y-59797072D01*
X144292753Y-59697342D01*
X144376137Y-59605342D01*
X144468137Y-59521958D01*
X144567867Y-59447993D01*
X144674366Y-59384160D01*
X144786610Y-59331073D01*
X144903516Y-59289243D01*
X145023960Y-59259074D01*
X145146780Y-59240855D01*
X145270795Y-59234762D01*
X145270994Y-59234762D01*
X152229006Y-59234762D01*
X152229205Y-59234762D01*
X152353220Y-59240855D01*
G37*
%TO.C,G\u002A\u002A\u002A*%
G36*
X179619515Y-102098614D02*
G01*
X178959584Y-102098614D01*
X178959584Y-102450577D01*
X178798267Y-102450577D01*
X178798267Y-101907967D01*
X179619515Y-101907967D01*
X179619515Y-102098614D01*
G37*
G36*
X178589662Y-90156583D02*
G01*
X178614552Y-90175489D01*
X178644542Y-90222034D01*
X178653630Y-90278736D01*
X178641762Y-90335121D01*
X178615620Y-90374511D01*
X178567389Y-90405551D01*
X178515762Y-90411869D01*
X178467248Y-90396350D01*
X178428358Y-90361878D01*
X178405604Y-90311337D01*
X178402309Y-90280006D01*
X178413770Y-90219404D01*
X178444186Y-90173830D01*
X178487607Y-90146216D01*
X178538083Y-90139490D01*
X178589662Y-90156583D01*
G37*
G36*
X179205225Y-90164635D02*
G01*
X179612182Y-90168533D01*
X179616468Y-90257126D01*
X179617146Y-90305802D01*
X179614548Y-90342084D01*
X179610358Y-90356115D01*
X179593253Y-90359157D01*
X179551204Y-90361848D01*
X179488597Y-90364049D01*
X179409816Y-90365624D01*
X179319249Y-90366433D01*
X179279772Y-90366512D01*
X178959584Y-90366512D01*
X178959584Y-90703810D01*
X178798267Y-90703810D01*
X178798267Y-90160737D01*
X179205225Y-90164635D01*
G37*
G36*
X178585196Y-101891038D02*
G01*
X178626726Y-101926218D01*
X178648770Y-101981140D01*
X178651616Y-102014733D01*
X178646452Y-102064623D01*
X178627572Y-102100042D01*
X178614552Y-102113656D01*
X178564710Y-102144069D01*
X178512926Y-102149165D01*
X178465153Y-102131871D01*
X178427339Y-102095120D01*
X178405436Y-102041842D01*
X178402309Y-102009139D01*
X178414436Y-101948433D01*
X178448186Y-101904407D01*
X178499614Y-101881194D01*
X178526963Y-101878637D01*
X178585196Y-101891038D01*
G37*
G36*
X179590977Y-99750277D02*
G01*
X179602232Y-99783098D01*
X179611614Y-99813516D01*
X179627774Y-99894431D01*
X179632175Y-99980554D01*
X179624443Y-100058359D01*
X179618951Y-100080629D01*
X179600212Y-100119722D01*
X179570627Y-100160760D01*
X179565217Y-100166760D01*
X179540473Y-100191806D01*
X179516068Y-100211785D01*
X179488421Y-100227320D01*
X179453947Y-100239035D01*
X179409064Y-100247555D01*
X179350187Y-100253504D01*
X179273734Y-100257506D01*
X179176121Y-100260185D01*
X179053764Y-100262166D01*
X179014578Y-100262681D01*
X178607621Y-100267890D01*
X178607621Y-100529445D01*
X178446304Y-100529445D01*
X178446304Y-100060161D01*
X179400871Y-100060161D01*
X179436867Y-100024165D01*
X179462765Y-99979978D01*
X179473840Y-99920151D01*
X179468978Y-99854974D01*
X179458983Y-99820252D01*
X179452890Y-99797671D01*
X179460191Y-99783008D01*
X179486592Y-99769958D01*
X179512924Y-99760637D01*
X179552987Y-99747250D01*
X179579437Y-99738908D01*
X179584896Y-99737528D01*
X179590977Y-99750277D01*
G37*
G36*
X178869874Y-94852824D02*
G01*
X178924190Y-94866908D01*
X178930254Y-94868516D01*
X178948809Y-94874923D01*
X178959349Y-94886351D01*
X178963636Y-94909509D01*
X178963434Y-94951111D01*
X178961842Y-94988794D01*
X178962878Y-95071757D01*
X178976888Y-95136796D01*
X179007118Y-95193657D01*
X179045582Y-95240263D01*
X179072370Y-95267263D01*
X179098529Y-95287096D01*
X179129233Y-95301055D01*
X179169656Y-95310435D01*
X179224971Y-95316530D01*
X179300352Y-95320636D01*
X179377540Y-95323325D01*
X179612182Y-95330658D01*
X179616518Y-95429647D01*
X179620855Y-95528637D01*
X178798267Y-95528637D01*
X178798267Y-95449689D01*
X178800710Y-95402736D01*
X178811844Y-95374035D01*
X178837382Y-95359130D01*
X178883036Y-95353565D01*
X178922370Y-95352856D01*
X178980479Y-95352655D01*
X178912133Y-95282996D01*
X178870304Y-95234634D01*
X178833116Y-95181919D01*
X178814017Y-95147344D01*
X178791624Y-95072236D01*
X178784363Y-94988013D01*
X178793008Y-94908812D01*
X178799676Y-94885634D01*
X178808330Y-94862334D01*
X178818527Y-94849674D01*
X178836847Y-94846792D01*
X178869874Y-94852824D01*
G37*
G36*
X179616518Y-97893389D02*
G01*
X179620855Y-97992378D01*
X179337881Y-97992595D01*
X179222672Y-97993485D01*
X179134671Y-97996039D01*
X179071797Y-98000380D01*
X179031966Y-98006629D01*
X179018244Y-98011355D01*
X178974655Y-98047958D01*
X178952590Y-98099270D01*
X178952149Y-98159966D01*
X178973433Y-98224722D01*
X179013105Y-98284268D01*
X179064525Y-98344341D01*
X179619515Y-98344341D01*
X179619515Y-98534988D01*
X178796735Y-98534988D01*
X178801167Y-98457996D01*
X178805600Y-98381004D01*
X178860594Y-98376453D01*
X178895956Y-98371641D01*
X178914689Y-98365419D01*
X178915588Y-98363905D01*
X178906989Y-98348719D01*
X178885495Y-98320472D01*
X178876658Y-98309796D01*
X178822211Y-98228049D01*
X178790882Y-98142500D01*
X178782248Y-98057628D01*
X178795882Y-97977912D01*
X178831361Y-97907831D01*
X178888259Y-97851865D01*
X178921999Y-97831849D01*
X178947370Y-97819880D01*
X178971604Y-97810902D01*
X178999309Y-97804475D01*
X179035094Y-97800154D01*
X179083569Y-97797496D01*
X179149343Y-97796058D01*
X179237024Y-97795398D01*
X179303293Y-97795187D01*
X179612182Y-97794399D01*
X179616518Y-97893389D01*
G37*
G36*
X179345986Y-91921509D02*
G01*
X179440564Y-91961537D01*
X179519678Y-92021613D01*
X179579792Y-92099802D01*
X179612603Y-92176651D01*
X179629799Y-92267915D01*
X179630266Y-92361490D01*
X179618209Y-92428947D01*
X179583272Y-92506311D01*
X179527755Y-92580228D01*
X179459693Y-92640826D01*
X179430963Y-92659008D01*
X179349188Y-92691655D01*
X179253500Y-92709660D01*
X179208891Y-92710546D01*
X179156175Y-92711593D01*
X179081930Y-92699693D01*
X178984848Y-92658988D01*
X178903459Y-92595690D01*
X178841018Y-92513771D01*
X178800781Y-92417201D01*
X178787354Y-92340419D01*
X178788585Y-92309642D01*
X178945028Y-92309642D01*
X178957571Y-92383135D01*
X178994246Y-92441149D01*
X179053625Y-92482589D01*
X179134279Y-92506360D01*
X179208891Y-92511934D01*
X179305580Y-92502462D01*
X179381388Y-92474371D01*
X179435142Y-92428149D01*
X179445210Y-92413471D01*
X179468171Y-92350259D01*
X179469598Y-92279547D01*
X179449552Y-92213676D01*
X179444127Y-92204031D01*
X179404187Y-92155768D01*
X179351163Y-92124623D01*
X179280009Y-92108471D01*
X179208891Y-92104912D01*
X179111240Y-92114244D01*
X179035460Y-92141909D01*
X178982187Y-92187414D01*
X178952057Y-92250266D01*
X178945028Y-92309642D01*
X178788585Y-92309642D01*
X178791763Y-92230168D01*
X178821820Y-92130982D01*
X178875138Y-92045916D01*
X178949327Y-91978023D01*
X179041999Y-91930356D01*
X179124566Y-91909339D01*
X179239475Y-91903464D01*
X179345986Y-91921509D01*
G37*
G36*
X179590793Y-90934027D02*
G01*
X179607481Y-90967327D01*
X179620003Y-91021945D01*
X179627938Y-91090109D01*
X179630863Y-91164046D01*
X179628356Y-91235985D01*
X179619994Y-91298152D01*
X179612150Y-91327078D01*
X179575776Y-91392242D01*
X179520028Y-91448720D01*
X179454393Y-91487599D01*
X179433919Y-91494574D01*
X179398590Y-91500322D01*
X179341179Y-91505134D01*
X179268932Y-91508579D01*
X179189092Y-91510229D01*
X179168562Y-91510310D01*
X178959584Y-91510392D01*
X178959584Y-91730369D01*
X178816722Y-91730369D01*
X178806255Y-91624146D01*
X178798918Y-91570685D01*
X178789370Y-91529112D01*
X178779565Y-91507727D01*
X178778697Y-91507050D01*
X178753181Y-91499532D01*
X178714041Y-91495847D01*
X178710277Y-91495790D01*
X178658562Y-91492909D01*
X178605045Y-91486493D01*
X178603954Y-91486314D01*
X178548960Y-91477224D01*
X178548960Y-91319746D01*
X178798267Y-91319746D01*
X178798267Y-90953117D01*
X178959584Y-90953117D01*
X178959584Y-91319746D01*
X179150701Y-91319746D01*
X179254460Y-91317740D01*
X179332857Y-91311144D01*
X179389623Y-91299093D01*
X179428491Y-91280719D01*
X179453191Y-91255157D01*
X179457018Y-91248626D01*
X179466732Y-91213408D01*
X179471721Y-91159806D01*
X179471871Y-91098399D01*
X179467071Y-91039769D01*
X179459619Y-91002066D01*
X179453027Y-90973751D01*
X179458477Y-90957879D01*
X179482041Y-90947300D01*
X179513121Y-90939077D01*
X179554785Y-90931422D01*
X179584138Y-90931221D01*
X179590793Y-90934027D01*
G37*
G36*
X179533135Y-88997470D02*
G01*
X179557530Y-89033063D01*
X179585035Y-89086462D01*
X179617710Y-89181407D01*
X179631563Y-89287472D01*
X179625927Y-89393213D01*
X179607280Y-89468934D01*
X179558908Y-89567492D01*
X179490467Y-89645526D01*
X179413053Y-89698807D01*
X179367090Y-89721775D01*
X179326228Y-89735022D01*
X179278876Y-89741131D01*
X179216224Y-89742680D01*
X179102414Y-89732237D01*
X179006839Y-89699352D01*
X178927380Y-89642705D01*
X178861919Y-89560972D01*
X178829396Y-89501270D01*
X178809837Y-89455591D01*
X178798191Y-89412830D01*
X178792565Y-89362496D01*
X178791069Y-89294100D01*
X178791070Y-89288625D01*
X178792299Y-89220527D01*
X178797099Y-89171757D01*
X178807388Y-89132360D01*
X178825082Y-89092380D01*
X178831120Y-89080685D01*
X178855236Y-89037945D01*
X178876066Y-89006446D01*
X178886239Y-88995334D01*
X178905555Y-88998219D01*
X178937829Y-89016041D01*
X178957975Y-89030711D01*
X179014506Y-89075485D01*
X178979712Y-89144212D01*
X178949788Y-89230627D01*
X178945993Y-89314129D01*
X178965914Y-89390619D01*
X179007137Y-89455995D01*
X179067249Y-89506158D01*
X179143835Y-89537007D01*
X179215665Y-89545024D01*
X179300809Y-89532224D01*
X179370938Y-89497001D01*
X179424044Y-89443219D01*
X179458122Y-89374740D01*
X179471165Y-89295430D01*
X179461168Y-89209151D01*
X179431305Y-89129711D01*
X179389747Y-89047322D01*
X179447035Y-89009411D01*
X179483023Y-88988511D01*
X179510011Y-88983575D01*
X179533135Y-88997470D01*
G37*
G36*
X179361022Y-93883052D02*
G01*
X179454145Y-93929154D01*
X179533064Y-93996128D01*
X179593153Y-94082322D01*
X179593603Y-94083197D01*
X179616273Y-94149191D01*
X179628202Y-94230461D01*
X179628734Y-94314741D01*
X179617213Y-94389766D01*
X179611052Y-94409333D01*
X179562306Y-94501238D01*
X179492122Y-94575182D01*
X179403717Y-94629086D01*
X179300312Y-94660871D01*
X179208891Y-94668979D01*
X179190727Y-94667236D01*
X179095467Y-94658092D01*
X178999336Y-94624665D01*
X178917722Y-94567551D01*
X178886497Y-94535532D01*
X178827775Y-94448770D01*
X178794176Y-94354312D01*
X178787136Y-94282521D01*
X178948235Y-94282521D01*
X178959474Y-94342190D01*
X178982993Y-94386845D01*
X178983109Y-94386977D01*
X179040011Y-94431687D01*
X179111490Y-94459581D01*
X179190727Y-94470953D01*
X179270904Y-94466093D01*
X179345200Y-94445293D01*
X179406797Y-94408846D01*
X179443175Y-94367278D01*
X179467553Y-94302707D01*
X179470053Y-94232427D01*
X179450425Y-94168219D01*
X179447520Y-94163065D01*
X179404672Y-94116803D01*
X179343446Y-94084504D01*
X179270437Y-94066128D01*
X179192242Y-94061634D01*
X179115457Y-94070981D01*
X179046677Y-94094128D01*
X178992498Y-94131034D01*
X178966256Y-94166056D01*
X178950192Y-94219817D01*
X178948235Y-94282521D01*
X178787136Y-94282521D01*
X178784605Y-94256710D01*
X178797967Y-94160515D01*
X178833166Y-94070278D01*
X178889107Y-93990550D01*
X178964695Y-93925883D01*
X179042687Y-93886488D01*
X179150667Y-93860067D01*
X179258321Y-93859472D01*
X179361022Y-93883052D01*
G37*
G36*
X179307376Y-92892026D02*
G01*
X179414862Y-92922524D01*
X179502050Y-92974166D01*
X179568969Y-93046969D01*
X179599265Y-93100519D01*
X179628027Y-93190811D01*
X179629683Y-93277668D01*
X179611897Y-93340864D01*
X179587327Y-93388996D01*
X179560040Y-93432667D01*
X179529318Y-93475811D01*
X179575114Y-93484971D01*
X179601911Y-93491901D01*
X179614900Y-93504257D01*
X179618212Y-93530437D01*
X179616546Y-93569149D01*
X179612182Y-93644168D01*
X179415637Y-93645461D01*
X179029243Y-93648003D01*
X178446304Y-93651837D01*
X178446304Y-93441736D01*
X178667600Y-93450241D01*
X178752072Y-93453297D01*
X178811084Y-93454686D01*
X178848474Y-93454090D01*
X178868082Y-93451194D01*
X178873747Y-93445682D01*
X178869307Y-93437238D01*
X178866386Y-93433872D01*
X178831132Y-93380305D01*
X178802959Y-93310629D01*
X178794564Y-93273428D01*
X178948613Y-93273428D01*
X178962132Y-93334107D01*
X178987092Y-93389256D01*
X178990385Y-93394315D01*
X179025577Y-93445989D01*
X179415637Y-93446189D01*
X179444736Y-93383862D01*
X179464679Y-93318003D01*
X179466906Y-93250950D01*
X179451882Y-93192433D01*
X179434268Y-93164885D01*
X179377769Y-93121519D01*
X179301194Y-93092465D01*
X179211275Y-93080138D01*
X179197421Y-93079883D01*
X179102294Y-93088323D01*
X179028932Y-93113838D01*
X178978384Y-93155610D01*
X178951703Y-93212822D01*
X178948613Y-93273428D01*
X178794564Y-93273428D01*
X178786562Y-93237971D01*
X178784246Y-93204214D01*
X178796912Y-93109113D01*
X178833978Y-93029104D01*
X178894047Y-92965323D01*
X178975722Y-92918908D01*
X179077605Y-92890994D01*
X179179561Y-92882659D01*
X179307376Y-92892026D01*
G37*
G36*
X179029243Y-96837331D02*
G01*
X179612182Y-96841166D01*
X179616744Y-96913073D01*
X179615944Y-96965416D01*
X179602611Y-96995197D01*
X179572801Y-97007896D01*
X179547299Y-97009590D01*
X179511746Y-97009815D01*
X179542722Y-97042811D01*
X179592468Y-97114881D01*
X179622371Y-97199440D01*
X179630928Y-97288084D01*
X179616633Y-97372411D01*
X179606377Y-97398441D01*
X179557465Y-97473915D01*
X179486334Y-97534445D01*
X179421535Y-97569533D01*
X179342157Y-97593784D01*
X179247705Y-97604543D01*
X179235724Y-97604215D01*
X179149129Y-97601845D01*
X179057376Y-97585729D01*
X179006693Y-97568124D01*
X178937851Y-97526900D01*
X178874118Y-97469866D01*
X178823617Y-97405422D01*
X178797317Y-97351566D01*
X178784873Y-97275906D01*
X178789944Y-97209483D01*
X178948526Y-97209483D01*
X178961131Y-97274629D01*
X178973736Y-97300304D01*
X179019236Y-97348010D01*
X179082550Y-97381549D01*
X179156953Y-97400755D01*
X179235724Y-97405462D01*
X179312141Y-97395506D01*
X179379481Y-97370721D01*
X179431022Y-97330941D01*
X179445043Y-97311898D01*
X179469277Y-97245474D01*
X179466745Y-97174471D01*
X179441633Y-97112471D01*
X179417957Y-97077223D01*
X179397795Y-97053415D01*
X179394026Y-97050368D01*
X179373742Y-97046252D01*
X179330328Y-97042825D01*
X179269980Y-97040423D01*
X179198895Y-97039385D01*
X179192246Y-97039370D01*
X179006952Y-97039145D01*
X178980804Y-97079053D01*
X178955211Y-97140302D01*
X178948526Y-97209483D01*
X178789944Y-97209483D01*
X178791183Y-97193259D01*
X178814567Y-97116677D01*
X178831575Y-97085581D01*
X178869948Y-97027595D01*
X178446304Y-97043453D01*
X178446304Y-96833497D01*
X179029243Y-96837331D01*
G37*
G36*
X179476861Y-100754018D02*
G01*
X179536719Y-100801882D01*
X179581135Y-100864981D01*
X179603694Y-100912227D01*
X179617550Y-100957729D01*
X179625281Y-101012590D01*
X179628770Y-101070293D01*
X179627933Y-101174221D01*
X179616323Y-101258596D01*
X179612725Y-101272648D01*
X179594051Y-101330357D01*
X179571194Y-101388816D01*
X179547573Y-101440419D01*
X179526609Y-101477558D01*
X179514309Y-101491587D01*
X179494939Y-101489240D01*
X179461636Y-101473538D01*
X179443349Y-101462300D01*
X179386198Y-101424479D01*
X179432694Y-101325259D01*
X179457558Y-101267686D01*
X179471771Y-101219002D01*
X179478201Y-101165866D01*
X179479693Y-101106676D01*
X179475628Y-101026035D01*
X179461758Y-100970787D01*
X179436758Y-100938249D01*
X179399305Y-100925739D01*
X179390270Y-100925404D01*
X179362681Y-100932417D01*
X179338546Y-100955680D01*
X179316045Y-100998527D01*
X179293358Y-101064295D01*
X179272393Y-101141405D01*
X179240121Y-101251721D01*
X179204852Y-101335255D01*
X179164548Y-101394537D01*
X179117168Y-101432101D01*
X179060673Y-101450478D01*
X179021141Y-101453348D01*
X178951033Y-101439974D01*
X178891207Y-101402308D01*
X178843138Y-101344035D01*
X178808302Y-101268839D01*
X178788174Y-101180405D01*
X178784227Y-101082419D01*
X178797939Y-100978564D01*
X178811007Y-100928430D01*
X178830343Y-100872422D01*
X178851239Y-100823688D01*
X178869178Y-100792758D01*
X178869216Y-100792711D01*
X178896398Y-100759143D01*
X178950686Y-100800550D01*
X178986085Y-100832761D01*
X178996596Y-100857519D01*
X178994705Y-100865349D01*
X178958121Y-100963178D01*
X178936901Y-101052637D01*
X178930988Y-101130323D01*
X178940325Y-101192829D01*
X178964856Y-101236751D01*
X179001235Y-101257932D01*
X179031232Y-101258541D01*
X179056605Y-101241795D01*
X179079293Y-101204642D01*
X179101236Y-101144033D01*
X179121448Y-101068967D01*
X179139206Y-101001313D01*
X179158001Y-100937236D01*
X179174714Y-100887135D01*
X179180204Y-100873135D01*
X179223442Y-100801840D01*
X179279449Y-100754185D01*
X179343503Y-100730266D01*
X179410881Y-100730178D01*
X179476861Y-100754018D01*
G37*
G36*
X179619515Y-98864953D02*
G01*
X179618168Y-98911714D01*
X179612531Y-98936070D01*
X179600210Y-98944885D01*
X179591384Y-98945612D01*
X179548534Y-98949443D01*
X179531705Y-98963538D01*
X179538971Y-98991793D01*
X179555190Y-99018829D01*
X179602824Y-99111372D01*
X179627913Y-99207661D01*
X179629724Y-99301613D01*
X179607526Y-99387150D01*
X179601183Y-99400671D01*
X179552779Y-99470005D01*
X179490449Y-99513572D01*
X179413777Y-99531638D01*
X179395434Y-99532217D01*
X179376331Y-99529757D01*
X179325343Y-99523191D01*
X179265977Y-99494987D01*
X179216306Y-99445913D01*
X179175303Y-99374278D01*
X179141939Y-99278391D01*
X179115184Y-99156562D01*
X179098431Y-99043930D01*
X179091783Y-99002046D01*
X179082944Y-98982990D01*
X179067623Y-98980336D01*
X179057574Y-98982750D01*
X179026764Y-98999293D01*
X178991675Y-99028399D01*
X178985248Y-99034981D01*
X178954390Y-99088375D01*
X178942680Y-99158570D01*
X178950145Y-99240126D01*
X178976813Y-99327603D01*
X178983721Y-99343707D01*
X179002747Y-99388571D01*
X179014585Y-99421402D01*
X179016718Y-99434651D01*
X178991320Y-99451626D01*
X178957092Y-99471607D01*
X178923482Y-99489467D01*
X178899940Y-99500078D01*
X178894622Y-99500893D01*
X178885720Y-99485686D01*
X178868820Y-99453564D01*
X178860348Y-99436893D01*
X178814670Y-99322287D01*
X178789245Y-99203930D01*
X178785103Y-99089331D01*
X178800037Y-98996988D01*
X178810598Y-98974942D01*
X179219315Y-98974942D01*
X179228389Y-99066599D01*
X179244470Y-99174399D01*
X179268904Y-99254792D01*
X179302140Y-99308615D01*
X179344631Y-99336706D01*
X179376331Y-99341570D01*
X179427918Y-99329929D01*
X179461893Y-99296343D01*
X179477574Y-99242818D01*
X179474281Y-99171359D01*
X179457522Y-99102613D01*
X179439543Y-99061344D01*
X179414190Y-99018922D01*
X179413741Y-99018289D01*
X179392681Y-98993057D01*
X179369166Y-98980095D01*
X179332852Y-98975422D01*
X179301095Y-98974942D01*
X179219315Y-98974942D01*
X178810598Y-98974942D01*
X178828374Y-98937835D01*
X178875981Y-98879595D01*
X178933920Y-98831208D01*
X178993250Y-98801613D01*
X178996295Y-98800730D01*
X179031064Y-98795249D01*
X179089893Y-98790623D01*
X179167517Y-98787107D01*
X179258671Y-98784951D01*
X179337211Y-98784377D01*
X179619515Y-98784295D01*
X179619515Y-98864953D01*
G37*
G36*
X179462150Y-88026961D02*
G01*
X179527429Y-88068763D01*
X179579026Y-88132514D01*
X179597724Y-88170596D01*
X179615215Y-88234258D01*
X179625856Y-88315716D01*
X179629235Y-88404149D01*
X179624939Y-88488737D01*
X179612556Y-88558661D01*
X179612510Y-88558822D01*
X179597252Y-88604938D01*
X179576638Y-88656999D01*
X179553990Y-88707823D01*
X179532629Y-88750226D01*
X179515880Y-88777027D01*
X179508965Y-88782679D01*
X179493421Y-88775278D01*
X179462388Y-88756501D01*
X179443739Y-88744411D01*
X179385913Y-88706144D01*
X179416960Y-88645422D01*
X179457114Y-88547956D01*
X179480272Y-88449377D01*
X179485531Y-88356712D01*
X179471989Y-88276985D01*
X179466279Y-88261596D01*
X179443152Y-88223637D01*
X179410548Y-88208734D01*
X179370846Y-88210339D01*
X179350391Y-88218703D01*
X179332256Y-88240142D01*
X179314438Y-88278803D01*
X179294937Y-88338832D01*
X179276679Y-88405402D01*
X179251387Y-88496480D01*
X179228539Y-88564544D01*
X179205483Y-88615465D01*
X179179566Y-88655114D01*
X179148591Y-88688926D01*
X179116410Y-88715003D01*
X179082836Y-88727648D01*
X179035006Y-88731303D01*
X179025689Y-88731351D01*
X178955155Y-88723061D01*
X178900130Y-88695594D01*
X178854721Y-88645054D01*
X178829400Y-88601568D01*
X178803036Y-88528265D01*
X178788036Y-88439411D01*
X178785513Y-88346934D01*
X178796583Y-88262764D01*
X178797432Y-88259307D01*
X178815775Y-88196870D01*
X178837528Y-88138316D01*
X178859802Y-88090038D01*
X178879711Y-88058425D01*
X178892284Y-88049422D01*
X178913365Y-88058211D01*
X178945552Y-88080211D01*
X178957401Y-88089751D01*
X179005439Y-88130080D01*
X178972975Y-88203170D01*
X178953604Y-88260528D01*
X178938842Y-88329304D01*
X178933617Y-88372615D01*
X178930987Y-88426800D01*
X178934128Y-88461905D01*
X178945189Y-88487957D01*
X178963428Y-88511643D01*
X178989893Y-88538743D01*
X179010941Y-88545879D01*
X179037941Y-88537088D01*
X179052779Y-88529233D01*
X179064955Y-88518098D01*
X179076093Y-88499486D01*
X179087818Y-88469201D01*
X179101754Y-88423047D01*
X179119525Y-88356828D01*
X179142756Y-88266347D01*
X179142778Y-88266262D01*
X179176685Y-88164314D01*
X179219686Y-88087568D01*
X179270941Y-88037266D01*
X179309273Y-88019041D01*
X179387871Y-88009567D01*
X179462150Y-88026961D01*
G37*
G36*
X177632221Y-87746693D02*
G01*
X177643188Y-87761212D01*
X177665667Y-87799324D01*
X177698218Y-87858307D01*
X177739397Y-87935440D01*
X177787765Y-88028001D01*
X177841878Y-88133269D01*
X177900296Y-88248523D01*
X177940248Y-88328213D01*
X178226327Y-88901312D01*
X178226327Y-89600955D01*
X178099339Y-89594750D01*
X178024042Y-89593179D01*
X177926026Y-89594280D01*
X177811747Y-89597722D01*
X177687662Y-89603171D01*
X177560228Y-89610294D01*
X177435902Y-89618759D01*
X177321140Y-89628232D01*
X177222398Y-89638381D01*
X177199769Y-89641137D01*
X176794877Y-89707049D01*
X176398520Y-89800580D01*
X176011917Y-89920996D01*
X175636289Y-90067561D01*
X175272853Y-90239539D01*
X174922831Y-90436195D01*
X174587441Y-90656793D01*
X174267902Y-90900599D01*
X173965435Y-91166876D01*
X173681259Y-91454889D01*
X173416593Y-91763903D01*
X173200529Y-92053002D01*
X172983070Y-92389046D01*
X172791302Y-92738537D01*
X172625665Y-93099999D01*
X172486602Y-93471955D01*
X172374553Y-93852928D01*
X172289960Y-94241443D01*
X172233263Y-94636023D01*
X172204904Y-95035192D01*
X172203746Y-95389318D01*
X172228352Y-95792834D01*
X172279139Y-96184119D01*
X172356576Y-96565055D01*
X172461131Y-96937523D01*
X172593274Y-97303405D01*
X172753473Y-97664582D01*
X172788335Y-97735251D01*
X172957338Y-98050126D01*
X173138542Y-98343443D01*
X173336007Y-98620825D01*
X173553790Y-98887893D01*
X173795952Y-99150267D01*
X173848276Y-99203285D01*
X174148833Y-99484172D01*
X174465921Y-99740919D01*
X174798945Y-99973159D01*
X175147311Y-100180526D01*
X175510423Y-100362651D01*
X175887686Y-100519170D01*
X176106679Y-100596079D01*
X176452612Y-100699106D01*
X176794629Y-100778568D01*
X177139050Y-100835486D01*
X177492195Y-100870884D01*
X177860385Y-100885783D01*
X177899959Y-100886198D01*
X178226188Y-100888741D01*
X178224557Y-101226039D01*
X178223783Y-101324109D01*
X178222512Y-101413551D01*
X178220855Y-101489784D01*
X178218921Y-101548225D01*
X178216821Y-101584292D01*
X178215705Y-101592667D01*
X178195642Y-101664467D01*
X178165942Y-101757870D01*
X178128604Y-101867555D01*
X178085626Y-101988199D01*
X178039005Y-102114481D01*
X177990741Y-102241081D01*
X177942830Y-102362676D01*
X177897272Y-102473945D01*
X177856063Y-102569567D01*
X177821203Y-102644221D01*
X177819867Y-102646899D01*
X177769317Y-102747896D01*
X177656858Y-102738551D01*
X177604570Y-102734257D01*
X177530473Y-102728243D01*
X177441995Y-102721108D01*
X177346566Y-102713452D01*
X177273094Y-102707584D01*
X177143805Y-102697145D01*
X177040721Y-102688461D01*
X176960793Y-102681197D01*
X176900969Y-102675016D01*
X176858201Y-102669585D01*
X176829437Y-102664566D01*
X176811629Y-102659626D01*
X176804011Y-102656013D01*
X176797119Y-102649884D01*
X176790840Y-102638788D01*
X176784802Y-102620086D01*
X176778634Y-102591138D01*
X176771964Y-102549306D01*
X176764419Y-102491949D01*
X176755627Y-102416429D01*
X176745217Y-102320105D01*
X176732817Y-102200339D01*
X176718054Y-102054491D01*
X176715119Y-102025288D01*
X176703262Y-101909975D01*
X176691829Y-101803975D01*
X176681245Y-101710826D01*
X176671931Y-101634066D01*
X176664311Y-101577232D01*
X176658809Y-101543863D01*
X176656646Y-101536509D01*
X176640131Y-101530065D01*
X176600028Y-101518503D01*
X176541389Y-101503037D01*
X176469265Y-101484877D01*
X176388709Y-101465237D01*
X176304772Y-101445330D01*
X176222506Y-101426366D01*
X176146962Y-101409560D01*
X176083191Y-101396122D01*
X176036246Y-101387266D01*
X176031708Y-101386525D01*
X175975230Y-101377542D01*
X175920482Y-101470439D01*
X175892395Y-101516745D01*
X175853218Y-101579435D01*
X175805426Y-101654719D01*
X175751495Y-101738804D01*
X175693898Y-101827899D01*
X175635112Y-101918212D01*
X175577611Y-102005952D01*
X175523871Y-102087327D01*
X175476366Y-102158545D01*
X175437571Y-102215815D01*
X175409961Y-102255345D01*
X175397170Y-102272128D01*
X175364453Y-102297375D01*
X175331637Y-102298323D01*
X175307524Y-102290163D01*
X175261328Y-102272678D01*
X175197173Y-102247557D01*
X175119186Y-102216488D01*
X175031491Y-102181161D01*
X174938215Y-102143263D01*
X174843482Y-102104484D01*
X174751418Y-102066511D01*
X174666149Y-102031033D01*
X174591800Y-101999740D01*
X174532497Y-101974318D01*
X174492366Y-101956457D01*
X174475721Y-101948004D01*
X174462018Y-101923703D01*
X174457390Y-101893380D01*
X174460596Y-101869832D01*
X174469702Y-101821356D01*
X174483938Y-101751587D01*
X174502534Y-101664158D01*
X174524721Y-101562704D01*
X174549729Y-101450859D01*
X174569593Y-101363564D01*
X174596152Y-101247157D01*
X174620552Y-101139173D01*
X174642022Y-101043109D01*
X174659787Y-100962463D01*
X174673077Y-100900735D01*
X174681120Y-100861421D01*
X174683248Y-100848677D01*
X174672838Y-100832048D01*
X174639948Y-100802683D01*
X174583876Y-100760048D01*
X174503918Y-100703608D01*
X174400407Y-100633520D01*
X174116116Y-100443761D01*
X173879795Y-100621316D01*
X173789048Y-100689968D01*
X173689048Y-100766404D01*
X173588691Y-100843775D01*
X173496869Y-100915235D01*
X173443207Y-100957460D01*
X173375926Y-101009414D01*
X173314702Y-101054224D01*
X173263910Y-101088879D01*
X173227929Y-101110366D01*
X173212755Y-101116050D01*
X173192138Y-101106385D01*
X173152526Y-101078689D01*
X173096397Y-101034912D01*
X173026228Y-100977004D01*
X172944498Y-100906915D01*
X172921741Y-100887009D01*
X172808656Y-100787459D01*
X172715957Y-100705191D01*
X172641780Y-100638378D01*
X172584259Y-100585194D01*
X172541529Y-100543813D01*
X172511726Y-100512408D01*
X172492985Y-100489153D01*
X172483439Y-100472220D01*
X172481225Y-100459785D01*
X172481827Y-100456196D01*
X172491067Y-100438052D01*
X172514302Y-100398135D01*
X172549727Y-100339385D01*
X172595538Y-100264740D01*
X172649932Y-100177139D01*
X172711105Y-100079522D01*
X172777252Y-99974827D01*
X172778162Y-99973394D01*
X173067518Y-99517276D01*
X173004381Y-99433089D01*
X172979266Y-99400250D01*
X172941404Y-99351540D01*
X172894611Y-99291787D01*
X172842701Y-99225821D01*
X172789490Y-99158469D01*
X172738792Y-99094560D01*
X172694424Y-99038921D01*
X172660199Y-98996382D01*
X172639934Y-98971770D01*
X172639093Y-98970793D01*
X172623444Y-98972767D01*
X172583191Y-98983379D01*
X172521442Y-99001660D01*
X172441303Y-99026637D01*
X172345884Y-99057342D01*
X172238291Y-99092804D01*
X172121633Y-99132051D01*
X172109754Y-99136091D01*
X171991419Y-99176010D01*
X171881031Y-99212564D01*
X171781848Y-99244728D01*
X171697126Y-99271473D01*
X171630122Y-99291773D01*
X171584093Y-99304601D01*
X171562296Y-99308930D01*
X171561764Y-99308888D01*
X171546629Y-99295330D01*
X171519932Y-99259533D01*
X171483791Y-99205201D01*
X171440325Y-99136039D01*
X171391653Y-99055751D01*
X171339896Y-98968042D01*
X171287172Y-98876615D01*
X171235601Y-98785175D01*
X171187301Y-98697427D01*
X171144393Y-98617075D01*
X171108995Y-98547823D01*
X171083226Y-98493376D01*
X171069206Y-98457437D01*
X171067583Y-98445086D01*
X171080279Y-98431885D01*
X171112925Y-98403069D01*
X171162410Y-98361147D01*
X171225623Y-98308628D01*
X171299456Y-98248023D01*
X171380797Y-98181841D01*
X171466536Y-98112592D01*
X171553564Y-98042786D01*
X171638769Y-97974933D01*
X171719043Y-97911541D01*
X171791274Y-97855122D01*
X171852354Y-97808185D01*
X171899171Y-97773239D01*
X171908361Y-97766613D01*
X171915318Y-97759134D01*
X171918340Y-97746790D01*
X171916533Y-97726260D01*
X171909001Y-97694224D01*
X171894852Y-97647361D01*
X171873191Y-97582348D01*
X171843124Y-97495867D01*
X171811024Y-97405067D01*
X171688987Y-97061143D01*
X171130567Y-97053810D01*
X170984583Y-97051745D01*
X170865245Y-97049666D01*
X170769869Y-97047437D01*
X170695774Y-97044922D01*
X170640275Y-97041986D01*
X170600688Y-97038492D01*
X170574331Y-97034305D01*
X170558520Y-97029288D01*
X170551560Y-97024480D01*
X170542181Y-97002277D01*
X170528884Y-96952071D01*
X170511873Y-96874899D01*
X170491351Y-96771798D01*
X170467521Y-96643805D01*
X170440587Y-96491956D01*
X170410751Y-96317287D01*
X170398398Y-96243357D01*
X170387837Y-96176278D01*
X170382828Y-96131951D01*
X170383280Y-96104349D01*
X170389099Y-96087443D01*
X170395878Y-96079174D01*
X170415893Y-96067986D01*
X170459037Y-96049264D01*
X170520650Y-96024850D01*
X170596069Y-95996586D01*
X170680633Y-95966312D01*
X170688452Y-95963580D01*
X170794988Y-95926266D01*
X170913198Y-95884586D01*
X171032178Y-95842402D01*
X171141019Y-95803578D01*
X171197946Y-95783134D01*
X171436136Y-95697286D01*
X171436255Y-95328438D01*
X171436374Y-94959589D01*
X171227396Y-94890458D01*
X171119150Y-94854185D01*
X171006615Y-94815645D01*
X170893604Y-94776222D01*
X170783930Y-94737299D01*
X170681406Y-94700259D01*
X170589846Y-94666484D01*
X170513063Y-94637359D01*
X170454871Y-94614266D01*
X170419083Y-94598589D01*
X170411732Y-94594601D01*
X170393849Y-94581195D01*
X170384400Y-94564676D01*
X170381890Y-94537348D01*
X170384822Y-94491513D01*
X170387056Y-94467598D01*
X170396467Y-94375687D01*
X170407801Y-94274750D01*
X170420487Y-94168957D01*
X170433954Y-94062477D01*
X170447635Y-93959480D01*
X170460957Y-93864136D01*
X170473352Y-93780616D01*
X170484250Y-93713089D01*
X170493080Y-93665726D01*
X170499272Y-93642696D01*
X170499954Y-93641579D01*
X170509604Y-93636465D01*
X170530870Y-93632280D01*
X170566180Y-93628945D01*
X170617965Y-93626379D01*
X170688655Y-93624500D01*
X170780679Y-93623229D01*
X170896468Y-93622484D01*
X171038451Y-93622185D01*
X171084828Y-93622170D01*
X171653593Y-93622170D01*
X171675780Y-93559844D01*
X171710537Y-93461671D01*
X171745936Y-93360733D01*
X171780675Y-93260838D01*
X171813454Y-93165795D01*
X171842969Y-93079413D01*
X171867921Y-93005501D01*
X171887006Y-92947868D01*
X171898924Y-92910323D01*
X171902387Y-92896682D01*
X171890039Y-92887232D01*
X171858365Y-92862799D01*
X171811225Y-92826364D01*
X171752476Y-92780911D01*
X171700346Y-92740549D01*
X171622252Y-92680187D01*
X171529160Y-92608422D01*
X171429380Y-92531651D01*
X171331226Y-92456270D01*
X171258081Y-92400209D01*
X171184602Y-92343244D01*
X171119158Y-92291147D01*
X171065346Y-92246893D01*
X171026766Y-92213460D01*
X171007018Y-92193825D01*
X171005346Y-92191184D01*
X171009088Y-92171239D01*
X171024927Y-92129463D01*
X171050886Y-92069758D01*
X171084985Y-91996023D01*
X171125248Y-91912162D01*
X171169697Y-91822074D01*
X171216352Y-91729662D01*
X171263236Y-91638827D01*
X171308372Y-91553469D01*
X171349781Y-91477490D01*
X171385484Y-91414792D01*
X171413505Y-91369275D01*
X171431865Y-91344841D01*
X171435964Y-91341873D01*
X171459049Y-91343177D01*
X171506885Y-91352628D01*
X171576318Y-91369343D01*
X171664195Y-91392437D01*
X171767361Y-91421024D01*
X171882664Y-91454221D01*
X172006948Y-91491142D01*
X172137061Y-91530903D01*
X172269848Y-91572620D01*
X172347487Y-91597570D01*
X172423178Y-91621903D01*
X172488170Y-91642406D01*
X172537769Y-91657629D01*
X172567281Y-91666125D01*
X172573474Y-91667344D01*
X172584882Y-91651116D01*
X172610997Y-91616217D01*
X172648425Y-91567060D01*
X172693775Y-91508053D01*
X172743655Y-91443609D01*
X172794672Y-91378137D01*
X172843434Y-91316047D01*
X172852098Y-91305080D01*
X172900172Y-91244003D01*
X172942039Y-91190267D01*
X172974156Y-91148461D01*
X172992980Y-91123176D01*
X172996001Y-91118703D01*
X172991699Y-91099959D01*
X172970895Y-91058276D01*
X172934159Y-90994566D01*
X172882060Y-90909740D01*
X172815169Y-90804709D01*
X172734056Y-90680383D01*
X172639291Y-90537675D01*
X172541264Y-90392001D01*
X172490695Y-90316303D01*
X172446318Y-90248036D01*
X172410623Y-90191186D01*
X172386104Y-90149740D01*
X172375253Y-90127684D01*
X172374942Y-90125987D01*
X172375425Y-90118193D01*
X172378263Y-90109546D01*
X172385544Y-90097846D01*
X172399351Y-90080894D01*
X172421771Y-90056489D01*
X172454890Y-90022433D01*
X172500792Y-89976525D01*
X172561563Y-89916566D01*
X172639290Y-89840356D01*
X172728632Y-89752957D01*
X172825653Y-89659108D01*
X172907713Y-89581875D01*
X172973658Y-89522288D01*
X173022330Y-89481377D01*
X173052574Y-89460172D01*
X173060677Y-89457274D01*
X173078630Y-89465771D01*
X173117356Y-89490015D01*
X173174178Y-89528140D01*
X173246417Y-89578279D01*
X173331395Y-89638565D01*
X173426433Y-89707131D01*
X173528853Y-89782111D01*
X173564737Y-89808626D01*
X173682843Y-89896063D01*
X173779692Y-89967519D01*
X173857595Y-90024473D01*
X173918864Y-90068404D01*
X173965809Y-90100789D01*
X174000743Y-90123107D01*
X174025976Y-90136835D01*
X174043820Y-90143452D01*
X174056586Y-90144436D01*
X174066586Y-90141266D01*
X174075937Y-90135547D01*
X174099372Y-90120255D01*
X174143056Y-90091987D01*
X174202554Y-90053605D01*
X174273428Y-90007970D01*
X174351241Y-89957944D01*
X174362066Y-89950990D01*
X174438408Y-89901820D01*
X174506417Y-89857758D01*
X174562188Y-89821353D01*
X174601818Y-89795158D01*
X174621401Y-89781723D01*
X174622546Y-89780813D01*
X174621686Y-89764793D01*
X174614417Y-89723481D01*
X174601432Y-89660040D01*
X174583426Y-89577635D01*
X174561091Y-89479429D01*
X174535123Y-89368586D01*
X174506215Y-89248271D01*
X174501535Y-89229058D01*
X174471688Y-89106706D01*
X174443887Y-88992678D01*
X174418934Y-88890266D01*
X174397631Y-88802762D01*
X174380779Y-88733458D01*
X174369178Y-88685647D01*
X174363632Y-88662620D01*
X174363402Y-88661638D01*
X174367792Y-88631432D01*
X174381757Y-88608221D01*
X174400861Y-88595098D01*
X174443043Y-88571481D01*
X174504755Y-88539180D01*
X174582451Y-88500006D01*
X174672584Y-88455766D01*
X174771605Y-88408271D01*
X174800783Y-88394473D01*
X174924069Y-88336862D01*
X175023177Y-88291720D01*
X175100078Y-88258233D01*
X175156745Y-88235587D01*
X175195150Y-88222969D01*
X175217264Y-88219563D01*
X175221950Y-88220580D01*
X175235820Y-88235037D01*
X175264181Y-88271127D01*
X175305109Y-88326179D01*
X175356679Y-88397522D01*
X175416965Y-88482483D01*
X175484042Y-88578390D01*
X175555986Y-88682573D01*
X175577872Y-88714518D01*
X175650178Y-88820178D01*
X175717316Y-88918146D01*
X175777485Y-89005806D01*
X175828884Y-89080541D01*
X175869714Y-89139736D01*
X175898175Y-89180773D01*
X175912467Y-89201037D01*
X175913750Y-89202703D01*
X175929169Y-89201129D01*
X175969028Y-89193269D01*
X176029330Y-89180022D01*
X176106077Y-89162281D01*
X176195272Y-89140944D01*
X176259146Y-89125294D01*
X176598139Y-89041481D01*
X176604664Y-88996404D01*
X176607744Y-88970184D01*
X176613128Y-88919056D01*
X176620387Y-88847314D01*
X176629091Y-88759252D01*
X176638814Y-88659165D01*
X176649124Y-88551347D01*
X176649438Y-88548037D01*
X176664952Y-88385635D01*
X176678198Y-88250018D01*
X176689482Y-88138752D01*
X176699113Y-88049404D01*
X176707396Y-87979542D01*
X176714639Y-87926731D01*
X176721148Y-87888540D01*
X176727230Y-87862536D01*
X176733193Y-87846285D01*
X176739035Y-87837655D01*
X176765338Y-87823163D01*
X176805865Y-87811719D01*
X176813825Y-87810358D01*
X176858184Y-87804688D01*
X176922328Y-87797899D01*
X177001621Y-87790352D01*
X177091423Y-87782407D01*
X177187097Y-87774426D01*
X177284006Y-87766769D01*
X177377512Y-87759796D01*
X177462977Y-87753870D01*
X177535763Y-87749349D01*
X177591233Y-87746596D01*
X177624750Y-87745971D01*
X177632221Y-87746693D01*
G37*
G36*
X178225679Y-95282996D02*
G01*
X178225708Y-95606667D01*
X178225680Y-95922571D01*
X178225595Y-96229456D01*
X178225458Y-96526074D01*
X178225270Y-96811175D01*
X178225033Y-97083509D01*
X178224750Y-97341825D01*
X178224423Y-97584874D01*
X178224054Y-97811406D01*
X178223646Y-98020171D01*
X178223200Y-98209919D01*
X178222720Y-98379400D01*
X178222207Y-98527365D01*
X178221663Y-98652563D01*
X178221092Y-98753745D01*
X178220495Y-98829661D01*
X178219874Y-98879060D01*
X178219233Y-98900693D01*
X178219068Y-98901616D01*
X178209618Y-98888952D01*
X178189630Y-98853478D01*
X178160954Y-98798967D01*
X178125442Y-98729195D01*
X178084942Y-98647937D01*
X178041304Y-98558967D01*
X177996380Y-98466060D01*
X177952019Y-98372992D01*
X177910072Y-98283538D01*
X177872388Y-98201471D01*
X177840817Y-98130567D01*
X177838123Y-98124364D01*
X177787379Y-98002403D01*
X177737556Y-97873775D01*
X177690708Y-97744471D01*
X177648890Y-97620481D01*
X177614157Y-97507795D01*
X177588564Y-97412404D01*
X177579056Y-97369110D01*
X177570085Y-97302040D01*
X177563960Y-97211679D01*
X177560630Y-97103922D01*
X177560045Y-96984665D01*
X177562152Y-96859804D01*
X177566902Y-96735235D01*
X177574243Y-96616852D01*
X177584125Y-96510552D01*
X177586656Y-96489203D01*
X177596180Y-96415933D01*
X177609223Y-96320585D01*
X177624803Y-96210065D01*
X177641938Y-96091278D01*
X177659649Y-95971130D01*
X177671052Y-95895265D01*
X177691372Y-95757425D01*
X177707015Y-95641118D01*
X177718700Y-95539044D01*
X177727144Y-95443908D01*
X177733064Y-95348411D01*
X177737180Y-95245255D01*
X177738125Y-95213337D01*
X177739877Y-95009671D01*
X177734852Y-94789406D01*
X177723607Y-94564341D01*
X177706699Y-94346276D01*
X177689712Y-94186778D01*
X177678782Y-94094229D01*
X177666974Y-93989629D01*
X177656069Y-93888951D01*
X177650893Y-93838965D01*
X177643218Y-93765834D01*
X177636717Y-93716762D01*
X177629827Y-93686607D01*
X177620985Y-93670226D01*
X177608628Y-93662477D01*
X177596293Y-93659273D01*
X177522057Y-93647568D01*
X177423761Y-93638039D01*
X177306601Y-93630752D01*
X177175771Y-93625775D01*
X177036465Y-93623176D01*
X176893880Y-93623021D01*
X176753208Y-93625379D01*
X176619647Y-93630316D01*
X176498389Y-93637899D01*
X176429849Y-93644151D01*
X176058281Y-93696168D01*
X175681683Y-93773711D01*
X175306238Y-93875204D01*
X174938129Y-93999070D01*
X174750692Y-94072198D01*
X174650432Y-94113619D01*
X174574293Y-94146164D01*
X174519056Y-94171583D01*
X174481505Y-94191628D01*
X174458424Y-94208050D01*
X174446595Y-94222602D01*
X174442802Y-94237034D01*
X174442725Y-94239870D01*
X174432797Y-94267879D01*
X174407642Y-94303969D01*
X174392072Y-94321022D01*
X174362056Y-94353583D01*
X174350624Y-94376409D01*
X174354074Y-94398831D01*
X174357763Y-94407546D01*
X174367486Y-94424917D01*
X174381619Y-94435510D01*
X174406730Y-94440963D01*
X174449386Y-94442915D01*
X174500073Y-94443059D01*
X174567625Y-94441101D01*
X174632587Y-94436241D01*
X174682847Y-94429445D01*
X174690301Y-94427885D01*
X174730208Y-94420278D01*
X174756395Y-94418262D01*
X174760971Y-94419477D01*
X174753443Y-94429885D01*
X174727123Y-94449273D01*
X174706854Y-94461978D01*
X174646329Y-94498070D01*
X174693011Y-94507407D01*
X174818496Y-94518899D01*
X174953995Y-94506858D01*
X175094136Y-94472724D01*
X175233546Y-94417933D01*
X175366854Y-94343923D01*
X175407806Y-94316088D01*
X175454287Y-94283401D01*
X175480173Y-94267011D01*
X175488435Y-94265752D01*
X175482043Y-94278458D01*
X175473953Y-94290145D01*
X175444917Y-94324851D01*
X175399735Y-94372044D01*
X175344848Y-94425495D01*
X175286694Y-94478977D01*
X175231712Y-94526262D01*
X175219976Y-94535778D01*
X175168648Y-94576811D01*
X175227309Y-94567493D01*
X175279991Y-94554770D01*
X175351589Y-94531406D01*
X175434925Y-94500156D01*
X175522822Y-94463776D01*
X175608102Y-94425019D01*
X175642451Y-94408172D01*
X175748835Y-94354598D01*
X175709799Y-94432004D01*
X175627061Y-94564394D01*
X175522996Y-94678465D01*
X175400801Y-94771989D01*
X175263672Y-94842738D01*
X175114806Y-94888483D01*
X175036662Y-94901318D01*
X175010335Y-94905001D01*
X175007068Y-94909368D01*
X175028830Y-94917534D01*
X175051327Y-94924511D01*
X175093035Y-94933749D01*
X175153262Y-94942733D01*
X175221229Y-94949945D01*
X175245158Y-94951791D01*
X175302997Y-94956951D01*
X175346863Y-94963167D01*
X175370749Y-94969462D01*
X175373192Y-94972606D01*
X175351526Y-94986048D01*
X175307673Y-94999131D01*
X175248765Y-95010756D01*
X175181935Y-95019828D01*
X175114316Y-95025250D01*
X175053042Y-95025926D01*
X175033749Y-95024783D01*
X174948707Y-95012124D01*
X174853712Y-94989281D01*
X174760049Y-94959601D01*
X174679003Y-94926434D01*
X174648036Y-94910339D01*
X174623363Y-94896826D01*
X174615346Y-94894587D01*
X174625521Y-94905068D01*
X174655426Y-94929714D01*
X174706594Y-94969970D01*
X174733970Y-94991241D01*
X174776095Y-95025094D01*
X174806474Y-95051813D01*
X174819957Y-95066792D01*
X174820021Y-95068238D01*
X174802545Y-95067859D01*
X174764964Y-95057935D01*
X174713953Y-95040877D01*
X174656189Y-95019099D01*
X174598349Y-94995013D01*
X174547109Y-94971031D01*
X174538048Y-94966358D01*
X174487079Y-94934249D01*
X174425707Y-94887690D01*
X174363231Y-94833960D01*
X174336403Y-94808567D01*
X174290640Y-94764461D01*
X174253686Y-94730329D01*
X174229740Y-94709948D01*
X174222748Y-94706242D01*
X174231159Y-94726418D01*
X174253222Y-94762662D01*
X174284176Y-94808208D01*
X174319263Y-94856292D01*
X174353724Y-94900148D01*
X174380870Y-94931033D01*
X174412321Y-94965477D01*
X174421610Y-94981961D01*
X174407845Y-94981334D01*
X174370132Y-94964443D01*
X174354150Y-94956399D01*
X174317760Y-94940360D01*
X174300427Y-94941081D01*
X174301107Y-94961005D01*
X174318758Y-95002580D01*
X174327190Y-95019608D01*
X174416240Y-95164328D01*
X174527488Y-95290949D01*
X174658370Y-95397090D01*
X174806318Y-95480369D01*
X174838683Y-95494468D01*
X174880783Y-95512776D01*
X174897796Y-95523089D01*
X174892163Y-95527536D01*
X174877463Y-95528289D01*
X174822975Y-95522546D01*
X174751231Y-95506293D01*
X174671245Y-95482057D01*
X174592034Y-95452370D01*
X174564937Y-95440605D01*
X174472808Y-95398832D01*
X174496872Y-95435558D01*
X174526861Y-95470996D01*
X174576513Y-95518109D01*
X174640805Y-95572732D01*
X174714715Y-95630699D01*
X174793222Y-95687844D01*
X174837044Y-95717750D01*
X174960695Y-95799942D01*
X174852027Y-95804555D01*
X174782013Y-95804441D01*
X174708540Y-95799526D01*
X174655369Y-95792194D01*
X174543244Y-95760191D01*
X174430257Y-95709377D01*
X174323841Y-95644335D01*
X174231428Y-95569647D01*
X174160452Y-95489895D01*
X174156929Y-95484893D01*
X174132095Y-95452912D01*
X174114222Y-95437032D01*
X174108747Y-95438019D01*
X174111586Y-95458963D01*
X174124125Y-95499287D01*
X174143526Y-95551860D01*
X174166946Y-95609549D01*
X174191546Y-95665221D01*
X174214484Y-95711745D01*
X174225361Y-95730845D01*
X174245733Y-95768277D01*
X174247525Y-95783855D01*
X174231522Y-95777750D01*
X174198508Y-95750137D01*
X174165153Y-95717551D01*
X174081064Y-95612245D01*
X174013585Y-95485326D01*
X173964433Y-95340452D01*
X173963664Y-95336850D01*
X173944810Y-95248527D01*
X173918800Y-95096016D01*
X173907927Y-95207615D01*
X173899443Y-95279454D01*
X173890543Y-95322599D01*
X173880800Y-95337684D01*
X173869789Y-95325345D01*
X173857083Y-95286217D01*
X173856562Y-95284215D01*
X173832514Y-95138120D01*
X173831973Y-94984575D01*
X173854155Y-94832111D01*
X173898279Y-94689261D01*
X173914468Y-94652129D01*
X173938903Y-94594702D01*
X173954163Y-94548051D01*
X173959216Y-94516764D01*
X173953030Y-94505433D01*
X173946962Y-94507648D01*
X173929516Y-94528865D01*
X173906165Y-94571354D01*
X173879856Y-94628425D01*
X173853536Y-94693386D01*
X173830151Y-94759548D01*
X173817461Y-94801693D01*
X173801124Y-94857399D01*
X173790190Y-94885344D01*
X173784205Y-94886505D01*
X173782855Y-94876039D01*
X173777641Y-94823473D01*
X173767856Y-94799717D01*
X173752580Y-94804477D01*
X173730893Y-94837459D01*
X173721232Y-94856405D01*
X173669685Y-94990454D01*
X173639575Y-95133751D01*
X173631752Y-95278478D01*
X173647066Y-95416816D01*
X173656135Y-95455292D01*
X173667062Y-95499762D01*
X173672898Y-95531053D01*
X173672900Y-95540764D01*
X173663575Y-95532895D01*
X173647259Y-95503450D01*
X173626539Y-95458576D01*
X173604002Y-95404420D01*
X173582232Y-95347128D01*
X173563818Y-95292847D01*
X173553644Y-95257332D01*
X173540145Y-95204940D01*
X173531532Y-95177947D01*
X173525537Y-95173306D01*
X173519895Y-95187973D01*
X173515442Y-95206004D01*
X173511053Y-95238656D01*
X173507231Y-95293983D01*
X173504292Y-95365332D01*
X173502555Y-95446049D01*
X173502254Y-95482400D01*
X173501339Y-95707468D01*
X173459495Y-95658382D01*
X173411481Y-95591803D01*
X173364610Y-95509402D01*
X173325656Y-95424144D01*
X173304566Y-95361918D01*
X173290283Y-95279317D01*
X173285165Y-95182015D01*
X173289199Y-95083166D01*
X173302374Y-94995929D01*
X173304904Y-94985557D01*
X173325628Y-94905369D01*
X173290202Y-94949364D01*
X173266417Y-94983441D01*
X173235404Y-95033981D01*
X173203087Y-95091231D01*
X173196609Y-95103348D01*
X173166641Y-95155954D01*
X173146939Y-95181132D01*
X173137556Y-95178949D01*
X173138540Y-95149471D01*
X173149944Y-95092764D01*
X173159404Y-95054855D01*
X173193741Y-94952240D01*
X173242575Y-94859417D01*
X173310874Y-94767827D01*
X173354072Y-94719612D01*
X173452829Y-94614457D01*
X173379503Y-94656116D01*
X173335879Y-94681506D01*
X173301191Y-94702771D01*
X173287492Y-94712005D01*
X173266555Y-94723244D01*
X173261909Y-94715215D01*
X173272662Y-94692419D01*
X173297919Y-94659357D01*
X173297941Y-94659332D01*
X173324637Y-94627139D01*
X173340718Y-94604297D01*
X173342840Y-94599132D01*
X173329604Y-94593889D01*
X173295608Y-94590145D01*
X173265848Y-94589038D01*
X173200233Y-94586152D01*
X173163488Y-94579792D01*
X173155698Y-94570192D01*
X173176945Y-94557585D01*
X173227310Y-94542205D01*
X173247517Y-94537225D01*
X173364838Y-94509411D01*
X173210854Y-94500151D01*
X173089798Y-94487827D01*
X172996272Y-94467025D01*
X172974464Y-94459486D01*
X172931668Y-94440181D01*
X172882080Y-94413355D01*
X172831549Y-94382826D01*
X172785922Y-94352409D01*
X172751047Y-94325923D01*
X172732772Y-94307182D01*
X172732124Y-94301324D01*
X172748374Y-94302327D01*
X172785005Y-94311409D01*
X172834798Y-94326719D01*
X172846733Y-94330715D01*
X172921781Y-94354951D01*
X172983075Y-94372250D01*
X173026509Y-94381616D01*
X173047974Y-94382050D01*
X173049538Y-94379983D01*
X173038025Y-94369185D01*
X173008587Y-94349361D01*
X172985497Y-94335348D01*
X172926591Y-94292259D01*
X172862693Y-94231827D01*
X172801973Y-94162922D01*
X172752600Y-94094413D01*
X172734741Y-94063118D01*
X172696215Y-93973261D01*
X172669313Y-93881855D01*
X172656571Y-93798669D01*
X172656413Y-93761445D01*
X172660912Y-93693978D01*
X172748607Y-93793727D01*
X172789137Y-93837944D01*
X172836745Y-93887001D01*
X172887033Y-93936730D01*
X172935603Y-93982967D01*
X172978060Y-94021544D01*
X173010005Y-94048296D01*
X173027041Y-94059057D01*
X173028404Y-94058816D01*
X173024126Y-94044790D01*
X173009233Y-94010331D01*
X172986299Y-93961202D01*
X172967604Y-93922716D01*
X172938490Y-93860282D01*
X172914105Y-93801786D01*
X172897945Y-93755913D01*
X172893875Y-93739492D01*
X172890740Y-93715715D01*
X172893878Y-93709843D01*
X172905788Y-93724073D01*
X172928968Y-93760599D01*
X172941680Y-93781489D01*
X173020186Y-93888041D01*
X173119294Y-93986592D01*
X173231965Y-94071661D01*
X173351162Y-94137768D01*
X173444029Y-94172612D01*
X173479225Y-94182818D01*
X173450100Y-94140803D01*
X173423512Y-94101028D01*
X173414464Y-94081346D01*
X173424764Y-94080805D01*
X173456223Y-94098457D01*
X173489907Y-94119904D01*
X173573734Y-94167850D01*
X173664352Y-94209383D01*
X173750048Y-94239428D01*
X173786345Y-94248348D01*
X173816247Y-94250205D01*
X173823724Y-94241411D01*
X173811904Y-94225711D01*
X173783914Y-94206853D01*
X173742883Y-94188582D01*
X173733852Y-94185480D01*
X173563582Y-94115785D01*
X173407565Y-94023876D01*
X173269182Y-93912284D01*
X173151817Y-93783539D01*
X173101142Y-93712087D01*
X173066285Y-93655028D01*
X173034399Y-93597295D01*
X173009035Y-93545906D01*
X172993743Y-93507877D01*
X172990877Y-93494139D01*
X173001011Y-93500604D01*
X173028685Y-93523395D01*
X173069812Y-93559030D01*
X173120299Y-93604027D01*
X173126455Y-93609585D01*
X173179080Y-93656084D01*
X173213821Y-93684377D01*
X173229692Y-93693744D01*
X173225706Y-93683467D01*
X173223204Y-93680012D01*
X173140334Y-93560876D01*
X173077260Y-93450984D01*
X173029969Y-93342457D01*
X172996408Y-93234997D01*
X172985275Y-93176107D01*
X172977761Y-93103374D01*
X172974055Y-93025350D01*
X172974349Y-92950590D01*
X172978831Y-92887648D01*
X172987691Y-92845078D01*
X172987751Y-92844919D01*
X172996543Y-92825063D01*
X173002581Y-92826118D01*
X173008607Y-92851330D01*
X173012511Y-92874249D01*
X173022723Y-92921257D01*
X173039647Y-92984004D01*
X173060672Y-93054233D01*
X173083189Y-93123690D01*
X173104590Y-93184118D01*
X173122265Y-93227263D01*
X173127076Y-93236732D01*
X173135675Y-93248361D01*
X173141267Y-93243997D01*
X173144573Y-93219894D01*
X173146316Y-93172305D01*
X173146879Y-93134076D01*
X173161800Y-92959125D01*
X173202847Y-92796973D01*
X173270492Y-92646198D01*
X173349076Y-92526162D01*
X173384413Y-92483702D01*
X173428188Y-92437206D01*
X173475904Y-92390674D01*
X173523067Y-92348107D01*
X173565179Y-92313503D01*
X173597746Y-92290864D01*
X173616272Y-92284189D01*
X173618601Y-92286348D01*
X173616928Y-92306639D01*
X173607999Y-92346032D01*
X173594596Y-92393158D01*
X173562504Y-92509385D01*
X173534223Y-92635179D01*
X173512015Y-92759079D01*
X173498144Y-92869625D01*
X173496536Y-92889590D01*
X173487730Y-93013568D01*
X173558270Y-92881582D01*
X173621359Y-92769116D01*
X173677943Y-92680680D01*
X173730636Y-92612426D01*
X173767641Y-92573614D01*
X173814078Y-92529619D01*
X173755385Y-92646940D01*
X173696797Y-92778246D01*
X173658087Y-92902163D01*
X173636552Y-93030023D01*
X173629492Y-93173155D01*
X173629484Y-93174884D01*
X173631732Y-93258447D01*
X173638472Y-93342422D01*
X173648763Y-93421098D01*
X173661664Y-93488763D01*
X173676235Y-93539704D01*
X173691535Y-93568210D01*
X173694700Y-93570779D01*
X173705155Y-93561919D01*
X173721410Y-93531911D01*
X173738871Y-93489990D01*
X173756573Y-93444846D01*
X173770562Y-93413161D01*
X173777423Y-93402194D01*
X173778962Y-93415009D01*
X173775834Y-93447002D01*
X173773949Y-93459672D01*
X173772039Y-93497840D01*
X173773877Y-93555997D01*
X173778669Y-93625582D01*
X173785619Y-93698035D01*
X173793934Y-93764794D01*
X173802819Y-93817297D01*
X173809461Y-93842387D01*
X173813835Y-93840473D01*
X173817675Y-93814048D01*
X173820476Y-93767932D01*
X173821536Y-93727299D01*
X173837078Y-93569965D01*
X173865097Y-93468481D01*
X173961909Y-93468481D01*
X173963664Y-93470631D01*
X173972382Y-93468618D01*
X173973441Y-93460854D01*
X173968075Y-93448783D01*
X173963664Y-93451077D01*
X173961909Y-93468481D01*
X173865097Y-93468481D01*
X173878110Y-93421349D01*
X173943286Y-93286129D01*
X173953188Y-93270207D01*
X173980634Y-93227837D01*
X173995389Y-93208248D01*
X174000452Y-93209438D01*
X173998823Y-93229407D01*
X173997166Y-93240877D01*
X173990489Y-93287576D01*
X173982654Y-93344365D01*
X173979805Y-93365531D01*
X173970024Y-93438856D01*
X174039284Y-93301738D01*
X174105783Y-93189861D01*
X174185121Y-93089050D01*
X174272755Y-93003712D01*
X174364146Y-92938250D01*
X174454750Y-92897069D01*
X174457390Y-92896260D01*
X174470486Y-92895358D01*
X174467620Y-92906710D01*
X174447134Y-92932826D01*
X174407368Y-92976212D01*
X174398038Y-92986045D01*
X174340997Y-93047993D01*
X174293433Y-93103608D01*
X174258612Y-93148786D01*
X174239799Y-93179429D01*
X174237413Y-93187827D01*
X174248599Y-93184682D01*
X174278115Y-93168597D01*
X174319892Y-93142915D01*
X174325803Y-93139113D01*
X174458434Y-93070381D01*
X174602747Y-93026239D01*
X174753732Y-93007157D01*
X174906377Y-93013610D01*
X175055671Y-93046070D01*
X175109988Y-93065130D01*
X175126029Y-93072252D01*
X175131764Y-93079126D01*
X175123935Y-93087572D01*
X175099286Y-93099408D01*
X175054561Y-93116453D01*
X174986502Y-93140528D01*
X174956004Y-93151147D01*
X174883661Y-93177659D01*
X174809617Y-93207128D01*
X174738595Y-93237387D01*
X174675313Y-93266268D01*
X174624491Y-93291602D01*
X174590852Y-93311222D01*
X174579113Y-93322960D01*
X174579629Y-93324009D01*
X174594842Y-93324274D01*
X174632466Y-93321871D01*
X174685749Y-93317277D01*
X174714674Y-93314457D01*
X174784965Y-93309833D01*
X174858075Y-93309132D01*
X174927115Y-93311950D01*
X174985197Y-93317881D01*
X175025432Y-93326523D01*
X175038826Y-93333476D01*
X175032026Y-93339388D01*
X175003365Y-93343004D01*
X174982792Y-93343533D01*
X174904182Y-93350965D01*
X174810778Y-93371379D01*
X174712490Y-93401954D01*
X174619233Y-93439868D01*
X174584969Y-93456766D01*
X174541047Y-93483356D01*
X174488343Y-93520573D01*
X174431897Y-93564167D01*
X174376752Y-93609886D01*
X174327945Y-93653480D01*
X174290519Y-93690697D01*
X174269514Y-93717288D01*
X174266743Y-93725146D01*
X174279275Y-93729369D01*
X174310479Y-93726008D01*
X174321737Y-93723632D01*
X174372623Y-93713259D01*
X174396240Y-93712754D01*
X174393221Y-93722940D01*
X174364201Y-93744643D01*
X174346606Y-93756006D01*
X174284235Y-93797403D01*
X174230393Y-93836831D01*
X174189802Y-93870510D01*
X174167182Y-93894663D01*
X174164087Y-93902040D01*
X174176263Y-93913286D01*
X174190861Y-93915473D01*
X174223137Y-93927771D01*
X174257055Y-93958761D01*
X174284191Y-93999587D01*
X174293163Y-94022993D01*
X174303406Y-94061021D01*
X174413394Y-93994506D01*
X174677807Y-93849163D01*
X174966988Y-93717673D01*
X175279678Y-93600364D01*
X175614619Y-93497567D01*
X175970553Y-93409611D01*
X176346219Y-93336826D01*
X176740360Y-93279541D01*
X177151716Y-93238087D01*
X177355949Y-93223846D01*
X177651448Y-93206137D01*
X177675749Y-93080522D01*
X177728822Y-92848958D01*
X177797205Y-92629263D01*
X177851987Y-92485623D01*
X177883338Y-92410330D01*
X177921873Y-92320385D01*
X177965238Y-92221033D01*
X178011082Y-92117518D01*
X178057052Y-92015083D01*
X178100796Y-91918971D01*
X178139962Y-91834427D01*
X178172197Y-91766694D01*
X178194078Y-91723037D01*
X178225031Y-91664376D01*
X178225679Y-95282996D01*
G37*
%TO.C,kibuzzard-6642DA85*%
G36*
X102967728Y-100276131D02*
G01*
X103037975Y-100385669D01*
X103071313Y-100548784D01*
X103077563Y-100646118D01*
X103079647Y-100750000D01*
X103077563Y-100853584D01*
X103071313Y-100950025D01*
X103037975Y-101113141D01*
X102966537Y-101223869D01*
X102846284Y-101264350D01*
X102724841Y-101223869D01*
X102654594Y-101114331D01*
X102621256Y-100951216D01*
X102615005Y-100853882D01*
X102612922Y-100750000D01*
X102615005Y-100646416D01*
X102621256Y-100549975D01*
X102654594Y-100386859D01*
X102724841Y-100276131D01*
X102846284Y-100235650D01*
X102967728Y-100276131D01*
G37*
G36*
X105808948Y-99490855D02*
G01*
X105931768Y-99509074D01*
X106052212Y-99539243D01*
X106169118Y-99581073D01*
X106281362Y-99634160D01*
X106387861Y-99697993D01*
X106487591Y-99771958D01*
X106579591Y-99855342D01*
X106662975Y-99947342D01*
X106736939Y-100047072D01*
X106800773Y-100153571D01*
X106853860Y-100265815D01*
X106895690Y-100382721D01*
X106925859Y-100503164D01*
X106944078Y-100625985D01*
X106950170Y-100750000D01*
X106944078Y-100874015D01*
X106925859Y-100996836D01*
X106895690Y-101117279D01*
X106853860Y-101234185D01*
X106800773Y-101346429D01*
X106736939Y-101452928D01*
X106662975Y-101552658D01*
X106579591Y-101644658D01*
X106487591Y-101728042D01*
X106387861Y-101802007D01*
X106281362Y-101865840D01*
X106169118Y-101918927D01*
X106052212Y-101960757D01*
X105931768Y-101990926D01*
X105808948Y-102009145D01*
X105684933Y-102015237D01*
X105684734Y-102015237D01*
X104782241Y-102015237D01*
X103591616Y-102015237D01*
X102848666Y-102015237D01*
X102315266Y-102015237D01*
X102315067Y-102015237D01*
X102315067Y-102015238D01*
X102191052Y-102009145D01*
X102068232Y-101990926D01*
X101947788Y-101960757D01*
X101830882Y-101918927D01*
X101718638Y-101865840D01*
X101612139Y-101802007D01*
X101512409Y-101728042D01*
X101420409Y-101644658D01*
X101337025Y-101552658D01*
X101263061Y-101452928D01*
X101199227Y-101346429D01*
X101146140Y-101234185D01*
X101104310Y-101117279D01*
X101074141Y-100996836D01*
X101055922Y-100874015D01*
X101049830Y-100750000D01*
X102315266Y-100750000D01*
X102323823Y-100928817D01*
X102349496Y-101084268D01*
X102392284Y-101216353D01*
X102452188Y-101325072D01*
X102557095Y-101432890D01*
X102689254Y-101497580D01*
X102848666Y-101519144D01*
X103004241Y-101497580D01*
X103134416Y-101432890D01*
X103239191Y-101325072D01*
X103299615Y-101216353D01*
X103342775Y-101084268D01*
X103368671Y-100928817D01*
X103377303Y-100750000D01*
X103368820Y-100571183D01*
X103343370Y-100415732D01*
X103300954Y-100283647D01*
X103241572Y-100174928D01*
X103137326Y-100067110D01*
X103029546Y-100014194D01*
X103591616Y-100014194D01*
X103591616Y-101488187D01*
X103884509Y-101488187D01*
X103884509Y-100857156D01*
X104417909Y-100857156D01*
X104417909Y-100614269D01*
X103884509Y-100614269D01*
X103884509Y-100257081D01*
X104494109Y-100257081D01*
X104494109Y-100014194D01*
X104782241Y-100014194D01*
X104782241Y-101488187D01*
X105075134Y-101488187D01*
X105075134Y-100857156D01*
X105608534Y-100857156D01*
X105608534Y-100614269D01*
X105075134Y-100614269D01*
X105075134Y-100257081D01*
X105684734Y-100257081D01*
X105684734Y-100014194D01*
X104782241Y-100014194D01*
X104494109Y-100014194D01*
X103591616Y-100014194D01*
X103029546Y-100014194D01*
X103005564Y-100002420D01*
X102846284Y-99980856D01*
X102691768Y-100002420D01*
X102561593Y-100067110D01*
X102455759Y-100174928D01*
X102394293Y-100283647D01*
X102350389Y-100415732D01*
X102324046Y-100571183D01*
X102315266Y-100750000D01*
X101049830Y-100750000D01*
X101055922Y-100625985D01*
X101074141Y-100503164D01*
X101104310Y-100382721D01*
X101146140Y-100265815D01*
X101199227Y-100153571D01*
X101263061Y-100047072D01*
X101337025Y-99947342D01*
X101420409Y-99855342D01*
X101512409Y-99771958D01*
X101612139Y-99697993D01*
X101718638Y-99634160D01*
X101830882Y-99581073D01*
X101947788Y-99539243D01*
X102068232Y-99509074D01*
X102191052Y-99490855D01*
X102315067Y-99484762D01*
X102315266Y-99484762D01*
X105684734Y-99484762D01*
X105684933Y-99484762D01*
X105808948Y-99490855D01*
G37*
%TO.C,kibuzzard-6642DA55*%
G36*
X162539291Y-117541609D02*
G01*
X162636922Y-117652338D01*
X162686928Y-117811881D01*
X162701216Y-117997619D01*
X162696751Y-118102691D01*
X162683356Y-118198834D01*
X162623825Y-118357188D01*
X162514287Y-118461962D01*
X162346409Y-118500062D01*
X162320216Y-118500062D01*
X162294022Y-118497681D01*
X162294022Y-117507081D01*
X162336884Y-117501128D01*
X162379747Y-117499938D01*
X162539291Y-117541609D01*
G37*
G36*
X163372336Y-116755074D02*
G01*
X163493770Y-116773087D01*
X163612853Y-116802915D01*
X163728440Y-116844273D01*
X163839415Y-116896761D01*
X163944712Y-116959873D01*
X164043316Y-117033003D01*
X164134277Y-117115445D01*
X164216719Y-117206406D01*
X164289849Y-117305009D01*
X164352961Y-117410306D01*
X164405449Y-117521282D01*
X164446806Y-117636868D01*
X164476635Y-117755952D01*
X164494648Y-117877385D01*
X164500672Y-118000000D01*
X164494648Y-118122615D01*
X164476635Y-118244048D01*
X164446806Y-118363132D01*
X164405449Y-118478718D01*
X164352961Y-118589694D01*
X164289849Y-118694991D01*
X164216719Y-118793594D01*
X164134277Y-118884555D01*
X164043316Y-118966997D01*
X163944712Y-119040127D01*
X163839415Y-119103239D01*
X163728440Y-119155727D01*
X163612853Y-119197085D01*
X163493770Y-119226913D01*
X163372336Y-119244926D01*
X163249722Y-119250950D01*
X163249523Y-119250950D01*
X162315453Y-119250950D01*
X161750477Y-119250950D01*
X161750278Y-119250950D01*
X161627664Y-119244926D01*
X161506230Y-119226913D01*
X161387147Y-119197085D01*
X161271560Y-119155727D01*
X161160585Y-119103239D01*
X161055288Y-119040127D01*
X160956684Y-118966997D01*
X160865723Y-118884555D01*
X160783281Y-118793594D01*
X160728060Y-118719138D01*
X162001128Y-118719138D01*
X162161862Y-118746522D01*
X162315453Y-118754856D01*
X162459221Y-118744438D01*
X162590487Y-118713184D01*
X162706871Y-118659309D01*
X162805991Y-118581025D01*
X162886655Y-118477143D01*
X162947675Y-118346472D01*
X162986073Y-118187226D01*
X162998872Y-117997619D01*
X162987263Y-117812179D01*
X162952437Y-117655909D01*
X162896776Y-117526727D01*
X162822659Y-117422547D01*
X162730088Y-117343073D01*
X162619062Y-117288006D01*
X162492559Y-117255859D01*
X162353553Y-117245144D01*
X162189247Y-117252288D01*
X162001128Y-117280863D01*
X162001128Y-118719138D01*
X160728060Y-118719138D01*
X160710151Y-118694991D01*
X160647039Y-118589694D01*
X160594551Y-118478718D01*
X160553194Y-118363132D01*
X160523365Y-118244048D01*
X160505352Y-118122615D01*
X160499328Y-118000000D01*
X160505352Y-117877385D01*
X160523365Y-117755952D01*
X160553194Y-117636868D01*
X160594551Y-117521282D01*
X160647039Y-117410306D01*
X160710151Y-117305009D01*
X160783281Y-117206406D01*
X160865723Y-117115445D01*
X160956684Y-117033003D01*
X161055288Y-116959873D01*
X161160585Y-116896761D01*
X161271560Y-116844273D01*
X161387147Y-116802915D01*
X161506230Y-116773087D01*
X161627664Y-116755074D01*
X161750278Y-116749050D01*
X161750477Y-116749050D01*
X163249523Y-116749050D01*
X163249722Y-116749050D01*
X163372336Y-116755074D01*
G37*
%TO.C,kibuzzard-6642DA94*%
G36*
X103548753Y-88776131D02*
G01*
X103619000Y-88885669D01*
X103652338Y-89048784D01*
X103658588Y-89146118D01*
X103660672Y-89250000D01*
X103658588Y-89353584D01*
X103652338Y-89450025D01*
X103619000Y-89613141D01*
X103547563Y-89723869D01*
X103427309Y-89764350D01*
X103305866Y-89723869D01*
X103235619Y-89614331D01*
X103202281Y-89451216D01*
X103196030Y-89353882D01*
X103193947Y-89250000D01*
X103196030Y-89146416D01*
X103202281Y-89049975D01*
X103235619Y-88886859D01*
X103305866Y-88776131D01*
X103427309Y-88735650D01*
X103548753Y-88776131D01*
G37*
G36*
X105227923Y-87990855D02*
G01*
X105350743Y-88009074D01*
X105471187Y-88039243D01*
X105588093Y-88081073D01*
X105700337Y-88134160D01*
X105806836Y-88197993D01*
X105906566Y-88271958D01*
X105998566Y-88355342D01*
X106081950Y-88447342D01*
X106155914Y-88547072D01*
X106219748Y-88653571D01*
X106272835Y-88765815D01*
X106314665Y-88882721D01*
X106344834Y-89003164D01*
X106363053Y-89125985D01*
X106369145Y-89250000D01*
X106363053Y-89374015D01*
X106344834Y-89496836D01*
X106314665Y-89617279D01*
X106272835Y-89734185D01*
X106219748Y-89846429D01*
X106155914Y-89952928D01*
X106081950Y-90052658D01*
X105998566Y-90144658D01*
X105906566Y-90228042D01*
X105806836Y-90302007D01*
X105700337Y-90365840D01*
X105588093Y-90418927D01*
X105471187Y-90460757D01*
X105350743Y-90490926D01*
X105227923Y-90509145D01*
X105103908Y-90515237D01*
X105103709Y-90515237D01*
X104867966Y-90515237D01*
X103429691Y-90515237D01*
X102896291Y-90515237D01*
X102896092Y-90515237D01*
X102896092Y-90515238D01*
X102772077Y-90509145D01*
X102649257Y-90490926D01*
X102528813Y-90460757D01*
X102411907Y-90418927D01*
X102299663Y-90365840D01*
X102193164Y-90302007D01*
X102093434Y-90228042D01*
X102001434Y-90144658D01*
X101918050Y-90052658D01*
X101844086Y-89952928D01*
X101780252Y-89846429D01*
X101727165Y-89734185D01*
X101685335Y-89617279D01*
X101655166Y-89496836D01*
X101636947Y-89374015D01*
X101630855Y-89250000D01*
X102896291Y-89250000D01*
X102904848Y-89428817D01*
X102930521Y-89584268D01*
X102973309Y-89716353D01*
X103033213Y-89825072D01*
X103138120Y-89932890D01*
X103270279Y-89997580D01*
X103429691Y-90019144D01*
X103585266Y-89997580D01*
X103715441Y-89932890D01*
X103820216Y-89825072D01*
X103880640Y-89716353D01*
X103923800Y-89584268D01*
X103949696Y-89428817D01*
X103958328Y-89250000D01*
X103949845Y-89071183D01*
X103924395Y-88915732D01*
X103881979Y-88783647D01*
X103822597Y-88674928D01*
X103718351Y-88567110D01*
X103610571Y-88514194D01*
X104132159Y-88514194D01*
X104132159Y-89988187D01*
X104396478Y-89988187D01*
X104396478Y-89009494D01*
X104484981Y-89172874D01*
X104569516Y-89335990D01*
X104650081Y-89498841D01*
X104726678Y-89661692D01*
X104799306Y-89824807D01*
X104867966Y-89988187D01*
X105103709Y-89988187D01*
X105103709Y-88514194D01*
X104839391Y-88514194D01*
X104839391Y-89421450D01*
X104797421Y-89328581D01*
X104747713Y-89221425D01*
X104691753Y-89105339D01*
X104631031Y-88985681D01*
X104567035Y-88863940D01*
X104501253Y-88741603D01*
X104434578Y-88623434D01*
X104367903Y-88514194D01*
X104132159Y-88514194D01*
X103610571Y-88514194D01*
X103586589Y-88502420D01*
X103427309Y-88480856D01*
X103272793Y-88502420D01*
X103142618Y-88567110D01*
X103036784Y-88674928D01*
X102975318Y-88783647D01*
X102931414Y-88915732D01*
X102905071Y-89071183D01*
X102896291Y-89250000D01*
X101630855Y-89250000D01*
X101636947Y-89125985D01*
X101655166Y-89003164D01*
X101685335Y-88882721D01*
X101727165Y-88765815D01*
X101780252Y-88653571D01*
X101844086Y-88547072D01*
X101918050Y-88447342D01*
X102001434Y-88355342D01*
X102093434Y-88271958D01*
X102193164Y-88197993D01*
X102299663Y-88134160D01*
X102411907Y-88081073D01*
X102528813Y-88039243D01*
X102649257Y-88009074D01*
X102772077Y-87990855D01*
X102896092Y-87984762D01*
X102896291Y-87984762D01*
X105103709Y-87984762D01*
X105103908Y-87984762D01*
X105227923Y-87990855D01*
G37*
%TO.C,kibuzzard-6642DB1F*%
G36*
X130925523Y-60016011D02*
G01*
X131008272Y-60057087D01*
X131061850Y-60127334D01*
X131079709Y-60228537D01*
X131013034Y-60394034D01*
X130925523Y-60437790D01*
X130796341Y-60452375D01*
X130732047Y-60452375D01*
X130732047Y-60009462D01*
X130779672Y-60003509D01*
X130820153Y-60002319D01*
X130925523Y-60016011D01*
G37*
G36*
X133408572Y-60026131D02*
G01*
X133478819Y-60135669D01*
X133512156Y-60298784D01*
X133518407Y-60396118D01*
X133520491Y-60500000D01*
X133518407Y-60603584D01*
X133512156Y-60700025D01*
X133478819Y-60863141D01*
X133407381Y-60973869D01*
X133287128Y-61014350D01*
X133165684Y-60973869D01*
X133095438Y-60864331D01*
X133062100Y-60701216D01*
X133055849Y-60603882D01*
X133053766Y-60500000D01*
X133055849Y-60396416D01*
X133062100Y-60299975D01*
X133095438Y-60136859D01*
X133165684Y-60026131D01*
X133287128Y-59985650D01*
X133408572Y-60026131D01*
G37*
G36*
X135099648Y-59240855D02*
G01*
X135222468Y-59259074D01*
X135342912Y-59289243D01*
X135459818Y-59331073D01*
X135572062Y-59384160D01*
X135678561Y-59447993D01*
X135778291Y-59521958D01*
X135870291Y-59605342D01*
X135953675Y-59697342D01*
X136027639Y-59797072D01*
X136091473Y-59903571D01*
X136144560Y-60015815D01*
X136186390Y-60132721D01*
X136216559Y-60253164D01*
X136234778Y-60375985D01*
X136240870Y-60500000D01*
X136234778Y-60624015D01*
X136216559Y-60746836D01*
X136186390Y-60867279D01*
X136144560Y-60984185D01*
X136091473Y-61096429D01*
X136027639Y-61202928D01*
X135953675Y-61302658D01*
X135870291Y-61394658D01*
X135778291Y-61478042D01*
X135678561Y-61552007D01*
X135572062Y-61615840D01*
X135459818Y-61668927D01*
X135342912Y-61710757D01*
X135222468Y-61740926D01*
X135099648Y-61759145D01*
X134975633Y-61765237D01*
X134975434Y-61765237D01*
X133289509Y-61765237D01*
X131944103Y-61765237D01*
X131474997Y-61765237D01*
X129269959Y-61765237D01*
X128481766Y-61765237D01*
X128024566Y-61765237D01*
X128024367Y-61765237D01*
X128024367Y-61765238D01*
X127900352Y-61759145D01*
X127777532Y-61740926D01*
X127657088Y-61710757D01*
X127540182Y-61668927D01*
X127427938Y-61615840D01*
X127321439Y-61552007D01*
X127221709Y-61478042D01*
X127129709Y-61394658D01*
X127046325Y-61302658D01*
X126972361Y-61202928D01*
X126944967Y-61157225D01*
X128024566Y-61157225D01*
X128188872Y-61229853D01*
X128316864Y-61259321D01*
X128481766Y-61269144D01*
X128648850Y-61256576D01*
X128784978Y-61218873D01*
X128890150Y-61156034D01*
X128991055Y-61019410D01*
X129024691Y-60835756D01*
X129014570Y-60724730D01*
X128984209Y-60634541D01*
X128880625Y-60501191D01*
X128742513Y-60415466D01*
X128598447Y-60357125D01*
X128506769Y-60321406D01*
X128423425Y-60277353D01*
X128362703Y-60220203D01*
X128338891Y-60145194D01*
X128364820Y-60051267D01*
X128442607Y-59994910D01*
X128572253Y-59976125D01*
X128740131Y-59999937D01*
X128872291Y-60057087D01*
X128958016Y-59830869D01*
X128793629Y-59764194D01*
X129269959Y-59764194D01*
X129269959Y-61238187D01*
X130215316Y-61238187D01*
X130439153Y-61238187D01*
X130732047Y-61238187D01*
X130732047Y-60695262D01*
X130884447Y-60695262D01*
X130965112Y-60830101D01*
X131040419Y-60963153D01*
X131108582Y-61097991D01*
X131167816Y-61238187D01*
X131474997Y-61238187D01*
X131407131Y-61082216D01*
X131324978Y-60917909D01*
X131236872Y-60760747D01*
X131151147Y-60623825D01*
X131255327Y-60556555D01*
X131324978Y-60464281D01*
X131364269Y-60353553D01*
X131377366Y-60230919D01*
X131367543Y-60115130D01*
X131338075Y-60015416D01*
X131224966Y-59864206D01*
X131144003Y-59812414D01*
X131048753Y-59776100D01*
X130988561Y-59764194D01*
X131532147Y-59764194D01*
X131559531Y-59897544D01*
X131598822Y-60064231D01*
X131630307Y-60188982D01*
X131664439Y-60318760D01*
X131701216Y-60453566D01*
X131740109Y-60591017D01*
X131780591Y-60728732D01*
X131822659Y-60866712D01*
X131885167Y-61063166D01*
X131944103Y-61238187D01*
X132246522Y-61238187D01*
X132292030Y-61111320D01*
X132336480Y-60981542D01*
X132379872Y-60848853D01*
X132421544Y-60715503D01*
X132460834Y-60583741D01*
X132484578Y-60500000D01*
X132756109Y-60500000D01*
X132764667Y-60678817D01*
X132790340Y-60834268D01*
X132833128Y-60966353D01*
X132893031Y-61075072D01*
X132997939Y-61182890D01*
X133130098Y-61247580D01*
X133289509Y-61269144D01*
X133445084Y-61247580D01*
X133575259Y-61182890D01*
X133680034Y-61075072D01*
X133740459Y-60966353D01*
X133783619Y-60834268D01*
X133809515Y-60678817D01*
X133818147Y-60500000D01*
X133809664Y-60321183D01*
X133784214Y-60165732D01*
X133753913Y-60071375D01*
X133996741Y-60071375D01*
X134091991Y-60314262D01*
X134237247Y-60255922D01*
X134389647Y-60171387D01*
X134389647Y-60995300D01*
X134080084Y-60995300D01*
X134080084Y-61238187D01*
X134975434Y-61238187D01*
X134975434Y-60995300D01*
X134682541Y-60995300D01*
X134682541Y-59764194D01*
X134482516Y-59764194D01*
X134380122Y-59857062D01*
X134253916Y-59942787D01*
X134120566Y-60016606D01*
X133996741Y-60071375D01*
X133753913Y-60071375D01*
X133741798Y-60033647D01*
X133682416Y-59924928D01*
X133578170Y-59817110D01*
X133446407Y-59752420D01*
X133287128Y-59730856D01*
X133132611Y-59752420D01*
X133002436Y-59817110D01*
X132896603Y-59924928D01*
X132835137Y-60033647D01*
X132791233Y-60165732D01*
X132764890Y-60321183D01*
X132756109Y-60500000D01*
X132484578Y-60500000D01*
X132497744Y-60453566D01*
X132548345Y-60263959D01*
X132592994Y-60083281D01*
X132631391Y-59915403D01*
X132663241Y-59764194D01*
X132356059Y-59764194D01*
X132334628Y-59888019D01*
X132308434Y-60030894D01*
X132278669Y-60185377D01*
X132246522Y-60344028D01*
X132211994Y-60503572D01*
X132175084Y-60660734D01*
X132136984Y-60808074D01*
X132098884Y-60938150D01*
X132060487Y-60806288D01*
X132021494Y-60658353D01*
X131983394Y-60501191D01*
X131947675Y-60341647D01*
X131914635Y-60183294D01*
X131884572Y-60029703D01*
X131859569Y-59887721D01*
X131841709Y-59764194D01*
X131532147Y-59764194D01*
X130988561Y-59764194D01*
X130940406Y-59754669D01*
X130820153Y-59747525D01*
X130736809Y-59749906D01*
X130636797Y-59755859D01*
X130533213Y-59767766D01*
X130439153Y-59785625D01*
X130439153Y-61238187D01*
X130215316Y-61238187D01*
X130215316Y-60995300D01*
X129562853Y-60995300D01*
X129562853Y-60580962D01*
X130084347Y-60580962D01*
X130084347Y-60338075D01*
X129562853Y-60338075D01*
X129562853Y-60007081D01*
X130162928Y-60007081D01*
X130162928Y-59764194D01*
X129269959Y-59764194D01*
X128793629Y-59764194D01*
X128787756Y-59761812D01*
X128677921Y-59738595D01*
X128550822Y-59730856D01*
X128404904Y-59743821D01*
X128281476Y-59782715D01*
X128180538Y-59847537D01*
X128079632Y-59986841D01*
X128045997Y-60171387D01*
X128084097Y-60346409D01*
X128180538Y-60464281D01*
X128310316Y-60542862D01*
X128448428Y-60597631D01*
X128548441Y-60639303D01*
X128638928Y-60689309D01*
X128705603Y-60752412D01*
X128731797Y-60833375D01*
X128721081Y-60903622D01*
X128681791Y-60965534D01*
X128604400Y-61008397D01*
X128481766Y-61023875D01*
X128363001Y-61015541D01*
X128263881Y-60990537D01*
X128110291Y-60919100D01*
X128024566Y-61157225D01*
X126944967Y-61157225D01*
X126908527Y-61096429D01*
X126855440Y-60984185D01*
X126813610Y-60867279D01*
X126783441Y-60746836D01*
X126765222Y-60624015D01*
X126759130Y-60500000D01*
X126765222Y-60375985D01*
X126783441Y-60253164D01*
X126813610Y-60132721D01*
X126855440Y-60015815D01*
X126908527Y-59903571D01*
X126972361Y-59797072D01*
X127046325Y-59697342D01*
X127129709Y-59605342D01*
X127221709Y-59521958D01*
X127321439Y-59447993D01*
X127427938Y-59384160D01*
X127540182Y-59331073D01*
X127657088Y-59289243D01*
X127777532Y-59259074D01*
X127900352Y-59240855D01*
X128024367Y-59234762D01*
X128024566Y-59234762D01*
X134975434Y-59234762D01*
X134975633Y-59234762D01*
X135099648Y-59240855D01*
G37*
%TO.C,kibuzzard-6642DA1F*%
G36*
X117541672Y-117707106D02*
G01*
X117579772Y-117854744D01*
X117611919Y-118001191D01*
X117640494Y-118153591D01*
X117352363Y-118153591D01*
X117382128Y-118001191D01*
X117415466Y-117854744D01*
X117453566Y-117707106D01*
X117497619Y-117548753D01*
X117541672Y-117707106D01*
G37*
G36*
X118370586Y-116772847D02*
G01*
X118490286Y-116790603D01*
X118607669Y-116820006D01*
X118721605Y-116860773D01*
X118830997Y-116912511D01*
X118934790Y-116974723D01*
X119031986Y-117046808D01*
X119121648Y-117128073D01*
X119202914Y-117217736D01*
X119274999Y-117314932D01*
X119337211Y-117418725D01*
X119388949Y-117528117D01*
X119429716Y-117642053D01*
X119459119Y-117759436D01*
X119476875Y-117879136D01*
X119482812Y-118000000D01*
X119476875Y-118120864D01*
X119459119Y-118240564D01*
X119429716Y-118357947D01*
X119388949Y-118471883D01*
X119337211Y-118581275D01*
X119274999Y-118685068D01*
X119202914Y-118782264D01*
X119121648Y-118871927D01*
X119031986Y-118953192D01*
X118934790Y-119025277D01*
X118830997Y-119087489D01*
X118721605Y-119139227D01*
X118607669Y-119179994D01*
X118490286Y-119209397D01*
X118370586Y-119227153D01*
X118249722Y-119233091D01*
X118249523Y-119233091D01*
X117759556Y-119233091D01*
X116750477Y-119233091D01*
X116750278Y-119233091D01*
X116629414Y-119227153D01*
X116509714Y-119209397D01*
X116392331Y-119179994D01*
X116278395Y-119139227D01*
X116169003Y-119087489D01*
X116065210Y-119025277D01*
X115968014Y-118953192D01*
X115878352Y-118871927D01*
X115797086Y-118782264D01*
X115763514Y-118736997D01*
X116926119Y-118736997D01*
X117230919Y-118736997D01*
X117297594Y-118396478D01*
X117690500Y-118396478D01*
X117759556Y-118736997D01*
X118073881Y-118736997D01*
X118034591Y-118569881D01*
X117994824Y-118407622D01*
X117954581Y-118250222D01*
X117913861Y-118097679D01*
X117872666Y-117949994D01*
X117820799Y-117770879D01*
X117768784Y-117596676D01*
X117716619Y-117427384D01*
X117664306Y-117263003D01*
X117345219Y-117263003D01*
X117294766Y-117426044D01*
X117243420Y-117593699D01*
X117191182Y-117765968D01*
X117138050Y-117942850D01*
X117095283Y-118089297D01*
X117052706Y-118241935D01*
X117010320Y-118400764D01*
X116968124Y-118565785D01*
X116926119Y-118736997D01*
X115763514Y-118736997D01*
X115725001Y-118685068D01*
X115662789Y-118581275D01*
X115611051Y-118471883D01*
X115570284Y-118357947D01*
X115540881Y-118240564D01*
X115523125Y-118120864D01*
X115517188Y-118000000D01*
X115523125Y-117879136D01*
X115540881Y-117759436D01*
X115570284Y-117642053D01*
X115611051Y-117528117D01*
X115662789Y-117418725D01*
X115725001Y-117314932D01*
X115797086Y-117217736D01*
X115878352Y-117128073D01*
X115968014Y-117046808D01*
X116065210Y-116974723D01*
X116169003Y-116912511D01*
X116278395Y-116860773D01*
X116392331Y-116820006D01*
X116509714Y-116790603D01*
X116629414Y-116772847D01*
X116750278Y-116766909D01*
X116750477Y-116766909D01*
X118249523Y-116766909D01*
X118249722Y-116766909D01*
X118370586Y-116772847D01*
G37*
%TO.C,kibuzzard-6642DA03*%
G36*
X132638113Y-118136922D02*
G01*
X132705978Y-118290513D01*
X132682166Y-118396478D01*
X132621444Y-118460772D01*
X132536909Y-118491728D01*
X132439278Y-118500062D01*
X132366650Y-118497681D01*
X132298784Y-118490537D01*
X132298784Y-118090487D01*
X132455947Y-118090487D01*
X132638113Y-118136922D01*
G37*
G36*
X132510716Y-117505891D02*
G01*
X132577391Y-117529703D01*
X132622634Y-117579709D01*
X132639303Y-117664244D01*
X132582153Y-117798784D01*
X132413084Y-117847600D01*
X132298784Y-117847600D01*
X132298784Y-117509463D01*
X132363078Y-117502319D01*
X132432134Y-117499938D01*
X132510716Y-117505891D01*
G37*
G36*
X133372336Y-116755074D02*
G01*
X133493770Y-116773087D01*
X133612853Y-116802915D01*
X133728440Y-116844273D01*
X133839415Y-116896761D01*
X133944712Y-116959873D01*
X134043316Y-117033003D01*
X134134277Y-117115445D01*
X134216719Y-117206406D01*
X134289849Y-117305009D01*
X134352961Y-117410306D01*
X134405449Y-117521282D01*
X134446806Y-117636868D01*
X134476635Y-117755952D01*
X134494648Y-117877385D01*
X134500672Y-118000000D01*
X134494648Y-118122615D01*
X134476635Y-118244048D01*
X134446806Y-118363132D01*
X134405449Y-118478718D01*
X134352961Y-118589694D01*
X134289849Y-118694991D01*
X134216719Y-118793594D01*
X134134277Y-118884555D01*
X134043316Y-118966997D01*
X133944712Y-119040127D01*
X133839415Y-119103239D01*
X133728440Y-119155727D01*
X133612853Y-119197085D01*
X133493770Y-119226913D01*
X133372336Y-119244926D01*
X133249722Y-119250950D01*
X133249523Y-119250950D01*
X132415466Y-119250950D01*
X131750477Y-119250950D01*
X131750278Y-119250950D01*
X131627664Y-119244926D01*
X131506230Y-119226913D01*
X131387147Y-119197085D01*
X131271560Y-119155727D01*
X131160585Y-119103239D01*
X131055288Y-119040127D01*
X130956684Y-118966997D01*
X130865723Y-118884555D01*
X130783281Y-118793594D01*
X130722761Y-118711994D01*
X132005891Y-118711994D01*
X132108880Y-118730746D01*
X132213059Y-118744141D01*
X132316048Y-118752177D01*
X132415466Y-118754856D01*
X132533040Y-118749201D01*
X132642875Y-118732234D01*
X132741697Y-118701873D01*
X132826231Y-118656034D01*
X132948866Y-118513159D01*
X132982798Y-118412849D01*
X132994109Y-118290513D01*
X132980715Y-118190500D01*
X132940531Y-118095250D01*
X132862843Y-118011906D01*
X132736934Y-117947613D01*
X132873856Y-117819025D01*
X132912254Y-117732109D01*
X132925053Y-117633288D01*
X132903622Y-117495175D01*
X132822659Y-117370159D01*
X132658353Y-117279672D01*
X132538100Y-117253776D01*
X132386891Y-117245144D01*
X132189247Y-117255859D01*
X132005891Y-117280863D01*
X132005891Y-118711994D01*
X130722761Y-118711994D01*
X130710151Y-118694991D01*
X130647039Y-118589694D01*
X130594551Y-118478718D01*
X130553194Y-118363132D01*
X130523365Y-118244048D01*
X130505352Y-118122615D01*
X130499328Y-118000000D01*
X130505352Y-117877385D01*
X130523365Y-117755952D01*
X130553194Y-117636868D01*
X130594551Y-117521282D01*
X130647039Y-117410306D01*
X130710151Y-117305009D01*
X130783281Y-117206406D01*
X130865723Y-117115445D01*
X130956684Y-117033003D01*
X131055288Y-116959873D01*
X131160585Y-116896761D01*
X131271560Y-116844273D01*
X131387147Y-116802915D01*
X131506230Y-116773087D01*
X131627664Y-116755074D01*
X131750278Y-116749050D01*
X131750477Y-116749050D01*
X133249523Y-116749050D01*
X133249722Y-116749050D01*
X133372336Y-116755074D01*
G37*
%TO.C,kibuzzard-6642DA41*%
G36*
X148373737Y-116740855D02*
G01*
X148496557Y-116759074D01*
X148617001Y-116789243D01*
X148733907Y-116831073D01*
X148846151Y-116884160D01*
X148952650Y-116947993D01*
X149052380Y-117021958D01*
X149144380Y-117105342D01*
X149227763Y-117197342D01*
X149301728Y-117297072D01*
X149365562Y-117403571D01*
X149418649Y-117515815D01*
X149460478Y-117632721D01*
X149490648Y-117753164D01*
X149508867Y-117875985D01*
X149514959Y-118000000D01*
X149508867Y-118124015D01*
X149490648Y-118246836D01*
X149460478Y-118367279D01*
X149418649Y-118484185D01*
X149365562Y-118596429D01*
X149301728Y-118702928D01*
X149227763Y-118802658D01*
X149144380Y-118894658D01*
X149052380Y-118978042D01*
X148952650Y-119052007D01*
X148846151Y-119115840D01*
X148733907Y-119168927D01*
X148617001Y-119210757D01*
X148496557Y-119240926D01*
X148373737Y-119259145D01*
X148249722Y-119265237D01*
X148249523Y-119265237D01*
X147614300Y-119265237D01*
X146750477Y-119265237D01*
X146750278Y-119265237D01*
X146750278Y-119265238D01*
X146626263Y-119259145D01*
X146503443Y-119240926D01*
X146382999Y-119210757D01*
X146266093Y-119168927D01*
X146153849Y-119115840D01*
X146047350Y-119052007D01*
X145947620Y-118978042D01*
X145855620Y-118894658D01*
X145772237Y-118802658D01*
X145698272Y-118702928D01*
X145634438Y-118596429D01*
X145581351Y-118484185D01*
X145539522Y-118367279D01*
X145509352Y-118246836D01*
X145491133Y-118124015D01*
X145485041Y-118000000D01*
X146973744Y-118000000D01*
X146984013Y-118173980D01*
X147014820Y-118326827D01*
X147066166Y-118458539D01*
X147138050Y-118569119D01*
X147263992Y-118680244D01*
X147422742Y-118746919D01*
X147614300Y-118769144D01*
X147744376Y-118761107D01*
X147858378Y-118736997D01*
X148026256Y-118666750D01*
X147952438Y-118435769D01*
X147832184Y-118488156D01*
X147642875Y-118514350D01*
X147472913Y-118480715D01*
X147358316Y-118379809D01*
X147310029Y-118277019D01*
X147281057Y-118148034D01*
X147271400Y-117992856D01*
X147279437Y-117859506D01*
X147303547Y-117749969D01*
X147386891Y-117593997D01*
X147503572Y-117510653D01*
X147638113Y-117485650D01*
X147815516Y-117510653D01*
X147947675Y-117571375D01*
X148023875Y-117338012D01*
X147975059Y-117309437D01*
X147895288Y-117273719D01*
X147784559Y-117243953D01*
X147642875Y-117230856D01*
X147503274Y-117243655D01*
X147374984Y-117282053D01*
X147260684Y-117345156D01*
X147163053Y-117432072D01*
X147083579Y-117541907D01*
X147023750Y-117673769D01*
X146986245Y-117826764D01*
X146973744Y-118000000D01*
X145485041Y-118000000D01*
X145491133Y-117875985D01*
X145509352Y-117753164D01*
X145539522Y-117632721D01*
X145581351Y-117515815D01*
X145634438Y-117403571D01*
X145698272Y-117297072D01*
X145772237Y-117197342D01*
X145855620Y-117105342D01*
X145947620Y-117021958D01*
X146047350Y-116947993D01*
X146153849Y-116884160D01*
X146266093Y-116831073D01*
X146382999Y-116789243D01*
X146503443Y-116759074D01*
X146626263Y-116740855D01*
X146750278Y-116734762D01*
X146750477Y-116734762D01*
X148249523Y-116734762D01*
X148249722Y-116734762D01*
X148373737Y-116740855D01*
G37*
%TD*%
%LPC*%
D12*
%TO.C,REF\u002A\u002A*%
X100500000Y-61500000D03*
%TD*%
%TO.C,REF\u002A\u002A*%
X100500000Y-116500000D03*
%TD*%
%TO.C,REF\u002A\u002A*%
X179500000Y-116500000D03*
%TD*%
%TO.C,REF\u002A\u002A*%
X179500000Y-61500000D03*
%TD*%
%LPD*%
M02*
