%TF.GenerationSoftware,KiCad,Pcbnew,7.0.8*%
%TF.CreationDate,2024-05-31T18:51:31-04:00*%
%TF.ProjectId,topboard,746f7062-6f61-4726-942e-6b696361645f,rev?*%
%TF.SameCoordinates,Original*%
%TF.FileFunction,Legend,Top*%
%TF.FilePolarity,Positive*%
%FSLAX46Y46*%
G04 Gerber Fmt 4.6, Leading zero omitted, Abs format (unit mm)*
G04 Created by KiCad (PCBNEW 7.0.8) date 2024-05-31 18:51:31*
%MOMM*%
%LPD*%
G01*
G04 APERTURE LIST*
%ADD10C,0.200000*%
%ADD11C,0.400000*%
%ADD12C,3.200000*%
G04 APERTURE END LIST*
D10*
X129749999Y-76806028D02*
X129749999Y-75306028D01*
X129749999Y-75877457D02*
X129892857Y-75806028D01*
X129892857Y-75806028D02*
X130178571Y-75806028D01*
X130178571Y-75806028D02*
X130321428Y-75877457D01*
X130321428Y-75877457D02*
X130392857Y-75948885D01*
X130392857Y-75948885D02*
X130464285Y-76091742D01*
X130464285Y-76091742D02*
X130464285Y-76520314D01*
X130464285Y-76520314D02*
X130392857Y-76663171D01*
X130392857Y-76663171D02*
X130321428Y-76734600D01*
X130321428Y-76734600D02*
X130178571Y-76806028D01*
X130178571Y-76806028D02*
X129892857Y-76806028D01*
X129892857Y-76806028D02*
X129749999Y-76734600D01*
X130964285Y-75806028D02*
X131321428Y-76806028D01*
X131678571Y-75806028D02*
X131321428Y-76806028D01*
X131321428Y-76806028D02*
X131178571Y-77163171D01*
X131178571Y-77163171D02*
X131107142Y-77234600D01*
X131107142Y-77234600D02*
X130964285Y-77306028D01*
X133392856Y-76806028D02*
X133392856Y-75306028D01*
X134035714Y-76734600D02*
X134178571Y-76806028D01*
X134178571Y-76806028D02*
X134464285Y-76806028D01*
X134464285Y-76806028D02*
X134607142Y-76734600D01*
X134607142Y-76734600D02*
X134678571Y-76591742D01*
X134678571Y-76591742D02*
X134678571Y-76520314D01*
X134678571Y-76520314D02*
X134607142Y-76377457D01*
X134607142Y-76377457D02*
X134464285Y-76306028D01*
X134464285Y-76306028D02*
X134250000Y-76306028D01*
X134250000Y-76306028D02*
X134107142Y-76234600D01*
X134107142Y-76234600D02*
X134035714Y-76091742D01*
X134035714Y-76091742D02*
X134035714Y-76020314D01*
X134035714Y-76020314D02*
X134107142Y-75877457D01*
X134107142Y-75877457D02*
X134250000Y-75806028D01*
X134250000Y-75806028D02*
X134464285Y-75806028D01*
X134464285Y-75806028D02*
X134607142Y-75877457D01*
X135535714Y-76806028D02*
X135392857Y-76734600D01*
X135392857Y-76734600D02*
X135321428Y-76591742D01*
X135321428Y-76591742D02*
X135321428Y-75306028D01*
X136750000Y-76806028D02*
X136750000Y-76020314D01*
X136750000Y-76020314D02*
X136678571Y-75877457D01*
X136678571Y-75877457D02*
X136535714Y-75806028D01*
X136535714Y-75806028D02*
X136250000Y-75806028D01*
X136250000Y-75806028D02*
X136107142Y-75877457D01*
X136750000Y-76734600D02*
X136607142Y-76806028D01*
X136607142Y-76806028D02*
X136250000Y-76806028D01*
X136250000Y-76806028D02*
X136107142Y-76734600D01*
X136107142Y-76734600D02*
X136035714Y-76591742D01*
X136035714Y-76591742D02*
X136035714Y-76448885D01*
X136035714Y-76448885D02*
X136107142Y-76306028D01*
X136107142Y-76306028D02*
X136250000Y-76234600D01*
X136250000Y-76234600D02*
X136607142Y-76234600D01*
X136607142Y-76234600D02*
X136750000Y-76163171D01*
X137464285Y-75806028D02*
X137464285Y-76806028D01*
X137464285Y-75948885D02*
X137535714Y-75877457D01*
X137535714Y-75877457D02*
X137678571Y-75806028D01*
X137678571Y-75806028D02*
X137892857Y-75806028D01*
X137892857Y-75806028D02*
X138035714Y-75877457D01*
X138035714Y-75877457D02*
X138107143Y-76020314D01*
X138107143Y-76020314D02*
X138107143Y-76806028D01*
X139464286Y-76806028D02*
X139464286Y-75306028D01*
X139464286Y-76734600D02*
X139321428Y-76806028D01*
X139321428Y-76806028D02*
X139035714Y-76806028D01*
X139035714Y-76806028D02*
X138892857Y-76734600D01*
X138892857Y-76734600D02*
X138821428Y-76663171D01*
X138821428Y-76663171D02*
X138750000Y-76520314D01*
X138750000Y-76520314D02*
X138750000Y-76091742D01*
X138750000Y-76091742D02*
X138821428Y-75948885D01*
X138821428Y-75948885D02*
X138892857Y-75877457D01*
X138892857Y-75877457D02*
X139035714Y-75806028D01*
X139035714Y-75806028D02*
X139321428Y-75806028D01*
X139321428Y-75806028D02*
X139464286Y-75877457D01*
X142178571Y-76806028D02*
X141678571Y-76091742D01*
X141321428Y-76806028D02*
X141321428Y-75306028D01*
X141321428Y-75306028D02*
X141892857Y-75306028D01*
X141892857Y-75306028D02*
X142035714Y-75377457D01*
X142035714Y-75377457D02*
X142107143Y-75448885D01*
X142107143Y-75448885D02*
X142178571Y-75591742D01*
X142178571Y-75591742D02*
X142178571Y-75806028D01*
X142178571Y-75806028D02*
X142107143Y-75948885D01*
X142107143Y-75948885D02*
X142035714Y-76020314D01*
X142035714Y-76020314D02*
X141892857Y-76091742D01*
X141892857Y-76091742D02*
X141321428Y-76091742D01*
X143035714Y-76806028D02*
X142892857Y-76734600D01*
X142892857Y-76734600D02*
X142821428Y-76663171D01*
X142821428Y-76663171D02*
X142750000Y-76520314D01*
X142750000Y-76520314D02*
X142750000Y-76091742D01*
X142750000Y-76091742D02*
X142821428Y-75948885D01*
X142821428Y-75948885D02*
X142892857Y-75877457D01*
X142892857Y-75877457D02*
X143035714Y-75806028D01*
X143035714Y-75806028D02*
X143250000Y-75806028D01*
X143250000Y-75806028D02*
X143392857Y-75877457D01*
X143392857Y-75877457D02*
X143464286Y-75948885D01*
X143464286Y-75948885D02*
X143535714Y-76091742D01*
X143535714Y-76091742D02*
X143535714Y-76520314D01*
X143535714Y-76520314D02*
X143464286Y-76663171D01*
X143464286Y-76663171D02*
X143392857Y-76734600D01*
X143392857Y-76734600D02*
X143250000Y-76806028D01*
X143250000Y-76806028D02*
X143035714Y-76806028D01*
X144178571Y-76806028D02*
X144178571Y-75306028D01*
X144178571Y-75877457D02*
X144321429Y-75806028D01*
X144321429Y-75806028D02*
X144607143Y-75806028D01*
X144607143Y-75806028D02*
X144750000Y-75877457D01*
X144750000Y-75877457D02*
X144821429Y-75948885D01*
X144821429Y-75948885D02*
X144892857Y-76091742D01*
X144892857Y-76091742D02*
X144892857Y-76520314D01*
X144892857Y-76520314D02*
X144821429Y-76663171D01*
X144821429Y-76663171D02*
X144750000Y-76734600D01*
X144750000Y-76734600D02*
X144607143Y-76806028D01*
X144607143Y-76806028D02*
X144321429Y-76806028D01*
X144321429Y-76806028D02*
X144178571Y-76734600D01*
X145750000Y-76806028D02*
X145607143Y-76734600D01*
X145607143Y-76734600D02*
X145535714Y-76663171D01*
X145535714Y-76663171D02*
X145464286Y-76520314D01*
X145464286Y-76520314D02*
X145464286Y-76091742D01*
X145464286Y-76091742D02*
X145535714Y-75948885D01*
X145535714Y-75948885D02*
X145607143Y-75877457D01*
X145607143Y-75877457D02*
X145750000Y-75806028D01*
X145750000Y-75806028D02*
X145964286Y-75806028D01*
X145964286Y-75806028D02*
X146107143Y-75877457D01*
X146107143Y-75877457D02*
X146178572Y-75948885D01*
X146178572Y-75948885D02*
X146250000Y-76091742D01*
X146250000Y-76091742D02*
X146250000Y-76520314D01*
X146250000Y-76520314D02*
X146178572Y-76663171D01*
X146178572Y-76663171D02*
X146107143Y-76734600D01*
X146107143Y-76734600D02*
X145964286Y-76806028D01*
X145964286Y-76806028D02*
X145750000Y-76806028D01*
X146678572Y-75806028D02*
X147250000Y-75806028D01*
X146892857Y-75306028D02*
X146892857Y-76591742D01*
X146892857Y-76591742D02*
X146964286Y-76734600D01*
X146964286Y-76734600D02*
X147107143Y-76806028D01*
X147107143Y-76806028D02*
X147250000Y-76806028D01*
X147750000Y-76806028D02*
X147750000Y-75806028D01*
X147750000Y-75306028D02*
X147678572Y-75377457D01*
X147678572Y-75377457D02*
X147750000Y-75448885D01*
X147750000Y-75448885D02*
X147821429Y-75377457D01*
X147821429Y-75377457D02*
X147750000Y-75306028D01*
X147750000Y-75306028D02*
X147750000Y-75448885D01*
X149107144Y-76734600D02*
X148964286Y-76806028D01*
X148964286Y-76806028D02*
X148678572Y-76806028D01*
X148678572Y-76806028D02*
X148535715Y-76734600D01*
X148535715Y-76734600D02*
X148464286Y-76663171D01*
X148464286Y-76663171D02*
X148392858Y-76520314D01*
X148392858Y-76520314D02*
X148392858Y-76091742D01*
X148392858Y-76091742D02*
X148464286Y-75948885D01*
X148464286Y-75948885D02*
X148535715Y-75877457D01*
X148535715Y-75877457D02*
X148678572Y-75806028D01*
X148678572Y-75806028D02*
X148964286Y-75806028D01*
X148964286Y-75806028D02*
X149107144Y-75877457D01*
X149678572Y-76734600D02*
X149821429Y-76806028D01*
X149821429Y-76806028D02*
X150107143Y-76806028D01*
X150107143Y-76806028D02*
X150250000Y-76734600D01*
X150250000Y-76734600D02*
X150321429Y-76591742D01*
X150321429Y-76591742D02*
X150321429Y-76520314D01*
X150321429Y-76520314D02*
X150250000Y-76377457D01*
X150250000Y-76377457D02*
X150107143Y-76306028D01*
X150107143Y-76306028D02*
X149892858Y-76306028D01*
X149892858Y-76306028D02*
X149750000Y-76234600D01*
X149750000Y-76234600D02*
X149678572Y-76091742D01*
X149678572Y-76091742D02*
X149678572Y-76020314D01*
X149678572Y-76020314D02*
X149750000Y-75877457D01*
X149750000Y-75877457D02*
X149892858Y-75806028D01*
X149892858Y-75806028D02*
X150107143Y-75806028D01*
X150107143Y-75806028D02*
X150250000Y-75877457D01*
D11*
X125547619Y-73804200D02*
X125904762Y-73923247D01*
X125904762Y-73923247D02*
X126500000Y-73923247D01*
X126500000Y-73923247D02*
X126738095Y-73804200D01*
X126738095Y-73804200D02*
X126857143Y-73685152D01*
X126857143Y-73685152D02*
X126976190Y-73447057D01*
X126976190Y-73447057D02*
X126976190Y-73208961D01*
X126976190Y-73208961D02*
X126857143Y-72970866D01*
X126857143Y-72970866D02*
X126738095Y-72851819D01*
X126738095Y-72851819D02*
X126500000Y-72732771D01*
X126500000Y-72732771D02*
X126023809Y-72613723D01*
X126023809Y-72613723D02*
X125785714Y-72494676D01*
X125785714Y-72494676D02*
X125666667Y-72375628D01*
X125666667Y-72375628D02*
X125547619Y-72137533D01*
X125547619Y-72137533D02*
X125547619Y-71899438D01*
X125547619Y-71899438D02*
X125666667Y-71661342D01*
X125666667Y-71661342D02*
X125785714Y-71542295D01*
X125785714Y-71542295D02*
X126023809Y-71423247D01*
X126023809Y-71423247D02*
X126619048Y-71423247D01*
X126619048Y-71423247D02*
X126976190Y-71542295D01*
X129000000Y-73804200D02*
X128761904Y-73923247D01*
X128761904Y-73923247D02*
X128285714Y-73923247D01*
X128285714Y-73923247D02*
X128047619Y-73804200D01*
X128047619Y-73804200D02*
X127928571Y-73566104D01*
X127928571Y-73566104D02*
X127928571Y-72613723D01*
X127928571Y-72613723D02*
X128047619Y-72375628D01*
X128047619Y-72375628D02*
X128285714Y-72256580D01*
X128285714Y-72256580D02*
X128761904Y-72256580D01*
X128761904Y-72256580D02*
X129000000Y-72375628D01*
X129000000Y-72375628D02*
X129119047Y-72613723D01*
X129119047Y-72613723D02*
X129119047Y-72851819D01*
X129119047Y-72851819D02*
X127928571Y-73089914D01*
X130190476Y-73923247D02*
X130190476Y-72256580D01*
X130190476Y-72732771D02*
X130309523Y-72494676D01*
X130309523Y-72494676D02*
X130428571Y-72375628D01*
X130428571Y-72375628D02*
X130666666Y-72256580D01*
X130666666Y-72256580D02*
X130904761Y-72256580D01*
X131499999Y-72256580D02*
X132095237Y-73923247D01*
X132095237Y-73923247D02*
X132690476Y-72256580D01*
X133999999Y-73923247D02*
X133761904Y-73804200D01*
X133761904Y-73804200D02*
X133642857Y-73685152D01*
X133642857Y-73685152D02*
X133523809Y-73447057D01*
X133523809Y-73447057D02*
X133523809Y-72732771D01*
X133523809Y-72732771D02*
X133642857Y-72494676D01*
X133642857Y-72494676D02*
X133761904Y-72375628D01*
X133761904Y-72375628D02*
X133999999Y-72256580D01*
X133999999Y-72256580D02*
X134357142Y-72256580D01*
X134357142Y-72256580D02*
X134595238Y-72375628D01*
X134595238Y-72375628D02*
X134714285Y-72494676D01*
X134714285Y-72494676D02*
X134833333Y-72732771D01*
X134833333Y-72732771D02*
X134833333Y-73447057D01*
X134833333Y-73447057D02*
X134714285Y-73685152D01*
X134714285Y-73685152D02*
X134595238Y-73804200D01*
X134595238Y-73804200D02*
X134357142Y-73923247D01*
X134357142Y-73923247D02*
X133999999Y-73923247D01*
X138880952Y-73804200D02*
X138642857Y-73923247D01*
X138642857Y-73923247D02*
X138166666Y-73923247D01*
X138166666Y-73923247D02*
X137928571Y-73804200D01*
X137928571Y-73804200D02*
X137809524Y-73685152D01*
X137809524Y-73685152D02*
X137690476Y-73447057D01*
X137690476Y-73447057D02*
X137690476Y-72732771D01*
X137690476Y-72732771D02*
X137809524Y-72494676D01*
X137809524Y-72494676D02*
X137928571Y-72375628D01*
X137928571Y-72375628D02*
X138166666Y-72256580D01*
X138166666Y-72256580D02*
X138642857Y-72256580D01*
X138642857Y-72256580D02*
X138880952Y-72375628D01*
X140309523Y-73923247D02*
X140071428Y-73804200D01*
X140071428Y-73804200D02*
X139952381Y-73685152D01*
X139952381Y-73685152D02*
X139833333Y-73447057D01*
X139833333Y-73447057D02*
X139833333Y-72732771D01*
X139833333Y-72732771D02*
X139952381Y-72494676D01*
X139952381Y-72494676D02*
X140071428Y-72375628D01*
X140071428Y-72375628D02*
X140309523Y-72256580D01*
X140309523Y-72256580D02*
X140666666Y-72256580D01*
X140666666Y-72256580D02*
X140904762Y-72375628D01*
X140904762Y-72375628D02*
X141023809Y-72494676D01*
X141023809Y-72494676D02*
X141142857Y-72732771D01*
X141142857Y-72732771D02*
X141142857Y-73447057D01*
X141142857Y-73447057D02*
X141023809Y-73685152D01*
X141023809Y-73685152D02*
X140904762Y-73804200D01*
X140904762Y-73804200D02*
X140666666Y-73923247D01*
X140666666Y-73923247D02*
X140309523Y-73923247D01*
X142214286Y-72256580D02*
X142214286Y-73923247D01*
X142214286Y-72494676D02*
X142333333Y-72375628D01*
X142333333Y-72375628D02*
X142571428Y-72256580D01*
X142571428Y-72256580D02*
X142928571Y-72256580D01*
X142928571Y-72256580D02*
X143166667Y-72375628D01*
X143166667Y-72375628D02*
X143285714Y-72613723D01*
X143285714Y-72613723D02*
X143285714Y-73923247D01*
X144119048Y-72256580D02*
X145071429Y-72256580D01*
X144476191Y-71423247D02*
X144476191Y-73566104D01*
X144476191Y-73566104D02*
X144595238Y-73804200D01*
X144595238Y-73804200D02*
X144833333Y-73923247D01*
X144833333Y-73923247D02*
X145071429Y-73923247D01*
X145904762Y-73923247D02*
X145904762Y-72256580D01*
X145904762Y-72732771D02*
X146023809Y-72494676D01*
X146023809Y-72494676D02*
X146142857Y-72375628D01*
X146142857Y-72375628D02*
X146380952Y-72256580D01*
X146380952Y-72256580D02*
X146619047Y-72256580D01*
X147809523Y-73923247D02*
X147571428Y-73804200D01*
X147571428Y-73804200D02*
X147452381Y-73685152D01*
X147452381Y-73685152D02*
X147333333Y-73447057D01*
X147333333Y-73447057D02*
X147333333Y-72732771D01*
X147333333Y-72732771D02*
X147452381Y-72494676D01*
X147452381Y-72494676D02*
X147571428Y-72375628D01*
X147571428Y-72375628D02*
X147809523Y-72256580D01*
X147809523Y-72256580D02*
X148166666Y-72256580D01*
X148166666Y-72256580D02*
X148404762Y-72375628D01*
X148404762Y-72375628D02*
X148523809Y-72494676D01*
X148523809Y-72494676D02*
X148642857Y-72732771D01*
X148642857Y-72732771D02*
X148642857Y-73447057D01*
X148642857Y-73447057D02*
X148523809Y-73685152D01*
X148523809Y-73685152D02*
X148404762Y-73804200D01*
X148404762Y-73804200D02*
X148166666Y-73923247D01*
X148166666Y-73923247D02*
X147809523Y-73923247D01*
X150071428Y-73923247D02*
X149833333Y-73804200D01*
X149833333Y-73804200D02*
X149714286Y-73566104D01*
X149714286Y-73566104D02*
X149714286Y-71423247D01*
X151380952Y-73923247D02*
X151142857Y-73804200D01*
X151142857Y-73804200D02*
X151023810Y-73566104D01*
X151023810Y-73566104D02*
X151023810Y-71423247D01*
X153285715Y-73804200D02*
X153047619Y-73923247D01*
X153047619Y-73923247D02*
X152571429Y-73923247D01*
X152571429Y-73923247D02*
X152333334Y-73804200D01*
X152333334Y-73804200D02*
X152214286Y-73566104D01*
X152214286Y-73566104D02*
X152214286Y-72613723D01*
X152214286Y-72613723D02*
X152333334Y-72375628D01*
X152333334Y-72375628D02*
X152571429Y-72256580D01*
X152571429Y-72256580D02*
X153047619Y-72256580D01*
X153047619Y-72256580D02*
X153285715Y-72375628D01*
X153285715Y-72375628D02*
X153404762Y-72613723D01*
X153404762Y-72613723D02*
X153404762Y-72851819D01*
X153404762Y-72851819D02*
X152214286Y-73089914D01*
X154476191Y-73923247D02*
X154476191Y-72256580D01*
X154476191Y-72732771D02*
X154595238Y-72494676D01*
X154595238Y-72494676D02*
X154714286Y-72375628D01*
X154714286Y-72375628D02*
X154952381Y-72256580D01*
X154952381Y-72256580D02*
X155190476Y-72256580D01*
D10*
X127178572Y-79234600D02*
X127321429Y-79306028D01*
X127321429Y-79306028D02*
X127607143Y-79306028D01*
X127607143Y-79306028D02*
X127750000Y-79234600D01*
X127750000Y-79234600D02*
X127821429Y-79091742D01*
X127821429Y-79091742D02*
X127821429Y-79020314D01*
X127821429Y-79020314D02*
X127750000Y-78877457D01*
X127750000Y-78877457D02*
X127607143Y-78806028D01*
X127607143Y-78806028D02*
X127392858Y-78806028D01*
X127392858Y-78806028D02*
X127250000Y-78734600D01*
X127250000Y-78734600D02*
X127178572Y-78591742D01*
X127178572Y-78591742D02*
X127178572Y-78520314D01*
X127178572Y-78520314D02*
X127250000Y-78377457D01*
X127250000Y-78377457D02*
X127392858Y-78306028D01*
X127392858Y-78306028D02*
X127607143Y-78306028D01*
X127607143Y-78306028D02*
X127750000Y-78377457D01*
X129035715Y-79234600D02*
X128892858Y-79306028D01*
X128892858Y-79306028D02*
X128607144Y-79306028D01*
X128607144Y-79306028D02*
X128464286Y-79234600D01*
X128464286Y-79234600D02*
X128392858Y-79091742D01*
X128392858Y-79091742D02*
X128392858Y-78520314D01*
X128392858Y-78520314D02*
X128464286Y-78377457D01*
X128464286Y-78377457D02*
X128607144Y-78306028D01*
X128607144Y-78306028D02*
X128892858Y-78306028D01*
X128892858Y-78306028D02*
X129035715Y-78377457D01*
X129035715Y-78377457D02*
X129107144Y-78520314D01*
X129107144Y-78520314D02*
X129107144Y-78663171D01*
X129107144Y-78663171D02*
X128392858Y-78806028D01*
X129750000Y-79306028D02*
X129750000Y-78306028D01*
X129750000Y-78591742D02*
X129821429Y-78448885D01*
X129821429Y-78448885D02*
X129892858Y-78377457D01*
X129892858Y-78377457D02*
X130035715Y-78306028D01*
X130035715Y-78306028D02*
X130178572Y-78306028D01*
X130535714Y-78306028D02*
X130892857Y-79306028D01*
X130892857Y-79306028D02*
X131250000Y-78306028D01*
X132035714Y-79306028D02*
X131892857Y-79234600D01*
X131892857Y-79234600D02*
X131821428Y-79163171D01*
X131821428Y-79163171D02*
X131750000Y-79020314D01*
X131750000Y-79020314D02*
X131750000Y-78591742D01*
X131750000Y-78591742D02*
X131821428Y-78448885D01*
X131821428Y-78448885D02*
X131892857Y-78377457D01*
X131892857Y-78377457D02*
X132035714Y-78306028D01*
X132035714Y-78306028D02*
X132250000Y-78306028D01*
X132250000Y-78306028D02*
X132392857Y-78377457D01*
X132392857Y-78377457D02*
X132464286Y-78448885D01*
X132464286Y-78448885D02*
X132535714Y-78591742D01*
X132535714Y-78591742D02*
X132535714Y-79020314D01*
X132535714Y-79020314D02*
X132464286Y-79163171D01*
X132464286Y-79163171D02*
X132392857Y-79234600D01*
X132392857Y-79234600D02*
X132250000Y-79306028D01*
X132250000Y-79306028D02*
X132035714Y-79306028D01*
X133178571Y-78734600D02*
X134321429Y-78734600D01*
X135678572Y-79234600D02*
X135535714Y-79306028D01*
X135535714Y-79306028D02*
X135250000Y-79306028D01*
X135250000Y-79306028D02*
X135107143Y-79234600D01*
X135107143Y-79234600D02*
X135035714Y-79163171D01*
X135035714Y-79163171D02*
X134964286Y-79020314D01*
X134964286Y-79020314D02*
X134964286Y-78591742D01*
X134964286Y-78591742D02*
X135035714Y-78448885D01*
X135035714Y-78448885D02*
X135107143Y-78377457D01*
X135107143Y-78377457D02*
X135250000Y-78306028D01*
X135250000Y-78306028D02*
X135535714Y-78306028D01*
X135535714Y-78306028D02*
X135678572Y-78377457D01*
X136535714Y-79306028D02*
X136392857Y-79234600D01*
X136392857Y-79234600D02*
X136321428Y-79163171D01*
X136321428Y-79163171D02*
X136250000Y-79020314D01*
X136250000Y-79020314D02*
X136250000Y-78591742D01*
X136250000Y-78591742D02*
X136321428Y-78448885D01*
X136321428Y-78448885D02*
X136392857Y-78377457D01*
X136392857Y-78377457D02*
X136535714Y-78306028D01*
X136535714Y-78306028D02*
X136750000Y-78306028D01*
X136750000Y-78306028D02*
X136892857Y-78377457D01*
X136892857Y-78377457D02*
X136964286Y-78448885D01*
X136964286Y-78448885D02*
X137035714Y-78591742D01*
X137035714Y-78591742D02*
X137035714Y-79020314D01*
X137035714Y-79020314D02*
X136964286Y-79163171D01*
X136964286Y-79163171D02*
X136892857Y-79234600D01*
X136892857Y-79234600D02*
X136750000Y-79306028D01*
X136750000Y-79306028D02*
X136535714Y-79306028D01*
X137678571Y-78306028D02*
X137678571Y-79306028D01*
X137678571Y-78448885D02*
X137750000Y-78377457D01*
X137750000Y-78377457D02*
X137892857Y-78306028D01*
X137892857Y-78306028D02*
X138107143Y-78306028D01*
X138107143Y-78306028D02*
X138250000Y-78377457D01*
X138250000Y-78377457D02*
X138321429Y-78520314D01*
X138321429Y-78520314D02*
X138321429Y-79306028D01*
X138821429Y-78306028D02*
X139392857Y-78306028D01*
X139035714Y-77806028D02*
X139035714Y-79091742D01*
X139035714Y-79091742D02*
X139107143Y-79234600D01*
X139107143Y-79234600D02*
X139250000Y-79306028D01*
X139250000Y-79306028D02*
X139392857Y-79306028D01*
X139892857Y-79306028D02*
X139892857Y-78306028D01*
X139892857Y-78591742D02*
X139964286Y-78448885D01*
X139964286Y-78448885D02*
X140035715Y-78377457D01*
X140035715Y-78377457D02*
X140178572Y-78306028D01*
X140178572Y-78306028D02*
X140321429Y-78306028D01*
X141035714Y-79306028D02*
X140892857Y-79234600D01*
X140892857Y-79234600D02*
X140821428Y-79163171D01*
X140821428Y-79163171D02*
X140750000Y-79020314D01*
X140750000Y-79020314D02*
X140750000Y-78591742D01*
X140750000Y-78591742D02*
X140821428Y-78448885D01*
X140821428Y-78448885D02*
X140892857Y-78377457D01*
X140892857Y-78377457D02*
X141035714Y-78306028D01*
X141035714Y-78306028D02*
X141250000Y-78306028D01*
X141250000Y-78306028D02*
X141392857Y-78377457D01*
X141392857Y-78377457D02*
X141464286Y-78448885D01*
X141464286Y-78448885D02*
X141535714Y-78591742D01*
X141535714Y-78591742D02*
X141535714Y-79020314D01*
X141535714Y-79020314D02*
X141464286Y-79163171D01*
X141464286Y-79163171D02*
X141392857Y-79234600D01*
X141392857Y-79234600D02*
X141250000Y-79306028D01*
X141250000Y-79306028D02*
X141035714Y-79306028D01*
X142392857Y-79306028D02*
X142250000Y-79234600D01*
X142250000Y-79234600D02*
X142178571Y-79091742D01*
X142178571Y-79091742D02*
X142178571Y-77806028D01*
X143178571Y-79306028D02*
X143035714Y-79234600D01*
X143035714Y-79234600D02*
X142964285Y-79091742D01*
X142964285Y-79091742D02*
X142964285Y-77806028D01*
X144321428Y-79234600D02*
X144178571Y-79306028D01*
X144178571Y-79306028D02*
X143892857Y-79306028D01*
X143892857Y-79306028D02*
X143749999Y-79234600D01*
X143749999Y-79234600D02*
X143678571Y-79091742D01*
X143678571Y-79091742D02*
X143678571Y-78520314D01*
X143678571Y-78520314D02*
X143749999Y-78377457D01*
X143749999Y-78377457D02*
X143892857Y-78306028D01*
X143892857Y-78306028D02*
X144178571Y-78306028D01*
X144178571Y-78306028D02*
X144321428Y-78377457D01*
X144321428Y-78377457D02*
X144392857Y-78520314D01*
X144392857Y-78520314D02*
X144392857Y-78663171D01*
X144392857Y-78663171D02*
X143678571Y-78806028D01*
X145035713Y-79306028D02*
X145035713Y-78306028D01*
X145035713Y-78591742D02*
X145107142Y-78448885D01*
X145107142Y-78448885D02*
X145178571Y-78377457D01*
X145178571Y-78377457D02*
X145321428Y-78306028D01*
X145321428Y-78306028D02*
X145464285Y-78306028D01*
X145964284Y-79163171D02*
X146035713Y-79234600D01*
X146035713Y-79234600D02*
X145964284Y-79306028D01*
X145964284Y-79306028D02*
X145892856Y-79234600D01*
X145892856Y-79234600D02*
X145964284Y-79163171D01*
X145964284Y-79163171D02*
X145964284Y-79306028D01*
X146678570Y-79306028D02*
X146678570Y-78306028D01*
X146678570Y-78591742D02*
X146749999Y-78448885D01*
X146749999Y-78448885D02*
X146821428Y-78377457D01*
X146821428Y-78377457D02*
X146964285Y-78306028D01*
X146964285Y-78306028D02*
X147107142Y-78306028D01*
X147392856Y-78306028D02*
X147964284Y-78306028D01*
X147607141Y-77806028D02*
X147607141Y-79091742D01*
X147607141Y-79091742D02*
X147678570Y-79234600D01*
X147678570Y-79234600D02*
X147821427Y-79306028D01*
X147821427Y-79306028D02*
X147964284Y-79306028D01*
X148249999Y-78306028D02*
X148821427Y-78306028D01*
X148464284Y-79306028D02*
X148464284Y-78020314D01*
X148464284Y-78020314D02*
X148535713Y-77877457D01*
X148535713Y-77877457D02*
X148678570Y-77806028D01*
X148678570Y-77806028D02*
X148821427Y-77806028D01*
X149964285Y-79306028D02*
X149964285Y-77806028D01*
X149964285Y-79234600D02*
X149821427Y-79306028D01*
X149821427Y-79306028D02*
X149535713Y-79306028D01*
X149535713Y-79306028D02*
X149392856Y-79234600D01*
X149392856Y-79234600D02*
X149321427Y-79163171D01*
X149321427Y-79163171D02*
X149249999Y-79020314D01*
X149249999Y-79020314D02*
X149249999Y-78591742D01*
X149249999Y-78591742D02*
X149321427Y-78448885D01*
X149321427Y-78448885D02*
X149392856Y-78377457D01*
X149392856Y-78377457D02*
X149535713Y-78306028D01*
X149535713Y-78306028D02*
X149821427Y-78306028D01*
X149821427Y-78306028D02*
X149964285Y-78377457D01*
X150678570Y-79163171D02*
X150749999Y-79234600D01*
X150749999Y-79234600D02*
X150678570Y-79306028D01*
X150678570Y-79306028D02*
X150607142Y-79234600D01*
X150607142Y-79234600D02*
X150678570Y-79163171D01*
X150678570Y-79163171D02*
X150678570Y-79306028D01*
X151392856Y-79306028D02*
X151392856Y-78306028D01*
X151392856Y-77806028D02*
X151321428Y-77877457D01*
X151321428Y-77877457D02*
X151392856Y-77948885D01*
X151392856Y-77948885D02*
X151464285Y-77877457D01*
X151464285Y-77877457D02*
X151392856Y-77806028D01*
X151392856Y-77806028D02*
X151392856Y-77948885D01*
X152321428Y-79306028D02*
X152178571Y-79234600D01*
X152178571Y-79234600D02*
X152107142Y-79163171D01*
X152107142Y-79163171D02*
X152035714Y-79020314D01*
X152035714Y-79020314D02*
X152035714Y-78591742D01*
X152035714Y-78591742D02*
X152107142Y-78448885D01*
X152107142Y-78448885D02*
X152178571Y-78377457D01*
X152178571Y-78377457D02*
X152321428Y-78306028D01*
X152321428Y-78306028D02*
X152535714Y-78306028D01*
X152535714Y-78306028D02*
X152678571Y-78377457D01*
X152678571Y-78377457D02*
X152750000Y-78448885D01*
X152750000Y-78448885D02*
X152821428Y-78591742D01*
X152821428Y-78591742D02*
X152821428Y-79020314D01*
X152821428Y-79020314D02*
X152750000Y-79163171D01*
X152750000Y-79163171D02*
X152678571Y-79234600D01*
X152678571Y-79234600D02*
X152535714Y-79306028D01*
X152535714Y-79306028D02*
X152321428Y-79306028D01*
%TO.C,kibuzzard-6642DB3A*%
G36*
X148171952Y-60016011D02*
G01*
X148254700Y-60057087D01*
X148308278Y-60127334D01*
X148326138Y-60228537D01*
X148259463Y-60394034D01*
X148171952Y-60437790D01*
X148042769Y-60452375D01*
X147978475Y-60452375D01*
X147978475Y-60009462D01*
X148026100Y-60003509D01*
X148066581Y-60002319D01*
X148171952Y-60016011D01*
G37*
G36*
X150655000Y-60026131D02*
G01*
X150725247Y-60135669D01*
X150758584Y-60298784D01*
X150764835Y-60396118D01*
X150766919Y-60500000D01*
X150764835Y-60603584D01*
X150758584Y-60700025D01*
X150725247Y-60863141D01*
X150653809Y-60973869D01*
X150533556Y-61014350D01*
X150412113Y-60973869D01*
X150341866Y-60864331D01*
X150308528Y-60701216D01*
X150302277Y-60603882D01*
X150300194Y-60500000D01*
X150302277Y-60396416D01*
X150308528Y-60299975D01*
X150341866Y-60136859D01*
X150412113Y-60026131D01*
X150533556Y-59985650D01*
X150655000Y-60026131D01*
G37*
G36*
X152353220Y-59240855D02*
G01*
X152476040Y-59259074D01*
X152596484Y-59289243D01*
X152713390Y-59331073D01*
X152825634Y-59384160D01*
X152932133Y-59447993D01*
X153031863Y-59521958D01*
X153123863Y-59605342D01*
X153207247Y-59697342D01*
X153281211Y-59797072D01*
X153345045Y-59903571D01*
X153398132Y-60015815D01*
X153439961Y-60132721D01*
X153470131Y-60253164D01*
X153488350Y-60375985D01*
X153494442Y-60500000D01*
X153488350Y-60624015D01*
X153470131Y-60746836D01*
X153439961Y-60867279D01*
X153398132Y-60984185D01*
X153345045Y-61096429D01*
X153281211Y-61202928D01*
X153207247Y-61302658D01*
X153123863Y-61394658D01*
X153031863Y-61478042D01*
X152932133Y-61552007D01*
X152825634Y-61615840D01*
X152713390Y-61668927D01*
X152596484Y-61710757D01*
X152476040Y-61740926D01*
X152353220Y-61759145D01*
X152229205Y-61765237D01*
X152229006Y-61765237D01*
X150535938Y-61765237D01*
X149190531Y-61765237D01*
X148721425Y-61765237D01*
X146516388Y-61765237D01*
X145728194Y-61765237D01*
X145270994Y-61765237D01*
X145270795Y-61765237D01*
X145270795Y-61765238D01*
X145146780Y-61759145D01*
X145023960Y-61740926D01*
X144903516Y-61710757D01*
X144786610Y-61668927D01*
X144674366Y-61615840D01*
X144567867Y-61552007D01*
X144468137Y-61478042D01*
X144376137Y-61394658D01*
X144292753Y-61302658D01*
X144218789Y-61202928D01*
X144191395Y-61157225D01*
X145270994Y-61157225D01*
X145435300Y-61229853D01*
X145563292Y-61259321D01*
X145728194Y-61269144D01*
X145895278Y-61256576D01*
X146031406Y-61218873D01*
X146136578Y-61156034D01*
X146237484Y-61019410D01*
X146271119Y-60835756D01*
X146260998Y-60724730D01*
X146230638Y-60634541D01*
X146127053Y-60501191D01*
X145988941Y-60415466D01*
X145844875Y-60357125D01*
X145753197Y-60321406D01*
X145669853Y-60277353D01*
X145609131Y-60220203D01*
X145585319Y-60145194D01*
X145611248Y-60051267D01*
X145689035Y-59994910D01*
X145818681Y-59976125D01*
X145986559Y-59999937D01*
X146118719Y-60057087D01*
X146204444Y-59830869D01*
X146040057Y-59764194D01*
X146516388Y-59764194D01*
X146516388Y-61238187D01*
X147461744Y-61238187D01*
X147685581Y-61238187D01*
X147978475Y-61238187D01*
X147978475Y-60695262D01*
X148130875Y-60695262D01*
X148211540Y-60830101D01*
X148286847Y-60963153D01*
X148355010Y-61097991D01*
X148414244Y-61238187D01*
X148721425Y-61238187D01*
X148653559Y-61082216D01*
X148571406Y-60917909D01*
X148483300Y-60760747D01*
X148397575Y-60623825D01*
X148501755Y-60556555D01*
X148571406Y-60464281D01*
X148610697Y-60353553D01*
X148623794Y-60230919D01*
X148613971Y-60115130D01*
X148584503Y-60015416D01*
X148471394Y-59864206D01*
X148390431Y-59812414D01*
X148295181Y-59776100D01*
X148234989Y-59764194D01*
X148778575Y-59764194D01*
X148805959Y-59897544D01*
X148845250Y-60064231D01*
X148876735Y-60188982D01*
X148910867Y-60318760D01*
X148947644Y-60453566D01*
X148986538Y-60591017D01*
X149027019Y-60728732D01*
X149069088Y-60866712D01*
X149131595Y-61063166D01*
X149190531Y-61238187D01*
X149492950Y-61238187D01*
X149538458Y-61111320D01*
X149582908Y-60981542D01*
X149626300Y-60848853D01*
X149667972Y-60715503D01*
X149707263Y-60583741D01*
X149731006Y-60500000D01*
X150002538Y-60500000D01*
X150011095Y-60678817D01*
X150036768Y-60834268D01*
X150079556Y-60966353D01*
X150139459Y-61075072D01*
X150244367Y-61182890D01*
X150376526Y-61247580D01*
X150535938Y-61269144D01*
X150691513Y-61247580D01*
X150821688Y-61182890D01*
X150926463Y-61075072D01*
X150986887Y-60966353D01*
X151030047Y-60834268D01*
X151055943Y-60678817D01*
X151064575Y-60500000D01*
X151056092Y-60321183D01*
X151030642Y-60165732D01*
X150988226Y-60033647D01*
X150929495Y-59926119D01*
X151231263Y-59926119D01*
X151376519Y-60130906D01*
X151526538Y-60018987D01*
X151671794Y-59985650D01*
X151809906Y-60034466D01*
X151864675Y-60173769D01*
X151820622Y-60299975D01*
X151708703Y-60428562D01*
X151638456Y-60496726D01*
X151563447Y-60567866D01*
X151488438Y-60643470D01*
X151418191Y-60725028D01*
X151356278Y-60813432D01*
X151306272Y-60909575D01*
X151273232Y-61014350D01*
X151262219Y-61128650D01*
X151261028Y-61178656D01*
X151266981Y-61238187D01*
X152229006Y-61238187D01*
X152229006Y-60995300D01*
X151595594Y-60995300D01*
X151620597Y-60916719D01*
X151681319Y-60832184D01*
X151757519Y-60751222D01*
X151828956Y-60683356D01*
X151950400Y-60564294D01*
X152057556Y-60435706D01*
X152133756Y-60298784D01*
X152162331Y-60152337D01*
X152124231Y-59967791D01*
X152021838Y-59835631D01*
X151874200Y-59757050D01*
X151700369Y-59730856D01*
X151576246Y-59742762D01*
X151451528Y-59778481D01*
X151333954Y-59839203D01*
X151231263Y-59926119D01*
X150929495Y-59926119D01*
X150928844Y-59924928D01*
X150824598Y-59817110D01*
X150692835Y-59752420D01*
X150533556Y-59730856D01*
X150379040Y-59752420D01*
X150248865Y-59817110D01*
X150143031Y-59924928D01*
X150081565Y-60033647D01*
X150037661Y-60165732D01*
X150011318Y-60321183D01*
X150002538Y-60500000D01*
X149731006Y-60500000D01*
X149744172Y-60453566D01*
X149794773Y-60263959D01*
X149839422Y-60083281D01*
X149877820Y-59915403D01*
X149909669Y-59764194D01*
X149602488Y-59764194D01*
X149581056Y-59888019D01*
X149554863Y-60030894D01*
X149525097Y-60185377D01*
X149492950Y-60344028D01*
X149458422Y-60503572D01*
X149421513Y-60660734D01*
X149383413Y-60808074D01*
X149345313Y-60938150D01*
X149306915Y-60806288D01*
X149267922Y-60658353D01*
X149229822Y-60501191D01*
X149194103Y-60341647D01*
X149161063Y-60183294D01*
X149131000Y-60029703D01*
X149105997Y-59887721D01*
X149088138Y-59764194D01*
X148778575Y-59764194D01*
X148234989Y-59764194D01*
X148186834Y-59754669D01*
X148066581Y-59747525D01*
X147983238Y-59749906D01*
X147883225Y-59755859D01*
X147779641Y-59767766D01*
X147685581Y-59785625D01*
X147685581Y-61238187D01*
X147461744Y-61238187D01*
X147461744Y-60995300D01*
X146809281Y-60995300D01*
X146809281Y-60580962D01*
X147330775Y-60580962D01*
X147330775Y-60338075D01*
X146809281Y-60338075D01*
X146809281Y-60007081D01*
X147409356Y-60007081D01*
X147409356Y-59764194D01*
X146516388Y-59764194D01*
X146040057Y-59764194D01*
X146034184Y-59761812D01*
X145924349Y-59738595D01*
X145797250Y-59730856D01*
X145651332Y-59743821D01*
X145527904Y-59782715D01*
X145426966Y-59847537D01*
X145326060Y-59986841D01*
X145292425Y-60171387D01*
X145330525Y-60346409D01*
X145426966Y-60464281D01*
X145556744Y-60542862D01*
X145694856Y-60597631D01*
X145794869Y-60639303D01*
X145885356Y-60689309D01*
X145952031Y-60752412D01*
X145978225Y-60833375D01*
X145967509Y-60903622D01*
X145928219Y-60965534D01*
X145850828Y-61008397D01*
X145728194Y-61023875D01*
X145609429Y-61015541D01*
X145510309Y-60990537D01*
X145356719Y-60919100D01*
X145270994Y-61157225D01*
X144191395Y-61157225D01*
X144154955Y-61096429D01*
X144101868Y-60984185D01*
X144060039Y-60867279D01*
X144029869Y-60746836D01*
X144011650Y-60624015D01*
X144005558Y-60500000D01*
X144011650Y-60375985D01*
X144029869Y-60253164D01*
X144060039Y-60132721D01*
X144101868Y-60015815D01*
X144154955Y-59903571D01*
X144218789Y-59797072D01*
X144292753Y-59697342D01*
X144376137Y-59605342D01*
X144468137Y-59521958D01*
X144567867Y-59447993D01*
X144674366Y-59384160D01*
X144786610Y-59331073D01*
X144903516Y-59289243D01*
X145023960Y-59259074D01*
X145146780Y-59240855D01*
X145270795Y-59234762D01*
X145270994Y-59234762D01*
X152229006Y-59234762D01*
X152229205Y-59234762D01*
X152353220Y-59240855D01*
G37*
%TO.C,G\u002A\u002A\u002A*%
G36*
X180419515Y-102048614D02*
G01*
X179759584Y-102048614D01*
X179759584Y-102400577D01*
X179598267Y-102400577D01*
X179598267Y-101857967D01*
X180419515Y-101857967D01*
X180419515Y-102048614D01*
G37*
G36*
X179389662Y-90106583D02*
G01*
X179414552Y-90125489D01*
X179444542Y-90172034D01*
X179453630Y-90228736D01*
X179441762Y-90285121D01*
X179415620Y-90324511D01*
X179367389Y-90355551D01*
X179315762Y-90361869D01*
X179267248Y-90346350D01*
X179228358Y-90311878D01*
X179205604Y-90261337D01*
X179202309Y-90230006D01*
X179213770Y-90169404D01*
X179244186Y-90123830D01*
X179287607Y-90096216D01*
X179338083Y-90089490D01*
X179389662Y-90106583D01*
G37*
G36*
X180005225Y-90114635D02*
G01*
X180412182Y-90118533D01*
X180416468Y-90207126D01*
X180417146Y-90255802D01*
X180414548Y-90292084D01*
X180410358Y-90306115D01*
X180393253Y-90309157D01*
X180351204Y-90311848D01*
X180288597Y-90314049D01*
X180209816Y-90315624D01*
X180119249Y-90316433D01*
X180079772Y-90316512D01*
X179759584Y-90316512D01*
X179759584Y-90653810D01*
X179598267Y-90653810D01*
X179598267Y-90110737D01*
X180005225Y-90114635D01*
G37*
G36*
X179385196Y-101841038D02*
G01*
X179426726Y-101876218D01*
X179448770Y-101931140D01*
X179451616Y-101964733D01*
X179446452Y-102014623D01*
X179427572Y-102050042D01*
X179414552Y-102063656D01*
X179364710Y-102094069D01*
X179312926Y-102099165D01*
X179265153Y-102081871D01*
X179227339Y-102045120D01*
X179205436Y-101991842D01*
X179202309Y-101959139D01*
X179214436Y-101898433D01*
X179248186Y-101854407D01*
X179299614Y-101831194D01*
X179326963Y-101828637D01*
X179385196Y-101841038D01*
G37*
G36*
X180390977Y-99700277D02*
G01*
X180402232Y-99733098D01*
X180411614Y-99763516D01*
X180427774Y-99844431D01*
X180432175Y-99930554D01*
X180424443Y-100008359D01*
X180418951Y-100030629D01*
X180400212Y-100069722D01*
X180370627Y-100110760D01*
X180365217Y-100116760D01*
X180340473Y-100141806D01*
X180316068Y-100161785D01*
X180288421Y-100177320D01*
X180253947Y-100189035D01*
X180209064Y-100197555D01*
X180150187Y-100203504D01*
X180073734Y-100207506D01*
X179976121Y-100210185D01*
X179853764Y-100212166D01*
X179814578Y-100212681D01*
X179407621Y-100217890D01*
X179407621Y-100479445D01*
X179246304Y-100479445D01*
X179246304Y-100010161D01*
X180200871Y-100010161D01*
X180236867Y-99974165D01*
X180262765Y-99929978D01*
X180273840Y-99870151D01*
X180268978Y-99804974D01*
X180258983Y-99770252D01*
X180252890Y-99747671D01*
X180260191Y-99733008D01*
X180286592Y-99719958D01*
X180312924Y-99710637D01*
X180352987Y-99697250D01*
X180379437Y-99688908D01*
X180384896Y-99687528D01*
X180390977Y-99700277D01*
G37*
G36*
X179669874Y-94802824D02*
G01*
X179724190Y-94816908D01*
X179730254Y-94818516D01*
X179748809Y-94824923D01*
X179759349Y-94836351D01*
X179763636Y-94859509D01*
X179763434Y-94901111D01*
X179761842Y-94938794D01*
X179762878Y-95021757D01*
X179776888Y-95086796D01*
X179807118Y-95143657D01*
X179845582Y-95190263D01*
X179872370Y-95217263D01*
X179898529Y-95237096D01*
X179929233Y-95251055D01*
X179969656Y-95260435D01*
X180024971Y-95266530D01*
X180100352Y-95270636D01*
X180177540Y-95273325D01*
X180412182Y-95280658D01*
X180416518Y-95379647D01*
X180420855Y-95478637D01*
X179598267Y-95478637D01*
X179598267Y-95399689D01*
X179600710Y-95352736D01*
X179611844Y-95324035D01*
X179637382Y-95309130D01*
X179683036Y-95303565D01*
X179722370Y-95302856D01*
X179780479Y-95302655D01*
X179712133Y-95232996D01*
X179670304Y-95184634D01*
X179633116Y-95131919D01*
X179614017Y-95097344D01*
X179591624Y-95022236D01*
X179584363Y-94938013D01*
X179593008Y-94858812D01*
X179599676Y-94835634D01*
X179608330Y-94812334D01*
X179618527Y-94799674D01*
X179636847Y-94796792D01*
X179669874Y-94802824D01*
G37*
G36*
X180416518Y-97843389D02*
G01*
X180420855Y-97942378D01*
X180137881Y-97942595D01*
X180022672Y-97943485D01*
X179934671Y-97946039D01*
X179871797Y-97950380D01*
X179831966Y-97956629D01*
X179818244Y-97961355D01*
X179774655Y-97997958D01*
X179752590Y-98049270D01*
X179752149Y-98109966D01*
X179773433Y-98174722D01*
X179813105Y-98234268D01*
X179864525Y-98294341D01*
X180419515Y-98294341D01*
X180419515Y-98484988D01*
X179596735Y-98484988D01*
X179601167Y-98407996D01*
X179605600Y-98331004D01*
X179660594Y-98326453D01*
X179695956Y-98321641D01*
X179714689Y-98315419D01*
X179715588Y-98313905D01*
X179706989Y-98298719D01*
X179685495Y-98270472D01*
X179676658Y-98259796D01*
X179622211Y-98178049D01*
X179590882Y-98092500D01*
X179582248Y-98007628D01*
X179595882Y-97927912D01*
X179631361Y-97857831D01*
X179688259Y-97801865D01*
X179721999Y-97781849D01*
X179747370Y-97769880D01*
X179771604Y-97760902D01*
X179799309Y-97754475D01*
X179835094Y-97750154D01*
X179883569Y-97747496D01*
X179949343Y-97746058D01*
X180037024Y-97745398D01*
X180103293Y-97745187D01*
X180412182Y-97744399D01*
X180416518Y-97843389D01*
G37*
G36*
X180145986Y-91871509D02*
G01*
X180240564Y-91911537D01*
X180319678Y-91971613D01*
X180379792Y-92049802D01*
X180412603Y-92126651D01*
X180429799Y-92217915D01*
X180430266Y-92311490D01*
X180418209Y-92378947D01*
X180383272Y-92456311D01*
X180327755Y-92530228D01*
X180259693Y-92590826D01*
X180230963Y-92609008D01*
X180149188Y-92641655D01*
X180053500Y-92659660D01*
X180008891Y-92660546D01*
X179956175Y-92661593D01*
X179881930Y-92649693D01*
X179784848Y-92608988D01*
X179703459Y-92545690D01*
X179641018Y-92463771D01*
X179600781Y-92367201D01*
X179587354Y-92290419D01*
X179588585Y-92259642D01*
X179745028Y-92259642D01*
X179757571Y-92333135D01*
X179794246Y-92391149D01*
X179853625Y-92432589D01*
X179934279Y-92456360D01*
X180008891Y-92461934D01*
X180105580Y-92452462D01*
X180181388Y-92424371D01*
X180235142Y-92378149D01*
X180245210Y-92363471D01*
X180268171Y-92300259D01*
X180269598Y-92229547D01*
X180249552Y-92163676D01*
X180244127Y-92154031D01*
X180204187Y-92105768D01*
X180151163Y-92074623D01*
X180080009Y-92058471D01*
X180008891Y-92054912D01*
X179911240Y-92064244D01*
X179835460Y-92091909D01*
X179782187Y-92137414D01*
X179752057Y-92200266D01*
X179745028Y-92259642D01*
X179588585Y-92259642D01*
X179591763Y-92180168D01*
X179621820Y-92080982D01*
X179675138Y-91995916D01*
X179749327Y-91928023D01*
X179841999Y-91880356D01*
X179924566Y-91859339D01*
X180039475Y-91853464D01*
X180145986Y-91871509D01*
G37*
G36*
X180390793Y-90884027D02*
G01*
X180407481Y-90917327D01*
X180420003Y-90971945D01*
X180427938Y-91040109D01*
X180430863Y-91114046D01*
X180428356Y-91185985D01*
X180419994Y-91248152D01*
X180412150Y-91277078D01*
X180375776Y-91342242D01*
X180320028Y-91398720D01*
X180254393Y-91437599D01*
X180233919Y-91444574D01*
X180198590Y-91450322D01*
X180141179Y-91455134D01*
X180068932Y-91458579D01*
X179989092Y-91460229D01*
X179968562Y-91460310D01*
X179759584Y-91460392D01*
X179759584Y-91680369D01*
X179616722Y-91680369D01*
X179606255Y-91574146D01*
X179598918Y-91520685D01*
X179589370Y-91479112D01*
X179579565Y-91457727D01*
X179578697Y-91457050D01*
X179553181Y-91449532D01*
X179514041Y-91445847D01*
X179510277Y-91445790D01*
X179458562Y-91442909D01*
X179405045Y-91436493D01*
X179403954Y-91436314D01*
X179348960Y-91427224D01*
X179348960Y-91269746D01*
X179598267Y-91269746D01*
X179598267Y-90903117D01*
X179759584Y-90903117D01*
X179759584Y-91269746D01*
X179950701Y-91269746D01*
X180054460Y-91267740D01*
X180132857Y-91261144D01*
X180189623Y-91249093D01*
X180228491Y-91230719D01*
X180253191Y-91205157D01*
X180257018Y-91198626D01*
X180266732Y-91163408D01*
X180271721Y-91109806D01*
X180271871Y-91048399D01*
X180267071Y-90989769D01*
X180259619Y-90952066D01*
X180253027Y-90923751D01*
X180258477Y-90907879D01*
X180282041Y-90897300D01*
X180313121Y-90889077D01*
X180354785Y-90881422D01*
X180384138Y-90881221D01*
X180390793Y-90884027D01*
G37*
G36*
X180333135Y-88947470D02*
G01*
X180357530Y-88983063D01*
X180385035Y-89036462D01*
X180417710Y-89131407D01*
X180431563Y-89237472D01*
X180425927Y-89343213D01*
X180407280Y-89418934D01*
X180358908Y-89517492D01*
X180290467Y-89595526D01*
X180213053Y-89648807D01*
X180167090Y-89671775D01*
X180126228Y-89685022D01*
X180078876Y-89691131D01*
X180016224Y-89692680D01*
X179902414Y-89682237D01*
X179806839Y-89649352D01*
X179727380Y-89592705D01*
X179661919Y-89510972D01*
X179629396Y-89451270D01*
X179609837Y-89405591D01*
X179598191Y-89362830D01*
X179592565Y-89312496D01*
X179591069Y-89244100D01*
X179591070Y-89238625D01*
X179592299Y-89170527D01*
X179597099Y-89121757D01*
X179607388Y-89082360D01*
X179625082Y-89042380D01*
X179631120Y-89030685D01*
X179655236Y-88987945D01*
X179676066Y-88956446D01*
X179686239Y-88945334D01*
X179705555Y-88948219D01*
X179737829Y-88966041D01*
X179757975Y-88980711D01*
X179814506Y-89025485D01*
X179779712Y-89094212D01*
X179749788Y-89180627D01*
X179745993Y-89264129D01*
X179765914Y-89340619D01*
X179807137Y-89405995D01*
X179867249Y-89456158D01*
X179943835Y-89487007D01*
X180015665Y-89495024D01*
X180100809Y-89482224D01*
X180170938Y-89447001D01*
X180224044Y-89393219D01*
X180258122Y-89324740D01*
X180271165Y-89245430D01*
X180261168Y-89159151D01*
X180231305Y-89079711D01*
X180189747Y-88997322D01*
X180247035Y-88959411D01*
X180283023Y-88938511D01*
X180310011Y-88933575D01*
X180333135Y-88947470D01*
G37*
G36*
X180161022Y-93833052D02*
G01*
X180254145Y-93879154D01*
X180333064Y-93946128D01*
X180393153Y-94032322D01*
X180393603Y-94033197D01*
X180416273Y-94099191D01*
X180428202Y-94180461D01*
X180428734Y-94264741D01*
X180417213Y-94339766D01*
X180411052Y-94359333D01*
X180362306Y-94451238D01*
X180292122Y-94525182D01*
X180203717Y-94579086D01*
X180100312Y-94610871D01*
X180008891Y-94618979D01*
X179990727Y-94617236D01*
X179895467Y-94608092D01*
X179799336Y-94574665D01*
X179717722Y-94517551D01*
X179686497Y-94485532D01*
X179627775Y-94398770D01*
X179594176Y-94304312D01*
X179587136Y-94232521D01*
X179748235Y-94232521D01*
X179759474Y-94292190D01*
X179782993Y-94336845D01*
X179783109Y-94336977D01*
X179840011Y-94381687D01*
X179911490Y-94409581D01*
X179990727Y-94420953D01*
X180070904Y-94416093D01*
X180145200Y-94395293D01*
X180206797Y-94358846D01*
X180243175Y-94317278D01*
X180267553Y-94252707D01*
X180270053Y-94182427D01*
X180250425Y-94118219D01*
X180247520Y-94113065D01*
X180204672Y-94066803D01*
X180143446Y-94034504D01*
X180070437Y-94016128D01*
X179992242Y-94011634D01*
X179915457Y-94020981D01*
X179846677Y-94044128D01*
X179792498Y-94081034D01*
X179766256Y-94116056D01*
X179750192Y-94169817D01*
X179748235Y-94232521D01*
X179587136Y-94232521D01*
X179584605Y-94206710D01*
X179597967Y-94110515D01*
X179633166Y-94020278D01*
X179689107Y-93940550D01*
X179764695Y-93875883D01*
X179842687Y-93836488D01*
X179950667Y-93810067D01*
X180058321Y-93809472D01*
X180161022Y-93833052D01*
G37*
G36*
X180107376Y-92842026D02*
G01*
X180214862Y-92872524D01*
X180302050Y-92924166D01*
X180368969Y-92996969D01*
X180399265Y-93050519D01*
X180428027Y-93140811D01*
X180429683Y-93227668D01*
X180411897Y-93290864D01*
X180387327Y-93338996D01*
X180360040Y-93382667D01*
X180329318Y-93425811D01*
X180375114Y-93434971D01*
X180401911Y-93441901D01*
X180414900Y-93454257D01*
X180418212Y-93480437D01*
X180416546Y-93519149D01*
X180412182Y-93594168D01*
X180215637Y-93595461D01*
X179829243Y-93598003D01*
X179246304Y-93601837D01*
X179246304Y-93391736D01*
X179467600Y-93400241D01*
X179552072Y-93403297D01*
X179611084Y-93404686D01*
X179648474Y-93404090D01*
X179668082Y-93401194D01*
X179673747Y-93395682D01*
X179669307Y-93387238D01*
X179666386Y-93383872D01*
X179631132Y-93330305D01*
X179602959Y-93260629D01*
X179594564Y-93223428D01*
X179748613Y-93223428D01*
X179762132Y-93284107D01*
X179787092Y-93339256D01*
X179790385Y-93344315D01*
X179825577Y-93395989D01*
X180215637Y-93396189D01*
X180244736Y-93333862D01*
X180264679Y-93268003D01*
X180266906Y-93200950D01*
X180251882Y-93142433D01*
X180234268Y-93114885D01*
X180177769Y-93071519D01*
X180101194Y-93042465D01*
X180011275Y-93030138D01*
X179997421Y-93029883D01*
X179902294Y-93038323D01*
X179828932Y-93063838D01*
X179778384Y-93105610D01*
X179751703Y-93162822D01*
X179748613Y-93223428D01*
X179594564Y-93223428D01*
X179586562Y-93187971D01*
X179584246Y-93154214D01*
X179596912Y-93059113D01*
X179633978Y-92979104D01*
X179694047Y-92915323D01*
X179775722Y-92868908D01*
X179877605Y-92840994D01*
X179979561Y-92832659D01*
X180107376Y-92842026D01*
G37*
G36*
X179829243Y-96787331D02*
G01*
X180412182Y-96791166D01*
X180416744Y-96863073D01*
X180415944Y-96915416D01*
X180402611Y-96945197D01*
X180372801Y-96957896D01*
X180347299Y-96959590D01*
X180311746Y-96959815D01*
X180342722Y-96992811D01*
X180392468Y-97064881D01*
X180422371Y-97149440D01*
X180430928Y-97238084D01*
X180416633Y-97322411D01*
X180406377Y-97348441D01*
X180357465Y-97423915D01*
X180286334Y-97484445D01*
X180221535Y-97519533D01*
X180142157Y-97543784D01*
X180047705Y-97554543D01*
X180035724Y-97554215D01*
X179949129Y-97551845D01*
X179857376Y-97535729D01*
X179806693Y-97518124D01*
X179737851Y-97476900D01*
X179674118Y-97419866D01*
X179623617Y-97355422D01*
X179597317Y-97301566D01*
X179584873Y-97225906D01*
X179589944Y-97159483D01*
X179748526Y-97159483D01*
X179761131Y-97224629D01*
X179773736Y-97250304D01*
X179819236Y-97298010D01*
X179882550Y-97331549D01*
X179956953Y-97350755D01*
X180035724Y-97355462D01*
X180112141Y-97345506D01*
X180179481Y-97320721D01*
X180231022Y-97280941D01*
X180245043Y-97261898D01*
X180269277Y-97195474D01*
X180266745Y-97124471D01*
X180241633Y-97062471D01*
X180217957Y-97027223D01*
X180197795Y-97003415D01*
X180194026Y-97000368D01*
X180173742Y-96996252D01*
X180130328Y-96992825D01*
X180069980Y-96990423D01*
X179998895Y-96989385D01*
X179992246Y-96989370D01*
X179806952Y-96989145D01*
X179780804Y-97029053D01*
X179755211Y-97090302D01*
X179748526Y-97159483D01*
X179589944Y-97159483D01*
X179591183Y-97143259D01*
X179614567Y-97066677D01*
X179631575Y-97035581D01*
X179669948Y-96977595D01*
X179246304Y-96993453D01*
X179246304Y-96783497D01*
X179829243Y-96787331D01*
G37*
G36*
X180276861Y-100704018D02*
G01*
X180336719Y-100751882D01*
X180381135Y-100814981D01*
X180403694Y-100862227D01*
X180417550Y-100907729D01*
X180425281Y-100962590D01*
X180428770Y-101020293D01*
X180427933Y-101124221D01*
X180416323Y-101208596D01*
X180412725Y-101222648D01*
X180394051Y-101280357D01*
X180371194Y-101338816D01*
X180347573Y-101390419D01*
X180326609Y-101427558D01*
X180314309Y-101441587D01*
X180294939Y-101439240D01*
X180261636Y-101423538D01*
X180243349Y-101412300D01*
X180186198Y-101374479D01*
X180232694Y-101275259D01*
X180257558Y-101217686D01*
X180271771Y-101169002D01*
X180278201Y-101115866D01*
X180279693Y-101056676D01*
X180275628Y-100976035D01*
X180261758Y-100920787D01*
X180236758Y-100888249D01*
X180199305Y-100875739D01*
X180190270Y-100875404D01*
X180162681Y-100882417D01*
X180138546Y-100905680D01*
X180116045Y-100948527D01*
X180093358Y-101014295D01*
X180072393Y-101091405D01*
X180040121Y-101201721D01*
X180004852Y-101285255D01*
X179964548Y-101344537D01*
X179917168Y-101382101D01*
X179860673Y-101400478D01*
X179821141Y-101403348D01*
X179751033Y-101389974D01*
X179691207Y-101352308D01*
X179643138Y-101294035D01*
X179608302Y-101218839D01*
X179588174Y-101130405D01*
X179584227Y-101032419D01*
X179597939Y-100928564D01*
X179611007Y-100878430D01*
X179630343Y-100822422D01*
X179651239Y-100773688D01*
X179669178Y-100742758D01*
X179669216Y-100742711D01*
X179696398Y-100709143D01*
X179750686Y-100750550D01*
X179786085Y-100782761D01*
X179796596Y-100807519D01*
X179794705Y-100815349D01*
X179758121Y-100913178D01*
X179736901Y-101002637D01*
X179730988Y-101080323D01*
X179740325Y-101142829D01*
X179764856Y-101186751D01*
X179801235Y-101207932D01*
X179831232Y-101208541D01*
X179856605Y-101191795D01*
X179879293Y-101154642D01*
X179901236Y-101094033D01*
X179921448Y-101018967D01*
X179939206Y-100951313D01*
X179958001Y-100887236D01*
X179974714Y-100837135D01*
X179980204Y-100823135D01*
X180023442Y-100751840D01*
X180079449Y-100704185D01*
X180143503Y-100680266D01*
X180210881Y-100680178D01*
X180276861Y-100704018D01*
G37*
G36*
X180419515Y-98814953D02*
G01*
X180418168Y-98861714D01*
X180412531Y-98886070D01*
X180400210Y-98894885D01*
X180391384Y-98895612D01*
X180348534Y-98899443D01*
X180331705Y-98913538D01*
X180338971Y-98941793D01*
X180355190Y-98968829D01*
X180402824Y-99061372D01*
X180427913Y-99157661D01*
X180429724Y-99251613D01*
X180407526Y-99337150D01*
X180401183Y-99350671D01*
X180352779Y-99420005D01*
X180290449Y-99463572D01*
X180213777Y-99481638D01*
X180195434Y-99482217D01*
X180176331Y-99479757D01*
X180125343Y-99473191D01*
X180065977Y-99444987D01*
X180016306Y-99395913D01*
X179975303Y-99324278D01*
X179941939Y-99228391D01*
X179915184Y-99106562D01*
X179898431Y-98993930D01*
X179891783Y-98952046D01*
X179882944Y-98932990D01*
X179867623Y-98930336D01*
X179857574Y-98932750D01*
X179826764Y-98949293D01*
X179791675Y-98978399D01*
X179785248Y-98984981D01*
X179754390Y-99038375D01*
X179742680Y-99108570D01*
X179750145Y-99190126D01*
X179776813Y-99277603D01*
X179783721Y-99293707D01*
X179802747Y-99338571D01*
X179814585Y-99371402D01*
X179816718Y-99384651D01*
X179791320Y-99401626D01*
X179757092Y-99421607D01*
X179723482Y-99439467D01*
X179699940Y-99450078D01*
X179694622Y-99450893D01*
X179685720Y-99435686D01*
X179668820Y-99403564D01*
X179660348Y-99386893D01*
X179614670Y-99272287D01*
X179589245Y-99153930D01*
X179585103Y-99039331D01*
X179600037Y-98946988D01*
X179610598Y-98924942D01*
X180019315Y-98924942D01*
X180028389Y-99016599D01*
X180044470Y-99124399D01*
X180068904Y-99204792D01*
X180102140Y-99258615D01*
X180144631Y-99286706D01*
X180176331Y-99291570D01*
X180227918Y-99279929D01*
X180261893Y-99246343D01*
X180277574Y-99192818D01*
X180274281Y-99121359D01*
X180257522Y-99052613D01*
X180239543Y-99011344D01*
X180214190Y-98968922D01*
X180213741Y-98968289D01*
X180192681Y-98943057D01*
X180169166Y-98930095D01*
X180132852Y-98925422D01*
X180101095Y-98924942D01*
X180019315Y-98924942D01*
X179610598Y-98924942D01*
X179628374Y-98887835D01*
X179675981Y-98829595D01*
X179733920Y-98781208D01*
X179793250Y-98751613D01*
X179796295Y-98750730D01*
X179831064Y-98745249D01*
X179889893Y-98740623D01*
X179967517Y-98737107D01*
X180058671Y-98734951D01*
X180137211Y-98734377D01*
X180419515Y-98734295D01*
X180419515Y-98814953D01*
G37*
G36*
X180262150Y-87976961D02*
G01*
X180327429Y-88018763D01*
X180379026Y-88082514D01*
X180397724Y-88120596D01*
X180415215Y-88184258D01*
X180425856Y-88265716D01*
X180429235Y-88354149D01*
X180424939Y-88438737D01*
X180412556Y-88508661D01*
X180412510Y-88508822D01*
X180397252Y-88554938D01*
X180376638Y-88606999D01*
X180353990Y-88657823D01*
X180332629Y-88700226D01*
X180315880Y-88727027D01*
X180308965Y-88732679D01*
X180293421Y-88725278D01*
X180262388Y-88706501D01*
X180243739Y-88694411D01*
X180185913Y-88656144D01*
X180216960Y-88595422D01*
X180257114Y-88497956D01*
X180280272Y-88399377D01*
X180285531Y-88306712D01*
X180271989Y-88226985D01*
X180266279Y-88211596D01*
X180243152Y-88173637D01*
X180210548Y-88158734D01*
X180170846Y-88160339D01*
X180150391Y-88168703D01*
X180132256Y-88190142D01*
X180114438Y-88228803D01*
X180094937Y-88288832D01*
X180076679Y-88355402D01*
X180051387Y-88446480D01*
X180028539Y-88514544D01*
X180005483Y-88565465D01*
X179979566Y-88605114D01*
X179948591Y-88638926D01*
X179916410Y-88665003D01*
X179882836Y-88677648D01*
X179835006Y-88681303D01*
X179825689Y-88681351D01*
X179755155Y-88673061D01*
X179700130Y-88645594D01*
X179654721Y-88595054D01*
X179629400Y-88551568D01*
X179603036Y-88478265D01*
X179588036Y-88389411D01*
X179585513Y-88296934D01*
X179596583Y-88212764D01*
X179597432Y-88209307D01*
X179615775Y-88146870D01*
X179637528Y-88088316D01*
X179659802Y-88040038D01*
X179679711Y-88008425D01*
X179692284Y-87999422D01*
X179713365Y-88008211D01*
X179745552Y-88030211D01*
X179757401Y-88039751D01*
X179805439Y-88080080D01*
X179772975Y-88153170D01*
X179753604Y-88210528D01*
X179738842Y-88279304D01*
X179733617Y-88322615D01*
X179730987Y-88376800D01*
X179734128Y-88411905D01*
X179745189Y-88437957D01*
X179763428Y-88461643D01*
X179789893Y-88488743D01*
X179810941Y-88495879D01*
X179837941Y-88487088D01*
X179852779Y-88479233D01*
X179864955Y-88468098D01*
X179876093Y-88449486D01*
X179887818Y-88419201D01*
X179901754Y-88373047D01*
X179919525Y-88306828D01*
X179942756Y-88216347D01*
X179942778Y-88216262D01*
X179976685Y-88114314D01*
X180019686Y-88037568D01*
X180070941Y-87987266D01*
X180109273Y-87969041D01*
X180187871Y-87959567D01*
X180262150Y-87976961D01*
G37*
G36*
X178432221Y-87696693D02*
G01*
X178443188Y-87711212D01*
X178465667Y-87749324D01*
X178498218Y-87808307D01*
X178539397Y-87885440D01*
X178587765Y-87978001D01*
X178641878Y-88083269D01*
X178700296Y-88198523D01*
X178740248Y-88278213D01*
X179026327Y-88851312D01*
X179026327Y-89550955D01*
X178899339Y-89544750D01*
X178824042Y-89543179D01*
X178726026Y-89544280D01*
X178611747Y-89547722D01*
X178487662Y-89553171D01*
X178360228Y-89560294D01*
X178235902Y-89568759D01*
X178121140Y-89578232D01*
X178022398Y-89588381D01*
X177999769Y-89591137D01*
X177594877Y-89657049D01*
X177198520Y-89750580D01*
X176811917Y-89870996D01*
X176436289Y-90017561D01*
X176072853Y-90189539D01*
X175722831Y-90386195D01*
X175387441Y-90606793D01*
X175067902Y-90850599D01*
X174765435Y-91116876D01*
X174481259Y-91404889D01*
X174216593Y-91713903D01*
X174000529Y-92003002D01*
X173783070Y-92339046D01*
X173591302Y-92688537D01*
X173425665Y-93049999D01*
X173286602Y-93421955D01*
X173174553Y-93802928D01*
X173089960Y-94191443D01*
X173033263Y-94586023D01*
X173004904Y-94985192D01*
X173003746Y-95339318D01*
X173028352Y-95742834D01*
X173079139Y-96134119D01*
X173156576Y-96515055D01*
X173261131Y-96887523D01*
X173393274Y-97253405D01*
X173553473Y-97614582D01*
X173588335Y-97685251D01*
X173757338Y-98000126D01*
X173938542Y-98293443D01*
X174136007Y-98570825D01*
X174353790Y-98837893D01*
X174595952Y-99100267D01*
X174648276Y-99153285D01*
X174948833Y-99434172D01*
X175265921Y-99690919D01*
X175598945Y-99923159D01*
X175947311Y-100130526D01*
X176310423Y-100312651D01*
X176687686Y-100469170D01*
X176906679Y-100546079D01*
X177252612Y-100649106D01*
X177594629Y-100728568D01*
X177939050Y-100785486D01*
X178292195Y-100820884D01*
X178660385Y-100835783D01*
X178699959Y-100836198D01*
X179026188Y-100838741D01*
X179024557Y-101176039D01*
X179023783Y-101274109D01*
X179022512Y-101363551D01*
X179020855Y-101439784D01*
X179018921Y-101498225D01*
X179016821Y-101534292D01*
X179015705Y-101542667D01*
X178995642Y-101614467D01*
X178965942Y-101707870D01*
X178928604Y-101817555D01*
X178885626Y-101938199D01*
X178839005Y-102064481D01*
X178790741Y-102191081D01*
X178742830Y-102312676D01*
X178697272Y-102423945D01*
X178656063Y-102519567D01*
X178621203Y-102594221D01*
X178619867Y-102596899D01*
X178569317Y-102697896D01*
X178456858Y-102688551D01*
X178404570Y-102684257D01*
X178330473Y-102678243D01*
X178241995Y-102671108D01*
X178146566Y-102663452D01*
X178073094Y-102657584D01*
X177943805Y-102647145D01*
X177840721Y-102638461D01*
X177760793Y-102631197D01*
X177700969Y-102625016D01*
X177658201Y-102619585D01*
X177629437Y-102614566D01*
X177611629Y-102609626D01*
X177604011Y-102606013D01*
X177597119Y-102599884D01*
X177590840Y-102588788D01*
X177584802Y-102570086D01*
X177578634Y-102541138D01*
X177571964Y-102499306D01*
X177564419Y-102441949D01*
X177555627Y-102366429D01*
X177545217Y-102270105D01*
X177532817Y-102150339D01*
X177518054Y-102004491D01*
X177515119Y-101975288D01*
X177503262Y-101859975D01*
X177491829Y-101753975D01*
X177481245Y-101660826D01*
X177471931Y-101584066D01*
X177464311Y-101527232D01*
X177458809Y-101493863D01*
X177456646Y-101486509D01*
X177440131Y-101480065D01*
X177400028Y-101468503D01*
X177341389Y-101453037D01*
X177269265Y-101434877D01*
X177188709Y-101415237D01*
X177104772Y-101395330D01*
X177022506Y-101376366D01*
X176946962Y-101359560D01*
X176883191Y-101346122D01*
X176836246Y-101337266D01*
X176831708Y-101336525D01*
X176775230Y-101327542D01*
X176720482Y-101420439D01*
X176692395Y-101466745D01*
X176653218Y-101529435D01*
X176605426Y-101604719D01*
X176551495Y-101688804D01*
X176493898Y-101777899D01*
X176435112Y-101868212D01*
X176377611Y-101955952D01*
X176323871Y-102037327D01*
X176276366Y-102108545D01*
X176237571Y-102165815D01*
X176209961Y-102205345D01*
X176197170Y-102222128D01*
X176164453Y-102247375D01*
X176131637Y-102248323D01*
X176107524Y-102240163D01*
X176061328Y-102222678D01*
X175997173Y-102197557D01*
X175919186Y-102166488D01*
X175831491Y-102131161D01*
X175738215Y-102093263D01*
X175643482Y-102054484D01*
X175551418Y-102016511D01*
X175466149Y-101981033D01*
X175391800Y-101949740D01*
X175332497Y-101924318D01*
X175292366Y-101906457D01*
X175275721Y-101898004D01*
X175262018Y-101873703D01*
X175257390Y-101843380D01*
X175260596Y-101819832D01*
X175269702Y-101771356D01*
X175283938Y-101701587D01*
X175302534Y-101614158D01*
X175324721Y-101512704D01*
X175349729Y-101400859D01*
X175369593Y-101313564D01*
X175396152Y-101197157D01*
X175420552Y-101089173D01*
X175442022Y-100993109D01*
X175459787Y-100912463D01*
X175473077Y-100850735D01*
X175481120Y-100811421D01*
X175483248Y-100798677D01*
X175472838Y-100782048D01*
X175439948Y-100752683D01*
X175383876Y-100710048D01*
X175303918Y-100653608D01*
X175200407Y-100583520D01*
X174916116Y-100393761D01*
X174679795Y-100571316D01*
X174589048Y-100639968D01*
X174489048Y-100716404D01*
X174388691Y-100793775D01*
X174296869Y-100865235D01*
X174243207Y-100907460D01*
X174175926Y-100959414D01*
X174114702Y-101004224D01*
X174063910Y-101038879D01*
X174027929Y-101060366D01*
X174012755Y-101066050D01*
X173992138Y-101056385D01*
X173952526Y-101028689D01*
X173896397Y-100984912D01*
X173826228Y-100927004D01*
X173744498Y-100856915D01*
X173721741Y-100837009D01*
X173608656Y-100737459D01*
X173515957Y-100655191D01*
X173441780Y-100588378D01*
X173384259Y-100535194D01*
X173341529Y-100493813D01*
X173311726Y-100462408D01*
X173292985Y-100439153D01*
X173283439Y-100422220D01*
X173281225Y-100409785D01*
X173281827Y-100406196D01*
X173291067Y-100388052D01*
X173314302Y-100348135D01*
X173349727Y-100289385D01*
X173395538Y-100214740D01*
X173449932Y-100127139D01*
X173511105Y-100029522D01*
X173577252Y-99924827D01*
X173578162Y-99923394D01*
X173867518Y-99467276D01*
X173804381Y-99383089D01*
X173779266Y-99350250D01*
X173741404Y-99301540D01*
X173694611Y-99241787D01*
X173642701Y-99175821D01*
X173589490Y-99108469D01*
X173538792Y-99044560D01*
X173494424Y-98988921D01*
X173460199Y-98946382D01*
X173439934Y-98921770D01*
X173439093Y-98920793D01*
X173423444Y-98922767D01*
X173383191Y-98933379D01*
X173321442Y-98951660D01*
X173241303Y-98976637D01*
X173145884Y-99007342D01*
X173038291Y-99042804D01*
X172921633Y-99082051D01*
X172909754Y-99086091D01*
X172791419Y-99126010D01*
X172681031Y-99162564D01*
X172581848Y-99194728D01*
X172497126Y-99221473D01*
X172430122Y-99241773D01*
X172384093Y-99254601D01*
X172362296Y-99258930D01*
X172361764Y-99258888D01*
X172346629Y-99245330D01*
X172319932Y-99209533D01*
X172283791Y-99155201D01*
X172240325Y-99086039D01*
X172191653Y-99005751D01*
X172139896Y-98918042D01*
X172087172Y-98826615D01*
X172035601Y-98735175D01*
X171987301Y-98647427D01*
X171944393Y-98567075D01*
X171908995Y-98497823D01*
X171883226Y-98443376D01*
X171869206Y-98407437D01*
X171867583Y-98395086D01*
X171880279Y-98381885D01*
X171912925Y-98353069D01*
X171962410Y-98311147D01*
X172025623Y-98258628D01*
X172099456Y-98198023D01*
X172180797Y-98131841D01*
X172266536Y-98062592D01*
X172353564Y-97992786D01*
X172438769Y-97924933D01*
X172519043Y-97861541D01*
X172591274Y-97805122D01*
X172652354Y-97758185D01*
X172699171Y-97723239D01*
X172708361Y-97716613D01*
X172715318Y-97709134D01*
X172718340Y-97696790D01*
X172716533Y-97676260D01*
X172709001Y-97644224D01*
X172694852Y-97597361D01*
X172673191Y-97532348D01*
X172643124Y-97445867D01*
X172611024Y-97355067D01*
X172488987Y-97011143D01*
X171930567Y-97003810D01*
X171784583Y-97001745D01*
X171665245Y-96999666D01*
X171569869Y-96997437D01*
X171495774Y-96994922D01*
X171440275Y-96991986D01*
X171400688Y-96988492D01*
X171374331Y-96984305D01*
X171358520Y-96979288D01*
X171351560Y-96974480D01*
X171342181Y-96952277D01*
X171328884Y-96902071D01*
X171311873Y-96824899D01*
X171291351Y-96721798D01*
X171267521Y-96593805D01*
X171240587Y-96441956D01*
X171210751Y-96267287D01*
X171198398Y-96193357D01*
X171187837Y-96126278D01*
X171182828Y-96081951D01*
X171183280Y-96054349D01*
X171189099Y-96037443D01*
X171195878Y-96029174D01*
X171215893Y-96017986D01*
X171259037Y-95999264D01*
X171320650Y-95974850D01*
X171396069Y-95946586D01*
X171480633Y-95916312D01*
X171488452Y-95913580D01*
X171594988Y-95876266D01*
X171713198Y-95834586D01*
X171832178Y-95792402D01*
X171941019Y-95753578D01*
X171997946Y-95733134D01*
X172236136Y-95647286D01*
X172236255Y-95278438D01*
X172236374Y-94909589D01*
X172027396Y-94840458D01*
X171919150Y-94804185D01*
X171806615Y-94765645D01*
X171693604Y-94726222D01*
X171583930Y-94687299D01*
X171481406Y-94650259D01*
X171389846Y-94616484D01*
X171313063Y-94587359D01*
X171254871Y-94564266D01*
X171219083Y-94548589D01*
X171211732Y-94544601D01*
X171193849Y-94531195D01*
X171184400Y-94514676D01*
X171181890Y-94487348D01*
X171184822Y-94441513D01*
X171187056Y-94417598D01*
X171196467Y-94325687D01*
X171207801Y-94224750D01*
X171220487Y-94118957D01*
X171233954Y-94012477D01*
X171247635Y-93909480D01*
X171260957Y-93814136D01*
X171273352Y-93730616D01*
X171284250Y-93663089D01*
X171293080Y-93615726D01*
X171299272Y-93592696D01*
X171299954Y-93591579D01*
X171309604Y-93586465D01*
X171330870Y-93582280D01*
X171366180Y-93578945D01*
X171417965Y-93576379D01*
X171488655Y-93574500D01*
X171580679Y-93573229D01*
X171696468Y-93572484D01*
X171838451Y-93572185D01*
X171884828Y-93572170D01*
X172453593Y-93572170D01*
X172475780Y-93509844D01*
X172510537Y-93411671D01*
X172545936Y-93310733D01*
X172580675Y-93210838D01*
X172613454Y-93115795D01*
X172642969Y-93029413D01*
X172667921Y-92955501D01*
X172687006Y-92897868D01*
X172698924Y-92860323D01*
X172702387Y-92846682D01*
X172690039Y-92837232D01*
X172658365Y-92812799D01*
X172611225Y-92776364D01*
X172552476Y-92730911D01*
X172500346Y-92690549D01*
X172422252Y-92630187D01*
X172329160Y-92558422D01*
X172229380Y-92481651D01*
X172131226Y-92406270D01*
X172058081Y-92350209D01*
X171984602Y-92293244D01*
X171919158Y-92241147D01*
X171865346Y-92196893D01*
X171826766Y-92163460D01*
X171807018Y-92143825D01*
X171805346Y-92141184D01*
X171809088Y-92121239D01*
X171824927Y-92079463D01*
X171850886Y-92019758D01*
X171884985Y-91946023D01*
X171925248Y-91862162D01*
X171969697Y-91772074D01*
X172016352Y-91679662D01*
X172063236Y-91588827D01*
X172108372Y-91503469D01*
X172149781Y-91427490D01*
X172185484Y-91364792D01*
X172213505Y-91319275D01*
X172231865Y-91294841D01*
X172235964Y-91291873D01*
X172259049Y-91293177D01*
X172306885Y-91302628D01*
X172376318Y-91319343D01*
X172464195Y-91342437D01*
X172567361Y-91371024D01*
X172682664Y-91404221D01*
X172806948Y-91441142D01*
X172937061Y-91480903D01*
X173069848Y-91522620D01*
X173147487Y-91547570D01*
X173223178Y-91571903D01*
X173288170Y-91592406D01*
X173337769Y-91607629D01*
X173367281Y-91616125D01*
X173373474Y-91617344D01*
X173384882Y-91601116D01*
X173410997Y-91566217D01*
X173448425Y-91517060D01*
X173493775Y-91458053D01*
X173543655Y-91393609D01*
X173594672Y-91328137D01*
X173643434Y-91266047D01*
X173652098Y-91255080D01*
X173700172Y-91194003D01*
X173742039Y-91140267D01*
X173774156Y-91098461D01*
X173792980Y-91073176D01*
X173796001Y-91068703D01*
X173791699Y-91049959D01*
X173770895Y-91008276D01*
X173734159Y-90944566D01*
X173682060Y-90859740D01*
X173615169Y-90754709D01*
X173534056Y-90630383D01*
X173439291Y-90487675D01*
X173341264Y-90342001D01*
X173290695Y-90266303D01*
X173246318Y-90198036D01*
X173210623Y-90141186D01*
X173186104Y-90099740D01*
X173175253Y-90077684D01*
X173174942Y-90075987D01*
X173175425Y-90068193D01*
X173178263Y-90059546D01*
X173185544Y-90047846D01*
X173199351Y-90030894D01*
X173221771Y-90006489D01*
X173254890Y-89972433D01*
X173300792Y-89926525D01*
X173361563Y-89866566D01*
X173439290Y-89790356D01*
X173528632Y-89702957D01*
X173625653Y-89609108D01*
X173707713Y-89531875D01*
X173773658Y-89472288D01*
X173822330Y-89431377D01*
X173852574Y-89410172D01*
X173860677Y-89407274D01*
X173878630Y-89415771D01*
X173917356Y-89440015D01*
X173974178Y-89478140D01*
X174046417Y-89528279D01*
X174131395Y-89588565D01*
X174226433Y-89657131D01*
X174328853Y-89732111D01*
X174364737Y-89758626D01*
X174482843Y-89846063D01*
X174579692Y-89917519D01*
X174657595Y-89974473D01*
X174718864Y-90018404D01*
X174765809Y-90050789D01*
X174800743Y-90073107D01*
X174825976Y-90086835D01*
X174843820Y-90093452D01*
X174856586Y-90094436D01*
X174866586Y-90091266D01*
X174875937Y-90085547D01*
X174899372Y-90070255D01*
X174943056Y-90041987D01*
X175002554Y-90003605D01*
X175073428Y-89957970D01*
X175151241Y-89907944D01*
X175162066Y-89900990D01*
X175238408Y-89851820D01*
X175306417Y-89807758D01*
X175362188Y-89771353D01*
X175401818Y-89745158D01*
X175421401Y-89731723D01*
X175422546Y-89730813D01*
X175421686Y-89714793D01*
X175414417Y-89673481D01*
X175401432Y-89610040D01*
X175383426Y-89527635D01*
X175361091Y-89429429D01*
X175335123Y-89318586D01*
X175306215Y-89198271D01*
X175301535Y-89179058D01*
X175271688Y-89056706D01*
X175243887Y-88942678D01*
X175218934Y-88840266D01*
X175197631Y-88752762D01*
X175180779Y-88683458D01*
X175169178Y-88635647D01*
X175163632Y-88612620D01*
X175163402Y-88611638D01*
X175167792Y-88581432D01*
X175181757Y-88558221D01*
X175200861Y-88545098D01*
X175243043Y-88521481D01*
X175304755Y-88489180D01*
X175382451Y-88450006D01*
X175472584Y-88405766D01*
X175571605Y-88358271D01*
X175600783Y-88344473D01*
X175724069Y-88286862D01*
X175823177Y-88241720D01*
X175900078Y-88208233D01*
X175956745Y-88185587D01*
X175995150Y-88172969D01*
X176017264Y-88169563D01*
X176021950Y-88170580D01*
X176035820Y-88185037D01*
X176064181Y-88221127D01*
X176105109Y-88276179D01*
X176156679Y-88347522D01*
X176216965Y-88432483D01*
X176284042Y-88528390D01*
X176355986Y-88632573D01*
X176377872Y-88664518D01*
X176450178Y-88770178D01*
X176517316Y-88868146D01*
X176577485Y-88955806D01*
X176628884Y-89030541D01*
X176669714Y-89089736D01*
X176698175Y-89130773D01*
X176712467Y-89151037D01*
X176713750Y-89152703D01*
X176729169Y-89151129D01*
X176769028Y-89143269D01*
X176829330Y-89130022D01*
X176906077Y-89112281D01*
X176995272Y-89090944D01*
X177059146Y-89075294D01*
X177398139Y-88991481D01*
X177404664Y-88946404D01*
X177407744Y-88920184D01*
X177413128Y-88869056D01*
X177420387Y-88797314D01*
X177429091Y-88709252D01*
X177438814Y-88609165D01*
X177449124Y-88501347D01*
X177449438Y-88498037D01*
X177464952Y-88335635D01*
X177478198Y-88200018D01*
X177489482Y-88088752D01*
X177499113Y-87999404D01*
X177507396Y-87929542D01*
X177514639Y-87876731D01*
X177521148Y-87838540D01*
X177527230Y-87812536D01*
X177533193Y-87796285D01*
X177539035Y-87787655D01*
X177565338Y-87773163D01*
X177605865Y-87761719D01*
X177613825Y-87760358D01*
X177658184Y-87754688D01*
X177722328Y-87747899D01*
X177801621Y-87740352D01*
X177891423Y-87732407D01*
X177987097Y-87724426D01*
X178084006Y-87716769D01*
X178177512Y-87709796D01*
X178262977Y-87703870D01*
X178335763Y-87699349D01*
X178391233Y-87696596D01*
X178424750Y-87695971D01*
X178432221Y-87696693D01*
G37*
G36*
X179025679Y-95232996D02*
G01*
X179025708Y-95556667D01*
X179025680Y-95872571D01*
X179025595Y-96179456D01*
X179025458Y-96476074D01*
X179025270Y-96761175D01*
X179025033Y-97033509D01*
X179024750Y-97291825D01*
X179024423Y-97534874D01*
X179024054Y-97761406D01*
X179023646Y-97970171D01*
X179023200Y-98159919D01*
X179022720Y-98329400D01*
X179022207Y-98477365D01*
X179021663Y-98602563D01*
X179021092Y-98703745D01*
X179020495Y-98779661D01*
X179019874Y-98829060D01*
X179019233Y-98850693D01*
X179019068Y-98851616D01*
X179009618Y-98838952D01*
X178989630Y-98803478D01*
X178960954Y-98748967D01*
X178925442Y-98679195D01*
X178884942Y-98597937D01*
X178841304Y-98508967D01*
X178796380Y-98416060D01*
X178752019Y-98322992D01*
X178710072Y-98233538D01*
X178672388Y-98151471D01*
X178640817Y-98080567D01*
X178638123Y-98074364D01*
X178587379Y-97952403D01*
X178537556Y-97823775D01*
X178490708Y-97694471D01*
X178448890Y-97570481D01*
X178414157Y-97457795D01*
X178388564Y-97362404D01*
X178379056Y-97319110D01*
X178370085Y-97252040D01*
X178363960Y-97161679D01*
X178360630Y-97053922D01*
X178360045Y-96934665D01*
X178362152Y-96809804D01*
X178366902Y-96685235D01*
X178374243Y-96566852D01*
X178384125Y-96460552D01*
X178386656Y-96439203D01*
X178396180Y-96365933D01*
X178409223Y-96270585D01*
X178424803Y-96160065D01*
X178441938Y-96041278D01*
X178459649Y-95921130D01*
X178471052Y-95845265D01*
X178491372Y-95707425D01*
X178507015Y-95591118D01*
X178518700Y-95489044D01*
X178527144Y-95393908D01*
X178533064Y-95298411D01*
X178537180Y-95195255D01*
X178538125Y-95163337D01*
X178539877Y-94959671D01*
X178534852Y-94739406D01*
X178523607Y-94514341D01*
X178506699Y-94296276D01*
X178489712Y-94136778D01*
X178478782Y-94044229D01*
X178466974Y-93939629D01*
X178456069Y-93838951D01*
X178450893Y-93788965D01*
X178443218Y-93715834D01*
X178436717Y-93666762D01*
X178429827Y-93636607D01*
X178420985Y-93620226D01*
X178408628Y-93612477D01*
X178396293Y-93609273D01*
X178322057Y-93597568D01*
X178223761Y-93588039D01*
X178106601Y-93580752D01*
X177975771Y-93575775D01*
X177836465Y-93573176D01*
X177693880Y-93573021D01*
X177553208Y-93575379D01*
X177419647Y-93580316D01*
X177298389Y-93587899D01*
X177229849Y-93594151D01*
X176858281Y-93646168D01*
X176481683Y-93723711D01*
X176106238Y-93825204D01*
X175738129Y-93949070D01*
X175550692Y-94022198D01*
X175450432Y-94063619D01*
X175374293Y-94096164D01*
X175319056Y-94121583D01*
X175281505Y-94141628D01*
X175258424Y-94158050D01*
X175246595Y-94172602D01*
X175242802Y-94187034D01*
X175242725Y-94189870D01*
X175232797Y-94217879D01*
X175207642Y-94253969D01*
X175192072Y-94271022D01*
X175162056Y-94303583D01*
X175150624Y-94326409D01*
X175154074Y-94348831D01*
X175157763Y-94357546D01*
X175167486Y-94374917D01*
X175181619Y-94385510D01*
X175206730Y-94390963D01*
X175249386Y-94392915D01*
X175300073Y-94393059D01*
X175367625Y-94391101D01*
X175432587Y-94386241D01*
X175482847Y-94379445D01*
X175490301Y-94377885D01*
X175530208Y-94370278D01*
X175556395Y-94368262D01*
X175560971Y-94369477D01*
X175553443Y-94379885D01*
X175527123Y-94399273D01*
X175506854Y-94411978D01*
X175446329Y-94448070D01*
X175493011Y-94457407D01*
X175618496Y-94468899D01*
X175753995Y-94456858D01*
X175894136Y-94422724D01*
X176033546Y-94367933D01*
X176166854Y-94293923D01*
X176207806Y-94266088D01*
X176254287Y-94233401D01*
X176280173Y-94217011D01*
X176288435Y-94215752D01*
X176282043Y-94228458D01*
X176273953Y-94240145D01*
X176244917Y-94274851D01*
X176199735Y-94322044D01*
X176144848Y-94375495D01*
X176086694Y-94428977D01*
X176031712Y-94476262D01*
X176019976Y-94485778D01*
X175968648Y-94526811D01*
X176027309Y-94517493D01*
X176079991Y-94504770D01*
X176151589Y-94481406D01*
X176234925Y-94450156D01*
X176322822Y-94413776D01*
X176408102Y-94375019D01*
X176442451Y-94358172D01*
X176548835Y-94304598D01*
X176509799Y-94382004D01*
X176427061Y-94514394D01*
X176322996Y-94628465D01*
X176200801Y-94721989D01*
X176063672Y-94792738D01*
X175914806Y-94838483D01*
X175836662Y-94851318D01*
X175810335Y-94855001D01*
X175807068Y-94859368D01*
X175828830Y-94867534D01*
X175851327Y-94874511D01*
X175893035Y-94883749D01*
X175953262Y-94892733D01*
X176021229Y-94899945D01*
X176045158Y-94901791D01*
X176102997Y-94906951D01*
X176146863Y-94913167D01*
X176170749Y-94919462D01*
X176173192Y-94922606D01*
X176151526Y-94936048D01*
X176107673Y-94949131D01*
X176048765Y-94960756D01*
X175981935Y-94969828D01*
X175914316Y-94975250D01*
X175853042Y-94975926D01*
X175833749Y-94974783D01*
X175748707Y-94962124D01*
X175653712Y-94939281D01*
X175560049Y-94909601D01*
X175479003Y-94876434D01*
X175448036Y-94860339D01*
X175423363Y-94846826D01*
X175415346Y-94844587D01*
X175425521Y-94855068D01*
X175455426Y-94879714D01*
X175506594Y-94919970D01*
X175533970Y-94941241D01*
X175576095Y-94975094D01*
X175606474Y-95001813D01*
X175619957Y-95016792D01*
X175620021Y-95018238D01*
X175602545Y-95017859D01*
X175564964Y-95007935D01*
X175513953Y-94990877D01*
X175456189Y-94969099D01*
X175398349Y-94945013D01*
X175347109Y-94921031D01*
X175338048Y-94916358D01*
X175287079Y-94884249D01*
X175225707Y-94837690D01*
X175163231Y-94783960D01*
X175136403Y-94758567D01*
X175090640Y-94714461D01*
X175053686Y-94680329D01*
X175029740Y-94659948D01*
X175022748Y-94656242D01*
X175031159Y-94676418D01*
X175053222Y-94712662D01*
X175084176Y-94758208D01*
X175119263Y-94806292D01*
X175153724Y-94850148D01*
X175180870Y-94881033D01*
X175212321Y-94915477D01*
X175221610Y-94931961D01*
X175207845Y-94931334D01*
X175170132Y-94914443D01*
X175154150Y-94906399D01*
X175117760Y-94890360D01*
X175100427Y-94891081D01*
X175101107Y-94911005D01*
X175118758Y-94952580D01*
X175127190Y-94969608D01*
X175216240Y-95114328D01*
X175327488Y-95240949D01*
X175458370Y-95347090D01*
X175606318Y-95430369D01*
X175638683Y-95444468D01*
X175680783Y-95462776D01*
X175697796Y-95473089D01*
X175692163Y-95477536D01*
X175677463Y-95478289D01*
X175622975Y-95472546D01*
X175551231Y-95456293D01*
X175471245Y-95432057D01*
X175392034Y-95402370D01*
X175364937Y-95390605D01*
X175272808Y-95348832D01*
X175296872Y-95385558D01*
X175326861Y-95420996D01*
X175376513Y-95468109D01*
X175440805Y-95522732D01*
X175514715Y-95580699D01*
X175593222Y-95637844D01*
X175637044Y-95667750D01*
X175760695Y-95749942D01*
X175652027Y-95754555D01*
X175582013Y-95754441D01*
X175508540Y-95749526D01*
X175455369Y-95742194D01*
X175343244Y-95710191D01*
X175230257Y-95659377D01*
X175123841Y-95594335D01*
X175031428Y-95519647D01*
X174960452Y-95439895D01*
X174956929Y-95434893D01*
X174932095Y-95402912D01*
X174914222Y-95387032D01*
X174908747Y-95388019D01*
X174911586Y-95408963D01*
X174924125Y-95449287D01*
X174943526Y-95501860D01*
X174966946Y-95559549D01*
X174991546Y-95615221D01*
X175014484Y-95661745D01*
X175025361Y-95680845D01*
X175045733Y-95718277D01*
X175047525Y-95733855D01*
X175031522Y-95727750D01*
X174998508Y-95700137D01*
X174965153Y-95667551D01*
X174881064Y-95562245D01*
X174813585Y-95435326D01*
X174764433Y-95290452D01*
X174763664Y-95286850D01*
X174744810Y-95198527D01*
X174718800Y-95046016D01*
X174707927Y-95157615D01*
X174699443Y-95229454D01*
X174690543Y-95272599D01*
X174680800Y-95287684D01*
X174669789Y-95275345D01*
X174657083Y-95236217D01*
X174656562Y-95234215D01*
X174632514Y-95088120D01*
X174631973Y-94934575D01*
X174654155Y-94782111D01*
X174698279Y-94639261D01*
X174714468Y-94602129D01*
X174738903Y-94544702D01*
X174754163Y-94498051D01*
X174759216Y-94466764D01*
X174753030Y-94455433D01*
X174746962Y-94457648D01*
X174729516Y-94478865D01*
X174706165Y-94521354D01*
X174679856Y-94578425D01*
X174653536Y-94643386D01*
X174630151Y-94709548D01*
X174617461Y-94751693D01*
X174601124Y-94807399D01*
X174590190Y-94835344D01*
X174584205Y-94836505D01*
X174582855Y-94826039D01*
X174577641Y-94773473D01*
X174567856Y-94749717D01*
X174552580Y-94754477D01*
X174530893Y-94787459D01*
X174521232Y-94806405D01*
X174469685Y-94940454D01*
X174439575Y-95083751D01*
X174431752Y-95228478D01*
X174447066Y-95366816D01*
X174456135Y-95405292D01*
X174467062Y-95449762D01*
X174472898Y-95481053D01*
X174472900Y-95490764D01*
X174463575Y-95482895D01*
X174447259Y-95453450D01*
X174426539Y-95408576D01*
X174404002Y-95354420D01*
X174382232Y-95297128D01*
X174363818Y-95242847D01*
X174353644Y-95207332D01*
X174340145Y-95154940D01*
X174331532Y-95127947D01*
X174325537Y-95123306D01*
X174319895Y-95137973D01*
X174315442Y-95156004D01*
X174311053Y-95188656D01*
X174307231Y-95243983D01*
X174304292Y-95315332D01*
X174302555Y-95396049D01*
X174302254Y-95432400D01*
X174301339Y-95657468D01*
X174259495Y-95608382D01*
X174211481Y-95541803D01*
X174164610Y-95459402D01*
X174125656Y-95374144D01*
X174104566Y-95311918D01*
X174090283Y-95229317D01*
X174085165Y-95132015D01*
X174089199Y-95033166D01*
X174102374Y-94945929D01*
X174104904Y-94935557D01*
X174125628Y-94855369D01*
X174090202Y-94899364D01*
X174066417Y-94933441D01*
X174035404Y-94983981D01*
X174003087Y-95041231D01*
X173996609Y-95053348D01*
X173966641Y-95105954D01*
X173946939Y-95131132D01*
X173937556Y-95128949D01*
X173938540Y-95099471D01*
X173949944Y-95042764D01*
X173959404Y-95004855D01*
X173993741Y-94902240D01*
X174042575Y-94809417D01*
X174110874Y-94717827D01*
X174154072Y-94669612D01*
X174252829Y-94564457D01*
X174179503Y-94606116D01*
X174135879Y-94631506D01*
X174101191Y-94652771D01*
X174087492Y-94662005D01*
X174066555Y-94673244D01*
X174061909Y-94665215D01*
X174072662Y-94642419D01*
X174097919Y-94609357D01*
X174097941Y-94609332D01*
X174124637Y-94577139D01*
X174140718Y-94554297D01*
X174142840Y-94549132D01*
X174129604Y-94543889D01*
X174095608Y-94540145D01*
X174065848Y-94539038D01*
X174000233Y-94536152D01*
X173963488Y-94529792D01*
X173955698Y-94520192D01*
X173976945Y-94507585D01*
X174027310Y-94492205D01*
X174047517Y-94487225D01*
X174164838Y-94459411D01*
X174010854Y-94450151D01*
X173889798Y-94437827D01*
X173796272Y-94417025D01*
X173774464Y-94409486D01*
X173731668Y-94390181D01*
X173682080Y-94363355D01*
X173631549Y-94332826D01*
X173585922Y-94302409D01*
X173551047Y-94275923D01*
X173532772Y-94257182D01*
X173532124Y-94251324D01*
X173548374Y-94252327D01*
X173585005Y-94261409D01*
X173634798Y-94276719D01*
X173646733Y-94280715D01*
X173721781Y-94304951D01*
X173783075Y-94322250D01*
X173826509Y-94331616D01*
X173847974Y-94332050D01*
X173849538Y-94329983D01*
X173838025Y-94319185D01*
X173808587Y-94299361D01*
X173785497Y-94285348D01*
X173726591Y-94242259D01*
X173662693Y-94181827D01*
X173601973Y-94112922D01*
X173552600Y-94044413D01*
X173534741Y-94013118D01*
X173496215Y-93923261D01*
X173469313Y-93831855D01*
X173456571Y-93748669D01*
X173456413Y-93711445D01*
X173460912Y-93643978D01*
X173548607Y-93743727D01*
X173589137Y-93787944D01*
X173636745Y-93837001D01*
X173687033Y-93886730D01*
X173735603Y-93932967D01*
X173778060Y-93971544D01*
X173810005Y-93998296D01*
X173827041Y-94009057D01*
X173828404Y-94008816D01*
X173824126Y-93994790D01*
X173809233Y-93960331D01*
X173786299Y-93911202D01*
X173767604Y-93872716D01*
X173738490Y-93810282D01*
X173714105Y-93751786D01*
X173697945Y-93705913D01*
X173693875Y-93689492D01*
X173690740Y-93665715D01*
X173693878Y-93659843D01*
X173705788Y-93674073D01*
X173728968Y-93710599D01*
X173741680Y-93731489D01*
X173820186Y-93838041D01*
X173919294Y-93936592D01*
X174031965Y-94021661D01*
X174151162Y-94087768D01*
X174244029Y-94122612D01*
X174279225Y-94132818D01*
X174250100Y-94090803D01*
X174223512Y-94051028D01*
X174214464Y-94031346D01*
X174224764Y-94030805D01*
X174256223Y-94048457D01*
X174289907Y-94069904D01*
X174373734Y-94117850D01*
X174464352Y-94159383D01*
X174550048Y-94189428D01*
X174586345Y-94198348D01*
X174616247Y-94200205D01*
X174623724Y-94191411D01*
X174611904Y-94175711D01*
X174583914Y-94156853D01*
X174542883Y-94138582D01*
X174533852Y-94135480D01*
X174363582Y-94065785D01*
X174207565Y-93973876D01*
X174069182Y-93862284D01*
X173951817Y-93733539D01*
X173901142Y-93662087D01*
X173866285Y-93605028D01*
X173834399Y-93547295D01*
X173809035Y-93495906D01*
X173793743Y-93457877D01*
X173790877Y-93444139D01*
X173801011Y-93450604D01*
X173828685Y-93473395D01*
X173869812Y-93509030D01*
X173920299Y-93554027D01*
X173926455Y-93559585D01*
X173979080Y-93606084D01*
X174013821Y-93634377D01*
X174029692Y-93643744D01*
X174025706Y-93633467D01*
X174023204Y-93630012D01*
X173940334Y-93510876D01*
X173877260Y-93400984D01*
X173829969Y-93292457D01*
X173796408Y-93184997D01*
X173785275Y-93126107D01*
X173777761Y-93053374D01*
X173774055Y-92975350D01*
X173774349Y-92900590D01*
X173778831Y-92837648D01*
X173787691Y-92795078D01*
X173787751Y-92794919D01*
X173796543Y-92775063D01*
X173802581Y-92776118D01*
X173808607Y-92801330D01*
X173812511Y-92824249D01*
X173822723Y-92871257D01*
X173839647Y-92934004D01*
X173860672Y-93004233D01*
X173883189Y-93073690D01*
X173904590Y-93134118D01*
X173922265Y-93177263D01*
X173927076Y-93186732D01*
X173935675Y-93198361D01*
X173941267Y-93193997D01*
X173944573Y-93169894D01*
X173946316Y-93122305D01*
X173946879Y-93084076D01*
X173961800Y-92909125D01*
X174002847Y-92746973D01*
X174070492Y-92596198D01*
X174149076Y-92476162D01*
X174184413Y-92433702D01*
X174228188Y-92387206D01*
X174275904Y-92340674D01*
X174323067Y-92298107D01*
X174365179Y-92263503D01*
X174397746Y-92240864D01*
X174416272Y-92234189D01*
X174418601Y-92236348D01*
X174416928Y-92256639D01*
X174407999Y-92296032D01*
X174394596Y-92343158D01*
X174362504Y-92459385D01*
X174334223Y-92585179D01*
X174312015Y-92709079D01*
X174298144Y-92819625D01*
X174296536Y-92839590D01*
X174287730Y-92963568D01*
X174358270Y-92831582D01*
X174421359Y-92719116D01*
X174477943Y-92630680D01*
X174530636Y-92562426D01*
X174567641Y-92523614D01*
X174614078Y-92479619D01*
X174555385Y-92596940D01*
X174496797Y-92728246D01*
X174458087Y-92852163D01*
X174436552Y-92980023D01*
X174429492Y-93123155D01*
X174429484Y-93124884D01*
X174431732Y-93208447D01*
X174438472Y-93292422D01*
X174448763Y-93371098D01*
X174461664Y-93438763D01*
X174476235Y-93489704D01*
X174491535Y-93518210D01*
X174494700Y-93520779D01*
X174505155Y-93511919D01*
X174521410Y-93481911D01*
X174538871Y-93439990D01*
X174556573Y-93394846D01*
X174570562Y-93363161D01*
X174577423Y-93352194D01*
X174578962Y-93365009D01*
X174575834Y-93397002D01*
X174573949Y-93409672D01*
X174572039Y-93447840D01*
X174573877Y-93505997D01*
X174578669Y-93575582D01*
X174585619Y-93648035D01*
X174593934Y-93714794D01*
X174602819Y-93767297D01*
X174609461Y-93792387D01*
X174613835Y-93790473D01*
X174617675Y-93764048D01*
X174620476Y-93717932D01*
X174621536Y-93677299D01*
X174637078Y-93519965D01*
X174665097Y-93418481D01*
X174761909Y-93418481D01*
X174763664Y-93420631D01*
X174772382Y-93418618D01*
X174773441Y-93410854D01*
X174768075Y-93398783D01*
X174763664Y-93401077D01*
X174761909Y-93418481D01*
X174665097Y-93418481D01*
X174678110Y-93371349D01*
X174743286Y-93236129D01*
X174753188Y-93220207D01*
X174780634Y-93177837D01*
X174795389Y-93158248D01*
X174800452Y-93159438D01*
X174798823Y-93179407D01*
X174797166Y-93190877D01*
X174790489Y-93237576D01*
X174782654Y-93294365D01*
X174779805Y-93315531D01*
X174770024Y-93388856D01*
X174839284Y-93251738D01*
X174905783Y-93139861D01*
X174985121Y-93039050D01*
X175072755Y-92953712D01*
X175164146Y-92888250D01*
X175254750Y-92847069D01*
X175257390Y-92846260D01*
X175270486Y-92845358D01*
X175267620Y-92856710D01*
X175247134Y-92882826D01*
X175207368Y-92926212D01*
X175198038Y-92936045D01*
X175140997Y-92997993D01*
X175093433Y-93053608D01*
X175058612Y-93098786D01*
X175039799Y-93129429D01*
X175037413Y-93137827D01*
X175048599Y-93134682D01*
X175078115Y-93118597D01*
X175119892Y-93092915D01*
X175125803Y-93089113D01*
X175258434Y-93020381D01*
X175402747Y-92976239D01*
X175553732Y-92957157D01*
X175706377Y-92963610D01*
X175855671Y-92996070D01*
X175909988Y-93015130D01*
X175926029Y-93022252D01*
X175931764Y-93029126D01*
X175923935Y-93037572D01*
X175899286Y-93049408D01*
X175854561Y-93066453D01*
X175786502Y-93090528D01*
X175756004Y-93101147D01*
X175683661Y-93127659D01*
X175609617Y-93157128D01*
X175538595Y-93187387D01*
X175475313Y-93216268D01*
X175424491Y-93241602D01*
X175390852Y-93261222D01*
X175379113Y-93272960D01*
X175379629Y-93274009D01*
X175394842Y-93274274D01*
X175432466Y-93271871D01*
X175485749Y-93267277D01*
X175514674Y-93264457D01*
X175584965Y-93259833D01*
X175658075Y-93259132D01*
X175727115Y-93261950D01*
X175785197Y-93267881D01*
X175825432Y-93276523D01*
X175838826Y-93283476D01*
X175832026Y-93289388D01*
X175803365Y-93293004D01*
X175782792Y-93293533D01*
X175704182Y-93300965D01*
X175610778Y-93321379D01*
X175512490Y-93351954D01*
X175419233Y-93389868D01*
X175384969Y-93406766D01*
X175341047Y-93433356D01*
X175288343Y-93470573D01*
X175231897Y-93514167D01*
X175176752Y-93559886D01*
X175127945Y-93603480D01*
X175090519Y-93640697D01*
X175069514Y-93667288D01*
X175066743Y-93675146D01*
X175079275Y-93679369D01*
X175110479Y-93676008D01*
X175121737Y-93673632D01*
X175172623Y-93663259D01*
X175196240Y-93662754D01*
X175193221Y-93672940D01*
X175164201Y-93694643D01*
X175146606Y-93706006D01*
X175084235Y-93747403D01*
X175030393Y-93786831D01*
X174989802Y-93820510D01*
X174967182Y-93844663D01*
X174964087Y-93852040D01*
X174976263Y-93863286D01*
X174990861Y-93865473D01*
X175023137Y-93877771D01*
X175057055Y-93908761D01*
X175084191Y-93949587D01*
X175093163Y-93972993D01*
X175103406Y-94011021D01*
X175213394Y-93944506D01*
X175477807Y-93799163D01*
X175766988Y-93667673D01*
X176079678Y-93550364D01*
X176414619Y-93447567D01*
X176770553Y-93359611D01*
X177146219Y-93286826D01*
X177540360Y-93229541D01*
X177951716Y-93188087D01*
X178155949Y-93173846D01*
X178451448Y-93156137D01*
X178475749Y-93030522D01*
X178528822Y-92798958D01*
X178597205Y-92579263D01*
X178651987Y-92435623D01*
X178683338Y-92360330D01*
X178721873Y-92270385D01*
X178765238Y-92171033D01*
X178811082Y-92067518D01*
X178857052Y-91965083D01*
X178900796Y-91868971D01*
X178939962Y-91784427D01*
X178972197Y-91716694D01*
X178994078Y-91673037D01*
X179025031Y-91614376D01*
X179025679Y-95232996D01*
G37*
%TO.C,kibuzzard-66574FE6*%
G36*
X151294595Y-66234763D02*
G01*
X151418610Y-66240855D01*
X151541431Y-66259074D01*
X151661874Y-66289243D01*
X151778781Y-66331073D01*
X151891024Y-66384160D01*
X151997524Y-66447993D01*
X152097253Y-66521958D01*
X152189253Y-66605342D01*
X152272637Y-66697342D01*
X152346602Y-66797072D01*
X152410435Y-66903571D01*
X152463522Y-67015815D01*
X152505352Y-67132721D01*
X152535522Y-67253164D01*
X152553740Y-67375985D01*
X152559833Y-67500000D01*
X152553740Y-67624015D01*
X152535522Y-67746836D01*
X152505352Y-67867279D01*
X152463522Y-67984185D01*
X152410435Y-68096429D01*
X152346602Y-68202928D01*
X152272637Y-68302658D01*
X152189253Y-68394658D01*
X152097253Y-68478042D01*
X151997524Y-68552007D01*
X151891024Y-68615840D01*
X151778781Y-68668927D01*
X151661874Y-68710757D01*
X151541431Y-68740926D01*
X151418610Y-68759145D01*
X151294595Y-68765237D01*
X151294397Y-68765237D01*
X150751472Y-68765237D01*
X148539291Y-68765237D01*
X146358066Y-68765237D01*
X145705603Y-68765237D01*
X145705405Y-68765237D01*
X145705405Y-68765238D01*
X145581390Y-68759145D01*
X145458569Y-68740926D01*
X145338126Y-68710757D01*
X145221219Y-68668927D01*
X145108976Y-68615840D01*
X145002476Y-68552007D01*
X144902747Y-68478042D01*
X144810747Y-68394658D01*
X144727363Y-68302658D01*
X144653398Y-68202928D01*
X144626005Y-68157225D01*
X150294272Y-68157225D01*
X150458578Y-68229853D01*
X150586570Y-68259321D01*
X150751472Y-68269144D01*
X150918556Y-68256576D01*
X151054684Y-68218873D01*
X151159856Y-68156034D01*
X151260762Y-68019410D01*
X151294397Y-67835756D01*
X151284277Y-67724730D01*
X151253916Y-67634541D01*
X151150331Y-67501191D01*
X151012219Y-67415466D01*
X150868153Y-67357125D01*
X150776475Y-67321406D01*
X150693131Y-67277353D01*
X150632409Y-67220203D01*
X150608597Y-67145194D01*
X150634526Y-67051267D01*
X150712314Y-66994910D01*
X150841959Y-66976125D01*
X151009838Y-66999937D01*
X151141997Y-67057087D01*
X151227722Y-66830869D01*
X151057463Y-66761812D01*
X150947627Y-66738595D01*
X150820528Y-66730856D01*
X150674610Y-66743821D01*
X150551182Y-66782715D01*
X150450244Y-66847537D01*
X150349338Y-66986841D01*
X150315703Y-67171387D01*
X150353803Y-67346409D01*
X150450244Y-67464281D01*
X150580022Y-67542862D01*
X150718134Y-67597631D01*
X150818147Y-67639303D01*
X150908634Y-67689309D01*
X150975309Y-67752412D01*
X151001503Y-67833375D01*
X150990788Y-67903622D01*
X150951497Y-67965534D01*
X150874106Y-68008397D01*
X150751472Y-68023875D01*
X150632707Y-68015541D01*
X150533588Y-67990537D01*
X150379997Y-67919100D01*
X150294272Y-68157225D01*
X144626005Y-68157225D01*
X144589565Y-68096429D01*
X144536478Y-67984185D01*
X144494648Y-67867279D01*
X144464478Y-67746836D01*
X144446260Y-67624015D01*
X144440167Y-67500000D01*
X144440986Y-67483331D01*
X145705603Y-67483331D01*
X145705603Y-67771462D01*
X146358066Y-67771462D01*
X146358066Y-67733362D01*
X147913022Y-67733362D01*
X148286878Y-67733362D01*
X148286878Y-68147700D01*
X148539291Y-68147700D01*
X148539291Y-67733362D01*
X148913147Y-67733362D01*
X148913147Y-67492856D01*
X148539291Y-67492856D01*
X148539291Y-67078519D01*
X148286878Y-67078519D01*
X148286878Y-67492856D01*
X147913022Y-67492856D01*
X147913022Y-67733362D01*
X146358066Y-67733362D01*
X146358066Y-67483331D01*
X145705603Y-67483331D01*
X144440986Y-67483331D01*
X144446260Y-67375985D01*
X144464478Y-67253164D01*
X144494648Y-67132721D01*
X144536478Y-67015815D01*
X144589565Y-66903571D01*
X144653398Y-66797072D01*
X144727363Y-66697342D01*
X144810747Y-66605342D01*
X144902747Y-66521958D01*
X145002476Y-66447993D01*
X145108976Y-66384160D01*
X145221219Y-66331073D01*
X145338126Y-66289243D01*
X145458569Y-66259074D01*
X145581390Y-66240855D01*
X145705405Y-66234762D01*
X145705603Y-66234762D01*
X151294397Y-66234762D01*
X151294595Y-66234762D01*
X151294595Y-66234763D01*
G37*
%TO.C,kibuzzard-6642DA85*%
G36*
X102967728Y-100276131D02*
G01*
X103037975Y-100385669D01*
X103071313Y-100548784D01*
X103077563Y-100646118D01*
X103079647Y-100750000D01*
X103077563Y-100853584D01*
X103071313Y-100950025D01*
X103037975Y-101113141D01*
X102966537Y-101223869D01*
X102846284Y-101264350D01*
X102724841Y-101223869D01*
X102654594Y-101114331D01*
X102621256Y-100951216D01*
X102615005Y-100853882D01*
X102612922Y-100750000D01*
X102615005Y-100646416D01*
X102621256Y-100549975D01*
X102654594Y-100386859D01*
X102724841Y-100276131D01*
X102846284Y-100235650D01*
X102967728Y-100276131D01*
G37*
G36*
X105808948Y-99490855D02*
G01*
X105931768Y-99509074D01*
X106052212Y-99539243D01*
X106169118Y-99581073D01*
X106281362Y-99634160D01*
X106387861Y-99697993D01*
X106487591Y-99771958D01*
X106579591Y-99855342D01*
X106662975Y-99947342D01*
X106736939Y-100047072D01*
X106800773Y-100153571D01*
X106853860Y-100265815D01*
X106895690Y-100382721D01*
X106925859Y-100503164D01*
X106944078Y-100625985D01*
X106950170Y-100750000D01*
X106944078Y-100874015D01*
X106925859Y-100996836D01*
X106895690Y-101117279D01*
X106853860Y-101234185D01*
X106800773Y-101346429D01*
X106736939Y-101452928D01*
X106662975Y-101552658D01*
X106579591Y-101644658D01*
X106487591Y-101728042D01*
X106387861Y-101802007D01*
X106281362Y-101865840D01*
X106169118Y-101918927D01*
X106052212Y-101960757D01*
X105931768Y-101990926D01*
X105808948Y-102009145D01*
X105684933Y-102015237D01*
X105684734Y-102015237D01*
X104782241Y-102015237D01*
X103591616Y-102015237D01*
X102848666Y-102015237D01*
X102315266Y-102015237D01*
X102315067Y-102015237D01*
X102315067Y-102015238D01*
X102191052Y-102009145D01*
X102068232Y-101990926D01*
X101947788Y-101960757D01*
X101830882Y-101918927D01*
X101718638Y-101865840D01*
X101612139Y-101802007D01*
X101512409Y-101728042D01*
X101420409Y-101644658D01*
X101337025Y-101552658D01*
X101263061Y-101452928D01*
X101199227Y-101346429D01*
X101146140Y-101234185D01*
X101104310Y-101117279D01*
X101074141Y-100996836D01*
X101055922Y-100874015D01*
X101049830Y-100750000D01*
X102315266Y-100750000D01*
X102323823Y-100928817D01*
X102349496Y-101084268D01*
X102392284Y-101216353D01*
X102452188Y-101325072D01*
X102557095Y-101432890D01*
X102689254Y-101497580D01*
X102848666Y-101519144D01*
X103004241Y-101497580D01*
X103134416Y-101432890D01*
X103239191Y-101325072D01*
X103299615Y-101216353D01*
X103342775Y-101084268D01*
X103368671Y-100928817D01*
X103377303Y-100750000D01*
X103368820Y-100571183D01*
X103343370Y-100415732D01*
X103300954Y-100283647D01*
X103241572Y-100174928D01*
X103137326Y-100067110D01*
X103029546Y-100014194D01*
X103591616Y-100014194D01*
X103591616Y-101488187D01*
X103884509Y-101488187D01*
X103884509Y-100857156D01*
X104417909Y-100857156D01*
X104417909Y-100614269D01*
X103884509Y-100614269D01*
X103884509Y-100257081D01*
X104494109Y-100257081D01*
X104494109Y-100014194D01*
X104782241Y-100014194D01*
X104782241Y-101488187D01*
X105075134Y-101488187D01*
X105075134Y-100857156D01*
X105608534Y-100857156D01*
X105608534Y-100614269D01*
X105075134Y-100614269D01*
X105075134Y-100257081D01*
X105684734Y-100257081D01*
X105684734Y-100014194D01*
X104782241Y-100014194D01*
X104494109Y-100014194D01*
X103591616Y-100014194D01*
X103029546Y-100014194D01*
X103005564Y-100002420D01*
X102846284Y-99980856D01*
X102691768Y-100002420D01*
X102561593Y-100067110D01*
X102455759Y-100174928D01*
X102394293Y-100283647D01*
X102350389Y-100415732D01*
X102324046Y-100571183D01*
X102315266Y-100750000D01*
X101049830Y-100750000D01*
X101055922Y-100625985D01*
X101074141Y-100503164D01*
X101104310Y-100382721D01*
X101146140Y-100265815D01*
X101199227Y-100153571D01*
X101263061Y-100047072D01*
X101337025Y-99947342D01*
X101420409Y-99855342D01*
X101512409Y-99771958D01*
X101612139Y-99697993D01*
X101718638Y-99634160D01*
X101830882Y-99581073D01*
X101947788Y-99539243D01*
X102068232Y-99509074D01*
X102191052Y-99490855D01*
X102315067Y-99484762D01*
X102315266Y-99484762D01*
X105684734Y-99484762D01*
X105684933Y-99484762D01*
X105808948Y-99490855D01*
G37*
%TO.C,kibuzzard-6642DA55*%
G36*
X162539291Y-117541609D02*
G01*
X162636922Y-117652338D01*
X162686928Y-117811881D01*
X162701216Y-117997619D01*
X162696751Y-118102691D01*
X162683356Y-118198834D01*
X162623825Y-118357188D01*
X162514287Y-118461962D01*
X162346409Y-118500062D01*
X162320216Y-118500062D01*
X162294022Y-118497681D01*
X162294022Y-117507081D01*
X162336884Y-117501128D01*
X162379747Y-117499938D01*
X162539291Y-117541609D01*
G37*
G36*
X163372336Y-116755074D02*
G01*
X163493770Y-116773087D01*
X163612853Y-116802915D01*
X163728440Y-116844273D01*
X163839415Y-116896761D01*
X163944712Y-116959873D01*
X164043316Y-117033003D01*
X164134277Y-117115445D01*
X164216719Y-117206406D01*
X164289849Y-117305009D01*
X164352961Y-117410306D01*
X164405449Y-117521282D01*
X164446806Y-117636868D01*
X164476635Y-117755952D01*
X164494648Y-117877385D01*
X164500672Y-118000000D01*
X164494648Y-118122615D01*
X164476635Y-118244048D01*
X164446806Y-118363132D01*
X164405449Y-118478718D01*
X164352961Y-118589694D01*
X164289849Y-118694991D01*
X164216719Y-118793594D01*
X164134277Y-118884555D01*
X164043316Y-118966997D01*
X163944712Y-119040127D01*
X163839415Y-119103239D01*
X163728440Y-119155727D01*
X163612853Y-119197085D01*
X163493770Y-119226913D01*
X163372336Y-119244926D01*
X163249722Y-119250950D01*
X163249523Y-119250950D01*
X162315453Y-119250950D01*
X161750477Y-119250950D01*
X161750278Y-119250950D01*
X161627664Y-119244926D01*
X161506230Y-119226913D01*
X161387147Y-119197085D01*
X161271560Y-119155727D01*
X161160585Y-119103239D01*
X161055288Y-119040127D01*
X160956684Y-118966997D01*
X160865723Y-118884555D01*
X160783281Y-118793594D01*
X160728060Y-118719138D01*
X162001128Y-118719138D01*
X162161862Y-118746522D01*
X162315453Y-118754856D01*
X162459221Y-118744438D01*
X162590487Y-118713184D01*
X162706871Y-118659309D01*
X162805991Y-118581025D01*
X162886655Y-118477143D01*
X162947675Y-118346472D01*
X162986073Y-118187226D01*
X162998872Y-117997619D01*
X162987263Y-117812179D01*
X162952437Y-117655909D01*
X162896776Y-117526727D01*
X162822659Y-117422547D01*
X162730088Y-117343073D01*
X162619062Y-117288006D01*
X162492559Y-117255859D01*
X162353553Y-117245144D01*
X162189247Y-117252288D01*
X162001128Y-117280863D01*
X162001128Y-118719138D01*
X160728060Y-118719138D01*
X160710151Y-118694991D01*
X160647039Y-118589694D01*
X160594551Y-118478718D01*
X160553194Y-118363132D01*
X160523365Y-118244048D01*
X160505352Y-118122615D01*
X160499328Y-118000000D01*
X160505352Y-117877385D01*
X160523365Y-117755952D01*
X160553194Y-117636868D01*
X160594551Y-117521282D01*
X160647039Y-117410306D01*
X160710151Y-117305009D01*
X160783281Y-117206406D01*
X160865723Y-117115445D01*
X160956684Y-117033003D01*
X161055288Y-116959873D01*
X161160585Y-116896761D01*
X161271560Y-116844273D01*
X161387147Y-116802915D01*
X161506230Y-116773087D01*
X161627664Y-116755074D01*
X161750278Y-116749050D01*
X161750477Y-116749050D01*
X163249523Y-116749050D01*
X163249722Y-116749050D01*
X163372336Y-116755074D01*
G37*
%TO.C,kibuzzard-6642DA94*%
G36*
X103548753Y-88776131D02*
G01*
X103619000Y-88885669D01*
X103652338Y-89048784D01*
X103658588Y-89146118D01*
X103660672Y-89250000D01*
X103658588Y-89353584D01*
X103652338Y-89450025D01*
X103619000Y-89613141D01*
X103547563Y-89723869D01*
X103427309Y-89764350D01*
X103305866Y-89723869D01*
X103235619Y-89614331D01*
X103202281Y-89451216D01*
X103196030Y-89353882D01*
X103193947Y-89250000D01*
X103196030Y-89146416D01*
X103202281Y-89049975D01*
X103235619Y-88886859D01*
X103305866Y-88776131D01*
X103427309Y-88735650D01*
X103548753Y-88776131D01*
G37*
G36*
X105227923Y-87990855D02*
G01*
X105350743Y-88009074D01*
X105471187Y-88039243D01*
X105588093Y-88081073D01*
X105700337Y-88134160D01*
X105806836Y-88197993D01*
X105906566Y-88271958D01*
X105998566Y-88355342D01*
X106081950Y-88447342D01*
X106155914Y-88547072D01*
X106219748Y-88653571D01*
X106272835Y-88765815D01*
X106314665Y-88882721D01*
X106344834Y-89003164D01*
X106363053Y-89125985D01*
X106369145Y-89250000D01*
X106363053Y-89374015D01*
X106344834Y-89496836D01*
X106314665Y-89617279D01*
X106272835Y-89734185D01*
X106219748Y-89846429D01*
X106155914Y-89952928D01*
X106081950Y-90052658D01*
X105998566Y-90144658D01*
X105906566Y-90228042D01*
X105806836Y-90302007D01*
X105700337Y-90365840D01*
X105588093Y-90418927D01*
X105471187Y-90460757D01*
X105350743Y-90490926D01*
X105227923Y-90509145D01*
X105103908Y-90515237D01*
X105103709Y-90515237D01*
X104867966Y-90515237D01*
X103429691Y-90515237D01*
X102896291Y-90515237D01*
X102896092Y-90515237D01*
X102896092Y-90515238D01*
X102772077Y-90509145D01*
X102649257Y-90490926D01*
X102528813Y-90460757D01*
X102411907Y-90418927D01*
X102299663Y-90365840D01*
X102193164Y-90302007D01*
X102093434Y-90228042D01*
X102001434Y-90144658D01*
X101918050Y-90052658D01*
X101844086Y-89952928D01*
X101780252Y-89846429D01*
X101727165Y-89734185D01*
X101685335Y-89617279D01*
X101655166Y-89496836D01*
X101636947Y-89374015D01*
X101630855Y-89250000D01*
X102896291Y-89250000D01*
X102904848Y-89428817D01*
X102930521Y-89584268D01*
X102973309Y-89716353D01*
X103033213Y-89825072D01*
X103138120Y-89932890D01*
X103270279Y-89997580D01*
X103429691Y-90019144D01*
X103585266Y-89997580D01*
X103715441Y-89932890D01*
X103820216Y-89825072D01*
X103880640Y-89716353D01*
X103923800Y-89584268D01*
X103949696Y-89428817D01*
X103958328Y-89250000D01*
X103949845Y-89071183D01*
X103924395Y-88915732D01*
X103881979Y-88783647D01*
X103822597Y-88674928D01*
X103718351Y-88567110D01*
X103610571Y-88514194D01*
X104132159Y-88514194D01*
X104132159Y-89988187D01*
X104396478Y-89988187D01*
X104396478Y-89009494D01*
X104484981Y-89172874D01*
X104569516Y-89335990D01*
X104650081Y-89498841D01*
X104726678Y-89661692D01*
X104799306Y-89824807D01*
X104867966Y-89988187D01*
X105103709Y-89988187D01*
X105103709Y-88514194D01*
X104839391Y-88514194D01*
X104839391Y-89421450D01*
X104797421Y-89328581D01*
X104747713Y-89221425D01*
X104691753Y-89105339D01*
X104631031Y-88985681D01*
X104567035Y-88863940D01*
X104501253Y-88741603D01*
X104434578Y-88623434D01*
X104367903Y-88514194D01*
X104132159Y-88514194D01*
X103610571Y-88514194D01*
X103586589Y-88502420D01*
X103427309Y-88480856D01*
X103272793Y-88502420D01*
X103142618Y-88567110D01*
X103036784Y-88674928D01*
X102975318Y-88783647D01*
X102931414Y-88915732D01*
X102905071Y-89071183D01*
X102896291Y-89250000D01*
X101630855Y-89250000D01*
X101636947Y-89125985D01*
X101655166Y-89003164D01*
X101685335Y-88882721D01*
X101727165Y-88765815D01*
X101780252Y-88653571D01*
X101844086Y-88547072D01*
X101918050Y-88447342D01*
X102001434Y-88355342D01*
X102093434Y-88271958D01*
X102193164Y-88197993D01*
X102299663Y-88134160D01*
X102411907Y-88081073D01*
X102528813Y-88039243D01*
X102649257Y-88009074D01*
X102772077Y-87990855D01*
X102896092Y-87984762D01*
X102896291Y-87984762D01*
X105103709Y-87984762D01*
X105103908Y-87984762D01*
X105227923Y-87990855D01*
G37*
%TO.C,kibuzzard-6642DB1F*%
G36*
X130925523Y-60016011D02*
G01*
X131008272Y-60057087D01*
X131061850Y-60127334D01*
X131079709Y-60228537D01*
X131013034Y-60394034D01*
X130925523Y-60437790D01*
X130796341Y-60452375D01*
X130732047Y-60452375D01*
X130732047Y-60009462D01*
X130779672Y-60003509D01*
X130820153Y-60002319D01*
X130925523Y-60016011D01*
G37*
G36*
X133408572Y-60026131D02*
G01*
X133478819Y-60135669D01*
X133512156Y-60298784D01*
X133518407Y-60396118D01*
X133520491Y-60500000D01*
X133518407Y-60603584D01*
X133512156Y-60700025D01*
X133478819Y-60863141D01*
X133407381Y-60973869D01*
X133287128Y-61014350D01*
X133165684Y-60973869D01*
X133095438Y-60864331D01*
X133062100Y-60701216D01*
X133055849Y-60603882D01*
X133053766Y-60500000D01*
X133055849Y-60396416D01*
X133062100Y-60299975D01*
X133095438Y-60136859D01*
X133165684Y-60026131D01*
X133287128Y-59985650D01*
X133408572Y-60026131D01*
G37*
G36*
X135099648Y-59240855D02*
G01*
X135222468Y-59259074D01*
X135342912Y-59289243D01*
X135459818Y-59331073D01*
X135572062Y-59384160D01*
X135678561Y-59447993D01*
X135778291Y-59521958D01*
X135870291Y-59605342D01*
X135953675Y-59697342D01*
X136027639Y-59797072D01*
X136091473Y-59903571D01*
X136144560Y-60015815D01*
X136186390Y-60132721D01*
X136216559Y-60253164D01*
X136234778Y-60375985D01*
X136240870Y-60500000D01*
X136234778Y-60624015D01*
X136216559Y-60746836D01*
X136186390Y-60867279D01*
X136144560Y-60984185D01*
X136091473Y-61096429D01*
X136027639Y-61202928D01*
X135953675Y-61302658D01*
X135870291Y-61394658D01*
X135778291Y-61478042D01*
X135678561Y-61552007D01*
X135572062Y-61615840D01*
X135459818Y-61668927D01*
X135342912Y-61710757D01*
X135222468Y-61740926D01*
X135099648Y-61759145D01*
X134975633Y-61765237D01*
X134975434Y-61765237D01*
X133289509Y-61765237D01*
X131944103Y-61765237D01*
X131474997Y-61765237D01*
X129269959Y-61765237D01*
X128481766Y-61765237D01*
X128024566Y-61765237D01*
X128024367Y-61765237D01*
X128024367Y-61765238D01*
X127900352Y-61759145D01*
X127777532Y-61740926D01*
X127657088Y-61710757D01*
X127540182Y-61668927D01*
X127427938Y-61615840D01*
X127321439Y-61552007D01*
X127221709Y-61478042D01*
X127129709Y-61394658D01*
X127046325Y-61302658D01*
X126972361Y-61202928D01*
X126944967Y-61157225D01*
X128024566Y-61157225D01*
X128188872Y-61229853D01*
X128316864Y-61259321D01*
X128481766Y-61269144D01*
X128648850Y-61256576D01*
X128784978Y-61218873D01*
X128890150Y-61156034D01*
X128991055Y-61019410D01*
X129024691Y-60835756D01*
X129014570Y-60724730D01*
X128984209Y-60634541D01*
X128880625Y-60501191D01*
X128742513Y-60415466D01*
X128598447Y-60357125D01*
X128506769Y-60321406D01*
X128423425Y-60277353D01*
X128362703Y-60220203D01*
X128338891Y-60145194D01*
X128364820Y-60051267D01*
X128442607Y-59994910D01*
X128572253Y-59976125D01*
X128740131Y-59999937D01*
X128872291Y-60057087D01*
X128958016Y-59830869D01*
X128793629Y-59764194D01*
X129269959Y-59764194D01*
X129269959Y-61238187D01*
X130215316Y-61238187D01*
X130439153Y-61238187D01*
X130732047Y-61238187D01*
X130732047Y-60695262D01*
X130884447Y-60695262D01*
X130965112Y-60830101D01*
X131040419Y-60963153D01*
X131108582Y-61097991D01*
X131167816Y-61238187D01*
X131474997Y-61238187D01*
X131407131Y-61082216D01*
X131324978Y-60917909D01*
X131236872Y-60760747D01*
X131151147Y-60623825D01*
X131255327Y-60556555D01*
X131324978Y-60464281D01*
X131364269Y-60353553D01*
X131377366Y-60230919D01*
X131367543Y-60115130D01*
X131338075Y-60015416D01*
X131224966Y-59864206D01*
X131144003Y-59812414D01*
X131048753Y-59776100D01*
X130988561Y-59764194D01*
X131532147Y-59764194D01*
X131559531Y-59897544D01*
X131598822Y-60064231D01*
X131630307Y-60188982D01*
X131664439Y-60318760D01*
X131701216Y-60453566D01*
X131740109Y-60591017D01*
X131780591Y-60728732D01*
X131822659Y-60866712D01*
X131885167Y-61063166D01*
X131944103Y-61238187D01*
X132246522Y-61238187D01*
X132292030Y-61111320D01*
X132336480Y-60981542D01*
X132379872Y-60848853D01*
X132421544Y-60715503D01*
X132460834Y-60583741D01*
X132484578Y-60500000D01*
X132756109Y-60500000D01*
X132764667Y-60678817D01*
X132790340Y-60834268D01*
X132833128Y-60966353D01*
X132893031Y-61075072D01*
X132997939Y-61182890D01*
X133130098Y-61247580D01*
X133289509Y-61269144D01*
X133445084Y-61247580D01*
X133575259Y-61182890D01*
X133680034Y-61075072D01*
X133740459Y-60966353D01*
X133783619Y-60834268D01*
X133809515Y-60678817D01*
X133818147Y-60500000D01*
X133809664Y-60321183D01*
X133784214Y-60165732D01*
X133753913Y-60071375D01*
X133996741Y-60071375D01*
X134091991Y-60314262D01*
X134237247Y-60255922D01*
X134389647Y-60171387D01*
X134389647Y-60995300D01*
X134080084Y-60995300D01*
X134080084Y-61238187D01*
X134975434Y-61238187D01*
X134975434Y-60995300D01*
X134682541Y-60995300D01*
X134682541Y-59764194D01*
X134482516Y-59764194D01*
X134380122Y-59857062D01*
X134253916Y-59942787D01*
X134120566Y-60016606D01*
X133996741Y-60071375D01*
X133753913Y-60071375D01*
X133741798Y-60033647D01*
X133682416Y-59924928D01*
X133578170Y-59817110D01*
X133446407Y-59752420D01*
X133287128Y-59730856D01*
X133132611Y-59752420D01*
X133002436Y-59817110D01*
X132896603Y-59924928D01*
X132835137Y-60033647D01*
X132791233Y-60165732D01*
X132764890Y-60321183D01*
X132756109Y-60500000D01*
X132484578Y-60500000D01*
X132497744Y-60453566D01*
X132548345Y-60263959D01*
X132592994Y-60083281D01*
X132631391Y-59915403D01*
X132663241Y-59764194D01*
X132356059Y-59764194D01*
X132334628Y-59888019D01*
X132308434Y-60030894D01*
X132278669Y-60185377D01*
X132246522Y-60344028D01*
X132211994Y-60503572D01*
X132175084Y-60660734D01*
X132136984Y-60808074D01*
X132098884Y-60938150D01*
X132060487Y-60806288D01*
X132021494Y-60658353D01*
X131983394Y-60501191D01*
X131947675Y-60341647D01*
X131914635Y-60183294D01*
X131884572Y-60029703D01*
X131859569Y-59887721D01*
X131841709Y-59764194D01*
X131532147Y-59764194D01*
X130988561Y-59764194D01*
X130940406Y-59754669D01*
X130820153Y-59747525D01*
X130736809Y-59749906D01*
X130636797Y-59755859D01*
X130533213Y-59767766D01*
X130439153Y-59785625D01*
X130439153Y-61238187D01*
X130215316Y-61238187D01*
X130215316Y-60995300D01*
X129562853Y-60995300D01*
X129562853Y-60580962D01*
X130084347Y-60580962D01*
X130084347Y-60338075D01*
X129562853Y-60338075D01*
X129562853Y-60007081D01*
X130162928Y-60007081D01*
X130162928Y-59764194D01*
X129269959Y-59764194D01*
X128793629Y-59764194D01*
X128787756Y-59761812D01*
X128677921Y-59738595D01*
X128550822Y-59730856D01*
X128404904Y-59743821D01*
X128281476Y-59782715D01*
X128180538Y-59847537D01*
X128079632Y-59986841D01*
X128045997Y-60171387D01*
X128084097Y-60346409D01*
X128180538Y-60464281D01*
X128310316Y-60542862D01*
X128448428Y-60597631D01*
X128548441Y-60639303D01*
X128638928Y-60689309D01*
X128705603Y-60752412D01*
X128731797Y-60833375D01*
X128721081Y-60903622D01*
X128681791Y-60965534D01*
X128604400Y-61008397D01*
X128481766Y-61023875D01*
X128363001Y-61015541D01*
X128263881Y-60990537D01*
X128110291Y-60919100D01*
X128024566Y-61157225D01*
X126944967Y-61157225D01*
X126908527Y-61096429D01*
X126855440Y-60984185D01*
X126813610Y-60867279D01*
X126783441Y-60746836D01*
X126765222Y-60624015D01*
X126759130Y-60500000D01*
X126765222Y-60375985D01*
X126783441Y-60253164D01*
X126813610Y-60132721D01*
X126855440Y-60015815D01*
X126908527Y-59903571D01*
X126972361Y-59797072D01*
X127046325Y-59697342D01*
X127129709Y-59605342D01*
X127221709Y-59521958D01*
X127321439Y-59447993D01*
X127427938Y-59384160D01*
X127540182Y-59331073D01*
X127657088Y-59289243D01*
X127777532Y-59259074D01*
X127900352Y-59240855D01*
X128024367Y-59234762D01*
X128024566Y-59234762D01*
X134975434Y-59234762D01*
X134975633Y-59234762D01*
X135099648Y-59240855D01*
G37*
%TO.C,kibuzzard-66574FE6*%
G36*
X134294595Y-66234763D02*
G01*
X134418610Y-66240855D01*
X134541431Y-66259074D01*
X134661874Y-66289243D01*
X134778781Y-66331073D01*
X134891024Y-66384160D01*
X134997524Y-66447993D01*
X135097253Y-66521958D01*
X135189253Y-66605342D01*
X135272637Y-66697342D01*
X135346602Y-66797072D01*
X135410435Y-66903571D01*
X135463522Y-67015815D01*
X135505352Y-67132721D01*
X135535522Y-67253164D01*
X135553740Y-67375985D01*
X135559833Y-67500000D01*
X135553740Y-67624015D01*
X135535522Y-67746836D01*
X135505352Y-67867279D01*
X135463522Y-67984185D01*
X135410435Y-68096429D01*
X135346602Y-68202928D01*
X135272637Y-68302658D01*
X135189253Y-68394658D01*
X135097253Y-68478042D01*
X134997524Y-68552007D01*
X134891024Y-68615840D01*
X134778781Y-68668927D01*
X134661874Y-68710757D01*
X134541431Y-68740926D01*
X134418610Y-68759145D01*
X134294595Y-68765237D01*
X134294397Y-68765237D01*
X133751472Y-68765237D01*
X131539291Y-68765237D01*
X129358066Y-68765237D01*
X128705603Y-68765237D01*
X128705405Y-68765237D01*
X128705405Y-68765238D01*
X128581390Y-68759145D01*
X128458569Y-68740926D01*
X128338126Y-68710757D01*
X128221219Y-68668927D01*
X128108976Y-68615840D01*
X128002476Y-68552007D01*
X127902747Y-68478042D01*
X127810747Y-68394658D01*
X127727363Y-68302658D01*
X127653398Y-68202928D01*
X127626005Y-68157225D01*
X133294272Y-68157225D01*
X133458578Y-68229853D01*
X133586570Y-68259321D01*
X133751472Y-68269144D01*
X133918556Y-68256576D01*
X134054684Y-68218873D01*
X134159856Y-68156034D01*
X134260762Y-68019410D01*
X134294397Y-67835756D01*
X134284277Y-67724730D01*
X134253916Y-67634541D01*
X134150331Y-67501191D01*
X134012219Y-67415466D01*
X133868153Y-67357125D01*
X133776475Y-67321406D01*
X133693131Y-67277353D01*
X133632409Y-67220203D01*
X133608597Y-67145194D01*
X133634526Y-67051267D01*
X133712314Y-66994910D01*
X133841959Y-66976125D01*
X134009838Y-66999937D01*
X134141997Y-67057087D01*
X134227722Y-66830869D01*
X134057463Y-66761812D01*
X133947627Y-66738595D01*
X133820528Y-66730856D01*
X133674610Y-66743821D01*
X133551182Y-66782715D01*
X133450244Y-66847537D01*
X133349338Y-66986841D01*
X133315703Y-67171387D01*
X133353803Y-67346409D01*
X133450244Y-67464281D01*
X133580022Y-67542862D01*
X133718134Y-67597631D01*
X133818147Y-67639303D01*
X133908634Y-67689309D01*
X133975309Y-67752412D01*
X134001503Y-67833375D01*
X133990788Y-67903622D01*
X133951497Y-67965534D01*
X133874106Y-68008397D01*
X133751472Y-68023875D01*
X133632707Y-68015541D01*
X133533588Y-67990537D01*
X133379997Y-67919100D01*
X133294272Y-68157225D01*
X127626005Y-68157225D01*
X127589565Y-68096429D01*
X127536478Y-67984185D01*
X127494648Y-67867279D01*
X127464478Y-67746836D01*
X127446260Y-67624015D01*
X127440167Y-67500000D01*
X127440986Y-67483331D01*
X128705603Y-67483331D01*
X128705603Y-67771462D01*
X129358066Y-67771462D01*
X129358066Y-67733362D01*
X130913022Y-67733362D01*
X131286878Y-67733362D01*
X131286878Y-68147700D01*
X131539291Y-68147700D01*
X131539291Y-67733362D01*
X131913147Y-67733362D01*
X131913147Y-67492856D01*
X131539291Y-67492856D01*
X131539291Y-67078519D01*
X131286878Y-67078519D01*
X131286878Y-67492856D01*
X130913022Y-67492856D01*
X130913022Y-67733362D01*
X129358066Y-67733362D01*
X129358066Y-67483331D01*
X128705603Y-67483331D01*
X127440986Y-67483331D01*
X127446260Y-67375985D01*
X127464478Y-67253164D01*
X127494648Y-67132721D01*
X127536478Y-67015815D01*
X127589565Y-66903571D01*
X127653398Y-66797072D01*
X127727363Y-66697342D01*
X127810747Y-66605342D01*
X127902747Y-66521958D01*
X128002476Y-66447993D01*
X128108976Y-66384160D01*
X128221219Y-66331073D01*
X128338126Y-66289243D01*
X128458569Y-66259074D01*
X128581390Y-66240855D01*
X128705405Y-66234762D01*
X128705603Y-66234762D01*
X134294397Y-66234762D01*
X134294595Y-66234762D01*
X134294595Y-66234763D01*
G37*
%TO.C,kibuzzard-6642DA1F*%
G36*
X117541672Y-117707106D02*
G01*
X117579772Y-117854744D01*
X117611919Y-118001191D01*
X117640494Y-118153591D01*
X117352363Y-118153591D01*
X117382128Y-118001191D01*
X117415466Y-117854744D01*
X117453566Y-117707106D01*
X117497619Y-117548753D01*
X117541672Y-117707106D01*
G37*
G36*
X118370586Y-116772847D02*
G01*
X118490286Y-116790603D01*
X118607669Y-116820006D01*
X118721605Y-116860773D01*
X118830997Y-116912511D01*
X118934790Y-116974723D01*
X119031986Y-117046808D01*
X119121648Y-117128073D01*
X119202914Y-117217736D01*
X119274999Y-117314932D01*
X119337211Y-117418725D01*
X119388949Y-117528117D01*
X119429716Y-117642053D01*
X119459119Y-117759436D01*
X119476875Y-117879136D01*
X119482812Y-118000000D01*
X119476875Y-118120864D01*
X119459119Y-118240564D01*
X119429716Y-118357947D01*
X119388949Y-118471883D01*
X119337211Y-118581275D01*
X119274999Y-118685068D01*
X119202914Y-118782264D01*
X119121648Y-118871927D01*
X119031986Y-118953192D01*
X118934790Y-119025277D01*
X118830997Y-119087489D01*
X118721605Y-119139227D01*
X118607669Y-119179994D01*
X118490286Y-119209397D01*
X118370586Y-119227153D01*
X118249722Y-119233091D01*
X118249523Y-119233091D01*
X117759556Y-119233091D01*
X116750477Y-119233091D01*
X116750278Y-119233091D01*
X116629414Y-119227153D01*
X116509714Y-119209397D01*
X116392331Y-119179994D01*
X116278395Y-119139227D01*
X116169003Y-119087489D01*
X116065210Y-119025277D01*
X115968014Y-118953192D01*
X115878352Y-118871927D01*
X115797086Y-118782264D01*
X115763514Y-118736997D01*
X116926119Y-118736997D01*
X117230919Y-118736997D01*
X117297594Y-118396478D01*
X117690500Y-118396478D01*
X117759556Y-118736997D01*
X118073881Y-118736997D01*
X118034591Y-118569881D01*
X117994824Y-118407622D01*
X117954581Y-118250222D01*
X117913861Y-118097679D01*
X117872666Y-117949994D01*
X117820799Y-117770879D01*
X117768784Y-117596676D01*
X117716619Y-117427384D01*
X117664306Y-117263003D01*
X117345219Y-117263003D01*
X117294766Y-117426044D01*
X117243420Y-117593699D01*
X117191182Y-117765968D01*
X117138050Y-117942850D01*
X117095283Y-118089297D01*
X117052706Y-118241935D01*
X117010320Y-118400764D01*
X116968124Y-118565785D01*
X116926119Y-118736997D01*
X115763514Y-118736997D01*
X115725001Y-118685068D01*
X115662789Y-118581275D01*
X115611051Y-118471883D01*
X115570284Y-118357947D01*
X115540881Y-118240564D01*
X115523125Y-118120864D01*
X115517188Y-118000000D01*
X115523125Y-117879136D01*
X115540881Y-117759436D01*
X115570284Y-117642053D01*
X115611051Y-117528117D01*
X115662789Y-117418725D01*
X115725001Y-117314932D01*
X115797086Y-117217736D01*
X115878352Y-117128073D01*
X115968014Y-117046808D01*
X116065210Y-116974723D01*
X116169003Y-116912511D01*
X116278395Y-116860773D01*
X116392331Y-116820006D01*
X116509714Y-116790603D01*
X116629414Y-116772847D01*
X116750278Y-116766909D01*
X116750477Y-116766909D01*
X118249523Y-116766909D01*
X118249722Y-116766909D01*
X118370586Y-116772847D01*
G37*
%TO.C,kibuzzard-6642DA03*%
G36*
X132638113Y-118136922D02*
G01*
X132705978Y-118290513D01*
X132682166Y-118396478D01*
X132621444Y-118460772D01*
X132536909Y-118491728D01*
X132439278Y-118500062D01*
X132366650Y-118497681D01*
X132298784Y-118490537D01*
X132298784Y-118090487D01*
X132455947Y-118090487D01*
X132638113Y-118136922D01*
G37*
G36*
X132510716Y-117505891D02*
G01*
X132577391Y-117529703D01*
X132622634Y-117579709D01*
X132639303Y-117664244D01*
X132582153Y-117798784D01*
X132413084Y-117847600D01*
X132298784Y-117847600D01*
X132298784Y-117509463D01*
X132363078Y-117502319D01*
X132432134Y-117499938D01*
X132510716Y-117505891D01*
G37*
G36*
X133372336Y-116755074D02*
G01*
X133493770Y-116773087D01*
X133612853Y-116802915D01*
X133728440Y-116844273D01*
X133839415Y-116896761D01*
X133944712Y-116959873D01*
X134043316Y-117033003D01*
X134134277Y-117115445D01*
X134216719Y-117206406D01*
X134289849Y-117305009D01*
X134352961Y-117410306D01*
X134405449Y-117521282D01*
X134446806Y-117636868D01*
X134476635Y-117755952D01*
X134494648Y-117877385D01*
X134500672Y-118000000D01*
X134494648Y-118122615D01*
X134476635Y-118244048D01*
X134446806Y-118363132D01*
X134405449Y-118478718D01*
X134352961Y-118589694D01*
X134289849Y-118694991D01*
X134216719Y-118793594D01*
X134134277Y-118884555D01*
X134043316Y-118966997D01*
X133944712Y-119040127D01*
X133839415Y-119103239D01*
X133728440Y-119155727D01*
X133612853Y-119197085D01*
X133493770Y-119226913D01*
X133372336Y-119244926D01*
X133249722Y-119250950D01*
X133249523Y-119250950D01*
X132415466Y-119250950D01*
X131750477Y-119250950D01*
X131750278Y-119250950D01*
X131627664Y-119244926D01*
X131506230Y-119226913D01*
X131387147Y-119197085D01*
X131271560Y-119155727D01*
X131160585Y-119103239D01*
X131055288Y-119040127D01*
X130956684Y-118966997D01*
X130865723Y-118884555D01*
X130783281Y-118793594D01*
X130722761Y-118711994D01*
X132005891Y-118711994D01*
X132108880Y-118730746D01*
X132213059Y-118744141D01*
X132316048Y-118752177D01*
X132415466Y-118754856D01*
X132533040Y-118749201D01*
X132642875Y-118732234D01*
X132741697Y-118701873D01*
X132826231Y-118656034D01*
X132948866Y-118513159D01*
X132982798Y-118412849D01*
X132994109Y-118290513D01*
X132980715Y-118190500D01*
X132940531Y-118095250D01*
X132862843Y-118011906D01*
X132736934Y-117947613D01*
X132873856Y-117819025D01*
X132912254Y-117732109D01*
X132925053Y-117633288D01*
X132903622Y-117495175D01*
X132822659Y-117370159D01*
X132658353Y-117279672D01*
X132538100Y-117253776D01*
X132386891Y-117245144D01*
X132189247Y-117255859D01*
X132005891Y-117280863D01*
X132005891Y-118711994D01*
X130722761Y-118711994D01*
X130710151Y-118694991D01*
X130647039Y-118589694D01*
X130594551Y-118478718D01*
X130553194Y-118363132D01*
X130523365Y-118244048D01*
X130505352Y-118122615D01*
X130499328Y-118000000D01*
X130505352Y-117877385D01*
X130523365Y-117755952D01*
X130553194Y-117636868D01*
X130594551Y-117521282D01*
X130647039Y-117410306D01*
X130710151Y-117305009D01*
X130783281Y-117206406D01*
X130865723Y-117115445D01*
X130956684Y-117033003D01*
X131055288Y-116959873D01*
X131160585Y-116896761D01*
X131271560Y-116844273D01*
X131387147Y-116802915D01*
X131506230Y-116773087D01*
X131627664Y-116755074D01*
X131750278Y-116749050D01*
X131750477Y-116749050D01*
X133249523Y-116749050D01*
X133249722Y-116749050D01*
X133372336Y-116755074D01*
G37*
%TO.C,kibuzzard-6642DA41*%
G36*
X148373737Y-116740855D02*
G01*
X148496557Y-116759074D01*
X148617001Y-116789243D01*
X148733907Y-116831073D01*
X148846151Y-116884160D01*
X148952650Y-116947993D01*
X149052380Y-117021958D01*
X149144380Y-117105342D01*
X149227763Y-117197342D01*
X149301728Y-117297072D01*
X149365562Y-117403571D01*
X149418649Y-117515815D01*
X149460478Y-117632721D01*
X149490648Y-117753164D01*
X149508867Y-117875985D01*
X149514959Y-118000000D01*
X149508867Y-118124015D01*
X149490648Y-118246836D01*
X149460478Y-118367279D01*
X149418649Y-118484185D01*
X149365562Y-118596429D01*
X149301728Y-118702928D01*
X149227763Y-118802658D01*
X149144380Y-118894658D01*
X149052380Y-118978042D01*
X148952650Y-119052007D01*
X148846151Y-119115840D01*
X148733907Y-119168927D01*
X148617001Y-119210757D01*
X148496557Y-119240926D01*
X148373737Y-119259145D01*
X148249722Y-119265237D01*
X148249523Y-119265237D01*
X147614300Y-119265237D01*
X146750477Y-119265237D01*
X146750278Y-119265237D01*
X146750278Y-119265238D01*
X146626263Y-119259145D01*
X146503443Y-119240926D01*
X146382999Y-119210757D01*
X146266093Y-119168927D01*
X146153849Y-119115840D01*
X146047350Y-119052007D01*
X145947620Y-118978042D01*
X145855620Y-118894658D01*
X145772237Y-118802658D01*
X145698272Y-118702928D01*
X145634438Y-118596429D01*
X145581351Y-118484185D01*
X145539522Y-118367279D01*
X145509352Y-118246836D01*
X145491133Y-118124015D01*
X145485041Y-118000000D01*
X146973744Y-118000000D01*
X146984013Y-118173980D01*
X147014820Y-118326827D01*
X147066166Y-118458539D01*
X147138050Y-118569119D01*
X147263992Y-118680244D01*
X147422742Y-118746919D01*
X147614300Y-118769144D01*
X147744376Y-118761107D01*
X147858378Y-118736997D01*
X148026256Y-118666750D01*
X147952438Y-118435769D01*
X147832184Y-118488156D01*
X147642875Y-118514350D01*
X147472913Y-118480715D01*
X147358316Y-118379809D01*
X147310029Y-118277019D01*
X147281057Y-118148034D01*
X147271400Y-117992856D01*
X147279437Y-117859506D01*
X147303547Y-117749969D01*
X147386891Y-117593997D01*
X147503572Y-117510653D01*
X147638113Y-117485650D01*
X147815516Y-117510653D01*
X147947675Y-117571375D01*
X148023875Y-117338012D01*
X147975059Y-117309437D01*
X147895288Y-117273719D01*
X147784559Y-117243953D01*
X147642875Y-117230856D01*
X147503274Y-117243655D01*
X147374984Y-117282053D01*
X147260684Y-117345156D01*
X147163053Y-117432072D01*
X147083579Y-117541907D01*
X147023750Y-117673769D01*
X146986245Y-117826764D01*
X146973744Y-118000000D01*
X145485041Y-118000000D01*
X145491133Y-117875985D01*
X145509352Y-117753164D01*
X145539522Y-117632721D01*
X145581351Y-117515815D01*
X145634438Y-117403571D01*
X145698272Y-117297072D01*
X145772237Y-117197342D01*
X145855620Y-117105342D01*
X145947620Y-117021958D01*
X146047350Y-116947993D01*
X146153849Y-116884160D01*
X146266093Y-116831073D01*
X146382999Y-116789243D01*
X146503443Y-116759074D01*
X146626263Y-116740855D01*
X146750278Y-116734762D01*
X146750477Y-116734762D01*
X148249523Y-116734762D01*
X148249722Y-116734762D01*
X148373737Y-116740855D01*
G37*
%TD*%
%LPC*%
D12*
%TO.C,REF\u002A\u002A*%
X100500000Y-61500000D03*
%TD*%
%TO.C,REF\u002A\u002A*%
X100500000Y-116500000D03*
%TD*%
%TO.C,REF\u002A\u002A*%
X179500000Y-116500000D03*
%TD*%
%TO.C,REF\u002A\u002A*%
X179500000Y-61500000D03*
%TD*%
%LPD*%
M02*
