%TF.GenerationSoftware,KiCad,Pcbnew,7.0.8*%
%TF.CreationDate,2024-06-03T09:06:04-04:00*%
%TF.ProjectId,topboard,746f7062-6f61-4726-942e-6b696361645f,rev?*%
%TF.SameCoordinates,Original*%
%TF.FileFunction,Legend,Top*%
%TF.FilePolarity,Positive*%
%FSLAX46Y46*%
G04 Gerber Fmt 4.6, Leading zero omitted, Abs format (unit mm)*
G04 Created by KiCad (PCBNEW 7.0.8) date 2024-06-03 09:06:04*
%MOMM*%
%LPD*%
G01*
G04 APERTURE LIST*
%ADD10C,0.200000*%
%ADD11C,0.400000*%
%ADD12C,3.200000*%
G04 APERTURE END LIST*
D10*
X124428570Y-78306028D02*
X124999998Y-78306028D01*
X124642855Y-77806028D02*
X124642855Y-79091742D01*
X124642855Y-79091742D02*
X124714284Y-79234600D01*
X124714284Y-79234600D02*
X124857141Y-79306028D01*
X124857141Y-79306028D02*
X124999998Y-79306028D01*
X125499998Y-79306028D02*
X125499998Y-78306028D01*
X125499998Y-77806028D02*
X125428570Y-77877457D01*
X125428570Y-77877457D02*
X125499998Y-77948885D01*
X125499998Y-77948885D02*
X125571427Y-77877457D01*
X125571427Y-77877457D02*
X125499998Y-77806028D01*
X125499998Y-77806028D02*
X125499998Y-77948885D01*
X126214284Y-78306028D02*
X126214284Y-79306028D01*
X126214284Y-78448885D02*
X126285713Y-78377457D01*
X126285713Y-78377457D02*
X126428570Y-78306028D01*
X126428570Y-78306028D02*
X126642856Y-78306028D01*
X126642856Y-78306028D02*
X126785713Y-78377457D01*
X126785713Y-78377457D02*
X126857142Y-78520314D01*
X126857142Y-78520314D02*
X126857142Y-79306028D01*
X128214285Y-79306028D02*
X128214285Y-77806028D01*
X128214285Y-79234600D02*
X128071427Y-79306028D01*
X128071427Y-79306028D02*
X127785713Y-79306028D01*
X127785713Y-79306028D02*
X127642856Y-79234600D01*
X127642856Y-79234600D02*
X127571427Y-79163171D01*
X127571427Y-79163171D02*
X127499999Y-79020314D01*
X127499999Y-79020314D02*
X127499999Y-78591742D01*
X127499999Y-78591742D02*
X127571427Y-78448885D01*
X127571427Y-78448885D02*
X127642856Y-78377457D01*
X127642856Y-78377457D02*
X127785713Y-78306028D01*
X127785713Y-78306028D02*
X128071427Y-78306028D01*
X128071427Y-78306028D02*
X128214285Y-78377457D01*
X128928570Y-79306028D02*
X128928570Y-78306028D01*
X128928570Y-77806028D02*
X128857142Y-77877457D01*
X128857142Y-77877457D02*
X128928570Y-77948885D01*
X128928570Y-77948885D02*
X128999999Y-77877457D01*
X128999999Y-77877457D02*
X128928570Y-77806028D01*
X128928570Y-77806028D02*
X128928570Y-77948885D01*
X130214285Y-79234600D02*
X130071428Y-79306028D01*
X130071428Y-79306028D02*
X129785714Y-79306028D01*
X129785714Y-79306028D02*
X129642856Y-79234600D01*
X129642856Y-79234600D02*
X129571428Y-79091742D01*
X129571428Y-79091742D02*
X129571428Y-78520314D01*
X129571428Y-78520314D02*
X129642856Y-78377457D01*
X129642856Y-78377457D02*
X129785714Y-78306028D01*
X129785714Y-78306028D02*
X130071428Y-78306028D01*
X130071428Y-78306028D02*
X130214285Y-78377457D01*
X130214285Y-78377457D02*
X130285714Y-78520314D01*
X130285714Y-78520314D02*
X130285714Y-78663171D01*
X130285714Y-78663171D02*
X129571428Y-78806028D01*
X130928570Y-79163171D02*
X130999999Y-79234600D01*
X130999999Y-79234600D02*
X130928570Y-79306028D01*
X130928570Y-79306028D02*
X130857142Y-79234600D01*
X130857142Y-79234600D02*
X130928570Y-79163171D01*
X130928570Y-79163171D02*
X130928570Y-79306028D01*
X132285714Y-79234600D02*
X132142856Y-79306028D01*
X132142856Y-79306028D02*
X131857142Y-79306028D01*
X131857142Y-79306028D02*
X131714285Y-79234600D01*
X131714285Y-79234600D02*
X131642856Y-79163171D01*
X131642856Y-79163171D02*
X131571428Y-79020314D01*
X131571428Y-79020314D02*
X131571428Y-78591742D01*
X131571428Y-78591742D02*
X131642856Y-78448885D01*
X131642856Y-78448885D02*
X131714285Y-78377457D01*
X131714285Y-78377457D02*
X131857142Y-78306028D01*
X131857142Y-78306028D02*
X132142856Y-78306028D01*
X132142856Y-78306028D02*
X132285714Y-78377457D01*
X133142856Y-79306028D02*
X132999999Y-79234600D01*
X132999999Y-79234600D02*
X132928570Y-79163171D01*
X132928570Y-79163171D02*
X132857142Y-79020314D01*
X132857142Y-79020314D02*
X132857142Y-78591742D01*
X132857142Y-78591742D02*
X132928570Y-78448885D01*
X132928570Y-78448885D02*
X132999999Y-78377457D01*
X132999999Y-78377457D02*
X133142856Y-78306028D01*
X133142856Y-78306028D02*
X133357142Y-78306028D01*
X133357142Y-78306028D02*
X133499999Y-78377457D01*
X133499999Y-78377457D02*
X133571428Y-78448885D01*
X133571428Y-78448885D02*
X133642856Y-78591742D01*
X133642856Y-78591742D02*
X133642856Y-79020314D01*
X133642856Y-79020314D02*
X133571428Y-79163171D01*
X133571428Y-79163171D02*
X133499999Y-79234600D01*
X133499999Y-79234600D02*
X133357142Y-79306028D01*
X133357142Y-79306028D02*
X133142856Y-79306028D01*
X134285713Y-79306028D02*
X134285713Y-78306028D01*
X134285713Y-78448885D02*
X134357142Y-78377457D01*
X134357142Y-78377457D02*
X134499999Y-78306028D01*
X134499999Y-78306028D02*
X134714285Y-78306028D01*
X134714285Y-78306028D02*
X134857142Y-78377457D01*
X134857142Y-78377457D02*
X134928571Y-78520314D01*
X134928571Y-78520314D02*
X134928571Y-79306028D01*
X134928571Y-78520314D02*
X134999999Y-78377457D01*
X134999999Y-78377457D02*
X135142856Y-78306028D01*
X135142856Y-78306028D02*
X135357142Y-78306028D01*
X135357142Y-78306028D02*
X135499999Y-78377457D01*
X135499999Y-78377457D02*
X135571428Y-78520314D01*
X135571428Y-78520314D02*
X135571428Y-79306028D01*
X137357142Y-77734600D02*
X136071428Y-79663171D01*
X137785714Y-79234600D02*
X137928571Y-79306028D01*
X137928571Y-79306028D02*
X138214285Y-79306028D01*
X138214285Y-79306028D02*
X138357142Y-79234600D01*
X138357142Y-79234600D02*
X138428571Y-79091742D01*
X138428571Y-79091742D02*
X138428571Y-79020314D01*
X138428571Y-79020314D02*
X138357142Y-78877457D01*
X138357142Y-78877457D02*
X138214285Y-78806028D01*
X138214285Y-78806028D02*
X138000000Y-78806028D01*
X138000000Y-78806028D02*
X137857142Y-78734600D01*
X137857142Y-78734600D02*
X137785714Y-78591742D01*
X137785714Y-78591742D02*
X137785714Y-78520314D01*
X137785714Y-78520314D02*
X137857142Y-78377457D01*
X137857142Y-78377457D02*
X138000000Y-78306028D01*
X138000000Y-78306028D02*
X138214285Y-78306028D01*
X138214285Y-78306028D02*
X138357142Y-78377457D01*
X138857143Y-78306028D02*
X139428571Y-78306028D01*
X139071428Y-77806028D02*
X139071428Y-79091742D01*
X139071428Y-79091742D02*
X139142857Y-79234600D01*
X139142857Y-79234600D02*
X139285714Y-79306028D01*
X139285714Y-79306028D02*
X139428571Y-79306028D01*
X140142857Y-79306028D02*
X140000000Y-79234600D01*
X140000000Y-79234600D02*
X139928571Y-79163171D01*
X139928571Y-79163171D02*
X139857143Y-79020314D01*
X139857143Y-79020314D02*
X139857143Y-78591742D01*
X139857143Y-78591742D02*
X139928571Y-78448885D01*
X139928571Y-78448885D02*
X140000000Y-78377457D01*
X140000000Y-78377457D02*
X140142857Y-78306028D01*
X140142857Y-78306028D02*
X140357143Y-78306028D01*
X140357143Y-78306028D02*
X140500000Y-78377457D01*
X140500000Y-78377457D02*
X140571429Y-78448885D01*
X140571429Y-78448885D02*
X140642857Y-78591742D01*
X140642857Y-78591742D02*
X140642857Y-79020314D01*
X140642857Y-79020314D02*
X140571429Y-79163171D01*
X140571429Y-79163171D02*
X140500000Y-79234600D01*
X140500000Y-79234600D02*
X140357143Y-79306028D01*
X140357143Y-79306028D02*
X140142857Y-79306028D01*
X141285714Y-79306028D02*
X141285714Y-78306028D01*
X141285714Y-78591742D02*
X141357143Y-78448885D01*
X141357143Y-78448885D02*
X141428572Y-78377457D01*
X141428572Y-78377457D02*
X141571429Y-78306028D01*
X141571429Y-78306028D02*
X141714286Y-78306028D01*
X142785714Y-79234600D02*
X142642857Y-79306028D01*
X142642857Y-79306028D02*
X142357143Y-79306028D01*
X142357143Y-79306028D02*
X142214285Y-79234600D01*
X142214285Y-79234600D02*
X142142857Y-79091742D01*
X142142857Y-79091742D02*
X142142857Y-78520314D01*
X142142857Y-78520314D02*
X142214285Y-78377457D01*
X142214285Y-78377457D02*
X142357143Y-78306028D01*
X142357143Y-78306028D02*
X142642857Y-78306028D01*
X142642857Y-78306028D02*
X142785714Y-78377457D01*
X142785714Y-78377457D02*
X142857143Y-78520314D01*
X142857143Y-78520314D02*
X142857143Y-78663171D01*
X142857143Y-78663171D02*
X142142857Y-78806028D01*
X143428571Y-79234600D02*
X143571428Y-79306028D01*
X143571428Y-79306028D02*
X143857142Y-79306028D01*
X143857142Y-79306028D02*
X143999999Y-79234600D01*
X143999999Y-79234600D02*
X144071428Y-79091742D01*
X144071428Y-79091742D02*
X144071428Y-79020314D01*
X144071428Y-79020314D02*
X143999999Y-78877457D01*
X143999999Y-78877457D02*
X143857142Y-78806028D01*
X143857142Y-78806028D02*
X143642857Y-78806028D01*
X143642857Y-78806028D02*
X143499999Y-78734600D01*
X143499999Y-78734600D02*
X143428571Y-78591742D01*
X143428571Y-78591742D02*
X143428571Y-78520314D01*
X143428571Y-78520314D02*
X143499999Y-78377457D01*
X143499999Y-78377457D02*
X143642857Y-78306028D01*
X143642857Y-78306028D02*
X143857142Y-78306028D01*
X143857142Y-78306028D02*
X143999999Y-78377457D01*
X145785714Y-77734600D02*
X144500000Y-79663171D01*
X146285714Y-79306028D02*
X146285714Y-78306028D01*
X146285714Y-77806028D02*
X146214286Y-77877457D01*
X146214286Y-77877457D02*
X146285714Y-77948885D01*
X146285714Y-77948885D02*
X146357143Y-77877457D01*
X146357143Y-77877457D02*
X146285714Y-77806028D01*
X146285714Y-77806028D02*
X146285714Y-77948885D01*
X147000000Y-79306028D02*
X147000000Y-78306028D01*
X147000000Y-78591742D02*
X147071429Y-78448885D01*
X147071429Y-78448885D02*
X147142858Y-78377457D01*
X147142858Y-78377457D02*
X147285715Y-78306028D01*
X147285715Y-78306028D02*
X147428572Y-78306028D01*
X148142857Y-79306028D02*
X148000000Y-79234600D01*
X148000000Y-79234600D02*
X147928571Y-79163171D01*
X147928571Y-79163171D02*
X147857143Y-79020314D01*
X147857143Y-79020314D02*
X147857143Y-78591742D01*
X147857143Y-78591742D02*
X147928571Y-78448885D01*
X147928571Y-78448885D02*
X148000000Y-78377457D01*
X148000000Y-78377457D02*
X148142857Y-78306028D01*
X148142857Y-78306028D02*
X148357143Y-78306028D01*
X148357143Y-78306028D02*
X148500000Y-78377457D01*
X148500000Y-78377457D02*
X148571429Y-78448885D01*
X148571429Y-78448885D02*
X148642857Y-78591742D01*
X148642857Y-78591742D02*
X148642857Y-79020314D01*
X148642857Y-79020314D02*
X148571429Y-79163171D01*
X148571429Y-79163171D02*
X148500000Y-79234600D01*
X148500000Y-79234600D02*
X148357143Y-79306028D01*
X148357143Y-79306028D02*
X148142857Y-79306028D01*
X149285714Y-79306028D02*
X149285714Y-77806028D01*
X149285714Y-78377457D02*
X149428572Y-78306028D01*
X149428572Y-78306028D02*
X149714286Y-78306028D01*
X149714286Y-78306028D02*
X149857143Y-78377457D01*
X149857143Y-78377457D02*
X149928572Y-78448885D01*
X149928572Y-78448885D02*
X150000000Y-78591742D01*
X150000000Y-78591742D02*
X150000000Y-79020314D01*
X150000000Y-79020314D02*
X149928572Y-79163171D01*
X149928572Y-79163171D02*
X149857143Y-79234600D01*
X149857143Y-79234600D02*
X149714286Y-79306028D01*
X149714286Y-79306028D02*
X149428572Y-79306028D01*
X149428572Y-79306028D02*
X149285714Y-79234600D01*
X150857143Y-79306028D02*
X150714286Y-79234600D01*
X150714286Y-79234600D02*
X150642857Y-79163171D01*
X150642857Y-79163171D02*
X150571429Y-79020314D01*
X150571429Y-79020314D02*
X150571429Y-78591742D01*
X150571429Y-78591742D02*
X150642857Y-78448885D01*
X150642857Y-78448885D02*
X150714286Y-78377457D01*
X150714286Y-78377457D02*
X150857143Y-78306028D01*
X150857143Y-78306028D02*
X151071429Y-78306028D01*
X151071429Y-78306028D02*
X151214286Y-78377457D01*
X151214286Y-78377457D02*
X151285715Y-78448885D01*
X151285715Y-78448885D02*
X151357143Y-78591742D01*
X151357143Y-78591742D02*
X151357143Y-79020314D01*
X151357143Y-79020314D02*
X151285715Y-79163171D01*
X151285715Y-79163171D02*
X151214286Y-79234600D01*
X151214286Y-79234600D02*
X151071429Y-79306028D01*
X151071429Y-79306028D02*
X150857143Y-79306028D01*
X151785715Y-78306028D02*
X152357143Y-78306028D01*
X152000000Y-77806028D02*
X152000000Y-79091742D01*
X152000000Y-79091742D02*
X152071429Y-79234600D01*
X152071429Y-79234600D02*
X152214286Y-79306028D01*
X152214286Y-79306028D02*
X152357143Y-79306028D01*
X152857143Y-79306028D02*
X152857143Y-78306028D01*
X152857143Y-77806028D02*
X152785715Y-77877457D01*
X152785715Y-77877457D02*
X152857143Y-77948885D01*
X152857143Y-77948885D02*
X152928572Y-77877457D01*
X152928572Y-77877457D02*
X152857143Y-77806028D01*
X152857143Y-77806028D02*
X152857143Y-77948885D01*
X154214287Y-79234600D02*
X154071429Y-79306028D01*
X154071429Y-79306028D02*
X153785715Y-79306028D01*
X153785715Y-79306028D02*
X153642858Y-79234600D01*
X153642858Y-79234600D02*
X153571429Y-79163171D01*
X153571429Y-79163171D02*
X153500001Y-79020314D01*
X153500001Y-79020314D02*
X153500001Y-78591742D01*
X153500001Y-78591742D02*
X153571429Y-78448885D01*
X153571429Y-78448885D02*
X153642858Y-78377457D01*
X153642858Y-78377457D02*
X153785715Y-78306028D01*
X153785715Y-78306028D02*
X154071429Y-78306028D01*
X154071429Y-78306028D02*
X154214287Y-78377457D01*
X154785715Y-79234600D02*
X154928572Y-79306028D01*
X154928572Y-79306028D02*
X155214286Y-79306028D01*
X155214286Y-79306028D02*
X155357143Y-79234600D01*
X155357143Y-79234600D02*
X155428572Y-79091742D01*
X155428572Y-79091742D02*
X155428572Y-79020314D01*
X155428572Y-79020314D02*
X155357143Y-78877457D01*
X155357143Y-78877457D02*
X155214286Y-78806028D01*
X155214286Y-78806028D02*
X155000001Y-78806028D01*
X155000001Y-78806028D02*
X154857143Y-78734600D01*
X154857143Y-78734600D02*
X154785715Y-78591742D01*
X154785715Y-78591742D02*
X154785715Y-78520314D01*
X154785715Y-78520314D02*
X154857143Y-78377457D01*
X154857143Y-78377457D02*
X155000001Y-78306028D01*
X155000001Y-78306028D02*
X155214286Y-78306028D01*
X155214286Y-78306028D02*
X155357143Y-78377457D01*
X126785714Y-76806028D02*
X126785714Y-75306028D01*
X126785714Y-75877457D02*
X126928572Y-75806028D01*
X126928572Y-75806028D02*
X127214286Y-75806028D01*
X127214286Y-75806028D02*
X127357143Y-75877457D01*
X127357143Y-75877457D02*
X127428572Y-75948885D01*
X127428572Y-75948885D02*
X127500000Y-76091742D01*
X127500000Y-76091742D02*
X127500000Y-76520314D01*
X127500000Y-76520314D02*
X127428572Y-76663171D01*
X127428572Y-76663171D02*
X127357143Y-76734600D01*
X127357143Y-76734600D02*
X127214286Y-76806028D01*
X127214286Y-76806028D02*
X126928572Y-76806028D01*
X126928572Y-76806028D02*
X126785714Y-76734600D01*
X128000000Y-75806028D02*
X128357143Y-76806028D01*
X128714286Y-75806028D02*
X128357143Y-76806028D01*
X128357143Y-76806028D02*
X128214286Y-77163171D01*
X128214286Y-77163171D02*
X128142857Y-77234600D01*
X128142857Y-77234600D02*
X128000000Y-77306028D01*
X130928571Y-76020314D02*
X130428571Y-76020314D01*
X130428571Y-76806028D02*
X130428571Y-75306028D01*
X130428571Y-75306028D02*
X131142857Y-75306028D01*
X131500000Y-75306028D02*
X132357143Y-75306028D01*
X131928571Y-76806028D02*
X131928571Y-75306028D01*
X133714285Y-76663171D02*
X133642857Y-76734600D01*
X133642857Y-76734600D02*
X133428571Y-76806028D01*
X133428571Y-76806028D02*
X133285714Y-76806028D01*
X133285714Y-76806028D02*
X133071428Y-76734600D01*
X133071428Y-76734600D02*
X132928571Y-76591742D01*
X132928571Y-76591742D02*
X132857142Y-76448885D01*
X132857142Y-76448885D02*
X132785714Y-76163171D01*
X132785714Y-76163171D02*
X132785714Y-75948885D01*
X132785714Y-75948885D02*
X132857142Y-75663171D01*
X132857142Y-75663171D02*
X132928571Y-75520314D01*
X132928571Y-75520314D02*
X133071428Y-75377457D01*
X133071428Y-75377457D02*
X133285714Y-75306028D01*
X133285714Y-75306028D02*
X133428571Y-75306028D01*
X133428571Y-75306028D02*
X133642857Y-75377457D01*
X133642857Y-75377457D02*
X133714285Y-75448885D01*
X136142857Y-75806028D02*
X136142857Y-76806028D01*
X135785714Y-75234600D02*
X135428571Y-76306028D01*
X135428571Y-76306028D02*
X136357142Y-76306028D01*
X137714285Y-76806028D02*
X136857142Y-76806028D01*
X137285713Y-76806028D02*
X137285713Y-75306028D01*
X137285713Y-75306028D02*
X137142856Y-75520314D01*
X137142856Y-75520314D02*
X136999999Y-75663171D01*
X136999999Y-75663171D02*
X136857142Y-75734600D01*
X138214284Y-75306028D02*
X139142856Y-75306028D01*
X139142856Y-75306028D02*
X138642856Y-75877457D01*
X138642856Y-75877457D02*
X138857141Y-75877457D01*
X138857141Y-75877457D02*
X138999999Y-75948885D01*
X138999999Y-75948885D02*
X139071427Y-76020314D01*
X139071427Y-76020314D02*
X139142856Y-76163171D01*
X139142856Y-76163171D02*
X139142856Y-76520314D01*
X139142856Y-76520314D02*
X139071427Y-76663171D01*
X139071427Y-76663171D02*
X138999999Y-76734600D01*
X138999999Y-76734600D02*
X138857141Y-76806028D01*
X138857141Y-76806028D02*
X138428570Y-76806028D01*
X138428570Y-76806028D02*
X138285713Y-76734600D01*
X138285713Y-76734600D02*
X138214284Y-76663171D01*
X139642855Y-75306028D02*
X140642855Y-75306028D01*
X140642855Y-75306028D02*
X139999998Y-76806028D01*
X142357140Y-76806028D02*
X142357140Y-75306028D01*
X142999998Y-76734600D02*
X143142855Y-76806028D01*
X143142855Y-76806028D02*
X143428569Y-76806028D01*
X143428569Y-76806028D02*
X143571426Y-76734600D01*
X143571426Y-76734600D02*
X143642855Y-76591742D01*
X143642855Y-76591742D02*
X143642855Y-76520314D01*
X143642855Y-76520314D02*
X143571426Y-76377457D01*
X143571426Y-76377457D02*
X143428569Y-76306028D01*
X143428569Y-76306028D02*
X143214284Y-76306028D01*
X143214284Y-76306028D02*
X143071426Y-76234600D01*
X143071426Y-76234600D02*
X142999998Y-76091742D01*
X142999998Y-76091742D02*
X142999998Y-76020314D01*
X142999998Y-76020314D02*
X143071426Y-75877457D01*
X143071426Y-75877457D02*
X143214284Y-75806028D01*
X143214284Y-75806028D02*
X143428569Y-75806028D01*
X143428569Y-75806028D02*
X143571426Y-75877457D01*
X144499998Y-76806028D02*
X144357141Y-76734600D01*
X144357141Y-76734600D02*
X144285712Y-76591742D01*
X144285712Y-76591742D02*
X144285712Y-75306028D01*
X145714284Y-76806028D02*
X145714284Y-76020314D01*
X145714284Y-76020314D02*
X145642855Y-75877457D01*
X145642855Y-75877457D02*
X145499998Y-75806028D01*
X145499998Y-75806028D02*
X145214284Y-75806028D01*
X145214284Y-75806028D02*
X145071426Y-75877457D01*
X145714284Y-76734600D02*
X145571426Y-76806028D01*
X145571426Y-76806028D02*
X145214284Y-76806028D01*
X145214284Y-76806028D02*
X145071426Y-76734600D01*
X145071426Y-76734600D02*
X144999998Y-76591742D01*
X144999998Y-76591742D02*
X144999998Y-76448885D01*
X144999998Y-76448885D02*
X145071426Y-76306028D01*
X145071426Y-76306028D02*
X145214284Y-76234600D01*
X145214284Y-76234600D02*
X145571426Y-76234600D01*
X145571426Y-76234600D02*
X145714284Y-76163171D01*
X146428569Y-75806028D02*
X146428569Y-76806028D01*
X146428569Y-75948885D02*
X146499998Y-75877457D01*
X146499998Y-75877457D02*
X146642855Y-75806028D01*
X146642855Y-75806028D02*
X146857141Y-75806028D01*
X146857141Y-75806028D02*
X146999998Y-75877457D01*
X146999998Y-75877457D02*
X147071427Y-76020314D01*
X147071427Y-76020314D02*
X147071427Y-76806028D01*
X148428570Y-76806028D02*
X148428570Y-75306028D01*
X148428570Y-76734600D02*
X148285712Y-76806028D01*
X148285712Y-76806028D02*
X147999998Y-76806028D01*
X147999998Y-76806028D02*
X147857141Y-76734600D01*
X147857141Y-76734600D02*
X147785712Y-76663171D01*
X147785712Y-76663171D02*
X147714284Y-76520314D01*
X147714284Y-76520314D02*
X147714284Y-76091742D01*
X147714284Y-76091742D02*
X147785712Y-75948885D01*
X147785712Y-75948885D02*
X147857141Y-75877457D01*
X147857141Y-75877457D02*
X147999998Y-75806028D01*
X147999998Y-75806028D02*
X148285712Y-75806028D01*
X148285712Y-75806028D02*
X148428570Y-75877457D01*
X149142855Y-76806028D02*
X149142855Y-75306028D01*
X149142855Y-75877457D02*
X149285713Y-75806028D01*
X149285713Y-75806028D02*
X149571427Y-75806028D01*
X149571427Y-75806028D02*
X149714284Y-75877457D01*
X149714284Y-75877457D02*
X149785713Y-75948885D01*
X149785713Y-75948885D02*
X149857141Y-76091742D01*
X149857141Y-76091742D02*
X149857141Y-76520314D01*
X149857141Y-76520314D02*
X149785713Y-76663171D01*
X149785713Y-76663171D02*
X149714284Y-76734600D01*
X149714284Y-76734600D02*
X149571427Y-76806028D01*
X149571427Y-76806028D02*
X149285713Y-76806028D01*
X149285713Y-76806028D02*
X149142855Y-76734600D01*
X150714284Y-76806028D02*
X150571427Y-76734600D01*
X150571427Y-76734600D02*
X150499998Y-76663171D01*
X150499998Y-76663171D02*
X150428570Y-76520314D01*
X150428570Y-76520314D02*
X150428570Y-76091742D01*
X150428570Y-76091742D02*
X150499998Y-75948885D01*
X150499998Y-75948885D02*
X150571427Y-75877457D01*
X150571427Y-75877457D02*
X150714284Y-75806028D01*
X150714284Y-75806028D02*
X150928570Y-75806028D01*
X150928570Y-75806028D02*
X151071427Y-75877457D01*
X151071427Y-75877457D02*
X151142856Y-75948885D01*
X151142856Y-75948885D02*
X151214284Y-76091742D01*
X151214284Y-76091742D02*
X151214284Y-76520314D01*
X151214284Y-76520314D02*
X151142856Y-76663171D01*
X151142856Y-76663171D02*
X151071427Y-76734600D01*
X151071427Y-76734600D02*
X150928570Y-76806028D01*
X150928570Y-76806028D02*
X150714284Y-76806028D01*
X151642856Y-75806028D02*
X152214284Y-75806028D01*
X151857141Y-75306028D02*
X151857141Y-76591742D01*
X151857141Y-76591742D02*
X151928570Y-76734600D01*
X151928570Y-76734600D02*
X152071427Y-76806028D01*
X152071427Y-76806028D02*
X152214284Y-76806028D01*
X152642856Y-76734600D02*
X152785713Y-76806028D01*
X152785713Y-76806028D02*
X153071427Y-76806028D01*
X153071427Y-76806028D02*
X153214284Y-76734600D01*
X153214284Y-76734600D02*
X153285713Y-76591742D01*
X153285713Y-76591742D02*
X153285713Y-76520314D01*
X153285713Y-76520314D02*
X153214284Y-76377457D01*
X153214284Y-76377457D02*
X153071427Y-76306028D01*
X153071427Y-76306028D02*
X152857142Y-76306028D01*
X152857142Y-76306028D02*
X152714284Y-76234600D01*
X152714284Y-76234600D02*
X152642856Y-76091742D01*
X152642856Y-76091742D02*
X152642856Y-76020314D01*
X152642856Y-76020314D02*
X152714284Y-75877457D01*
X152714284Y-75877457D02*
X152857142Y-75806028D01*
X152857142Y-75806028D02*
X153071427Y-75806028D01*
X153071427Y-75806028D02*
X153214284Y-75877457D01*
D11*
X125547619Y-73804200D02*
X125904762Y-73923247D01*
X125904762Y-73923247D02*
X126500000Y-73923247D01*
X126500000Y-73923247D02*
X126738095Y-73804200D01*
X126738095Y-73804200D02*
X126857143Y-73685152D01*
X126857143Y-73685152D02*
X126976190Y-73447057D01*
X126976190Y-73447057D02*
X126976190Y-73208961D01*
X126976190Y-73208961D02*
X126857143Y-72970866D01*
X126857143Y-72970866D02*
X126738095Y-72851819D01*
X126738095Y-72851819D02*
X126500000Y-72732771D01*
X126500000Y-72732771D02*
X126023809Y-72613723D01*
X126023809Y-72613723D02*
X125785714Y-72494676D01*
X125785714Y-72494676D02*
X125666667Y-72375628D01*
X125666667Y-72375628D02*
X125547619Y-72137533D01*
X125547619Y-72137533D02*
X125547619Y-71899438D01*
X125547619Y-71899438D02*
X125666667Y-71661342D01*
X125666667Y-71661342D02*
X125785714Y-71542295D01*
X125785714Y-71542295D02*
X126023809Y-71423247D01*
X126023809Y-71423247D02*
X126619048Y-71423247D01*
X126619048Y-71423247D02*
X126976190Y-71542295D01*
X129000000Y-73804200D02*
X128761904Y-73923247D01*
X128761904Y-73923247D02*
X128285714Y-73923247D01*
X128285714Y-73923247D02*
X128047619Y-73804200D01*
X128047619Y-73804200D02*
X127928571Y-73566104D01*
X127928571Y-73566104D02*
X127928571Y-72613723D01*
X127928571Y-72613723D02*
X128047619Y-72375628D01*
X128047619Y-72375628D02*
X128285714Y-72256580D01*
X128285714Y-72256580D02*
X128761904Y-72256580D01*
X128761904Y-72256580D02*
X129000000Y-72375628D01*
X129000000Y-72375628D02*
X129119047Y-72613723D01*
X129119047Y-72613723D02*
X129119047Y-72851819D01*
X129119047Y-72851819D02*
X127928571Y-73089914D01*
X130190476Y-73923247D02*
X130190476Y-72256580D01*
X130190476Y-72732771D02*
X130309523Y-72494676D01*
X130309523Y-72494676D02*
X130428571Y-72375628D01*
X130428571Y-72375628D02*
X130666666Y-72256580D01*
X130666666Y-72256580D02*
X130904761Y-72256580D01*
X131499999Y-72256580D02*
X132095237Y-73923247D01*
X132095237Y-73923247D02*
X132690476Y-72256580D01*
X133999999Y-73923247D02*
X133761904Y-73804200D01*
X133761904Y-73804200D02*
X133642857Y-73685152D01*
X133642857Y-73685152D02*
X133523809Y-73447057D01*
X133523809Y-73447057D02*
X133523809Y-72732771D01*
X133523809Y-72732771D02*
X133642857Y-72494676D01*
X133642857Y-72494676D02*
X133761904Y-72375628D01*
X133761904Y-72375628D02*
X133999999Y-72256580D01*
X133999999Y-72256580D02*
X134357142Y-72256580D01*
X134357142Y-72256580D02*
X134595238Y-72375628D01*
X134595238Y-72375628D02*
X134714285Y-72494676D01*
X134714285Y-72494676D02*
X134833333Y-72732771D01*
X134833333Y-72732771D02*
X134833333Y-73447057D01*
X134833333Y-73447057D02*
X134714285Y-73685152D01*
X134714285Y-73685152D02*
X134595238Y-73804200D01*
X134595238Y-73804200D02*
X134357142Y-73923247D01*
X134357142Y-73923247D02*
X133999999Y-73923247D01*
X138880952Y-73804200D02*
X138642857Y-73923247D01*
X138642857Y-73923247D02*
X138166666Y-73923247D01*
X138166666Y-73923247D02*
X137928571Y-73804200D01*
X137928571Y-73804200D02*
X137809524Y-73685152D01*
X137809524Y-73685152D02*
X137690476Y-73447057D01*
X137690476Y-73447057D02*
X137690476Y-72732771D01*
X137690476Y-72732771D02*
X137809524Y-72494676D01*
X137809524Y-72494676D02*
X137928571Y-72375628D01*
X137928571Y-72375628D02*
X138166666Y-72256580D01*
X138166666Y-72256580D02*
X138642857Y-72256580D01*
X138642857Y-72256580D02*
X138880952Y-72375628D01*
X140309523Y-73923247D02*
X140071428Y-73804200D01*
X140071428Y-73804200D02*
X139952381Y-73685152D01*
X139952381Y-73685152D02*
X139833333Y-73447057D01*
X139833333Y-73447057D02*
X139833333Y-72732771D01*
X139833333Y-72732771D02*
X139952381Y-72494676D01*
X139952381Y-72494676D02*
X140071428Y-72375628D01*
X140071428Y-72375628D02*
X140309523Y-72256580D01*
X140309523Y-72256580D02*
X140666666Y-72256580D01*
X140666666Y-72256580D02*
X140904762Y-72375628D01*
X140904762Y-72375628D02*
X141023809Y-72494676D01*
X141023809Y-72494676D02*
X141142857Y-72732771D01*
X141142857Y-72732771D02*
X141142857Y-73447057D01*
X141142857Y-73447057D02*
X141023809Y-73685152D01*
X141023809Y-73685152D02*
X140904762Y-73804200D01*
X140904762Y-73804200D02*
X140666666Y-73923247D01*
X140666666Y-73923247D02*
X140309523Y-73923247D01*
X142214286Y-72256580D02*
X142214286Y-73923247D01*
X142214286Y-72494676D02*
X142333333Y-72375628D01*
X142333333Y-72375628D02*
X142571428Y-72256580D01*
X142571428Y-72256580D02*
X142928571Y-72256580D01*
X142928571Y-72256580D02*
X143166667Y-72375628D01*
X143166667Y-72375628D02*
X143285714Y-72613723D01*
X143285714Y-72613723D02*
X143285714Y-73923247D01*
X144119048Y-72256580D02*
X145071429Y-72256580D01*
X144476191Y-71423247D02*
X144476191Y-73566104D01*
X144476191Y-73566104D02*
X144595238Y-73804200D01*
X144595238Y-73804200D02*
X144833333Y-73923247D01*
X144833333Y-73923247D02*
X145071429Y-73923247D01*
X145904762Y-73923247D02*
X145904762Y-72256580D01*
X145904762Y-72732771D02*
X146023809Y-72494676D01*
X146023809Y-72494676D02*
X146142857Y-72375628D01*
X146142857Y-72375628D02*
X146380952Y-72256580D01*
X146380952Y-72256580D02*
X146619047Y-72256580D01*
X147809523Y-73923247D02*
X147571428Y-73804200D01*
X147571428Y-73804200D02*
X147452381Y-73685152D01*
X147452381Y-73685152D02*
X147333333Y-73447057D01*
X147333333Y-73447057D02*
X147333333Y-72732771D01*
X147333333Y-72732771D02*
X147452381Y-72494676D01*
X147452381Y-72494676D02*
X147571428Y-72375628D01*
X147571428Y-72375628D02*
X147809523Y-72256580D01*
X147809523Y-72256580D02*
X148166666Y-72256580D01*
X148166666Y-72256580D02*
X148404762Y-72375628D01*
X148404762Y-72375628D02*
X148523809Y-72494676D01*
X148523809Y-72494676D02*
X148642857Y-72732771D01*
X148642857Y-72732771D02*
X148642857Y-73447057D01*
X148642857Y-73447057D02*
X148523809Y-73685152D01*
X148523809Y-73685152D02*
X148404762Y-73804200D01*
X148404762Y-73804200D02*
X148166666Y-73923247D01*
X148166666Y-73923247D02*
X147809523Y-73923247D01*
X150071428Y-73923247D02*
X149833333Y-73804200D01*
X149833333Y-73804200D02*
X149714286Y-73566104D01*
X149714286Y-73566104D02*
X149714286Y-71423247D01*
X151380952Y-73923247D02*
X151142857Y-73804200D01*
X151142857Y-73804200D02*
X151023810Y-73566104D01*
X151023810Y-73566104D02*
X151023810Y-71423247D01*
X153285715Y-73804200D02*
X153047619Y-73923247D01*
X153047619Y-73923247D02*
X152571429Y-73923247D01*
X152571429Y-73923247D02*
X152333334Y-73804200D01*
X152333334Y-73804200D02*
X152214286Y-73566104D01*
X152214286Y-73566104D02*
X152214286Y-72613723D01*
X152214286Y-72613723D02*
X152333334Y-72375628D01*
X152333334Y-72375628D02*
X152571429Y-72256580D01*
X152571429Y-72256580D02*
X153047619Y-72256580D01*
X153047619Y-72256580D02*
X153285715Y-72375628D01*
X153285715Y-72375628D02*
X153404762Y-72613723D01*
X153404762Y-72613723D02*
X153404762Y-72851819D01*
X153404762Y-72851819D02*
X152214286Y-73089914D01*
X154476191Y-73923247D02*
X154476191Y-72256580D01*
X154476191Y-72732771D02*
X154595238Y-72494676D01*
X154595238Y-72494676D02*
X154714286Y-72375628D01*
X154714286Y-72375628D02*
X154952381Y-72256580D01*
X154952381Y-72256580D02*
X155190476Y-72256580D01*
%TO.C,kibuzzard-6642DB3A*%
G36*
X148171952Y-60016011D02*
G01*
X148254700Y-60057087D01*
X148308278Y-60127334D01*
X148326138Y-60228537D01*
X148259463Y-60394034D01*
X148171952Y-60437790D01*
X148042769Y-60452375D01*
X147978475Y-60452375D01*
X147978475Y-60009462D01*
X148026100Y-60003509D01*
X148066581Y-60002319D01*
X148171952Y-60016011D01*
G37*
G36*
X150655000Y-60026131D02*
G01*
X150725247Y-60135669D01*
X150758584Y-60298784D01*
X150764835Y-60396118D01*
X150766919Y-60500000D01*
X150764835Y-60603584D01*
X150758584Y-60700025D01*
X150725247Y-60863141D01*
X150653809Y-60973869D01*
X150533556Y-61014350D01*
X150412113Y-60973869D01*
X150341866Y-60864331D01*
X150308528Y-60701216D01*
X150302277Y-60603882D01*
X150300194Y-60500000D01*
X150302277Y-60396416D01*
X150308528Y-60299975D01*
X150341866Y-60136859D01*
X150412113Y-60026131D01*
X150533556Y-59985650D01*
X150655000Y-60026131D01*
G37*
G36*
X152353220Y-59240855D02*
G01*
X152476040Y-59259074D01*
X152596484Y-59289243D01*
X152713390Y-59331073D01*
X152825634Y-59384160D01*
X152932133Y-59447993D01*
X153031863Y-59521958D01*
X153123863Y-59605342D01*
X153207247Y-59697342D01*
X153281211Y-59797072D01*
X153345045Y-59903571D01*
X153398132Y-60015815D01*
X153439961Y-60132721D01*
X153470131Y-60253164D01*
X153488350Y-60375985D01*
X153494442Y-60500000D01*
X153488350Y-60624015D01*
X153470131Y-60746836D01*
X153439961Y-60867279D01*
X153398132Y-60984185D01*
X153345045Y-61096429D01*
X153281211Y-61202928D01*
X153207247Y-61302658D01*
X153123863Y-61394658D01*
X153031863Y-61478042D01*
X152932133Y-61552007D01*
X152825634Y-61615840D01*
X152713390Y-61668927D01*
X152596484Y-61710757D01*
X152476040Y-61740926D01*
X152353220Y-61759145D01*
X152229205Y-61765237D01*
X152229006Y-61765237D01*
X150535938Y-61765237D01*
X149190531Y-61765237D01*
X148721425Y-61765237D01*
X146516388Y-61765237D01*
X145728194Y-61765237D01*
X145270994Y-61765237D01*
X145270795Y-61765237D01*
X145270795Y-61765238D01*
X145146780Y-61759145D01*
X145023960Y-61740926D01*
X144903516Y-61710757D01*
X144786610Y-61668927D01*
X144674366Y-61615840D01*
X144567867Y-61552007D01*
X144468137Y-61478042D01*
X144376137Y-61394658D01*
X144292753Y-61302658D01*
X144218789Y-61202928D01*
X144191395Y-61157225D01*
X145270994Y-61157225D01*
X145435300Y-61229853D01*
X145563292Y-61259321D01*
X145728194Y-61269144D01*
X145895278Y-61256576D01*
X146031406Y-61218873D01*
X146136578Y-61156034D01*
X146237484Y-61019410D01*
X146271119Y-60835756D01*
X146260998Y-60724730D01*
X146230638Y-60634541D01*
X146127053Y-60501191D01*
X145988941Y-60415466D01*
X145844875Y-60357125D01*
X145753197Y-60321406D01*
X145669853Y-60277353D01*
X145609131Y-60220203D01*
X145585319Y-60145194D01*
X145611248Y-60051267D01*
X145689035Y-59994910D01*
X145818681Y-59976125D01*
X145986559Y-59999937D01*
X146118719Y-60057087D01*
X146204444Y-59830869D01*
X146040057Y-59764194D01*
X146516388Y-59764194D01*
X146516388Y-61238187D01*
X147461744Y-61238187D01*
X147685581Y-61238187D01*
X147978475Y-61238187D01*
X147978475Y-60695262D01*
X148130875Y-60695262D01*
X148211540Y-60830101D01*
X148286847Y-60963153D01*
X148355010Y-61097991D01*
X148414244Y-61238187D01*
X148721425Y-61238187D01*
X148653559Y-61082216D01*
X148571406Y-60917909D01*
X148483300Y-60760747D01*
X148397575Y-60623825D01*
X148501755Y-60556555D01*
X148571406Y-60464281D01*
X148610697Y-60353553D01*
X148623794Y-60230919D01*
X148613971Y-60115130D01*
X148584503Y-60015416D01*
X148471394Y-59864206D01*
X148390431Y-59812414D01*
X148295181Y-59776100D01*
X148234989Y-59764194D01*
X148778575Y-59764194D01*
X148805959Y-59897544D01*
X148845250Y-60064231D01*
X148876735Y-60188982D01*
X148910867Y-60318760D01*
X148947644Y-60453566D01*
X148986538Y-60591017D01*
X149027019Y-60728732D01*
X149069088Y-60866712D01*
X149131595Y-61063166D01*
X149190531Y-61238187D01*
X149492950Y-61238187D01*
X149538458Y-61111320D01*
X149582908Y-60981542D01*
X149626300Y-60848853D01*
X149667972Y-60715503D01*
X149707263Y-60583741D01*
X149731006Y-60500000D01*
X150002538Y-60500000D01*
X150011095Y-60678817D01*
X150036768Y-60834268D01*
X150079556Y-60966353D01*
X150139459Y-61075072D01*
X150244367Y-61182890D01*
X150376526Y-61247580D01*
X150535938Y-61269144D01*
X150691513Y-61247580D01*
X150821688Y-61182890D01*
X150926463Y-61075072D01*
X150986887Y-60966353D01*
X151030047Y-60834268D01*
X151055943Y-60678817D01*
X151064575Y-60500000D01*
X151056092Y-60321183D01*
X151030642Y-60165732D01*
X150988226Y-60033647D01*
X150929495Y-59926119D01*
X151231263Y-59926119D01*
X151376519Y-60130906D01*
X151526538Y-60018987D01*
X151671794Y-59985650D01*
X151809906Y-60034466D01*
X151864675Y-60173769D01*
X151820622Y-60299975D01*
X151708703Y-60428562D01*
X151638456Y-60496726D01*
X151563447Y-60567866D01*
X151488438Y-60643470D01*
X151418191Y-60725028D01*
X151356278Y-60813432D01*
X151306272Y-60909575D01*
X151273232Y-61014350D01*
X151262219Y-61128650D01*
X151261028Y-61178656D01*
X151266981Y-61238187D01*
X152229006Y-61238187D01*
X152229006Y-60995300D01*
X151595594Y-60995300D01*
X151620597Y-60916719D01*
X151681319Y-60832184D01*
X151757519Y-60751222D01*
X151828956Y-60683356D01*
X151950400Y-60564294D01*
X152057556Y-60435706D01*
X152133756Y-60298784D01*
X152162331Y-60152337D01*
X152124231Y-59967791D01*
X152021838Y-59835631D01*
X151874200Y-59757050D01*
X151700369Y-59730856D01*
X151576246Y-59742762D01*
X151451528Y-59778481D01*
X151333954Y-59839203D01*
X151231263Y-59926119D01*
X150929495Y-59926119D01*
X150928844Y-59924928D01*
X150824598Y-59817110D01*
X150692835Y-59752420D01*
X150533556Y-59730856D01*
X150379040Y-59752420D01*
X150248865Y-59817110D01*
X150143031Y-59924928D01*
X150081565Y-60033647D01*
X150037661Y-60165732D01*
X150011318Y-60321183D01*
X150002538Y-60500000D01*
X149731006Y-60500000D01*
X149744172Y-60453566D01*
X149794773Y-60263959D01*
X149839422Y-60083281D01*
X149877820Y-59915403D01*
X149909669Y-59764194D01*
X149602488Y-59764194D01*
X149581056Y-59888019D01*
X149554863Y-60030894D01*
X149525097Y-60185377D01*
X149492950Y-60344028D01*
X149458422Y-60503572D01*
X149421513Y-60660734D01*
X149383413Y-60808074D01*
X149345313Y-60938150D01*
X149306915Y-60806288D01*
X149267922Y-60658353D01*
X149229822Y-60501191D01*
X149194103Y-60341647D01*
X149161063Y-60183294D01*
X149131000Y-60029703D01*
X149105997Y-59887721D01*
X149088138Y-59764194D01*
X148778575Y-59764194D01*
X148234989Y-59764194D01*
X148186834Y-59754669D01*
X148066581Y-59747525D01*
X147983238Y-59749906D01*
X147883225Y-59755859D01*
X147779641Y-59767766D01*
X147685581Y-59785625D01*
X147685581Y-61238187D01*
X147461744Y-61238187D01*
X147461744Y-60995300D01*
X146809281Y-60995300D01*
X146809281Y-60580962D01*
X147330775Y-60580962D01*
X147330775Y-60338075D01*
X146809281Y-60338075D01*
X146809281Y-60007081D01*
X147409356Y-60007081D01*
X147409356Y-59764194D01*
X146516388Y-59764194D01*
X146040057Y-59764194D01*
X146034184Y-59761812D01*
X145924349Y-59738595D01*
X145797250Y-59730856D01*
X145651332Y-59743821D01*
X145527904Y-59782715D01*
X145426966Y-59847537D01*
X145326060Y-59986841D01*
X145292425Y-60171387D01*
X145330525Y-60346409D01*
X145426966Y-60464281D01*
X145556744Y-60542862D01*
X145694856Y-60597631D01*
X145794869Y-60639303D01*
X145885356Y-60689309D01*
X145952031Y-60752412D01*
X145978225Y-60833375D01*
X145967509Y-60903622D01*
X145928219Y-60965534D01*
X145850828Y-61008397D01*
X145728194Y-61023875D01*
X145609429Y-61015541D01*
X145510309Y-60990537D01*
X145356719Y-60919100D01*
X145270994Y-61157225D01*
X144191395Y-61157225D01*
X144154955Y-61096429D01*
X144101868Y-60984185D01*
X144060039Y-60867279D01*
X144029869Y-60746836D01*
X144011650Y-60624015D01*
X144005558Y-60500000D01*
X144011650Y-60375985D01*
X144029869Y-60253164D01*
X144060039Y-60132721D01*
X144101868Y-60015815D01*
X144154955Y-59903571D01*
X144218789Y-59797072D01*
X144292753Y-59697342D01*
X144376137Y-59605342D01*
X144468137Y-59521958D01*
X144567867Y-59447993D01*
X144674366Y-59384160D01*
X144786610Y-59331073D01*
X144903516Y-59289243D01*
X145023960Y-59259074D01*
X145146780Y-59240855D01*
X145270795Y-59234762D01*
X145270994Y-59234762D01*
X152229006Y-59234762D01*
X152229205Y-59234762D01*
X152353220Y-59240855D01*
G37*
%TO.C,kibuzzard-66574FE6*%
G36*
X151294595Y-66234763D02*
G01*
X151418610Y-66240855D01*
X151541431Y-66259074D01*
X151661874Y-66289243D01*
X151778781Y-66331073D01*
X151891024Y-66384160D01*
X151997524Y-66447993D01*
X152097253Y-66521958D01*
X152189253Y-66605342D01*
X152272637Y-66697342D01*
X152346602Y-66797072D01*
X152410435Y-66903571D01*
X152463522Y-67015815D01*
X152505352Y-67132721D01*
X152535522Y-67253164D01*
X152553740Y-67375985D01*
X152559833Y-67500000D01*
X152553740Y-67624015D01*
X152535522Y-67746836D01*
X152505352Y-67867279D01*
X152463522Y-67984185D01*
X152410435Y-68096429D01*
X152346602Y-68202928D01*
X152272637Y-68302658D01*
X152189253Y-68394658D01*
X152097253Y-68478042D01*
X151997524Y-68552007D01*
X151891024Y-68615840D01*
X151778781Y-68668927D01*
X151661874Y-68710757D01*
X151541431Y-68740926D01*
X151418610Y-68759145D01*
X151294595Y-68765237D01*
X151294397Y-68765237D01*
X150751472Y-68765237D01*
X148539291Y-68765237D01*
X146358066Y-68765237D01*
X145705603Y-68765237D01*
X145705405Y-68765237D01*
X145705405Y-68765238D01*
X145581390Y-68759145D01*
X145458569Y-68740926D01*
X145338126Y-68710757D01*
X145221219Y-68668927D01*
X145108976Y-68615840D01*
X145002476Y-68552007D01*
X144902747Y-68478042D01*
X144810747Y-68394658D01*
X144727363Y-68302658D01*
X144653398Y-68202928D01*
X144626005Y-68157225D01*
X150294272Y-68157225D01*
X150458578Y-68229853D01*
X150586570Y-68259321D01*
X150751472Y-68269144D01*
X150918556Y-68256576D01*
X151054684Y-68218873D01*
X151159856Y-68156034D01*
X151260762Y-68019410D01*
X151294397Y-67835756D01*
X151284277Y-67724730D01*
X151253916Y-67634541D01*
X151150331Y-67501191D01*
X151012219Y-67415466D01*
X150868153Y-67357125D01*
X150776475Y-67321406D01*
X150693131Y-67277353D01*
X150632409Y-67220203D01*
X150608597Y-67145194D01*
X150634526Y-67051267D01*
X150712314Y-66994910D01*
X150841959Y-66976125D01*
X151009838Y-66999937D01*
X151141997Y-67057087D01*
X151227722Y-66830869D01*
X151057463Y-66761812D01*
X150947627Y-66738595D01*
X150820528Y-66730856D01*
X150674610Y-66743821D01*
X150551182Y-66782715D01*
X150450244Y-66847537D01*
X150349338Y-66986841D01*
X150315703Y-67171387D01*
X150353803Y-67346409D01*
X150450244Y-67464281D01*
X150580022Y-67542862D01*
X150718134Y-67597631D01*
X150818147Y-67639303D01*
X150908634Y-67689309D01*
X150975309Y-67752412D01*
X151001503Y-67833375D01*
X150990788Y-67903622D01*
X150951497Y-67965534D01*
X150874106Y-68008397D01*
X150751472Y-68023875D01*
X150632707Y-68015541D01*
X150533588Y-67990537D01*
X150379997Y-67919100D01*
X150294272Y-68157225D01*
X144626005Y-68157225D01*
X144589565Y-68096429D01*
X144536478Y-67984185D01*
X144494648Y-67867279D01*
X144464478Y-67746836D01*
X144446260Y-67624015D01*
X144440167Y-67500000D01*
X144440986Y-67483331D01*
X145705603Y-67483331D01*
X145705603Y-67771462D01*
X146358066Y-67771462D01*
X146358066Y-67733362D01*
X147913022Y-67733362D01*
X148286878Y-67733362D01*
X148286878Y-68147700D01*
X148539291Y-68147700D01*
X148539291Y-67733362D01*
X148913147Y-67733362D01*
X148913147Y-67492856D01*
X148539291Y-67492856D01*
X148539291Y-67078519D01*
X148286878Y-67078519D01*
X148286878Y-67492856D01*
X147913022Y-67492856D01*
X147913022Y-67733362D01*
X146358066Y-67733362D01*
X146358066Y-67483331D01*
X145705603Y-67483331D01*
X144440986Y-67483331D01*
X144446260Y-67375985D01*
X144464478Y-67253164D01*
X144494648Y-67132721D01*
X144536478Y-67015815D01*
X144589565Y-66903571D01*
X144653398Y-66797072D01*
X144727363Y-66697342D01*
X144810747Y-66605342D01*
X144902747Y-66521958D01*
X145002476Y-66447993D01*
X145108976Y-66384160D01*
X145221219Y-66331073D01*
X145338126Y-66289243D01*
X145458569Y-66259074D01*
X145581390Y-66240855D01*
X145705405Y-66234762D01*
X145705603Y-66234762D01*
X151294397Y-66234762D01*
X151294595Y-66234762D01*
X151294595Y-66234763D01*
G37*
%TO.C,kibuzzard-6642DA85*%
G36*
X102967728Y-100276131D02*
G01*
X103037975Y-100385669D01*
X103071313Y-100548784D01*
X103077563Y-100646118D01*
X103079647Y-100750000D01*
X103077563Y-100853584D01*
X103071313Y-100950025D01*
X103037975Y-101113141D01*
X102966537Y-101223869D01*
X102846284Y-101264350D01*
X102724841Y-101223869D01*
X102654594Y-101114331D01*
X102621256Y-100951216D01*
X102615005Y-100853882D01*
X102612922Y-100750000D01*
X102615005Y-100646416D01*
X102621256Y-100549975D01*
X102654594Y-100386859D01*
X102724841Y-100276131D01*
X102846284Y-100235650D01*
X102967728Y-100276131D01*
G37*
G36*
X105808948Y-99490855D02*
G01*
X105931768Y-99509074D01*
X106052212Y-99539243D01*
X106169118Y-99581073D01*
X106281362Y-99634160D01*
X106387861Y-99697993D01*
X106487591Y-99771958D01*
X106579591Y-99855342D01*
X106662975Y-99947342D01*
X106736939Y-100047072D01*
X106800773Y-100153571D01*
X106853860Y-100265815D01*
X106895690Y-100382721D01*
X106925859Y-100503164D01*
X106944078Y-100625985D01*
X106950170Y-100750000D01*
X106944078Y-100874015D01*
X106925859Y-100996836D01*
X106895690Y-101117279D01*
X106853860Y-101234185D01*
X106800773Y-101346429D01*
X106736939Y-101452928D01*
X106662975Y-101552658D01*
X106579591Y-101644658D01*
X106487591Y-101728042D01*
X106387861Y-101802007D01*
X106281362Y-101865840D01*
X106169118Y-101918927D01*
X106052212Y-101960757D01*
X105931768Y-101990926D01*
X105808948Y-102009145D01*
X105684933Y-102015237D01*
X105684734Y-102015237D01*
X104782241Y-102015237D01*
X103591616Y-102015237D01*
X102848666Y-102015237D01*
X102315266Y-102015237D01*
X102315067Y-102015237D01*
X102315067Y-102015238D01*
X102191052Y-102009145D01*
X102068232Y-101990926D01*
X101947788Y-101960757D01*
X101830882Y-101918927D01*
X101718638Y-101865840D01*
X101612139Y-101802007D01*
X101512409Y-101728042D01*
X101420409Y-101644658D01*
X101337025Y-101552658D01*
X101263061Y-101452928D01*
X101199227Y-101346429D01*
X101146140Y-101234185D01*
X101104310Y-101117279D01*
X101074141Y-100996836D01*
X101055922Y-100874015D01*
X101049830Y-100750000D01*
X102315266Y-100750000D01*
X102323823Y-100928817D01*
X102349496Y-101084268D01*
X102392284Y-101216353D01*
X102452188Y-101325072D01*
X102557095Y-101432890D01*
X102689254Y-101497580D01*
X102848666Y-101519144D01*
X103004241Y-101497580D01*
X103134416Y-101432890D01*
X103239191Y-101325072D01*
X103299615Y-101216353D01*
X103342775Y-101084268D01*
X103368671Y-100928817D01*
X103377303Y-100750000D01*
X103368820Y-100571183D01*
X103343370Y-100415732D01*
X103300954Y-100283647D01*
X103241572Y-100174928D01*
X103137326Y-100067110D01*
X103029546Y-100014194D01*
X103591616Y-100014194D01*
X103591616Y-101488187D01*
X103884509Y-101488187D01*
X103884509Y-100857156D01*
X104417909Y-100857156D01*
X104417909Y-100614269D01*
X103884509Y-100614269D01*
X103884509Y-100257081D01*
X104494109Y-100257081D01*
X104494109Y-100014194D01*
X104782241Y-100014194D01*
X104782241Y-101488187D01*
X105075134Y-101488187D01*
X105075134Y-100857156D01*
X105608534Y-100857156D01*
X105608534Y-100614269D01*
X105075134Y-100614269D01*
X105075134Y-100257081D01*
X105684734Y-100257081D01*
X105684734Y-100014194D01*
X104782241Y-100014194D01*
X104494109Y-100014194D01*
X103591616Y-100014194D01*
X103029546Y-100014194D01*
X103005564Y-100002420D01*
X102846284Y-99980856D01*
X102691768Y-100002420D01*
X102561593Y-100067110D01*
X102455759Y-100174928D01*
X102394293Y-100283647D01*
X102350389Y-100415732D01*
X102324046Y-100571183D01*
X102315266Y-100750000D01*
X101049830Y-100750000D01*
X101055922Y-100625985D01*
X101074141Y-100503164D01*
X101104310Y-100382721D01*
X101146140Y-100265815D01*
X101199227Y-100153571D01*
X101263061Y-100047072D01*
X101337025Y-99947342D01*
X101420409Y-99855342D01*
X101512409Y-99771958D01*
X101612139Y-99697993D01*
X101718638Y-99634160D01*
X101830882Y-99581073D01*
X101947788Y-99539243D01*
X102068232Y-99509074D01*
X102191052Y-99490855D01*
X102315067Y-99484762D01*
X102315266Y-99484762D01*
X105684734Y-99484762D01*
X105684933Y-99484762D01*
X105808948Y-99490855D01*
G37*
%TO.C,kibuzzard-6642DA55*%
G36*
X162539291Y-117541609D02*
G01*
X162636922Y-117652338D01*
X162686928Y-117811881D01*
X162701216Y-117997619D01*
X162696751Y-118102691D01*
X162683356Y-118198834D01*
X162623825Y-118357188D01*
X162514287Y-118461962D01*
X162346409Y-118500062D01*
X162320216Y-118500062D01*
X162294022Y-118497681D01*
X162294022Y-117507081D01*
X162336884Y-117501128D01*
X162379747Y-117499938D01*
X162539291Y-117541609D01*
G37*
G36*
X163372336Y-116755074D02*
G01*
X163493770Y-116773087D01*
X163612853Y-116802915D01*
X163728440Y-116844273D01*
X163839415Y-116896761D01*
X163944712Y-116959873D01*
X164043316Y-117033003D01*
X164134277Y-117115445D01*
X164216719Y-117206406D01*
X164289849Y-117305009D01*
X164352961Y-117410306D01*
X164405449Y-117521282D01*
X164446806Y-117636868D01*
X164476635Y-117755952D01*
X164494648Y-117877385D01*
X164500672Y-118000000D01*
X164494648Y-118122615D01*
X164476635Y-118244048D01*
X164446806Y-118363132D01*
X164405449Y-118478718D01*
X164352961Y-118589694D01*
X164289849Y-118694991D01*
X164216719Y-118793594D01*
X164134277Y-118884555D01*
X164043316Y-118966997D01*
X163944712Y-119040127D01*
X163839415Y-119103239D01*
X163728440Y-119155727D01*
X163612853Y-119197085D01*
X163493770Y-119226913D01*
X163372336Y-119244926D01*
X163249722Y-119250950D01*
X163249523Y-119250950D01*
X162315453Y-119250950D01*
X161750477Y-119250950D01*
X161750278Y-119250950D01*
X161627664Y-119244926D01*
X161506230Y-119226913D01*
X161387147Y-119197085D01*
X161271560Y-119155727D01*
X161160585Y-119103239D01*
X161055288Y-119040127D01*
X160956684Y-118966997D01*
X160865723Y-118884555D01*
X160783281Y-118793594D01*
X160728060Y-118719138D01*
X162001128Y-118719138D01*
X162161862Y-118746522D01*
X162315453Y-118754856D01*
X162459221Y-118744438D01*
X162590487Y-118713184D01*
X162706871Y-118659309D01*
X162805991Y-118581025D01*
X162886655Y-118477143D01*
X162947675Y-118346472D01*
X162986073Y-118187226D01*
X162998872Y-117997619D01*
X162987263Y-117812179D01*
X162952437Y-117655909D01*
X162896776Y-117526727D01*
X162822659Y-117422547D01*
X162730088Y-117343073D01*
X162619062Y-117288006D01*
X162492559Y-117255859D01*
X162353553Y-117245144D01*
X162189247Y-117252288D01*
X162001128Y-117280863D01*
X162001128Y-118719138D01*
X160728060Y-118719138D01*
X160710151Y-118694991D01*
X160647039Y-118589694D01*
X160594551Y-118478718D01*
X160553194Y-118363132D01*
X160523365Y-118244048D01*
X160505352Y-118122615D01*
X160499328Y-118000000D01*
X160505352Y-117877385D01*
X160523365Y-117755952D01*
X160553194Y-117636868D01*
X160594551Y-117521282D01*
X160647039Y-117410306D01*
X160710151Y-117305009D01*
X160783281Y-117206406D01*
X160865723Y-117115445D01*
X160956684Y-117033003D01*
X161055288Y-116959873D01*
X161160585Y-116896761D01*
X161271560Y-116844273D01*
X161387147Y-116802915D01*
X161506230Y-116773087D01*
X161627664Y-116755074D01*
X161750278Y-116749050D01*
X161750477Y-116749050D01*
X163249523Y-116749050D01*
X163249722Y-116749050D01*
X163372336Y-116755074D01*
G37*
%TO.C,kibuzzard-6642DA94*%
G36*
X103548753Y-88776131D02*
G01*
X103619000Y-88885669D01*
X103652338Y-89048784D01*
X103658588Y-89146118D01*
X103660672Y-89250000D01*
X103658588Y-89353584D01*
X103652338Y-89450025D01*
X103619000Y-89613141D01*
X103547563Y-89723869D01*
X103427309Y-89764350D01*
X103305866Y-89723869D01*
X103235619Y-89614331D01*
X103202281Y-89451216D01*
X103196030Y-89353882D01*
X103193947Y-89250000D01*
X103196030Y-89146416D01*
X103202281Y-89049975D01*
X103235619Y-88886859D01*
X103305866Y-88776131D01*
X103427309Y-88735650D01*
X103548753Y-88776131D01*
G37*
G36*
X105227923Y-87990855D02*
G01*
X105350743Y-88009074D01*
X105471187Y-88039243D01*
X105588093Y-88081073D01*
X105700337Y-88134160D01*
X105806836Y-88197993D01*
X105906566Y-88271958D01*
X105998566Y-88355342D01*
X106081950Y-88447342D01*
X106155914Y-88547072D01*
X106219748Y-88653571D01*
X106272835Y-88765815D01*
X106314665Y-88882721D01*
X106344834Y-89003164D01*
X106363053Y-89125985D01*
X106369145Y-89250000D01*
X106363053Y-89374015D01*
X106344834Y-89496836D01*
X106314665Y-89617279D01*
X106272835Y-89734185D01*
X106219748Y-89846429D01*
X106155914Y-89952928D01*
X106081950Y-90052658D01*
X105998566Y-90144658D01*
X105906566Y-90228042D01*
X105806836Y-90302007D01*
X105700337Y-90365840D01*
X105588093Y-90418927D01*
X105471187Y-90460757D01*
X105350743Y-90490926D01*
X105227923Y-90509145D01*
X105103908Y-90515237D01*
X105103709Y-90515237D01*
X104867966Y-90515237D01*
X103429691Y-90515237D01*
X102896291Y-90515237D01*
X102896092Y-90515237D01*
X102896092Y-90515238D01*
X102772077Y-90509145D01*
X102649257Y-90490926D01*
X102528813Y-90460757D01*
X102411907Y-90418927D01*
X102299663Y-90365840D01*
X102193164Y-90302007D01*
X102093434Y-90228042D01*
X102001434Y-90144658D01*
X101918050Y-90052658D01*
X101844086Y-89952928D01*
X101780252Y-89846429D01*
X101727165Y-89734185D01*
X101685335Y-89617279D01*
X101655166Y-89496836D01*
X101636947Y-89374015D01*
X101630855Y-89250000D01*
X102896291Y-89250000D01*
X102904848Y-89428817D01*
X102930521Y-89584268D01*
X102973309Y-89716353D01*
X103033213Y-89825072D01*
X103138120Y-89932890D01*
X103270279Y-89997580D01*
X103429691Y-90019144D01*
X103585266Y-89997580D01*
X103715441Y-89932890D01*
X103820216Y-89825072D01*
X103880640Y-89716353D01*
X103923800Y-89584268D01*
X103949696Y-89428817D01*
X103958328Y-89250000D01*
X103949845Y-89071183D01*
X103924395Y-88915732D01*
X103881979Y-88783647D01*
X103822597Y-88674928D01*
X103718351Y-88567110D01*
X103610571Y-88514194D01*
X104132159Y-88514194D01*
X104132159Y-89988187D01*
X104396478Y-89988187D01*
X104396478Y-89009494D01*
X104484981Y-89172874D01*
X104569516Y-89335990D01*
X104650081Y-89498841D01*
X104726678Y-89661692D01*
X104799306Y-89824807D01*
X104867966Y-89988187D01*
X105103709Y-89988187D01*
X105103709Y-88514194D01*
X104839391Y-88514194D01*
X104839391Y-89421450D01*
X104797421Y-89328581D01*
X104747713Y-89221425D01*
X104691753Y-89105339D01*
X104631031Y-88985681D01*
X104567035Y-88863940D01*
X104501253Y-88741603D01*
X104434578Y-88623434D01*
X104367903Y-88514194D01*
X104132159Y-88514194D01*
X103610571Y-88514194D01*
X103586589Y-88502420D01*
X103427309Y-88480856D01*
X103272793Y-88502420D01*
X103142618Y-88567110D01*
X103036784Y-88674928D01*
X102975318Y-88783647D01*
X102931414Y-88915732D01*
X102905071Y-89071183D01*
X102896291Y-89250000D01*
X101630855Y-89250000D01*
X101636947Y-89125985D01*
X101655166Y-89003164D01*
X101685335Y-88882721D01*
X101727165Y-88765815D01*
X101780252Y-88653571D01*
X101844086Y-88547072D01*
X101918050Y-88447342D01*
X102001434Y-88355342D01*
X102093434Y-88271958D01*
X102193164Y-88197993D01*
X102299663Y-88134160D01*
X102411907Y-88081073D01*
X102528813Y-88039243D01*
X102649257Y-88009074D01*
X102772077Y-87990855D01*
X102896092Y-87984762D01*
X102896291Y-87984762D01*
X105103709Y-87984762D01*
X105103908Y-87984762D01*
X105227923Y-87990855D01*
G37*
%TO.C,kibuzzard-6642DB1F*%
G36*
X130925523Y-60016011D02*
G01*
X131008272Y-60057087D01*
X131061850Y-60127334D01*
X131079709Y-60228537D01*
X131013034Y-60394034D01*
X130925523Y-60437790D01*
X130796341Y-60452375D01*
X130732047Y-60452375D01*
X130732047Y-60009462D01*
X130779672Y-60003509D01*
X130820153Y-60002319D01*
X130925523Y-60016011D01*
G37*
G36*
X133408572Y-60026131D02*
G01*
X133478819Y-60135669D01*
X133512156Y-60298784D01*
X133518407Y-60396118D01*
X133520491Y-60500000D01*
X133518407Y-60603584D01*
X133512156Y-60700025D01*
X133478819Y-60863141D01*
X133407381Y-60973869D01*
X133287128Y-61014350D01*
X133165684Y-60973869D01*
X133095438Y-60864331D01*
X133062100Y-60701216D01*
X133055849Y-60603882D01*
X133053766Y-60500000D01*
X133055849Y-60396416D01*
X133062100Y-60299975D01*
X133095438Y-60136859D01*
X133165684Y-60026131D01*
X133287128Y-59985650D01*
X133408572Y-60026131D01*
G37*
G36*
X135099648Y-59240855D02*
G01*
X135222468Y-59259074D01*
X135342912Y-59289243D01*
X135459818Y-59331073D01*
X135572062Y-59384160D01*
X135678561Y-59447993D01*
X135778291Y-59521958D01*
X135870291Y-59605342D01*
X135953675Y-59697342D01*
X136027639Y-59797072D01*
X136091473Y-59903571D01*
X136144560Y-60015815D01*
X136186390Y-60132721D01*
X136216559Y-60253164D01*
X136234778Y-60375985D01*
X136240870Y-60500000D01*
X136234778Y-60624015D01*
X136216559Y-60746836D01*
X136186390Y-60867279D01*
X136144560Y-60984185D01*
X136091473Y-61096429D01*
X136027639Y-61202928D01*
X135953675Y-61302658D01*
X135870291Y-61394658D01*
X135778291Y-61478042D01*
X135678561Y-61552007D01*
X135572062Y-61615840D01*
X135459818Y-61668927D01*
X135342912Y-61710757D01*
X135222468Y-61740926D01*
X135099648Y-61759145D01*
X134975633Y-61765237D01*
X134975434Y-61765237D01*
X133289509Y-61765237D01*
X131944103Y-61765237D01*
X131474997Y-61765237D01*
X129269959Y-61765237D01*
X128481766Y-61765237D01*
X128024566Y-61765237D01*
X128024367Y-61765237D01*
X128024367Y-61765238D01*
X127900352Y-61759145D01*
X127777532Y-61740926D01*
X127657088Y-61710757D01*
X127540182Y-61668927D01*
X127427938Y-61615840D01*
X127321439Y-61552007D01*
X127221709Y-61478042D01*
X127129709Y-61394658D01*
X127046325Y-61302658D01*
X126972361Y-61202928D01*
X126944967Y-61157225D01*
X128024566Y-61157225D01*
X128188872Y-61229853D01*
X128316864Y-61259321D01*
X128481766Y-61269144D01*
X128648850Y-61256576D01*
X128784978Y-61218873D01*
X128890150Y-61156034D01*
X128991055Y-61019410D01*
X129024691Y-60835756D01*
X129014570Y-60724730D01*
X128984209Y-60634541D01*
X128880625Y-60501191D01*
X128742513Y-60415466D01*
X128598447Y-60357125D01*
X128506769Y-60321406D01*
X128423425Y-60277353D01*
X128362703Y-60220203D01*
X128338891Y-60145194D01*
X128364820Y-60051267D01*
X128442607Y-59994910D01*
X128572253Y-59976125D01*
X128740131Y-59999937D01*
X128872291Y-60057087D01*
X128958016Y-59830869D01*
X128793629Y-59764194D01*
X129269959Y-59764194D01*
X129269959Y-61238187D01*
X130215316Y-61238187D01*
X130439153Y-61238187D01*
X130732047Y-61238187D01*
X130732047Y-60695262D01*
X130884447Y-60695262D01*
X130965112Y-60830101D01*
X131040419Y-60963153D01*
X131108582Y-61097991D01*
X131167816Y-61238187D01*
X131474997Y-61238187D01*
X131407131Y-61082216D01*
X131324978Y-60917909D01*
X131236872Y-60760747D01*
X131151147Y-60623825D01*
X131255327Y-60556555D01*
X131324978Y-60464281D01*
X131364269Y-60353553D01*
X131377366Y-60230919D01*
X131367543Y-60115130D01*
X131338075Y-60015416D01*
X131224966Y-59864206D01*
X131144003Y-59812414D01*
X131048753Y-59776100D01*
X130988561Y-59764194D01*
X131532147Y-59764194D01*
X131559531Y-59897544D01*
X131598822Y-60064231D01*
X131630307Y-60188982D01*
X131664439Y-60318760D01*
X131701216Y-60453566D01*
X131740109Y-60591017D01*
X131780591Y-60728732D01*
X131822659Y-60866712D01*
X131885167Y-61063166D01*
X131944103Y-61238187D01*
X132246522Y-61238187D01*
X132292030Y-61111320D01*
X132336480Y-60981542D01*
X132379872Y-60848853D01*
X132421544Y-60715503D01*
X132460834Y-60583741D01*
X132484578Y-60500000D01*
X132756109Y-60500000D01*
X132764667Y-60678817D01*
X132790340Y-60834268D01*
X132833128Y-60966353D01*
X132893031Y-61075072D01*
X132997939Y-61182890D01*
X133130098Y-61247580D01*
X133289509Y-61269144D01*
X133445084Y-61247580D01*
X133575259Y-61182890D01*
X133680034Y-61075072D01*
X133740459Y-60966353D01*
X133783619Y-60834268D01*
X133809515Y-60678817D01*
X133818147Y-60500000D01*
X133809664Y-60321183D01*
X133784214Y-60165732D01*
X133753913Y-60071375D01*
X133996741Y-60071375D01*
X134091991Y-60314262D01*
X134237247Y-60255922D01*
X134389647Y-60171387D01*
X134389647Y-60995300D01*
X134080084Y-60995300D01*
X134080084Y-61238187D01*
X134975434Y-61238187D01*
X134975434Y-60995300D01*
X134682541Y-60995300D01*
X134682541Y-59764194D01*
X134482516Y-59764194D01*
X134380122Y-59857062D01*
X134253916Y-59942787D01*
X134120566Y-60016606D01*
X133996741Y-60071375D01*
X133753913Y-60071375D01*
X133741798Y-60033647D01*
X133682416Y-59924928D01*
X133578170Y-59817110D01*
X133446407Y-59752420D01*
X133287128Y-59730856D01*
X133132611Y-59752420D01*
X133002436Y-59817110D01*
X132896603Y-59924928D01*
X132835137Y-60033647D01*
X132791233Y-60165732D01*
X132764890Y-60321183D01*
X132756109Y-60500000D01*
X132484578Y-60500000D01*
X132497744Y-60453566D01*
X132548345Y-60263959D01*
X132592994Y-60083281D01*
X132631391Y-59915403D01*
X132663241Y-59764194D01*
X132356059Y-59764194D01*
X132334628Y-59888019D01*
X132308434Y-60030894D01*
X132278669Y-60185377D01*
X132246522Y-60344028D01*
X132211994Y-60503572D01*
X132175084Y-60660734D01*
X132136984Y-60808074D01*
X132098884Y-60938150D01*
X132060487Y-60806288D01*
X132021494Y-60658353D01*
X131983394Y-60501191D01*
X131947675Y-60341647D01*
X131914635Y-60183294D01*
X131884572Y-60029703D01*
X131859569Y-59887721D01*
X131841709Y-59764194D01*
X131532147Y-59764194D01*
X130988561Y-59764194D01*
X130940406Y-59754669D01*
X130820153Y-59747525D01*
X130736809Y-59749906D01*
X130636797Y-59755859D01*
X130533213Y-59767766D01*
X130439153Y-59785625D01*
X130439153Y-61238187D01*
X130215316Y-61238187D01*
X130215316Y-60995300D01*
X129562853Y-60995300D01*
X129562853Y-60580962D01*
X130084347Y-60580962D01*
X130084347Y-60338075D01*
X129562853Y-60338075D01*
X129562853Y-60007081D01*
X130162928Y-60007081D01*
X130162928Y-59764194D01*
X129269959Y-59764194D01*
X128793629Y-59764194D01*
X128787756Y-59761812D01*
X128677921Y-59738595D01*
X128550822Y-59730856D01*
X128404904Y-59743821D01*
X128281476Y-59782715D01*
X128180538Y-59847537D01*
X128079632Y-59986841D01*
X128045997Y-60171387D01*
X128084097Y-60346409D01*
X128180538Y-60464281D01*
X128310316Y-60542862D01*
X128448428Y-60597631D01*
X128548441Y-60639303D01*
X128638928Y-60689309D01*
X128705603Y-60752412D01*
X128731797Y-60833375D01*
X128721081Y-60903622D01*
X128681791Y-60965534D01*
X128604400Y-61008397D01*
X128481766Y-61023875D01*
X128363001Y-61015541D01*
X128263881Y-60990537D01*
X128110291Y-60919100D01*
X128024566Y-61157225D01*
X126944967Y-61157225D01*
X126908527Y-61096429D01*
X126855440Y-60984185D01*
X126813610Y-60867279D01*
X126783441Y-60746836D01*
X126765222Y-60624015D01*
X126759130Y-60500000D01*
X126765222Y-60375985D01*
X126783441Y-60253164D01*
X126813610Y-60132721D01*
X126855440Y-60015815D01*
X126908527Y-59903571D01*
X126972361Y-59797072D01*
X127046325Y-59697342D01*
X127129709Y-59605342D01*
X127221709Y-59521958D01*
X127321439Y-59447993D01*
X127427938Y-59384160D01*
X127540182Y-59331073D01*
X127657088Y-59289243D01*
X127777532Y-59259074D01*
X127900352Y-59240855D01*
X128024367Y-59234762D01*
X128024566Y-59234762D01*
X134975434Y-59234762D01*
X134975633Y-59234762D01*
X135099648Y-59240855D01*
G37*
%TO.C,kibuzzard-66574FE6*%
G36*
X134294595Y-66234763D02*
G01*
X134418610Y-66240855D01*
X134541431Y-66259074D01*
X134661874Y-66289243D01*
X134778781Y-66331073D01*
X134891024Y-66384160D01*
X134997524Y-66447993D01*
X135097253Y-66521958D01*
X135189253Y-66605342D01*
X135272637Y-66697342D01*
X135346602Y-66797072D01*
X135410435Y-66903571D01*
X135463522Y-67015815D01*
X135505352Y-67132721D01*
X135535522Y-67253164D01*
X135553740Y-67375985D01*
X135559833Y-67500000D01*
X135553740Y-67624015D01*
X135535522Y-67746836D01*
X135505352Y-67867279D01*
X135463522Y-67984185D01*
X135410435Y-68096429D01*
X135346602Y-68202928D01*
X135272637Y-68302658D01*
X135189253Y-68394658D01*
X135097253Y-68478042D01*
X134997524Y-68552007D01*
X134891024Y-68615840D01*
X134778781Y-68668927D01*
X134661874Y-68710757D01*
X134541431Y-68740926D01*
X134418610Y-68759145D01*
X134294595Y-68765237D01*
X134294397Y-68765237D01*
X133751472Y-68765237D01*
X131539291Y-68765237D01*
X129358066Y-68765237D01*
X128705603Y-68765237D01*
X128705405Y-68765237D01*
X128705405Y-68765238D01*
X128581390Y-68759145D01*
X128458569Y-68740926D01*
X128338126Y-68710757D01*
X128221219Y-68668927D01*
X128108976Y-68615840D01*
X128002476Y-68552007D01*
X127902747Y-68478042D01*
X127810747Y-68394658D01*
X127727363Y-68302658D01*
X127653398Y-68202928D01*
X127626005Y-68157225D01*
X133294272Y-68157225D01*
X133458578Y-68229853D01*
X133586570Y-68259321D01*
X133751472Y-68269144D01*
X133918556Y-68256576D01*
X134054684Y-68218873D01*
X134159856Y-68156034D01*
X134260762Y-68019410D01*
X134294397Y-67835756D01*
X134284277Y-67724730D01*
X134253916Y-67634541D01*
X134150331Y-67501191D01*
X134012219Y-67415466D01*
X133868153Y-67357125D01*
X133776475Y-67321406D01*
X133693131Y-67277353D01*
X133632409Y-67220203D01*
X133608597Y-67145194D01*
X133634526Y-67051267D01*
X133712314Y-66994910D01*
X133841959Y-66976125D01*
X134009838Y-66999937D01*
X134141997Y-67057087D01*
X134227722Y-66830869D01*
X134057463Y-66761812D01*
X133947627Y-66738595D01*
X133820528Y-66730856D01*
X133674610Y-66743821D01*
X133551182Y-66782715D01*
X133450244Y-66847537D01*
X133349338Y-66986841D01*
X133315703Y-67171387D01*
X133353803Y-67346409D01*
X133450244Y-67464281D01*
X133580022Y-67542862D01*
X133718134Y-67597631D01*
X133818147Y-67639303D01*
X133908634Y-67689309D01*
X133975309Y-67752412D01*
X134001503Y-67833375D01*
X133990788Y-67903622D01*
X133951497Y-67965534D01*
X133874106Y-68008397D01*
X133751472Y-68023875D01*
X133632707Y-68015541D01*
X133533588Y-67990537D01*
X133379997Y-67919100D01*
X133294272Y-68157225D01*
X127626005Y-68157225D01*
X127589565Y-68096429D01*
X127536478Y-67984185D01*
X127494648Y-67867279D01*
X127464478Y-67746836D01*
X127446260Y-67624015D01*
X127440167Y-67500000D01*
X127440986Y-67483331D01*
X128705603Y-67483331D01*
X128705603Y-67771462D01*
X129358066Y-67771462D01*
X129358066Y-67733362D01*
X130913022Y-67733362D01*
X131286878Y-67733362D01*
X131286878Y-68147700D01*
X131539291Y-68147700D01*
X131539291Y-67733362D01*
X131913147Y-67733362D01*
X131913147Y-67492856D01*
X131539291Y-67492856D01*
X131539291Y-67078519D01*
X131286878Y-67078519D01*
X131286878Y-67492856D01*
X130913022Y-67492856D01*
X130913022Y-67733362D01*
X129358066Y-67733362D01*
X129358066Y-67483331D01*
X128705603Y-67483331D01*
X127440986Y-67483331D01*
X127446260Y-67375985D01*
X127464478Y-67253164D01*
X127494648Y-67132721D01*
X127536478Y-67015815D01*
X127589565Y-66903571D01*
X127653398Y-66797072D01*
X127727363Y-66697342D01*
X127810747Y-66605342D01*
X127902747Y-66521958D01*
X128002476Y-66447993D01*
X128108976Y-66384160D01*
X128221219Y-66331073D01*
X128338126Y-66289243D01*
X128458569Y-66259074D01*
X128581390Y-66240855D01*
X128705405Y-66234762D01*
X128705603Y-66234762D01*
X134294397Y-66234762D01*
X134294595Y-66234762D01*
X134294595Y-66234763D01*
G37*
%TO.C,kibuzzard-6642DA1F*%
G36*
X117541672Y-117707106D02*
G01*
X117579772Y-117854744D01*
X117611919Y-118001191D01*
X117640494Y-118153591D01*
X117352363Y-118153591D01*
X117382128Y-118001191D01*
X117415466Y-117854744D01*
X117453566Y-117707106D01*
X117497619Y-117548753D01*
X117541672Y-117707106D01*
G37*
G36*
X118370586Y-116772847D02*
G01*
X118490286Y-116790603D01*
X118607669Y-116820006D01*
X118721605Y-116860773D01*
X118830997Y-116912511D01*
X118934790Y-116974723D01*
X119031986Y-117046808D01*
X119121648Y-117128073D01*
X119202914Y-117217736D01*
X119274999Y-117314932D01*
X119337211Y-117418725D01*
X119388949Y-117528117D01*
X119429716Y-117642053D01*
X119459119Y-117759436D01*
X119476875Y-117879136D01*
X119482812Y-118000000D01*
X119476875Y-118120864D01*
X119459119Y-118240564D01*
X119429716Y-118357947D01*
X119388949Y-118471883D01*
X119337211Y-118581275D01*
X119274999Y-118685068D01*
X119202914Y-118782264D01*
X119121648Y-118871927D01*
X119031986Y-118953192D01*
X118934790Y-119025277D01*
X118830997Y-119087489D01*
X118721605Y-119139227D01*
X118607669Y-119179994D01*
X118490286Y-119209397D01*
X118370586Y-119227153D01*
X118249722Y-119233091D01*
X118249523Y-119233091D01*
X117759556Y-119233091D01*
X116750477Y-119233091D01*
X116750278Y-119233091D01*
X116629414Y-119227153D01*
X116509714Y-119209397D01*
X116392331Y-119179994D01*
X116278395Y-119139227D01*
X116169003Y-119087489D01*
X116065210Y-119025277D01*
X115968014Y-118953192D01*
X115878352Y-118871927D01*
X115797086Y-118782264D01*
X115763514Y-118736997D01*
X116926119Y-118736997D01*
X117230919Y-118736997D01*
X117297594Y-118396478D01*
X117690500Y-118396478D01*
X117759556Y-118736997D01*
X118073881Y-118736997D01*
X118034591Y-118569881D01*
X117994824Y-118407622D01*
X117954581Y-118250222D01*
X117913861Y-118097679D01*
X117872666Y-117949994D01*
X117820799Y-117770879D01*
X117768784Y-117596676D01*
X117716619Y-117427384D01*
X117664306Y-117263003D01*
X117345219Y-117263003D01*
X117294766Y-117426044D01*
X117243420Y-117593699D01*
X117191182Y-117765968D01*
X117138050Y-117942850D01*
X117095283Y-118089297D01*
X117052706Y-118241935D01*
X117010320Y-118400764D01*
X116968124Y-118565785D01*
X116926119Y-118736997D01*
X115763514Y-118736997D01*
X115725001Y-118685068D01*
X115662789Y-118581275D01*
X115611051Y-118471883D01*
X115570284Y-118357947D01*
X115540881Y-118240564D01*
X115523125Y-118120864D01*
X115517188Y-118000000D01*
X115523125Y-117879136D01*
X115540881Y-117759436D01*
X115570284Y-117642053D01*
X115611051Y-117528117D01*
X115662789Y-117418725D01*
X115725001Y-117314932D01*
X115797086Y-117217736D01*
X115878352Y-117128073D01*
X115968014Y-117046808D01*
X116065210Y-116974723D01*
X116169003Y-116912511D01*
X116278395Y-116860773D01*
X116392331Y-116820006D01*
X116509714Y-116790603D01*
X116629414Y-116772847D01*
X116750278Y-116766909D01*
X116750477Y-116766909D01*
X118249523Y-116766909D01*
X118249722Y-116766909D01*
X118370586Y-116772847D01*
G37*
%TO.C,kibuzzard-6642DA03*%
G36*
X132638113Y-118136922D02*
G01*
X132705978Y-118290513D01*
X132682166Y-118396478D01*
X132621444Y-118460772D01*
X132536909Y-118491728D01*
X132439278Y-118500062D01*
X132366650Y-118497681D01*
X132298784Y-118490537D01*
X132298784Y-118090487D01*
X132455947Y-118090487D01*
X132638113Y-118136922D01*
G37*
G36*
X132510716Y-117505891D02*
G01*
X132577391Y-117529703D01*
X132622634Y-117579709D01*
X132639303Y-117664244D01*
X132582153Y-117798784D01*
X132413084Y-117847600D01*
X132298784Y-117847600D01*
X132298784Y-117509463D01*
X132363078Y-117502319D01*
X132432134Y-117499938D01*
X132510716Y-117505891D01*
G37*
G36*
X133372336Y-116755074D02*
G01*
X133493770Y-116773087D01*
X133612853Y-116802915D01*
X133728440Y-116844273D01*
X133839415Y-116896761D01*
X133944712Y-116959873D01*
X134043316Y-117033003D01*
X134134277Y-117115445D01*
X134216719Y-117206406D01*
X134289849Y-117305009D01*
X134352961Y-117410306D01*
X134405449Y-117521282D01*
X134446806Y-117636868D01*
X134476635Y-117755952D01*
X134494648Y-117877385D01*
X134500672Y-118000000D01*
X134494648Y-118122615D01*
X134476635Y-118244048D01*
X134446806Y-118363132D01*
X134405449Y-118478718D01*
X134352961Y-118589694D01*
X134289849Y-118694991D01*
X134216719Y-118793594D01*
X134134277Y-118884555D01*
X134043316Y-118966997D01*
X133944712Y-119040127D01*
X133839415Y-119103239D01*
X133728440Y-119155727D01*
X133612853Y-119197085D01*
X133493770Y-119226913D01*
X133372336Y-119244926D01*
X133249722Y-119250950D01*
X133249523Y-119250950D01*
X132415466Y-119250950D01*
X131750477Y-119250950D01*
X131750278Y-119250950D01*
X131627664Y-119244926D01*
X131506230Y-119226913D01*
X131387147Y-119197085D01*
X131271560Y-119155727D01*
X131160585Y-119103239D01*
X131055288Y-119040127D01*
X130956684Y-118966997D01*
X130865723Y-118884555D01*
X130783281Y-118793594D01*
X130722761Y-118711994D01*
X132005891Y-118711994D01*
X132108880Y-118730746D01*
X132213059Y-118744141D01*
X132316048Y-118752177D01*
X132415466Y-118754856D01*
X132533040Y-118749201D01*
X132642875Y-118732234D01*
X132741697Y-118701873D01*
X132826231Y-118656034D01*
X132948866Y-118513159D01*
X132982798Y-118412849D01*
X132994109Y-118290513D01*
X132980715Y-118190500D01*
X132940531Y-118095250D01*
X132862843Y-118011906D01*
X132736934Y-117947613D01*
X132873856Y-117819025D01*
X132912254Y-117732109D01*
X132925053Y-117633288D01*
X132903622Y-117495175D01*
X132822659Y-117370159D01*
X132658353Y-117279672D01*
X132538100Y-117253776D01*
X132386891Y-117245144D01*
X132189247Y-117255859D01*
X132005891Y-117280863D01*
X132005891Y-118711994D01*
X130722761Y-118711994D01*
X130710151Y-118694991D01*
X130647039Y-118589694D01*
X130594551Y-118478718D01*
X130553194Y-118363132D01*
X130523365Y-118244048D01*
X130505352Y-118122615D01*
X130499328Y-118000000D01*
X130505352Y-117877385D01*
X130523365Y-117755952D01*
X130553194Y-117636868D01*
X130594551Y-117521282D01*
X130647039Y-117410306D01*
X130710151Y-117305009D01*
X130783281Y-117206406D01*
X130865723Y-117115445D01*
X130956684Y-117033003D01*
X131055288Y-116959873D01*
X131160585Y-116896761D01*
X131271560Y-116844273D01*
X131387147Y-116802915D01*
X131506230Y-116773087D01*
X131627664Y-116755074D01*
X131750278Y-116749050D01*
X131750477Y-116749050D01*
X133249523Y-116749050D01*
X133249722Y-116749050D01*
X133372336Y-116755074D01*
G37*
%TO.C,kibuzzard-6642DA41*%
G36*
X148373737Y-116740855D02*
G01*
X148496557Y-116759074D01*
X148617001Y-116789243D01*
X148733907Y-116831073D01*
X148846151Y-116884160D01*
X148952650Y-116947993D01*
X149052380Y-117021958D01*
X149144380Y-117105342D01*
X149227763Y-117197342D01*
X149301728Y-117297072D01*
X149365562Y-117403571D01*
X149418649Y-117515815D01*
X149460478Y-117632721D01*
X149490648Y-117753164D01*
X149508867Y-117875985D01*
X149514959Y-118000000D01*
X149508867Y-118124015D01*
X149490648Y-118246836D01*
X149460478Y-118367279D01*
X149418649Y-118484185D01*
X149365562Y-118596429D01*
X149301728Y-118702928D01*
X149227763Y-118802658D01*
X149144380Y-118894658D01*
X149052380Y-118978042D01*
X148952650Y-119052007D01*
X148846151Y-119115840D01*
X148733907Y-119168927D01*
X148617001Y-119210757D01*
X148496557Y-119240926D01*
X148373737Y-119259145D01*
X148249722Y-119265237D01*
X148249523Y-119265237D01*
X147614300Y-119265237D01*
X146750477Y-119265237D01*
X146750278Y-119265237D01*
X146750278Y-119265238D01*
X146626263Y-119259145D01*
X146503443Y-119240926D01*
X146382999Y-119210757D01*
X146266093Y-119168927D01*
X146153849Y-119115840D01*
X146047350Y-119052007D01*
X145947620Y-118978042D01*
X145855620Y-118894658D01*
X145772237Y-118802658D01*
X145698272Y-118702928D01*
X145634438Y-118596429D01*
X145581351Y-118484185D01*
X145539522Y-118367279D01*
X145509352Y-118246836D01*
X145491133Y-118124015D01*
X145485041Y-118000000D01*
X146973744Y-118000000D01*
X146984013Y-118173980D01*
X147014820Y-118326827D01*
X147066166Y-118458539D01*
X147138050Y-118569119D01*
X147263992Y-118680244D01*
X147422742Y-118746919D01*
X147614300Y-118769144D01*
X147744376Y-118761107D01*
X147858378Y-118736997D01*
X148026256Y-118666750D01*
X147952438Y-118435769D01*
X147832184Y-118488156D01*
X147642875Y-118514350D01*
X147472913Y-118480715D01*
X147358316Y-118379809D01*
X147310029Y-118277019D01*
X147281057Y-118148034D01*
X147271400Y-117992856D01*
X147279437Y-117859506D01*
X147303547Y-117749969D01*
X147386891Y-117593997D01*
X147503572Y-117510653D01*
X147638113Y-117485650D01*
X147815516Y-117510653D01*
X147947675Y-117571375D01*
X148023875Y-117338012D01*
X147975059Y-117309437D01*
X147895288Y-117273719D01*
X147784559Y-117243953D01*
X147642875Y-117230856D01*
X147503274Y-117243655D01*
X147374984Y-117282053D01*
X147260684Y-117345156D01*
X147163053Y-117432072D01*
X147083579Y-117541907D01*
X147023750Y-117673769D01*
X146986245Y-117826764D01*
X146973744Y-118000000D01*
X145485041Y-118000000D01*
X145491133Y-117875985D01*
X145509352Y-117753164D01*
X145539522Y-117632721D01*
X145581351Y-117515815D01*
X145634438Y-117403571D01*
X145698272Y-117297072D01*
X145772237Y-117197342D01*
X145855620Y-117105342D01*
X145947620Y-117021958D01*
X146047350Y-116947993D01*
X146153849Y-116884160D01*
X146266093Y-116831073D01*
X146382999Y-116789243D01*
X146503443Y-116759074D01*
X146626263Y-116740855D01*
X146750278Y-116734762D01*
X146750477Y-116734762D01*
X148249523Y-116734762D01*
X148249722Y-116734762D01*
X148373737Y-116740855D01*
G37*
%TD*%
%LPC*%
D12*
%TO.C,REF\u002A\u002A*%
X100500000Y-61500000D03*
%TD*%
%TO.C,REF\u002A\u002A*%
X100500000Y-116500000D03*
%TD*%
%TO.C,REF\u002A\u002A*%
X179500000Y-116500000D03*
%TD*%
%TO.C,REF\u002A\u002A*%
X179500000Y-61500000D03*
%TD*%
%LPD*%
M02*
