%TF.GenerationSoftware,KiCad,Pcbnew,7.0.8*%
%TF.CreationDate,2024-06-06T18:36:12-04:00*%
%TF.ProjectId,mainboard,6d61696e-626f-4617-9264-2e6b69636164,rev?*%
%TF.SameCoordinates,Original*%
%TF.FileFunction,Paste,Top*%
%TF.FilePolarity,Positive*%
%FSLAX46Y46*%
G04 Gerber Fmt 4.6, Leading zero omitted, Abs format (unit mm)*
G04 Created by KiCad (PCBNEW 7.0.8) date 2024-06-06 18:36:12*
%MOMM*%
%LPD*%
G01*
G04 APERTURE LIST*
G04 Aperture macros list*
%AMRoundRect*
0 Rectangle with rounded corners*
0 $1 Rounding radius*
0 $2 $3 $4 $5 $6 $7 $8 $9 X,Y pos of 4 corners*
0 Add a 4 corners polygon primitive as box body*
4,1,4,$2,$3,$4,$5,$6,$7,$8,$9,$2,$3,0*
0 Add four circle primitives for the rounded corners*
1,1,$1+$1,$2,$3*
1,1,$1+$1,$4,$5*
1,1,$1+$1,$6,$7*
1,1,$1+$1,$8,$9*
0 Add four rect primitives between the rounded corners*
20,1,$1+$1,$2,$3,$4,$5,0*
20,1,$1+$1,$4,$5,$6,$7,0*
20,1,$1+$1,$6,$7,$8,$9,0*
20,1,$1+$1,$8,$9,$2,$3,0*%
G04 Aperture macros list end*
%ADD10RoundRect,0.100000X0.100000X-0.637500X0.100000X0.637500X-0.100000X0.637500X-0.100000X-0.637500X0*%
%ADD11RoundRect,0.200000X-0.275000X0.200000X-0.275000X-0.200000X0.275000X-0.200000X0.275000X0.200000X0*%
%ADD12RoundRect,0.250000X-0.550000X1.500000X-0.550000X-1.500000X0.550000X-1.500000X0.550000X1.500000X0*%
%ADD13RoundRect,0.250000X-0.475000X0.250000X-0.475000X-0.250000X0.475000X-0.250000X0.475000X0.250000X0*%
%ADD14RoundRect,0.225000X0.225000X0.250000X-0.225000X0.250000X-0.225000X-0.250000X0.225000X-0.250000X0*%
%ADD15RoundRect,0.200000X0.275000X-0.200000X0.275000X0.200000X-0.275000X0.200000X-0.275000X-0.200000X0*%
%ADD16RoundRect,0.112500X0.112500X-0.187500X0.112500X0.187500X-0.112500X0.187500X-0.112500X-0.187500X0*%
%ADD17R,0.800000X0.300000*%
G04 APERTURE END LIST*
D10*
%TO.C,U1*%
X145550000Y-76145434D03*
X146200000Y-76145434D03*
X146850000Y-76145434D03*
X147500000Y-76145434D03*
X148150000Y-76145434D03*
X148800000Y-76145434D03*
X149450000Y-76145434D03*
X149450000Y-70420434D03*
X148800000Y-70420434D03*
X148150000Y-70420434D03*
X147500000Y-70420434D03*
X146850000Y-70420434D03*
X146200000Y-70420434D03*
X145550000Y-70420434D03*
%TD*%
D11*
%TO.C,R1*%
X124800000Y-73175000D03*
X124800000Y-74825000D03*
%TD*%
D12*
%TO.C,C5*%
X122600000Y-63300000D03*
X122600000Y-68700000D03*
%TD*%
D13*
%TO.C,C4*%
X135000000Y-73050000D03*
X135000000Y-74950000D03*
%TD*%
D14*
%TO.C,C2*%
X143025000Y-75000000D03*
X141475000Y-75000000D03*
%TD*%
D15*
%TO.C,R3*%
X152000000Y-78317554D03*
X152000000Y-76667554D03*
%TD*%
D16*
%TO.C,D1*%
X131400000Y-75050000D03*
X131400000Y-72950000D03*
%TD*%
D13*
%TO.C,C3*%
X128000000Y-73050000D03*
X128000000Y-74950000D03*
%TD*%
D15*
%TO.C,R2*%
X122800000Y-74825000D03*
X122800000Y-73175000D03*
%TD*%
D17*
%TO.C,U2*%
X154200000Y-73750000D03*
X154200000Y-74250000D03*
X154200000Y-74750000D03*
X154200000Y-75250000D03*
X157300000Y-75250000D03*
X157300000Y-74750000D03*
X157300000Y-74250000D03*
X157300000Y-73750000D03*
%TD*%
D14*
%TO.C,C1*%
X143025000Y-73000000D03*
X141475000Y-73000000D03*
%TD*%
M02*
